{
  "header": {
    "PPQ": 192,
    "timeSignature": [
      4,
      4
    ],
    "bpm": 130.00013000013,
    "name": ""
  },
  "startTime": 0,
  "duration": 245.52860062500034,
  "tracks": [
    {
      "startTime": 0,
      "duration": 0,
      "length": 0,
      "notes": [],
      "controlChanges": {},
      "id": 0
    },
    {
      "startTime": 1.8461520000000002,
      "duration": 245.30985084374336,
      "length": 1351,
      "notes": [
        {
          "name": "F#2",
          "midi": 42,
          "time": 1.8461520000000002,
          "velocity": 0.9763779527559056,
          "duration": 0.002403843750000023
        },
        {
          "name": "F#2",
          "midi": 42,
          "time": 2.30769,
          "velocity": 0.9763779527559056,
          "duration": 0.002403843749999801
        },
        {
          "name": "F#2",
          "midi": 42,
          "time": 2.7692279999999996,
          "velocity": 0.9763779527559056,
          "duration": 0.002403843749999801
        },
        {
          "name": "D2",
          "midi": 38,
          "time": 3.230765999999999,
          "velocity": 0.8818897637795275,
          "duration": 0.002403843749999801
        },
        {
          "name": "C#3",
          "midi": 49,
          "time": 3.230765999999999,
          "velocity": 1,
          "duration": 0.002403843749999801
        },
        {
          "name": "C2",
          "midi": 36,
          "time": 3.6923039999999987,
          "velocity": 1,
          "duration": 0.002403843749999801
        },
        {
          "name": "D2",
          "midi": 38,
          "time": 3.6923039999999987,
          "velocity": 0.5354330708661418,
          "duration": 0.002403843749999801
        },
        {
          "name": "C2",
          "midi": 36,
          "time": 3.9230729999999987,
          "velocity": 1,
          "duration": 0.002403843749999801
        },
        {
          "name": "D2",
          "midi": 38,
          "time": 3.9230729999999987,
          "velocity": 0.30708661417322836,
          "duration": 0.002403843749999801
        },
        {
          "name": "C2",
          "midi": 36,
          "time": 4.153841999999998,
          "velocity": 1,
          "duration": 0.002403843749999801
        },
        {
          "name": "D2",
          "midi": 38,
          "time": 4.153841999999998,
          "velocity": 0.5354330708661418,
          "duration": 0.002403843749999801
        },
        {
          "name": "C2",
          "midi": 36,
          "time": 4.384610999999998,
          "velocity": 1,
          "duration": 0.002403843749999801
        },
        {
          "name": "D2",
          "midi": 38,
          "time": 4.384610999999998,
          "velocity": 0.4094488188976378,
          "duration": 0.002403843749999801
        },
        {
          "name": "C2",
          "midi": 36,
          "time": 4.615379999999997,
          "velocity": 1,
          "duration": 0.002403843749999801
        },
        {
          "name": "D2",
          "midi": 38,
          "time": 4.615379999999997,
          "velocity": 0.5354330708661418,
          "duration": 0.002403843749999801
        },
        {
          "name": "C2",
          "midi": 36,
          "time": 4.846148999999997,
          "velocity": 1,
          "duration": 0.002403843749999801
        },
        {
          "name": "D2",
          "midi": 38,
          "time": 4.846148999999997,
          "velocity": 0.5354330708661418,
          "duration": 0.002403843749999801
        },
        {
          "name": "C2",
          "midi": 36,
          "time": 5.0769179999999965,
          "velocity": 1,
          "duration": 0.002403843749999801
        },
        {
          "name": "D2",
          "midi": 38,
          "time": 5.0769179999999965,
          "velocity": 0.5354330708661418,
          "duration": 0.002403843749999801
        },
        {
          "name": "C2",
          "midi": 36,
          "time": 5.307686999999996,
          "velocity": 1,
          "duration": 0.002403843749999801
        },
        {
          "name": "D2",
          "midi": 38,
          "time": 5.307686999999996,
          "velocity": 0.7480314960629921,
          "duration": 0.002403843749999801
        },
        {
          "name": "C2",
          "midi": 36,
          "time": 5.538455999999996,
          "velocity": 1,
          "duration": 0.002403843749999801
        },
        {
          "name": "D2",
          "midi": 38,
          "time": 5.538455999999996,
          "velocity": 0.7480314960629921,
          "duration": 0.002403843749999801
        },
        {
          "name": "C2",
          "midi": 36,
          "time": 5.769224999999995,
          "velocity": 1,
          "duration": 0.002403843749999801
        },
        {
          "name": "D2",
          "midi": 38,
          "time": 5.769224999999995,
          "velocity": 0.7480314960629921,
          "duration": 0.002403843749999801
        },
        {
          "name": "C2",
          "midi": 36,
          "time": 5.999993999999995,
          "velocity": 1,
          "duration": 0.002403843749999801
        },
        {
          "name": "D2",
          "midi": 38,
          "time": 5.999993999999995,
          "velocity": 0.8818897637795275,
          "duration": 0.002403843749999801
        },
        {
          "name": "C2",
          "midi": 36,
          "time": 6.230762999999994,
          "velocity": 1,
          "duration": 0.002403843749999801
        },
        {
          "name": "D2",
          "midi": 38,
          "time": 6.230762999999994,
          "velocity": 0.8818897637795275,
          "duration": 0.002403843749999801
        },
        {
          "name": "C2",
          "midi": 36,
          "time": 6.461531999999994,
          "velocity": 1,
          "duration": 0.002403843749999801
        },
        {
          "name": "D2",
          "midi": 38,
          "time": 6.461531999999994,
          "velocity": 0.8818897637795275,
          "duration": 0.002403843749999801
        },
        {
          "name": "C2",
          "midi": 36,
          "time": 6.692300999999993,
          "velocity": 1,
          "duration": 0.002403843749999801
        },
        {
          "name": "D2",
          "midi": 38,
          "time": 6.692300999999993,
          "velocity": 0.8818897637795275,
          "duration": 0.002403843749999801
        },
        {
          "name": "C2",
          "midi": 36,
          "time": 6.923069999999993,
          "velocity": 1,
          "duration": 0.002403843749999801
        },
        {
          "name": "D2",
          "midi": 38,
          "time": 6.923069999999993,
          "velocity": 0.9763779527559056,
          "duration": 0.002403843749999801
        },
        {
          "name": "C2",
          "midi": 36,
          "time": 7.1538389999999925,
          "velocity": 1,
          "duration": 0.002403843749999801
        },
        {
          "name": "C#3",
          "midi": 49,
          "time": 7.1538389999999925,
          "velocity": 0.9133858267716536,
          "duration": 0.002403843749999801
        },
        {
          "name": "F#2",
          "midi": 42,
          "time": 7.6153769999999925,
          "velocity": 0.9133858267716536,
          "duration": 0.002403843749999801
        },
        {
          "name": "C2",
          "midi": 36,
          "time": 7.846145999999992,
          "velocity": 0.9763779527559056,
          "duration": 0.002403843749999801
        },
        {
          "name": "D2",
          "midi": 38,
          "time": 7.846145999999992,
          "velocity": 0.9763779527559056,
          "duration": 0.002403843749999801
        },
        {
          "name": "F#2",
          "midi": 42,
          "time": 8.076914999999993,
          "velocity": 0.7874015748031497,
          "duration": 0.0024038437500006893
        },
        {
          "name": "C2",
          "midi": 36,
          "time": 8.307683999999993,
          "velocity": 0.9763779527559056,
          "duration": 0.0024038437500006893
        },
        {
          "name": "F#2",
          "midi": 42,
          "time": 8.538452999999993,
          "velocity": 0.7874015748031497,
          "duration": 0.0024038437500006893
        },
        {
          "name": "C2",
          "midi": 36,
          "time": 8.769221999999994,
          "velocity": 0.9763779527559056,
          "duration": 0.0024038437500006893
        },
        {
          "name": "D2",
          "midi": 38,
          "time": 8.769221999999994,
          "velocity": 0.9763779527559056,
          "duration": 0.0024038437500006893
        },
        {
          "name": "F#2",
          "midi": 42,
          "time": 8.999990999999994,
          "velocity": 0.7874015748031497,
          "duration": 0.0024038437500006893
        },
        {
          "name": "C2",
          "midi": 36,
          "time": 9.230759999999995,
          "velocity": 0.9763779527559056,
          "duration": 0.0024038437500006893
        },
        {
          "name": "F#2",
          "midi": 42,
          "time": 9.461528999999995,
          "velocity": 0.6535433070866141,
          "duration": 0.0024038437500006893
        },
        {
          "name": "C2",
          "midi": 36,
          "time": 9.692297999999996,
          "velocity": 0.9763779527559056,
          "duration": 0.0024038437500006893
        },
        {
          "name": "D2",
          "midi": 38,
          "time": 9.692297999999996,
          "velocity": 0.9763779527559056,
          "duration": 0.0024038437500006893
        },
        {
          "name": "F#2",
          "midi": 42,
          "time": 9.923066999999996,
          "velocity": 0.6535433070866141,
          "duration": 0.0024038437500006893
        },
        {
          "name": "C2",
          "midi": 36,
          "time": 10.153835999999997,
          "velocity": 0.8818897637795275,
          "duration": 0.0024038437500006893
        },
        {
          "name": "F#2",
          "midi": 42,
          "time": 10.384604999999997,
          "velocity": 0.7874015748031497,
          "duration": 0.0024038437500006893
        },
        {
          "name": "C2",
          "midi": 36,
          "time": 10.615373999999997,
          "velocity": 0.9763779527559056,
          "duration": 0.0024038437500006893
        },
        {
          "name": "D2",
          "midi": 38,
          "time": 10.615373999999997,
          "velocity": 0.9763779527559056,
          "duration": 0.0024038437500006893
        },
        {
          "name": "F#2",
          "midi": 42,
          "time": 10.846142999999998,
          "velocity": 0.7874015748031497,
          "duration": 0.0024038437500006893
        },
        {
          "name": "C2",
          "midi": 36,
          "time": 11.076911999999998,
          "velocity": 0.9763779527559056,
          "duration": 0.0024038437500006893
        },
        {
          "name": "F#2",
          "midi": 42,
          "time": 11.307680999999999,
          "velocity": 0.9133858267716536,
          "duration": 0.0024038437500006893
        },
        {
          "name": "C2",
          "midi": 36,
          "time": 11.53845,
          "velocity": 0.9763779527559056,
          "duration": 0.0024038437500006893
        },
        {
          "name": "D2",
          "midi": 38,
          "time": 11.53845,
          "velocity": 0.9763779527559056,
          "duration": 0.0024038437500006893
        },
        {
          "name": "F#2",
          "midi": 42,
          "time": 11.769219,
          "velocity": 0.48031496062992124,
          "duration": 0.0024038437500006893
        },
        {
          "name": "C2",
          "midi": 36,
          "time": 11.999988,
          "velocity": 0.8818897637795275,
          "duration": 0.0024038437500006893
        },
        {
          "name": "F#2",
          "midi": 42,
          "time": 12.230757,
          "velocity": 0.3779527559055118,
          "duration": 0.0024038437500006893
        },
        {
          "name": "C2",
          "midi": 36,
          "time": 12.461526000000001,
          "velocity": 0.9763779527559056,
          "duration": 0.0024038437500006893
        },
        {
          "name": "D2",
          "midi": 38,
          "time": 12.461526000000001,
          "velocity": 0.8818897637795275,
          "duration": 0.0024038437500006893
        },
        {
          "name": "F#2",
          "midi": 42,
          "time": 12.692295000000001,
          "velocity": 0.3779527559055118,
          "duration": 0.0024038437500006893
        },
        {
          "name": "C2",
          "midi": 36,
          "time": 12.923064000000002,
          "velocity": 0.9763779527559056,
          "duration": 0.0024038437500006893
        },
        {
          "name": "F#2",
          "midi": 42,
          "time": 13.153833000000002,
          "velocity": 0.6535433070866141,
          "duration": 0.0024038437500006893
        },
        {
          "name": "C2",
          "midi": 36,
          "time": 13.384602000000003,
          "velocity": 0.9763779527559056,
          "duration": 0.0024038437500006893
        },
        {
          "name": "D2",
          "midi": 38,
          "time": 13.384602000000003,
          "velocity": 0.9763779527559056,
          "duration": 0.0024038437500006893
        },
        {
          "name": "F#2",
          "midi": 42,
          "time": 13.615371000000003,
          "velocity": 0.7874015748031497,
          "duration": 0.0024038437500006893
        },
        {
          "name": "C2",
          "midi": 36,
          "time": 13.846140000000004,
          "velocity": 0.9763779527559056,
          "duration": 0.0024038437500006893
        },
        {
          "name": "F#2",
          "midi": 42,
          "time": 14.076909000000004,
          "velocity": 0.6535433070866141,
          "duration": 0.0024038437500006893
        },
        {
          "name": "C2",
          "midi": 36,
          "time": 14.307678000000005,
          "velocity": 0.9763779527559056,
          "duration": 0.0024038437500006893
        },
        {
          "name": "D2",
          "midi": 38,
          "time": 14.307678000000005,
          "velocity": 0.8818897637795275,
          "duration": 0.0024038437500006893
        },
        {
          "name": "A#2",
          "midi": 46,
          "time": 14.538447000000005,
          "velocity": 0.7874015748031497,
          "duration": 0.0024038437500006893
        },
        {
          "name": "C2",
          "midi": 36,
          "time": 14.769216000000005,
          "velocity": 0.9763779527559056,
          "duration": 0.0024038437500006893
        },
        {
          "name": "F#2",
          "midi": 42,
          "time": 14.999985000000006,
          "velocity": 0.5590551181102362,
          "duration": 0.0024038437500006893
        },
        {
          "name": "C2",
          "midi": 36,
          "time": 15.230754000000006,
          "velocity": 0.9763779527559056,
          "duration": 0.0024038437500006893
        },
        {
          "name": "D2",
          "midi": 38,
          "time": 15.230754000000006,
          "velocity": 0.9763779527559056,
          "duration": 0.0024038437500006893
        },
        {
          "name": "F#2",
          "midi": 42,
          "time": 15.461523000000007,
          "velocity": 0.7874015748031497,
          "duration": 0.0024038437500006893
        },
        {
          "name": "C2",
          "midi": 36,
          "time": 15.692292000000007,
          "velocity": 0.9763779527559056,
          "duration": 0.0024038437500006893
        },
        {
          "name": "F#2",
          "midi": 42,
          "time": 15.923061000000008,
          "velocity": 0.7874015748031497,
          "duration": 0.0024038437500006893
        },
        {
          "name": "C2",
          "midi": 36,
          "time": 16.15383000000001,
          "velocity": 0.9763779527559056,
          "duration": 0.002403843749998913
        },
        {
          "name": "D2",
          "midi": 38,
          "time": 16.15383000000001,
          "velocity": 0.8818897637795275,
          "duration": 0.002403843749998913
        },
        {
          "name": "F#2",
          "midi": 42,
          "time": 16.38459900000001,
          "velocity": 0.7874015748031497,
          "duration": 0.002403843749998913
        },
        {
          "name": "C2",
          "midi": 36,
          "time": 16.615368000000007,
          "velocity": 0.9763779527559056,
          "duration": 0.002403843749998913
        },
        {
          "name": "F#2",
          "midi": 42,
          "time": 16.846137000000006,
          "velocity": 0.5590551181102362,
          "duration": 0.002403843749998913
        },
        {
          "name": "C2",
          "midi": 36,
          "time": 17.076906000000005,
          "velocity": 0.9763779527559056,
          "duration": 0.002403843749998913
        },
        {
          "name": "D2",
          "midi": 38,
          "time": 17.076906000000005,
          "velocity": 0.7480314960629921,
          "duration": 0.002403843749998913
        },
        {
          "name": "F#2",
          "midi": 42,
          "time": 17.307675000000003,
          "velocity": 0.3464566929133858,
          "duration": 0.002403843749998913
        },
        {
          "name": "C2",
          "midi": 36,
          "time": 17.538444000000002,
          "velocity": 0.9763779527559056,
          "duration": 0.002403843749998913
        },
        {
          "name": "F#2",
          "midi": 42,
          "time": 17.769213,
          "velocity": 0.48031496062992124,
          "duration": 0.002403843749998913
        },
        {
          "name": "C2",
          "midi": 36,
          "time": 17.999982,
          "velocity": 0.9763779527559056,
          "duration": 0.002403843749998913
        },
        {
          "name": "D2",
          "midi": 38,
          "time": 17.999982,
          "velocity": 0.9763779527559056,
          "duration": 0.002403843749998913
        },
        {
          "name": "A#2",
          "midi": 46,
          "time": 18.230750999999998,
          "velocity": 0.7874015748031497,
          "duration": 0.002403843749998913
        },
        {
          "name": "C2",
          "midi": 36,
          "time": 18.461519999999997,
          "velocity": 0.9763779527559056,
          "duration": 0.002403843749998913
        },
        {
          "name": "F#2",
          "midi": 42,
          "time": 18.692288999999995,
          "velocity": 0.6535433070866141,
          "duration": 0.002403843749998913
        },
        {
          "name": "C2",
          "midi": 36,
          "time": 18.923057999999994,
          "velocity": 0.9763779527559056,
          "duration": 0.002403843749998913
        },
        {
          "name": "D2",
          "midi": 38,
          "time": 18.923057999999994,
          "velocity": 0.9763779527559056,
          "duration": 0.002403843749998913
        },
        {
          "name": "F#2",
          "midi": 42,
          "time": 19.153826999999993,
          "velocity": 0.6535433070866141,
          "duration": 0.002403843749998913
        },
        {
          "name": "C2",
          "midi": 36,
          "time": 19.38459599999999,
          "velocity": 0.9763779527559056,
          "duration": 0.002403843749998913
        },
        {
          "name": "F#2",
          "midi": 42,
          "time": 19.61536499999999,
          "velocity": 0.48031496062992124,
          "duration": 0.002403843749998913
        },
        {
          "name": "C2",
          "midi": 36,
          "time": 19.84613399999999,
          "velocity": 0.9763779527559056,
          "duration": 0.002403843749998913
        },
        {
          "name": "D2",
          "midi": 38,
          "time": 19.84613399999999,
          "velocity": 0.9763779527559056,
          "duration": 0.002403843749998913
        },
        {
          "name": "F#2",
          "midi": 42,
          "time": 20.076902999999987,
          "velocity": 0.7874015748031497,
          "duration": 0.002403843749998913
        },
        {
          "name": "C2",
          "midi": 36,
          "time": 20.307671999999986,
          "velocity": 0.9763779527559056,
          "duration": 0.002403843749998913
        },
        {
          "name": "F#2",
          "midi": 42,
          "time": 20.538440999999985,
          "velocity": 0.48031496062992124,
          "duration": 0.002403843749998913
        },
        {
          "name": "C2",
          "midi": 36,
          "time": 20.769209999999983,
          "velocity": 0.9763779527559056,
          "duration": 0.002403843749998913
        },
        {
          "name": "D2",
          "midi": 38,
          "time": 20.769209999999983,
          "velocity": 0.7480314960629921,
          "duration": 0.002403843749998913
        },
        {
          "name": "F#2",
          "midi": 42,
          "time": 20.999978999999982,
          "velocity": 0.48031496062992124,
          "duration": 0.002403843749998913
        },
        {
          "name": "C2",
          "midi": 36,
          "time": 21.23074799999998,
          "velocity": 0.8818897637795275,
          "duration": 0.002403843749998913
        },
        {
          "name": "C2",
          "midi": 36,
          "time": 21.46151699999998,
          "velocity": 0.5354330708661418,
          "duration": 0.002403843749998913
        },
        {
          "name": "F#2",
          "midi": 42,
          "time": 21.46151699999998,
          "velocity": 0.6535433070866141,
          "duration": 0.002403843749998913
        },
        {
          "name": "C2",
          "midi": 36,
          "time": 21.692285999999978,
          "velocity": 0.9763779527559056,
          "duration": 0.002403843749998913
        },
        {
          "name": "D2",
          "midi": 38,
          "time": 21.692285999999978,
          "velocity": 0.9763779527559056,
          "duration": 0.002403843749998913
        },
        {
          "name": "A#2",
          "midi": 46,
          "time": 21.923054999999977,
          "velocity": 0.6535433070866141,
          "duration": 0.002403843749998913
        },
        {
          "name": "C2",
          "midi": 36,
          "time": 22.153823999999975,
          "velocity": 0.9763779527559056,
          "duration": 0.002403843749998913
        },
        {
          "name": "F#2",
          "midi": 42,
          "time": 22.384592999999974,
          "velocity": 0.4251968503937008,
          "duration": 0.002403843749998913
        },
        {
          "name": "C2",
          "midi": 36,
          "time": 22.615361999999973,
          "velocity": 0.9763779527559056,
          "duration": 0.002403843749998913
        },
        {
          "name": "D2",
          "midi": 38,
          "time": 22.615361999999973,
          "velocity": 0.9763779527559056,
          "duration": 0.002403843749998913
        },
        {
          "name": "F#2",
          "midi": 42,
          "time": 22.84613099999997,
          "velocity": 0.48031496062992124,
          "duration": 0.002403843749998913
        },
        {
          "name": "C2",
          "midi": 36,
          "time": 23.07689999999997,
          "velocity": 0.8818897637795275,
          "duration": 0.002403843749998913
        },
        {
          "name": "F#2",
          "midi": 42,
          "time": 23.30766899999997,
          "velocity": 0.5590551181102362,
          "duration": 0.002403843749998913
        },
        {
          "name": "C2",
          "midi": 36,
          "time": 23.538437999999967,
          "velocity": 0.9763779527559056,
          "duration": 0.002403843749998913
        },
        {
          "name": "D2",
          "midi": 38,
          "time": 23.538437999999967,
          "velocity": 0.8818897637795275,
          "duration": 0.002403843749998913
        },
        {
          "name": "F#2",
          "midi": 42,
          "time": 23.769206999999966,
          "velocity": 0.6535433070866141,
          "duration": 0.002403843749998913
        },
        {
          "name": "C2",
          "midi": 36,
          "time": 23.999975999999965,
          "velocity": 0.9763779527559056,
          "duration": 0.002403843749998913
        },
        {
          "name": "F#2",
          "midi": 42,
          "time": 24.230744999999963,
          "velocity": 0.5590551181102362,
          "duration": 0.002403843749998913
        },
        {
          "name": "C2",
          "midi": 36,
          "time": 24.461513999999962,
          "velocity": 0.9763779527559056,
          "duration": 0.002403843749998913
        },
        {
          "name": "D2",
          "midi": 38,
          "time": 24.461513999999962,
          "velocity": 0.9763779527559056,
          "duration": 0.002403843749998913
        },
        {
          "name": "F#2",
          "midi": 42,
          "time": 24.69228299999996,
          "velocity": 0.4251968503937008,
          "duration": 0.002403843749998913
        },
        {
          "name": "C2",
          "midi": 36,
          "time": 24.92305199999996,
          "velocity": 0.9763779527559056,
          "duration": 0.002403843749998913
        },
        {
          "name": "F#2",
          "midi": 42,
          "time": 25.153820999999958,
          "velocity": 0.3779527559055118,
          "duration": 0.002403843749998913
        },
        {
          "name": "C2",
          "midi": 36,
          "time": 25.384589999999957,
          "velocity": 0.9763779527559056,
          "duration": 0.002403843749998913
        },
        {
          "name": "D2",
          "midi": 38,
          "time": 25.384589999999957,
          "velocity": 0.9763779527559056,
          "duration": 0.002403843749998913
        },
        {
          "name": "F#2",
          "midi": 42,
          "time": 25.615358999999955,
          "velocity": 0.48031496062992124,
          "duration": 0.002403843749998913
        },
        {
          "name": "C2",
          "midi": 36,
          "time": 25.846127999999954,
          "velocity": 0.9763779527559056,
          "duration": 0.002403843749998913
        },
        {
          "name": "F#2",
          "midi": 42,
          "time": 26.076896999999953,
          "velocity": 0.4251968503937008,
          "duration": 0.002403843749998913
        },
        {
          "name": "C2",
          "midi": 36,
          "time": 26.30766599999995,
          "velocity": 0.9763779527559056,
          "duration": 0.002403843749998913
        },
        {
          "name": "D2",
          "midi": 38,
          "time": 26.30766599999995,
          "velocity": 0.8818897637795275,
          "duration": 0.002403843749998913
        },
        {
          "name": "F#2",
          "midi": 42,
          "time": 26.53843499999995,
          "velocity": 0.4251968503937008,
          "duration": 0.002403843749998913
        },
        {
          "name": "C2",
          "midi": 36,
          "time": 26.76920399999995,
          "velocity": 0.9763779527559056,
          "duration": 0.002403843749998913
        },
        {
          "name": "F#2",
          "midi": 42,
          "time": 26.999972999999947,
          "velocity": 0.48031496062992124,
          "duration": 0.002403843749998913
        },
        {
          "name": "C2",
          "midi": 36,
          "time": 27.230741999999946,
          "velocity": 0.9763779527559056,
          "duration": 0.002403843749998913
        },
        {
          "name": "D2",
          "midi": 38,
          "time": 27.230741999999946,
          "velocity": 0.9763779527559056,
          "duration": 0.002403843749998913
        },
        {
          "name": "F#2",
          "midi": 42,
          "time": 27.461510999999945,
          "velocity": 0.5590551181102362,
          "duration": 0.002403843749998913
        },
        {
          "name": "C2",
          "midi": 36,
          "time": 27.692279999999943,
          "velocity": 0.9763779527559056,
          "duration": 0.002403843749998913
        },
        {
          "name": "A#2",
          "midi": 46,
          "time": 27.923048999999942,
          "velocity": 0.6535433070866141,
          "duration": 0.002403843749998913
        },
        {
          "name": "C2",
          "midi": 36,
          "time": 28.15381799999994,
          "velocity": 0.9763779527559056,
          "duration": 0.002403843749998913
        },
        {
          "name": "D2",
          "midi": 38,
          "time": 28.15381799999994,
          "velocity": 0.9763779527559056,
          "duration": 0.002403843749998913
        },
        {
          "name": "F#2",
          "midi": 42,
          "time": 28.38458699999994,
          "velocity": 0.4251968503937008,
          "duration": 0.002403843749998913
        },
        {
          "name": "C2",
          "midi": 36,
          "time": 28.615355999999938,
          "velocity": 0.8818897637795275,
          "duration": 0.002403843749998913
        },
        {
          "name": "A#2",
          "midi": 46,
          "time": 28.846124999999937,
          "velocity": 0.6535433070866141,
          "duration": 0.002403843749998913
        },
        {
          "name": "C2",
          "midi": 36,
          "time": 29.076893999999935,
          "velocity": 0.9763779527559056,
          "duration": 0.002403843749998913
        },
        {
          "name": "D2",
          "midi": 38,
          "time": 29.076893999999935,
          "velocity": 0.9763779527559056,
          "duration": 0.002403843749998913
        },
        {
          "name": "F#2",
          "midi": 42,
          "time": 29.307662999999934,
          "velocity": 0.6535433070866141,
          "duration": 0.002403843749998913
        },
        {
          "name": "C2",
          "midi": 36,
          "time": 29.538431999999933,
          "velocity": 0.9763779527559056,
          "duration": 0.002403843749998913
        },
        {
          "name": "A#2",
          "midi": 46,
          "time": 29.76920099999993,
          "velocity": 0.48031496062992124,
          "duration": 0.002403843749998913
        },
        {
          "name": "C2",
          "midi": 36,
          "time": 29.99996999999993,
          "velocity": 0.9763779527559056,
          "duration": 0.002403843749998913
        },
        {
          "name": "D2",
          "midi": 38,
          "time": 29.99996999999993,
          "velocity": 0.8818897637795275,
          "duration": 0.002403843749998913
        },
        {
          "name": "F#2",
          "midi": 42,
          "time": 30.23073899999993,
          "velocity": 0.6535433070866141,
          "duration": 0.002403843749998913
        },
        {
          "name": "C2",
          "midi": 36,
          "time": 30.461507999999927,
          "velocity": 0.9763779527559056,
          "duration": 0.002403843749998913
        },
        {
          "name": "F#2",
          "midi": 42,
          "time": 30.692276999999926,
          "velocity": 0.6535433070866141,
          "duration": 0.002403843749998913
        },
        {
          "name": "C2",
          "midi": 36,
          "time": 30.923045999999925,
          "velocity": 0.9763779527559056,
          "duration": 0.002403843749998913
        },
        {
          "name": "D2",
          "midi": 38,
          "time": 30.923045999999925,
          "velocity": 0.9763779527559056,
          "duration": 0.002403843749998913
        },
        {
          "name": "F#2",
          "midi": 42,
          "time": 31.153814999999923,
          "velocity": 0.6535433070866141,
          "duration": 0.002403843749998913
        },
        {
          "name": "C2",
          "midi": 36,
          "time": 31.384583999999922,
          "velocity": 0.9763779527559056,
          "duration": 0.002403843749998913
        },
        {
          "name": "F#2",
          "midi": 42,
          "time": 31.61535299999992,
          "velocity": 0.6535433070866141,
          "duration": 0.002403843749998913
        },
        {
          "name": "C2",
          "midi": 36,
          "time": 31.84612199999992,
          "velocity": 0.8818897637795275,
          "duration": 0.002403843749998913
        },
        {
          "name": "D2",
          "midi": 38,
          "time": 31.84612199999992,
          "velocity": 0.8818897637795275,
          "duration": 0.002403843749998913
        },
        {
          "name": "F#2",
          "midi": 42,
          "time": 32.07689099999992,
          "velocity": 0.5590551181102362,
          "duration": 0.0024038437500024656
        },
        {
          "name": "C2",
          "midi": 36,
          "time": 32.30765999999992,
          "velocity": 0.9763779527559056,
          "duration": 0.0024038437500024656
        },
        {
          "name": "F#2",
          "midi": 42,
          "time": 32.53842899999992,
          "velocity": 0.5590551181102362,
          "duration": 0.0024038437500024656
        },
        {
          "name": "C2",
          "midi": 36,
          "time": 32.769197999999925,
          "velocity": 0.9763779527559056,
          "duration": 0.0024038437500024656
        },
        {
          "name": "D2",
          "midi": 38,
          "time": 32.769197999999925,
          "velocity": 0.9763779527559056,
          "duration": 0.0024038437500024656
        },
        {
          "name": "A#2",
          "midi": 46,
          "time": 32.99996699999993,
          "velocity": 0.7874015748031497,
          "duration": 0.0024038437500024656
        },
        {
          "name": "C2",
          "midi": 36,
          "time": 33.23073599999993,
          "velocity": 0.9763779527559056,
          "duration": 0.0024038437500024656
        },
        {
          "name": "F#2",
          "midi": 42,
          "time": 33.46150499999993,
          "velocity": 0.5590551181102362,
          "duration": 0.0024038437500024656
        },
        {
          "name": "C2",
          "midi": 36,
          "time": 33.692273999999934,
          "velocity": 0.9763779527559056,
          "duration": 0.0024038437500024656
        },
        {
          "name": "D2",
          "midi": 38,
          "time": 33.692273999999934,
          "velocity": 0.8818897637795275,
          "duration": 0.0024038437500024656
        },
        {
          "name": "F#2",
          "midi": 42,
          "time": 33.923042999999936,
          "velocity": 0.6535433070866141,
          "duration": 0.0024038437500024656
        },
        {
          "name": "C2",
          "midi": 36,
          "time": 34.15381199999994,
          "velocity": 0.8818897637795275,
          "duration": 0.0024038437500024656
        },
        {
          "name": "F#2",
          "midi": 42,
          "time": 34.38458099999994,
          "velocity": 0.7874015748031497,
          "duration": 0.0024038437500024656
        },
        {
          "name": "C2",
          "midi": 36,
          "time": 34.61534999999994,
          "velocity": 0.9763779527559056,
          "duration": 0.0024038437500024656
        },
        {
          "name": "D2",
          "midi": 38,
          "time": 34.61534999999994,
          "velocity": 0.8818897637795275,
          "duration": 0.0024038437500024656
        },
        {
          "name": "F#2",
          "midi": 42,
          "time": 34.846118999999945,
          "velocity": 0.7874015748031497,
          "duration": 0.0024038437500024656
        },
        {
          "name": "C2",
          "midi": 36,
          "time": 35.07688799999995,
          "velocity": 0.9763779527559056,
          "duration": 0.0024038437500024656
        },
        {
          "name": "F#2",
          "midi": 42,
          "time": 35.30765699999995,
          "velocity": 0.6535433070866141,
          "duration": 0.0024038437500024656
        },
        {
          "name": "C2",
          "midi": 36,
          "time": 35.53842599999995,
          "velocity": 0.9763779527559056,
          "duration": 0.0024038437500024656
        },
        {
          "name": "D2",
          "midi": 38,
          "time": 35.53842599999995,
          "velocity": 0.9763779527559056,
          "duration": 0.0024038437500024656
        },
        {
          "name": "F#2",
          "midi": 42,
          "time": 35.769194999999954,
          "velocity": 0.6535433070866141,
          "duration": 0.0024038437500024656
        },
        {
          "name": "C2",
          "midi": 36,
          "time": 35.999963999999956,
          "velocity": 0.8818897637795275,
          "duration": 0.0024038437500024656
        },
        {
          "name": "F2",
          "midi": 41,
          "time": 35.999963999999956,
          "velocity": 0.4645669291338583,
          "duration": 0.0024038437500024656
        },
        {
          "name": "C2",
          "midi": 36,
          "time": 36.23073299999996,
          "velocity": 0.9763779527559056,
          "duration": 0.0024038437500024656
        },
        {
          "name": "D2",
          "midi": 38,
          "time": 36.23073299999996,
          "velocity": 0.8818897637795275,
          "duration": 0.0024038437500024656
        },
        {
          "name": "F2",
          "midi": 41,
          "time": 36.23073299999996,
          "velocity": 0.6299212598425197,
          "duration": 0.0024038437500024656
        },
        {
          "name": "C2",
          "midi": 36,
          "time": 36.46150199999996,
          "velocity": 0.9763779527559056,
          "duration": 0.0024038437500024656
        },
        {
          "name": "D2",
          "midi": 38,
          "time": 36.46150199999996,
          "velocity": 0.9763779527559056,
          "duration": 0.0024038437500024656
        },
        {
          "name": "F2",
          "midi": 41,
          "time": 36.46150199999996,
          "velocity": 0.8818897637795275,
          "duration": 0.0024038437500024656
        },
        {
          "name": "C2",
          "midi": 36,
          "time": 36.69227099999996,
          "velocity": 0.9763779527559056,
          "duration": 0.0024038437500024656
        },
        {
          "name": "C#3",
          "midi": 49,
          "time": 36.69227099999996,
          "velocity": 0.9133858267716536,
          "duration": 0.0024038437500024656
        },
        {
          "name": "C2",
          "midi": 36,
          "time": 37.38457799999996,
          "velocity": 0.9763779527559056,
          "duration": 0.0024038437500024656
        },
        {
          "name": "D2",
          "midi": 38,
          "time": 37.38457799999996,
          "velocity": 0.9763779527559056,
          "duration": 0.0024038437500024656
        },
        {
          "name": "F#2",
          "midi": 42,
          "time": 37.615346999999964,
          "velocity": 0.7874015748031497,
          "duration": 0.0024038437500024656
        },
        {
          "name": "C2",
          "midi": 36,
          "time": 37.84611599999997,
          "velocity": 0.9763779527559056,
          "duration": 0.0024038437500024656
        },
        {
          "name": "F#2",
          "midi": 42,
          "time": 38.07688499999997,
          "velocity": 0.7874015748031497,
          "duration": 0.0024038437500024656
        },
        {
          "name": "C2",
          "midi": 36,
          "time": 38.30765399999997,
          "velocity": 0.8818897637795275,
          "duration": 0.0024038437500024656
        },
        {
          "name": "D2",
          "midi": 38,
          "time": 38.30765399999997,
          "velocity": 0.8818897637795275,
          "duration": 0.0024038437500024656
        },
        {
          "name": "A#2",
          "midi": 46,
          "time": 38.53842299999997,
          "velocity": 0.7874015748031497,
          "duration": 0.0024038437500024656
        },
        {
          "name": "C2",
          "midi": 36,
          "time": 38.769191999999975,
          "velocity": 0.9763779527559056,
          "duration": 0.0024038437500024656
        },
        {
          "name": "F#2",
          "midi": 42,
          "time": 38.99996099999998,
          "velocity": 0.6535433070866141,
          "duration": 0.0024038437500024656
        },
        {
          "name": "C2",
          "midi": 36,
          "time": 39.23072999999998,
          "velocity": 0.9763779527559056,
          "duration": 0.0024038437500024656
        },
        {
          "name": "D2",
          "midi": 38,
          "time": 39.23072999999998,
          "velocity": 0.8818897637795275,
          "duration": 0.0024038437500024656
        },
        {
          "name": "F#2",
          "midi": 42,
          "time": 39.46149899999998,
          "velocity": 0.7874015748031497,
          "duration": 0.0024038437500024656
        },
        {
          "name": "C2",
          "midi": 36,
          "time": 39.692267999999984,
          "velocity": 0.9763779527559056,
          "duration": 0.0024038437500024656
        },
        {
          "name": "F#2",
          "midi": 42,
          "time": 39.92303699999999,
          "velocity": 0.9133858267716536,
          "duration": 0.0024038437500024656
        },
        {
          "name": "C2",
          "midi": 36,
          "time": 40.15380599999999,
          "velocity": 0.9763779527559056,
          "duration": 0.0024038437500024656
        },
        {
          "name": "D2",
          "midi": 38,
          "time": 40.15380599999999,
          "velocity": 0.8818897637795275,
          "duration": 0.0024038437500024656
        },
        {
          "name": "A#2",
          "midi": 46,
          "time": 40.38457499999999,
          "velocity": 0.9133858267716536,
          "duration": 0.0024038437500024656
        },
        {
          "name": "C2",
          "midi": 36,
          "time": 40.61534399999999,
          "velocity": 0.9763779527559056,
          "duration": 0.0024038437500024656
        },
        {
          "name": "F#2",
          "midi": 42,
          "time": 40.846112999999995,
          "velocity": 0.5590551181102362,
          "duration": 0.0024038437500024656
        },
        {
          "name": "C2",
          "midi": 36,
          "time": 41.076882,
          "velocity": 1,
          "duration": 0.0024038437500024656
        },
        {
          "name": "D2",
          "midi": 38,
          "time": 41.076882,
          "velocity": 0.9763779527559056,
          "duration": 0.0024038437500024656
        },
        {
          "name": "F#2",
          "midi": 42,
          "time": 41.307651,
          "velocity": 0.6535433070866141,
          "duration": 0.0024038437500024656
        },
        {
          "name": "C2",
          "midi": 36,
          "time": 41.53842,
          "velocity": 0.9763779527559056,
          "duration": 0.0024038437500024656
        },
        {
          "name": "F#2",
          "midi": 42,
          "time": 41.769189000000004,
          "velocity": 0.7874015748031497,
          "duration": 0.0024038437500024656
        },
        {
          "name": "C2",
          "midi": 36,
          "time": 41.99995800000001,
          "velocity": 0.9763779527559056,
          "duration": 0.0024038437500024656
        },
        {
          "name": "D2",
          "midi": 38,
          "time": 41.99995800000001,
          "velocity": 0.9763779527559056,
          "duration": 0.0024038437500024656
        },
        {
          "name": "F#2",
          "midi": 42,
          "time": 42.23072700000001,
          "velocity": 0.6535433070866141,
          "duration": 0.0024038437500024656
        },
        {
          "name": "C2",
          "midi": 36,
          "time": 42.46149600000001,
          "velocity": 0.9763779527559056,
          "duration": 0.0024038437500024656
        },
        {
          "name": "F#2",
          "midi": 42,
          "time": 42.69226500000001,
          "velocity": 0.6535433070866141,
          "duration": 0.0024038437500024656
        },
        {
          "name": "C2",
          "midi": 36,
          "time": 42.923034000000015,
          "velocity": 0.9763779527559056,
          "duration": 0.0024038437500024656
        },
        {
          "name": "D2",
          "midi": 38,
          "time": 42.923034000000015,
          "velocity": 0.8818897637795275,
          "duration": 0.0024038437500024656
        },
        {
          "name": "F#2",
          "midi": 42,
          "time": 43.15380300000002,
          "velocity": 0.7874015748031497,
          "duration": 0.0024038437500024656
        },
        {
          "name": "C2",
          "midi": 36,
          "time": 43.38457200000002,
          "velocity": 0.9763779527559056,
          "duration": 0.0024038437500024656
        },
        {
          "name": "F#2",
          "midi": 42,
          "time": 43.61534100000002,
          "velocity": 0.7874015748031497,
          "duration": 0.0024038437500024656
        },
        {
          "name": "C2",
          "midi": 36,
          "time": 43.846110000000024,
          "velocity": 0.9763779527559056,
          "duration": 0.0024038437500024656
        },
        {
          "name": "D2",
          "midi": 38,
          "time": 43.846110000000024,
          "velocity": 0.9763779527559056,
          "duration": 0.0024038437500024656
        },
        {
          "name": "C2",
          "midi": 36,
          "time": 44.07687900000003,
          "velocity": 0.9763779527559056,
          "duration": 0.0024038437500024656
        },
        {
          "name": "A#2",
          "midi": 46,
          "time": 44.07687900000003,
          "velocity": 0.7874015748031497,
          "duration": 0.0024038437500024656
        },
        {
          "name": "F#2",
          "midi": 42,
          "time": 44.30764800000003,
          "velocity": 0.9133858267716536,
          "duration": 0.0024038437500024656
        },
        {
          "name": "C2",
          "midi": 36,
          "time": 44.53841700000003,
          "velocity": 0.8818897637795275,
          "duration": 0.0024038437500024656
        },
        {
          "name": "C2",
          "midi": 36,
          "time": 44.76918600000003,
          "velocity": 0.9763779527559056,
          "duration": 0.0024038437500024656
        },
        {
          "name": "D2",
          "midi": 38,
          "time": 44.76918600000003,
          "velocity": 0.9763779527559056,
          "duration": 0.0024038437500024656
        },
        {
          "name": "F#2",
          "midi": 42,
          "time": 44.999955000000035,
          "velocity": 0.5590551181102362,
          "duration": 0.0024038437500024656
        },
        {
          "name": "C2",
          "midi": 36,
          "time": 45.23072400000004,
          "velocity": 0.9763779527559056,
          "duration": 0.0024038437500024656
        },
        {
          "name": "F#2",
          "midi": 42,
          "time": 45.46149300000004,
          "velocity": 0.7874015748031497,
          "duration": 0.0024038437500024656
        },
        {
          "name": "C2",
          "midi": 36,
          "time": 45.69226200000004,
          "velocity": 0.9763779527559056,
          "duration": 0.0024038437500024656
        },
        {
          "name": "D2",
          "midi": 38,
          "time": 45.69226200000004,
          "velocity": 0.9763779527559056,
          "duration": 0.0024038437500024656
        },
        {
          "name": "A#2",
          "midi": 46,
          "time": 45.923031000000044,
          "velocity": 0.9133858267716536,
          "duration": 0.0024038437500024656
        },
        {
          "name": "C2",
          "midi": 36,
          "time": 46.15380000000005,
          "velocity": 0.9763779527559056,
          "duration": 0.0024038437500024656
        },
        {
          "name": "F#2",
          "midi": 42,
          "time": 46.38456900000005,
          "velocity": 0.6535433070866141,
          "duration": 0.0024038437500024656
        },
        {
          "name": "C2",
          "midi": 36,
          "time": 46.61533800000005,
          "velocity": 0.8818897637795275,
          "duration": 0.0024038437500024656
        },
        {
          "name": "D2",
          "midi": 38,
          "time": 46.61533800000005,
          "velocity": 0.8818897637795275,
          "duration": 0.0024038437500024656
        },
        {
          "name": "F#2",
          "midi": 42,
          "time": 46.84610700000005,
          "velocity": 0.3779527559055118,
          "duration": 0.0024038437500024656
        },
        {
          "name": "C2",
          "midi": 36,
          "time": 47.076876000000055,
          "velocity": 0.9763779527559056,
          "duration": 0.0024038437500024656
        },
        {
          "name": "F#2",
          "midi": 42,
          "time": 47.30764500000006,
          "velocity": 0.48031496062992124,
          "duration": 0.0024038437500024656
        },
        {
          "name": "C2",
          "midi": 36,
          "time": 47.53841400000006,
          "velocity": 0.9763779527559056,
          "duration": 0.0024038437500024656
        },
        {
          "name": "D2",
          "midi": 38,
          "time": 47.53841400000006,
          "velocity": 0.9763779527559056,
          "duration": 0.0024038437500024656
        },
        {
          "name": "A#2",
          "midi": 46,
          "time": 47.76918300000006,
          "velocity": 0.7874015748031497,
          "duration": 0.0024038437500024656
        },
        {
          "name": "C2",
          "midi": 36,
          "time": 47.999952000000064,
          "velocity": 0.9763779527559056,
          "duration": 0.0024038437500024656
        },
        {
          "name": "F#2",
          "midi": 42,
          "time": 48.23072100000007,
          "velocity": 0.5590551181102362,
          "duration": 0.0024038437500024656
        },
        {
          "name": "C2",
          "midi": 36,
          "time": 48.46149000000007,
          "velocity": 0.9763779527559056,
          "duration": 0.0024038437500024656
        },
        {
          "name": "D2",
          "midi": 38,
          "time": 48.46149000000007,
          "velocity": 0.9763779527559056,
          "duration": 0.0024038437500024656
        },
        {
          "name": "F#2",
          "midi": 42,
          "time": 48.69225900000007,
          "velocity": 0.48031496062992124,
          "duration": 0.0024038437500024656
        },
        {
          "name": "C2",
          "midi": 36,
          "time": 48.92302800000007,
          "velocity": 0.9763779527559056,
          "duration": 0.0024038437500024656
        },
        {
          "name": "F#2",
          "midi": 42,
          "time": 49.153797000000075,
          "velocity": 0.6535433070866141,
          "duration": 0.0024038437500024656
        },
        {
          "name": "C2",
          "midi": 36,
          "time": 49.38456600000008,
          "velocity": 0.9763779527559056,
          "duration": 0.0024038437500024656
        },
        {
          "name": "D2",
          "midi": 38,
          "time": 49.38456600000008,
          "velocity": 0.8818897637795275,
          "duration": 0.0024038437500024656
        },
        {
          "name": "A#2",
          "midi": 46,
          "time": 49.61533500000008,
          "velocity": 0.6535433070866141,
          "duration": 0.0024038437500024656
        },
        {
          "name": "C2",
          "midi": 36,
          "time": 49.84610400000008,
          "velocity": 0.9763779527559056,
          "duration": 0.0024038437500024656
        },
        {
          "name": "F#2",
          "midi": 42,
          "time": 50.076873000000084,
          "velocity": 0.6535433070866141,
          "duration": 0.0024038437500024656
        },
        {
          "name": "C2",
          "midi": 36,
          "time": 50.30764200000009,
          "velocity": 0.9763779527559056,
          "duration": 0.0024038437500024656
        },
        {
          "name": "D2",
          "midi": 38,
          "time": 50.30764200000009,
          "velocity": 0.8818897637795275,
          "duration": 0.0024038437500024656
        },
        {
          "name": "F#2",
          "midi": 42,
          "time": 50.53841100000009,
          "velocity": 0.6535433070866141,
          "duration": 0.0024038437500024656
        },
        {
          "name": "C2",
          "midi": 36,
          "time": 50.76918000000009,
          "velocity": 0.9763779527559056,
          "duration": 0.0024038437500024656
        },
        {
          "name": "D2",
          "midi": 38,
          "time": 50.76918000000009,
          "velocity": 0.7480314960629921,
          "duration": 0.0024038437500024656
        },
        {
          "name": "C2",
          "midi": 36,
          "time": 50.99994900000009,
          "velocity": 0.9763779527559056,
          "duration": 0.0024038437500024656
        },
        {
          "name": "D2",
          "midi": 38,
          "time": 50.99994900000009,
          "velocity": 0.8818897637795275,
          "duration": 0.0024038437500024656
        },
        {
          "name": "C2",
          "midi": 36,
          "time": 51.4614870000001,
          "velocity": 0.9763779527559056,
          "duration": 0.0024038437500024656
        },
        {
          "name": "C#3",
          "midi": 49,
          "time": 51.4614870000001,
          "velocity": 0.7874015748031497,
          "duration": 0.0024038437500024656
        },
        {
          "name": "G2",
          "midi": 43,
          "time": 51.9230250000001,
          "velocity": 0.23622047244094488,
          "duration": 0.0024038437500024656
        },
        {
          "name": "C2",
          "midi": 36,
          "time": 52.153794000000104,
          "velocity": 0.9763779527559056,
          "duration": 0.0024038437500024656
        },
        {
          "name": "D2",
          "midi": 38,
          "time": 52.153794000000104,
          "velocity": 0.9763779527559056,
          "duration": 0.0024038437500024656
        },
        {
          "name": "F#2",
          "midi": 42,
          "time": 52.38456300000011,
          "velocity": 0.5590551181102362,
          "duration": 0.0024038437500024656
        },
        {
          "name": "C2",
          "midi": 36,
          "time": 52.61533200000011,
          "velocity": 0.9763779527559056,
          "duration": 0.0024038437500024656
        },
        {
          "name": "F#2",
          "midi": 42,
          "time": 52.84610100000011,
          "velocity": 0.4251968503937008,
          "duration": 0.0024038437500024656
        },
        {
          "name": "C2",
          "midi": 36,
          "time": 53.07687000000011,
          "velocity": 0.9763779527559056,
          "duration": 0.0024038437500024656
        },
        {
          "name": "D2",
          "midi": 38,
          "time": 53.07687000000011,
          "velocity": 0.9763779527559056,
          "duration": 0.0024038437500024656
        },
        {
          "name": "F#2",
          "midi": 42,
          "time": 53.307639000000115,
          "velocity": 0.7874015748031497,
          "duration": 0.0024038437500024656
        },
        {
          "name": "C2",
          "midi": 36,
          "time": 53.53840800000012,
          "velocity": 0.9763779527559056,
          "duration": 0.0024038437500024656
        },
        {
          "name": "F#2",
          "midi": 42,
          "time": 53.76917700000012,
          "velocity": 0.5590551181102362,
          "duration": 0.0024038437500024656
        },
        {
          "name": "C2",
          "midi": 36,
          "time": 53.99994600000012,
          "velocity": 0.9763779527559056,
          "duration": 0.0024038437500024656
        },
        {
          "name": "D2",
          "midi": 38,
          "time": 53.99994600000012,
          "velocity": 0.8818897637795275,
          "duration": 0.0024038437500024656
        },
        {
          "name": "F#2",
          "midi": 42,
          "time": 54.230715000000124,
          "velocity": 0.6535433070866141,
          "duration": 0.0024038437500024656
        },
        {
          "name": "C2",
          "midi": 36,
          "time": 54.46148400000013,
          "velocity": 0.9763779527559056,
          "duration": 0.0024038437500024656
        },
        {
          "name": "F#2",
          "midi": 42,
          "time": 54.69225300000013,
          "velocity": 0.5590551181102362,
          "duration": 0.0024038437500024656
        },
        {
          "name": "C2",
          "midi": 36,
          "time": 54.92302200000013,
          "velocity": 0.9763779527559056,
          "duration": 0.0024038437500024656
        },
        {
          "name": "D2",
          "midi": 38,
          "time": 54.92302200000013,
          "velocity": 0.9763779527559056,
          "duration": 0.0024038437500024656
        },
        {
          "name": "A#2",
          "midi": 46,
          "time": 55.15379100000013,
          "velocity": 0.7874015748031497,
          "duration": 0.0024038437500024656
        },
        {
          "name": "C2",
          "midi": 36,
          "time": 55.384560000000135,
          "velocity": 0.9763779527559056,
          "duration": 0.0024038437500024656
        },
        {
          "name": "F#2",
          "midi": 42,
          "time": 55.61532900000014,
          "velocity": 0.5590551181102362,
          "duration": 0.0024038437500024656
        },
        {
          "name": "C2",
          "midi": 36,
          "time": 55.84609800000014,
          "velocity": 0.9763779527559056,
          "duration": 0.0024038437500024656
        },
        {
          "name": "D2",
          "midi": 38,
          "time": 55.84609800000014,
          "velocity": 0.9763779527559056,
          "duration": 0.0024038437500024656
        },
        {
          "name": "F#2",
          "midi": 42,
          "time": 56.07686700000014,
          "velocity": 0.6535433070866141,
          "duration": 0.0024038437500024656
        },
        {
          "name": "C2",
          "midi": 36,
          "time": 56.307636000000144,
          "velocity": 0.9763779527559056,
          "duration": 0.0024038437500024656
        },
        {
          "name": "F#2",
          "midi": 42,
          "time": 56.53840500000015,
          "velocity": 0.5590551181102362,
          "duration": 0.0024038437500024656
        },
        {
          "name": "C2",
          "midi": 36,
          "time": 56.76917400000015,
          "velocity": 0.9763779527559056,
          "duration": 0.0024038437500024656
        },
        {
          "name": "D2",
          "midi": 38,
          "time": 56.76917400000015,
          "velocity": 0.9763779527559056,
          "duration": 0.0024038437500024656
        },
        {
          "name": "F#2",
          "midi": 42,
          "time": 56.99994300000015,
          "velocity": 0.7874015748031497,
          "duration": 0.0024038437500024656
        },
        {
          "name": "C2",
          "midi": 36,
          "time": 57.23071200000015,
          "velocity": 0.9763779527559056,
          "duration": 0.0024038437500024656
        },
        {
          "name": "F#2",
          "midi": 42,
          "time": 57.461481000000155,
          "velocity": 0.7874015748031497,
          "duration": 0.0024038437500024656
        },
        {
          "name": "C2",
          "midi": 36,
          "time": 57.69225000000016,
          "velocity": 0.9763779527559056,
          "duration": 0.0024038437500024656
        },
        {
          "name": "D2",
          "midi": 38,
          "time": 57.69225000000016,
          "velocity": 0.9763779527559056,
          "duration": 0.0024038437500024656
        },
        {
          "name": "F#2",
          "midi": 42,
          "time": 57.92301900000016,
          "velocity": 0.7874015748031497,
          "duration": 0.0024038437500024656
        },
        {
          "name": "C2",
          "midi": 36,
          "time": 58.15378800000016,
          "velocity": 0.9763779527559056,
          "duration": 0.0024038437500024656
        },
        {
          "name": "F#2",
          "midi": 42,
          "time": 58.384557000000164,
          "velocity": 0.5590551181102362,
          "duration": 0.0024038437500024656
        },
        {
          "name": "C2",
          "midi": 36,
          "time": 58.61532600000017,
          "velocity": 0.9763779527559056,
          "duration": 0.0024038437500024656
        },
        {
          "name": "D2",
          "midi": 38,
          "time": 58.61532600000017,
          "velocity": 0.8818897637795275,
          "duration": 0.0024038437500024656
        },
        {
          "name": "A#2",
          "midi": 46,
          "time": 58.84609500000017,
          "velocity": 0.7874015748031497,
          "duration": 0.0024038437500024656
        },
        {
          "name": "C2",
          "midi": 36,
          "time": 59.07686400000017,
          "velocity": 0.9763779527559056,
          "duration": 0.0024038437500024656
        },
        {
          "name": "F#2",
          "midi": 42,
          "time": 59.30763300000017,
          "velocity": 0.48031496062992124,
          "duration": 0.0024038437500024656
        },
        {
          "name": "C2",
          "midi": 36,
          "time": 59.538402000000175,
          "velocity": 0.9763779527559056,
          "duration": 0.0024038437500024656
        },
        {
          "name": "D2",
          "midi": 38,
          "time": 59.538402000000175,
          "velocity": 0.9763779527559056,
          "duration": 0.0024038437500024656
        },
        {
          "name": "F#2",
          "midi": 42,
          "time": 59.76917100000018,
          "velocity": 0.6535433070866141,
          "duration": 0.0024038437500024656
        },
        {
          "name": "C2",
          "midi": 36,
          "time": 59.99994000000018,
          "velocity": 0.9763779527559056,
          "duration": 0.0024038437500024656
        },
        {
          "name": "F#2",
          "midi": 42,
          "time": 60.23070900000018,
          "velocity": 0.7874015748031497,
          "duration": 0.0024038437500024656
        },
        {
          "name": "C2",
          "midi": 36,
          "time": 60.461478000000184,
          "velocity": 0.9763779527559056,
          "duration": 0.0024038437500024656
        },
        {
          "name": "D2",
          "midi": 38,
          "time": 60.461478000000184,
          "velocity": 0.8818897637795275,
          "duration": 0.0024038437500024656
        },
        {
          "name": "F#2",
          "midi": 42,
          "time": 60.69224700000019,
          "velocity": 0.7874015748031497,
          "duration": 0.0024038437500024656
        },
        {
          "name": "C2",
          "midi": 36,
          "time": 60.92301600000019,
          "velocity": 0.9763779527559056,
          "duration": 0.0024038437500024656
        },
        {
          "name": "F#2",
          "midi": 42,
          "time": 61.15378500000019,
          "velocity": 0.6535433070866141,
          "duration": 0.0024038437500024656
        },
        {
          "name": "C2",
          "midi": 36,
          "time": 61.38455400000019,
          "velocity": 0.9763779527559056,
          "duration": 0.0024038437500024656
        },
        {
          "name": "D2",
          "midi": 38,
          "time": 61.38455400000019,
          "velocity": 0.8818897637795275,
          "duration": 0.0024038437500024656
        },
        {
          "name": "F#2",
          "midi": 42,
          "time": 61.615323000000195,
          "velocity": 0.5590551181102362,
          "duration": 0.0024038437500024656
        },
        {
          "name": "C2",
          "midi": 36,
          "time": 61.8460920000002,
          "velocity": 0.9763779527559056,
          "duration": 0.0024038437500024656
        },
        {
          "name": "F#2",
          "midi": 42,
          "time": 62.0768610000002,
          "velocity": 0.48031496062992124,
          "duration": 0.0024038437500024656
        },
        {
          "name": "C2",
          "midi": 36,
          "time": 62.3076300000002,
          "velocity": 0.9763779527559056,
          "duration": 0.0024038437500024656
        },
        {
          "name": "D2",
          "midi": 38,
          "time": 62.3076300000002,
          "velocity": 0.8818897637795275,
          "duration": 0.0024038437500024656
        },
        {
          "name": "A#2",
          "midi": 46,
          "time": 62.538399000000204,
          "velocity": 0.7874015748031497,
          "duration": 0.0024038437500024656
        },
        {
          "name": "C2",
          "midi": 36,
          "time": 62.76916800000021,
          "velocity": 0.9763779527559056,
          "duration": 0.0024038437500024656
        },
        {
          "name": "F#2",
          "midi": 42,
          "time": 62.99993700000021,
          "velocity": 0.48031496062992124,
          "duration": 0.0024038437500024656
        },
        {
          "name": "C2",
          "midi": 36,
          "time": 63.23070600000021,
          "velocity": 0.9763779527559056,
          "duration": 0.0024038437500024656
        },
        {
          "name": "D2",
          "midi": 38,
          "time": 63.23070600000021,
          "velocity": 0.9763779527559056,
          "duration": 0.0024038437500024656
        },
        {
          "name": "F#2",
          "midi": 42,
          "time": 63.46147500000021,
          "velocity": 0.6535433070866141,
          "duration": 0.0024038437500024656
        },
        {
          "name": "C2",
          "midi": 36,
          "time": 63.692244000000215,
          "velocity": 0.9763779527559056,
          "duration": 0.0024038437500024656
        },
        {
          "name": "F#2",
          "midi": 42,
          "time": 63.92301300000022,
          "velocity": 0.5590551181102362,
          "duration": 0.0024038437500024656
        },
        {
          "name": "C2",
          "midi": 36,
          "time": 64.15378200000022,
          "velocity": 0.9763779527559056,
          "duration": 0.0024038437500024656
        },
        {
          "name": "D2",
          "midi": 38,
          "time": 64.15378200000022,
          "velocity": 0.8818897637795275,
          "duration": 0.0024038437500024656
        },
        {
          "name": "F#2",
          "midi": 42,
          "time": 64.38455100000023,
          "velocity": 0.48031496062992124,
          "duration": 0.0024038437500024656
        },
        {
          "name": "C2",
          "midi": 36,
          "time": 64.61532000000024,
          "velocity": 0.9763779527559056,
          "duration": 0.0024038437500024656
        },
        {
          "name": "A#2",
          "midi": 46,
          "time": 64.84608900000025,
          "velocity": 0.7874015748031497,
          "duration": 0.0024038437500024656
        },
        {
          "name": "C2",
          "midi": 36,
          "time": 65.07685800000026,
          "velocity": 0.9763779527559056,
          "duration": 0.0024038437500024656
        },
        {
          "name": "D2",
          "midi": 38,
          "time": 65.07685800000026,
          "velocity": 0.8818897637795275,
          "duration": 0.0024038437500024656
        },
        {
          "name": "F#2",
          "midi": 42,
          "time": 65.30762700000027,
          "velocity": 0.6535433070866141,
          "duration": 0.0024038437500024656
        },
        {
          "name": "C2",
          "midi": 36,
          "time": 65.53839600000028,
          "velocity": 0.9763779527559056,
          "duration": 0.0024038437500024656
        },
        {
          "name": "F#2",
          "midi": 42,
          "time": 65.76916500000029,
          "velocity": 0.7874015748031497,
          "duration": 0.0024038437500024656
        },
        {
          "name": "C2",
          "midi": 36,
          "time": 65.9999340000003,
          "velocity": 0.9763779527559056,
          "duration": 0.0024038437500024656
        },
        {
          "name": "D2",
          "midi": 38,
          "time": 65.9999340000003,
          "velocity": 0.9763779527559056,
          "duration": 0.0024038437500024656
        },
        {
          "name": "A#2",
          "midi": 46,
          "time": 66.2307030000003,
          "velocity": 0.7874015748031497,
          "duration": 0.0024038437500024656
        },
        {
          "name": "C2",
          "midi": 36,
          "time": 66.46147200000031,
          "velocity": 0.9763779527559056,
          "duration": 0.0024038437500024656
        },
        {
          "name": "F#2",
          "midi": 42,
          "time": 66.69224100000032,
          "velocity": 0.4251968503937008,
          "duration": 0.0024038437500024656
        },
        {
          "name": "C2",
          "midi": 36,
          "time": 66.92301000000033,
          "velocity": 0.9763779527559056,
          "duration": 0.0024038437500024656
        },
        {
          "name": "D2",
          "midi": 38,
          "time": 66.92301000000033,
          "velocity": 0.8818897637795275,
          "duration": 0.0024038437500024656
        },
        {
          "name": "F#2",
          "midi": 42,
          "time": 67.15377900000034,
          "velocity": 0.6535433070866141,
          "duration": 0.0024038437500024656
        },
        {
          "name": "C2",
          "midi": 36,
          "time": 67.38454800000035,
          "velocity": 0.9763779527559056,
          "duration": 0.0024038437500024656
        },
        {
          "name": "F#2",
          "midi": 42,
          "time": 67.61531700000036,
          "velocity": 0.6535433070866141,
          "duration": 0.0024038437500024656
        },
        {
          "name": "C2",
          "midi": 36,
          "time": 67.84608600000037,
          "velocity": 0.9763779527559056,
          "duration": 0.0024038437500024656
        },
        {
          "name": "D2",
          "midi": 38,
          "time": 67.84608600000037,
          "velocity": 0.8818897637795275,
          "duration": 0.0024038437500024656
        },
        {
          "name": "F#2",
          "midi": 42,
          "time": 68.07685500000038,
          "velocity": 0.6535433070866141,
          "duration": 0.0024038437500024656
        },
        {
          "name": "C2",
          "midi": 36,
          "time": 68.30762400000039,
          "velocity": 0.9763779527559056,
          "duration": 0.0024038437500024656
        },
        {
          "name": "F#2",
          "midi": 42,
          "time": 68.5383930000004,
          "velocity": 0.48031496062992124,
          "duration": 0.0024038437500024656
        },
        {
          "name": "C2",
          "midi": 36,
          "time": 68.7691620000004,
          "velocity": 1,
          "duration": 0.0024038437500024656
        },
        {
          "name": "D2",
          "midi": 38,
          "time": 68.7691620000004,
          "velocity": 0.9763779527559056,
          "duration": 0.0024038437500024656
        },
        {
          "name": "F#2",
          "midi": 42,
          "time": 68.99993100000042,
          "velocity": 0.48031496062992124,
          "duration": 0.0024038437500024656
        },
        {
          "name": "C2",
          "midi": 36,
          "time": 69.23070000000043,
          "velocity": 0.9763779527559056,
          "duration": 0.0024038437500024656
        },
        {
          "name": "F#2",
          "midi": 42,
          "time": 69.46146900000043,
          "velocity": 0.6535433070866141,
          "duration": 0.0024038437500024656
        },
        {
          "name": "C2",
          "midi": 36,
          "time": 69.69223800000044,
          "velocity": 0.9763779527559056,
          "duration": 0.0024038437500024656
        },
        {
          "name": "D2",
          "midi": 38,
          "time": 69.69223800000044,
          "velocity": 0.9763779527559056,
          "duration": 0.0024038437500024656
        },
        {
          "name": "A#2",
          "midi": 46,
          "time": 69.92300700000045,
          "velocity": 0.7874015748031497,
          "duration": 0.0024038437500024656
        },
        {
          "name": "C2",
          "midi": 36,
          "time": 70.15377600000046,
          "velocity": 0.9763779527559056,
          "duration": 0.0024038437500024656
        },
        {
          "name": "F#2",
          "midi": 42,
          "time": 70.38454500000047,
          "velocity": 0.6535433070866141,
          "duration": 0.0024038437500024656
        },
        {
          "name": "C2",
          "midi": 36,
          "time": 70.61531400000048,
          "velocity": 0.9763779527559056,
          "duration": 0.0024038437500024656
        },
        {
          "name": "D2",
          "midi": 38,
          "time": 70.61531400000048,
          "velocity": 0.8818897637795275,
          "duration": 0.0024038437500024656
        },
        {
          "name": "F#2",
          "midi": 42,
          "time": 70.84608300000049,
          "velocity": 0.5590551181102362,
          "duration": 0.0024038437500024656
        },
        {
          "name": "C2",
          "midi": 36,
          "time": 71.0768520000005,
          "velocity": 0.9763779527559056,
          "duration": 0.0024038437500024656
        },
        {
          "name": "F#2",
          "midi": 42,
          "time": 71.30762100000051,
          "velocity": 0.6535433070866141,
          "duration": 0.0024038437500024656
        },
        {
          "name": "C2",
          "midi": 36,
          "time": 71.53839000000052,
          "velocity": 0.9763779527559056,
          "duration": 0.0024038437500024656
        },
        {
          "name": "D2",
          "midi": 38,
          "time": 71.53839000000052,
          "velocity": 0.8818897637795275,
          "duration": 0.0024038437500024656
        },
        {
          "name": "F#2",
          "midi": 42,
          "time": 71.76915900000053,
          "velocity": 0.7874015748031497,
          "duration": 0.0024038437500024656
        },
        {
          "name": "C2",
          "midi": 36,
          "time": 71.99992800000054,
          "velocity": 0.9763779527559056,
          "duration": 0.0024038437500024656
        },
        {
          "name": "F#2",
          "midi": 42,
          "time": 72.23069700000055,
          "velocity": 0.48031496062992124,
          "duration": 0.0024038437500024656
        },
        {
          "name": "C2",
          "midi": 36,
          "time": 72.46146600000056,
          "velocity": 0.9763779527559056,
          "duration": 0.0024038437500024656
        },
        {
          "name": "D2",
          "midi": 38,
          "time": 72.46146600000056,
          "velocity": 0.8818897637795275,
          "duration": 0.0024038437500024656
        },
        {
          "name": "F#2",
          "midi": 42,
          "time": 72.69223500000057,
          "velocity": 0.4251968503937008,
          "duration": 0.0024038437500024656
        },
        {
          "name": "C2",
          "midi": 36,
          "time": 72.92300400000057,
          "velocity": 0.9763779527559056,
          "duration": 0.0024038437500024656
        },
        {
          "name": "F#2",
          "midi": 42,
          "time": 73.15377300000058,
          "velocity": 0.7874015748031497,
          "duration": 0.0024038437500024656
        },
        {
          "name": "C2",
          "midi": 36,
          "time": 73.3845420000006,
          "velocity": 0.9763779527559056,
          "duration": 0.0024038437500024656
        },
        {
          "name": "D2",
          "midi": 38,
          "time": 73.3845420000006,
          "velocity": 0.9763779527559056,
          "duration": 0.0024038437500024656
        },
        {
          "name": "A#2",
          "midi": 46,
          "time": 73.6153110000006,
          "velocity": 0.7874015748031497,
          "duration": 0.0024038437500024656
        },
        {
          "name": "C2",
          "midi": 36,
          "time": 73.84608000000061,
          "velocity": 0.8818897637795275,
          "duration": 0.0024038437500024656
        },
        {
          "name": "F#2",
          "midi": 42,
          "time": 74.07684900000062,
          "velocity": 0.6535433070866141,
          "duration": 0.0024038437500024656
        },
        {
          "name": "C2",
          "midi": 36,
          "time": 74.30761800000063,
          "velocity": 0.9763779527559056,
          "duration": 0.0024038437500024656
        },
        {
          "name": "D2",
          "midi": 38,
          "time": 74.30761800000063,
          "velocity": 0.8818897637795275,
          "duration": 0.0024038437500024656
        },
        {
          "name": "F#2",
          "midi": 42,
          "time": 74.53838700000064,
          "velocity": 0.6535433070866141,
          "duration": 0.0024038437500024656
        },
        {
          "name": "C2",
          "midi": 36,
          "time": 74.76915600000065,
          "velocity": 0.9763779527559056,
          "duration": 0.0024038437500024656
        },
        {
          "name": "F#2",
          "midi": 42,
          "time": 74.99992500000066,
          "velocity": 0.5590551181102362,
          "duration": 0.0024038437500024656
        },
        {
          "name": "C2",
          "midi": 36,
          "time": 75.23069400000067,
          "velocity": 0.9763779527559056,
          "duration": 0.0024038437500024656
        },
        {
          "name": "D2",
          "midi": 38,
          "time": 75.23069400000067,
          "velocity": 0.8818897637795275,
          "duration": 0.0024038437500024656
        },
        {
          "name": "F#2",
          "midi": 42,
          "time": 75.46146300000068,
          "velocity": 0.7874015748031497,
          "duration": 0.0024038437500024656
        },
        {
          "name": "C2",
          "midi": 36,
          "time": 75.69223200000069,
          "velocity": 0.9763779527559056,
          "duration": 0.0024038437500024656
        },
        {
          "name": "F#2",
          "midi": 42,
          "time": 75.9230010000007,
          "velocity": 0.48031496062992124,
          "duration": 0.0024038437500024656
        },
        {
          "name": "C2",
          "midi": 36,
          "time": 76.1537700000007,
          "velocity": 0.9763779527559056,
          "duration": 0.0024038437500024656
        },
        {
          "name": "D2",
          "midi": 38,
          "time": 76.1537700000007,
          "velocity": 0.9763779527559056,
          "duration": 0.0024038437500024656
        },
        {
          "name": "F#2",
          "midi": 42,
          "time": 76.38453900000071,
          "velocity": 0.6535433070866141,
          "duration": 0.0024038437500024656
        },
        {
          "name": "C2",
          "midi": 36,
          "time": 76.61530800000072,
          "velocity": 0.9763779527559056,
          "duration": 0.0024038437500024656
        },
        {
          "name": "F#2",
          "midi": 42,
          "time": 76.84607700000073,
          "velocity": 0.6535433070866141,
          "duration": 0.0024038437500024656
        },
        {
          "name": "C2",
          "midi": 36,
          "time": 77.07684600000074,
          "velocity": 0.9763779527559056,
          "duration": 0.0024038437500024656
        },
        {
          "name": "D2",
          "midi": 38,
          "time": 77.07684600000074,
          "velocity": 0.9763779527559056,
          "duration": 0.0024038437500024656
        },
        {
          "name": "A#2",
          "midi": 46,
          "time": 77.30761500000075,
          "velocity": 0.9133858267716536,
          "duration": 0.0024038437500024656
        },
        {
          "name": "C2",
          "midi": 36,
          "time": 77.53838400000076,
          "velocity": 0.9763779527559056,
          "duration": 0.0024038437500024656
        },
        {
          "name": "F#2",
          "midi": 42,
          "time": 77.76915300000077,
          "velocity": 0.5590551181102362,
          "duration": 0.0024038437500024656
        },
        {
          "name": "C2",
          "midi": 36,
          "time": 77.99992200000078,
          "velocity": 0.9763779527559056,
          "duration": 0.0024038437500024656
        },
        {
          "name": "D2",
          "midi": 38,
          "time": 77.99992200000078,
          "velocity": 0.8818897637795275,
          "duration": 0.0024038437500024656
        },
        {
          "name": "F#2",
          "midi": 42,
          "time": 78.23069100000079,
          "velocity": 0.48031496062992124,
          "duration": 0.0024038437500024656
        },
        {
          "name": "C2",
          "midi": 36,
          "time": 78.4614600000008,
          "velocity": 0.9763779527559056,
          "duration": 0.0024038437500024656
        },
        {
          "name": "F#2",
          "midi": 42,
          "time": 78.69222900000081,
          "velocity": 0.5590551181102362,
          "duration": 0.0024038437500024656
        },
        {
          "name": "C2",
          "midi": 36,
          "time": 78.92299800000082,
          "velocity": 0.9763779527559056,
          "duration": 0.0024038437500024656
        },
        {
          "name": "D2",
          "midi": 38,
          "time": 78.92299800000082,
          "velocity": 0.9763779527559056,
          "duration": 0.0024038437500024656
        },
        {
          "name": "F#2",
          "midi": 42,
          "time": 79.15376700000083,
          "velocity": 0.6535433070866141,
          "duration": 0.0024038437500024656
        },
        {
          "name": "C2",
          "midi": 36,
          "time": 79.38453600000084,
          "velocity": 0.8818897637795275,
          "duration": 0.0024038437500024656
        },
        {
          "name": "C2",
          "midi": 36,
          "time": 79.61530500000084,
          "velocity": 0.5354330708661418,
          "duration": 0.0024038437500024656
        },
        {
          "name": "D2",
          "midi": 38,
          "time": 79.61530500000084,
          "velocity": 0.4645669291338583,
          "duration": 0.0024038437500024656
        },
        {
          "name": "C2",
          "midi": 36,
          "time": 79.84607400000085,
          "velocity": 0.9763779527559056,
          "duration": 0.0024038437500024656
        },
        {
          "name": "D2",
          "midi": 38,
          "time": 79.84607400000085,
          "velocity": 0.8818897637795275,
          "duration": 0.0024038437500024656
        },
        {
          "name": "C2",
          "midi": 36,
          "time": 80.07684300000086,
          "velocity": 0.5354330708661418,
          "duration": 0.0024038437500024656
        },
        {
          "name": "D2",
          "midi": 38,
          "time": 80.07684300000086,
          "velocity": 0.7480314960629921,
          "duration": 0.0024038437500024656
        },
        {
          "name": "C2",
          "midi": 36,
          "time": 80.30761200000087,
          "velocity": 0.9763779527559056,
          "duration": 0.0024038437500024656
        },
        {
          "name": "D2",
          "midi": 38,
          "time": 80.30761200000087,
          "velocity": 0.8818897637795275,
          "duration": 0.0024038437500024656
        },
        {
          "name": "C2",
          "midi": 36,
          "time": 80.53838100000088,
          "velocity": 0.9763779527559056,
          "duration": 0.0024038437500024656
        },
        {
          "name": "D2",
          "midi": 38,
          "time": 80.53838100000088,
          "velocity": 0.8818897637795275,
          "duration": 0.0024038437500024656
        },
        {
          "name": "C2",
          "midi": 36,
          "time": 80.76915000000089,
          "velocity": 0.9763779527559056,
          "duration": 0.0024038437500024656
        },
        {
          "name": "D2",
          "midi": 38,
          "time": 80.76915000000089,
          "velocity": 0.9763779527559056,
          "duration": 0.0024038437500024656
        },
        {
          "name": "C2",
          "midi": 36,
          "time": 80.9999190000009,
          "velocity": 0.9763779527559056,
          "duration": 0.0024038437500024656
        },
        {
          "name": "C#3",
          "midi": 49,
          "time": 80.9999190000009,
          "velocity": 0.9133858267716536,
          "duration": 0.0024038437500024656
        },
        {
          "name": "F#2",
          "midi": 42,
          "time": 81.4614570000009,
          "velocity": 0.6535433070866141,
          "duration": 0.0024038437500024656
        },
        {
          "name": "C2",
          "midi": 36,
          "time": 81.69222600000091,
          "velocity": 0.9763779527559056,
          "duration": 0.0024038437500024656
        },
        {
          "name": "D2",
          "midi": 38,
          "time": 81.69222600000091,
          "velocity": 0.8818897637795275,
          "duration": 0.0024038437500024656
        },
        {
          "name": "F#2",
          "midi": 42,
          "time": 81.92299500000092,
          "velocity": 0.7874015748031497,
          "duration": 0.0024038437500024656
        },
        {
          "name": "C2",
          "midi": 36,
          "time": 82.15376400000093,
          "velocity": 0.9763779527559056,
          "duration": 0.0024038437500024656
        },
        {
          "name": "F#2",
          "midi": 42,
          "time": 82.38453300000094,
          "velocity": 0.5590551181102362,
          "duration": 0.0024038437500024656
        },
        {
          "name": "C2",
          "midi": 36,
          "time": 82.61530200000095,
          "velocity": 0.9763779527559056,
          "duration": 0.0024038437500024656
        },
        {
          "name": "D2",
          "midi": 38,
          "time": 82.61530200000095,
          "velocity": 0.8818897637795275,
          "duration": 0.0024038437500024656
        },
        {
          "name": "A#2",
          "midi": 46,
          "time": 82.84607100000096,
          "velocity": 0.9133858267716536,
          "duration": 0.0024038437500024656
        },
        {
          "name": "C2",
          "midi": 36,
          "time": 83.07684000000097,
          "velocity": 0.9763779527559056,
          "duration": 0.0024038437500024656
        },
        {
          "name": "F#2",
          "midi": 42,
          "time": 83.30760900000098,
          "velocity": 0.3779527559055118,
          "duration": 0.0024038437500024656
        },
        {
          "name": "C2",
          "midi": 36,
          "time": 83.53837800000099,
          "velocity": 0.9763779527559056,
          "duration": 0.0024038437500024656
        },
        {
          "name": "D2",
          "midi": 38,
          "time": 83.53837800000099,
          "velocity": 0.9763779527559056,
          "duration": 0.0024038437500024656
        },
        {
          "name": "F#2",
          "midi": 42,
          "time": 83.769147000001,
          "velocity": 0.3464566929133858,
          "duration": 0.0024038437500024656
        },
        {
          "name": "C2",
          "midi": 36,
          "time": 83.99991600000101,
          "velocity": 0.9763779527559056,
          "duration": 0.0024038437500024656
        },
        {
          "name": "F#2",
          "midi": 42,
          "time": 84.23068500000102,
          "velocity": 0.7874015748031497,
          "duration": 0.0024038437500024656
        },
        {
          "name": "C2",
          "midi": 36,
          "time": 84.46145400000103,
          "velocity": 0.9763779527559056,
          "duration": 0.0024038437500024656
        },
        {
          "name": "D2",
          "midi": 38,
          "time": 84.46145400000103,
          "velocity": 0.8818897637795275,
          "duration": 0.0024038437500024656
        },
        {
          "name": "A#2",
          "midi": 46,
          "time": 84.69222300000104,
          "velocity": 0.9133858267716536,
          "duration": 0.0024038437500024656
        },
        {
          "name": "C2",
          "midi": 36,
          "time": 84.92299200000105,
          "velocity": 0.9763779527559056,
          "duration": 0.0024038437500024656
        },
        {
          "name": "F#2",
          "midi": 42,
          "time": 85.15376100000105,
          "velocity": 0.3779527559055118,
          "duration": 0.0024038437500024656
        },
        {
          "name": "C2",
          "midi": 36,
          "time": 85.38453000000106,
          "velocity": 0.9763779527559056,
          "duration": 0.0024038437500024656
        },
        {
          "name": "D2",
          "midi": 38,
          "time": 85.38453000000106,
          "velocity": 0.8818897637795275,
          "duration": 0.0024038437500024656
        },
        {
          "name": "F#2",
          "midi": 42,
          "time": 85.61529900000107,
          "velocity": 0.6535433070866141,
          "duration": 0.0024038437500024656
        },
        {
          "name": "C2",
          "midi": 36,
          "time": 85.84606800000108,
          "velocity": 0.9763779527559056,
          "duration": 0.0024038437500024656
        },
        {
          "name": "F#2",
          "midi": 42,
          "time": 86.07683700000109,
          "velocity": 0.6535433070866141,
          "duration": 0.0024038437500024656
        },
        {
          "name": "C2",
          "midi": 36,
          "time": 86.3076060000011,
          "velocity": 0.9763779527559056,
          "duration": 0.0024038437500024656
        },
        {
          "name": "D2",
          "midi": 38,
          "time": 86.3076060000011,
          "velocity": 0.9763779527559056,
          "duration": 0.0024038437500024656
        },
        {
          "name": "A#2",
          "midi": 46,
          "time": 86.53837500000111,
          "velocity": 0.7874015748031497,
          "duration": 0.0024038437500024656
        },
        {
          "name": "C2",
          "midi": 36,
          "time": 86.76914400000112,
          "velocity": 0.8818897637795275,
          "duration": 0.0024038437500024656
        },
        {
          "name": "F#2",
          "midi": 42,
          "time": 86.99991300000113,
          "velocity": 0.5590551181102362,
          "duration": 0.0024038437500024656
        },
        {
          "name": "C2",
          "midi": 36,
          "time": 87.23068200000114,
          "velocity": 0.9763779527559056,
          "duration": 0.0024038437500024656
        },
        {
          "name": "D2",
          "midi": 38,
          "time": 87.23068200000114,
          "velocity": 0.9763779527559056,
          "duration": 0.0024038437500024656
        },
        {
          "name": "F#2",
          "midi": 42,
          "time": 87.46145100000115,
          "velocity": 0.18110236220472442,
          "duration": 0.0024038437500024656
        },
        {
          "name": "C2",
          "midi": 36,
          "time": 87.69222000000116,
          "velocity": 0.9763779527559056,
          "duration": 0.0024038437500024656
        },
        {
          "name": "F#2",
          "midi": 42,
          "time": 87.92298900000117,
          "velocity": 0.7874015748031497,
          "duration": 0.0024038437500024656
        },
        {
          "name": "C2",
          "midi": 36,
          "time": 88.15375800000118,
          "velocity": 0.9763779527559056,
          "duration": 0.0024038437500024656
        },
        {
          "name": "D2",
          "midi": 38,
          "time": 88.15375800000118,
          "velocity": 0.9763779527559056,
          "duration": 0.0024038437500024656
        },
        {
          "name": "A#2",
          "midi": 46,
          "time": 88.38452700000119,
          "velocity": 0.9133858267716536,
          "duration": 0.0024038437500024656
        },
        {
          "name": "C2",
          "midi": 36,
          "time": 88.6152960000012,
          "velocity": 0.8818897637795275,
          "duration": 0.0024038437500024656
        },
        {
          "name": "F#2",
          "midi": 42,
          "time": 88.8460650000012,
          "velocity": 0.4251968503937008,
          "duration": 0.0024038437500024656
        },
        {
          "name": "C2",
          "midi": 36,
          "time": 89.07683400000121,
          "velocity": 0.9763779527559056,
          "duration": 0.0024038437500024656
        },
        {
          "name": "D2",
          "midi": 38,
          "time": 89.07683400000121,
          "velocity": 0.9763779527559056,
          "duration": 0.0024038437500024656
        },
        {
          "name": "F#2",
          "midi": 42,
          "time": 89.30760300000122,
          "velocity": 0.4251968503937008,
          "duration": 0.0024038437500024656
        },
        {
          "name": "C2",
          "midi": 36,
          "time": 89.53837200000123,
          "velocity": 0.9763779527559056,
          "duration": 0.0024038437500024656
        },
        {
          "name": "F#2",
          "midi": 42,
          "time": 89.76914100000124,
          "velocity": 0.48031496062992124,
          "duration": 0.0024038437500024656
        },
        {
          "name": "C2",
          "midi": 36,
          "time": 89.99991000000125,
          "velocity": 0.9763779527559056,
          "duration": 0.0024038437500024656
        },
        {
          "name": "D2",
          "midi": 38,
          "time": 89.99991000000125,
          "velocity": 0.9763779527559056,
          "duration": 0.0024038437500024656
        },
        {
          "name": "A#2",
          "midi": 46,
          "time": 90.23067900000126,
          "velocity": 0.7874015748031497,
          "duration": 0.0024038437500024656
        },
        {
          "name": "C2",
          "midi": 36,
          "time": 90.46144800000127,
          "velocity": 0.9763779527559056,
          "duration": 0.0024038437500024656
        },
        {
          "name": "F#2",
          "midi": 42,
          "time": 90.69221700000128,
          "velocity": 0.48031496062992124,
          "duration": 0.0024038437500024656
        },
        {
          "name": "C2",
          "midi": 36,
          "time": 90.92298600000129,
          "velocity": 0.9763779527559056,
          "duration": 0.0024038437500024656
        },
        {
          "name": "D2",
          "midi": 38,
          "time": 90.92298600000129,
          "velocity": 0.9763779527559056,
          "duration": 0.0024038437500024656
        },
        {
          "name": "F#2",
          "midi": 42,
          "time": 91.1537550000013,
          "velocity": 0.6535433070866141,
          "duration": 0.0024038437500024656
        },
        {
          "name": "C2",
          "midi": 36,
          "time": 91.3845240000013,
          "velocity": 0.9763779527559056,
          "duration": 0.0024038437500024656
        },
        {
          "name": "F#2",
          "midi": 42,
          "time": 91.61529300000132,
          "velocity": 0.5590551181102362,
          "duration": 0.0024038437500024656
        },
        {
          "name": "C2",
          "midi": 36,
          "time": 91.84606200000133,
          "velocity": 0.9763779527559056,
          "duration": 0.0024038437500024656
        },
        {
          "name": "D2",
          "midi": 38,
          "time": 91.84606200000133,
          "velocity": 0.8818897637795275,
          "duration": 0.0024038437500024656
        },
        {
          "name": "A#2",
          "midi": 46,
          "time": 92.07683100000133,
          "velocity": 0.7874015748031497,
          "duration": 0.0024038437500024656
        },
        {
          "name": "C2",
          "midi": 36,
          "time": 92.30760000000134,
          "velocity": 0.9763779527559056,
          "duration": 0.0024038437500024656
        },
        {
          "name": "F#2",
          "midi": 42,
          "time": 92.53836900000135,
          "velocity": 0.48031496062992124,
          "duration": 0.0024038437500024656
        },
        {
          "name": "C2",
          "midi": 36,
          "time": 92.76913800000136,
          "velocity": 0.9763779527559056,
          "duration": 0.0024038437500024656
        },
        {
          "name": "D2",
          "midi": 38,
          "time": 92.76913800000136,
          "velocity": 0.9763779527559056,
          "duration": 0.0024038437500024656
        },
        {
          "name": "F#2",
          "midi": 42,
          "time": 92.99990700000137,
          "velocity": 0.5590551181102362,
          "duration": 0.0024038437500024656
        },
        {
          "name": "C2",
          "midi": 36,
          "time": 93.23067600000138,
          "velocity": 0.9763779527559056,
          "duration": 0.0024038437500024656
        },
        {
          "name": "F#2",
          "midi": 42,
          "time": 93.46144500000139,
          "velocity": 0.5590551181102362,
          "duration": 0.0024038437500024656
        },
        {
          "name": "C2",
          "midi": 36,
          "time": 93.6922140000014,
          "velocity": 0.9763779527559056,
          "duration": 0.0024038437500024656
        },
        {
          "name": "D2",
          "midi": 38,
          "time": 93.6922140000014,
          "velocity": 0.9763779527559056,
          "duration": 0.0024038437500024656
        },
        {
          "name": "A#2",
          "midi": 46,
          "time": 93.92298300000141,
          "velocity": 0.9133858267716536,
          "duration": 0.0024038437500024656
        },
        {
          "name": "C2",
          "midi": 36,
          "time": 94.15375200000142,
          "velocity": 0.9763779527559056,
          "duration": 0.0024038437500024656
        },
        {
          "name": "F#2",
          "midi": 42,
          "time": 94.38452100000143,
          "velocity": 0.6535433070866141,
          "duration": 0.0024038437500024656
        },
        {
          "name": "C2",
          "midi": 36,
          "time": 94.61529000000144,
          "velocity": 0.9763779527559056,
          "duration": 0.0024038437500024656
        },
        {
          "name": "D2",
          "midi": 38,
          "time": 94.61529000000144,
          "velocity": 0.9763779527559056,
          "duration": 0.0024038437500024656
        },
        {
          "name": "F#2",
          "midi": 42,
          "time": 94.84605900000145,
          "velocity": 0.7874015748031497,
          "duration": 0.0024038437500024656
        },
        {
          "name": "C2",
          "midi": 36,
          "time": 95.07682800000146,
          "velocity": 0.8818897637795275,
          "duration": 0.0024038437500024656
        },
        {
          "name": "D2",
          "midi": 38,
          "time": 95.07682800000146,
          "velocity": 0.8818897637795275,
          "duration": 0.0024038437500024656
        },
        {
          "name": "C2",
          "midi": 36,
          "time": 95.30759700000146,
          "velocity": 0.9763779527559056,
          "duration": 0.0024038437500024656
        },
        {
          "name": "D2",
          "midi": 38,
          "time": 95.30759700000146,
          "velocity": 0.9763779527559056,
          "duration": 0.0024038437500024656
        },
        {
          "name": "C2",
          "midi": 36,
          "time": 95.76913500000147,
          "velocity": 0.9763779527559056,
          "duration": 0.0024038437500024656
        },
        {
          "name": "C#3",
          "midi": 49,
          "time": 95.76913500000147,
          "velocity": 0.7874015748031497,
          "duration": 0.0024038437500024656
        },
        {
          "name": "F#2",
          "midi": 42,
          "time": 96.23067300000147,
          "velocity": 0.6535433070866141,
          "duration": 0.0024038437500024656
        },
        {
          "name": "C2",
          "midi": 36,
          "time": 96.46144200000148,
          "velocity": 0.9763779527559056,
          "duration": 0.0024038437500024656
        },
        {
          "name": "D2",
          "midi": 38,
          "time": 96.46144200000148,
          "velocity": 0.9763779527559056,
          "duration": 0.0024038437500024656
        },
        {
          "name": "F#2",
          "midi": 42,
          "time": 96.69221100000149,
          "velocity": 0.5590551181102362,
          "duration": 0.0024038437500024656
        },
        {
          "name": "C2",
          "midi": 36,
          "time": 96.9229800000015,
          "velocity": 0.9763779527559056,
          "duration": 0.0024038437500024656
        },
        {
          "name": "F#2",
          "midi": 42,
          "time": 97.15374900000151,
          "velocity": 0.7874015748031497,
          "duration": 0.0024038437500024656
        },
        {
          "name": "C2",
          "midi": 36,
          "time": 97.38451800000152,
          "velocity": 0.9763779527559056,
          "duration": 0.0024038437500024656
        },
        {
          "name": "D2",
          "midi": 38,
          "time": 97.38451800000152,
          "velocity": 0.8818897637795275,
          "duration": 0.0024038437500024656
        },
        {
          "name": "A#2",
          "midi": 46,
          "time": 97.61528700000153,
          "velocity": 0.7874015748031497,
          "duration": 0.0024038437500024656
        },
        {
          "name": "C2",
          "midi": 36,
          "time": 97.84605600000154,
          "velocity": 0.8818897637795275,
          "duration": 0.0024038437500024656
        },
        {
          "name": "F#2",
          "midi": 42,
          "time": 98.07682500000155,
          "velocity": 0.48031496062992124,
          "duration": 0.0024038437500024656
        },
        {
          "name": "C2",
          "midi": 36,
          "time": 98.30759400000156,
          "velocity": 0.9763779527559056,
          "duration": 0.0024038437500024656
        },
        {
          "name": "D2",
          "midi": 38,
          "time": 98.30759400000156,
          "velocity": 0.9763779527559056,
          "duration": 0.0024038437500024656
        },
        {
          "name": "F#2",
          "midi": 42,
          "time": 98.53836300000157,
          "velocity": 0.6535433070866141,
          "duration": 0.0024038437500024656
        },
        {
          "name": "C2",
          "midi": 36,
          "time": 98.76913200000158,
          "velocity": 0.9763779527559056,
          "duration": 0.0024038437500024656
        },
        {
          "name": "F#2",
          "midi": 42,
          "time": 98.99990100000159,
          "velocity": 0.7874015748031497,
          "duration": 0.0024038437500024656
        },
        {
          "name": "C2",
          "midi": 36,
          "time": 99.2306700000016,
          "velocity": 0.9763779527559056,
          "duration": 0.0024038437500024656
        },
        {
          "name": "D2",
          "midi": 38,
          "time": 99.2306700000016,
          "velocity": 0.9763779527559056,
          "duration": 0.0024038437500024656
        },
        {
          "name": "A#2",
          "midi": 46,
          "time": 99.4614390000016,
          "velocity": 0.7874015748031497,
          "duration": 0.0024038437500024656
        },
        {
          "name": "C2",
          "midi": 36,
          "time": 99.69220800000161,
          "velocity": 0.8818897637795275,
          "duration": 0.0024038437500024656
        },
        {
          "name": "F#2",
          "midi": 42,
          "time": 99.92297700000162,
          "velocity": 0.48031496062992124,
          "duration": 0.0024038437500024656
        },
        {
          "name": "C2",
          "midi": 36,
          "time": 100.15374600000163,
          "velocity": 0.9763779527559056,
          "duration": 0.0024038437500024656
        },
        {
          "name": "D2",
          "midi": 38,
          "time": 100.15374600000163,
          "velocity": 0.8818897637795275,
          "duration": 0.0024038437500024656
        },
        {
          "name": "F#2",
          "midi": 42,
          "time": 100.38451500000164,
          "velocity": 0.5590551181102362,
          "duration": 0.0024038437500024656
        },
        {
          "name": "C2",
          "midi": 36,
          "time": 100.61528400000165,
          "velocity": 0.9763779527559056,
          "duration": 0.0024038437500024656
        },
        {
          "name": "F#2",
          "midi": 42,
          "time": 100.84605300000166,
          "velocity": 0.6535433070866141,
          "duration": 0.0024038437500024656
        },
        {
          "name": "C2",
          "midi": 36,
          "time": 101.07682200000167,
          "velocity": 0.9763779527559056,
          "duration": 0.0024038437500024656
        },
        {
          "name": "D2",
          "midi": 38,
          "time": 101.07682200000167,
          "velocity": 0.8818897637795275,
          "duration": 0.0024038437500024656
        },
        {
          "name": "A#2",
          "midi": 46,
          "time": 101.30759100000168,
          "velocity": 0.7874015748031497,
          "duration": 0.0024038437500024656
        },
        {
          "name": "C2",
          "midi": 36,
          "time": 101.53836000000169,
          "velocity": 0.8818897637795275,
          "duration": 0.0024038437500024656
        },
        {
          "name": "F#2",
          "midi": 42,
          "time": 101.7691290000017,
          "velocity": 0.5590551181102362,
          "duration": 0.0024038437500024656
        },
        {
          "name": "C2",
          "midi": 36,
          "time": 101.9998980000017,
          "velocity": 0.9763779527559056,
          "duration": 0.0024038437500024656
        },
        {
          "name": "D2",
          "midi": 38,
          "time": 101.9998980000017,
          "velocity": 0.8818897637795275,
          "duration": 0.0024038437500024656
        },
        {
          "name": "F#2",
          "midi": 42,
          "time": 102.23066700000172,
          "velocity": 0.6535433070866141,
          "duration": 0.0024038437500024656
        },
        {
          "name": "C2",
          "midi": 36,
          "time": 102.46143600000173,
          "velocity": 0.9763779527559056,
          "duration": 0.0024038437500024656
        },
        {
          "name": "F#2",
          "midi": 42,
          "time": 102.69220500000174,
          "velocity": 0.7874015748031497,
          "duration": 0.0024038437500024656
        },
        {
          "name": "C2",
          "midi": 36,
          "time": 102.92297400000174,
          "velocity": 0.9763779527559056,
          "duration": 0.0024038437500024656
        },
        {
          "name": "D2",
          "midi": 38,
          "time": 102.92297400000174,
          "velocity": 0.8818897637795275,
          "duration": 0.0024038437500024656
        },
        {
          "name": "A#2",
          "midi": 46,
          "time": 103.15374300000175,
          "velocity": 0.9133858267716536,
          "duration": 0.0024038437500024656
        },
        {
          "name": "C2",
          "midi": 36,
          "time": 103.38451200000176,
          "velocity": 0.9763779527559056,
          "duration": 0.0024038437500024656
        },
        {
          "name": "F#2",
          "midi": 42,
          "time": 103.61528100000177,
          "velocity": 0.6535433070866141,
          "duration": 0.0024038437500024656
        },
        {
          "name": "C2",
          "midi": 36,
          "time": 103.84605000000178,
          "velocity": 0.9763779527559056,
          "duration": 0.0024038437500024656
        },
        {
          "name": "D2",
          "midi": 38,
          "time": 103.84605000000178,
          "velocity": 0.9763779527559056,
          "duration": 0.0024038437500024656
        },
        {
          "name": "F#2",
          "midi": 42,
          "time": 104.07681900000179,
          "velocity": 0.7874015748031497,
          "duration": 0.0024038437500024656
        },
        {
          "name": "C2",
          "midi": 36,
          "time": 104.3075880000018,
          "velocity": 0.9763779527559056,
          "duration": 0.0024038437500024656
        },
        {
          "name": "F#2",
          "midi": 42,
          "time": 104.53835700000181,
          "velocity": 0.7874015748031497,
          "duration": 0.0024038437500024656
        },
        {
          "name": "C2",
          "midi": 36,
          "time": 104.76912600000182,
          "velocity": 0.9763779527559056,
          "duration": 0.0024038437500024656
        },
        {
          "name": "D2",
          "midi": 38,
          "time": 104.76912600000182,
          "velocity": 0.9763779527559056,
          "duration": 0.0024038437500024656
        },
        {
          "name": "A#2",
          "midi": 46,
          "time": 104.99989500000183,
          "velocity": 0.9133858267716536,
          "duration": 0.0024038437500024656
        },
        {
          "name": "C2",
          "midi": 36,
          "time": 105.23066400000184,
          "velocity": 0.9763779527559056,
          "duration": 0.0024038437500024656
        },
        {
          "name": "F#2",
          "midi": 42,
          "time": 105.46143300000185,
          "velocity": 0.7874015748031497,
          "duration": 0.0024038437500024656
        },
        {
          "name": "C2",
          "midi": 36,
          "time": 105.69220200000186,
          "velocity": 0.9763779527559056,
          "duration": 0.0024038437500024656
        },
        {
          "name": "D2",
          "midi": 38,
          "time": 105.69220200000186,
          "velocity": 0.9763779527559056,
          "duration": 0.0024038437500024656
        },
        {
          "name": "F#2",
          "midi": 42,
          "time": 105.92297100000187,
          "velocity": 0.6535433070866141,
          "duration": 0.0024038437500024656
        },
        {
          "name": "C2",
          "midi": 36,
          "time": 106.15374000000187,
          "velocity": 0.9763779527559056,
          "duration": 0.0024038437500024656
        },
        {
          "name": "F#2",
          "midi": 42,
          "time": 106.38450900000188,
          "velocity": 0.5590551181102362,
          "duration": 0.0024038437500024656
        },
        {
          "name": "C2",
          "midi": 36,
          "time": 106.6152780000019,
          "velocity": 0.9763779527559056,
          "duration": 0.0024038437500024656
        },
        {
          "name": "D2",
          "midi": 38,
          "time": 106.6152780000019,
          "velocity": 0.8818897637795275,
          "duration": 0.0024038437500024656
        },
        {
          "name": "A#2",
          "midi": 46,
          "time": 106.8460470000019,
          "velocity": 0.7874015748031497,
          "duration": 0.0024038437500024656
        },
        {
          "name": "C2",
          "midi": 36,
          "time": 107.07681600000191,
          "velocity": 0.9763779527559056,
          "duration": 0.0024038437500024656
        },
        {
          "name": "F#2",
          "midi": 42,
          "time": 107.30758500000192,
          "velocity": 0.5590551181102362,
          "duration": 0.0024038437500024656
        },
        {
          "name": "C2",
          "midi": 36,
          "time": 107.53835400000193,
          "velocity": 0.9763779527559056,
          "duration": 0.0024038437500024656
        },
        {
          "name": "D2",
          "midi": 38,
          "time": 107.53835400000193,
          "velocity": 0.9763779527559056,
          "duration": 0.0024038437500024656
        },
        {
          "name": "F#2",
          "midi": 42,
          "time": 107.76912300000194,
          "velocity": 0.7874015748031497,
          "duration": 0.0024038437500024656
        },
        {
          "name": "C2",
          "midi": 36,
          "time": 107.99989200000195,
          "velocity": 0.9763779527559056,
          "duration": 0.0024038437500024656
        },
        {
          "name": "F#2",
          "midi": 42,
          "time": 108.23066100000196,
          "velocity": 0.7874015748031497,
          "duration": 0.0024038437500024656
        },
        {
          "name": "C2",
          "midi": 36,
          "time": 108.46143000000197,
          "velocity": 0.9763779527559056,
          "duration": 0.0024038437500024656
        },
        {
          "name": "D2",
          "midi": 38,
          "time": 108.46143000000197,
          "velocity": 0.9763779527559056,
          "duration": 0.0024038437500024656
        },
        {
          "name": "A#2",
          "midi": 46,
          "time": 108.69219900000198,
          "velocity": 0.6535433070866141,
          "duration": 0.0024038437500024656
        },
        {
          "name": "C2",
          "midi": 36,
          "time": 108.92296800000199,
          "velocity": 0.9763779527559056,
          "duration": 0.0024038437500024656
        },
        {
          "name": "F#2",
          "midi": 42,
          "time": 109.153737000002,
          "velocity": 0.7874015748031497,
          "duration": 0.0024038437500024656
        },
        {
          "name": "C2",
          "midi": 36,
          "time": 109.384506000002,
          "velocity": 0.9763779527559056,
          "duration": 0.0024038437500024656
        },
        {
          "name": "D2",
          "midi": 38,
          "time": 109.384506000002,
          "velocity": 0.8818897637795275,
          "duration": 0.0024038437500024656
        },
        {
          "name": "F#2",
          "midi": 42,
          "time": 109.61527500000201,
          "velocity": 0.7874015748031497,
          "duration": 0.0024038437500024656
        },
        {
          "name": "C2",
          "midi": 36,
          "time": 109.84604400000202,
          "velocity": 0.9763779527559056,
          "duration": 0.0024038437500024656
        },
        {
          "name": "F#2",
          "midi": 42,
          "time": 110.07681300000203,
          "velocity": 0.7874015748031497,
          "duration": 0.0024038437500024656
        },
        {
          "name": "C2",
          "midi": 36,
          "time": 110.30758200000204,
          "velocity": 0.8818897637795275,
          "duration": 0.0024038437500024656
        },
        {
          "name": "D2",
          "midi": 38,
          "time": 110.30758200000204,
          "velocity": 0.9763779527559056,
          "duration": 0.0024038437500024656
        },
        {
          "name": "A#2",
          "midi": 46,
          "time": 110.53835100000205,
          "velocity": 0.9133858267716536,
          "duration": 0.0024038437500024656
        },
        {
          "name": "C2",
          "midi": 36,
          "time": 110.76912000000206,
          "velocity": 0.9763779527559056,
          "duration": 0.0024038437500024656
        },
        {
          "name": "F#2",
          "midi": 42,
          "time": 110.99988900000207,
          "velocity": 0.5590551181102362,
          "duration": 0.0024038437500024656
        },
        {
          "name": "C2",
          "midi": 36,
          "time": 111.23065800000208,
          "velocity": 1,
          "duration": 0.0024038437500024656
        },
        {
          "name": "D2",
          "midi": 38,
          "time": 111.23065800000208,
          "velocity": 0.8818897637795275,
          "duration": 0.0024038437500024656
        },
        {
          "name": "F#2",
          "midi": 42,
          "time": 111.46142700000209,
          "velocity": 0.7874015748031497,
          "duration": 0.0024038437500024656
        },
        {
          "name": "C2",
          "midi": 36,
          "time": 111.6921960000021,
          "velocity": 0.8818897637795275,
          "duration": 0.0024038437500024656
        },
        {
          "name": "F#2",
          "midi": 42,
          "time": 111.92296500000211,
          "velocity": 0.6535433070866141,
          "duration": 0.0024038437500024656
        },
        {
          "name": "C2",
          "midi": 36,
          "time": 112.15373400000212,
          "velocity": 0.9763779527559056,
          "duration": 0.0024038437500024656
        },
        {
          "name": "D2",
          "midi": 38,
          "time": 112.15373400000212,
          "velocity": 0.9763779527559056,
          "duration": 0.0024038437500024656
        },
        {
          "name": "A#2",
          "midi": 46,
          "time": 112.38450300000213,
          "velocity": 0.7874015748031497,
          "duration": 0.0024038437500024656
        },
        {
          "name": "C2",
          "midi": 36,
          "time": 112.61527200000214,
          "velocity": 0.9763779527559056,
          "duration": 0.0024038437500024656
        },
        {
          "name": "F#2",
          "midi": 42,
          "time": 112.84604100000215,
          "velocity": 0.3779527559055118,
          "duration": 0.0024038437500024656
        },
        {
          "name": "C2",
          "midi": 36,
          "time": 113.07681000000215,
          "velocity": 0.8818897637795275,
          "duration": 0.0024038437500024656
        },
        {
          "name": "D2",
          "midi": 38,
          "time": 113.07681000000215,
          "velocity": 0.8818897637795275,
          "duration": 0.0024038437500024656
        },
        {
          "name": "F#2",
          "midi": 42,
          "time": 113.30757900000216,
          "velocity": 0.5590551181102362,
          "duration": 0.0024038437500024656
        },
        {
          "name": "C2",
          "midi": 36,
          "time": 113.53834800000217,
          "velocity": 0.9763779527559056,
          "duration": 0.0024038437500024656
        },
        {
          "name": "F#2",
          "midi": 42,
          "time": 113.76911700000218,
          "velocity": 0.7874015748031497,
          "duration": 0.0024038437500024656
        },
        {
          "name": "C2",
          "midi": 36,
          "time": 113.99988600000219,
          "velocity": 0.9763779527559056,
          "duration": 0.0024038437500024656
        },
        {
          "name": "D2",
          "midi": 38,
          "time": 113.99988600000219,
          "velocity": 0.8818897637795275,
          "duration": 0.0024038437500024656
        },
        {
          "name": "A#2",
          "midi": 46,
          "time": 114.2306550000022,
          "velocity": 0.9133858267716536,
          "duration": 0.0024038437500024656
        },
        {
          "name": "C2",
          "midi": 36,
          "time": 114.46142400000221,
          "velocity": 0.8818897637795275,
          "duration": 0.0024038437500024656
        },
        {
          "name": "F#2",
          "midi": 42,
          "time": 114.69219300000222,
          "velocity": 0.48031496062992124,
          "duration": 0.0024038437500024656
        },
        {
          "name": "C2",
          "midi": 36,
          "time": 114.92296200000223,
          "velocity": 0.9763779527559056,
          "duration": 0.0024038437500024656
        },
        {
          "name": "D2",
          "midi": 38,
          "time": 114.92296200000223,
          "velocity": 0.9763779527559056,
          "duration": 0.0024038437500024656
        },
        {
          "name": "F#2",
          "midi": 42,
          "time": 115.15373100000224,
          "velocity": 0.5590551181102362,
          "duration": 0.0024038437500024656
        },
        {
          "name": "C2",
          "midi": 36,
          "time": 115.38450000000225,
          "velocity": 0.8818897637795275,
          "duration": 0.0024038437500024656
        },
        {
          "name": "F#2",
          "midi": 42,
          "time": 115.61526900000226,
          "velocity": 0.4251968503937008,
          "duration": 0.0024038437500024656
        },
        {
          "name": "C2",
          "midi": 36,
          "time": 115.84603800000227,
          "velocity": 0.9763779527559056,
          "duration": 0.0024038437500024656
        },
        {
          "name": "D2",
          "midi": 38,
          "time": 115.84603800000227,
          "velocity": 0.8818897637795275,
          "duration": 0.0024038437500024656
        },
        {
          "name": "A#2",
          "midi": 46,
          "time": 116.07680700000228,
          "velocity": 0.5590551181102362,
          "duration": 0.0024038437500024656
        },
        {
          "name": "C2",
          "midi": 36,
          "time": 116.30757600000229,
          "velocity": 0.9763779527559056,
          "duration": 0.0024038437500024656
        },
        {
          "name": "F#2",
          "midi": 42,
          "time": 116.5383450000023,
          "velocity": 0.48031496062992124,
          "duration": 0.0024038437500024656
        },
        {
          "name": "C2",
          "midi": 36,
          "time": 116.7691140000023,
          "velocity": 0.9763779527559056,
          "duration": 0.0024038437500024656
        },
        {
          "name": "D2",
          "midi": 38,
          "time": 116.7691140000023,
          "velocity": 0.9763779527559056,
          "duration": 0.0024038437500024656
        },
        {
          "name": "F#2",
          "midi": 42,
          "time": 116.99988300000231,
          "velocity": 0.7874015748031497,
          "duration": 0.0024038437500024656
        },
        {
          "name": "C2",
          "midi": 36,
          "time": 117.23065200000232,
          "velocity": 0.8818897637795275,
          "duration": 0.0024038437500024656
        },
        {
          "name": "C2",
          "midi": 36,
          "time": 117.46142100000233,
          "velocity": 0.7480314960629921,
          "duration": 0.0024038437500024656
        },
        {
          "name": "F#2",
          "midi": 42,
          "time": 117.46142100000233,
          "velocity": 0.7874015748031497,
          "duration": 0.0024038437500024656
        },
        {
          "name": "C2",
          "midi": 36,
          "time": 117.69219000000234,
          "velocity": 0.9763779527559056,
          "duration": 0.0024038437500024656
        },
        {
          "name": "D2",
          "midi": 38,
          "time": 117.69219000000234,
          "velocity": 0.8818897637795275,
          "duration": 0.0024038437500024656
        },
        {
          "name": "A#2",
          "midi": 46,
          "time": 117.92295900000235,
          "velocity": 0.7874015748031497,
          "duration": 0.0024038437500024656
        },
        {
          "name": "C2",
          "midi": 36,
          "time": 118.15372800000236,
          "velocity": 0.9763779527559056,
          "duration": 0.0024038437500024656
        },
        {
          "name": "F#2",
          "midi": 42,
          "time": 118.38449700000237,
          "velocity": 0.4251968503937008,
          "duration": 0.0024038437500024656
        },
        {
          "name": "C2",
          "midi": 36,
          "time": 118.61526600000238,
          "velocity": 0.9763779527559056,
          "duration": 0.0024038437500024656
        },
        {
          "name": "D2",
          "midi": 38,
          "time": 118.61526600000238,
          "velocity": 0.9763779527559056,
          "duration": 0.0024038437500024656
        },
        {
          "name": "F#2",
          "midi": 42,
          "time": 118.84603500000239,
          "velocity": 0.6535433070866141,
          "duration": 0.0024038437500024656
        },
        {
          "name": "C2",
          "midi": 36,
          "time": 119.0768040000024,
          "velocity": 0.9763779527559056,
          "duration": 0.0024038437500024656
        },
        {
          "name": "F#2",
          "midi": 42,
          "time": 119.3075730000024,
          "velocity": 0.5590551181102362,
          "duration": 0.0024038437500024656
        },
        {
          "name": "C2",
          "midi": 36,
          "time": 119.53834200000242,
          "velocity": 0.9763779527559056,
          "duration": 0.0024038437500024656
        },
        {
          "name": "D2",
          "midi": 38,
          "time": 119.53834200000242,
          "velocity": 0.9763779527559056,
          "duration": 0.0024038437500024656
        },
        {
          "name": "A#2",
          "midi": 46,
          "time": 119.76911100000243,
          "velocity": 0.7874015748031497,
          "duration": 0.0024038437500024656
        },
        {
          "name": "C2",
          "midi": 36,
          "time": 119.99988000000243,
          "velocity": 0.8818897637795275,
          "duration": 0.0024038437500024656
        },
        {
          "name": "F#2",
          "midi": 42,
          "time": 120.23064900000244,
          "velocity": 0.5590551181102362,
          "duration": 0.0024038437500024656
        },
        {
          "name": "C2",
          "midi": 36,
          "time": 120.46141800000245,
          "velocity": 0.9763779527559056,
          "duration": 0.0024038437500024656
        },
        {
          "name": "D2",
          "midi": 38,
          "time": 120.46141800000245,
          "velocity": 0.9763779527559056,
          "duration": 0.0024038437500024656
        },
        {
          "name": "F#2",
          "midi": 42,
          "time": 120.69218700000246,
          "velocity": 0.6535433070866141,
          "duration": 0.0024038437500024656
        },
        {
          "name": "C2",
          "midi": 36,
          "time": 120.92295600000247,
          "velocity": 0.9763779527559056,
          "duration": 0.0024038437500024656
        },
        {
          "name": "F#2",
          "midi": 42,
          "time": 121.15372500000248,
          "velocity": 0.48031496062992124,
          "duration": 0.0024038437500024656
        },
        {
          "name": "C2",
          "midi": 36,
          "time": 121.38449400000249,
          "velocity": 0.9763779527559056,
          "duration": 0.0024038437500024656
        },
        {
          "name": "D2",
          "midi": 38,
          "time": 121.38449400000249,
          "velocity": 0.9763779527559056,
          "duration": 0.0024038437500024656
        },
        {
          "name": "A#2",
          "midi": 46,
          "time": 121.6152630000025,
          "velocity": 0.7874015748031497,
          "duration": 0.0024038437500024656
        },
        {
          "name": "C2",
          "midi": 36,
          "time": 121.84603200000251,
          "velocity": 0.9763779527559056,
          "duration": 0.0024038437500024656
        },
        {
          "name": "F#2",
          "midi": 42,
          "time": 122.07680100000252,
          "velocity": 0.48031496062992124,
          "duration": 0.0024038437500024656
        },
        {
          "name": "C2",
          "midi": 36,
          "time": 122.30757000000253,
          "velocity": 0.9763779527559056,
          "duration": 0.0024038437500024656
        },
        {
          "name": "D2",
          "midi": 38,
          "time": 122.30757000000253,
          "velocity": 0.9763779527559056,
          "duration": 0.0024038437500024656
        },
        {
          "name": "F#2",
          "midi": 42,
          "time": 122.53833900000254,
          "velocity": 0.6535433070866141,
          "duration": 0.0024038437500024656
        },
        {
          "name": "C2",
          "midi": 36,
          "time": 122.76910800000255,
          "velocity": 0.8818897637795275,
          "duration": 0.0024038437500024656
        },
        {
          "name": "F#2",
          "midi": 42,
          "time": 122.99987700000256,
          "velocity": 0.6535433070866141,
          "duration": 0.0024038437500024656
        },
        {
          "name": "C2",
          "midi": 36,
          "time": 123.23064600000257,
          "velocity": 0.9763779527559056,
          "duration": 0.0024038437500024656
        },
        {
          "name": "D2",
          "midi": 38,
          "time": 123.23064600000257,
          "velocity": 0.9763779527559056,
          "duration": 0.0024038437500024656
        },
        {
          "name": "A#2",
          "midi": 46,
          "time": 123.46141500000257,
          "velocity": 0.9133858267716536,
          "duration": 0.0024038437500024656
        },
        {
          "name": "C2",
          "midi": 36,
          "time": 123.69218400000258,
          "velocity": 0.9763779527559056,
          "duration": 0.0024038437500024656
        },
        {
          "name": "D2",
          "midi": 38,
          "time": 123.9229530000026,
          "velocity": 0.6299212598425197,
          "duration": 0.0024038437500024656
        },
        {
          "name": "C2",
          "midi": 36,
          "time": 124.1537220000026,
          "velocity": 0.9763779527559056,
          "duration": 0.0024038437500024656
        },
        {
          "name": "D2",
          "midi": 38,
          "time": 124.1537220000026,
          "velocity": 0.8818897637795275,
          "duration": 0.0024038437500024656
        },
        {
          "name": "A2",
          "midi": 45,
          "time": 124.38449100000261,
          "velocity": 0.8818897637795275,
          "duration": 0.0024038437500024656
        },
        {
          "name": "C2",
          "midi": 36,
          "time": 124.61526000000262,
          "velocity": 0.9763779527559056,
          "duration": 0.0024038437500024656
        },
        {
          "name": "D2",
          "midi": 38,
          "time": 124.61526000000262,
          "velocity": 0.9763779527559056,
          "duration": 0.0024038437500024656
        },
        {
          "name": "A2",
          "midi": 45,
          "time": 124.61526000000262,
          "velocity": 0.8818897637795275,
          "duration": 0.0024038437500024656
        },
        {
          "name": "D2",
          "midi": 38,
          "time": 124.84602900000263,
          "velocity": 0.6299212598425197,
          "duration": 0.0024038437500024656
        },
        {
          "name": "F2",
          "midi": 41,
          "time": 124.84602900000263,
          "velocity": 0.5354330708661418,
          "duration": 0.0024038437500024656
        },
        {
          "name": "D2",
          "midi": 38,
          "time": 125.07679800000264,
          "velocity": 0.8818897637795275,
          "duration": 0.0024038437500024656
        },
        {
          "name": "F2",
          "midi": 41,
          "time": 125.07679800000264,
          "velocity": 0.8818897637795275,
          "duration": 0.0024038437500024656
        },
        {
          "name": "C2",
          "midi": 36,
          "time": 125.30756700000265,
          "velocity": 0.9763779527559056,
          "duration": 0.0024038437500024656
        },
        {
          "name": "C#3",
          "midi": 49,
          "time": 125.30756700000265,
          "velocity": 0.9133858267716536,
          "duration": 0.0024038437500024656
        },
        {
          "name": "F#2",
          "midi": 42,
          "time": 125.76910500000265,
          "velocity": 0.7874015748031497,
          "duration": 0.0024038437500024656
        },
        {
          "name": "C2",
          "midi": 36,
          "time": 125.99987400000266,
          "velocity": 0.9763779527559056,
          "duration": 0.0024038437500024656
        },
        {
          "name": "D2",
          "midi": 38,
          "time": 125.99987400000266,
          "velocity": 0.9763779527559056,
          "duration": 0.0024038437500024656
        },
        {
          "name": "F#2",
          "midi": 42,
          "time": 126.23064300000267,
          "velocity": 0.48031496062992124,
          "duration": 0.0024038437500024656
        },
        {
          "name": "C2",
          "midi": 36,
          "time": 126.46141200000268,
          "velocity": 0.9763779527559056,
          "duration": 0.0024038437500024656
        },
        {
          "name": "F#2",
          "midi": 42,
          "time": 126.69218100000269,
          "velocity": 0.6535433070866141,
          "duration": 0.0024038437500024656
        },
        {
          "name": "C2",
          "midi": 36,
          "time": 126.9229500000027,
          "velocity": 0.9763779527559056,
          "duration": 0.0024038437500024656
        },
        {
          "name": "D2",
          "midi": 38,
          "time": 126.9229500000027,
          "velocity": 0.9763779527559056,
          "duration": 0.0024038437500024656
        },
        {
          "name": "A#2",
          "midi": 46,
          "time": 127.15371900000271,
          "velocity": 0.9133858267716536,
          "duration": 0.0024038437500024656
        },
        {
          "name": "C2",
          "midi": 36,
          "time": 127.38448800000272,
          "velocity": 0.9763779527559056,
          "duration": 0.0024038437500024656
        },
        {
          "name": "F#2",
          "midi": 42,
          "time": 127.61525700000273,
          "velocity": 0.48031496062992124,
          "duration": 0.0024038437500024656
        },
        {
          "name": "C2",
          "midi": 36,
          "time": 127.84602600000274,
          "velocity": 0.9763779527559056,
          "duration": 0.0024038437500024656
        },
        {
          "name": "D2",
          "midi": 38,
          "time": 127.84602600000274,
          "velocity": 0.8818897637795275,
          "duration": 0.0024038437500024656
        },
        {
          "name": "F#2",
          "midi": 42,
          "time": 128.07679500000273,
          "velocity": 0.48031496062992124,
          "duration": 0.002403843749988255
        },
        {
          "name": "C2",
          "midi": 36,
          "time": 128.3075640000027,
          "velocity": 0.8818897637795275,
          "duration": 0.002403843749988255
        },
        {
          "name": "F#2",
          "midi": 42,
          "time": 128.5383330000027,
          "velocity": 0.7874015748031497,
          "duration": 0.002403843749988255
        },
        {
          "name": "C2",
          "midi": 36,
          "time": 128.76910200000268,
          "velocity": 0.9763779527559056,
          "duration": 0.002403843749988255
        },
        {
          "name": "D2",
          "midi": 38,
          "time": 128.76910200000268,
          "velocity": 0.9763779527559056,
          "duration": 0.002403843749988255
        },
        {
          "name": "A#2",
          "midi": 46,
          "time": 128.99987100000266,
          "velocity": 0.7874015748031497,
          "duration": 0.002403843749988255
        },
        {
          "name": "C2",
          "midi": 36,
          "time": 129.23064000000264,
          "velocity": 0.9763779527559056,
          "duration": 0.002403843749988255
        },
        {
          "name": "F#2",
          "midi": 42,
          "time": 129.46140900000262,
          "velocity": 0.5590551181102362,
          "duration": 0.002403843749988255
        },
        {
          "name": "C2",
          "midi": 36,
          "time": 129.6921780000026,
          "velocity": 0.9763779527559056,
          "duration": 0.002403843749988255
        },
        {
          "name": "D2",
          "midi": 38,
          "time": 129.6921780000026,
          "velocity": 0.8818897637795275,
          "duration": 0.002403843749988255
        },
        {
          "name": "F#2",
          "midi": 42,
          "time": 129.92294700000258,
          "velocity": 0.48031496062992124,
          "duration": 0.002403843749988255
        },
        {
          "name": "C2",
          "midi": 36,
          "time": 130.15371600000256,
          "velocity": 0.8818897637795275,
          "duration": 0.002403843749988255
        },
        {
          "name": "F#2",
          "midi": 42,
          "time": 130.38448500000254,
          "velocity": 0.7874015748031497,
          "duration": 0.002403843749988255
        },
        {
          "name": "C2",
          "midi": 36,
          "time": 130.61525400000252,
          "velocity": 0.9763779527559056,
          "duration": 0.002403843749988255
        },
        {
          "name": "D2",
          "midi": 38,
          "time": 130.61525400000252,
          "velocity": 0.9763779527559056,
          "duration": 0.002403843749988255
        },
        {
          "name": "A#2",
          "midi": 46,
          "time": 130.8460230000025,
          "velocity": 0.7874015748031497,
          "duration": 0.002403843749988255
        },
        {
          "name": "C2",
          "midi": 36,
          "time": 131.07679200000248,
          "velocity": 0.9763779527559056,
          "duration": 0.002403843749988255
        },
        {
          "name": "F#2",
          "midi": 42,
          "time": 131.30756100000247,
          "velocity": 0.48031496062992124,
          "duration": 0.002403843749988255
        },
        {
          "name": "C2",
          "midi": 36,
          "time": 131.53833000000245,
          "velocity": 0.9763779527559056,
          "duration": 0.002403843749988255
        },
        {
          "name": "D2",
          "midi": 38,
          "time": 131.53833000000245,
          "velocity": 0.9763779527559056,
          "duration": 0.002403843749988255
        },
        {
          "name": "F#2",
          "midi": 42,
          "time": 131.76909900000243,
          "velocity": 0.6535433070866141,
          "duration": 0.002403843749988255
        },
        {
          "name": "C2",
          "midi": 36,
          "time": 131.9998680000024,
          "velocity": 0.9763779527559056,
          "duration": 0.002403843749988255
        },
        {
          "name": "F#2",
          "midi": 42,
          "time": 132.2306370000024,
          "velocity": 0.7874015748031497,
          "duration": 0.002403843749988255
        },
        {
          "name": "C2",
          "midi": 36,
          "time": 132.46140600000237,
          "velocity": 0.8818897637795275,
          "duration": 0.002403843749988255
        },
        {
          "name": "D2",
          "midi": 38,
          "time": 132.46140600000237,
          "velocity": 0.9763779527559056,
          "duration": 0.002403843749988255
        },
        {
          "name": "A#2",
          "midi": 46,
          "time": 132.69217500000235,
          "velocity": 0.9133858267716536,
          "duration": 0.002403843749988255
        },
        {
          "name": "C2",
          "midi": 36,
          "time": 132.92294400000233,
          "velocity": 0.9763779527559056,
          "duration": 0.002403843749988255
        },
        {
          "name": "F#2",
          "midi": 42,
          "time": 133.1537130000023,
          "velocity": 0.5590551181102362,
          "duration": 0.002403843749988255
        },
        {
          "name": "C2",
          "midi": 36,
          "time": 133.3844820000023,
          "velocity": 0.9763779527559056,
          "duration": 0.002403843749988255
        },
        {
          "name": "D2",
          "midi": 38,
          "time": 133.3844820000023,
          "velocity": 0.9763779527559056,
          "duration": 0.002403843749988255
        },
        {
          "name": "F#2",
          "midi": 42,
          "time": 133.61525100000227,
          "velocity": 0.6535433070866141,
          "duration": 0.002403843749988255
        },
        {
          "name": "C2",
          "midi": 36,
          "time": 133.84602000000226,
          "velocity": 0.9763779527559056,
          "duration": 0.002403843749988255
        },
        {
          "name": "F#2",
          "midi": 42,
          "time": 134.07678900000224,
          "velocity": 0.6535433070866141,
          "duration": 0.002403843749988255
        },
        {
          "name": "C2",
          "midi": 36,
          "time": 134.30755800000222,
          "velocity": 0.9763779527559056,
          "duration": 0.002403843749988255
        },
        {
          "name": "D2",
          "midi": 38,
          "time": 134.30755800000222,
          "velocity": 0.8818897637795275,
          "duration": 0.002403843749988255
        },
        {
          "name": "A#2",
          "midi": 46,
          "time": 134.5383270000022,
          "velocity": 0.7874015748031497,
          "duration": 0.002403843749988255
        },
        {
          "name": "C2",
          "midi": 36,
          "time": 134.76909600000218,
          "velocity": 0.9763779527559056,
          "duration": 0.002403843749988255
        },
        {
          "name": "F#2",
          "midi": 42,
          "time": 134.99986500000216,
          "velocity": 0.4251968503937008,
          "duration": 0.002403843749988255
        },
        {
          "name": "C2",
          "midi": 36,
          "time": 135.23063400000214,
          "velocity": 0.9763779527559056,
          "duration": 0.002403843749988255
        },
        {
          "name": "D2",
          "midi": 38,
          "time": 135.23063400000214,
          "velocity": 0.8818897637795275,
          "duration": 0.002403843749988255
        },
        {
          "name": "F#2",
          "midi": 42,
          "time": 135.46140300000212,
          "velocity": 0.5590551181102362,
          "duration": 0.002403843749988255
        },
        {
          "name": "C2",
          "midi": 36,
          "time": 135.6921720000021,
          "velocity": 0.9763779527559056,
          "duration": 0.002403843749988255
        },
        {
          "name": "F#2",
          "midi": 42,
          "time": 135.92294100000208,
          "velocity": 0.48031496062992124,
          "duration": 0.002403843749988255
        },
        {
          "name": "C2",
          "midi": 36,
          "time": 136.15371000000206,
          "velocity": 0.9763779527559056,
          "duration": 0.002403843749988255
        },
        {
          "name": "D2",
          "midi": 38,
          "time": 136.15371000000206,
          "velocity": 0.8818897637795275,
          "duration": 0.002403843749988255
        },
        {
          "name": "A#2",
          "midi": 46,
          "time": 136.38447900000205,
          "velocity": 0.7874015748031497,
          "duration": 0.002403843749988255
        },
        {
          "name": "C2",
          "midi": 36,
          "time": 136.61524800000203,
          "velocity": 0.9763779527559056,
          "duration": 0.002403843749988255
        },
        {
          "name": "F#2",
          "midi": 42,
          "time": 136.846017000002,
          "velocity": 0.48031496062992124,
          "duration": 0.002403843749988255
        },
        {
          "name": "C2",
          "midi": 36,
          "time": 137.076786000002,
          "velocity": 0.9763779527559056,
          "duration": 0.002403843749988255
        },
        {
          "name": "D2",
          "midi": 38,
          "time": 137.076786000002,
          "velocity": 0.9763779527559056,
          "duration": 0.002403843749988255
        },
        {
          "name": "F#2",
          "midi": 42,
          "time": 137.30755500000197,
          "velocity": 0.48031496062992124,
          "duration": 0.002403843749988255
        },
        {
          "name": "C2",
          "midi": 36,
          "time": 137.53832400000195,
          "velocity": 0.9763779527559056,
          "duration": 0.002403843749988255
        },
        {
          "name": "A#2",
          "midi": 46,
          "time": 137.76909300000193,
          "velocity": 0.9133858267716536,
          "duration": 0.002403843749988255
        },
        {
          "name": "C2",
          "midi": 36,
          "time": 137.9998620000019,
          "velocity": 0.9763779527559056,
          "duration": 0.002403843749988255
        },
        {
          "name": "D2",
          "midi": 38,
          "time": 137.9998620000019,
          "velocity": 0.8818897637795275,
          "duration": 0.002403843749988255
        },
        {
          "name": "F#2",
          "midi": 42,
          "time": 138.2306310000019,
          "velocity": 0.7874015748031497,
          "duration": 0.002403843749988255
        },
        {
          "name": "C2",
          "midi": 36,
          "time": 138.46140000000187,
          "velocity": 0.9763779527559056,
          "duration": 0.002403843749988255
        },
        {
          "name": "F#2",
          "midi": 42,
          "time": 138.69216900000185,
          "velocity": 0.6535433070866141,
          "duration": 0.002403843749988255
        },
        {
          "name": "C2",
          "midi": 36,
          "time": 138.92293800000184,
          "velocity": 0.9763779527559056,
          "duration": 0.002403843749988255
        },
        {
          "name": "D2",
          "midi": 38,
          "time": 138.92293800000184,
          "velocity": 0.9763779527559056,
          "duration": 0.002403843749988255
        },
        {
          "name": "A#2",
          "midi": 46,
          "time": 139.15370700000182,
          "velocity": 0.5590551181102362,
          "duration": 0.002403843749988255
        },
        {
          "name": "C2",
          "midi": 36,
          "time": 139.3844760000018,
          "velocity": 0.8818897637795275,
          "duration": 0.002403843749988255
        },
        {
          "name": "C2",
          "midi": 36,
          "time": 139.61524500000178,
          "velocity": 0.9763779527559056,
          "duration": 0.002403843749988255
        },
        {
          "name": "D2",
          "midi": 38,
          "time": 139.84601400000176,
          "velocity": 0.9763779527559056,
          "duration": 0.002403843749988255
        },
        {
          "name": "C2",
          "midi": 36,
          "time": 140.07678300000174,
          "velocity": 0.9763779527559056,
          "duration": 0.002403843749988255
        },
        {
          "name": "C#3",
          "midi": 49,
          "time": 140.07678300000174,
          "velocity": 0.9133858267716536,
          "duration": 0.002403843749988255
        },
        {
          "name": "F#2",
          "midi": 42,
          "time": 140.53832100000173,
          "velocity": 0.7874015748031497,
          "duration": 0.002403843749988255
        },
        {
          "name": "C2",
          "midi": 36,
          "time": 140.7690900000017,
          "velocity": 0.8818897637795275,
          "duration": 0.002403843749988255
        },
        {
          "name": "D2",
          "midi": 38,
          "time": 140.7690900000017,
          "velocity": 0.9763779527559056,
          "duration": 0.002403843749988255
        },
        {
          "name": "F#2",
          "midi": 42,
          "time": 140.9998590000017,
          "velocity": 0.5590551181102362,
          "duration": 0.002403843749988255
        },
        {
          "name": "C2",
          "midi": 36,
          "time": 141.23062800000167,
          "velocity": 0.9763779527559056,
          "duration": 0.002403843749988255
        },
        {
          "name": "F#2",
          "midi": 42,
          "time": 141.46139700000165,
          "velocity": 0.5590551181102362,
          "duration": 0.002403843749988255
        },
        {
          "name": "C2",
          "midi": 36,
          "time": 141.69216600000163,
          "velocity": 1,
          "duration": 0.002403843749988255
        },
        {
          "name": "D2",
          "midi": 38,
          "time": 141.69216600000163,
          "velocity": 0.9763779527559056,
          "duration": 0.002403843749988255
        },
        {
          "name": "F#2",
          "midi": 42,
          "time": 141.92293500000162,
          "velocity": 0.6535433070866141,
          "duration": 0.002403843749988255
        },
        {
          "name": "C2",
          "midi": 36,
          "time": 142.1537040000016,
          "velocity": 0.8818897637795275,
          "duration": 0.002403843749988255
        },
        {
          "name": "F#2",
          "midi": 42,
          "time": 142.38447300000158,
          "velocity": 0.48031496062992124,
          "duration": 0.002403843749988255
        },
        {
          "name": "C2",
          "midi": 36,
          "time": 142.61524200000156,
          "velocity": 0.9763779527559056,
          "duration": 0.002403843749988255
        },
        {
          "name": "D2",
          "midi": 38,
          "time": 142.61524200000156,
          "velocity": 0.9763779527559056,
          "duration": 0.002403843749988255
        },
        {
          "name": "F#2",
          "midi": 42,
          "time": 142.84601100000154,
          "velocity": 0.7874015748031497,
          "duration": 0.002403843749988255
        },
        {
          "name": "C2",
          "midi": 36,
          "time": 143.07678000000152,
          "velocity": 0.9763779527559056,
          "duration": 0.002403843749988255
        },
        {
          "name": "F#2",
          "midi": 42,
          "time": 143.3075490000015,
          "velocity": 0.7874015748031497,
          "duration": 0.002403843749988255
        },
        {
          "name": "C2",
          "midi": 36,
          "time": 143.53831800000148,
          "velocity": 0.9763779527559056,
          "duration": 0.002403843749988255
        },
        {
          "name": "D2",
          "midi": 38,
          "time": 143.53831800000148,
          "velocity": 0.8818897637795275,
          "duration": 0.002403843749988255
        },
        {
          "name": "A#2",
          "midi": 46,
          "time": 143.76908700000146,
          "velocity": 0.7874015748031497,
          "duration": 0.002403843749988255
        },
        {
          "name": "C2",
          "midi": 36,
          "time": 143.99985600000144,
          "velocity": 0.9763779527559056,
          "duration": 0.002403843749988255
        },
        {
          "name": "F#2",
          "midi": 42,
          "time": 144.23062500000142,
          "velocity": 0.7874015748031497,
          "duration": 0.002403843749988255
        },
        {
          "name": "C2",
          "midi": 36,
          "time": 144.4613940000014,
          "velocity": 0.9763779527559056,
          "duration": 0.002403843749988255
        },
        {
          "name": "D2",
          "midi": 38,
          "time": 144.4613940000014,
          "velocity": 0.9763779527559056,
          "duration": 0.002403843749988255
        },
        {
          "name": "F#2",
          "midi": 42,
          "time": 144.6921630000014,
          "velocity": 0.7874015748031497,
          "duration": 0.002403843749988255
        },
        {
          "name": "C2",
          "midi": 36,
          "time": 144.92293200000137,
          "velocity": 0.9763779527559056,
          "duration": 0.002403843749988255
        },
        {
          "name": "F#2",
          "midi": 42,
          "time": 145.15370100000135,
          "velocity": 0.6535433070866141,
          "duration": 0.002403843749988255
        },
        {
          "name": "C2",
          "midi": 36,
          "time": 145.38447000000133,
          "velocity": 0.9763779527559056,
          "duration": 0.002403843749988255
        },
        {
          "name": "D2",
          "midi": 38,
          "time": 145.38447000000133,
          "velocity": 0.9763779527559056,
          "duration": 0.002403843749988255
        },
        {
          "name": "A#2",
          "midi": 46,
          "time": 145.6152390000013,
          "velocity": 0.7874015748031497,
          "duration": 0.002403843749988255
        },
        {
          "name": "C2",
          "midi": 36,
          "time": 145.8460080000013,
          "velocity": 0.9763779527559056,
          "duration": 0.002403843749988255
        },
        {
          "name": "F#2",
          "midi": 42,
          "time": 146.07677700000127,
          "velocity": 0.7874015748031497,
          "duration": 0.002403843749988255
        },
        {
          "name": "C2",
          "midi": 36,
          "time": 146.30754600000125,
          "velocity": 0.9763779527559056,
          "duration": 0.002403843749988255
        },
        {
          "name": "D2",
          "midi": 38,
          "time": 146.30754600000125,
          "velocity": 0.8818897637795275,
          "duration": 0.002403843749988255
        },
        {
          "name": "F#2",
          "midi": 42,
          "time": 146.53831500000123,
          "velocity": 0.6535433070866141,
          "duration": 0.002403843749988255
        },
        {
          "name": "C2",
          "midi": 36,
          "time": 146.76908400000121,
          "velocity": 0.9763779527559056,
          "duration": 0.002403843749988255
        },
        {
          "name": "F#2",
          "midi": 42,
          "time": 146.9998530000012,
          "velocity": 0.7874015748031497,
          "duration": 0.002403843749988255
        },
        {
          "name": "C2",
          "midi": 36,
          "time": 147.23062200000118,
          "velocity": 0.9763779527559056,
          "duration": 0.002403843749988255
        },
        {
          "name": "D2",
          "midi": 38,
          "time": 147.23062200000118,
          "velocity": 0.9763779527559056,
          "duration": 0.002403843749988255
        },
        {
          "name": "C2",
          "midi": 36,
          "time": 147.46139100000116,
          "velocity": 0.8818897637795275,
          "duration": 0.002403843749988255
        },
        {
          "name": "A#2",
          "midi": 46,
          "time": 147.46139100000116,
          "velocity": 0.7874015748031497,
          "duration": 0.002403843749988255
        },
        {
          "name": "C2",
          "midi": 36,
          "time": 147.69216000000114,
          "velocity": 0.9763779527559056,
          "duration": 0.002403843749988255
        },
        {
          "name": "F#2",
          "midi": 42,
          "time": 147.92292900000112,
          "velocity": 0.5590551181102362,
          "duration": 0.002403843749988255
        },
        {
          "name": "C2",
          "midi": 36,
          "time": 148.1536980000011,
          "velocity": 0.9763779527559056,
          "duration": 0.002403843749988255
        },
        {
          "name": "D2",
          "midi": 38,
          "time": 148.1536980000011,
          "velocity": 0.8818897637795275,
          "duration": 0.002403843749988255
        },
        {
          "name": "F#2",
          "midi": 42,
          "time": 148.38446700000108,
          "velocity": 0.5590551181102362,
          "duration": 0.002403843749988255
        },
        {
          "name": "C2",
          "midi": 36,
          "time": 148.61523600000106,
          "velocity": 0.9763779527559056,
          "duration": 0.002403843749988255
        },
        {
          "name": "F#2",
          "midi": 42,
          "time": 148.84600500000104,
          "velocity": 0.6535433070866141,
          "duration": 0.002403843749988255
        },
        {
          "name": "C2",
          "midi": 36,
          "time": 149.07677400000102,
          "velocity": 0.9763779527559056,
          "duration": 0.002403843749988255
        },
        {
          "name": "D2",
          "midi": 38,
          "time": 149.07677400000102,
          "velocity": 0.9763779527559056,
          "duration": 0.002403843749988255
        },
        {
          "name": "A#2",
          "midi": 46,
          "time": 149.307543000001,
          "velocity": 0.7874015748031497,
          "duration": 0.002403843749988255
        },
        {
          "name": "C2",
          "midi": 36,
          "time": 149.53831200000099,
          "velocity": 0.9763779527559056,
          "duration": 0.002403843749988255
        },
        {
          "name": "F#2",
          "midi": 42,
          "time": 149.76908100000097,
          "velocity": 0.2440944881889764,
          "duration": 0.002403843749988255
        },
        {
          "name": "C2",
          "midi": 36,
          "time": 149.99985000000095,
          "velocity": 0.9763779527559056,
          "duration": 0.002403843749988255
        },
        {
          "name": "D2",
          "midi": 38,
          "time": 149.99985000000095,
          "velocity": 0.9763779527559056,
          "duration": 0.002403843749988255
        },
        {
          "name": "F#2",
          "midi": 42,
          "time": 150.23061900000093,
          "velocity": 0.48031496062992124,
          "duration": 0.002403843749988255
        },
        {
          "name": "C2",
          "midi": 36,
          "time": 150.4613880000009,
          "velocity": 0.8818897637795275,
          "duration": 0.002403843749988255
        },
        {
          "name": "F#2",
          "midi": 42,
          "time": 150.6921570000009,
          "velocity": 0.6535433070866141,
          "duration": 0.002403843749988255
        },
        {
          "name": "C2",
          "midi": 36,
          "time": 150.92292600000087,
          "velocity": 0.9763779527559056,
          "duration": 0.002403843749988255
        },
        {
          "name": "D2",
          "midi": 38,
          "time": 150.92292600000087,
          "velocity": 0.7480314960629921,
          "duration": 0.002403843749988255
        },
        {
          "name": "C2",
          "midi": 36,
          "time": 151.15369500000085,
          "velocity": 0.8818897637795275,
          "duration": 0.002403843749988255
        },
        {
          "name": "A#2",
          "midi": 46,
          "time": 151.15369500000085,
          "velocity": 0.7874015748031497,
          "duration": 0.002403843749988255
        },
        {
          "name": "C2",
          "midi": 36,
          "time": 151.38446400000083,
          "velocity": 0.9763779527559056,
          "duration": 0.18990365625001004
        },
        {
          "name": "F#2",
          "midi": 42,
          "time": 151.38446400000083,
          "velocity": 0.9133858267716536,
          "duration": 0.12259603124999785
        },
        {
          "name": "F#2",
          "midi": 42,
          "time": 151.61523300000084,
          "velocity": 0.48031496062992124,
          "duration": 0.09855759375000162
        },
        {
          "name": "C2",
          "midi": 36,
          "time": 151.84600200000085,
          "velocity": 0.9763779527559056,
          "duration": 0.15624984374997553
        },
        {
          "name": "F#2",
          "midi": 42,
          "time": 151.84600200000085,
          "velocity": 0.9133858267716536,
          "duration": 0.11298065624998799
        },
        {
          "name": "F#2",
          "midi": 42,
          "time": 152.07677100000083,
          "velocity": 0.48031496062992124,
          "duration": 0.0528845624999974
        },
        {
          "name": "C2",
          "midi": 36,
          "time": 152.30754000000084,
          "velocity": 0.8818897637795275,
          "duration": 0.18028828125000018
        },
        {
          "name": "F#2",
          "midi": 42,
          "time": 152.30754000000084,
          "velocity": 0.7874015748031497,
          "duration": 0.10336528125000655
        },
        {
          "name": "F#2",
          "midi": 42,
          "time": 152.53830900000085,
          "velocity": 0.7874015748031497,
          "duration": 0.09374990624999668
        },
        {
          "name": "C2",
          "midi": 36,
          "time": 152.76907800000086,
          "velocity": 0.9763779527559056,
          "duration": 0.13942293749997248
        },
        {
          "name": "F#2",
          "midi": 42,
          "time": 152.76907800000086,
          "velocity": 0.7874015748031497,
          "duration": 0.1249998749999861
        },
        {
          "name": "F#2",
          "midi": 42,
          "time": 152.99984700000084,
          "velocity": 0.48031496062992124,
          "duration": 0.08413453124998682
        },
        {
          "name": "C2",
          "midi": 36,
          "time": 153.23061600000082,
          "velocity": 1,
          "duration": 0.002403843749988255
        },
        {
          "name": "C#3",
          "midi": 49,
          "time": 153.23061600000082,
          "velocity": 0.9133858267716536,
          "duration": 0.002403843749988255
        },
        {
          "name": "F#2",
          "midi": 42,
          "time": 153.4613850000008,
          "velocity": 0.7874015748031497,
          "duration": 0.002403843749988255
        },
        {
          "name": "C2",
          "midi": 36,
          "time": 153.69215400000078,
          "velocity": 0.9763779527559056,
          "duration": 0.002403843749988255
        },
        {
          "name": "F#2",
          "midi": 42,
          "time": 153.69215400000078,
          "velocity": 0.6535433070866141,
          "duration": 0.002403843749988255
        },
        {
          "name": "F#2",
          "midi": 42,
          "time": 153.92292300000076,
          "velocity": 0.48031496062992124,
          "duration": 0.002403843749988255
        },
        {
          "name": "C2",
          "midi": 36,
          "time": 154.15369200000075,
          "velocity": 0.9763779527559056,
          "duration": 0.002403843749988255
        },
        {
          "name": "F#2",
          "midi": 42,
          "time": 154.15369200000075,
          "velocity": 0.6535433070866141,
          "duration": 0.002403843749988255
        },
        {
          "name": "F#2",
          "midi": 42,
          "time": 154.38446100000073,
          "velocity": 0.7874015748031497,
          "duration": 0.002403843749988255
        },
        {
          "name": "C2",
          "midi": 36,
          "time": 154.6152300000007,
          "velocity": 0.9763779527559056,
          "duration": 0.002403843749988255
        },
        {
          "name": "F#2",
          "midi": 42,
          "time": 154.6152300000007,
          "velocity": 0.9133858267716536,
          "duration": 0.002403843749988255
        },
        {
          "name": "D2",
          "midi": 38,
          "time": 154.8459990000007,
          "velocity": 0.8818897637795275,
          "duration": 0.002403843749988255
        },
        {
          "name": "C#3",
          "midi": 49,
          "time": 154.8459990000007,
          "velocity": 0.9133858267716536,
          "duration": 0.002403843749988255
        },
        {
          "name": "C2",
          "midi": 36,
          "time": 155.07676800000067,
          "velocity": 0.9763779527559056,
          "duration": 0.002403843749988255
        },
        {
          "name": "F#2",
          "midi": 42,
          "time": 155.30753700000065,
          "velocity": 0.7874015748031497,
          "duration": 0.002403843749988255
        },
        {
          "name": "C2",
          "midi": 36,
          "time": 155.53830600000063,
          "velocity": 0.8818897637795275,
          "duration": 0.002403843749988255
        },
        {
          "name": "F#2",
          "midi": 42,
          "time": 155.53830600000063,
          "velocity": 0.5590551181102362,
          "duration": 0.002403843749988255
        },
        {
          "name": "C2",
          "midi": 36,
          "time": 155.99984400000062,
          "velocity": 0.8818897637795275,
          "duration": 0.002403843749988255
        },
        {
          "name": "F#2",
          "midi": 42,
          "time": 155.99984400000062,
          "velocity": 0.6535433070866141,
          "duration": 0.002403843749988255
        },
        {
          "name": "F#2",
          "midi": 42,
          "time": 156.2306130000006,
          "velocity": 0.7874015748031497,
          "duration": 0.002403843749988255
        },
        {
          "name": "C2",
          "midi": 36,
          "time": 156.46138200000058,
          "velocity": 0.9763779527559056,
          "duration": 0.002403843749988255
        },
        {
          "name": "D2",
          "midi": 38,
          "time": 156.46138200000058,
          "velocity": 0.8818897637795275,
          "duration": 0.002403843749988255
        },
        {
          "name": "D2",
          "midi": 38,
          "time": 156.69215100000056,
          "velocity": 0.8818897637795275,
          "duration": 0.002403843749988255
        },
        {
          "name": "C#3",
          "midi": 49,
          "time": 156.69215100000056,
          "velocity": 0.9133858267716536,
          "duration": 0.002403843749988255
        },
        {
          "name": "C2",
          "midi": 36,
          "time": 156.92292000000054,
          "velocity": 0.8818897637795275,
          "duration": 0.002403843749988255
        },
        {
          "name": "F#2",
          "midi": 42,
          "time": 157.15368900000053,
          "velocity": 0.6535433070866141,
          "duration": 0.002403843749988255
        },
        {
          "name": "C2",
          "midi": 36,
          "time": 157.3844580000005,
          "velocity": 0.9763779527559056,
          "duration": 0.002403843749988255
        },
        {
          "name": "D2",
          "midi": 38,
          "time": 157.3844580000005,
          "velocity": 0.9763779527559056,
          "duration": 0.002403843749988255
        },
        {
          "name": "F#2",
          "midi": 42,
          "time": 157.6152270000005,
          "velocity": 0.4251968503937008,
          "duration": 0.002403843749988255
        },
        {
          "name": "C2",
          "midi": 36,
          "time": 157.84599600000047,
          "velocity": 0.8818897637795275,
          "duration": 0.002403843749988255
        },
        {
          "name": "F#2",
          "midi": 42,
          "time": 158.07676500000045,
          "velocity": 0.7874015748031497,
          "duration": 0.002403843749988255
        },
        {
          "name": "C2",
          "midi": 36,
          "time": 158.30753400000043,
          "velocity": 0.8818897637795275,
          "duration": 0.002403843749988255
        },
        {
          "name": "D2",
          "midi": 38,
          "time": 158.30753400000043,
          "velocity": 0.9763779527559056,
          "duration": 0.002403843749988255
        },
        {
          "name": "A#2",
          "midi": 46,
          "time": 158.5383030000004,
          "velocity": 0.7874015748031497,
          "duration": 0.002403843749988255
        },
        {
          "name": "C2",
          "midi": 36,
          "time": 158.7690720000004,
          "velocity": 0.9763779527559056,
          "duration": 0.002403843749988255
        },
        {
          "name": "F#2",
          "midi": 42,
          "time": 158.99984100000037,
          "velocity": 0.7874015748031497,
          "duration": 0.002403843749988255
        },
        {
          "name": "C2",
          "midi": 36,
          "time": 159.23061000000035,
          "velocity": 0.9763779527559056,
          "duration": 0.002403843749988255
        },
        {
          "name": "D2",
          "midi": 38,
          "time": 159.23061000000035,
          "velocity": 0.8818897637795275,
          "duration": 0.002403843749988255
        },
        {
          "name": "F#2",
          "midi": 42,
          "time": 159.46137900000033,
          "velocity": 0.7874015748031497,
          "duration": 0.002403843749988255
        },
        {
          "name": "C2",
          "midi": 36,
          "time": 159.69214800000032,
          "velocity": 0.9763779527559056,
          "duration": 0.002403843749988255
        },
        {
          "name": "F#2",
          "midi": 42,
          "time": 159.9229170000003,
          "velocity": 0.7874015748031497,
          "duration": 0.002403843749988255
        },
        {
          "name": "C2",
          "midi": 36,
          "time": 160.15368600000028,
          "velocity": 0.9763779527559056,
          "duration": 0.002403843749988255
        },
        {
          "name": "D2",
          "midi": 38,
          "time": 160.15368600000028,
          "velocity": 0.8818897637795275,
          "duration": 0.002403843749988255
        },
        {
          "name": "A#2",
          "midi": 46,
          "time": 160.38445500000026,
          "velocity": 0.9133858267716536,
          "duration": 0.002403843749988255
        },
        {
          "name": "C2",
          "midi": 36,
          "time": 160.61522400000024,
          "velocity": 0.9763779527559056,
          "duration": 0.002403843749988255
        },
        {
          "name": "F#2",
          "midi": 42,
          "time": 160.84599300000022,
          "velocity": 0.7874015748031497,
          "duration": 0.002403843749988255
        },
        {
          "name": "C2",
          "midi": 36,
          "time": 161.0767620000002,
          "velocity": 0.8818897637795275,
          "duration": 0.002403843749988255
        },
        {
          "name": "D2",
          "midi": 38,
          "time": 161.0767620000002,
          "velocity": 0.8818897637795275,
          "duration": 0.002403843749988255
        },
        {
          "name": "F#2",
          "midi": 42,
          "time": 161.30753100000018,
          "velocity": 0.6535433070866141,
          "duration": 0.002403843749988255
        },
        {
          "name": "C2",
          "midi": 36,
          "time": 161.53830000000016,
          "velocity": 0.9763779527559056,
          "duration": 0.002403843749988255
        },
        {
          "name": "F#2",
          "midi": 42,
          "time": 161.76906900000014,
          "velocity": 0.5590551181102362,
          "duration": 0.002403843749988255
        },
        {
          "name": "C2",
          "midi": 36,
          "time": 161.99983800000012,
          "velocity": 0.9763779527559056,
          "duration": 0.002403843749988255
        },
        {
          "name": "D2",
          "midi": 38,
          "time": 161.99983800000012,
          "velocity": 0.8818897637795275,
          "duration": 0.002403843749988255
        },
        {
          "name": "A#2",
          "midi": 46,
          "time": 162.2306070000001,
          "velocity": 0.9133858267716536,
          "duration": 0.002403843749988255
        },
        {
          "name": "C2",
          "midi": 36,
          "time": 162.4613760000001,
          "velocity": 0.8818897637795275,
          "duration": 0.002403843749988255
        },
        {
          "name": "F#2",
          "midi": 42,
          "time": 162.69214500000007,
          "velocity": 0.5590551181102362,
          "duration": 0.002403843749988255
        },
        {
          "name": "C2",
          "midi": 36,
          "time": 162.92291400000005,
          "velocity": 0.9763779527559056,
          "duration": 0.002403843749988255
        },
        {
          "name": "D2",
          "midi": 38,
          "time": 162.92291400000005,
          "velocity": 0.7480314960629921,
          "duration": 0.002403843749988255
        },
        {
          "name": "F#2",
          "midi": 42,
          "time": 163.15368300000003,
          "velocity": 0.3779527559055118,
          "duration": 0.002403843749988255
        },
        {
          "name": "C2",
          "midi": 36,
          "time": 163.384452,
          "velocity": 0.9763779527559056,
          "duration": 0.002403843749988255
        },
        {
          "name": "F#2",
          "midi": 42,
          "time": 163.615221,
          "velocity": 0.9133858267716536,
          "duration": 0.002403843749988255
        },
        {
          "name": "C2",
          "midi": 36,
          "time": 163.84598999999997,
          "velocity": 1,
          "duration": 0.002403843749988255
        },
        {
          "name": "D2",
          "midi": 38,
          "time": 163.84598999999997,
          "velocity": 0.9763779527559056,
          "duration": 0.002403843749988255
        },
        {
          "name": "A#2",
          "midi": 46,
          "time": 164.07675899999995,
          "velocity": 0.7874015748031497,
          "duration": 0.002403843749988255
        },
        {
          "name": "C2",
          "midi": 36,
          "time": 164.30752799999993,
          "velocity": 0.9763779527559056,
          "duration": 0.002403843749988255
        },
        {
          "name": "F#2",
          "midi": 42,
          "time": 164.53829699999991,
          "velocity": 0.6535433070866141,
          "duration": 0.002403843749988255
        },
        {
          "name": "C2",
          "midi": 36,
          "time": 164.7690659999999,
          "velocity": 0.9763779527559056,
          "duration": 0.002403843749988255
        },
        {
          "name": "D2",
          "midi": 38,
          "time": 164.7690659999999,
          "velocity": 0.9763779527559056,
          "duration": 0.002403843749988255
        },
        {
          "name": "F#2",
          "midi": 42,
          "time": 164.99983499999988,
          "velocity": 0.5590551181102362,
          "duration": 0.002403843749988255
        },
        {
          "name": "C2",
          "midi": 36,
          "time": 165.23060399999986,
          "velocity": 0.9763779527559056,
          "duration": 0.002403843749988255
        },
        {
          "name": "F#2",
          "midi": 42,
          "time": 165.46137299999984,
          "velocity": 0.7874015748031497,
          "duration": 0.002403843749988255
        },
        {
          "name": "C2",
          "midi": 36,
          "time": 165.69214199999982,
          "velocity": 0.9763779527559056,
          "duration": 0.002403843749988255
        },
        {
          "name": "D2",
          "midi": 38,
          "time": 165.69214199999982,
          "velocity": 0.8818897637795275,
          "duration": 0.002403843749988255
        },
        {
          "name": "A#2",
          "midi": 46,
          "time": 165.9229109999998,
          "velocity": 0.9133858267716536,
          "duration": 0.002403843749988255
        },
        {
          "name": "C2",
          "midi": 36,
          "time": 166.15367999999978,
          "velocity": 0.8818897637795275,
          "duration": 0.002403843749988255
        },
        {
          "name": "F#2",
          "midi": 42,
          "time": 166.38444899999976,
          "velocity": 0.7874015748031497,
          "duration": 0.002403843749988255
        },
        {
          "name": "C2",
          "midi": 36,
          "time": 166.61521799999974,
          "velocity": 0.9763779527559056,
          "duration": 0.002403843749988255
        },
        {
          "name": "D2",
          "midi": 38,
          "time": 166.61521799999974,
          "velocity": 0.9763779527559056,
          "duration": 0.002403843749988255
        },
        {
          "name": "F#2",
          "midi": 42,
          "time": 166.84598699999972,
          "velocity": 0.48031496062992124,
          "duration": 0.002403843749988255
        },
        {
          "name": "C2",
          "midi": 36,
          "time": 167.0767559999997,
          "velocity": 0.9763779527559056,
          "duration": 0.002403843749988255
        },
        {
          "name": "F#2",
          "midi": 42,
          "time": 167.30752499999969,
          "velocity": 0.5590551181102362,
          "duration": 0.002403843749988255
        },
        {
          "name": "C2",
          "midi": 36,
          "time": 167.53829399999967,
          "velocity": 0.9763779527559056,
          "duration": 0.002403843749988255
        },
        {
          "name": "D2",
          "midi": 38,
          "time": 167.53829399999967,
          "velocity": 0.8818897637795275,
          "duration": 0.002403843749988255
        },
        {
          "name": "A#2",
          "midi": 46,
          "time": 167.76906299999965,
          "velocity": 0.7874015748031497,
          "duration": 0.002403843749988255
        },
        {
          "name": "C2",
          "midi": 36,
          "time": 167.99983199999963,
          "velocity": 0.8818897637795275,
          "duration": 0.002403843749988255
        },
        {
          "name": "F#2",
          "midi": 42,
          "time": 168.2306009999996,
          "velocity": 0.4251968503937008,
          "duration": 0.002403843749988255
        },
        {
          "name": "C2",
          "midi": 36,
          "time": 168.4613699999996,
          "velocity": 0.9763779527559056,
          "duration": 0.002403843749988255
        },
        {
          "name": "D2",
          "midi": 38,
          "time": 168.4613699999996,
          "velocity": 0.8818897637795275,
          "duration": 0.002403843749988255
        },
        {
          "name": "F#2",
          "midi": 42,
          "time": 168.69213899999957,
          "velocity": 0.5590551181102362,
          "duration": 0.002403843749988255
        },
        {
          "name": "C2",
          "midi": 36,
          "time": 168.92290799999955,
          "velocity": 0.9763779527559056,
          "duration": 0.002403843749988255
        },
        {
          "name": "F#2",
          "midi": 42,
          "time": 169.15367699999953,
          "velocity": 0.4251968503937008,
          "duration": 0.002403843749988255
        },
        {
          "name": "C2",
          "midi": 36,
          "time": 169.3844459999995,
          "velocity": 0.9763779527559056,
          "duration": 0.002403843749988255
        },
        {
          "name": "D2",
          "midi": 38,
          "time": 169.3844459999995,
          "velocity": 0.9763779527559056,
          "duration": 0.002403843749988255
        },
        {
          "name": "A#2",
          "midi": 46,
          "time": 169.6152149999995,
          "velocity": 0.9133858267716536,
          "duration": 0.002403843749988255
        },
        {
          "name": "C2",
          "midi": 36,
          "time": 169.84598399999948,
          "velocity": 0.9763779527559056,
          "duration": 0.002403843749988255
        },
        {
          "name": "F#2",
          "midi": 42,
          "time": 170.07675299999946,
          "velocity": 0.3779527559055118,
          "duration": 0.002403843749988255
        },
        {
          "name": "C2",
          "midi": 36,
          "time": 170.30752199999944,
          "velocity": 0.9763779527559056,
          "duration": 0.002403843749988255
        },
        {
          "name": "D2",
          "midi": 38,
          "time": 170.30752199999944,
          "velocity": 0.7480314960629921,
          "duration": 0.002403843749988255
        },
        {
          "name": "F#2",
          "midi": 42,
          "time": 170.53829099999942,
          "velocity": 0.5590551181102362,
          "duration": 0.002403843749988255
        },
        {
          "name": "C2",
          "midi": 36,
          "time": 170.7690599999994,
          "velocity": 0.9763779527559056,
          "duration": 0.002403843749988255
        },
        {
          "name": "F#2",
          "midi": 42,
          "time": 170.99982899999938,
          "velocity": 0.7874015748031497,
          "duration": 0.002403843749988255
        },
        {
          "name": "C2",
          "midi": 36,
          "time": 171.23059799999936,
          "velocity": 0.9763779527559056,
          "duration": 0.002403843749988255
        },
        {
          "name": "D2",
          "midi": 38,
          "time": 171.23059799999936,
          "velocity": 0.9763779527559056,
          "duration": 0.002403843749988255
        },
        {
          "name": "A#2",
          "midi": 46,
          "time": 171.46136699999934,
          "velocity": 0.9133858267716536,
          "duration": 0.002403843749988255
        },
        {
          "name": "C2",
          "midi": 36,
          "time": 171.69213599999932,
          "velocity": 0.9763779527559056,
          "duration": 0.002403843749988255
        },
        {
          "name": "F#2",
          "midi": 42,
          "time": 171.9229049999993,
          "velocity": 0.5590551181102362,
          "duration": 0.002403843749988255
        },
        {
          "name": "C2",
          "midi": 36,
          "time": 172.15367399999928,
          "velocity": 0.9763779527559056,
          "duration": 0.002403843749988255
        },
        {
          "name": "D2",
          "midi": 38,
          "time": 172.15367399999928,
          "velocity": 0.9763779527559056,
          "duration": 0.002403843749988255
        },
        {
          "name": "F#2",
          "midi": 42,
          "time": 172.38444299999927,
          "velocity": 0.6535433070866141,
          "duration": 0.002403843749988255
        },
        {
          "name": "C2",
          "midi": 36,
          "time": 172.61521199999925,
          "velocity": 0.9763779527559056,
          "duration": 0.002403843749988255
        },
        {
          "name": "F#2",
          "midi": 42,
          "time": 172.84598099999923,
          "velocity": 0.48031496062992124,
          "duration": 0.002403843749988255
        },
        {
          "name": "C2",
          "midi": 36,
          "time": 173.0767499999992,
          "velocity": 0.9763779527559056,
          "duration": 0.002403843749988255
        },
        {
          "name": "D2",
          "midi": 38,
          "time": 173.0767499999992,
          "velocity": 0.8818897637795275,
          "duration": 0.002403843749988255
        },
        {
          "name": "A#2",
          "midi": 46,
          "time": 173.3075189999992,
          "velocity": 0.7874015748031497,
          "duration": 0.002403843749988255
        },
        {
          "name": "C2",
          "midi": 36,
          "time": 173.53828799999917,
          "velocity": 0.9763779527559056,
          "duration": 0.002403843749988255
        },
        {
          "name": "F#2",
          "midi": 42,
          "time": 173.76905699999915,
          "velocity": 0.48031496062992124,
          "duration": 0.002403843749988255
        },
        {
          "name": "C2",
          "midi": 36,
          "time": 173.99982599999913,
          "velocity": 0.9763779527559056,
          "duration": 0.002403843749988255
        },
        {
          "name": "D2",
          "midi": 38,
          "time": 173.99982599999913,
          "velocity": 0.8818897637795275,
          "duration": 0.002403843749988255
        },
        {
          "name": "F#2",
          "midi": 42,
          "time": 174.2305949999991,
          "velocity": 0.5590551181102362,
          "duration": 0.002403843749988255
        },
        {
          "name": "C2",
          "midi": 36,
          "time": 174.4613639999991,
          "velocity": 1,
          "duration": 0.002403843749988255
        },
        {
          "name": "F#2",
          "midi": 42,
          "time": 174.69213299999907,
          "velocity": 0.7874015748031497,
          "duration": 0.002403843749988255
        },
        {
          "name": "C2",
          "midi": 36,
          "time": 174.92290199999906,
          "velocity": 0.8818897637795275,
          "duration": 0.002403843749988255
        },
        {
          "name": "D2",
          "midi": 38,
          "time": 174.92290199999906,
          "velocity": 0.8818897637795275,
          "duration": 0.002403843749988255
        },
        {
          "name": "A#2",
          "midi": 46,
          "time": 175.15367099999904,
          "velocity": 0.7874015748031497,
          "duration": 0.002403843749988255
        },
        {
          "name": "C2",
          "midi": 36,
          "time": 175.38443999999902,
          "velocity": 0.9763779527559056,
          "duration": 0.002403843749988255
        },
        {
          "name": "F#2",
          "midi": 42,
          "time": 175.615208999999,
          "velocity": 0.48031496062992124,
          "duration": 0.002403843749988255
        },
        {
          "name": "C2",
          "midi": 36,
          "time": 175.84597799999898,
          "velocity": 0.9763779527559056,
          "duration": 0.002403843749988255
        },
        {
          "name": "D2",
          "midi": 38,
          "time": 175.84597799999898,
          "velocity": 0.9763779527559056,
          "duration": 0.002403843749988255
        },
        {
          "name": "F#2",
          "midi": 42,
          "time": 176.07674699999896,
          "velocity": 0.7874015748031497,
          "duration": 0.002403843749988255
        },
        {
          "name": "C2",
          "midi": 36,
          "time": 176.30751599999894,
          "velocity": 0.9763779527559056,
          "duration": 0.002403843749988255
        },
        {
          "name": "F#2",
          "midi": 42,
          "time": 176.53828499999892,
          "velocity": 0.7874015748031497,
          "duration": 0.002403843749988255
        },
        {
          "name": "C2",
          "midi": 36,
          "time": 176.7690539999989,
          "velocity": 0.9763779527559056,
          "duration": 0.002403843749988255
        },
        {
          "name": "D2",
          "midi": 38,
          "time": 176.7690539999989,
          "velocity": 0.9763779527559056,
          "duration": 0.002403843749988255
        },
        {
          "name": "A#2",
          "midi": 46,
          "time": 176.99982299999888,
          "velocity": 0.7874015748031497,
          "duration": 0.002403843749988255
        },
        {
          "name": "C2",
          "midi": 36,
          "time": 177.23059199999886,
          "velocity": 0.8818897637795275,
          "duration": 0.002403843749988255
        },
        {
          "name": "F#2",
          "midi": 42,
          "time": 177.46136099999885,
          "velocity": 0.6535433070866141,
          "duration": 0.002403843749988255
        },
        {
          "name": "C2",
          "midi": 36,
          "time": 177.69212999999883,
          "velocity": 0.9763779527559056,
          "duration": 0.002403843749988255
        },
        {
          "name": "D2",
          "midi": 38,
          "time": 177.69212999999883,
          "velocity": 0.8818897637795275,
          "duration": 0.002403843749988255
        },
        {
          "name": "F#2",
          "midi": 42,
          "time": 177.9228989999988,
          "velocity": 0.31496062992125984,
          "duration": 0.002403843749988255
        },
        {
          "name": "C2",
          "midi": 36,
          "time": 178.1536679999988,
          "velocity": 0.9763779527559056,
          "duration": 0.002403843749988255
        },
        {
          "name": "F#2",
          "midi": 42,
          "time": 178.38443699999877,
          "velocity": 0.7874015748031497,
          "duration": 0.002403843749988255
        },
        {
          "name": "C2",
          "midi": 36,
          "time": 178.61520599999875,
          "velocity": 0.9763779527559056,
          "duration": 0.002403843749988255
        },
        {
          "name": "D2",
          "midi": 38,
          "time": 178.61520599999875,
          "velocity": 0.8818897637795275,
          "duration": 0.002403843749988255
        },
        {
          "name": "A#2",
          "midi": 46,
          "time": 178.84597499999873,
          "velocity": 0.9133858267716536,
          "duration": 0.002403843749988255
        },
        {
          "name": "C2",
          "midi": 36,
          "time": 179.0767439999987,
          "velocity": 0.9763779527559056,
          "duration": 0.002403843749988255
        },
        {
          "name": "F#2",
          "midi": 42,
          "time": 179.3075129999987,
          "velocity": 0.48031496062992124,
          "duration": 0.002403843749988255
        },
        {
          "name": "C2",
          "midi": 36,
          "time": 179.53828199999867,
          "velocity": 0.9763779527559056,
          "duration": 0.002403843749988255
        },
        {
          "name": "D2",
          "midi": 38,
          "time": 179.53828199999867,
          "velocity": 0.9763779527559056,
          "duration": 0.002403843749988255
        },
        {
          "name": "F#2",
          "midi": 42,
          "time": 179.76905099999865,
          "velocity": 0.7874015748031497,
          "duration": 0.002403843749988255
        },
        {
          "name": "C2",
          "midi": 36,
          "time": 179.99981999999864,
          "velocity": 0.9763779527559056,
          "duration": 0.002403843749988255
        },
        {
          "name": "F#2",
          "midi": 42,
          "time": 180.23058899999862,
          "velocity": 0.7874015748031497,
          "duration": 0.002403843749988255
        },
        {
          "name": "C2",
          "midi": 36,
          "time": 180.4613579999986,
          "velocity": 0.9763779527559056,
          "duration": 0.002403843749988255
        },
        {
          "name": "D2",
          "midi": 38,
          "time": 180.4613579999986,
          "velocity": 0.9763779527559056,
          "duration": 0.002403843749988255
        },
        {
          "name": "A#2",
          "midi": 46,
          "time": 180.69212699999858,
          "velocity": 0.7874015748031497,
          "duration": 0.002403843749988255
        },
        {
          "name": "C2",
          "midi": 36,
          "time": 180.92289599999856,
          "velocity": 0.8818897637795275,
          "duration": 0.002403843749988255
        },
        {
          "name": "F#2",
          "midi": 42,
          "time": 181.15366499999854,
          "velocity": 0.6535433070866141,
          "duration": 0.002403843749988255
        },
        {
          "name": "C2",
          "midi": 36,
          "time": 181.38443399999852,
          "velocity": 0.9763779527559056,
          "duration": 0.002403843749988255
        },
        {
          "name": "D2",
          "midi": 38,
          "time": 181.38443399999852,
          "velocity": 0.8818897637795275,
          "duration": 0.002403843749988255
        },
        {
          "name": "F#2",
          "midi": 42,
          "time": 181.6152029999985,
          "velocity": 0.31496062992125984,
          "duration": 0.002403843749988255
        },
        {
          "name": "C2",
          "midi": 36,
          "time": 181.84597199999848,
          "velocity": 0.9763779527559056,
          "duration": 0.002403843749988255
        },
        {
          "name": "F#2",
          "midi": 42,
          "time": 182.07674099999846,
          "velocity": 0.7874015748031497,
          "duration": 0.002403843749988255
        },
        {
          "name": "C2",
          "midi": 36,
          "time": 182.30750999999844,
          "velocity": 0.9763779527559056,
          "duration": 0.002403843749988255
        },
        {
          "name": "D2",
          "midi": 38,
          "time": 182.30750999999844,
          "velocity": 0.8818897637795275,
          "duration": 0.002403843749988255
        },
        {
          "name": "A#2",
          "midi": 46,
          "time": 182.53827899999843,
          "velocity": 0.9133858267716536,
          "duration": 0.002403843749988255
        },
        {
          "name": "C2",
          "midi": 36,
          "time": 182.7690479999984,
          "velocity": 0.9763779527559056,
          "duration": 0.002403843749988255
        },
        {
          "name": "F#2",
          "midi": 42,
          "time": 182.9998169999984,
          "velocity": 0.5590551181102362,
          "duration": 0.002403843749988255
        },
        {
          "name": "C2",
          "midi": 36,
          "time": 183.23058599999837,
          "velocity": 0.9763779527559056,
          "duration": 0.002403843749988255
        },
        {
          "name": "D2",
          "midi": 38,
          "time": 183.23058599999837,
          "velocity": 0.8818897637795275,
          "duration": 0.002403843749988255
        },
        {
          "name": "F#2",
          "midi": 42,
          "time": 183.46135499999835,
          "velocity": 0.6535433070866141,
          "duration": 0.002403843749988255
        },
        {
          "name": "C2",
          "midi": 36,
          "time": 183.69212399999833,
          "velocity": 0.8818897637795275,
          "duration": 0.002403843749988255
        },
        {
          "name": "F#2",
          "midi": 42,
          "time": 183.9228929999983,
          "velocity": 0.7874015748031497,
          "duration": 0.002403843749988255
        },
        {
          "name": "C2",
          "midi": 36,
          "time": 184.1536619999983,
          "velocity": 0.9763779527559056,
          "duration": 0.002403843749988255
        },
        {
          "name": "D2",
          "midi": 38,
          "time": 184.1536619999983,
          "velocity": 0.8818897637795275,
          "duration": 0.002403843749988255
        },
        {
          "name": "A#2",
          "midi": 46,
          "time": 184.38443099999827,
          "velocity": 0.9133858267716536,
          "duration": 0.002403843749988255
        },
        {
          "name": "C2",
          "midi": 36,
          "time": 184.61519999999825,
          "velocity": 0.9763779527559056,
          "duration": 0.002403843749988255
        },
        {
          "name": "D2",
          "midi": 38,
          "time": 184.84596899999823,
          "velocity": 0.4645669291338583,
          "duration": 0.002403843749988255
        },
        {
          "name": "C2",
          "midi": 36,
          "time": 185.07673799999822,
          "velocity": 0.9763779527559056,
          "duration": 0.002403843749988255
        },
        {
          "name": "D2",
          "midi": 38,
          "time": 185.07673799999822,
          "velocity": 0.9763779527559056,
          "duration": 0.002403843749988255
        },
        {
          "name": "F#2",
          "midi": 42,
          "time": 185.07673799999822,
          "velocity": 0.6535433070866141,
          "duration": 0.002403843749988255
        },
        {
          "name": "F#2",
          "midi": 42,
          "time": 185.3075069999982,
          "velocity": 0.48031496062992124,
          "duration": 0.002403843749988255
        },
        {
          "name": "C2",
          "midi": 36,
          "time": 185.53827599999818,
          "velocity": 0.9763779527559056,
          "duration": 0.002403843749988255
        },
        {
          "name": "F#2",
          "midi": 42,
          "time": 185.53827599999818,
          "velocity": 0.7874015748031497,
          "duration": 0.002403843749988255
        },
        {
          "name": "D2",
          "midi": 38,
          "time": 185.76904499999816,
          "velocity": 0.7480314960629921,
          "duration": 0.002403843749988255
        },
        {
          "name": "F#2",
          "midi": 42,
          "time": 185.76904499999816,
          "velocity": 0.7874015748031497,
          "duration": 0.002403843749988255
        },
        {
          "name": "D2",
          "midi": 38,
          "time": 185.99981399999814,
          "velocity": 0.8818897637795275,
          "duration": 0.002403843749988255
        },
        {
          "name": "C2",
          "midi": 36,
          "time": 186.23058299999812,
          "velocity": 0.9763779527559056,
          "duration": 0.002403843749988255
        },
        {
          "name": "C#3",
          "midi": 49,
          "time": 186.23058299999812,
          "velocity": 0.9133858267716536,
          "duration": 0.002403843749988255
        },
        {
          "name": "F#2",
          "midi": 42,
          "time": 186.6921209999981,
          "velocity": 0.7874015748031497,
          "duration": 0.002403843749988255
        },
        {
          "name": "C2",
          "midi": 36,
          "time": 186.9228899999981,
          "velocity": 0.9763779527559056,
          "duration": 0.002403843749988255
        },
        {
          "name": "D2",
          "midi": 38,
          "time": 186.9228899999981,
          "velocity": 0.9763779527559056,
          "duration": 0.002403843749988255
        },
        {
          "name": "F#2",
          "midi": 42,
          "time": 187.15365899999807,
          "velocity": 0.5590551181102362,
          "duration": 0.002403843749988255
        },
        {
          "name": "C2",
          "midi": 36,
          "time": 187.38442799999805,
          "velocity": 0.9763779527559056,
          "duration": 0.002403843749988255
        },
        {
          "name": "F#2",
          "midi": 42,
          "time": 187.61519699999803,
          "velocity": 0.6535433070866141,
          "duration": 0.002403843749988255
        },
        {
          "name": "C2",
          "midi": 36,
          "time": 187.84596599999801,
          "velocity": 0.9763779527559056,
          "duration": 0.002403843749988255
        },
        {
          "name": "D2",
          "midi": 38,
          "time": 187.84596599999801,
          "velocity": 0.9763779527559056,
          "duration": 0.002403843749988255
        },
        {
          "name": "A#2",
          "midi": 46,
          "time": 188.076734999998,
          "velocity": 0.9133858267716536,
          "duration": 0.002403843749988255
        },
        {
          "name": "C2",
          "midi": 36,
          "time": 188.30750399999798,
          "velocity": 0.9763779527559056,
          "duration": 0.002403843749988255
        },
        {
          "name": "F#2",
          "midi": 42,
          "time": 188.53827299999796,
          "velocity": 0.3779527559055118,
          "duration": 0.002403843749988255
        },
        {
          "name": "C2",
          "midi": 36,
          "time": 188.76904199999794,
          "velocity": 0.9763779527559056,
          "duration": 0.002403843749988255
        },
        {
          "name": "D2",
          "midi": 38,
          "time": 188.76904199999794,
          "velocity": 0.9763779527559056,
          "duration": 0.002403843749988255
        },
        {
          "name": "F#2",
          "midi": 42,
          "time": 188.99981099999792,
          "velocity": 0.7874015748031497,
          "duration": 0.002403843749988255
        },
        {
          "name": "C2",
          "midi": 36,
          "time": 189.2305799999979,
          "velocity": 0.9763779527559056,
          "duration": 0.002403843749988255
        },
        {
          "name": "F#2",
          "midi": 42,
          "time": 189.46134899999788,
          "velocity": 0.7874015748031497,
          "duration": 0.002403843749988255
        },
        {
          "name": "C2",
          "midi": 36,
          "time": 189.69211799999786,
          "velocity": 0.9763779527559056,
          "duration": 0.002403843749988255
        },
        {
          "name": "D2",
          "midi": 38,
          "time": 189.69211799999786,
          "velocity": 0.8818897637795275,
          "duration": 0.002403843749988255
        },
        {
          "name": "A#2",
          "midi": 46,
          "time": 189.92288699999784,
          "velocity": 0.7874015748031497,
          "duration": 0.002403843749988255
        },
        {
          "name": "C2",
          "midi": 36,
          "time": 190.15365599999782,
          "velocity": 0.8818897637795275,
          "duration": 0.002403843749988255
        },
        {
          "name": "F#2",
          "midi": 42,
          "time": 190.3844249999978,
          "velocity": 0.7874015748031497,
          "duration": 0.002403843749988255
        },
        {
          "name": "C2",
          "midi": 36,
          "time": 190.61519399999779,
          "velocity": 0.9763779527559056,
          "duration": 0.002403843749988255
        },
        {
          "name": "D2",
          "midi": 38,
          "time": 190.61519399999779,
          "velocity": 0.9763779527559056,
          "duration": 0.002403843749988255
        },
        {
          "name": "F#2",
          "midi": 42,
          "time": 190.84596299999777,
          "velocity": 0.6535433070866141,
          "duration": 0.002403843749988255
        },
        {
          "name": "C2",
          "midi": 36,
          "time": 191.07673199999775,
          "velocity": 0.8818897637795275,
          "duration": 0.002403843749988255
        },
        {
          "name": "F#2",
          "midi": 42,
          "time": 191.30750099999773,
          "velocity": 0.7874015748031497,
          "duration": 0.002403843749988255
        },
        {
          "name": "C2",
          "midi": 36,
          "time": 191.5382699999977,
          "velocity": 0.9763779527559056,
          "duration": 0.002403843749988255
        },
        {
          "name": "D2",
          "midi": 38,
          "time": 191.5382699999977,
          "velocity": 0.8818897637795275,
          "duration": 0.002403843749988255
        },
        {
          "name": "A#2",
          "midi": 46,
          "time": 191.7690389999977,
          "velocity": 0.7874015748031497,
          "duration": 0.002403843749988255
        },
        {
          "name": "C2",
          "midi": 36,
          "time": 191.99980799999767,
          "velocity": 0.8818897637795275,
          "duration": 0.002403843749988255
        },
        {
          "name": "F#2",
          "midi": 42,
          "time": 192.23057699999765,
          "velocity": 0.6535433070866141,
          "duration": 0.002403843749988255
        },
        {
          "name": "C2",
          "midi": 36,
          "time": 192.46134599999763,
          "velocity": 0.9763779527559056,
          "duration": 0.002403843749988255
        },
        {
          "name": "D2",
          "midi": 38,
          "time": 192.46134599999763,
          "velocity": 0.8818897637795275,
          "duration": 0.002403843749988255
        },
        {
          "name": "F#2",
          "midi": 42,
          "time": 192.6921149999976,
          "velocity": 0.5590551181102362,
          "duration": 0.002403843749988255
        },
        {
          "name": "C2",
          "midi": 36,
          "time": 192.9228839999976,
          "velocity": 0.8818897637795275,
          "duration": 0.002403843749988255
        },
        {
          "name": "F#2",
          "midi": 42,
          "time": 193.15365299999758,
          "velocity": 0.7874015748031497,
          "duration": 0.002403843749988255
        },
        {
          "name": "C2",
          "midi": 36,
          "time": 193.38442199999756,
          "velocity": 0.9763779527559056,
          "duration": 0.002403843749988255
        },
        {
          "name": "D2",
          "midi": 38,
          "time": 193.38442199999756,
          "velocity": 0.9763779527559056,
          "duration": 0.002403843749988255
        },
        {
          "name": "A#2",
          "midi": 46,
          "time": 193.61519099999754,
          "velocity": 0.9133858267716536,
          "duration": 0.002403843749988255
        },
        {
          "name": "C2",
          "midi": 36,
          "time": 193.84595999999752,
          "velocity": 0.9763779527559056,
          "duration": 0.002403843749988255
        },
        {
          "name": "F#2",
          "midi": 42,
          "time": 194.0767289999975,
          "velocity": 0.4251968503937008,
          "duration": 0.002403843749988255
        },
        {
          "name": "C2",
          "midi": 36,
          "time": 194.30749799999748,
          "velocity": 0.9763779527559056,
          "duration": 0.002403843749988255
        },
        {
          "name": "D2",
          "midi": 38,
          "time": 194.30749799999748,
          "velocity": 0.9763779527559056,
          "duration": 0.002403843749988255
        },
        {
          "name": "F#2",
          "midi": 42,
          "time": 194.53826699999746,
          "velocity": 0.6535433070866141,
          "duration": 0.002403843749988255
        },
        {
          "name": "C2",
          "midi": 36,
          "time": 194.76903599999744,
          "velocity": 0.9763779527559056,
          "duration": 0.002403843749988255
        },
        {
          "name": "F#2",
          "midi": 42,
          "time": 194.99980499999742,
          "velocity": 0.7874015748031497,
          "duration": 0.002403843749988255
        },
        {
          "name": "C2",
          "midi": 36,
          "time": 195.2305739999974,
          "velocity": 0.9763779527559056,
          "duration": 0.002403843749988255
        },
        {
          "name": "D2",
          "midi": 38,
          "time": 195.2305739999974,
          "velocity": 0.9763779527559056,
          "duration": 0.002403843749988255
        },
        {
          "name": "A#2",
          "midi": 46,
          "time": 195.46134299999738,
          "velocity": 0.9133858267716536,
          "duration": 0.002403843749988255
        },
        {
          "name": "C2",
          "midi": 36,
          "time": 195.69211199999737,
          "velocity": 0.8818897637795275,
          "duration": 0.002403843749988255
        },
        {
          "name": "F#2",
          "midi": 42,
          "time": 195.92288099999735,
          "velocity": 0.48031496062992124,
          "duration": 0.002403843749988255
        },
        {
          "name": "C2",
          "midi": 36,
          "time": 196.15364999999733,
          "velocity": 0.9763779527559056,
          "duration": 0.002403843749988255
        },
        {
          "name": "D2",
          "midi": 38,
          "time": 196.15364999999733,
          "velocity": 0.8818897637795275,
          "duration": 0.002403843749988255
        },
        {
          "name": "F#2",
          "midi": 42,
          "time": 196.3844189999973,
          "velocity": 0.31496062992125984,
          "duration": 0.002403843749988255
        },
        {
          "name": "C2",
          "midi": 36,
          "time": 196.6151879999973,
          "velocity": 0.9763779527559056,
          "duration": 0.002403843749988255
        },
        {
          "name": "F#2",
          "midi": 42,
          "time": 196.84595699999727,
          "velocity": 0.6535433070866141,
          "duration": 0.002403843749988255
        },
        {
          "name": "C2",
          "midi": 36,
          "time": 197.07672599999725,
          "velocity": 0.9763779527559056,
          "duration": 0.002403843749988255
        },
        {
          "name": "D2",
          "midi": 38,
          "time": 197.07672599999725,
          "velocity": 0.8818897637795275,
          "duration": 0.002403843749988255
        },
        {
          "name": "A#2",
          "midi": 46,
          "time": 197.30749499999723,
          "velocity": 0.7874015748031497,
          "duration": 0.002403843749988255
        },
        {
          "name": "C2",
          "midi": 36,
          "time": 197.5382639999972,
          "velocity": 0.9763779527559056,
          "duration": 0.002403843749988255
        },
        {
          "name": "F#2",
          "midi": 42,
          "time": 197.7690329999972,
          "velocity": 0.7874015748031497,
          "duration": 0.002403843749988255
        },
        {
          "name": "C2",
          "midi": 36,
          "time": 197.99980199999717,
          "velocity": 0.9763779527559056,
          "duration": 0.002403843749988255
        },
        {
          "name": "D2",
          "midi": 38,
          "time": 197.99980199999717,
          "velocity": 0.8818897637795275,
          "duration": 0.002403843749988255
        },
        {
          "name": "F#2",
          "midi": 42,
          "time": 198.23057099999716,
          "velocity": 0.5590551181102362,
          "duration": 0.002403843749988255
        },
        {
          "name": "C2",
          "midi": 36,
          "time": 198.46133999999714,
          "velocity": 0.9763779527559056,
          "duration": 0.002403843749988255
        },
        {
          "name": "F#2",
          "midi": 42,
          "time": 198.69210899999712,
          "velocity": 0.5590551181102362,
          "duration": 0.002403843749988255
        },
        {
          "name": "C2",
          "midi": 36,
          "time": 198.9228779999971,
          "velocity": 0.9763779527559056,
          "duration": 0.002403843749988255
        },
        {
          "name": "D2",
          "midi": 38,
          "time": 198.9228779999971,
          "velocity": 0.8818897637795275,
          "duration": 0.002403843749988255
        },
        {
          "name": "A#2",
          "midi": 46,
          "time": 199.15364699999708,
          "velocity": 0.7874015748031497,
          "duration": 0.002403843749988255
        },
        {
          "name": "C2",
          "midi": 36,
          "time": 199.38441599999706,
          "velocity": 0.9763779527559056,
          "duration": 0.002403843749988255
        },
        {
          "name": "F#2",
          "midi": 42,
          "time": 199.61518499999704,
          "velocity": 0.48031496062992124,
          "duration": 0.002403843749988255
        },
        {
          "name": "C2",
          "midi": 36,
          "time": 199.84595399999702,
          "velocity": 0.9763779527559056,
          "duration": 0.002403843749988255
        },
        {
          "name": "D2",
          "midi": 38,
          "time": 199.84595399999702,
          "velocity": 0.8818897637795275,
          "duration": 0.002403843749988255
        },
        {
          "name": "F#2",
          "midi": 42,
          "time": 200.076722999997,
          "velocity": 0.7874015748031497,
          "duration": 0.002403843749988255
        },
        {
          "name": "C2",
          "midi": 36,
          "time": 200.30749199999698,
          "velocity": 0.9763779527559056,
          "duration": 0.002403843749988255
        },
        {
          "name": "C2",
          "midi": 36,
          "time": 200.53826099999696,
          "velocity": 0.9763779527559056,
          "duration": 0.002403843749988255
        },
        {
          "name": "D2",
          "midi": 38,
          "time": 200.53826099999696,
          "velocity": 0.6299212598425197,
          "duration": 0.002403843749988255
        },
        {
          "name": "C2",
          "midi": 36,
          "time": 200.76902999999695,
          "velocity": 0.8818897637795275,
          "duration": 0.002403843749988255
        },
        {
          "name": "D2",
          "midi": 38,
          "time": 200.76902999999695,
          "velocity": 0.8818897637795275,
          "duration": 0.002403843749988255
        },
        {
          "name": "C2",
          "midi": 36,
          "time": 200.99979899999693,
          "velocity": 0.9763779527559056,
          "duration": 0.002403843749988255
        },
        {
          "name": "C#3",
          "midi": 49,
          "time": 200.99979899999693,
          "velocity": 0.9133858267716536,
          "duration": 0.002403843749988255
        },
        {
          "name": "F#2",
          "midi": 42,
          "time": 201.46133699999692,
          "velocity": 0.6535433070866141,
          "duration": 0.002403843749988255
        },
        {
          "name": "C2",
          "midi": 36,
          "time": 201.6921059999969,
          "velocity": 0.9763779527559056,
          "duration": 0.002403843749988255
        },
        {
          "name": "D2",
          "midi": 38,
          "time": 201.6921059999969,
          "velocity": 0.9763779527559056,
          "duration": 0.002403843749988255
        },
        {
          "name": "F#2",
          "midi": 42,
          "time": 201.92287499999688,
          "velocity": 0.6535433070866141,
          "duration": 0.002403843749988255
        },
        {
          "name": "C2",
          "midi": 36,
          "time": 202.15364399999686,
          "velocity": 0.9763779527559056,
          "duration": 0.002403843749988255
        },
        {
          "name": "F#2",
          "midi": 42,
          "time": 202.38441299999684,
          "velocity": 0.6535433070866141,
          "duration": 0.002403843749988255
        },
        {
          "name": "C2",
          "midi": 36,
          "time": 202.61518199999682,
          "velocity": 0.9763779527559056,
          "duration": 0.002403843749988255
        },
        {
          "name": "D2",
          "midi": 38,
          "time": 202.61518199999682,
          "velocity": 0.8818897637795275,
          "duration": 0.002403843749988255
        },
        {
          "name": "F#2",
          "midi": 42,
          "time": 202.8459509999968,
          "velocity": 0.7874015748031497,
          "duration": 0.002403843749988255
        },
        {
          "name": "C2",
          "midi": 36,
          "time": 203.07671999999678,
          "velocity": 0.9763779527559056,
          "duration": 0.002403843749988255
        },
        {
          "name": "F#2",
          "midi": 42,
          "time": 203.30748899999676,
          "velocity": 0.48031496062992124,
          "duration": 0.002403843749988255
        },
        {
          "name": "C2",
          "midi": 36,
          "time": 203.53825799999674,
          "velocity": 0.9763779527559056,
          "duration": 0.002403843749988255
        },
        {
          "name": "D2",
          "midi": 38,
          "time": 203.53825799999674,
          "velocity": 0.9763779527559056,
          "duration": 0.002403843749988255
        },
        {
          "name": "F#2",
          "midi": 42,
          "time": 203.76902699999673,
          "velocity": 0.48031496062992124,
          "duration": 0.002403843749988255
        },
        {
          "name": "C2",
          "midi": 36,
          "time": 203.9997959999967,
          "velocity": 0.9763779527559056,
          "duration": 0.002403843749988255
        },
        {
          "name": "F#2",
          "midi": 42,
          "time": 204.2305649999967,
          "velocity": 0.7874015748031497,
          "duration": 0.002403843749988255
        },
        {
          "name": "C2",
          "midi": 36,
          "time": 204.46133399999667,
          "velocity": 1,
          "duration": 0.002403843749988255
        },
        {
          "name": "D2",
          "midi": 38,
          "time": 204.46133399999667,
          "velocity": 0.8818897637795275,
          "duration": 0.002403843749988255
        },
        {
          "name": "A#2",
          "midi": 46,
          "time": 204.69210299999665,
          "velocity": 0.6535433070866141,
          "duration": 0.002403843749988255
        },
        {
          "name": "C2",
          "midi": 36,
          "time": 204.92287199999663,
          "velocity": 0.9763779527559056,
          "duration": 0.002403843749988255
        },
        {
          "name": "F#2",
          "midi": 42,
          "time": 205.1536409999966,
          "velocity": 0.7874015748031497,
          "duration": 0.002403843749988255
        },
        {
          "name": "C2",
          "midi": 36,
          "time": 205.3844099999966,
          "velocity": 1,
          "duration": 0.002403843749988255
        },
        {
          "name": "D2",
          "midi": 38,
          "time": 205.3844099999966,
          "velocity": 0.9763779527559056,
          "duration": 0.002403843749988255
        },
        {
          "name": "F#2",
          "midi": 42,
          "time": 205.61517899999657,
          "velocity": 0.6535433070866141,
          "duration": 0.002403843749988255
        },
        {
          "name": "C2",
          "midi": 36,
          "time": 205.84594799999655,
          "velocity": 0.8818897637795275,
          "duration": 0.002403843749988255
        },
        {
          "name": "F#2",
          "midi": 42,
          "time": 206.07671699999653,
          "velocity": 0.6535433070866141,
          "duration": 0.002403843749988255
        },
        {
          "name": "C2",
          "midi": 36,
          "time": 206.30748599999652,
          "velocity": 0.9763779527559056,
          "duration": 0.002403843749988255
        },
        {
          "name": "D2",
          "midi": 38,
          "time": 206.30748599999652,
          "velocity": 0.8818897637795275,
          "duration": 0.002403843749988255
        },
        {
          "name": "A#2",
          "midi": 46,
          "time": 206.5382549999965,
          "velocity": 0.9133858267716536,
          "duration": 0.002403843749988255
        },
        {
          "name": "C2",
          "midi": 36,
          "time": 206.76902399999648,
          "velocity": 0.9763779527559056,
          "duration": 0.002403843749988255
        },
        {
          "name": "F#2",
          "midi": 42,
          "time": 206.99979299999646,
          "velocity": 0.6535433070866141,
          "duration": 0.002403843749988255
        },
        {
          "name": "C2",
          "midi": 36,
          "time": 207.23056199999644,
          "velocity": 0.9763779527559056,
          "duration": 0.002403843749988255
        },
        {
          "name": "D2",
          "midi": 38,
          "time": 207.23056199999644,
          "velocity": 0.8818897637795275,
          "duration": 0.002403843749988255
        },
        {
          "name": "F#2",
          "midi": 42,
          "time": 207.46133099999642,
          "velocity": 0.6535433070866141,
          "duration": 0.002403843749988255
        },
        {
          "name": "C2",
          "midi": 36,
          "time": 207.6920999999964,
          "velocity": 0.9763779527559056,
          "duration": 0.002403843749988255
        },
        {
          "name": "F#2",
          "midi": 42,
          "time": 207.92286899999638,
          "velocity": 0.7874015748031497,
          "duration": 0.002403843749988255
        },
        {
          "name": "C2",
          "midi": 36,
          "time": 208.15363799999636,
          "velocity": 0.9763779527559056,
          "duration": 0.002403843749988255
        },
        {
          "name": "D2",
          "midi": 38,
          "time": 208.15363799999636,
          "velocity": 0.8818897637795275,
          "duration": 0.002403843749988255
        },
        {
          "name": "A#2",
          "midi": 46,
          "time": 208.38440699999634,
          "velocity": 0.7874015748031497,
          "duration": 0.002403843749988255
        },
        {
          "name": "C2",
          "midi": 36,
          "time": 208.61517599999632,
          "velocity": 0.8818897637795275,
          "duration": 0.002403843749988255
        },
        {
          "name": "F#2",
          "midi": 42,
          "time": 208.8459449999963,
          "velocity": 0.6535433070866141,
          "duration": 0.002403843749988255
        },
        {
          "name": "C2",
          "midi": 36,
          "time": 209.0767139999963,
          "velocity": 0.9763779527559056,
          "duration": 0.002403843749988255
        },
        {
          "name": "D2",
          "midi": 38,
          "time": 209.0767139999963,
          "velocity": 0.9763779527559056,
          "duration": 0.002403843749988255
        },
        {
          "name": "F#2",
          "midi": 42,
          "time": 209.30748299999627,
          "velocity": 0.7874015748031497,
          "duration": 0.002403843749988255
        },
        {
          "name": "C2",
          "midi": 36,
          "time": 209.53825199999625,
          "velocity": 0.9763779527559056,
          "duration": 0.002403843749988255
        },
        {
          "name": "F#2",
          "midi": 42,
          "time": 209.76902099999623,
          "velocity": 0.7874015748031497,
          "duration": 0.002403843749988255
        },
        {
          "name": "C2",
          "midi": 36,
          "time": 209.9997899999962,
          "velocity": 0.9763779527559056,
          "duration": 0.002403843749988255
        },
        {
          "name": "D2",
          "midi": 38,
          "time": 209.9997899999962,
          "velocity": 0.8818897637795275,
          "duration": 0.002403843749988255
        },
        {
          "name": "A#2",
          "midi": 46,
          "time": 210.2305589999962,
          "velocity": 0.9133858267716536,
          "duration": 0.002403843749988255
        },
        {
          "name": "C2",
          "midi": 36,
          "time": 210.46132799999617,
          "velocity": 0.8818897637795275,
          "duration": 0.002403843749988255
        },
        {
          "name": "F#2",
          "midi": 42,
          "time": 210.69209699999615,
          "velocity": 0.7874015748031497,
          "duration": 0.002403843749988255
        },
        {
          "name": "C2",
          "midi": 36,
          "time": 210.92286599999613,
          "velocity": 0.9763779527559056,
          "duration": 0.002403843749988255
        },
        {
          "name": "D2",
          "midi": 38,
          "time": 210.92286599999613,
          "velocity": 0.9763779527559056,
          "duration": 0.002403843749988255
        },
        {
          "name": "F#2",
          "midi": 42,
          "time": 211.15363499999611,
          "velocity": 0.5590551181102362,
          "duration": 0.002403843749988255
        },
        {
          "name": "C2",
          "midi": 36,
          "time": 211.3844039999961,
          "velocity": 0.9763779527559056,
          "duration": 0.002403843749988255
        },
        {
          "name": "F#2",
          "midi": 42,
          "time": 211.61517299999608,
          "velocity": 0.7874015748031497,
          "duration": 0.002403843749988255
        },
        {
          "name": "C2",
          "midi": 36,
          "time": 211.84594199999606,
          "velocity": 0.9763779527559056,
          "duration": 0.002403843749988255
        },
        {
          "name": "D2",
          "midi": 38,
          "time": 211.84594199999606,
          "velocity": 0.9763779527559056,
          "duration": 0.002403843749988255
        },
        {
          "name": "A#2",
          "midi": 46,
          "time": 212.07671099999604,
          "velocity": 0.9133858267716536,
          "duration": 0.002403843749988255
        },
        {
          "name": "C2",
          "midi": 36,
          "time": 212.30747999999602,
          "velocity": 0.8818897637795275,
          "duration": 0.002403843749988255
        },
        {
          "name": "F#2",
          "midi": 42,
          "time": 212.538248999996,
          "velocity": 0.48031496062992124,
          "duration": 0.002403843749988255
        },
        {
          "name": "C2",
          "midi": 36,
          "time": 212.76901799999598,
          "velocity": 0.9763779527559056,
          "duration": 0.002403843749988255
        },
        {
          "name": "D2",
          "midi": 38,
          "time": 212.76901799999598,
          "velocity": 0.9763779527559056,
          "duration": 0.002403843749988255
        },
        {
          "name": "F#2",
          "midi": 42,
          "time": 212.99978699999596,
          "velocity": 0.7874015748031497,
          "duration": 0.002403843749988255
        },
        {
          "name": "C2",
          "midi": 36,
          "time": 213.23055599999594,
          "velocity": 0.9763779527559056,
          "duration": 0.002403843749988255
        },
        {
          "name": "F#2",
          "midi": 42,
          "time": 213.46132499999592,
          "velocity": 0.7874015748031497,
          "duration": 0.002403843749988255
        },
        {
          "name": "C2",
          "midi": 36,
          "time": 213.6920939999959,
          "velocity": 0.9763779527559056,
          "duration": 0.002403843749988255
        },
        {
          "name": "D2",
          "midi": 38,
          "time": 213.6920939999959,
          "velocity": 0.8818897637795275,
          "duration": 0.002403843749988255
        },
        {
          "name": "A#2",
          "midi": 46,
          "time": 213.92286299999589,
          "velocity": 0.7874015748031497,
          "duration": 0.002403843749988255
        },
        {
          "name": "C2",
          "midi": 36,
          "time": 214.15363199999587,
          "velocity": 0.8818897637795275,
          "duration": 0.002403843749988255
        },
        {
          "name": "F#2",
          "midi": 42,
          "time": 214.38440099999585,
          "velocity": 0.9133858267716536,
          "duration": 0.002403843749988255
        },
        {
          "name": "C2",
          "midi": 36,
          "time": 214.61516999999583,
          "velocity": 0.9763779527559056,
          "duration": 0.002403843749988255
        },
        {
          "name": "D2",
          "midi": 38,
          "time": 214.61516999999583,
          "velocity": 0.8818897637795275,
          "duration": 0.002403843749988255
        },
        {
          "name": "F#2",
          "midi": 42,
          "time": 214.8459389999958,
          "velocity": 0.7874015748031497,
          "duration": 0.002403843749988255
        },
        {
          "name": "C2",
          "midi": 36,
          "time": 215.0767079999958,
          "velocity": 0.9763779527559056,
          "duration": 0.002403843749988255
        },
        {
          "name": "D2",
          "midi": 38,
          "time": 215.0767079999958,
          "velocity": 0.8818897637795275,
          "duration": 0.002403843749988255
        },
        {
          "name": "C2",
          "midi": 36,
          "time": 215.30747699999577,
          "velocity": 0.8818897637795275,
          "duration": 0.002403843749988255
        },
        {
          "name": "D2",
          "midi": 38,
          "time": 215.30747699999577,
          "velocity": 0.9763779527559056,
          "duration": 0.002403843749988255
        },
        {
          "name": "C2",
          "midi": 36,
          "time": 215.76901499999576,
          "velocity": 0.9763779527559056,
          "duration": 0.002403843749988255
        },
        {
          "name": "D2",
          "midi": 38,
          "time": 215.76901499999576,
          "velocity": 0.9763779527559056,
          "duration": 0.002403843749988255
        },
        {
          "name": "C#3",
          "midi": 49,
          "time": 215.76901499999576,
          "velocity": 0.7874015748031497,
          "duration": 0.002403843749988255
        },
        {
          "name": "F#2",
          "midi": 42,
          "time": 216.23055299999575,
          "velocity": 0.5590551181102362,
          "duration": 0.002403843749988255
        },
        {
          "name": "C2",
          "midi": 36,
          "time": 216.46132199999573,
          "velocity": 0.8818897637795275,
          "duration": 0.002403843749988255
        },
        {
          "name": "D2",
          "midi": 38,
          "time": 216.46132199999573,
          "velocity": 0.9763779527559056,
          "duration": 0.002403843749988255
        },
        {
          "name": "F#2",
          "midi": 42,
          "time": 216.6920909999957,
          "velocity": 0.7874015748031497,
          "duration": 0.002403843749988255
        },
        {
          "name": "C2",
          "midi": 36,
          "time": 216.9228599999957,
          "velocity": 0.9763779527559056,
          "duration": 0.002403843749988255
        },
        {
          "name": "F#2",
          "midi": 42,
          "time": 217.15362899999568,
          "velocity": 0.3779527559055118,
          "duration": 0.002403843749988255
        },
        {
          "name": "C2",
          "midi": 36,
          "time": 217.38439799999566,
          "velocity": 0.9763779527559056,
          "duration": 0.002403843749988255
        },
        {
          "name": "D2",
          "midi": 38,
          "time": 217.38439799999566,
          "velocity": 0.9763779527559056,
          "duration": 0.002403843749988255
        },
        {
          "name": "F#2",
          "midi": 42,
          "time": 217.61516699999564,
          "velocity": 0.6535433070866141,
          "duration": 0.002403843749988255
        },
        {
          "name": "C2",
          "midi": 36,
          "time": 217.84593599999562,
          "velocity": 0.9763779527559056,
          "duration": 0.002403843749988255
        },
        {
          "name": "F#2",
          "midi": 42,
          "time": 218.0767049999956,
          "velocity": 0.7874015748031497,
          "duration": 0.002403843749988255
        },
        {
          "name": "C2",
          "midi": 36,
          "time": 218.30747399999558,
          "velocity": 1,
          "duration": 0.002403843749988255
        },
        {
          "name": "D2",
          "midi": 38,
          "time": 218.30747399999558,
          "velocity": 0.8818897637795275,
          "duration": 0.002403843749988255
        },
        {
          "name": "F#2",
          "midi": 42,
          "time": 218.53824299999556,
          "velocity": 0.7874015748031497,
          "duration": 0.002403843749988255
        },
        {
          "name": "C2",
          "midi": 36,
          "time": 218.76901199999554,
          "velocity": 0.9763779527559056,
          "duration": 0.002403843749988255
        },
        {
          "name": "F#2",
          "midi": 42,
          "time": 218.99978099999552,
          "velocity": 0.7874015748031497,
          "duration": 0.002403843749988255
        },
        {
          "name": "C2",
          "midi": 36,
          "time": 219.2305499999955,
          "velocity": 1,
          "duration": 0.002403843749988255
        },
        {
          "name": "D2",
          "midi": 38,
          "time": 219.2305499999955,
          "velocity": 0.8818897637795275,
          "duration": 0.002403843749988255
        },
        {
          "name": "A#2",
          "midi": 46,
          "time": 219.46131899999548,
          "velocity": 0.9133858267716536,
          "duration": 0.002403843749988255
        },
        {
          "name": "C2",
          "midi": 36,
          "time": 219.69208799999546,
          "velocity": 0.9763779527559056,
          "duration": 0.002403843749988255
        },
        {
          "name": "F#2",
          "midi": 42,
          "time": 219.92285699999545,
          "velocity": 0.6535433070866141,
          "duration": 0.002403843749988255
        },
        {
          "name": "C2",
          "midi": 36,
          "time": 220.15362599999543,
          "velocity": 1,
          "duration": 0.002403843749988255
        },
        {
          "name": "D2",
          "midi": 38,
          "time": 220.15362599999543,
          "velocity": 0.8818897637795275,
          "duration": 0.002403843749988255
        },
        {
          "name": "F#2",
          "midi": 42,
          "time": 220.3843949999954,
          "velocity": 0.9133858267716536,
          "duration": 0.002403843749988255
        },
        {
          "name": "C2",
          "midi": 36,
          "time": 220.6151639999954,
          "velocity": 0.8818897637795275,
          "duration": 0.002403843749988255
        },
        {
          "name": "F#2",
          "midi": 42,
          "time": 220.84593299999537,
          "velocity": 0.7874015748031497,
          "duration": 0.002403843749988255
        },
        {
          "name": "C2",
          "midi": 36,
          "time": 221.07670199999535,
          "velocity": 0.9763779527559056,
          "duration": 0.002403843749988255
        },
        {
          "name": "D2",
          "midi": 38,
          "time": 221.07670199999535,
          "velocity": 0.9763779527559056,
          "duration": 0.002403843749988255
        },
        {
          "name": "A#2",
          "midi": 46,
          "time": 221.30747099999533,
          "velocity": 0.9133858267716536,
          "duration": 0.002403843749988255
        },
        {
          "name": "C2",
          "midi": 36,
          "time": 221.5382399999953,
          "velocity": 0.8818897637795275,
          "duration": 0.002403843749988255
        },
        {
          "name": "F#2",
          "midi": 42,
          "time": 221.7690089999953,
          "velocity": 0.7874015748031497,
          "duration": 0.002403843749988255
        },
        {
          "name": "C2",
          "midi": 36,
          "time": 221.99977799999527,
          "velocity": 0.9763779527559056,
          "duration": 0.002403843749988255
        },
        {
          "name": "D2",
          "midi": 38,
          "time": 221.99977799999527,
          "velocity": 0.8818897637795275,
          "duration": 0.002403843749988255
        },
        {
          "name": "F#2",
          "midi": 42,
          "time": 222.23054699999525,
          "velocity": 0.7874015748031497,
          "duration": 0.002403843749988255
        },
        {
          "name": "C2",
          "midi": 36,
          "time": 222.46131599999524,
          "velocity": 0.9763779527559056,
          "duration": 0.002403843749988255
        },
        {
          "name": "F#2",
          "midi": 42,
          "time": 222.69208499999522,
          "velocity": 0.7874015748031497,
          "duration": 0.002403843749988255
        },
        {
          "name": "C2",
          "midi": 36,
          "time": 222.9228539999952,
          "velocity": 0.9763779527559056,
          "duration": 0.002403843749988255
        },
        {
          "name": "D2",
          "midi": 38,
          "time": 222.9228539999952,
          "velocity": 0.9763779527559056,
          "duration": 0.002403843749988255
        },
        {
          "name": "A#2",
          "midi": 46,
          "time": 223.15362299999518,
          "velocity": 0.9133858267716536,
          "duration": 0.002403843749988255
        },
        {
          "name": "C2",
          "midi": 36,
          "time": 223.38439199999516,
          "velocity": 0.9763779527559056,
          "duration": 0.002403843749988255
        },
        {
          "name": "F#2",
          "midi": 42,
          "time": 223.61516099999514,
          "velocity": 0.5590551181102362,
          "duration": 0.002403843749988255
        },
        {
          "name": "C2",
          "midi": 36,
          "time": 223.84592999999512,
          "velocity": 0.9763779527559056,
          "duration": 0.002403843749988255
        },
        {
          "name": "D2",
          "midi": 38,
          "time": 223.84592999999512,
          "velocity": 0.9763779527559056,
          "duration": 0.002403843749988255
        },
        {
          "name": "F#2",
          "midi": 42,
          "time": 224.0766989999951,
          "velocity": 0.6535433070866141,
          "duration": 0.002403843749988255
        },
        {
          "name": "C2",
          "midi": 36,
          "time": 224.30746799999508,
          "velocity": 0.8818897637795275,
          "duration": 0.002403843749988255
        },
        {
          "name": "F#2",
          "midi": 42,
          "time": 224.53823699999506,
          "velocity": 0.7874015748031497,
          "duration": 0.002403843749988255
        },
        {
          "name": "C2",
          "midi": 36,
          "time": 224.76900599999504,
          "velocity": 0.9763779527559056,
          "duration": 0.002403843749988255
        },
        {
          "name": "D2",
          "midi": 38,
          "time": 224.76900599999504,
          "velocity": 0.9763779527559056,
          "duration": 0.002403843749988255
        },
        {
          "name": "A#2",
          "midi": 46,
          "time": 224.99977499999503,
          "velocity": 0.7874015748031497,
          "duration": 0.002403843749988255
        },
        {
          "name": "C2",
          "midi": 36,
          "time": 225.230543999995,
          "velocity": 0.9763779527559056,
          "duration": 0.002403843749988255
        },
        {
          "name": "F#2",
          "midi": 42,
          "time": 225.461312999995,
          "velocity": 0.3464566929133858,
          "duration": 0.002403843749988255
        },
        {
          "name": "C2",
          "midi": 36,
          "time": 225.69208199999497,
          "velocity": 0.9763779527559056,
          "duration": 0.002403843749988255
        },
        {
          "name": "D2",
          "midi": 38,
          "time": 225.69208199999497,
          "velocity": 0.9763779527559056,
          "duration": 0.002403843749988255
        },
        {
          "name": "F#2",
          "midi": 42,
          "time": 225.92285099999495,
          "velocity": 0.6535433070866141,
          "duration": 0.002403843749988255
        },
        {
          "name": "C2",
          "midi": 36,
          "time": 226.15361999999493,
          "velocity": 0.9763779527559056,
          "duration": 0.002403843749988255
        },
        {
          "name": "F#2",
          "midi": 42,
          "time": 226.3843889999949,
          "velocity": 0.7874015748031497,
          "duration": 0.002403843749988255
        },
        {
          "name": "C2",
          "midi": 36,
          "time": 226.6151579999949,
          "velocity": 0.9763779527559056,
          "duration": 0.002403843749988255
        },
        {
          "name": "D2",
          "midi": 38,
          "time": 226.6151579999949,
          "velocity": 0.8818897637795275,
          "duration": 0.002403843749988255
        },
        {
          "name": "A#2",
          "midi": 46,
          "time": 226.84592699999487,
          "velocity": 0.9133858267716536,
          "duration": 0.002403843749988255
        },
        {
          "name": "C2",
          "midi": 36,
          "time": 227.07669599999485,
          "velocity": 0.9763779527559056,
          "duration": 0.002403843749988255
        },
        {
          "name": "F#2",
          "midi": 42,
          "time": 227.30746499999483,
          "velocity": 0.7874015748031497,
          "duration": 0.002403843749988255
        },
        {
          "name": "C2",
          "midi": 36,
          "time": 227.53823399999482,
          "velocity": 0.9763779527559056,
          "duration": 0.002403843749988255
        },
        {
          "name": "D2",
          "midi": 38,
          "time": 227.53823399999482,
          "velocity": 0.8818897637795275,
          "duration": 0.002403843749988255
        },
        {
          "name": "F#2",
          "midi": 42,
          "time": 227.7690029999948,
          "velocity": 0.9133858267716536,
          "duration": 0.002403843749988255
        },
        {
          "name": "C2",
          "midi": 36,
          "time": 227.99977199999478,
          "velocity": 0.8818897637795275,
          "duration": 0.002403843749988255
        },
        {
          "name": "F#2",
          "midi": 42,
          "time": 228.23054099999476,
          "velocity": 0.6535433070866141,
          "duration": 0.002403843749988255
        },
        {
          "name": "C2",
          "midi": 36,
          "time": 228.46130999999474,
          "velocity": 0.9763779527559056,
          "duration": 0.002403843749988255
        },
        {
          "name": "D2",
          "midi": 38,
          "time": 228.46130999999474,
          "velocity": 0.9763779527559056,
          "duration": 0.002403843749988255
        },
        {
          "name": "A#2",
          "midi": 46,
          "time": 228.69207899999472,
          "velocity": 0.9133858267716536,
          "duration": 0.002403843749988255
        },
        {
          "name": "C2",
          "midi": 36,
          "time": 228.9228479999947,
          "velocity": 0.9763779527559056,
          "duration": 0.002403843749988255
        },
        {
          "name": "F#2",
          "midi": 42,
          "time": 229.15361699999468,
          "velocity": 0.3464566929133858,
          "duration": 0.002403843749988255
        },
        {
          "name": "C2",
          "midi": 36,
          "time": 229.38438599999466,
          "velocity": 0.9763779527559056,
          "duration": 0.002403843749988255
        },
        {
          "name": "D2",
          "midi": 38,
          "time": 229.38438599999466,
          "velocity": 0.8818897637795275,
          "duration": 0.002403843749988255
        },
        {
          "name": "F#2",
          "midi": 42,
          "time": 229.61515499999464,
          "velocity": 0.7874015748031497,
          "duration": 0.002403843749988255
        },
        {
          "name": "C2",
          "midi": 36,
          "time": 229.84592399999462,
          "velocity": 0.8818897637795275,
          "duration": 0.002403843749988255
        },
        {
          "name": "F#2",
          "midi": 42,
          "time": 230.0766929999946,
          "velocity": 0.7874015748031497,
          "duration": 0.002403843749988255
        },
        {
          "name": "C2",
          "midi": 36,
          "time": 230.3074619999946,
          "velocity": 0.9763779527559056,
          "duration": 0.002403843749988255
        },
        {
          "name": "D2",
          "midi": 38,
          "time": 230.3074619999946,
          "velocity": 0.8818897637795275,
          "duration": 0.002403843749988255
        },
        {
          "name": "A#2",
          "midi": 46,
          "time": 230.53823099999457,
          "velocity": 0.9133858267716536,
          "duration": 0.002403843749988255
        },
        {
          "name": "C2",
          "midi": 36,
          "time": 230.76899999999455,
          "velocity": 0.9763779527559056,
          "duration": 0.002403843749988255
        },
        {
          "name": "F#2",
          "midi": 42,
          "time": 230.99976899999453,
          "velocity": 0.6535433070866141,
          "duration": 0.002403843749988255
        },
        {
          "name": "C2",
          "midi": 36,
          "time": 231.2305379999945,
          "velocity": 0.9763779527559056,
          "duration": 0.002403843749988255
        },
        {
          "name": "D2",
          "midi": 38,
          "time": 231.2305379999945,
          "velocity": 0.7480314960629921,
          "duration": 0.002403843749988255
        },
        {
          "name": "F#2",
          "midi": 42,
          "time": 231.4613069999945,
          "velocity": 0.6535433070866141,
          "duration": 0.002403843749988255
        },
        {
          "name": "C2",
          "midi": 36,
          "time": 231.69207599999447,
          "velocity": 0.9763779527559056,
          "duration": 0.002403843749988255
        },
        {
          "name": "F#2",
          "midi": 42,
          "time": 231.92284499999445,
          "velocity": 0.7874015748031497,
          "duration": 0.002403843749988255
        },
        {
          "name": "C2",
          "midi": 36,
          "time": 232.15361399999443,
          "velocity": 0.9763779527559056,
          "duration": 0.002403843749988255
        },
        {
          "name": "D2",
          "midi": 38,
          "time": 232.15361399999443,
          "velocity": 0.8818897637795275,
          "duration": 0.002403843749988255
        },
        {
          "name": "A#2",
          "midi": 46,
          "time": 232.38438299999441,
          "velocity": 0.9133858267716536,
          "duration": 0.002403843749988255
        },
        {
          "name": "C2",
          "midi": 36,
          "time": 232.6151519999944,
          "velocity": 0.9763779527559056,
          "duration": 0.002403843749988255
        },
        {
          "name": "F#2",
          "midi": 42,
          "time": 232.84592099999438,
          "velocity": 0.5590551181102362,
          "duration": 0.002403843749988255
        },
        {
          "name": "C2",
          "midi": 36,
          "time": 233.07668999999436,
          "velocity": 0.9763779527559056,
          "duration": 0.002403843749988255
        },
        {
          "name": "D2",
          "midi": 38,
          "time": 233.07668999999436,
          "velocity": 0.9763779527559056,
          "duration": 0.002403843749988255
        },
        {
          "name": "F#2",
          "midi": 42,
          "time": 233.30745899999434,
          "velocity": 0.7874015748031497,
          "duration": 0.002403843749988255
        },
        {
          "name": "C2",
          "midi": 36,
          "time": 233.53822799999432,
          "velocity": 0.8818897637795275,
          "duration": 0.002403843749988255
        },
        {
          "name": "F#2",
          "midi": 42,
          "time": 233.7689969999943,
          "velocity": 0.7874015748031497,
          "duration": 0.002403843749988255
        },
        {
          "name": "C2",
          "midi": 36,
          "time": 233.99976599999428,
          "velocity": 0.9763779527559056,
          "duration": 0.002403843749988255
        },
        {
          "name": "D2",
          "midi": 38,
          "time": 233.99976599999428,
          "velocity": 0.7480314960629921,
          "duration": 0.002403843749988255
        },
        {
          "name": "A#2",
          "midi": 46,
          "time": 234.23053499999426,
          "velocity": 0.9133858267716536,
          "duration": 0.002403843749988255
        },
        {
          "name": "C2",
          "midi": 36,
          "time": 234.46130399999424,
          "velocity": 0.9763779527559056,
          "duration": 0.002403843749988255
        },
        {
          "name": "F#2",
          "midi": 42,
          "time": 234.69207299999422,
          "velocity": 0.5590551181102362,
          "duration": 0.002403843749988255
        },
        {
          "name": "C2",
          "midi": 36,
          "time": 234.9228419999942,
          "velocity": 0.9763779527559056,
          "duration": 0.002403843749988255
        },
        {
          "name": "D2",
          "midi": 38,
          "time": 234.9228419999942,
          "velocity": 0.9763779527559056,
          "duration": 0.002403843749988255
        },
        {
          "name": "F#2",
          "midi": 42,
          "time": 235.15361099999419,
          "velocity": 0.5590551181102362,
          "duration": 0.002403843749988255
        },
        {
          "name": "C2",
          "midi": 36,
          "time": 235.38437999999417,
          "velocity": 0.9763779527559056,
          "duration": 0.002403843749988255
        },
        {
          "name": "F#2",
          "midi": 42,
          "time": 235.61514899999415,
          "velocity": 0.5590551181102362,
          "duration": 0.002403843749988255
        },
        {
          "name": "C2",
          "midi": 36,
          "time": 235.84591799999413,
          "velocity": 0.9763779527559056,
          "duration": 0.002403843749988255
        },
        {
          "name": "D2",
          "midi": 38,
          "time": 235.84591799999413,
          "velocity": 0.9763779527559056,
          "duration": 0.002403843749988255
        },
        {
          "name": "A#2",
          "midi": 46,
          "time": 236.0766869999941,
          "velocity": 0.7874015748031497,
          "duration": 0.002403843749988255
        },
        {
          "name": "C2",
          "midi": 36,
          "time": 236.3074559999941,
          "velocity": 0.9763779527559056,
          "duration": 0.002403843749988255
        },
        {
          "name": "F#2",
          "midi": 42,
          "time": 236.53822499999407,
          "velocity": 0.6535433070866141,
          "duration": 0.002403843749988255
        },
        {
          "name": "C2",
          "midi": 36,
          "time": 236.76899399999405,
          "velocity": 0.9763779527559056,
          "duration": 0.002403843749988255
        },
        {
          "name": "D2",
          "midi": 38,
          "time": 236.76899399999405,
          "velocity": 0.9763779527559056,
          "duration": 0.002403843749988255
        },
        {
          "name": "A#2",
          "midi": 46,
          "time": 236.99976299999403,
          "velocity": 0.9133858267716536,
          "duration": 0.002403843749988255
        },
        {
          "name": "C2",
          "midi": 36,
          "time": 237.230531999994,
          "velocity": 0.9763779527559056,
          "duration": 0.002403843749988255
        },
        {
          "name": "F#2",
          "midi": 42,
          "time": 237.461300999994,
          "velocity": 0.6535433070866141,
          "duration": 0.002403843749988255
        },
        {
          "name": "C2",
          "midi": 36,
          "time": 237.69206999999398,
          "velocity": 0.9763779527559056,
          "duration": 0.002403843749988255
        },
        {
          "name": "D2",
          "midi": 38,
          "time": 237.69206999999398,
          "velocity": 0.8818897637795275,
          "duration": 0.002403843749988255
        },
        {
          "name": "A#2",
          "midi": 46,
          "time": 237.92283899999396,
          "velocity": 0.7874015748031497,
          "duration": 0.002403843749988255
        },
        {
          "name": "C2",
          "midi": 36,
          "time": 238.15360799999394,
          "velocity": 0.9763779527559056,
          "duration": 0.002403843749988255
        },
        {
          "name": "F#2",
          "midi": 42,
          "time": 238.38437699999392,
          "velocity": 0.48031496062992124,
          "duration": 0.002403843749988255
        },
        {
          "name": "C2",
          "midi": 36,
          "time": 238.6151459999939,
          "velocity": 0.9763779527559056,
          "duration": 0.002403843749988255
        },
        {
          "name": "D2",
          "midi": 38,
          "time": 238.6151459999939,
          "velocity": 0.9763779527559056,
          "duration": 0.002403843749988255
        },
        {
          "name": "F#2",
          "midi": 42,
          "time": 238.84591499999388,
          "velocity": 0.6535433070866141,
          "duration": 0.002403843749988255
        },
        {
          "name": "C2",
          "midi": 36,
          "time": 239.07668399999386,
          "velocity": 0.9763779527559056,
          "duration": 0.002403843749988255
        },
        {
          "name": "F#2",
          "midi": 42,
          "time": 239.30745299999384,
          "velocity": 0.6535433070866141,
          "duration": 0.002403843749988255
        },
        {
          "name": "C2",
          "midi": 36,
          "time": 239.53822199999382,
          "velocity": 0.9763779527559056,
          "duration": 0.002403843749988255
        },
        {
          "name": "D2",
          "midi": 38,
          "time": 239.53822199999382,
          "velocity": 0.9763779527559056,
          "duration": 0.002403843749988255
        },
        {
          "name": "A#2",
          "midi": 46,
          "time": 239.7689909999938,
          "velocity": 0.7874015748031497,
          "duration": 0.002403843749988255
        },
        {
          "name": "C2",
          "midi": 36,
          "time": 239.99975999999378,
          "velocity": 0.9763779527559056,
          "duration": 0.002403843749988255
        },
        {
          "name": "F#2",
          "midi": 42,
          "time": 240.23052899999377,
          "velocity": 0.7874015748031497,
          "duration": 0.002403843749988255
        },
        {
          "name": "C2",
          "midi": 36,
          "time": 240.46129799999375,
          "velocity": 0.9763779527559056,
          "duration": 0.002403843749988255
        },
        {
          "name": "D2",
          "midi": 38,
          "time": 240.46129799999375,
          "velocity": 0.9763779527559056,
          "duration": 0.002403843749988255
        },
        {
          "name": "F#2",
          "midi": 42,
          "time": 240.69206699999373,
          "velocity": 0.9133858267716536,
          "duration": 0.002403843749988255
        },
        {
          "name": "C2",
          "midi": 36,
          "time": 240.9228359999937,
          "velocity": 0.8818897637795275,
          "duration": 0.002403843749988255
        },
        {
          "name": "F#2",
          "midi": 42,
          "time": 241.1536049999937,
          "velocity": 0.6535433070866141,
          "duration": 0.002403843749988255
        },
        {
          "name": "C2",
          "midi": 36,
          "time": 241.38437399999367,
          "velocity": 0.9763779527559056,
          "duration": 0.002403843749988255
        },
        {
          "name": "D2",
          "midi": 38,
          "time": 241.38437399999367,
          "velocity": 0.9763779527559056,
          "duration": 0.002403843749988255
        },
        {
          "name": "A#2",
          "midi": 46,
          "time": 241.61514299999365,
          "velocity": 0.9133858267716536,
          "duration": 0.002403843749988255
        },
        {
          "name": "C2",
          "midi": 36,
          "time": 241.84591199999363,
          "velocity": 0.9763779527559056,
          "duration": 0.002403843749988255
        },
        {
          "name": "F#2",
          "midi": 42,
          "time": 242.0766809999936,
          "velocity": 0.5590551181102362,
          "duration": 0.002403843749988255
        },
        {
          "name": "C2",
          "midi": 36,
          "time": 242.3074499999936,
          "velocity": 0.9763779527559056,
          "duration": 0.002403843749988255
        },
        {
          "name": "D2",
          "midi": 38,
          "time": 242.3074499999936,
          "velocity": 0.8818897637795275,
          "duration": 0.002403843749988255
        },
        {
          "name": "F#2",
          "midi": 42,
          "time": 242.53821899999357,
          "velocity": 0.5590551181102362,
          "duration": 0.002403843749988255
        },
        {
          "name": "C2",
          "midi": 36,
          "time": 242.76898799999356,
          "velocity": 0.9763779527559056,
          "duration": 0.002403843749988255
        },
        {
          "name": "F#2",
          "midi": 42,
          "time": 242.99975699999354,
          "velocity": 0.6535433070866141,
          "duration": 0.002403843749988255
        },
        {
          "name": "C2",
          "midi": 36,
          "time": 243.23052599999352,
          "velocity": 0.9763779527559056,
          "duration": 0.002403843749988255
        },
        {
          "name": "D2",
          "midi": 38,
          "time": 243.23052599999352,
          "velocity": 0.9763779527559056,
          "duration": 0.002403843749988255
        },
        {
          "name": "A#2",
          "midi": 46,
          "time": 243.4612949999935,
          "velocity": 0.9133858267716536,
          "duration": 0.002403843749988255
        },
        {
          "name": "C2",
          "midi": 36,
          "time": 243.69206399999348,
          "velocity": 0.9763779527559056,
          "duration": 0.002403843749988255
        },
        {
          "name": "F#2",
          "midi": 42,
          "time": 243.92283299999346,
          "velocity": 0.7874015748031497,
          "duration": 0.002403843749988255
        },
        {
          "name": "C2",
          "midi": 36,
          "time": 244.15360199999344,
          "velocity": 0.9763779527559056,
          "duration": 0.002403843749988255
        },
        {
          "name": "D2",
          "midi": 38,
          "time": 244.15360199999344,
          "velocity": 0.8818897637795275,
          "duration": 0.002403843749988255
        },
        {
          "name": "F#2",
          "midi": 42,
          "time": 244.38437099999342,
          "velocity": 0.7874015748031497,
          "duration": 0.002403843749988255
        },
        {
          "name": "C2",
          "midi": 36,
          "time": 244.6151399999934,
          "velocity": 0.9763779527559056,
          "duration": 0.002403843749988255
        },
        {
          "name": "D2",
          "midi": 38,
          "time": 244.6151399999934,
          "velocity": 0.8818897637795275,
          "duration": 0.002403843749988255
        },
        {
          "name": "C2",
          "midi": 36,
          "time": 244.84590899999338,
          "velocity": 0.9763779527559056,
          "duration": 0.002403843749988255
        },
        {
          "name": "D2",
          "midi": 38,
          "time": 244.84590899999338,
          "velocity": 0.8818897637795275,
          "duration": 0.002403843749988255
        },
        {
          "name": "C2",
          "midi": 36,
          "time": 245.30744699999337,
          "velocity": 0.9763779527559056,
          "duration": 0.002403843749988255
        },
        {
          "name": "D2",
          "midi": 38,
          "time": 245.30744699999337,
          "velocity": 0.8818897637795275,
          "duration": 0.002403843749988255
        }
      ],
      "controlChanges": {
        "1": [
          {
            "number": 1,
            "time": 0.019230749999999994,
            "value": 0
          }
        ],
        "6": [
          {
            "number": 6,
            "time": 0.014423062499999997,
            "value": 0.09448818897637795
          }
        ],
        "7": [
          {
            "number": 7,
            "time": 1.394229375,
            "value": 0.8661417322834646
          }
        ],
        "10": [
          {
            "number": 10,
            "time": 1.3990370625000002,
            "value": 0.5039370078740157
          }
        ],
        "11": [
          {
            "number": 11,
            "time": 0.016826906249999996,
            "value": 1
          },
          {
            "number": 11,
            "time": 0.024038437499999996,
            "value": 1
          },
          {
            "number": 11,
            "time": 1.4038447500000002,
            "value": 1
          }
        ],
        "64": [
          {
            "number": 64,
            "time": 0.007211531249999999,
            "value": 0
          }
        ],
        "67": [
          {
            "number": 67,
            "time": 0.0048076874999999995,
            "value": 0
          }
        ],
        "91": [
          {
            "number": 91,
            "time": 1.4086524375000002,
            "value": 0.5039370078740157
          }
        ],
        "93": [
          {
            "number": 93,
            "time": 1.4134601250000003,
            "value": 0
          }
        ],
        "100": [
          {
            "number": 100,
            "time": 0.009615374999999999,
            "value": 0
          }
        ],
        "101": [
          {
            "number": 101,
            "time": 0.012019218749999998,
            "value": 0
          }
        ],
        "121": [
          {
            "number": 121,
            "time": 0,
            "value": 0
          }
        ]
      },
      "id": 1,
      "name": "Drums               ",
      "instrumentNumber": 0,
      "instrument": "standard kit",
      "instrumentFamily": "drums",
      "channelNumber": 9,
      "isPercussion": true
    },
    {
      "startTime": 7.846145999999999,
      "duration": 245.07908184374818,
      "length": 258,
      "notes": [
        {
          "name": "D#2",
          "midi": 39,
          "time": 7.846145999999999,
          "velocity": 0.6929133858267716,
          "duration": 0.002403843749999801
        },
        {
          "name": "D#2",
          "midi": 39,
          "time": 8.769222,
          "velocity": 0.6929133858267716,
          "duration": 0.0024038437500006893
        },
        {
          "name": "D#2",
          "midi": 39,
          "time": 9.692298,
          "velocity": 0.6929133858267716,
          "duration": 0.0024038437500006893
        },
        {
          "name": "D#2",
          "midi": 39,
          "time": 10.615374,
          "velocity": 0.6929133858267716,
          "duration": 0.0024038437500006893
        },
        {
          "name": "D#2",
          "midi": 39,
          "time": 11.53845,
          "velocity": 0.6929133858267716,
          "duration": 0.0024038437500006893
        },
        {
          "name": "D#2",
          "midi": 39,
          "time": 12.461526,
          "velocity": 0.6929133858267716,
          "duration": 0.0024038437500006893
        },
        {
          "name": "D#2",
          "midi": 39,
          "time": 13.384602,
          "velocity": 0.6929133858267716,
          "duration": 0.0024038437500006893
        },
        {
          "name": "D#2",
          "midi": 39,
          "time": 14.307678,
          "velocity": 0.6929133858267716,
          "duration": 0.0024038437500006893
        },
        {
          "name": "D#2",
          "midi": 39,
          "time": 15.230754,
          "velocity": 0.6929133858267716,
          "duration": 0.0024038437500006893
        },
        {
          "name": "D#2",
          "midi": 39,
          "time": 16.15383,
          "velocity": 0.6929133858267716,
          "duration": 0.002403843749998913
        },
        {
          "name": "D#2",
          "midi": 39,
          "time": 17.076905999999997,
          "velocity": 0.6929133858267716,
          "duration": 0.002403843749998913
        },
        {
          "name": "D#2",
          "midi": 39,
          "time": 17.999981999999996,
          "velocity": 0.6929133858267716,
          "duration": 0.002403843749998913
        },
        {
          "name": "D#2",
          "midi": 39,
          "time": 18.923057999999994,
          "velocity": 0.6929133858267716,
          "duration": 0.002403843749998913
        },
        {
          "name": "D#2",
          "midi": 39,
          "time": 19.846133999999992,
          "velocity": 0.6929133858267716,
          "duration": 0.002403843749998913
        },
        {
          "name": "D#2",
          "midi": 39,
          "time": 20.76920999999999,
          "velocity": 0.6929133858267716,
          "duration": 0.002403843749998913
        },
        {
          "name": "D#2",
          "midi": 39,
          "time": 21.69228599999999,
          "velocity": 0.6929133858267716,
          "duration": 0.002403843749998913
        },
        {
          "name": "D#2",
          "midi": 39,
          "time": 22.615361999999987,
          "velocity": 0.6929133858267716,
          "duration": 0.002403843749998913
        },
        {
          "name": "D#2",
          "midi": 39,
          "time": 23.538437999999985,
          "velocity": 0.6929133858267716,
          "duration": 0.002403843749998913
        },
        {
          "name": "D#2",
          "midi": 39,
          "time": 24.461513999999983,
          "velocity": 0.6929133858267716,
          "duration": 0.002403843749998913
        },
        {
          "name": "D#2",
          "midi": 39,
          "time": 25.38458999999998,
          "velocity": 0.6929133858267716,
          "duration": 0.002403843749998913
        },
        {
          "name": "D#2",
          "midi": 39,
          "time": 26.30766599999998,
          "velocity": 0.6929133858267716,
          "duration": 0.002403843749998913
        },
        {
          "name": "D#2",
          "midi": 39,
          "time": 27.230741999999978,
          "velocity": 0.6929133858267716,
          "duration": 0.002403843749998913
        },
        {
          "name": "D#2",
          "midi": 39,
          "time": 28.153817999999976,
          "velocity": 0.6929133858267716,
          "duration": 0.002403843749998913
        },
        {
          "name": "D#2",
          "midi": 39,
          "time": 29.076893999999974,
          "velocity": 0.6929133858267716,
          "duration": 0.002403843749998913
        },
        {
          "name": "D#2",
          "midi": 39,
          "time": 29.999969999999973,
          "velocity": 0.6929133858267716,
          "duration": 0.002403843749998913
        },
        {
          "name": "D#2",
          "midi": 39,
          "time": 30.92304599999997,
          "velocity": 0.6929133858267716,
          "duration": 0.002403843749998913
        },
        {
          "name": "D#2",
          "midi": 39,
          "time": 31.84612199999997,
          "velocity": 0.6929133858267716,
          "duration": 0.002403843749998913
        },
        {
          "name": "D#2",
          "midi": 39,
          "time": 32.76919799999997,
          "velocity": 0.6929133858267716,
          "duration": 0.0024038437500024656
        },
        {
          "name": "D#2",
          "midi": 39,
          "time": 33.69227399999997,
          "velocity": 0.6929133858267716,
          "duration": 0.0024038437500024656
        },
        {
          "name": "D#2",
          "midi": 39,
          "time": 34.61534999999997,
          "velocity": 0.6929133858267716,
          "duration": 0.0024038437500024656
        },
        {
          "name": "D#2",
          "midi": 39,
          "time": 35.53842599999997,
          "velocity": 0.6929133858267716,
          "duration": 0.0024038437500024656
        },
        {
          "name": "D#2",
          "midi": 39,
          "time": 36.461501999999975,
          "velocity": 0.6929133858267716,
          "duration": 0.0024038437500024656
        },
        {
          "name": "D#2",
          "midi": 39,
          "time": 37.384577999999976,
          "velocity": 0.6929133858267716,
          "duration": 0.0024038437500024656
        },
        {
          "name": "D#2",
          "midi": 39,
          "time": 38.30765399999998,
          "velocity": 0.6929133858267716,
          "duration": 0.0024038437500024656
        },
        {
          "name": "D#2",
          "midi": 39,
          "time": 39.23072999999998,
          "velocity": 0.6929133858267716,
          "duration": 0.0024038437500024656
        },
        {
          "name": "D#2",
          "midi": 39,
          "time": 40.15380599999998,
          "velocity": 0.6929133858267716,
          "duration": 0.0024038437500024656
        },
        {
          "name": "D#2",
          "midi": 39,
          "time": 41.07688199999998,
          "velocity": 0.6929133858267716,
          "duration": 0.0024038437500024656
        },
        {
          "name": "D#2",
          "midi": 39,
          "time": 41.999957999999985,
          "velocity": 0.6929133858267716,
          "duration": 0.0024038437500024656
        },
        {
          "name": "D#2",
          "midi": 39,
          "time": 42.92303399999999,
          "velocity": 0.6929133858267716,
          "duration": 0.0024038437500024656
        },
        {
          "name": "D#2",
          "midi": 39,
          "time": 43.84610999999999,
          "velocity": 0.6929133858267716,
          "duration": 0.0024038437500024656
        },
        {
          "name": "D#2",
          "midi": 39,
          "time": 44.76918599999999,
          "velocity": 0.6929133858267716,
          "duration": 0.0024038437500024656
        },
        {
          "name": "D#2",
          "midi": 39,
          "time": 45.69226199999999,
          "velocity": 0.6929133858267716,
          "duration": 0.0024038437500024656
        },
        {
          "name": "D#2",
          "midi": 39,
          "time": 46.615337999999994,
          "velocity": 0.6929133858267716,
          "duration": 0.0024038437500024656
        },
        {
          "name": "D#2",
          "midi": 39,
          "time": 47.538413999999996,
          "velocity": 0.6929133858267716,
          "duration": 0.0024038437500024656
        },
        {
          "name": "D#2",
          "midi": 39,
          "time": 48.46149,
          "velocity": 0.6929133858267716,
          "duration": 0.0024038437500024656
        },
        {
          "name": "D#2",
          "midi": 39,
          "time": 49.384566,
          "velocity": 0.6929133858267716,
          "duration": 0.0024038437500024656
        },
        {
          "name": "D#2",
          "midi": 39,
          "time": 50.307642,
          "velocity": 0.6929133858267716,
          "duration": 0.0024038437500024656
        },
        {
          "name": "D#2",
          "midi": 39,
          "time": 51.230718,
          "velocity": 0.6929133858267716,
          "duration": 0.0024038437500024656
        },
        {
          "name": "D#2",
          "midi": 39,
          "time": 52.153794000000005,
          "velocity": 0.6929133858267716,
          "duration": 0.0024038437500024656
        },
        {
          "name": "D#2",
          "midi": 39,
          "time": 53.07687000000001,
          "velocity": 0.6929133858267716,
          "duration": 0.0024038437500024656
        },
        {
          "name": "D#2",
          "midi": 39,
          "time": 53.99994600000001,
          "velocity": 0.6929133858267716,
          "duration": 0.0024038437500024656
        },
        {
          "name": "D#2",
          "midi": 39,
          "time": 54.92302200000001,
          "velocity": 0.6929133858267716,
          "duration": 0.0024038437500024656
        },
        {
          "name": "D#2",
          "midi": 39,
          "time": 55.84609800000001,
          "velocity": 0.6929133858267716,
          "duration": 0.0024038437500024656
        },
        {
          "name": "D#2",
          "midi": 39,
          "time": 56.769174000000014,
          "velocity": 0.6929133858267716,
          "duration": 0.0024038437500024656
        },
        {
          "name": "D#2",
          "midi": 39,
          "time": 57.692250000000016,
          "velocity": 0.6929133858267716,
          "duration": 0.0024038437500024656
        },
        {
          "name": "D#2",
          "midi": 39,
          "time": 58.61532600000002,
          "velocity": 0.6929133858267716,
          "duration": 0.0024038437500024656
        },
        {
          "name": "D#2",
          "midi": 39,
          "time": 59.53840200000002,
          "velocity": 0.6929133858267716,
          "duration": 0.0024038437500024656
        },
        {
          "name": "D#2",
          "midi": 39,
          "time": 60.46147800000002,
          "velocity": 0.6929133858267716,
          "duration": 0.0024038437500024656
        },
        {
          "name": "D#2",
          "midi": 39,
          "time": 61.38455400000002,
          "velocity": 0.6929133858267716,
          "duration": 0.0024038437500024656
        },
        {
          "name": "D#2",
          "midi": 39,
          "time": 62.307630000000024,
          "velocity": 0.6929133858267716,
          "duration": 0.0024038437500024656
        },
        {
          "name": "D#2",
          "midi": 39,
          "time": 63.230706000000026,
          "velocity": 0.6929133858267716,
          "duration": 0.0024038437500024656
        },
        {
          "name": "D#2",
          "midi": 39,
          "time": 64.15378200000004,
          "velocity": 0.6929133858267716,
          "duration": 0.0024038437500024656
        },
        {
          "name": "D#2",
          "midi": 39,
          "time": 65.07685800000004,
          "velocity": 0.6929133858267716,
          "duration": 0.0024038437500024656
        },
        {
          "name": "D#2",
          "midi": 39,
          "time": 65.99993400000005,
          "velocity": 0.6929133858267716,
          "duration": 0.0024038437500024656
        },
        {
          "name": "D#2",
          "midi": 39,
          "time": 66.92301000000006,
          "velocity": 0.6929133858267716,
          "duration": 0.0024038437500024656
        },
        {
          "name": "D#2",
          "midi": 39,
          "time": 67.84608600000007,
          "velocity": 0.6929133858267716,
          "duration": 0.0024038437500024656
        },
        {
          "name": "D#2",
          "midi": 39,
          "time": 68.76916200000008,
          "velocity": 0.6929133858267716,
          "duration": 0.0024038437500024656
        },
        {
          "name": "D#2",
          "midi": 39,
          "time": 69.69223800000009,
          "velocity": 0.6929133858267716,
          "duration": 0.0024038437500024656
        },
        {
          "name": "D#2",
          "midi": 39,
          "time": 70.6153140000001,
          "velocity": 0.6929133858267716,
          "duration": 0.0024038437500024656
        },
        {
          "name": "D#2",
          "midi": 39,
          "time": 71.5383900000001,
          "velocity": 0.6929133858267716,
          "duration": 0.0024038437500024656
        },
        {
          "name": "D#2",
          "midi": 39,
          "time": 72.46146600000012,
          "velocity": 0.6929133858267716,
          "duration": 0.0024038437500024656
        },
        {
          "name": "D#2",
          "midi": 39,
          "time": 73.38454200000012,
          "velocity": 0.6929133858267716,
          "duration": 0.0024038437500024656
        },
        {
          "name": "D#2",
          "midi": 39,
          "time": 74.30761800000013,
          "velocity": 0.6929133858267716,
          "duration": 0.0024038437500024656
        },
        {
          "name": "D#2",
          "midi": 39,
          "time": 75.23069400000014,
          "velocity": 0.6929133858267716,
          "duration": 0.0024038437500024656
        },
        {
          "name": "D#2",
          "midi": 39,
          "time": 76.15377000000015,
          "velocity": 0.6929133858267716,
          "duration": 0.0024038437500024656
        },
        {
          "name": "D#2",
          "midi": 39,
          "time": 77.07684600000016,
          "velocity": 0.6929133858267716,
          "duration": 0.0024038437500024656
        },
        {
          "name": "D#2",
          "midi": 39,
          "time": 77.99992200000017,
          "velocity": 0.6929133858267716,
          "duration": 0.0024038437500024656
        },
        {
          "name": "D#2",
          "midi": 39,
          "time": 78.92299800000018,
          "velocity": 0.6929133858267716,
          "duration": 0.0024038437500024656
        },
        {
          "name": "D#2",
          "midi": 39,
          "time": 79.84607400000019,
          "velocity": 0.6929133858267716,
          "duration": 0.0024038437500024656
        },
        {
          "name": "D#2",
          "midi": 39,
          "time": 80.7691500000002,
          "velocity": 0.6929133858267716,
          "duration": 0.0024038437500024656
        },
        {
          "name": "D#2",
          "midi": 39,
          "time": 81.6922260000002,
          "velocity": 0.6929133858267716,
          "duration": 0.0024038437500024656
        },
        {
          "name": "D#2",
          "midi": 39,
          "time": 82.61530200000021,
          "velocity": 0.6929133858267716,
          "duration": 0.0024038437500024656
        },
        {
          "name": "D#2",
          "midi": 39,
          "time": 83.53837800000022,
          "velocity": 0.6929133858267716,
          "duration": 0.0024038437500024656
        },
        {
          "name": "D#2",
          "midi": 39,
          "time": 84.46145400000023,
          "velocity": 0.6929133858267716,
          "duration": 0.0024038437500024656
        },
        {
          "name": "D#2",
          "midi": 39,
          "time": 85.38453000000024,
          "velocity": 0.6929133858267716,
          "duration": 0.0024038437500024656
        },
        {
          "name": "D#2",
          "midi": 39,
          "time": 86.30760600000025,
          "velocity": 0.6929133858267716,
          "duration": 0.0024038437500024656
        },
        {
          "name": "D#2",
          "midi": 39,
          "time": 87.23068200000026,
          "velocity": 0.6929133858267716,
          "duration": 0.0024038437500024656
        },
        {
          "name": "D#2",
          "midi": 39,
          "time": 88.15375800000027,
          "velocity": 0.6929133858267716,
          "duration": 0.0024038437500024656
        },
        {
          "name": "D#2",
          "midi": 39,
          "time": 89.07683400000028,
          "velocity": 0.6929133858267716,
          "duration": 0.0024038437500024656
        },
        {
          "name": "D#2",
          "midi": 39,
          "time": 89.99991000000028,
          "velocity": 0.6929133858267716,
          "duration": 0.0024038437500024656
        },
        {
          "name": "D#2",
          "midi": 39,
          "time": 90.9229860000003,
          "velocity": 0.6929133858267716,
          "duration": 0.0024038437500024656
        },
        {
          "name": "D#2",
          "midi": 39,
          "time": 91.8460620000003,
          "velocity": 0.6929133858267716,
          "duration": 0.0024038437500024656
        },
        {
          "name": "D#2",
          "midi": 39,
          "time": 92.76913800000031,
          "velocity": 0.6929133858267716,
          "duration": 0.0024038437500024656
        },
        {
          "name": "D#2",
          "midi": 39,
          "time": 93.69221400000032,
          "velocity": 0.6929133858267716,
          "duration": 0.0024038437500024656
        },
        {
          "name": "D#2",
          "midi": 39,
          "time": 94.61529000000033,
          "velocity": 0.6929133858267716,
          "duration": 0.0024038437500024656
        },
        {
          "name": "D#2",
          "midi": 39,
          "time": 95.53836600000034,
          "velocity": 0.6929133858267716,
          "duration": 0.0024038437500024656
        },
        {
          "name": "D#2",
          "midi": 39,
          "time": 96.46144200000035,
          "velocity": 0.6929133858267716,
          "duration": 0.0024038437500024656
        },
        {
          "name": "D#2",
          "midi": 39,
          "time": 97.38451800000036,
          "velocity": 0.6929133858267716,
          "duration": 0.0024038437500024656
        },
        {
          "name": "D#2",
          "midi": 39,
          "time": 98.30759400000036,
          "velocity": 0.6929133858267716,
          "duration": 0.0024038437500024656
        },
        {
          "name": "D#2",
          "midi": 39,
          "time": 99.23067000000037,
          "velocity": 0.6929133858267716,
          "duration": 0.0024038437500024656
        },
        {
          "name": "D#2",
          "midi": 39,
          "time": 100.15374600000038,
          "velocity": 0.6929133858267716,
          "duration": 0.0024038437500024656
        },
        {
          "name": "D#2",
          "midi": 39,
          "time": 101.07682200000039,
          "velocity": 0.6929133858267716,
          "duration": 0.0024038437500024656
        },
        {
          "name": "D#2",
          "midi": 39,
          "time": 101.9998980000004,
          "velocity": 0.6929133858267716,
          "duration": 0.0024038437500024656
        },
        {
          "name": "D#2",
          "midi": 39,
          "time": 102.92297400000041,
          "velocity": 0.6929133858267716,
          "duration": 0.0024038437500024656
        },
        {
          "name": "D#2",
          "midi": 39,
          "time": 103.84605000000042,
          "velocity": 0.6929133858267716,
          "duration": 0.0024038437500024656
        },
        {
          "name": "D#2",
          "midi": 39,
          "time": 104.76912600000043,
          "velocity": 0.6929133858267716,
          "duration": 0.0024038437500024656
        },
        {
          "name": "D#2",
          "midi": 39,
          "time": 105.69220200000044,
          "velocity": 0.6929133858267716,
          "duration": 0.0024038437500024656
        },
        {
          "name": "D#2",
          "midi": 39,
          "time": 106.61527800000044,
          "velocity": 0.6929133858267716,
          "duration": 0.0024038437500024656
        },
        {
          "name": "D#2",
          "midi": 39,
          "time": 107.53835400000045,
          "velocity": 0.6929133858267716,
          "duration": 0.0024038437500024656
        },
        {
          "name": "D#2",
          "midi": 39,
          "time": 108.46143000000046,
          "velocity": 0.6929133858267716,
          "duration": 0.0024038437500024656
        },
        {
          "name": "D#2",
          "midi": 39,
          "time": 109.38450600000047,
          "velocity": 0.6929133858267716,
          "duration": 0.0024038437500024656
        },
        {
          "name": "D#2",
          "midi": 39,
          "time": 110.30758200000048,
          "velocity": 0.6929133858267716,
          "duration": 0.0024038437500024656
        },
        {
          "name": "D#2",
          "midi": 39,
          "time": 111.23065800000049,
          "velocity": 0.6929133858267716,
          "duration": 0.0024038437500024656
        },
        {
          "name": "D#2",
          "midi": 39,
          "time": 112.1537340000005,
          "velocity": 0.6929133858267716,
          "duration": 0.0024038437500024656
        },
        {
          "name": "D#2",
          "midi": 39,
          "time": 113.0768100000005,
          "velocity": 0.6929133858267716,
          "duration": 0.0024038437500024656
        },
        {
          "name": "D#2",
          "midi": 39,
          "time": 113.99988600000052,
          "velocity": 0.6929133858267716,
          "duration": 0.0024038437500024656
        },
        {
          "name": "D#2",
          "midi": 39,
          "time": 114.92296200000052,
          "velocity": 0.6929133858267716,
          "duration": 0.0024038437500024656
        },
        {
          "name": "D#2",
          "midi": 39,
          "time": 115.84603800000053,
          "velocity": 0.6929133858267716,
          "duration": 0.0024038437500024656
        },
        {
          "name": "D#2",
          "midi": 39,
          "time": 116.76911400000054,
          "velocity": 0.6929133858267716,
          "duration": 0.0024038437500024656
        },
        {
          "name": "D#2",
          "midi": 39,
          "time": 117.69219000000055,
          "velocity": 0.6929133858267716,
          "duration": 0.0024038437500024656
        },
        {
          "name": "D#2",
          "midi": 39,
          "time": 118.61526600000056,
          "velocity": 0.6929133858267716,
          "duration": 0.0024038437500024656
        },
        {
          "name": "D#2",
          "midi": 39,
          "time": 119.53834200000057,
          "velocity": 0.6929133858267716,
          "duration": 0.0024038437500024656
        },
        {
          "name": "D#2",
          "midi": 39,
          "time": 120.46141800000058,
          "velocity": 0.6929133858267716,
          "duration": 0.0024038437500024656
        },
        {
          "name": "D#2",
          "midi": 39,
          "time": 121.38449400000059,
          "velocity": 0.6929133858267716,
          "duration": 0.0024038437500024656
        },
        {
          "name": "D#2",
          "midi": 39,
          "time": 122.3075700000006,
          "velocity": 0.6929133858267716,
          "duration": 0.0024038437500024656
        },
        {
          "name": "D#2",
          "midi": 39,
          "time": 123.2306460000006,
          "velocity": 0.6929133858267716,
          "duration": 0.0024038437500024656
        },
        {
          "name": "D#2",
          "midi": 39,
          "time": 124.15372200000061,
          "velocity": 0.6929133858267716,
          "duration": 0.0024038437500024656
        },
        {
          "name": "D#2",
          "midi": 39,
          "time": 125.07679800000062,
          "velocity": 0.6929133858267716,
          "duration": 0.0024038437500024656
        },
        {
          "name": "D#2",
          "midi": 39,
          "time": 125.99987400000063,
          "velocity": 0.6929133858267716,
          "duration": 0.0024038437500024656
        },
        {
          "name": "D#2",
          "midi": 39,
          "time": 126.92295000000064,
          "velocity": 0.6929133858267716,
          "duration": 0.0024038437500024656
        },
        {
          "name": "D#2",
          "midi": 39,
          "time": 127.84602600000065,
          "velocity": 0.6929133858267716,
          "duration": 0.0024038437500024656
        },
        {
          "name": "D#2",
          "midi": 39,
          "time": 128.76910200000066,
          "velocity": 0.6929133858267716,
          "duration": 0.002403843749988255
        },
        {
          "name": "D#2",
          "midi": 39,
          "time": 129.69217800000064,
          "velocity": 0.6929133858267716,
          "duration": 0.002403843749988255
        },
        {
          "name": "D#2",
          "midi": 39,
          "time": 130.61525400000062,
          "velocity": 0.6929133858267716,
          "duration": 0.002403843749988255
        },
        {
          "name": "D#2",
          "midi": 39,
          "time": 131.5383300000006,
          "velocity": 0.6929133858267716,
          "duration": 0.002403843749988255
        },
        {
          "name": "D#2",
          "midi": 39,
          "time": 132.46140600000058,
          "velocity": 0.6929133858267716,
          "duration": 0.002403843749988255
        },
        {
          "name": "D#2",
          "midi": 39,
          "time": 133.38448200000056,
          "velocity": 0.6929133858267716,
          "duration": 0.002403843749988255
        },
        {
          "name": "D#2",
          "midi": 39,
          "time": 134.30755800000054,
          "velocity": 0.6929133858267716,
          "duration": 0.002403843749988255
        },
        {
          "name": "D#2",
          "midi": 39,
          "time": 135.23063400000052,
          "velocity": 0.6929133858267716,
          "duration": 0.002403843749988255
        },
        {
          "name": "D#2",
          "midi": 39,
          "time": 136.1537100000005,
          "velocity": 0.6929133858267716,
          "duration": 0.002403843749988255
        },
        {
          "name": "D#2",
          "midi": 39,
          "time": 137.07678600000048,
          "velocity": 0.6929133858267716,
          "duration": 0.002403843749988255
        },
        {
          "name": "D#2",
          "midi": 39,
          "time": 137.99986200000046,
          "velocity": 0.6929133858267716,
          "duration": 0.002403843749988255
        },
        {
          "name": "D#2",
          "midi": 39,
          "time": 138.92293800000044,
          "velocity": 0.6929133858267716,
          "duration": 0.002403843749988255
        },
        {
          "name": "D#2",
          "midi": 39,
          "time": 139.84601400000042,
          "velocity": 0.6929133858267716,
          "duration": 0.002403843749988255
        },
        {
          "name": "D#2",
          "midi": 39,
          "time": 140.7690900000004,
          "velocity": 0.6929133858267716,
          "duration": 0.002403843749988255
        },
        {
          "name": "D#2",
          "midi": 39,
          "time": 141.69216600000038,
          "velocity": 0.6929133858267716,
          "duration": 0.002403843749988255
        },
        {
          "name": "D#2",
          "midi": 39,
          "time": 142.61524200000036,
          "velocity": 0.6929133858267716,
          "duration": 0.002403843749988255
        },
        {
          "name": "D#2",
          "midi": 39,
          "time": 143.53831800000034,
          "velocity": 0.6929133858267716,
          "duration": 0.002403843749988255
        },
        {
          "name": "D#2",
          "midi": 39,
          "time": 144.46139400000033,
          "velocity": 0.6929133858267716,
          "duration": 0.002403843749988255
        },
        {
          "name": "D#2",
          "midi": 39,
          "time": 145.3844700000003,
          "velocity": 0.6929133858267716,
          "duration": 0.002403843749988255
        },
        {
          "name": "D#2",
          "midi": 39,
          "time": 146.3075460000003,
          "velocity": 0.6929133858267716,
          "duration": 0.002403843749988255
        },
        {
          "name": "D#2",
          "midi": 39,
          "time": 147.23062200000027,
          "velocity": 0.6929133858267716,
          "duration": 0.002403843749988255
        },
        {
          "name": "D#2",
          "midi": 39,
          "time": 148.15369800000025,
          "velocity": 0.6929133858267716,
          "duration": 0.002403843749988255
        },
        {
          "name": "D#2",
          "midi": 39,
          "time": 149.07677400000023,
          "velocity": 0.6929133858267716,
          "duration": 0.002403843749988255
        },
        {
          "name": "D#2",
          "midi": 39,
          "time": 149.9998500000002,
          "velocity": 0.6929133858267716,
          "duration": 0.002403843749988255
        },
        {
          "name": "D#2",
          "midi": 39,
          "time": 150.9229260000002,
          "velocity": 0.6929133858267716,
          "duration": 0.002403843749988255
        },
        {
          "name": "D#2",
          "midi": 39,
          "time": 151.84600200000017,
          "velocity": 0.6929133858267716,
          "duration": 0.002403843749988255
        },
        {
          "name": "D#2",
          "midi": 39,
          "time": 152.76907800000015,
          "velocity": 0.6929133858267716,
          "duration": 0.002403843749988255
        },
        {
          "name": "D#2",
          "midi": 39,
          "time": 153.69215400000013,
          "velocity": 0.6929133858267716,
          "duration": 0.002403843749988255
        },
        {
          "name": "D#2",
          "midi": 39,
          "time": 154.6152300000001,
          "velocity": 0.6929133858267716,
          "duration": 0.002403843749988255
        },
        {
          "name": "D#2",
          "midi": 39,
          "time": 155.5383060000001,
          "velocity": 0.6929133858267716,
          "duration": 0.002403843749988255
        },
        {
          "name": "D#2",
          "midi": 39,
          "time": 156.46138200000007,
          "velocity": 0.6929133858267716,
          "duration": 0.002403843749988255
        },
        {
          "name": "D#2",
          "midi": 39,
          "time": 157.38445800000005,
          "velocity": 0.6929133858267716,
          "duration": 0.002403843749988255
        },
        {
          "name": "D#2",
          "midi": 39,
          "time": 158.30753400000003,
          "velocity": 0.6929133858267716,
          "duration": 0.002403843749988255
        },
        {
          "name": "D#2",
          "midi": 39,
          "time": 159.23061,
          "velocity": 0.6929133858267716,
          "duration": 0.002403843749988255
        },
        {
          "name": "D#2",
          "midi": 39,
          "time": 160.153686,
          "velocity": 0.6929133858267716,
          "duration": 0.002403843749988255
        },
        {
          "name": "D#2",
          "midi": 39,
          "time": 161.07676199999997,
          "velocity": 0.6929133858267716,
          "duration": 0.002403843749988255
        },
        {
          "name": "D#2",
          "midi": 39,
          "time": 161.99983799999995,
          "velocity": 0.6929133858267716,
          "duration": 0.002403843749988255
        },
        {
          "name": "D#2",
          "midi": 39,
          "time": 162.92291399999993,
          "velocity": 0.6929133858267716,
          "duration": 0.002403843749988255
        },
        {
          "name": "D#2",
          "midi": 39,
          "time": 163.84598999999992,
          "velocity": 0.6929133858267716,
          "duration": 0.002403843749988255
        },
        {
          "name": "D#2",
          "midi": 39,
          "time": 164.7690659999999,
          "velocity": 0.6929133858267716,
          "duration": 0.002403843749988255
        },
        {
          "name": "D#2",
          "midi": 39,
          "time": 165.69214199999988,
          "velocity": 0.6929133858267716,
          "duration": 0.002403843749988255
        },
        {
          "name": "D#2",
          "midi": 39,
          "time": 166.61521799999986,
          "velocity": 0.6929133858267716,
          "duration": 0.002403843749988255
        },
        {
          "name": "D#2",
          "midi": 39,
          "time": 167.53829399999984,
          "velocity": 0.6929133858267716,
          "duration": 0.002403843749988255
        },
        {
          "name": "D#2",
          "midi": 39,
          "time": 168.46136999999982,
          "velocity": 0.6929133858267716,
          "duration": 0.002403843749988255
        },
        {
          "name": "D#2",
          "midi": 39,
          "time": 169.3844459999998,
          "velocity": 0.6929133858267716,
          "duration": 0.002403843749988255
        },
        {
          "name": "D#2",
          "midi": 39,
          "time": 170.30752199999978,
          "velocity": 0.6929133858267716,
          "duration": 0.002403843749988255
        },
        {
          "name": "D#2",
          "midi": 39,
          "time": 171.23059799999976,
          "velocity": 0.6929133858267716,
          "duration": 0.002403843749988255
        },
        {
          "name": "D#2",
          "midi": 39,
          "time": 172.15367399999974,
          "velocity": 0.6929133858267716,
          "duration": 0.002403843749988255
        },
        {
          "name": "D#2",
          "midi": 39,
          "time": 173.07674999999972,
          "velocity": 0.6929133858267716,
          "duration": 0.002403843749988255
        },
        {
          "name": "D#2",
          "midi": 39,
          "time": 173.9998259999997,
          "velocity": 0.6929133858267716,
          "duration": 0.002403843749988255
        },
        {
          "name": "D#2",
          "midi": 39,
          "time": 174.92290199999968,
          "velocity": 0.6929133858267716,
          "duration": 0.002403843749988255
        },
        {
          "name": "D#2",
          "midi": 39,
          "time": 175.84597799999966,
          "velocity": 0.6929133858267716,
          "duration": 0.002403843749988255
        },
        {
          "name": "D#2",
          "midi": 39,
          "time": 176.76905399999964,
          "velocity": 0.6929133858267716,
          "duration": 0.002403843749988255
        },
        {
          "name": "D#2",
          "midi": 39,
          "time": 177.69212999999962,
          "velocity": 0.6929133858267716,
          "duration": 0.002403843749988255
        },
        {
          "name": "D#2",
          "midi": 39,
          "time": 178.6152059999996,
          "velocity": 0.6929133858267716,
          "duration": 0.002403843749988255
        },
        {
          "name": "D#2",
          "midi": 39,
          "time": 179.53828199999958,
          "velocity": 0.6929133858267716,
          "duration": 0.002403843749988255
        },
        {
          "name": "D#2",
          "midi": 39,
          "time": 180.46135799999956,
          "velocity": 0.6929133858267716,
          "duration": 0.002403843749988255
        },
        {
          "name": "D#2",
          "midi": 39,
          "time": 181.38443399999954,
          "velocity": 0.6929133858267716,
          "duration": 0.002403843749988255
        },
        {
          "name": "D#2",
          "midi": 39,
          "time": 182.30750999999952,
          "velocity": 0.6929133858267716,
          "duration": 0.002403843749988255
        },
        {
          "name": "D#2",
          "midi": 39,
          "time": 183.2305859999995,
          "velocity": 0.6929133858267716,
          "duration": 0.002403843749988255
        },
        {
          "name": "D#2",
          "midi": 39,
          "time": 184.15366199999949,
          "velocity": 0.6929133858267716,
          "duration": 0.002403843749988255
        },
        {
          "name": "D#2",
          "midi": 39,
          "time": 185.07673799999947,
          "velocity": 0.6929133858267716,
          "duration": 0.002403843749988255
        },
        {
          "name": "D#2",
          "midi": 39,
          "time": 185.99981399999945,
          "velocity": 0.6929133858267716,
          "duration": 0.002403843749988255
        },
        {
          "name": "D#2",
          "midi": 39,
          "time": 186.92288999999943,
          "velocity": 0.6929133858267716,
          "duration": 0.002403843749988255
        },
        {
          "name": "D#2",
          "midi": 39,
          "time": 187.8459659999994,
          "velocity": 0.6929133858267716,
          "duration": 0.002403843749988255
        },
        {
          "name": "D#2",
          "midi": 39,
          "time": 188.7690419999994,
          "velocity": 0.6929133858267716,
          "duration": 0.002403843749988255
        },
        {
          "name": "D#2",
          "midi": 39,
          "time": 189.69211799999937,
          "velocity": 0.6929133858267716,
          "duration": 0.002403843749988255
        },
        {
          "name": "D#2",
          "midi": 39,
          "time": 190.61519399999935,
          "velocity": 0.6929133858267716,
          "duration": 0.002403843749988255
        },
        {
          "name": "D#2",
          "midi": 39,
          "time": 191.53826999999933,
          "velocity": 0.6929133858267716,
          "duration": 0.002403843749988255
        },
        {
          "name": "D#2",
          "midi": 39,
          "time": 192.4613459999993,
          "velocity": 0.6929133858267716,
          "duration": 0.002403843749988255
        },
        {
          "name": "D#2",
          "midi": 39,
          "time": 193.3844219999993,
          "velocity": 0.6929133858267716,
          "duration": 0.002403843749988255
        },
        {
          "name": "D#2",
          "midi": 39,
          "time": 194.30749799999927,
          "velocity": 0.6929133858267716,
          "duration": 0.002403843749988255
        },
        {
          "name": "D#2",
          "midi": 39,
          "time": 195.23057399999925,
          "velocity": 0.6929133858267716,
          "duration": 0.002403843749988255
        },
        {
          "name": "D#2",
          "midi": 39,
          "time": 196.15364999999923,
          "velocity": 0.6929133858267716,
          "duration": 0.002403843749988255
        },
        {
          "name": "D#2",
          "midi": 39,
          "time": 197.0767259999992,
          "velocity": 0.6929133858267716,
          "duration": 0.002403843749988255
        },
        {
          "name": "D#2",
          "midi": 39,
          "time": 197.9998019999992,
          "velocity": 0.6929133858267716,
          "duration": 0.002403843749988255
        },
        {
          "name": "D#2",
          "midi": 39,
          "time": 198.92287799999917,
          "velocity": 0.6929133858267716,
          "duration": 0.002403843749988255
        },
        {
          "name": "D#2",
          "midi": 39,
          "time": 199.84595399999915,
          "velocity": 0.6929133858267716,
          "duration": 0.002403843749988255
        },
        {
          "name": "D#2",
          "midi": 39,
          "time": 200.76902999999913,
          "velocity": 0.6929133858267716,
          "duration": 0.002403843749988255
        },
        {
          "name": "D#2",
          "midi": 39,
          "time": 201.69210599999911,
          "velocity": 0.6929133858267716,
          "duration": 0.002403843749988255
        },
        {
          "name": "D#2",
          "midi": 39,
          "time": 202.6151819999991,
          "velocity": 0.6929133858267716,
          "duration": 0.002403843749988255
        },
        {
          "name": "D#2",
          "midi": 39,
          "time": 203.53825799999908,
          "velocity": 0.6929133858267716,
          "duration": 0.002403843749988255
        },
        {
          "name": "D#2",
          "midi": 39,
          "time": 204.46133399999906,
          "velocity": 0.6929133858267716,
          "duration": 0.002403843749988255
        },
        {
          "name": "D#2",
          "midi": 39,
          "time": 205.38440999999904,
          "velocity": 0.6929133858267716,
          "duration": 0.002403843749988255
        },
        {
          "name": "D#2",
          "midi": 39,
          "time": 206.30748599999902,
          "velocity": 0.6929133858267716,
          "duration": 0.002403843749988255
        },
        {
          "name": "D#2",
          "midi": 39,
          "time": 207.230561999999,
          "velocity": 0.6929133858267716,
          "duration": 0.002403843749988255
        },
        {
          "name": "D#2",
          "midi": 39,
          "time": 208.15363799999898,
          "velocity": 0.6929133858267716,
          "duration": 0.002403843749988255
        },
        {
          "name": "D#2",
          "midi": 39,
          "time": 209.07671399999896,
          "velocity": 0.6929133858267716,
          "duration": 0.002403843749988255
        },
        {
          "name": "D#2",
          "midi": 39,
          "time": 209.99978999999894,
          "velocity": 0.6929133858267716,
          "duration": 0.002403843749988255
        },
        {
          "name": "D#2",
          "midi": 39,
          "time": 210.92286599999892,
          "velocity": 0.6929133858267716,
          "duration": 0.002403843749988255
        },
        {
          "name": "D#2",
          "midi": 39,
          "time": 211.8459419999989,
          "velocity": 0.6929133858267716,
          "duration": 0.002403843749988255
        },
        {
          "name": "D#2",
          "midi": 39,
          "time": 212.76901799999888,
          "velocity": 0.6929133858267716,
          "duration": 0.002403843749988255
        },
        {
          "name": "D#2",
          "midi": 39,
          "time": 213.69209399999886,
          "velocity": 0.6929133858267716,
          "duration": 0.002403843749988255
        },
        {
          "name": "D#2",
          "midi": 39,
          "time": 214.61516999999884,
          "velocity": 0.6929133858267716,
          "duration": 0.002403843749988255
        },
        {
          "name": "D#2",
          "midi": 39,
          "time": 215.53824599999882,
          "velocity": 0.6929133858267716,
          "duration": 0.002403843749988255
        },
        {
          "name": "D#2",
          "midi": 39,
          "time": 216.4613219999988,
          "velocity": 0.6929133858267716,
          "duration": 0.002403843749988255
        },
        {
          "name": "D#2",
          "midi": 39,
          "time": 217.38439799999878,
          "velocity": 0.6929133858267716,
          "duration": 0.002403843749988255
        },
        {
          "name": "D#2",
          "midi": 39,
          "time": 218.30747399999876,
          "velocity": 0.6929133858267716,
          "duration": 0.002403843749988255
        },
        {
          "name": "D#2",
          "midi": 39,
          "time": 219.23054999999874,
          "velocity": 0.6929133858267716,
          "duration": 0.002403843749988255
        },
        {
          "name": "D#2",
          "midi": 39,
          "time": 220.15362599999872,
          "velocity": 0.6929133858267716,
          "duration": 0.002403843749988255
        },
        {
          "name": "D#2",
          "midi": 39,
          "time": 221.0767019999987,
          "velocity": 0.6929133858267716,
          "duration": 0.002403843749988255
        },
        {
          "name": "D#2",
          "midi": 39,
          "time": 221.99977799999868,
          "velocity": 0.6929133858267716,
          "duration": 0.002403843749988255
        },
        {
          "name": "D#2",
          "midi": 39,
          "time": 222.92285399999867,
          "velocity": 0.6929133858267716,
          "duration": 0.002403843749988255
        },
        {
          "name": "D#2",
          "midi": 39,
          "time": 223.84592999999865,
          "velocity": 0.6929133858267716,
          "duration": 0.002403843749988255
        },
        {
          "name": "D#2",
          "midi": 39,
          "time": 224.76900599999863,
          "velocity": 0.6929133858267716,
          "duration": 0.002403843749988255
        },
        {
          "name": "D#2",
          "midi": 39,
          "time": 225.6920819999986,
          "velocity": 0.6929133858267716,
          "duration": 0.002403843749988255
        },
        {
          "name": "D#2",
          "midi": 39,
          "time": 226.6151579999986,
          "velocity": 0.6929133858267716,
          "duration": 0.002403843749988255
        },
        {
          "name": "D#2",
          "midi": 39,
          "time": 227.53823399999857,
          "velocity": 0.6929133858267716,
          "duration": 0.002403843749988255
        },
        {
          "name": "D#2",
          "midi": 39,
          "time": 228.46130999999855,
          "velocity": 0.6929133858267716,
          "duration": 0.002403843749988255
        },
        {
          "name": "D#2",
          "midi": 39,
          "time": 229.38438599999853,
          "velocity": 0.6929133858267716,
          "duration": 0.002403843749988255
        },
        {
          "name": "D#2",
          "midi": 39,
          "time": 230.3074619999985,
          "velocity": 0.6929133858267716,
          "duration": 0.002403843749988255
        },
        {
          "name": "D#2",
          "midi": 39,
          "time": 231.2305379999985,
          "velocity": 0.6929133858267716,
          "duration": 0.002403843749988255
        },
        {
          "name": "D#2",
          "midi": 39,
          "time": 232.15361399999847,
          "velocity": 0.6929133858267716,
          "duration": 0.002403843749988255
        },
        {
          "name": "D#2",
          "midi": 39,
          "time": 233.07668999999845,
          "velocity": 0.6929133858267716,
          "duration": 0.002403843749988255
        },
        {
          "name": "D#2",
          "midi": 39,
          "time": 233.99976599999843,
          "velocity": 0.6929133858267716,
          "duration": 0.002403843749988255
        },
        {
          "name": "D#2",
          "midi": 39,
          "time": 234.9228419999984,
          "velocity": 0.6929133858267716,
          "duration": 0.002403843749988255
        },
        {
          "name": "D#2",
          "midi": 39,
          "time": 235.8459179999984,
          "velocity": 0.6929133858267716,
          "duration": 0.002403843749988255
        },
        {
          "name": "D#2",
          "midi": 39,
          "time": 236.76899399999837,
          "velocity": 0.6929133858267716,
          "duration": 0.002403843749988255
        },
        {
          "name": "D#2",
          "midi": 39,
          "time": 237.69206999999835,
          "velocity": 0.6929133858267716,
          "duration": 0.002403843749988255
        },
        {
          "name": "D#2",
          "midi": 39,
          "time": 238.61514599999833,
          "velocity": 0.6929133858267716,
          "duration": 0.002403843749988255
        },
        {
          "name": "D#2",
          "midi": 39,
          "time": 239.5382219999983,
          "velocity": 0.6929133858267716,
          "duration": 0.002403843749988255
        },
        {
          "name": "D#2",
          "midi": 39,
          "time": 240.4612979999983,
          "velocity": 0.6929133858267716,
          "duration": 0.002403843749988255
        },
        {
          "name": "D#2",
          "midi": 39,
          "time": 241.38437399999827,
          "velocity": 0.6929133858267716,
          "duration": 0.002403843749988255
        },
        {
          "name": "D#2",
          "midi": 39,
          "time": 242.30744999999825,
          "velocity": 0.6929133858267716,
          "duration": 0.002403843749988255
        },
        {
          "name": "D#2",
          "midi": 39,
          "time": 243.23052599999824,
          "velocity": 0.6929133858267716,
          "duration": 0.002403843749988255
        },
        {
          "name": "D#2",
          "midi": 39,
          "time": 244.15360199999822,
          "velocity": 0.6929133858267716,
          "duration": 0.002403843749988255
        },
        {
          "name": "D#2",
          "midi": 39,
          "time": 245.0766779999982,
          "velocity": 0.6929133858267716,
          "duration": 0.002403843749988255
        }
      ],
      "controlChanges": {},
      "id": 2,
      "name": "Claps               ",
      "channelNumber": 9,
      "isPercussion": true
    },
    {
      "startTime": 3.692304,
      "duration": 245.509369875,
      "length": 991,
      "notes": [
        {
          "name": "F3",
          "midi": 53,
          "time": 3.692304,
          "velocity": 0.7086614173228346,
          "duration": 0.08413453125000014
        },
        {
          "name": "D#4",
          "midi": 63,
          "time": 3.692304,
          "velocity": 0.7086614173228346,
          "duration": 0.09374990625000024
        },
        {
          "name": "B3",
          "midi": 59,
          "time": 3.692304,
          "velocity": 0.7086614173228346,
          "duration": 0.08894221875000019
        },
        {
          "name": "A#3",
          "midi": 58,
          "time": 3.692304,
          "velocity": 0.7086614173228346,
          "duration": 0.07451915625000005
        },
        {
          "name": "F3",
          "midi": 53,
          "time": 3.9230730000000005,
          "velocity": 0.7007874015748031,
          "duration": 0.0721153124999998
        },
        {
          "name": "D#4",
          "midi": 63,
          "time": 3.9230730000000005,
          "velocity": 0.7007874015748031,
          "duration": 0.0721153124999998
        },
        {
          "name": "A#3",
          "midi": 58,
          "time": 3.9230730000000005,
          "velocity": 0.7007874015748031,
          "duration": 0.07692299999999985
        },
        {
          "name": "B3",
          "midi": 59,
          "time": 3.9230730000000005,
          "velocity": 0.7007874015748031,
          "duration": 0.11057681249999973
        },
        {
          "name": "D#4",
          "midi": 63,
          "time": 4.153842,
          "velocity": 0.7007874015748031,
          "duration": 0.06971146874999956
        },
        {
          "name": "F3",
          "midi": 53,
          "time": 4.153842,
          "velocity": 0.7007874015748031,
          "duration": 0.07932684374999965
        },
        {
          "name": "A#3",
          "midi": 58,
          "time": 4.153842,
          "velocity": 0.7007874015748031,
          "duration": 0.06971146874999956
        },
        {
          "name": "B3",
          "midi": 59,
          "time": 4.153842,
          "velocity": 0.7007874015748031,
          "duration": 0.09855759374999984
        },
        {
          "name": "D#4",
          "midi": 63,
          "time": 4.384611,
          "velocity": 0.6929133858267716,
          "duration": 0.06730762499999976
        },
        {
          "name": "A#3",
          "midi": 58,
          "time": 4.384611,
          "velocity": 0.6929133858267716,
          "duration": 0.06490378124999996
        },
        {
          "name": "F3",
          "midi": 53,
          "time": 4.384611,
          "velocity": 0.6929133858267716,
          "duration": 0.07692299999999985
        },
        {
          "name": "B3",
          "midi": 59,
          "time": 4.384611,
          "velocity": 0.6929133858267716,
          "duration": 0.08894221874999975
        },
        {
          "name": "D#4",
          "midi": 63,
          "time": 4.615379999999999,
          "velocity": 0.6929133858267716,
          "duration": 0.055288406249999866
        },
        {
          "name": "F3",
          "midi": 53,
          "time": 4.615379999999999,
          "velocity": 0.6929133858267716,
          "duration": 0.06730762499999976
        },
        {
          "name": "A#3",
          "midi": 58,
          "time": 4.615379999999999,
          "velocity": 0.6929133858267716,
          "duration": 0.06490378124999996
        },
        {
          "name": "B3",
          "midi": 59,
          "time": 4.615379999999999,
          "velocity": 0.6929133858267716,
          "duration": 0.08653837499999995
        },
        {
          "name": "D#4",
          "midi": 63,
          "time": 4.846148999999999,
          "velocity": 0.6929133858267716,
          "duration": 0.048076874999999575
        },
        {
          "name": "F3",
          "midi": 53,
          "time": 4.846148999999999,
          "velocity": 0.6929133858267716,
          "duration": 0.06490378124999907
        },
        {
          "name": "A#3",
          "midi": 58,
          "time": 4.846148999999999,
          "velocity": 0.6929133858267716,
          "duration": 0.06249993749999927
        },
        {
          "name": "B3",
          "midi": 59,
          "time": 4.846148999999999,
          "velocity": 0.6929133858267716,
          "duration": 0.07932684374999877
        },
        {
          "name": "D#4",
          "midi": 63,
          "time": 5.076917999999997,
          "velocity": 0.6850393700787402,
          "duration": 0.06490378124999996
        },
        {
          "name": "A#3",
          "midi": 58,
          "time": 5.076917999999997,
          "velocity": 0.6850393700787402,
          "duration": 0.052884562500000065
        },
        {
          "name": "F3",
          "midi": 53,
          "time": 5.076917999999997,
          "velocity": 0.6850393700787402,
          "duration": 0.06730762499999976
        },
        {
          "name": "B3",
          "midi": 59,
          "time": 5.076917999999997,
          "velocity": 0.6850393700787402,
          "duration": 0.07932684374999965
        },
        {
          "name": "D#4",
          "midi": 63,
          "time": 5.307686999999997,
          "velocity": 0.6850393700787402,
          "duration": 0.06009609375000036
        },
        {
          "name": "F3",
          "midi": 53,
          "time": 5.307686999999997,
          "velocity": 0.6850393700787402,
          "duration": 0.06971146875000045
        },
        {
          "name": "A#3",
          "midi": 58,
          "time": 5.307686999999997,
          "velocity": 0.6850393700787402,
          "duration": 0.06009609375000036
        },
        {
          "name": "B3",
          "midi": 59,
          "time": 5.307686999999997,
          "velocity": 0.6850393700787402,
          "duration": 0.07932684375000054
        },
        {
          "name": "D#4",
          "midi": 63,
          "time": 5.538455999999997,
          "velocity": 0.6771653543307087,
          "duration": 0.052884562500000065
        },
        {
          "name": "F3",
          "midi": 53,
          "time": 5.538455999999997,
          "velocity": 0.6771653543307087,
          "duration": 0.06490378124999996
        },
        {
          "name": "A#3",
          "midi": 58,
          "time": 5.538455999999997,
          "velocity": 0.6771653543307087,
          "duration": 0.052884562500000065
        },
        {
          "name": "B3",
          "midi": 59,
          "time": 5.538455999999997,
          "velocity": 0.6771653543307087,
          "duration": 0.07692299999999985
        },
        {
          "name": "D#4",
          "midi": 63,
          "time": 5.769224999999997,
          "velocity": 0.6771653543307087,
          "duration": 0.048076874999999575
        },
        {
          "name": "F3",
          "midi": 53,
          "time": 5.769224999999997,
          "velocity": 0.6771653543307087,
          "duration": 0.05769224999999878
        },
        {
          "name": "B3",
          "midi": 59,
          "time": 5.769224999999997,
          "velocity": 0.6771653543307087,
          "duration": 0.06490378124999907
        },
        {
          "name": "A#3",
          "midi": 58,
          "time": 5.769224999999997,
          "velocity": 0.6771653543307087,
          "duration": 0.05288456249999918
        },
        {
          "name": "D#4",
          "midi": 63,
          "time": 5.999993999999996,
          "velocity": 0.6771653543307087,
          "duration": 0.04086534375000017
        },
        {
          "name": "A#3",
          "midi": 58,
          "time": 5.999993999999996,
          "velocity": 0.6771653543307087,
          "duration": 0.04086534375000017
        },
        {
          "name": "F3",
          "midi": 53,
          "time": 5.999993999999996,
          "velocity": 0.6771653543307087,
          "duration": 0.06249993750000016
        },
        {
          "name": "B3",
          "midi": 59,
          "time": 5.999993999999996,
          "velocity": 0.6771653543307087,
          "duration": 0.06249993750000016
        },
        {
          "name": "D#4",
          "midi": 63,
          "time": 6.230762999999996,
          "velocity": 0.6692913385826772,
          "duration": 0.03846150000000037
        },
        {
          "name": "F3",
          "midi": 53,
          "time": 6.230762999999996,
          "velocity": 0.6692913385826772,
          "duration": 0.055288406249999866
        },
        {
          "name": "A#3",
          "midi": 58,
          "time": 6.230762999999996,
          "velocity": 0.6692913385826772,
          "duration": 0.04086534375000017
        },
        {
          "name": "B3",
          "midi": 59,
          "time": 6.230762999999996,
          "velocity": 0.6692913385826772,
          "duration": 0.05769224999999967
        },
        {
          "name": "D#4",
          "midi": 63,
          "time": 6.461531999999996,
          "velocity": 0.6692913385826772,
          "duration": 0.045673031249999774
        },
        {
          "name": "A#3",
          "midi": 58,
          "time": 6.461531999999996,
          "velocity": 0.6692913385826772,
          "duration": 0.04086534375000017
        },
        {
          "name": "F3",
          "midi": 53,
          "time": 6.461531999999996,
          "velocity": 0.6692913385826772,
          "duration": 0.06249993750000016
        },
        {
          "name": "B3",
          "midi": 59,
          "time": 6.461531999999996,
          "velocity": 0.6692913385826772,
          "duration": 0.06490378124999996
        },
        {
          "name": "D#4",
          "midi": 63,
          "time": 6.692300999999995,
          "velocity": 0.6614173228346457,
          "duration": 0.04326918749999997
        },
        {
          "name": "F3",
          "midi": 53,
          "time": 6.692300999999995,
          "velocity": 0.6614173228346457,
          "duration": 0.045673031249999774
        },
        {
          "name": "A#3",
          "midi": 58,
          "time": 6.692300999999995,
          "velocity": 0.6614173228346457,
          "duration": 0.04326918749999997
        },
        {
          "name": "B3",
          "midi": 59,
          "time": 6.692300999999995,
          "velocity": 0.6614173228346457,
          "duration": 0.06490378124999996
        },
        {
          "name": "F3",
          "midi": 53,
          "time": 6.923069999999995,
          "velocity": 0.8267716535433071,
          "duration": 0.052884562500000065
        },
        {
          "name": "D#4",
          "midi": 63,
          "time": 6.923069999999995,
          "velocity": 0.8267716535433071,
          "duration": 0.050480718750000264
        },
        {
          "name": "A#3",
          "midi": 58,
          "time": 6.923069999999995,
          "velocity": 0.8267716535433071,
          "duration": 0.04326918749999997
        },
        {
          "name": "B3",
          "midi": 59,
          "time": 6.923069999999995,
          "velocity": 0.8267716535433071,
          "duration": 0.052884562500000065
        },
        {
          "name": "C2",
          "midi": 36,
          "time": 7.153838999999995,
          "velocity": 1,
          "duration": 0.39182653124999955
        },
        {
          "name": "D#4",
          "midi": 63,
          "time": 7.153838999999995,
          "velocity": 0.9921259842519685,
          "duration": 2.8293240937499986
        },
        {
          "name": "A#3",
          "midi": 58,
          "time": 7.153838999999995,
          "velocity": 1,
          "duration": 2.8413433124999985
        },
        {
          "name": "G3",
          "midi": 55,
          "time": 7.153838999999995,
          "velocity": 1,
          "duration": 2.855766374999999
        },
        {
          "name": "C2",
          "midi": 36,
          "time": 7.615376999999994,
          "velocity": 1,
          "duration": 0.1370190937500002
        },
        {
          "name": "G2",
          "midi": 43,
          "time": 7.846145999999995,
          "velocity": 1,
          "duration": 0.1658652187500005
        },
        {
          "name": "C2",
          "midi": 36,
          "time": 8.076914999999996,
          "velocity": 1,
          "duration": 0.10576912500000013
        },
        {
          "name": "D#2",
          "midi": 39,
          "time": 8.307683999999997,
          "velocity": 1,
          "duration": 0.1899036562499994
        },
        {
          "name": "F2",
          "midi": 41,
          "time": 8.538452999999995,
          "velocity": 1,
          "duration": 0.18269212500000087
        },
        {
          "name": "A#1",
          "midi": 34,
          "time": 8.769221999999996,
          "velocity": 1,
          "duration": 0.11298065625000042
        },
        {
          "name": "C2",
          "midi": 36,
          "time": 8.999990999999996,
          "velocity": 1,
          "duration": 0.3221150625
        },
        {
          "name": "C2",
          "midi": 36,
          "time": 9.461528999999995,
          "velocity": 1,
          "duration": 0.12740371874999923
        },
        {
          "name": "G2",
          "midi": 43,
          "time": 9.692297999999994,
          "velocity": 1,
          "duration": 0.1442306250000005
        },
        {
          "name": "C2",
          "midi": 36,
          "time": 9.923066999999994,
          "velocity": 1,
          "duration": 0.12259603124999963
        },
        {
          "name": "D#2",
          "midi": 39,
          "time": 10.153835999999995,
          "velocity": 1,
          "duration": 0.1466344687499994
        },
        {
          "name": "A#3",
          "midi": 58,
          "time": 10.153835999999995,
          "velocity": 0.968503937007874,
          "duration": 0.15624984374999862
        },
        {
          "name": "G3",
          "midi": 55,
          "time": 10.153835999999995,
          "velocity": 0.9133858267716536,
          "duration": 0.17307674999999811
        },
        {
          "name": "D#4",
          "midi": 63,
          "time": 10.153835999999995,
          "velocity": 0.9606299212598425,
          "duration": 0.1634613749999989
        },
        {
          "name": "F2",
          "midi": 41,
          "time": 10.384604999999993,
          "velocity": 1,
          "duration": 0.1394229375000009
        },
        {
          "name": "G3",
          "midi": 55,
          "time": 10.384604999999993,
          "velocity": 0.7165354330708661,
          "duration": 0.07932684374999965
        },
        {
          "name": "A#3",
          "midi": 58,
          "time": 10.384604999999993,
          "velocity": 0.889763779527559,
          "duration": 0.07211531249999936
        },
        {
          "name": "D#4",
          "midi": 63,
          "time": 10.384604999999993,
          "velocity": 0.84251968503937,
          "duration": 0.10576912500000013
        },
        {
          "name": "A#1",
          "midi": 34,
          "time": 10.615373999999994,
          "velocity": 1,
          "duration": 0.13942293749999912
        },
        {
          "name": "C4",
          "midi": 60,
          "time": 10.615373999999994,
          "velocity": 0.889763779527559,
          "duration": 0.055288406249999866
        },
        {
          "name": "F4",
          "midi": 65,
          "time": 10.615373999999994,
          "velocity": 0.8582677165354331,
          "duration": 0.07211531249999936
        },
        {
          "name": "A3",
          "midi": 57,
          "time": 10.615373999999994,
          "velocity": 0.8740157480314961,
          "duration": 0.07692299999999896
        },
        {
          "name": "C2",
          "midi": 36,
          "time": 10.846142999999993,
          "velocity": 1,
          "duration": 0.3269227499999996
        },
        {
          "name": "G3",
          "midi": 55,
          "time": 10.846142999999993,
          "velocity": 0.9606299212598425,
          "duration": 2.2548054375000017
        },
        {
          "name": "A#3",
          "midi": 58,
          "time": 10.846142999999993,
          "velocity": 0.984251968503937,
          "duration": 2.262016968750002
        },
        {
          "name": "D#4",
          "midi": 63,
          "time": 10.846142999999993,
          "velocity": 0.9763779527559056,
          "duration": 2.2716323437500012
        },
        {
          "name": "C2",
          "midi": 36,
          "time": 11.307680999999992,
          "velocity": 1,
          "duration": 0.11057681249999973
        },
        {
          "name": "G2",
          "midi": 43,
          "time": 11.538449999999992,
          "velocity": 1,
          "duration": 0.16346137500000069
        },
        {
          "name": "C2",
          "midi": 36,
          "time": 11.769218999999993,
          "velocity": 1,
          "duration": 0.09855759374999984
        },
        {
          "name": "D#2",
          "midi": 39,
          "time": 11.999987999999993,
          "velocity": 1,
          "duration": 0.1682690625000003
        },
        {
          "name": "F2",
          "midi": 41,
          "time": 12.230756999999993,
          "velocity": 1,
          "duration": 0.1418267812499998
        },
        {
          "name": "A#1",
          "midi": 34,
          "time": 12.461525999999994,
          "velocity": 1,
          "duration": 0.12019218750000071
        },
        {
          "name": "C2",
          "midi": 36,
          "time": 12.692294999999994,
          "velocity": 1,
          "duration": 0.3533650312500001
        },
        {
          "name": "C2",
          "midi": 36,
          "time": 13.153832999999993,
          "velocity": 1,
          "duration": 0.1490383125000001
        },
        {
          "name": "C3",
          "midi": 48,
          "time": 13.153832999999993,
          "velocity": 0.968503937007874,
          "duration": 0.048076874999999575
        },
        {
          "name": "A1",
          "midi": 33,
          "time": 13.384601999999994,
          "velocity": 1,
          "duration": 0.12740371874999923
        },
        {
          "name": "A1",
          "midi": 33,
          "time": 13.615370999999993,
          "velocity": 1,
          "duration": 0.13461524999999952
        },
        {
          "name": "C3",
          "midi": 48,
          "time": 13.615370999999993,
          "velocity": 0.984251968503937,
          "duration": 0.03605765624999968
        },
        {
          "name": "A#1",
          "midi": 34,
          "time": 13.846139999999991,
          "velocity": 1,
          "duration": 0.12980756249999992
        },
        {
          "name": "D4",
          "midi": 62,
          "time": 13.846139999999991,
          "velocity": 0.968503937007874,
          "duration": 0.16105753125
        },
        {
          "name": "A#3",
          "midi": 58,
          "time": 13.846139999999991,
          "velocity": 1,
          "duration": 0.16105753125
        },
        {
          "name": "F3",
          "midi": 53,
          "time": 13.846139999999991,
          "velocity": 1,
          "duration": 0.1490383125000001
        },
        {
          "name": "A#1",
          "midi": 34,
          "time": 14.076908999999992,
          "velocity": 1,
          "duration": 0.12259603124999963
        },
        {
          "name": "F3",
          "midi": 53,
          "time": 14.076908999999992,
          "velocity": 0.8267716535433071,
          "duration": 0.06730762499999976
        },
        {
          "name": "D4",
          "midi": 62,
          "time": 14.076908999999992,
          "velocity": 0.8110236220472441,
          "duration": 0.06009609374999947
        },
        {
          "name": "A#3",
          "midi": 58,
          "time": 14.076908999999992,
          "velocity": 0.84251968503937,
          "duration": 0.06009609374999947
        },
        {
          "name": "B1",
          "midi": 35,
          "time": 14.307677999999992,
          "velocity": 1,
          "duration": 0.1370190937500002
        },
        {
          "name": "F3",
          "midi": 53,
          "time": 14.307677999999992,
          "velocity": 0.8740157480314961,
          "duration": 0.06490378125000085
        },
        {
          "name": "C4",
          "midi": 60,
          "time": 14.307677999999992,
          "velocity": 0.9133858267716536,
          "duration": 0.05288456250000095
        },
        {
          "name": "A3",
          "midi": 57,
          "time": 14.307677999999992,
          "velocity": 0.905511811023622,
          "duration": 0.050480718750000264
        },
        {
          "name": "C2",
          "midi": 36,
          "time": 14.538446999999993,
          "velocity": 1,
          "duration": 0.37259578125000026
        },
        {
          "name": "D#4",
          "midi": 63,
          "time": 14.538446999999993,
          "velocity": 1,
          "duration": 2.7548049374999994
        },
        {
          "name": "A#3",
          "midi": 58,
          "time": 14.538446999999993,
          "velocity": 1,
          "duration": 2.771631843749999
        },
        {
          "name": "G3",
          "midi": 55,
          "time": 14.538446999999993,
          "velocity": 0.984251968503937,
          "duration": 2.7860549062499995
        },
        {
          "name": "C2",
          "midi": 36,
          "time": 14.999984999999993,
          "velocity": 1,
          "duration": 0.09374990625000024
        },
        {
          "name": "G2",
          "midi": 43,
          "time": 15.230753999999994,
          "velocity": 1,
          "duration": 0.1706729062499992
        },
        {
          "name": "C2",
          "midi": 36,
          "time": 16.384598999999994,
          "velocity": 1,
          "duration": 0.3365381250000006
        },
        {
          "name": "C2",
          "midi": 36,
          "time": 16.846136999999995,
          "velocity": 1,
          "duration": 0.12740371874999923
        },
        {
          "name": "C3",
          "midi": 48,
          "time": 16.846136999999995,
          "velocity": 1,
          "duration": 0.04086534374999928
        },
        {
          "name": "G2",
          "midi": 43,
          "time": 17.076905999999994,
          "velocity": 1,
          "duration": 0.16105753124999822
        },
        {
          "name": "C2",
          "midi": 36,
          "time": 17.307674999999993,
          "velocity": 1,
          "duration": 0.06249993750000016
        },
        {
          "name": "C3",
          "midi": 48,
          "time": 17.307674999999993,
          "velocity": 1,
          "duration": 0.028846125000001166
        },
        {
          "name": "D#2",
          "midi": 39,
          "time": 17.53844399999999,
          "velocity": 1,
          "duration": 0.1826921249999991
        },
        {
          "name": "D4",
          "midi": 62,
          "time": 17.53844399999999,
          "velocity": 0.9212598425196851,
          "duration": 0.19471134375000076
        },
        {
          "name": "F3",
          "midi": 53,
          "time": 17.53844399999999,
          "velocity": 0.889763779527559,
          "duration": 0.22836515624999976
        },
        {
          "name": "A#3",
          "midi": 58,
          "time": 17.53844399999999,
          "velocity": 0.9212598425196851,
          "duration": 0.20192287500000106
        },
        {
          "name": "F2",
          "midi": 41,
          "time": 17.76921299999999,
          "velocity": 1,
          "duration": 0.1682690624999985
        },
        {
          "name": "C3",
          "midi": 48,
          "time": 17.76921299999999,
          "velocity": 1,
          "duration": 0.03124996875000008
        },
        {
          "name": "C2",
          "midi": 36,
          "time": 18.230750999999987,
          "velocity": 1,
          "duration": 0.3533650312500001
        },
        {
          "name": "G3",
          "midi": 55,
          "time": 18.230750999999987,
          "velocity": 0.889763779527559,
          "duration": 0.04086534374999928
        },
        {
          "name": "D#3",
          "midi": 51,
          "time": 18.230750999999987,
          "velocity": 0.8976377952755905,
          "duration": 0.06009609374999769
        },
        {
          "name": "A#3",
          "midi": 58,
          "time": 18.230750999999987,
          "velocity": 0.889763779527559,
          "duration": 0.06490378124999907
        },
        {
          "name": "C2",
          "midi": 36,
          "time": 18.692288999999988,
          "velocity": 1,
          "duration": 0.09134606249999777
        },
        {
          "name": "C3",
          "midi": 48,
          "time": 18.692288999999988,
          "velocity": 0.9212598425196851,
          "duration": 0.0264422812499987
        },
        {
          "name": "G2",
          "midi": 43,
          "time": 18.923057999999987,
          "velocity": 1,
          "duration": 0.16586521875000315
        },
        {
          "name": "G3",
          "midi": 55,
          "time": 18.923057999999987,
          "velocity": 0.905511811023622,
          "duration": 0.060096093750001245
        },
        {
          "name": "D#4",
          "midi": 63,
          "time": 18.923057999999987,
          "velocity": 0.9291338582677166,
          "duration": 0.07451915625000183
        },
        {
          "name": "C2",
          "midi": 36,
          "time": 19.15382699999999,
          "velocity": 1,
          "duration": 0.09134606250000132
        },
        {
          "name": "D#2",
          "midi": 39,
          "time": 19.38459599999999,
          "velocity": 1,
          "duration": 0.1826921249999991
        },
        {
          "name": "D#4",
          "midi": 63,
          "time": 19.38459599999999,
          "velocity": 0.9291338582677166,
          "duration": 0.19471134375000076
        },
        {
          "name": "C2",
          "midi": 36,
          "time": 20.07690299999999,
          "velocity": 1,
          "duration": 0.33894196875000304
        },
        {
          "name": "C3",
          "midi": 48,
          "time": 20.07690299999999,
          "velocity": 0.9606299212598425,
          "duration": 0.03605765625000146
        },
        {
          "name": "C2",
          "midi": 36,
          "time": 20.538440999999995,
          "velocity": 1,
          "duration": 0.1322114062500006
        },
        {
          "name": "C3",
          "midi": 48,
          "time": 20.538440999999995,
          "velocity": 0.889763779527559,
          "duration": 0.028846125000001166
        },
        {
          "name": "A1",
          "midi": 33,
          "time": 20.769209999999998,
          "velocity": 1,
          "duration": 0.1658652187499996
        },
        {
          "name": "A#3",
          "midi": 58,
          "time": 20.769209999999998,
          "velocity": 1,
          "duration": 0.1682690624999985
        },
        {
          "name": "F3",
          "midi": 53,
          "time": 20.769209999999998,
          "velocity": 0.952755905511811,
          "duration": 0.12019218749999894
        },
        {
          "name": "A1",
          "midi": 33,
          "time": 20.999978999999996,
          "velocity": 1,
          "duration": 0.13942293749999735
        },
        {
          "name": "G3",
          "midi": 55,
          "time": 20.999978999999996,
          "velocity": 0.8818897637795275,
          "duration": 0.05769224999999878
        },
        {
          "name": "C4",
          "midi": 60,
          "time": 20.999978999999996,
          "velocity": 0.8582677165354331,
          "duration": 0.06730762499999798
        },
        {
          "name": "A#1",
          "midi": 34,
          "time": 21.230747999999995,
          "velocity": 1,
          "duration": 0.12740371874999923
        },
        {
          "name": "C4",
          "midi": 60,
          "time": 21.230747999999995,
          "velocity": 0.8582677165354331,
          "duration": 0.03124996875000008
        },
        {
          "name": "C3",
          "midi": 48,
          "time": 21.923054999999994,
          "velocity": 0.8188976377952756,
          "duration": 0.024038437499999787
        },
        {
          "name": "C2",
          "midi": 36,
          "time": 22.384592999999995,
          "velocity": 1,
          "duration": 0.11778834375000002
        },
        {
          "name": "C3",
          "midi": 48,
          "time": 22.384592999999995,
          "velocity": 1,
          "duration": 0.03846150000000037
        },
        {
          "name": "G2",
          "midi": 43,
          "time": 22.615361999999994,
          "velocity": 1,
          "duration": 0.16105753124999822
        },
        {
          "name": "F3",
          "midi": 53,
          "time": 22.615361999999994,
          "velocity": 0.984251968503937,
          "duration": 0.055288406249999866
        },
        {
          "name": "A#3",
          "midi": 58,
          "time": 22.615361999999994,
          "velocity": 0.9921259842519685,
          "duration": 0.05048071874999849
        },
        {
          "name": "C2",
          "midi": 36,
          "time": 22.846130999999993,
          "velocity": 1,
          "duration": 0.09134606249999777
        },
        {
          "name": "C3",
          "midi": 48,
          "time": 22.846130999999993,
          "velocity": 1,
          "duration": 0.04086534374999928
        },
        {
          "name": "D#2",
          "midi": 39,
          "time": 23.07689999999999,
          "velocity": 1,
          "duration": 0.17548059375000236
        },
        {
          "name": "F3",
          "midi": 53,
          "time": 23.07689999999999,
          "velocity": 0.937007874015748,
          "duration": 0.16346137500000069
        },
        {
          "name": "A#3",
          "midi": 58,
          "time": 23.07689999999999,
          "velocity": 1,
          "duration": 0.20432671875000352
        },
        {
          "name": "F2",
          "midi": 41,
          "time": 23.307668999999994,
          "velocity": 1,
          "duration": 0.1466344687500012
        },
        {
          "name": "C3",
          "midi": 48,
          "time": 23.769206999999994,
          "velocity": 1,
          "duration": 0.27884587499999824
        },
        {
          "name": "C2",
          "midi": 36,
          "time": 24.23074499999999,
          "velocity": 1,
          "duration": 0.13701909374999843
        },
        {
          "name": "C3",
          "midi": 48,
          "time": 24.23074499999999,
          "velocity": 0.889763779527559,
          "duration": 0.0264422812499987
        },
        {
          "name": "G2",
          "midi": 43,
          "time": 24.46151399999999,
          "velocity": 1,
          "duration": 0.1754805937499988
        },
        {
          "name": "C2",
          "midi": 36,
          "time": 24.69228299999999,
          "velocity": 1,
          "duration": 0.11057681249999973
        },
        {
          "name": "C3",
          "midi": 48,
          "time": 24.69228299999999,
          "velocity": 0.9212598425196851,
          "duration": 0.028846125000001166
        },
        {
          "name": "D#2",
          "midi": 39,
          "time": 24.923051999999988,
          "velocity": 1,
          "duration": 0.20673056249999533
        },
        {
          "name": "G3",
          "midi": 55,
          "time": 24.923051999999988,
          "velocity": 0.8740157480314961,
          "duration": 0.15144215624999902
        },
        {
          "name": "D#4",
          "midi": 63,
          "time": 24.923051999999988,
          "velocity": 0.8818897637795275,
          "duration": 0.17307674999999634
        },
        {
          "name": "A#3",
          "midi": 58,
          "time": 24.923051999999988,
          "velocity": 0.8818897637795275,
          "duration": 0.15384599999999793
        },
        {
          "name": "F2",
          "midi": 41,
          "time": 25.153820999999983,
          "velocity": 1,
          "duration": 0.17067290625000098
        },
        {
          "name": "G3",
          "midi": 55,
          "time": 25.153820999999983,
          "velocity": 0.8110236220472441,
          "duration": 0.07692300000000074
        },
        {
          "name": "D#4",
          "midi": 63,
          "time": 25.153820999999983,
          "velocity": 0.8031496062992126,
          "duration": 0.06249993750000016
        },
        {
          "name": "A#3",
          "midi": 58,
          "time": 25.153820999999983,
          "velocity": 0.8582677165354331,
          "duration": 0.07211531249999936
        },
        {
          "name": "A#1",
          "midi": 34,
          "time": 25.384589999999985,
          "velocity": 1,
          "duration": 0.19471134375000076
        },
        {
          "name": "F3",
          "midi": 53,
          "time": 25.384589999999985,
          "velocity": 0.7952755905511811,
          "duration": 0.055288406249999866
        },
        {
          "name": "A#3",
          "midi": 58,
          "time": 25.384589999999985,
          "velocity": 0.8818897637795275,
          "duration": 0.060096093750001245
        },
        {
          "name": "C2",
          "midi": 36,
          "time": 25.615358999999987,
          "velocity": 1,
          "duration": 0.3389419687499995
        },
        {
          "name": "D#4",
          "midi": 63,
          "time": 25.615358999999987,
          "velocity": 0.9606299212598425,
          "duration": 0.41346112499999776
        },
        {
          "name": "A#3",
          "midi": 58,
          "time": 25.615358999999987,
          "velocity": 0.984251968503937,
          "duration": 0.43990340624999646
        },
        {
          "name": "G3",
          "midi": 55,
          "time": 25.615358999999987,
          "velocity": 0.952755905511811,
          "duration": 0.44471109374999784
        },
        {
          "name": "C2",
          "midi": 36,
          "time": 26.076896999999985,
          "velocity": 1,
          "duration": 0.11298065624999865
        },
        {
          "name": "C3",
          "midi": 48,
          "time": 26.076896999999985,
          "velocity": 0.8110236220472441,
          "duration": 0.03365381249999899
        },
        {
          "name": "A#3",
          "midi": 58,
          "time": 26.769203999999984,
          "velocity": 0.937007874015748,
          "duration": 0.16105753124999822
        },
        {
          "name": "F3",
          "midi": 53,
          "time": 26.769203999999984,
          "velocity": 0.9212598425196851,
          "duration": 0.14423062499999872
        },
        {
          "name": "F2",
          "midi": 41,
          "time": 26.999972999999983,
          "velocity": 1,
          "duration": 0.1418267812499998
        },
        {
          "name": "C4",
          "midi": 60,
          "time": 26.999972999999983,
          "velocity": 0.7716535433070866,
          "duration": 0.03605765625000146
        },
        {
          "name": "G3",
          "midi": 55,
          "time": 26.999972999999983,
          "velocity": 0.8740157480314961,
          "duration": 0.06249993750000016
        },
        {
          "name": "A#1",
          "midi": 34,
          "time": 27.23074199999998,
          "velocity": 1,
          "duration": 0.1658652187499996
        },
        {
          "name": "C2",
          "midi": 36,
          "time": 27.46151099999998,
          "velocity": 1,
          "duration": 0.35817271875000145
        },
        {
          "name": "C3",
          "midi": 48,
          "time": 27.46151099999998,
          "velocity": 1,
          "duration": 0.04567303125000066
        },
        {
          "name": "C2",
          "midi": 36,
          "time": 27.92304899999998,
          "velocity": 1,
          "duration": 0.16346137500000069
        },
        {
          "name": "C3",
          "midi": 48,
          "time": 27.92304899999998,
          "velocity": 0.968503937007874,
          "duration": 0.021634593750000874
        },
        {
          "name": "A1",
          "midi": 33,
          "time": 28.153817999999983,
          "velocity": 1,
          "duration": 0.1418267812499998
        },
        {
          "name": "A1",
          "midi": 33,
          "time": 28.384586999999982,
          "velocity": 1,
          "duration": 0.1322114062500006
        },
        {
          "name": "C3",
          "midi": 48,
          "time": 28.384586999999982,
          "velocity": 0.984251968503937,
          "duration": 0.024038437499999787
        },
        {
          "name": "A#1",
          "midi": 34,
          "time": 28.615355999999984,
          "velocity": 1,
          "duration": 0.12019218749999894
        },
        {
          "name": "A#1",
          "midi": 34,
          "time": 28.846124999999983,
          "velocity": 1,
          "duration": 0.1225960312500014
        },
        {
          "name": "B1",
          "midi": 35,
          "time": 29.076893999999985,
          "velocity": 1,
          "duration": 0.14423062499999872
        },
        {
          "name": "C3",
          "midi": 48,
          "time": 29.076893999999985,
          "velocity": 0.8267716535433071,
          "duration": 0.016826906249999496
        },
        {
          "name": "C2",
          "midi": 36,
          "time": 29.307662999999984,
          "velocity": 1,
          "duration": 0.37019193749999957
        },
        {
          "name": "C3",
          "midi": 48,
          "time": 29.307662999999984,
          "velocity": 1,
          "duration": 0.05048071874999849
        },
        {
          "name": "C2",
          "midi": 36,
          "time": 29.769200999999985,
          "velocity": 1,
          "duration": 0.12019218750000249
        },
        {
          "name": "C3",
          "midi": 48,
          "time": 29.769200999999985,
          "velocity": 0.937007874015748,
          "duration": 0.021634593750000874
        },
        {
          "name": "G2",
          "midi": 43,
          "time": 29.999969999999987,
          "velocity": 1,
          "duration": 0.17067290625000098
        },
        {
          "name": "G3",
          "midi": 55,
          "time": 29.999969999999987,
          "velocity": 0.8976377952755905,
          "duration": 0.07211531249999936
        },
        {
          "name": "A#3",
          "midi": 58,
          "time": 29.999969999999987,
          "velocity": 0.952755905511811,
          "duration": 0.06971146875000045
        },
        {
          "name": "C2",
          "midi": 36,
          "time": 30.23073899999999,
          "velocity": 1,
          "duration": 0.08653837499999995
        },
        {
          "name": "C3",
          "midi": 48,
          "time": 30.23073899999999,
          "velocity": 0.8582677165354331,
          "duration": 0.024038437499999787
        },
        {
          "name": "C2",
          "midi": 36,
          "time": 31.153814999999987,
          "velocity": 1,
          "duration": 0.37259578125000203
        },
        {
          "name": "C3",
          "midi": 48,
          "time": 31.153814999999987,
          "velocity": 0.889763779527559,
          "duration": 0.04567303125000066
        },
        {
          "name": "A#3",
          "midi": 58,
          "time": 31.38458399999999,
          "velocity": 0.8661417322834646,
          "duration": 0.06971146875000045
        },
        {
          "name": "F3",
          "midi": 53,
          "time": 31.38458399999999,
          "velocity": 0.84251968503937,
          "duration": 0.07211531249999936
        },
        {
          "name": "C2",
          "midi": 36,
          "time": 31.61535299999999,
          "velocity": 1,
          "duration": 0.11057681249999973
        },
        {
          "name": "C3",
          "midi": 48,
          "time": 31.61535299999999,
          "velocity": 0.905511811023622,
          "duration": 0.0264422812499987
        },
        {
          "name": "G2",
          "midi": 43,
          "time": 31.846121999999987,
          "velocity": 1,
          "duration": 0.1658652187499996
        },
        {
          "name": "A#3",
          "midi": 58,
          "time": 31.846121999999987,
          "velocity": 0.7401574803149606,
          "duration": 0.04086534374999928
        },
        {
          "name": "F3",
          "midi": 53,
          "time": 31.846121999999987,
          "velocity": 0.7874015748031497,
          "duration": 0.06490378124999907
        },
        {
          "name": "C2",
          "midi": 36,
          "time": 32.07689099999999,
          "velocity": 1,
          "duration": 0.09134606250000132
        },
        {
          "name": "D#2",
          "midi": 39,
          "time": 32.30765999999999,
          "velocity": 1,
          "duration": 0.185095968749998
        },
        {
          "name": "A#3",
          "midi": 58,
          "time": 32.30765999999999,
          "velocity": 0.952755905511811,
          "duration": 0.18028828125000018
        },
        {
          "name": "F3",
          "midi": 53,
          "time": 32.30765999999999,
          "velocity": 0.8976377952755905,
          "duration": 0.15144215624999902
        },
        {
          "name": "F2",
          "midi": 41,
          "time": 32.53842899999999,
          "velocity": 1,
          "duration": 0.16826906250000206
        },
        {
          "name": "G3",
          "midi": 55,
          "time": 32.53842899999999,
          "velocity": 0.8188976377952756,
          "duration": 0.04326918750000175
        },
        {
          "name": "C4",
          "midi": 60,
          "time": 32.53842899999999,
          "velocity": 0.889763779527559,
          "duration": 0.06971146875000045
        },
        {
          "name": "A#1",
          "midi": 34,
          "time": 32.76919799999999,
          "velocity": 1,
          "duration": 0.15384600000000148
        },
        {
          "name": "C2",
          "midi": 36,
          "time": 32.99996699999999,
          "velocity": 1,
          "duration": 0.36298040625000283
        },
        {
          "name": "C3",
          "midi": 48,
          "time": 32.99996699999999,
          "velocity": 0.9921259842519685,
          "duration": 0.07211531250000291
        },
        {
          "name": "C2",
          "midi": 36,
          "time": 33.461504999999995,
          "velocity": 1,
          "duration": 0.08894221874999886
        },
        {
          "name": "C3",
          "midi": 48,
          "time": 33.461504999999995,
          "velocity": 0.9212598425196851,
          "duration": 0.031249968749996526
        },
        {
          "name": "G2",
          "midi": 43,
          "time": 33.692274,
          "velocity": 1,
          "duration": 0.16105753124999467
        },
        {
          "name": "D#4",
          "midi": 63,
          "time": 33.692274,
          "velocity": 0.9212598425196851,
          "duration": 0.07211531249999581
        },
        {
          "name": "G3",
          "midi": 55,
          "time": 33.692274,
          "velocity": 0.952755905511811,
          "duration": 0.07692299999999364
        },
        {
          "name": "A#3",
          "midi": 58,
          "time": 33.692274,
          "velocity": 0.9921259842519685,
          "duration": 0.06009609374999769
        },
        {
          "name": "C2",
          "midi": 36,
          "time": 33.92304299999999,
          "velocity": 1,
          "duration": 0.09615374999999915
        },
        {
          "name": "C3",
          "midi": 48,
          "time": 33.92304299999999,
          "velocity": 0.984251968503937,
          "duration": 0.03605765625000146
        },
        {
          "name": "D#2",
          "midi": 39,
          "time": 34.153811999999995,
          "velocity": 1,
          "duration": 0.18269212500000265
        },
        {
          "name": "F3",
          "midi": 53,
          "time": 34.153811999999995,
          "velocity": 0.8976377952755905,
          "duration": 0.14182678125000336
        },
        {
          "name": "A#3",
          "midi": 58,
          "time": 34.153811999999995,
          "velocity": 0.8976377952755905,
          "duration": 0.18990365625000294
        },
        {
          "name": "D4",
          "midi": 62,
          "time": 34.153811999999995,
          "velocity": 0.9448818897637795,
          "duration": 0.17788443750000482
        },
        {
          "name": "F2",
          "midi": 41,
          "time": 34.384581,
          "velocity": 1,
          "duration": 0.16346137499999713
        },
        {
          "name": "G3",
          "midi": 55,
          "time": 34.384581,
          "velocity": 0.937007874015748,
          "duration": 0.05769225000000233
        },
        {
          "name": "A#3",
          "midi": 58,
          "time": 34.384581,
          "velocity": 0.8740157480314961,
          "duration": 0.05048071875000204
        },
        {
          "name": "D#4",
          "midi": 63,
          "time": 34.384581,
          "velocity": 0.8503937007874016,
          "duration": 0.06971146875000045
        },
        {
          "name": "C3",
          "midi": 48,
          "time": 35.30765699999999,
          "velocity": 1,
          "duration": 0.0264422812499987
        },
        {
          "name": "A1",
          "midi": 33,
          "time": 35.53842599999999,
          "velocity": 1,
          "duration": 0.12980756250000525
        },
        {
          "name": "G3",
          "midi": 55,
          "time": 35.53842599999999,
          "velocity": 0.9133858267716536,
          "duration": 0.06730762500000509
        },
        {
          "name": "C4",
          "midi": 60,
          "time": 35.53842599999999,
          "velocity": 0.984251968503937,
          "duration": 0.05769225000000233
        },
        {
          "name": "A1",
          "midi": 33,
          "time": 35.76919499999999,
          "velocity": 1,
          "duration": 0.15384600000000148
        },
        {
          "name": "A#1",
          "midi": 34,
          "time": 35.99996399999999,
          "velocity": 1,
          "duration": 0.11057681249999973
        },
        {
          "name": "A3",
          "midi": 57,
          "time": 35.99996399999999,
          "velocity": 1,
          "duration": 0.17067290624999742
        },
        {
          "name": "A#1",
          "midi": 34,
          "time": 36.23073299999999,
          "velocity": 1,
          "duration": 0.12980756250000525
        },
        {
          "name": "C4",
          "midi": 60,
          "time": 36.23073299999999,
          "velocity": 0.9212598425196851,
          "duration": 0.06490378125000262
        },
        {
          "name": "C2",
          "midi": 36,
          "time": 36.46150199999999,
          "velocity": 1,
          "duration": 0.11057681249999973
        },
        {
          "name": "A3",
          "midi": 57,
          "time": 36.46150199999999,
          "velocity": 0.9448818897637795,
          "duration": 0.04567303124999711
        },
        {
          "name": "C4",
          "midi": 60,
          "time": 36.69227099999999,
          "velocity": 0.7401574803149606,
          "duration": 0.38701884374999906
        },
        {
          "name": "F3",
          "midi": 53,
          "time": 36.69227099999999,
          "velocity": 0.7401574803149606,
          "duration": 0.40865343749999994
        },
        {
          "name": "A3",
          "midi": 57,
          "time": 36.69227099999999,
          "velocity": 0.7401574803149606,
          "duration": 0.4062495937499975
        },
        {
          "name": "E3",
          "midi": 52,
          "time": 37.38457799999999,
          "velocity": 0.7401574803149606,
          "duration": 0.3052881562500005
        },
        {
          "name": "G3",
          "midi": 55,
          "time": 37.38457799999999,
          "velocity": 0.7401574803149606,
          "duration": 0.29567278124999774
        },
        {
          "name": "A3",
          "midi": 57,
          "time": 37.84611599999999,
          "velocity": 0.7401574803149606,
          "duration": 0.13461525000000307
        },
        {
          "name": "C4",
          "midi": 60,
          "time": 37.84611599999999,
          "velocity": 0.7401574803149606,
          "duration": 0.14182678125000336
        },
        {
          "name": "F3",
          "midi": 53,
          "time": 37.84611599999999,
          "velocity": 0.7401574803149606,
          "duration": 0.15624984375000395
        },
        {
          "name": "F3",
          "midi": 53,
          "time": 39.230729999999994,
          "velocity": 0.7401574803149606,
          "duration": 0.2596151250000034
        },
        {
          "name": "A3",
          "midi": 57,
          "time": 39.230729999999994,
          "velocity": 0.7401574803149606,
          "duration": 0.24999975000000063
        },
        {
          "name": "F3",
          "midi": 53,
          "time": 39.692268,
          "velocity": 0.7401574803149606,
          "duration": 0.12740371875000278
        },
        {
          "name": "D4",
          "midi": 62,
          "time": 39.692268,
          "velocity": 0.7401574803149606,
          "duration": 0.13701909375000554
        },
        {
          "name": "A#3",
          "midi": 58,
          "time": 39.692268,
          "velocity": 0.7401574803149606,
          "duration": 0.1129806562500022
        },
        {
          "name": "G3",
          "midi": 55,
          "time": 40.384575000000005,
          "velocity": 0.7401574803149606,
          "duration": 0.41586496875000023
        },
        {
          "name": "E4",
          "midi": 64,
          "time": 40.384575000000005,
          "velocity": 0.7401574803149606,
          "duration": 0.5649032812500039
        },
        {
          "name": "C4",
          "midi": 60,
          "time": 40.384575000000005,
          "velocity": 0.7401574803149606,
          "duration": 0.5552879062500011
        },
        {
          "name": "A3",
          "midi": 57,
          "time": 41.07688200000001,
          "velocity": 0.7401574803149606,
          "duration": 0.185095968749998
        },
        {
          "name": "F4",
          "midi": 65,
          "time": 41.07688200000001,
          "velocity": 0.7401574803149606,
          "duration": 0.1923074999999983
        },
        {
          "name": "C4",
          "midi": 60,
          "time": 41.07688200000001,
          "velocity": 0.7401574803149606,
          "duration": 0.15624984374999684
        },
        {
          "name": "F4",
          "midi": 65,
          "time": 41.53842000000001,
          "velocity": 0.7401574803149606,
          "duration": 0.15144215624999902
        },
        {
          "name": "G3",
          "midi": 55,
          "time": 42.23072700000001,
          "velocity": 0.7401574803149606,
          "duration": 0.3846149999999966
        },
        {
          "name": "E4",
          "midi": 64,
          "time": 42.23072700000001,
          "velocity": 0.7401574803149606,
          "duration": 0.5649032812499968
        },
        {
          "name": "C4",
          "midi": 60,
          "time": 42.23072700000001,
          "velocity": 0.7401574803149606,
          "duration": 0.5745186562499995
        },
        {
          "name": "G3",
          "midi": 55,
          "time": 42.692265000000006,
          "velocity": 0.7401574803149606,
          "duration": 0.10096143749999698
        },
        {
          "name": "A3",
          "midi": 57,
          "time": 42.92303400000001,
          "velocity": 0.7401574803149606,
          "duration": 0.19471134375000076
        },
        {
          "name": "F4",
          "midi": 65,
          "time": 42.92303400000001,
          "velocity": 0.7401574803149606,
          "duration": 0.18269212500000265
        },
        {
          "name": "C4",
          "midi": 60,
          "time": 42.92303400000001,
          "velocity": 0.7401574803149606,
          "duration": 0.16826906250000206
        },
        {
          "name": "A3",
          "midi": 57,
          "time": 43.384572000000006,
          "velocity": 0.7401574803149606,
          "duration": 0.18749981250000047
        },
        {
          "name": "C4",
          "midi": 60,
          "time": 43.384572000000006,
          "velocity": 0.7401574803149606,
          "duration": 0.18749981250000047
        },
        {
          "name": "F4",
          "midi": 65,
          "time": 43.384572000000006,
          "velocity": 0.7401574803149606,
          "duration": 0.1658652187499996
        },
        {
          "name": "G3",
          "midi": 55,
          "time": 43.61534100000001,
          "velocity": 0.7401574803149606,
          "duration": 0.11778834375000002
        },
        {
          "name": "E4",
          "midi": 64,
          "time": 43.61534100000001,
          "velocity": 0.7401574803149606,
          "duration": 0.08894221874999886
        },
        {
          "name": "C4",
          "midi": 60,
          "time": 44.769186000000005,
          "velocity": 0.7401574803149606,
          "duration": 0.1730767499999999
        },
        {
          "name": "E3",
          "midi": 52,
          "time": 44.769186000000005,
          "velocity": 0.7401574803149606,
          "duration": 0.1586536874999993
        },
        {
          "name": "G3",
          "midi": 55,
          "time": 44.769186000000005,
          "velocity": 0.7401574803149606,
          "duration": 0.15624984374999684
        },
        {
          "name": "C4",
          "midi": 60,
          "time": 45.230724,
          "velocity": 0.7401574803149606,
          "duration": 0.14423062499999872
        },
        {
          "name": "A3",
          "midi": 57,
          "time": 45.230724,
          "velocity": 0.7401574803149606,
          "duration": 0.1394229375000009
        },
        {
          "name": "F3",
          "midi": 53,
          "time": 45.230724,
          "velocity": 0.7401574803149606,
          "duration": 0.15384600000000148
        },
        {
          "name": "D4",
          "midi": 62,
          "time": 45.923031,
          "velocity": 0.7401574803149606,
          "duration": 0.5168264062500043
        },
        {
          "name": "F3",
          "midi": 53,
          "time": 45.923031,
          "velocity": 0.7401574803149606,
          "duration": 0.34855734375000225
        },
        {
          "name": "A#3",
          "midi": 58,
          "time": 45.923031,
          "velocity": 0.7401574803149606,
          "duration": 0.5168264062500043
        },
        {
          "name": "F3",
          "midi": 53,
          "time": 46.384569000000006,
          "velocity": 0.7401574803149606,
          "duration": 0.1322114062500006
        },
        {
          "name": "C4",
          "midi": 60,
          "time": 46.61533800000001,
          "velocity": 0.7401574803149606,
          "duration": 0.1394229375000009
        },
        {
          "name": "A3",
          "midi": 57,
          "time": 46.61533800000001,
          "velocity": 0.7401574803149606,
          "duration": 0.12980756249999814
        },
        {
          "name": "G3",
          "midi": 55,
          "time": 47.76918300000001,
          "velocity": 0.7401574803149606,
          "duration": 0.5144225625000018
        },
        {
          "name": "E4",
          "midi": 64,
          "time": 47.76918300000001,
          "velocity": 0.7401574803149606,
          "duration": 0.5504802187500033
        },
        {
          "name": "C4",
          "midi": 60,
          "time": 47.76918300000001,
          "velocity": 0.7401574803149606,
          "duration": 0.5504802187500033
        },
        {
          "name": "A3",
          "midi": 57,
          "time": 48.46149000000002,
          "velocity": 0.7401574803149606,
          "duration": 0.18269212500000265
        },
        {
          "name": "F4",
          "midi": 65,
          "time": 48.46149000000002,
          "velocity": 0.7401574803149606,
          "duration": 0.15624984375000395
        },
        {
          "name": "C4",
          "midi": 60,
          "time": 48.46149000000002,
          "velocity": 0.7401574803149606,
          "duration": 0.13461525000000307
        },
        {
          "name": "A3",
          "midi": 57,
          "time": 48.92302800000002,
          "velocity": 0.7401574803149606,
          "duration": 0.16346137499999713
        },
        {
          "name": "F4",
          "midi": 65,
          "time": 48.92302800000002,
          "velocity": 0.7401574803149606,
          "duration": 0.14423062499999872
        },
        {
          "name": "C4",
          "midi": 60,
          "time": 48.92302800000002,
          "velocity": 0.7401574803149606,
          "duration": 0.17548059374999525
        },
        {
          "name": "E4",
          "midi": 64,
          "time": 49.15379700000002,
          "velocity": 0.7401574803149606,
          "duration": 0.06490378125000262
        },
        {
          "name": "G3",
          "midi": 55,
          "time": 49.15379700000002,
          "velocity": 0.7401574803149606,
          "duration": 0.07692300000000785
        },
        {
          "name": "C4",
          "midi": 60,
          "time": 49.15379700000002,
          "velocity": 0.7401574803149606,
          "duration": 0.06730762500000509
        },
        {
          "name": "A3",
          "midi": 57,
          "time": 50.30764200000003,
          "velocity": 0.7401574803149606,
          "duration": 0.12259603124999785
        },
        {
          "name": "C4",
          "midi": 60,
          "time": 50.30764200000003,
          "velocity": 0.7401574803149606,
          "duration": 0.08894221874999886
        },
        {
          "name": "G3",
          "midi": 55,
          "time": 50.76918000000003,
          "velocity": 0.7401574803149606,
          "duration": 0.14903831249999655
        },
        {
          "name": "D#4",
          "midi": 63,
          "time": 50.76918000000003,
          "velocity": 0.7401574803149606,
          "duration": 0.16346137499999713
        },
        {
          "name": "A#3",
          "midi": 58,
          "time": 50.76918000000003,
          "velocity": 0.7401574803149606,
          "duration": 0.16105753124999467
        },
        {
          "name": "A3",
          "midi": 57,
          "time": 50.99994900000002,
          "velocity": 0.7401574803149606,
          "duration": 0.13701909375000554
        },
        {
          "name": "F4",
          "midi": 65,
          "time": 50.99994900000002,
          "velocity": 0.7401574803149606,
          "duration": 0.12019218750000249
        },
        {
          "name": "C4",
          "midi": 60,
          "time": 50.99994900000002,
          "velocity": 0.7401574803149606,
          "duration": 0.12980756250000525
        },
        {
          "name": "C2",
          "midi": 36,
          "time": 51.46148700000003,
          "velocity": 1,
          "duration": 0.3725957812499985
        },
        {
          "name": "C2",
          "midi": 36,
          "time": 51.923025000000024,
          "velocity": 1,
          "duration": 0.07692300000000074
        },
        {
          "name": "G2",
          "midi": 43,
          "time": 52.153794000000026,
          "velocity": 1,
          "duration": 0.16105753125000177
        },
        {
          "name": "C2",
          "midi": 36,
          "time": 52.38456300000003,
          "velocity": 1,
          "duration": 0.07692300000000074
        },
        {
          "name": "D#2",
          "midi": 39,
          "time": 52.61533200000003,
          "velocity": 1,
          "duration": 0.07692300000000074
        },
        {
          "name": "A#1",
          "midi": 34,
          "time": 53.07687000000003,
          "velocity": 1,
          "duration": 0.07692300000000074
        },
        {
          "name": "C2",
          "midi": 36,
          "time": 53.30763900000003,
          "velocity": 1,
          "duration": 0.3461534999999998
        },
        {
          "name": "C2",
          "midi": 36,
          "time": 53.76917700000003,
          "velocity": 1,
          "duration": 0.09855759375000162
        },
        {
          "name": "G2",
          "midi": 43,
          "time": 53.99994600000003,
          "velocity": 1,
          "duration": 0.1658652187499996
        },
        {
          "name": "C2",
          "midi": 36,
          "time": 54.23071500000003,
          "velocity": 1,
          "duration": 0.10096143749999698
        },
        {
          "name": "D#2",
          "midi": 39,
          "time": 54.46148400000003,
          "velocity": 1,
          "duration": 0.17548059375000236
        },
        {
          "name": "F2",
          "midi": 41,
          "time": 54.69225300000003,
          "velocity": 1,
          "duration": 0.1394229375000009
        },
        {
          "name": "A#1",
          "midi": 34,
          "time": 54.92302200000003,
          "velocity": 1,
          "duration": 0.1466344687500012
        },
        {
          "name": "C2",
          "midi": 36,
          "time": 55.153791000000034,
          "velocity": 1,
          "duration": 0.36057656250000036
        },
        {
          "name": "C2",
          "midi": 36,
          "time": 55.61532900000003,
          "velocity": 1,
          "duration": 0.10336528124999944
        },
        {
          "name": "G2",
          "midi": 43,
          "time": 55.84609800000003,
          "velocity": 1,
          "duration": 0.14903831249999655
        },
        {
          "name": "C2",
          "midi": 36,
          "time": 56.07686700000003,
          "velocity": 1,
          "duration": 0.09615374999999915
        },
        {
          "name": "D#2",
          "midi": 39,
          "time": 56.30763600000003,
          "velocity": 1,
          "duration": 0.15144215624999902
        },
        {
          "name": "F2",
          "midi": 41,
          "time": 56.53840500000003,
          "velocity": 1,
          "duration": 0.15384600000000148
        },
        {
          "name": "A#1",
          "midi": 34,
          "time": 56.769174000000035,
          "velocity": 1,
          "duration": 0.15384600000000148
        },
        {
          "name": "C2",
          "midi": 36,
          "time": 57.461481000000035,
          "velocity": 1,
          "duration": 0.15384600000000148
        },
        {
          "name": "A1",
          "midi": 33,
          "time": 57.69225000000004,
          "velocity": 1,
          "duration": 0.1586536874999993
        },
        {
          "name": "A1",
          "midi": 33,
          "time": 57.92301900000004,
          "velocity": 1,
          "duration": 0.14423062499999872
        },
        {
          "name": "A#1",
          "midi": 34,
          "time": 58.15378800000004,
          "velocity": 1,
          "duration": 0.10817296874999727
        },
        {
          "name": "A#1",
          "midi": 34,
          "time": 58.38455700000004,
          "velocity": 1,
          "duration": 0.12740371875000278
        },
        {
          "name": "B1",
          "midi": 35,
          "time": 58.61532600000004,
          "velocity": 1,
          "duration": 0.14182678125000336
        },
        {
          "name": "C2",
          "midi": 36,
          "time": 58.84609500000004,
          "velocity": 1,
          "duration": 0.3966342187500018
        },
        {
          "name": "C2",
          "midi": 36,
          "time": 59.307633000000045,
          "velocity": 1,
          "duration": 0.12499987500000032
        },
        {
          "name": "G2",
          "midi": 43,
          "time": 59.53840200000005,
          "velocity": 1,
          "duration": 0.17067290624999742
        },
        {
          "name": "C2",
          "midi": 36,
          "time": 59.76917100000004,
          "velocity": 1,
          "duration": 0.10096143749999698
        },
        {
          "name": "D#2",
          "midi": 39,
          "time": 59.99994000000004,
          "velocity": 1,
          "duration": 0.22836515624999976
        },
        {
          "name": "F2",
          "midi": 41,
          "time": 60.23070900000004,
          "velocity": 1,
          "duration": 0.1730767499999999
        },
        {
          "name": "A#1",
          "midi": 34,
          "time": 60.46147800000004,
          "velocity": 1,
          "duration": 0.15384600000000148
        },
        {
          "name": "C2",
          "midi": 36,
          "time": 60.692247000000044,
          "velocity": 1,
          "duration": 0.3533650312500001
        },
        {
          "name": "F2",
          "midi": 41,
          "time": 62.076861000000044,
          "velocity": 1,
          "duration": 0.15624984374999684
        },
        {
          "name": "A#1",
          "midi": 34,
          "time": 62.30763000000004,
          "velocity": 1,
          "duration": 0.1658652187499996
        },
        {
          "name": "C2",
          "midi": 36,
          "time": 62.53839900000004,
          "velocity": 1,
          "duration": 0.3389419687499995
        },
        {
          "name": "C2",
          "midi": 36,
          "time": 62.99993700000004,
          "velocity": 1,
          "duration": 0.11538449999999756
        },
        {
          "name": "G2",
          "midi": 43,
          "time": 63.23070600000003,
          "velocity": 1,
          "duration": 0.15384600000000148
        },
        {
          "name": "C2",
          "midi": 36,
          "time": 63.461475000000036,
          "velocity": 1,
          "duration": 0.10336528124999944
        },
        {
          "name": "D#2",
          "midi": 39,
          "time": 63.69224400000004,
          "velocity": 1,
          "duration": 0.18028828125000018
        },
        {
          "name": "F2",
          "midi": 41,
          "time": 63.92301300000004,
          "velocity": 1,
          "duration": 0.16346137499999713
        },
        {
          "name": "A#1",
          "midi": 34,
          "time": 64.15378200000004,
          "velocity": 1,
          "duration": 0.14182678125000336
        },
        {
          "name": "C2",
          "midi": 36,
          "time": 64.38455100000004,
          "velocity": 1,
          "duration": 0.3389419687500066
        },
        {
          "name": "C2",
          "midi": 36,
          "time": 64.84608900000005,
          "velocity": 1,
          "duration": 0.12740371875000278
        },
        {
          "name": "A1",
          "midi": 33,
          "time": 65.07685800000006,
          "velocity": 1,
          "duration": 0.12259603124999785
        },
        {
          "name": "C2",
          "midi": 36,
          "time": 66.23070300000006,
          "velocity": 1,
          "duration": 0.3653842500000053
        },
        {
          "name": "C2",
          "midi": 36,
          "time": 66.69224100000007,
          "velocity": 1,
          "duration": 0.21394209375000628
        },
        {
          "name": "C2",
          "midi": 36,
          "time": 67.15377900000007,
          "velocity": 1,
          "duration": 0.12740371875000278
        },
        {
          "name": "D#2",
          "midi": 39,
          "time": 67.38454800000008,
          "velocity": 1,
          "duration": 0.16826906250000206
        },
        {
          "name": "F2",
          "midi": 41,
          "time": 67.61531700000008,
          "velocity": 1,
          "duration": 0.15384600000000148
        },
        {
          "name": "A#1",
          "midi": 34,
          "time": 67.84608600000007,
          "velocity": 1,
          "duration": 0.15144215624999902
        },
        {
          "name": "C2",
          "midi": 36,
          "time": 68.07685500000007,
          "velocity": 1,
          "duration": 0.29567278125000485
        },
        {
          "name": "C2",
          "midi": 36,
          "time": 68.53839300000007,
          "velocity": 1,
          "duration": 0.1129806562500022
        },
        {
          "name": "G2",
          "midi": 43,
          "time": 68.76916200000007,
          "velocity": 1,
          "duration": 0.15384600000000148
        },
        {
          "name": "C2",
          "midi": 36,
          "time": 68.99993100000006,
          "velocity": 1,
          "duration": 0.10096143750000408
        },
        {
          "name": "D#2",
          "midi": 39,
          "time": 69.23070000000007,
          "velocity": 1,
          "duration": 0.2379805312499883
        },
        {
          "name": "F2",
          "midi": 41,
          "time": 69.46146900000006,
          "velocity": 1,
          "duration": 0.17067290624999032
        },
        {
          "name": "C2",
          "midi": 36,
          "time": 70.84608300000005,
          "velocity": 1,
          "duration": 0.10817296874999727
        },
        {
          "name": "D#2",
          "midi": 39,
          "time": 71.07685200000004,
          "velocity": 1,
          "duration": 0.23076899999999512
        },
        {
          "name": "F2",
          "midi": 41,
          "time": 71.30762100000004,
          "velocity": 1,
          "duration": 0.1850959687500051
        },
        {
          "name": "A#1",
          "midi": 34,
          "time": 71.53839000000005,
          "velocity": 1,
          "duration": 0.1995190312500057
        },
        {
          "name": "C2",
          "midi": 36,
          "time": 71.76915900000006,
          "velocity": 1,
          "duration": 0.3653842500000053
        },
        {
          "name": "C2",
          "midi": 36,
          "time": 72.23069700000006,
          "velocity": 1,
          "duration": 0.21634593749999453
        },
        {
          "name": "A1",
          "midi": 33,
          "time": 72.46146600000006,
          "velocity": 1,
          "duration": 0.15384600000000148
        },
        {
          "name": "A1",
          "midi": 33,
          "time": 72.69223500000005,
          "velocity": 1,
          "duration": 0.17548059374999525
        },
        {
          "name": "A#1",
          "midi": 34,
          "time": 72.92300400000005,
          "velocity": 1,
          "duration": 0.13461524999999597
        },
        {
          "name": "A#1",
          "midi": 34,
          "time": 73.15377300000004,
          "velocity": 1,
          "duration": 0.1322114062499935
        },
        {
          "name": "B1",
          "midi": 35,
          "time": 73.38454200000004,
          "velocity": 1,
          "duration": 0.16346137499999713
        },
        {
          "name": "C2",
          "midi": 36,
          "time": 73.61531100000003,
          "velocity": 1,
          "duration": 0.37499962500000095
        },
        {
          "name": "F2",
          "midi": 41,
          "time": 74.99992500000003,
          "velocity": 1,
          "duration": 0.18749981249999337
        },
        {
          "name": "A#1",
          "midi": 34,
          "time": 75.23069400000003,
          "velocity": 1,
          "duration": 0.1995190312500057
        },
        {
          "name": "C2",
          "midi": 36,
          "time": 75.46146300000004,
          "velocity": 1,
          "duration": 0.34855734375000225
        },
        {
          "name": "C2",
          "midi": 36,
          "time": 75.92300100000004,
          "velocity": 1,
          "duration": 0.13701909374999843
        },
        {
          "name": "G2",
          "midi": 43,
          "time": 76.15377000000004,
          "velocity": 1,
          "duration": 0.18028828125000018
        },
        {
          "name": "C2",
          "midi": 36,
          "time": 76.38453900000003,
          "velocity": 1,
          "duration": 0.14663446874999408
        },
        {
          "name": "D#2",
          "midi": 39,
          "time": 76.61530800000003,
          "velocity": 1,
          "duration": 0.19711518750000323
        },
        {
          "name": "F2",
          "midi": 41,
          "time": 76.84607700000004,
          "velocity": 1,
          "duration": 0.16826906250000206
        },
        {
          "name": "A#1",
          "midi": 34,
          "time": 77.07684600000003,
          "velocity": 1,
          "duration": 0.21394209375000628
        },
        {
          "name": "C2",
          "midi": 36,
          "time": 77.30761500000004,
          "velocity": 1,
          "duration": 0.35576887499999543
        },
        {
          "name": "C2",
          "midi": 36,
          "time": 77.76915300000003,
          "velocity": 1,
          "duration": 0.11778834374999292
        },
        {
          "name": "G2",
          "midi": 43,
          "time": 77.99992200000003,
          "velocity": 1,
          "duration": 0.15384600000000148
        },
        {
          "name": "C2",
          "midi": 36,
          "time": 79.15376700000003,
          "velocity": 1,
          "duration": 0.3509611875000047
        },
        {
          "name": "C2",
          "midi": 36,
          "time": 79.61530500000003,
          "velocity": 1,
          "duration": 0.14903831249999655
        },
        {
          "name": "A1",
          "midi": 33,
          "time": 79.84607400000003,
          "velocity": 1,
          "duration": 0.12499987500000032
        },
        {
          "name": "A1",
          "midi": 33,
          "time": 80.07684300000003,
          "velocity": 1,
          "duration": 0.15144215624999902
        },
        {
          "name": "A#1",
          "midi": 34,
          "time": 80.30761200000002,
          "velocity": 1,
          "duration": 0.10336528125000655
        },
        {
          "name": "A#1",
          "midi": 34,
          "time": 80.53838100000003,
          "velocity": 1,
          "duration": 0.11538450000000466
        },
        {
          "name": "C2",
          "midi": 36,
          "time": 80.76915000000004,
          "velocity": 1,
          "duration": 0.12499987500000032
        },
        {
          "name": "C4",
          "midi": 60,
          "time": 80.99991900000003,
          "velocity": 0.8503937007874016,
          "duration": 0.4110572812499953
        },
        {
          "name": "F3",
          "midi": 53,
          "time": 80.99991900000003,
          "velocity": 0.8503937007874016,
          "duration": 0.4038457500000021
        },
        {
          "name": "A3",
          "midi": 57,
          "time": 80.99991900000003,
          "velocity": 0.8503937007874016,
          "duration": 0.4038457500000021
        },
        {
          "name": "C4",
          "midi": 60,
          "time": 81.46145700000002,
          "velocity": 0.8503937007874016,
          "duration": 0.09374990624999668
        },
        {
          "name": "F3",
          "midi": 53,
          "time": 81.46145700000002,
          "velocity": 0.8503937007874016,
          "duration": 0.11538449999999045
        },
        {
          "name": "G3",
          "midi": 55,
          "time": 81.69222600000002,
          "velocity": 0.8503937007874016,
          "duration": 0.1322114062499935
        },
        {
          "name": "F3",
          "midi": 53,
          "time": 82.15376400000001,
          "velocity": 0.8503937007874016,
          "duration": 0.36057656250000036
        },
        {
          "name": "A3",
          "midi": 57,
          "time": 82.15376400000001,
          "velocity": 0.8503937007874016,
          "duration": 0.40144190624999965
        },
        {
          "name": "C4",
          "midi": 60,
          "time": 82.15376400000001,
          "velocity": 0.8503937007874016,
          "duration": 0.5336533125000074
        },
        {
          "name": "F3",
          "midi": 53,
          "time": 82.61530200000001,
          "velocity": 0.8503937007874016,
          "duration": 0.07211531250000291
        },
        {
          "name": "A#3",
          "midi": 58,
          "time": 82.84607100000002,
          "velocity": 0.8503937007874016,
          "duration": 0.5432686874999888
        },
        {
          "name": "D4",
          "midi": 62,
          "time": 82.84607100000002,
          "velocity": 0.8503937007874016,
          "duration": 0.5480763749999937
        },
        {
          "name": "F3",
          "midi": 53,
          "time": 82.84607100000002,
          "velocity": 0.8503937007874016,
          "duration": 0.3990380624999972
        },
        {
          "name": "F3",
          "midi": 53,
          "time": 83.30760900000001,
          "velocity": 0.8503937007874016,
          "duration": 0.09615374999999915
        },
        {
          "name": "C4",
          "midi": 60,
          "time": 83.53837800000001,
          "velocity": 0.8503937007874016,
          "duration": 0.1923075000000125
        },
        {
          "name": "A3",
          "midi": 57,
          "time": 83.53837800000001,
          "velocity": 0.8503937007874016,
          "duration": 0.17067290625000453
        },
        {
          "name": "F3",
          "midi": 53,
          "time": 83.53837800000001,
          "velocity": 0.8503937007874016,
          "duration": 0.18990365625001004
        },
        {
          "name": "C4",
          "midi": 60,
          "time": 84.69222300000003,
          "velocity": 0.8503937007874016,
          "duration": 0.5504802187499962
        },
        {
          "name": "G3",
          "midi": 55,
          "time": 84.69222300000003,
          "velocity": 0.8503937007874016,
          "duration": 0.38221115624999413
        },
        {
          "name": "G3",
          "midi": 55,
          "time": 85.15376100000002,
          "velocity": 0.8503937007874016,
          "duration": 0.0937499062500109
        },
        {
          "name": "A3",
          "midi": 57,
          "time": 85.38453000000003,
          "velocity": 0.8503937007874016,
          "duration": 0.17067290625000453
        },
        {
          "name": "F4",
          "midi": 65,
          "time": 85.38453000000003,
          "velocity": 0.8503937007874016,
          "duration": 0.17788443749999772
        },
        {
          "name": "C4",
          "midi": 60,
          "time": 85.38453000000003,
          "velocity": 0.8503937007874016,
          "duration": 0.15144215624999902
        },
        {
          "name": "A3",
          "midi": 57,
          "time": 85.84606800000003,
          "velocity": 0.8503937007874016,
          "duration": 0.17788443749999772
        },
        {
          "name": "F4",
          "midi": 65,
          "time": 85.84606800000003,
          "velocity": 0.8503937007874016,
          "duration": 0.16826906250000206
        },
        {
          "name": "C4",
          "midi": 60,
          "time": 85.84606800000003,
          "velocity": 0.8503937007874016,
          "duration": 0.1923074999999983
        },
        {
          "name": "G3",
          "midi": 55,
          "time": 86.07683700000003,
          "velocity": 0.8503937007874016,
          "duration": 0.10576912500000901
        },
        {
          "name": "E4",
          "midi": 64,
          "time": 86.07683700000003,
          "velocity": 0.8503937007874016,
          "duration": 0.10336528125000655
        },
        {
          "name": "C4",
          "midi": 60,
          "time": 86.07683700000003,
          "velocity": 0.8503937007874016,
          "duration": 0.11057681250001394
        },
        {
          "name": "F4",
          "midi": 65,
          "time": 87.23068200000004,
          "velocity": 0.8503937007874016,
          "duration": 0.14663446874999408
        },
        {
          "name": "C4",
          "midi": 60,
          "time": 87.23068200000004,
          "velocity": 0.8503937007874016,
          "duration": 0.14663446874999408
        },
        {
          "name": "C4",
          "midi": 60,
          "time": 87.69222000000003,
          "velocity": 0.8503937007874016,
          "duration": 0.173076750000007
        },
        {
          "name": "A3",
          "midi": 57,
          "time": 87.69222000000003,
          "velocity": 0.8503937007874016,
          "duration": 0.16826906250000206
        },
        {
          "name": "F4",
          "midi": 65,
          "time": 87.69222000000003,
          "velocity": 0.8503937007874016,
          "duration": 0.15624984375000395
        },
        {
          "name": "G3",
          "midi": 55,
          "time": 87.92298900000004,
          "velocity": 0.8503937007874016,
          "duration": 0.09615374999998494
        },
        {
          "name": "E4",
          "midi": 64,
          "time": 87.92298900000004,
          "velocity": 0.8503937007874016,
          "duration": 0.0793268437499961
        },
        {
          "name": "C4",
          "midi": 60,
          "time": 87.92298900000004,
          "velocity": 0.8503937007874016,
          "duration": 0.08894221874999175
        },
        {
          "name": "C4",
          "midi": 60,
          "time": 88.38452700000003,
          "velocity": 0.8503937007874016,
          "duration": 0.5624994374999943
        },
        {
          "name": "A3",
          "midi": 57,
          "time": 88.38452700000003,
          "velocity": 0.8503937007874016,
          "duration": 0.5408648437500005
        },
        {
          "name": "F3",
          "midi": 53,
          "time": 88.38452700000003,
          "velocity": 0.8503937007874016,
          "duration": 0.391826531250004
        },
        {
          "name": "F3",
          "midi": 53,
          "time": 88.84606500000004,
          "velocity": 0.8503937007874016,
          "duration": 0.11298065624998799
        },
        {
          "name": "A3",
          "midi": 57,
          "time": 89.53837200000002,
          "velocity": 0.8503937007874016,
          "duration": 0.13461524999999597
        },
        {
          "name": "F3",
          "midi": 53,
          "time": 89.53837200000002,
          "velocity": 0.8503937007874016,
          "duration": 0.16105753124999467
        },
        {
          "name": "D4",
          "midi": 62,
          "time": 90.23067900000002,
          "velocity": 0.8503937007874016,
          "duration": 0.543268687500003
        },
        {
          "name": "F3",
          "midi": 53,
          "time": 90.23067900000002,
          "velocity": 0.8503937007874016,
          "duration": 0.39423037500000646
        },
        {
          "name": "A#3",
          "midi": 58,
          "time": 90.23067900000002,
          "velocity": 0.8503937007874016,
          "duration": 0.5408648437500005
        },
        {
          "name": "F3",
          "midi": 53,
          "time": 90.69221700000003,
          "velocity": 0.8503937007874016,
          "duration": 0.09855759375000162
        },
        {
          "name": "A3",
          "midi": 57,
          "time": 90.92298600000002,
          "velocity": 0.8503937007874016,
          "duration": 0.13461524999999597
        },
        {
          "name": "C4",
          "midi": 60,
          "time": 90.92298600000002,
          "velocity": 0.8503937007874016,
          "duration": 0.15624984374998974
        },
        {
          "name": "F3",
          "midi": 53,
          "time": 90.92298600000002,
          "velocity": 0.8503937007874016,
          "duration": 0.1586536874999922
        },
        {
          "name": "F3",
          "midi": 53,
          "time": 91.38452400000001,
          "velocity": 0.8503937007874016,
          "duration": 0.14423062500000583
        },
        {
          "name": "D4",
          "midi": 62,
          "time": 91.38452400000001,
          "velocity": 0.8503937007874016,
          "duration": 0.1201921875000096
        },
        {
          "name": "A#3",
          "midi": 58,
          "time": 91.38452400000001,
          "velocity": 0.8503937007874016,
          "duration": 0.11538450000000466
        },
        {
          "name": "A3",
          "midi": 57,
          "time": 92.76913800000001,
          "velocity": 0.8503937007874016,
          "duration": 0.15144215624999902
        },
        {
          "name": "C4",
          "midi": 60,
          "time": 92.76913800000001,
          "velocity": 0.8503937007874016,
          "duration": 0.12019218749999538
        },
        {
          "name": "A3",
          "midi": 57,
          "time": 93.23067600000002,
          "velocity": 0.8503937007874016,
          "duration": 0.18749981250000758
        },
        {
          "name": "F4",
          "midi": 65,
          "time": 93.23067600000002,
          "velocity": 0.8503937007874016,
          "duration": 0.173076750000007
        },
        {
          "name": "C4",
          "midi": 60,
          "time": 93.23067600000002,
          "velocity": 0.8503937007874016,
          "duration": 0.19471134375000076
        },
        {
          "name": "G3",
          "midi": 55,
          "time": 93.46144500000001,
          "velocity": 0.8503937007874016,
          "duration": 0.10096143750000408
        },
        {
          "name": "E4",
          "midi": 64,
          "time": 93.46144500000001,
          "velocity": 0.8503937007874016,
          "duration": 0.09855759375000162
        },
        {
          "name": "C4",
          "midi": 60,
          "time": 93.46144500000001,
          "velocity": 0.8503937007874016,
          "duration": 0.10096143750000408
        },
        {
          "name": "E4",
          "midi": 64,
          "time": 93.92298300000002,
          "velocity": 0.8503937007874016,
          "duration": 0.5552879062500011
        },
        {
          "name": "G3",
          "midi": 55,
          "time": 93.92298300000002,
          "velocity": 0.8503937007874016,
          "duration": 0.5673071249999992
        },
        {
          "name": "C4",
          "midi": 60,
          "time": 93.92298300000002,
          "velocity": 0.8503937007874016,
          "duration": 0.5721148125000042
        },
        {
          "name": "A3",
          "midi": 57,
          "time": 94.61529000000002,
          "velocity": 0.8503937007874016,
          "duration": 0.1394229375000009
        },
        {
          "name": "A#3",
          "midi": 58,
          "time": 95.07682800000002,
          "velocity": 0.8503937007874016,
          "duration": 0.14182678125000336
        },
        {
          "name": "A3",
          "midi": 57,
          "time": 95.30759700000003,
          "velocity": 0.8503937007874016,
          "duration": 0.13701909374999843
        },
        {
          "name": "F4",
          "midi": 65,
          "time": 95.30759700000003,
          "velocity": 0.8503937007874016,
          "duration": 0.13461524999999597
        },
        {
          "name": "C4",
          "midi": 60,
          "time": 95.30759700000003,
          "velocity": 0.8503937007874016,
          "duration": 0.11778834374999292
        },
        {
          "name": "C2",
          "midi": 36,
          "time": 95.76913500000003,
          "velocity": 1,
          "duration": 0.3774034687500034
        },
        {
          "name": "C2",
          "midi": 36,
          "time": 96.23067300000004,
          "velocity": 1,
          "duration": 0.10817296874999727
        },
        {
          "name": "G2",
          "midi": 43,
          "time": 96.46144200000003,
          "velocity": 1,
          "duration": 0.16346137499999713
        },
        {
          "name": "C2",
          "midi": 36,
          "time": 96.69221100000003,
          "velocity": 1,
          "duration": 0.11538450000000466
        },
        {
          "name": "D#2",
          "midi": 39,
          "time": 96.92298000000004,
          "velocity": 1,
          "duration": 0.19471134375000076
        },
        {
          "name": "F2",
          "midi": 41,
          "time": 97.15374900000003,
          "velocity": 1,
          "duration": 0.14182678125000336
        },
        {
          "name": "A#1",
          "midi": 34,
          "time": 97.38451800000004,
          "velocity": 1,
          "duration": 0.14423062500000583
        },
        {
          "name": "C2",
          "midi": 36,
          "time": 97.61528700000005,
          "velocity": 1,
          "duration": 0.36778809374999355
        },
        {
          "name": "F2",
          "midi": 41,
          "time": 98.99990100000005,
          "velocity": 1,
          "duration": 0.14903831249999655
        },
        {
          "name": "A#1",
          "midi": 34,
          "time": 99.23067000000005,
          "velocity": 1,
          "duration": 0.16346137499999713
        },
        {
          "name": "C2",
          "midi": 36,
          "time": 99.46143900000004,
          "velocity": 1,
          "duration": 0.3461534999999998
        },
        {
          "name": "C2",
          "midi": 36,
          "time": 99.92297700000005,
          "velocity": 1,
          "duration": 0.09855759375000162
        },
        {
          "name": "G2",
          "midi": 43,
          "time": 100.15374600000004,
          "velocity": 1,
          "duration": 0.1586536875000064
        },
        {
          "name": "C2",
          "midi": 36,
          "time": 100.38451500000005,
          "velocity": 1,
          "duration": 0.09855759375000162
        },
        {
          "name": "D#2",
          "midi": 39,
          "time": 100.61528400000005,
          "velocity": 1,
          "duration": 0.17067290625000453
        },
        {
          "name": "F2",
          "midi": 41,
          "time": 100.84605300000005,
          "velocity": 1,
          "duration": 0.16105753124999467
        },
        {
          "name": "A#1",
          "midi": 34,
          "time": 101.07682200000005,
          "velocity": 1,
          "duration": 0.15144215624999902
        },
        {
          "name": "C2",
          "midi": 36,
          "time": 101.30759100000004,
          "velocity": 1,
          "duration": 0.36057656250000036
        },
        {
          "name": "C2",
          "midi": 36,
          "time": 101.76912900000005,
          "velocity": 1,
          "duration": 0.1322114062499935
        },
        {
          "name": "A1",
          "midi": 33,
          "time": 101.99989800000004,
          "velocity": 1,
          "duration": 0.12740371875000278
        },
        {
          "name": "C2",
          "midi": 36,
          "time": 103.15374300000005,
          "velocity": 1,
          "duration": 0.38221115624999413
        },
        {
          "name": "C2",
          "midi": 36,
          "time": 103.61528100000004,
          "velocity": 1,
          "duration": 0.12980756250000525
        },
        {
          "name": "G2",
          "midi": 43,
          "time": 103.84605000000005,
          "velocity": 1,
          "duration": 0.173076750000007
        },
        {
          "name": "C2",
          "midi": 36,
          "time": 104.07681900000006,
          "velocity": 1,
          "duration": 0.10336528125000655
        },
        {
          "name": "D#2",
          "midi": 39,
          "time": 104.30758800000007,
          "velocity": 1,
          "duration": 0.16826906250000206
        },
        {
          "name": "F2",
          "midi": 41,
          "time": 104.53835700000006,
          "velocity": 1,
          "duration": 0.15624984375000395
        },
        {
          "name": "A#1",
          "midi": 34,
          "time": 104.76912600000007,
          "velocity": 1,
          "duration": 0.16346137499999713
        },
        {
          "name": "C2",
          "midi": 36,
          "time": 104.99989500000007,
          "velocity": 1,
          "duration": 0.3774034687500034
        },
        {
          "name": "C2",
          "midi": 36,
          "time": 105.46143300000007,
          "velocity": 1,
          "duration": 0.09615374999999915
        },
        {
          "name": "G2",
          "midi": 43,
          "time": 105.69220200000007,
          "velocity": 1,
          "duration": 0.1586536875000064
        },
        {
          "name": "C2",
          "midi": 36,
          "time": 105.92297100000008,
          "velocity": 1,
          "duration": 0.09615374999999915
        },
        {
          "name": "D#2",
          "midi": 39,
          "time": 106.15374000000007,
          "velocity": 1,
          "duration": 0.2115382500000038
        },
        {
          "name": "G2",
          "midi": 43,
          "time": 107.53835400000007,
          "velocity": 1,
          "duration": 0.16826906250000206
        },
        {
          "name": "C2",
          "midi": 36,
          "time": 107.76912300000006,
          "velocity": 1,
          "duration": 0.09374990624999668
        },
        {
          "name": "D#2",
          "midi": 39,
          "time": 107.99989200000006,
          "velocity": 1,
          "duration": 0.20673056249999888
        },
        {
          "name": "F2",
          "midi": 41,
          "time": 108.23066100000005,
          "velocity": 1,
          "duration": 0.16826906250000206
        },
        {
          "name": "A#1",
          "midi": 34,
          "time": 108.46143000000005,
          "velocity": 1,
          "duration": 0.18028828125000018
        },
        {
          "name": "C2",
          "midi": 36,
          "time": 108.69219900000004,
          "velocity": 1,
          "duration": 0.40144190624999965
        },
        {
          "name": "C2",
          "midi": 36,
          "time": 109.15373700000005,
          "velocity": 1,
          "duration": 0.173076750000007
        },
        {
          "name": "A1",
          "midi": 33,
          "time": 109.38450600000006,
          "velocity": 1,
          "duration": 0.12740371875000278
        },
        {
          "name": "A1",
          "midi": 33,
          "time": 109.61527500000007,
          "velocity": 1,
          "duration": 0.16105753124999467
        },
        {
          "name": "A#1",
          "midi": 34,
          "time": 109.84604400000006,
          "velocity": 1,
          "duration": 0.14182678125000336
        },
        {
          "name": "A#1",
          "midi": 34,
          "time": 110.07681300000007,
          "velocity": 1,
          "duration": 0.12019218749999538
        },
        {
          "name": "B1",
          "midi": 35,
          "time": 110.30758200000007,
          "velocity": 1,
          "duration": 0.15624984375000395
        },
        {
          "name": "D#2",
          "midi": 39,
          "time": 111.69219600000007,
          "velocity": 1,
          "duration": 0.1850959687500051
        },
        {
          "name": "F2",
          "midi": 41,
          "time": 111.92296500000008,
          "velocity": 1,
          "duration": 0.16826906250000206
        },
        {
          "name": "A#1",
          "midi": 34,
          "time": 112.15373400000007,
          "velocity": 1,
          "duration": 0.18269212500000265
        },
        {
          "name": "C2",
          "midi": 36,
          "time": 112.38450300000008,
          "velocity": 1,
          "duration": 0.3581727187499979
        },
        {
          "name": "C2",
          "midi": 36,
          "time": 112.84604100000008,
          "velocity": 1,
          "duration": 0.14663446874999408
        },
        {
          "name": "G2",
          "midi": 43,
          "time": 113.07681000000008,
          "velocity": 1,
          "duration": 0.14903831249999655
        },
        {
          "name": "C2",
          "midi": 36,
          "time": 113.30757900000008,
          "velocity": 1,
          "duration": 0.10096143750000408
        },
        {
          "name": "D#2",
          "midi": 39,
          "time": 113.53834800000008,
          "velocity": 1,
          "duration": 0.218749781249997
        },
        {
          "name": "F2",
          "midi": 41,
          "time": 113.76911700000008,
          "velocity": 1,
          "duration": 0.16105753124999467
        },
        {
          "name": "A#1",
          "midi": 34,
          "time": 113.99988600000007,
          "velocity": 1,
          "duration": 0.14663446874999408
        },
        {
          "name": "C2",
          "midi": 36,
          "time": 114.23065500000007,
          "velocity": 1,
          "duration": 0.3509611875000047
        },
        {
          "name": "C2",
          "midi": 36,
          "time": 114.69219300000007,
          "velocity": 1,
          "duration": 0.1129806562500022
        },
        {
          "name": "A#1",
          "midi": 34,
          "time": 115.84603800000008,
          "velocity": 1,
          "duration": 0.13701909374999843
        },
        {
          "name": "C2",
          "midi": 36,
          "time": 116.07680700000007,
          "velocity": 1,
          "duration": 0.34855734375000225
        },
        {
          "name": "C2",
          "midi": 36,
          "time": 116.53834500000008,
          "velocity": 1,
          "duration": 0.14903831249999655
        },
        {
          "name": "A1",
          "midi": 33,
          "time": 116.76911400000007,
          "velocity": 1,
          "duration": 0.12259603124999785
        },
        {
          "name": "A1",
          "midi": 33,
          "time": 116.99988300000007,
          "velocity": 1,
          "duration": 0.13461524999999597
        },
        {
          "name": "A#1",
          "midi": 34,
          "time": 117.23065200000006,
          "velocity": 1,
          "duration": 0.10817296874999727
        },
        {
          "name": "A#1",
          "midi": 34,
          "time": 117.46142100000006,
          "velocity": 1,
          "duration": 0.11538450000000466
        },
        {
          "name": "B1",
          "midi": 35,
          "time": 117.69219000000007,
          "velocity": 1,
          "duration": 0.12980756250000525
        },
        {
          "name": "C2",
          "midi": 36,
          "time": 117.92295900000008,
          "velocity": 1,
          "duration": 0.3653842500000053
        },
        {
          "name": "C2",
          "midi": 36,
          "time": 118.38449700000008,
          "velocity": 1,
          "duration": 0.09615374999999915
        },
        {
          "name": "G2",
          "midi": 43,
          "time": 118.61526600000008,
          "velocity": 1,
          "duration": 0.1586536875000064
        },
        {
          "name": "C2",
          "midi": 36,
          "time": 118.84603500000009,
          "velocity": 1,
          "duration": 0.08894221875000596
        },
        {
          "name": "C2",
          "midi": 36,
          "time": 120.23064900000008,
          "velocity": 1,
          "duration": 0.10817296874999727
        },
        {
          "name": "G2",
          "midi": 43,
          "time": 120.46141800000008,
          "velocity": 1,
          "duration": 0.15384600000000148
        },
        {
          "name": "C2",
          "midi": 36,
          "time": 120.69218700000008,
          "velocity": 1,
          "duration": 0.12019218749999538
        },
        {
          "name": "D#2",
          "midi": 39,
          "time": 120.92295600000007,
          "velocity": 1,
          "duration": 0.23557668750000005
        },
        {
          "name": "F2",
          "midi": 41,
          "time": 121.15372500000007,
          "velocity": 1,
          "duration": 0.18028828125000018
        },
        {
          "name": "A#1",
          "midi": 34,
          "time": 121.38449400000006,
          "velocity": 1,
          "duration": 0.2259613125000044
        },
        {
          "name": "C2",
          "midi": 36,
          "time": 121.61526300000007,
          "velocity": 1,
          "duration": 0.3725957812499985
        },
        {
          "name": "C2",
          "midi": 36,
          "time": 122.07680100000007,
          "velocity": 1,
          "duration": 0.12019218749999538
        },
        {
          "name": "G2",
          "midi": 43,
          "time": 122.30757000000007,
          "velocity": 1,
          "duration": 0.14182678125000336
        },
        {
          "name": "C2",
          "midi": 36,
          "time": 122.53833900000008,
          "velocity": 1,
          "duration": 0.11538450000000466
        },
        {
          "name": "D#2",
          "midi": 39,
          "time": 122.76910800000009,
          "velocity": 1,
          "duration": 0.1995190312500057
        },
        {
          "name": "F2",
          "midi": 41,
          "time": 122.9998770000001,
          "velocity": 1,
          "duration": 0.16346137499999713
        },
        {
          "name": "A1",
          "midi": 33,
          "time": 124.3844910000001,
          "velocity": 1,
          "duration": 0.16346137499999713
        },
        {
          "name": "A#1",
          "midi": 34,
          "time": 124.61526000000009,
          "velocity": 1,
          "duration": 0.10817296874999727
        },
        {
          "name": "A#1",
          "midi": 34,
          "time": 124.84602900000009,
          "velocity": 1,
          "duration": 0.12740371875000278
        },
        {
          "name": "C2",
          "midi": 36,
          "time": 125.0767980000001,
          "velocity": 1,
          "duration": 0.12499987500000032
        },
        {
          "name": "F3",
          "midi": 53,
          "time": 125.30756700000009,
          "velocity": 0.8503937007874016,
          "duration": 0.5865378750000048
        },
        {
          "name": "C4",
          "midi": 60,
          "time": 125.30756700000009,
          "velocity": 0.8503937007874016,
          "duration": 0.5913455625000097
        },
        {
          "name": "A3",
          "midi": 57,
          "time": 125.30756700000009,
          "velocity": 0.8503937007874016,
          "duration": 0.5865378750000048
        },
        {
          "name": "C4",
          "midi": 60,
          "time": 125.9998740000001,
          "velocity": 0.8503937007874016,
          "duration": 0.21634593749998032
        },
        {
          "name": "E3",
          "midi": 52,
          "time": 125.9998740000001,
          "velocity": 0.8503937007874016,
          "duration": 0.20913440624998714
        },
        {
          "name": "G3",
          "midi": 55,
          "time": 125.9998740000001,
          "velocity": 0.8503937007874016,
          "duration": 0.18749981249999337
        },
        {
          "name": "F3",
          "midi": 53,
          "time": 126.46141200000008,
          "velocity": 0.8503937007874016,
          "duration": 0.13701909374999843
        },
        {
          "name": "C4",
          "midi": 60,
          "time": 126.46141200000008,
          "velocity": 0.8503937007874016,
          "duration": 0.14903831249999655
        },
        {
          "name": "F3",
          "midi": 53,
          "time": 127.84602600000008,
          "velocity": 0.8503937007874016,
          "duration": 0.14663446874999408
        },
        {
          "name": "A3",
          "midi": 57,
          "time": 127.84602600000008,
          "velocity": 0.8503937007874016,
          "duration": 0.1394229375000009
        },
        {
          "name": "C4",
          "midi": 60,
          "time": 127.84602600000008,
          "velocity": 0.8503937007874016,
          "duration": 0.1586536874999922
        },
        {
          "name": "F3",
          "midi": 53,
          "time": 128.30756400000007,
          "velocity": 0.8503937007874016,
          "duration": 0.14423062500000583
        },
        {
          "name": "A#3",
          "midi": 58,
          "time": 128.30756400000007,
          "velocity": 0.8503937007874016,
          "duration": 0.11538450000000466
        },
        {
          "name": "D4",
          "midi": 62,
          "time": 128.30756400000007,
          "velocity": 0.8503937007874016,
          "duration": 0.1394229375000009
        },
        {
          "name": "E4",
          "midi": 64,
          "time": 128.99987100000007,
          "velocity": 0.8503937007874016,
          "duration": 0.5456725312500055
        },
        {
          "name": "G3",
          "midi": 55,
          "time": 128.99987100000007,
          "velocity": 0.8503937007874016,
          "duration": 0.5048071875000062
        },
        {
          "name": "C4",
          "midi": 60,
          "time": 128.99987100000007,
          "velocity": 0.8503937007874016,
          "duration": 0.5456725312500055
        },
        {
          "name": "A3",
          "midi": 57,
          "time": 129.69217800000007,
          "velocity": 0.8503937007874016,
          "duration": 0.11298065624998799
        },
        {
          "name": "F4",
          "midi": 65,
          "time": 129.69217800000007,
          "velocity": 0.8503937007874016,
          "duration": 0.11298065624998799
        },
        {
          "name": "C4",
          "midi": 60,
          "time": 129.69217800000007,
          "velocity": 0.8503937007874016,
          "duration": 0.08894221874999175
        },
        {
          "name": "E4",
          "midi": 64,
          "time": 130.38448500000007,
          "velocity": 0.8503937007874016,
          "duration": 0.08894221874999175
        },
        {
          "name": "G3",
          "midi": 55,
          "time": 130.84602300000006,
          "velocity": 0.8503937007874016,
          "duration": 0.5384610000000123
        },
        {
          "name": "E4",
          "midi": 64,
          "time": 130.84602300000006,
          "velocity": 0.8503937007874016,
          "duration": 0.5697109687500017
        },
        {
          "name": "C4",
          "midi": 60,
          "time": 130.84602300000006,
          "velocity": 0.8503937007874016,
          "duration": 0.5817301874999998
        },
        {
          "name": "A3",
          "midi": 57,
          "time": 131.53833000000006,
          "velocity": 0.8503937007874016,
          "duration": 0.1057691249999948
        },
        {
          "name": "C4",
          "midi": 60,
          "time": 131.53833000000006,
          "velocity": 0.8503937007874016,
          "duration": 0.09134606250000843
        },
        {
          "name": "F4",
          "midi": 65,
          "time": 131.53833000000006,
          "velocity": 0.8503937007874016,
          "duration": 0.10336528125000655
        },
        {
          "name": "F4",
          "midi": 65,
          "time": 131.99986800000005,
          "velocity": 0.8503937007874016,
          "duration": 0.1586536874999922
        },
        {
          "name": "C4",
          "midi": 60,
          "time": 131.99986800000005,
          "velocity": 0.8503937007874016,
          "duration": 0.1850959687500051
        },
        {
          "name": "A3",
          "midi": 57,
          "time": 131.99986800000005,
          "velocity": 0.8503937007874016,
          "duration": 0.1850959687500051
        },
        {
          "name": "G3",
          "midi": 55,
          "time": 132.23063700000006,
          "velocity": 0.8503937007874016,
          "duration": 0.10817296875001148
        },
        {
          "name": "C4",
          "midi": 60,
          "time": 132.23063700000006,
          "velocity": 0.8503937007874016,
          "duration": 0.11778834375002134
        },
        {
          "name": "A3",
          "midi": 57,
          "time": 133.15371300000007,
          "velocity": 0.8503937007874016,
          "duration": 0.11538450000000466
        },
        {
          "name": "G3",
          "midi": 55,
          "time": 133.38448200000008,
          "velocity": 0.8503937007874016,
          "duration": 0.12980756250001946
        },
        {
          "name": "E4",
          "midi": 64,
          "time": 133.38448200000008,
          "velocity": 0.8503937007874016,
          "duration": 0.1201921875000096
        },
        {
          "name": "C4",
          "midi": 60,
          "time": 133.38448200000008,
          "velocity": 0.8503937007874016,
          "duration": 0.12980756250001946
        },
        {
          "name": "A3",
          "midi": 57,
          "time": 133.8460200000001,
          "velocity": 0.8503937007874016,
          "duration": 0.12980756250001946
        },
        {
          "name": "F4",
          "midi": 65,
          "time": 133.8460200000001,
          "velocity": 0.8503937007874016,
          "duration": 0.10336528125000655
        },
        {
          "name": "C4",
          "midi": 60,
          "time": 133.8460200000001,
          "velocity": 0.8503937007874016,
          "duration": 0.09855759375000162
        },
        {
          "name": "F4",
          "midi": 65,
          "time": 134.53832700000012,
          "velocity": 0.8503937007874016,
          "duration": 0.5024033437499895
        },
        {
          "name": "A#3",
          "midi": 58,
          "time": 134.53832700000012,
          "velocity": 0.8503937007874016,
          "duration": 0.4783649062499933
        },
        {
          "name": "D4",
          "midi": 62,
          "time": 134.53832700000012,
          "velocity": 0.8503937007874016,
          "duration": 0.4783649062499933
        },
        {
          "name": "F4",
          "midi": 65,
          "time": 135.23063400000012,
          "velocity": 0.8503937007874016,
          "duration": 0.11538450000000466
        },
        {
          "name": "A3",
          "midi": 57,
          "time": 135.23063400000012,
          "velocity": 0.8503937007874016,
          "duration": 0.1057691249999948
        },
        {
          "name": "E4",
          "midi": 64,
          "time": 136.38447900000014,
          "velocity": 0.8503937007874016,
          "duration": 0.5576917500000036
        },
        {
          "name": "G3",
          "midi": 55,
          "time": 136.38447900000014,
          "velocity": 0.8503937007874016,
          "duration": 0.5312494687499907
        },
        {
          "name": "C4",
          "midi": 60,
          "time": 136.38447900000014,
          "velocity": 0.8503937007874016,
          "duration": 0.5649032812499968
        },
        {
          "name": "A3",
          "midi": 57,
          "time": 137.07678600000014,
          "velocity": 0.8503937007874016,
          "duration": 0.10817296874998306
        },
        {
          "name": "F4",
          "midi": 65,
          "time": 137.07678600000014,
          "velocity": 0.8503937007874016,
          "duration": 0.12019218749998117
        },
        {
          "name": "C4",
          "midi": 60,
          "time": 137.07678600000014,
          "velocity": 0.8503937007874016,
          "duration": 0.10096143749998987
        },
        {
          "name": "A3",
          "midi": 57,
          "time": 137.53832400000013,
          "velocity": 0.8503937007874016,
          "duration": 0.1658652187500138
        },
        {
          "name": "F4",
          "midi": 65,
          "time": 137.53832400000013,
          "velocity": 0.8503937007874016,
          "duration": 0.19471134375001498
        },
        {
          "name": "C4",
          "midi": 60,
          "time": 137.53832400000013,
          "velocity": 0.8503937007874016,
          "duration": 0.3197112187500011
        },
        {
          "name": "G3",
          "midi": 55,
          "time": 137.76909300000014,
          "velocity": 0.8503937007874016,
          "duration": 0.0721153124999887
        },
        {
          "name": "E4",
          "midi": 64,
          "time": 137.76909300000014,
          "velocity": 0.8503937007874016,
          "duration": 0.08173068749999857
        },
        {
          "name": "E4",
          "midi": 64,
          "time": 138.23063100000013,
          "velocity": 0.8503937007874016,
          "duration": 0.5600955937499918
        },
        {
          "name": "C4",
          "midi": 60,
          "time": 138.92293800000013,
          "velocity": 0.8503937007874016,
          "duration": 0.1322114062500077
        },
        {
          "name": "F4",
          "midi": 65,
          "time": 139.38447600000015,
          "velocity": 0.8503937007874016,
          "duration": 0.19471134375001498
        },
        {
          "name": "A3",
          "midi": 57,
          "time": 139.38447600000015,
          "velocity": 0.8503937007874016,
          "duration": 0.1586536874999922
        },
        {
          "name": "C4",
          "midi": 60,
          "time": 139.38447600000015,
          "velocity": 0.8503937007874016,
          "duration": 0.1850959687500051
        },
        {
          "name": "G3",
          "midi": 55,
          "time": 139.61524500000016,
          "velocity": 0.8503937007874016,
          "duration": 0.13701909374998422
        },
        {
          "name": "E4",
          "midi": 64,
          "time": 139.61524500000016,
          "velocity": 0.8503937007874016,
          "duration": 0.11057681249999973
        },
        {
          "name": "C4",
          "midi": 60,
          "time": 139.61524500000016,
          "velocity": 0.8503937007874016,
          "duration": 0.1249998749999861
        },
        {
          "name": "D4",
          "midi": 62,
          "time": 140.07678300000015,
          "velocity": 0.9291338582677166,
          "duration": 2.8413433125000154
        },
        {
          "name": "F3",
          "midi": 53,
          "time": 140.07678300000015,
          "velocity": 0.9291338582677166,
          "duration": 2.788458750000018
        },
        {
          "name": "A#3",
          "midi": 58,
          "time": 140.07678300000015,
          "velocity": 0.9291338582677166,
          "duration": 2.8245164062500123
        },
        {
          "name": "A#1",
          "midi": 34,
          "time": 140.99985900000016,
          "velocity": 1,
          "duration": 0.06009609374999059
        },
        {
          "name": "A#1",
          "midi": 34,
          "time": 141.46139700000015,
          "velocity": 1,
          "duration": 0.0673076250000122
        },
        {
          "name": "A#1",
          "midi": 34,
          "time": 142.61524200000017,
          "velocity": 1,
          "duration": 0.03846150000001103
        },
        {
          "name": "A#1",
          "midi": 34,
          "time": 142.84601100000017,
          "velocity": 1,
          "duration": 0.06009609374999059
        },
        {
          "name": "F4",
          "midi": 65,
          "time": 143.07678000000016,
          "velocity": 0.9291338582677166,
          "duration": 0.2908650937499999
        },
        {
          "name": "A3",
          "midi": 57,
          "time": 143.07678000000016,
          "velocity": 0.9291338582677166,
          "duration": 0.32692274999999427
        },
        {
          "name": "D4",
          "midi": 62,
          "time": 143.07678000000016,
          "velocity": 0.9291338582677166,
          "duration": 0.3317304374999992
        },
        {
          "name": "A#1",
          "midi": 34,
          "time": 143.30754900000017,
          "velocity": 1,
          "duration": 0.06009609374999059
        },
        {
          "name": "A3",
          "midi": 57,
          "time": 143.53831800000015,
          "velocity": 0.9291338582677166,
          "duration": 0.3341342812500159
        },
        {
          "name": "F4",
          "midi": 65,
          "time": 143.53831800000015,
          "velocity": 0.9291338582677166,
          "duration": 0.32211506250001776
        },
        {
          "name": "D4",
          "midi": 62,
          "time": 143.53831800000015,
          "velocity": 0.9291338582677166,
          "duration": 0.3533650312500072
        },
        {
          "name": "C2",
          "midi": 36,
          "time": 143.76908700000016,
          "velocity": 1,
          "duration": 0.045673031250004215
        },
        {
          "name": "A3",
          "midi": 57,
          "time": 143.99985600000016,
          "velocity": 0.9291338582677166,
          "duration": 0.15384599999998727
        },
        {
          "name": "D4",
          "midi": 62,
          "time": 143.99985600000016,
          "velocity": 0.9291338582677166,
          "duration": 0.1394229375000009
        },
        {
          "name": "G3",
          "midi": 55,
          "time": 144.46139400000015,
          "velocity": 0.9291338582677166,
          "duration": 0.23317284374999758
        },
        {
          "name": "E4",
          "midi": 64,
          "time": 144.46139400000015,
          "velocity": 0.9291338582677166,
          "duration": 0.2259613125000044
        },
        {
          "name": "C4",
          "midi": 60,
          "time": 144.46139400000015,
          "velocity": 0.9291338582677166,
          "duration": 0.23557668749998584
        },
        {
          "name": "E4",
          "midi": 64,
          "time": 144.92293200000015,
          "velocity": 0.9291338582677166,
          "duration": 2.58653587500001
        },
        {
          "name": "C4",
          "midi": 60,
          "time": 144.92293200000015,
          "velocity": 0.9291338582677166,
          "duration": 2.5961512500000197
        },
        {
          "name": "G3",
          "midi": 55,
          "time": 144.92293200000015,
          "velocity": 0.9291338582677166,
          "duration": 2.627401218750009
        },
        {
          "name": "C2",
          "midi": 36,
          "time": 146.07677700000013,
          "velocity": 1,
          "duration": 0.03846150000001103
        },
        {
          "name": "C2",
          "midi": 36,
          "time": 146.53831500000015,
          "velocity": 1,
          "duration": 0.05528840625001408
        },
        {
          "name": "D2",
          "midi": 38,
          "time": 146.76908400000016,
          "velocity": 1,
          "duration": 0.20432671874999642
        },
        {
          "name": "E2",
          "midi": 40,
          "time": 146.99985300000017,
          "velocity": 1,
          "duration": 0.08413453124998682
        },
        {
          "name": "D2",
          "midi": 38,
          "time": 147.23062200000015,
          "velocity": 1,
          "duration": 0.11057681249999973
        },
        {
          "name": "C2",
          "midi": 36,
          "time": 147.46139100000016,
          "velocity": 1,
          "duration": 0.05769225000000233
        },
        {
          "name": "A#1",
          "midi": 34,
          "time": 148.38446700000014,
          "velocity": 1,
          "duration": 0.0528845624999974
        },
        {
          "name": "C2",
          "midi": 36,
          "time": 148.61523600000015,
          "velocity": 1,
          "duration": 0.18990365625001004
        },
        {
          "name": "D2",
          "midi": 38,
          "time": 148.84600500000016,
          "velocity": 1,
          "duration": 0.09855759375000162
        },
        {
          "name": "C2",
          "midi": 36,
          "time": 149.07677400000017,
          "velocity": 1,
          "duration": 0.0865383750000035
        },
        {
          "name": "A#1",
          "midi": 34,
          "time": 149.30754300000018,
          "velocity": 1,
          "duration": 0.23076900000000933
        },
        {
          "name": "A#1",
          "midi": 34,
          "time": 150.2306190000002,
          "velocity": 1,
          "duration": 0.050480718750009146
        },
        {
          "name": "C2",
          "midi": 36,
          "time": 150.4613880000002,
          "velocity": 1,
          "duration": 0.18749981249999337
        },
        {
          "name": "D2",
          "midi": 38,
          "time": 150.69215700000018,
          "velocity": 1,
          "duration": 0.08173068749999857
        },
        {
          "name": "C2",
          "midi": 36,
          "time": 150.9229260000002,
          "velocity": 1,
          "duration": 0.09134606250000843
        },
        {
          "name": "A#1",
          "midi": 34,
          "time": 151.1536950000002,
          "velocity": 1,
          "duration": 0.10336528125000655
        },
        {
          "name": "G3",
          "midi": 55,
          "time": 151.3844640000002,
          "velocity": 0.9291338582677166,
          "duration": 0.11057681249999973
        },
        {
          "name": "E4",
          "midi": 64,
          "time": 151.3844640000002,
          "velocity": 0.9291338582677166,
          "duration": 0.11057681249999973
        },
        {
          "name": "G4",
          "midi": 67,
          "time": 153.2306160000002,
          "velocity": 0.9291338582677166,
          "duration": 0.437499562499994
        },
        {
          "name": "G2",
          "midi": 43,
          "time": 153.4613850000002,
          "velocity": 1,
          "duration": 0.08413453124998682
        },
        {
          "name": "F2",
          "midi": 41,
          "time": 153.6921540000002,
          "velocity": 1,
          "duration": 0.08173068749999857
        },
        {
          "name": "F2",
          "midi": 41,
          "time": 153.9229230000002,
          "velocity": 1,
          "duration": 0.07451915625000538
        },
        {
          "name": "D#2",
          "midi": 39,
          "time": 154.0383075000002,
          "velocity": 1,
          "duration": 0.0721153124999887
        },
        {
          "name": "D#2",
          "midi": 39,
          "time": 154.26907650000018,
          "velocity": 1,
          "duration": 0.18269212499998844
        },
        {
          "name": "D2",
          "midi": 38,
          "time": 154.61523000000017,
          "velocity": 1,
          "duration": 0.07932684375001031
        },
        {
          "name": "D2",
          "midi": 38,
          "time": 154.84599900000018,
          "velocity": 1,
          "duration": 0.04807687499999247
        },
        {
          "name": "G2",
          "midi": 43,
          "time": 155.07676800000016,
          "velocity": 1,
          "duration": 0.07692299999999364
        },
        {
          "name": "G2",
          "midi": 43,
          "time": 155.30753700000014,
          "velocity": 1,
          "duration": 0.0721153124999887
        },
        {
          "name": "F2",
          "midi": 41,
          "time": 155.53830600000012,
          "velocity": 1,
          "duration": 0.0673076250000122
        },
        {
          "name": "F2",
          "midi": 41,
          "time": 155.76907500000013,
          "velocity": 1,
          "duration": 0.0721153124999887
        },
        {
          "name": "C2",
          "midi": 36,
          "time": 156.6921510000001,
          "velocity": 1,
          "duration": 0.40865343749999283
        },
        {
          "name": "C2",
          "midi": 36,
          "time": 157.1536890000001,
          "velocity": 1,
          "duration": 0.09855759375000162
        },
        {
          "name": "G2",
          "midi": 43,
          "time": 157.3844580000001,
          "velocity": 1,
          "duration": 0.16346137499999713
        },
        {
          "name": "C2",
          "midi": 36,
          "time": 157.61522700000012,
          "velocity": 1,
          "duration": 0.0865383750000035
        },
        {
          "name": "D#2",
          "midi": 39,
          "time": 157.84599600000013,
          "velocity": 1,
          "duration": 0.20192287500000816
        },
        {
          "name": "F2",
          "midi": 41,
          "time": 158.07676500000014,
          "velocity": 1,
          "duration": 0.16826906250000206
        },
        {
          "name": "A#1",
          "midi": 34,
          "time": 158.30753400000015,
          "velocity": 1,
          "duration": 0.19471134374998655
        },
        {
          "name": "C2",
          "midi": 36,
          "time": 158.53830300000013,
          "velocity": 1,
          "duration": 0.34134581250000906
        },
        {
          "name": "C2",
          "midi": 36,
          "time": 158.99984100000015,
          "velocity": 1,
          "duration": 0.10096143749998987
        },
        {
          "name": "G2",
          "midi": 43,
          "time": 159.23061000000013,
          "velocity": 1,
          "duration": 0.17067290624999032
        },
        {
          "name": "C2",
          "midi": 36,
          "time": 159.4613790000001,
          "velocity": 1,
          "duration": 0.08894221874999175
        },
        {
          "name": "D#2",
          "midi": 39,
          "time": 159.6921480000001,
          "velocity": 1,
          "duration": 0.22355746874998772
        },
        {
          "name": "G2",
          "midi": 43,
          "time": 161.0767620000001,
          "velocity": 1,
          "duration": 0.16826906250000206
        },
        {
          "name": "C2",
          "midi": 36,
          "time": 161.3075310000001,
          "velocity": 1,
          "duration": 0.10096143749998987
        },
        {
          "name": "D#2",
          "midi": 39,
          "time": 161.53830000000008,
          "velocity": 1,
          "duration": 0.2067305625000131
        },
        {
          "name": "F2",
          "midi": 41,
          "time": 161.7690690000001,
          "velocity": 1,
          "duration": 0.22836515624999265
        },
        {
          "name": "A#1",
          "midi": 34,
          "time": 161.99983800000007,
          "velocity": 1,
          "duration": 0.20913440625000135
        },
        {
          "name": "C2",
          "midi": 36,
          "time": 162.23060700000008,
          "velocity": 1,
          "duration": 0.3629804062499886
        },
        {
          "name": "C2",
          "midi": 36,
          "time": 162.69214500000007,
          "velocity": 1,
          "duration": 0.20913440625000135
        },
        {
          "name": "A1",
          "midi": 33,
          "time": 162.92291400000008,
          "velocity": 1,
          "duration": 0.14423062500000583
        },
        {
          "name": "A1",
          "midi": 33,
          "time": 163.1536830000001,
          "velocity": 1,
          "duration": 0.17788443750001193
        },
        {
          "name": "A#1",
          "midi": 34,
          "time": 163.3844520000001,
          "velocity": 1,
          "duration": 0.14423062500000583
        },
        {
          "name": "A#1",
          "midi": 34,
          "time": 163.6152210000001,
          "velocity": 1,
          "duration": 0.15624984375000395
        },
        {
          "name": "B1",
          "midi": 35,
          "time": 163.8459900000001,
          "velocity": 1,
          "duration": 0.14423062500000583
        },
        {
          "name": "D#2",
          "midi": 39,
          "time": 165.2306040000001,
          "velocity": 1,
          "duration": 0.18990365625001004
        },
        {
          "name": "F2",
          "midi": 41,
          "time": 165.46137300000012,
          "velocity": 1,
          "duration": 0.20913440625000135
        },
        {
          "name": "A#1",
          "midi": 34,
          "time": 165.69214200000013,
          "velocity": 1,
          "duration": 0.18990365625001004
        },
        {
          "name": "C2",
          "midi": 36,
          "time": 165.92291100000014,
          "velocity": 1,
          "duration": 0.3629804062499886
        },
        {
          "name": "C2",
          "midi": 36,
          "time": 166.38444900000013,
          "velocity": 1,
          "duration": 0.12740371875000278
        },
        {
          "name": "G2",
          "midi": 43,
          "time": 166.61521800000014,
          "velocity": 1,
          "duration": 0.17548059374999525
        },
        {
          "name": "C2",
          "midi": 36,
          "time": 166.84598700000015,
          "velocity": 1,
          "duration": 0.10096143749998987
        },
        {
          "name": "D#2",
          "midi": 39,
          "time": 167.07675600000013,
          "velocity": 1,
          "duration": 0.2187497812500112
        },
        {
          "name": "F2",
          "midi": 41,
          "time": 167.30752500000014,
          "velocity": 1,
          "duration": 0.173076750000007
        },
        {
          "name": "A#1",
          "midi": 34,
          "time": 167.53829400000015,
          "velocity": 1,
          "duration": 0.18990365625001004
        },
        {
          "name": "C2",
          "midi": 36,
          "time": 167.76906300000016,
          "velocity": 1,
          "duration": 0.34134581250000906
        },
        {
          "name": "C2",
          "midi": 36,
          "time": 168.23060100000018,
          "velocity": 1,
          "duration": 0.12259603124999785
        },
        {
          "name": "A#1",
          "midi": 34,
          "time": 169.38444600000017,
          "velocity": 1,
          "duration": 0.18749981249999337
        },
        {
          "name": "C2",
          "midi": 36,
          "time": 169.61521500000015,
          "velocity": 1,
          "duration": 0.37499962499998674
        },
        {
          "name": "C2",
          "midi": 36,
          "time": 170.07675300000014,
          "velocity": 1,
          "duration": 0.2115382499999896
        },
        {
          "name": "A1",
          "midi": 33,
          "time": 170.30752200000012,
          "velocity": 1,
          "duration": 0.1394229375000009
        },
        {
          "name": "A1",
          "midi": 33,
          "time": 170.53829100000013,
          "velocity": 1,
          "duration": 0.18269212499998844
        },
        {
          "name": "A#1",
          "midi": 34,
          "time": 170.7690600000001,
          "velocity": 1,
          "duration": 0.15144215624999902
        },
        {
          "name": "A#1",
          "midi": 34,
          "time": 170.99982900000012,
          "velocity": 1,
          "duration": 0.1394229375000009
        },
        {
          "name": "B1",
          "midi": 35,
          "time": 171.23059800000013,
          "velocity": 1,
          "duration": 0.14423062500000583
        },
        {
          "name": "C2",
          "midi": 36,
          "time": 171.46136700000014,
          "velocity": 1,
          "duration": 0.3990380625000114
        },
        {
          "name": "C2",
          "midi": 36,
          "time": 171.92290500000016,
          "velocity": 1,
          "duration": 0.14663446874999408
        },
        {
          "name": "G2",
          "midi": 43,
          "time": 172.15367400000014,
          "velocity": 1,
          "duration": 0.17548059374999525
        },
        {
          "name": "C2",
          "midi": 36,
          "time": 172.38444300000015,
          "velocity": 1,
          "duration": 0.11538450000000466
        },
        {
          "name": "C2",
          "midi": 36,
          "time": 173.76905700000015,
          "velocity": 1,
          "duration": 0.09855759375000162
        },
        {
          "name": "G2",
          "midi": 43,
          "time": 173.99982600000016,
          "velocity": 1,
          "duration": 0.1394229375000009
        },
        {
          "name": "C2",
          "midi": 36,
          "time": 174.23059500000016,
          "velocity": 1,
          "duration": 0.09134606250000843
        },
        {
          "name": "D#2",
          "midi": 39,
          "time": 174.46136400000017,
          "velocity": 1,
          "duration": 0.2259613125000044
        },
        {
          "name": "F2",
          "midi": 41,
          "time": 174.69213300000018,
          "velocity": 1,
          "duration": 0.15624984375000395
        },
        {
          "name": "A#1",
          "midi": 34,
          "time": 174.9229020000002,
          "velocity": 1,
          "duration": 0.19711518750000323
        },
        {
          "name": "C2",
          "midi": 36,
          "time": 175.1536710000002,
          "velocity": 1,
          "duration": 0.3629804062499886
        },
        {
          "name": "C2",
          "midi": 36,
          "time": 175.6152090000002,
          "velocity": 1,
          "duration": 0.1394229375000009
        },
        {
          "name": "G2",
          "midi": 43,
          "time": 175.8459780000002,
          "velocity": 1,
          "duration": 0.16346137499999713
        },
        {
          "name": "C2",
          "midi": 36,
          "time": 176.0767470000002,
          "velocity": 1,
          "duration": 0.1201921875000096
        },
        {
          "name": "D#2",
          "midi": 39,
          "time": 176.30751600000022,
          "velocity": 1,
          "duration": 0.20432671874999642
        },
        {
          "name": "F2",
          "midi": 41,
          "time": 176.53828500000023,
          "velocity": 1,
          "duration": 0.20432671874999642
        },
        {
          "name": "A1",
          "midi": 33,
          "time": 177.92289900000023,
          "velocity": 1,
          "duration": 0.1850959687500051
        },
        {
          "name": "A#1",
          "midi": 34,
          "time": 178.15366800000024,
          "velocity": 1,
          "duration": 0.12259603124999785
        },
        {
          "name": "A#1",
          "midi": 34,
          "time": 178.38443700000025,
          "velocity": 1,
          "duration": 0.2259613125000044
        },
        {
          "name": "B1",
          "midi": 35,
          "time": 178.61520600000026,
          "velocity": 1,
          "duration": 0.15624984375000395
        },
        {
          "name": "C2",
          "midi": 36,
          "time": 178.84597500000027,
          "velocity": 1,
          "duration": 0.3870188437500133
        },
        {
          "name": "C2",
          "midi": 36,
          "time": 179.30751300000028,
          "velocity": 1,
          "duration": 0.16826906250000206
        },
        {
          "name": "G2",
          "midi": 43,
          "time": 179.5382820000003,
          "velocity": 1,
          "duration": 0.1658652187500138
        },
        {
          "name": "C2",
          "midi": 36,
          "time": 179.7690510000003,
          "velocity": 1,
          "duration": 0.1249998749999861
        },
        {
          "name": "D#2",
          "midi": 39,
          "time": 179.99982000000028,
          "velocity": 1,
          "duration": 0.22115362499999947
        },
        {
          "name": "F2",
          "midi": 41,
          "time": 180.2305890000003,
          "velocity": 1,
          "duration": 0.18028828125000018
        },
        {
          "name": "A#1",
          "midi": 34,
          "time": 180.4613580000003,
          "velocity": 1,
          "duration": 0.1923074999999983
        },
        {
          "name": "C2",
          "midi": 36,
          "time": 180.6921270000003,
          "velocity": 1,
          "duration": 0.42788418750001256
        },
        {
          "name": "F2",
          "midi": 41,
          "time": 182.0767410000003,
          "velocity": 1,
          "duration": 0.21634593749999453
        },
        {
          "name": "A#1",
          "midi": 34,
          "time": 182.3075100000003,
          "velocity": 1,
          "duration": 0.22836515624999265
        },
        {
          "name": "C2",
          "midi": 36,
          "time": 182.53827900000027,
          "velocity": 1,
          "duration": 0.3509611874999905
        },
        {
          "name": "C2",
          "midi": 36,
          "time": 182.99981700000026,
          "velocity": 1,
          "duration": 0.15384599999998727
        },
        {
          "name": "G2",
          "midi": 43,
          "time": 183.23058600000024,
          "velocity": 1,
          "duration": 0.1658652187500138
        },
        {
          "name": "C2",
          "midi": 36,
          "time": 183.46135500000025,
          "velocity": 1,
          "duration": 0.13461524999999597
        },
        {
          "name": "D#2",
          "midi": 39,
          "time": 183.69212400000026,
          "velocity": 1,
          "duration": 0.17548059374999525
        },
        {
          "name": "F2",
          "midi": 41,
          "time": 183.92289300000027,
          "velocity": 1,
          "duration": 0.1658652187500138
        },
        {
          "name": "A#1",
          "midi": 34,
          "time": 184.15366200000028,
          "velocity": 1,
          "duration": 0.19471134374998655
        },
        {
          "name": "C2",
          "midi": 36,
          "time": 184.38443100000026,
          "velocity": 1,
          "duration": 0.3725957812499985
        },
        {
          "name": "C2",
          "midi": 36,
          "time": 184.84596900000025,
          "velocity": 1,
          "duration": 0.15624984375000395
        },
        {
          "name": "A1",
          "midi": 33,
          "time": 185.07673800000026,
          "velocity": 1,
          "duration": 0.11778834374999292
        },
        {
          "name": "F3",
          "midi": 53,
          "time": 186.23058300000025,
          "velocity": 0.968503937007874,
          "duration": 0.43269187499998907
        },
        {
          "name": "C4",
          "midi": 60,
          "time": 186.23058300000025,
          "velocity": 0.968503937007874,
          "duration": 0.43269187499998907
        },
        {
          "name": "A3",
          "midi": 57,
          "time": 186.23058300000025,
          "velocity": 0.968503937007874,
          "duration": 0.4302880312500008
        },
        {
          "name": "F3",
          "midi": 53,
          "time": 186.69212100000024,
          "velocity": 0.968503937007874,
          "duration": 0.10336528125000655
        },
        {
          "name": "A3",
          "midi": 57,
          "time": 186.69212100000024,
          "velocity": 0.968503937007874,
          "duration": 0.09134606250000843
        },
        {
          "name": "C4",
          "midi": 60,
          "time": 186.69212100000024,
          "velocity": 0.968503937007874,
          "duration": 0.09134606250000843
        },
        {
          "name": "C4",
          "midi": 60,
          "time": 186.92289000000025,
          "velocity": 0.968503937007874,
          "duration": 0.1394229375000009
        },
        {
          "name": "E3",
          "midi": 52,
          "time": 186.92289000000025,
          "velocity": 0.968503937007874,
          "duration": 0.1394229375000009
        },
        {
          "name": "G3",
          "midi": 55,
          "time": 186.92289000000025,
          "velocity": 0.968503937007874,
          "duration": 0.11538450000000466
        },
        {
          "name": "F3",
          "midi": 53,
          "time": 187.38442800000024,
          "velocity": 0.968503937007874,
          "duration": 0.12740371875000278
        },
        {
          "name": "C4",
          "midi": 60,
          "time": 187.38442800000024,
          "velocity": 0.968503937007874,
          "duration": 0.1394229375000009
        },
        {
          "name": "A3",
          "midi": 57,
          "time": 187.38442800000024,
          "velocity": 0.968503937007874,
          "duration": 0.1322114062500077
        },
        {
          "name": "D4",
          "midi": 62,
          "time": 188.53827300000023,
          "velocity": 0.968503937007874,
          "duration": 0.08413453124998682
        },
        {
          "name": "A#3",
          "midi": 58,
          "time": 188.53827300000023,
          "velocity": 0.968503937007874,
          "duration": 0.08173068749999857
        },
        {
          "name": "F3",
          "midi": 53,
          "time": 188.7690420000002,
          "velocity": 0.968503937007874,
          "duration": 0.13942293749997248
        },
        {
          "name": "C4",
          "midi": 60,
          "time": 188.7690420000002,
          "velocity": 0.968503937007874,
          "duration": 0.13701909374998422
        },
        {
          "name": "A3",
          "midi": 57,
          "time": 188.7690420000002,
          "velocity": 0.968503937007874,
          "duration": 0.12980756249999104
        },
        {
          "name": "F3",
          "midi": 53,
          "time": 189.23058000000017,
          "velocity": 0.968503937007874,
          "duration": 0.11298065625001641
        },
        {
          "name": "D4",
          "midi": 62,
          "time": 189.23058000000017,
          "velocity": 0.968503937007874,
          "duration": 0.10096143750001829
        },
        {
          "name": "A#3",
          "midi": 58,
          "time": 189.23058000000017,
          "velocity": 0.968503937007874,
          "duration": 0.07451915625000538
        },
        {
          "name": "G3",
          "midi": 55,
          "time": 189.9228870000002,
          "velocity": 0.968503937007874,
          "duration": 0.4110572812500095
        },
        {
          "name": "E4",
          "midi": 64,
          "time": 189.9228870000002,
          "velocity": 0.968503937007874,
          "duration": 0.5552879062500153
        },
        {
          "name": "C4",
          "midi": 60,
          "time": 189.9228870000002,
          "velocity": 0.968503937007874,
          "duration": 0.5552879062500153
        },
        {
          "name": "G3",
          "midi": 55,
          "time": 190.38442500000022,
          "velocity": 0.968503937007874,
          "duration": 0.08173068749999857
        },
        {
          "name": "A3",
          "midi": 57,
          "time": 191.07673200000022,
          "velocity": 0.968503937007874,
          "duration": 0.16826906250000206
        },
        {
          "name": "F4",
          "midi": 65,
          "time": 191.07673200000022,
          "velocity": 0.968503937007874,
          "duration": 0.14903831250001076
        },
        {
          "name": "G3",
          "midi": 55,
          "time": 191.30750100000023,
          "velocity": 0.968503937007874,
          "duration": 0.07932684374998189
        },
        {
          "name": "E4",
          "midi": 64,
          "time": 191.30750100000023,
          "velocity": 0.968503937007874,
          "duration": 0.07451915624997696
        },
        {
          "name": "C4",
          "midi": 60,
          "time": 191.30750100000023,
          "velocity": 0.968503937007874,
          "duration": 0.0721153124999887
        },
        {
          "name": "E4",
          "midi": 64,
          "time": 191.76903900000022,
          "velocity": 0.968503937007874,
          "duration": 0.38942268750000153
        },
        {
          "name": "G3",
          "midi": 55,
          "time": 191.76903900000022,
          "velocity": 0.968503937007874,
          "duration": 0.3774034687500034
        },
        {
          "name": "C4",
          "midi": 60,
          "time": 191.76903900000022,
          "velocity": 0.968503937007874,
          "duration": 0.3774034687500034
        },
        {
          "name": "C4",
          "midi": 60,
          "time": 192.2305770000002,
          "velocity": 0.968503937007874,
          "duration": 0.0528845624999974
        },
        {
          "name": "G3",
          "midi": 55,
          "time": 192.2305770000002,
          "velocity": 0.968503937007874,
          "duration": 0.06490378124999552
        },
        {
          "name": "E4",
          "midi": 64,
          "time": 192.2305770000002,
          "velocity": 0.968503937007874,
          "duration": 0.07692299999999364
        },
        {
          "name": "F4",
          "midi": 65,
          "time": 192.4613460000002,
          "velocity": 0.968503937007874,
          "duration": 0.0865383750000035
        },
        {
          "name": "C4",
          "midi": 60,
          "time": 192.92288400000018,
          "velocity": 0.968503937007874,
          "duration": 0.18269212499998844
        },
        {
          "name": "G3",
          "midi": 55,
          "time": 193.15365300000016,
          "velocity": 0.968503937007874,
          "duration": 0.0649037812499671
        },
        {
          "name": "E4",
          "midi": 64,
          "time": 193.15365300000016,
          "velocity": 0.968503937007874,
          "duration": 0.06009609374999059
        },
        {
          "name": "C4",
          "midi": 60,
          "time": 193.15365300000016,
          "velocity": 0.968503937007874,
          "duration": 0.06249993749997884
        },
        {
          "name": "C4",
          "midi": 60,
          "time": 193.61519100000012,
          "velocity": 0.968503937007874,
          "duration": 0.5697109687500017
        },
        {
          "name": "F3",
          "midi": 53,
          "time": 193.61519100000012,
          "velocity": 0.968503937007874,
          "duration": 0.5769224999999949
        },
        {
          "name": "A3",
          "midi": 57,
          "time": 193.61519100000012,
          "velocity": 0.968503937007874,
          "duration": 0.5697109687500017
        },
        {
          "name": "E3",
          "midi": 52,
          "time": 194.30749800000012,
          "velocity": 0.968503937007874,
          "duration": 0.07932684375001031
        },
        {
          "name": "C4",
          "midi": 60,
          "time": 194.30749800000012,
          "velocity": 0.968503937007874,
          "duration": 0.07932684375001031
        },
        {
          "name": "G3",
          "midi": 55,
          "time": 194.30749800000012,
          "velocity": 0.968503937007874,
          "duration": 0.06971146875000045
        },
        {
          "name": "F3",
          "midi": 53,
          "time": 194.76903600000014,
          "velocity": 0.968503937007874,
          "duration": 0.09615374999998494
        },
        {
          "name": "A3",
          "midi": 57,
          "time": 194.76903600000014,
          "velocity": 0.968503937007874,
          "duration": 0.08413453124998682
        },
        {
          "name": "F3",
          "midi": 53,
          "time": 196.1536500000001,
          "velocity": 0.968503937007874,
          "duration": 0.10336528124997812
        },
        {
          "name": "A3",
          "midi": 57,
          "time": 196.1536500000001,
          "velocity": 0.968503937007874,
          "duration": 0.09374990624999668
        },
        {
          "name": "C4",
          "midi": 60,
          "time": 196.1536500000001,
          "velocity": 0.968503937007874,
          "duration": 0.10096143749998987
        },
        {
          "name": "D4",
          "midi": 62,
          "time": 196.6151880000001,
          "velocity": 0.968503937007874,
          "duration": 0.0865383750000035
        },
        {
          "name": "F3",
          "midi": 53,
          "time": 196.6151880000001,
          "velocity": 0.968503937007874,
          "duration": 0.10096143749998987
        },
        {
          "name": "A#3",
          "midi": 58,
          "time": 196.6151880000001,
          "velocity": 0.968503937007874,
          "duration": 0.07932684375001031
        },
        {
          "name": "G3",
          "midi": 55,
          "time": 197.3074950000001,
          "velocity": 0.968503937007874,
          "duration": 0.5336533125000074
        },
        {
          "name": "E4",
          "midi": 64,
          "time": 197.3074950000001,
          "velocity": 0.968503937007874,
          "duration": 0.5649032812499968
        },
        {
          "name": "C4",
          "midi": 60,
          "time": 197.3074950000001,
          "velocity": 0.968503937007874,
          "duration": 0.5649032812499968
        },
        {
          "name": "A3",
          "midi": 57,
          "time": 197.9998020000001,
          "velocity": 0.968503937007874,
          "duration": 0.07932684374998189
        },
        {
          "name": "F4",
          "midi": 65,
          "time": 197.9998020000001,
          "velocity": 0.968503937007874,
          "duration": 0.07692299999999364
        },
        {
          "name": "C4",
          "midi": 60,
          "time": 197.9998020000001,
          "velocity": 0.968503937007874,
          "duration": 0.06490378124999552
        },
        {
          "name": "E4",
          "midi": 64,
          "time": 198.69210900000007,
          "velocity": 0.968503937007874,
          "duration": 0.0528845624999974
        },
        {
          "name": "C4",
          "midi": 60,
          "time": 198.69210900000007,
          "velocity": 0.968503937007874,
          "duration": 0.06009609374999059
        },
        {
          "name": "E4",
          "midi": 64,
          "time": 199.15364700000006,
          "velocity": 0.968503937007874,
          "duration": 0.5745186562500066
        },
        {
          "name": "G3",
          "midi": 55,
          "time": 199.15364700000006,
          "velocity": 0.968503937007874,
          "duration": 0.5360571562499956
        },
        {
          "name": "C4",
          "midi": 60,
          "time": 199.15364700000006,
          "velocity": 0.968503937007874,
          "duration": 0.5649032812499968
        },
        {
          "name": "A3",
          "midi": 57,
          "time": 199.84595400000006,
          "velocity": 0.968503937007874,
          "duration": 0.10336528125000655
        },
        {
          "name": "F4",
          "midi": 65,
          "time": 199.84595400000006,
          "velocity": 0.968503937007874,
          "duration": 0.11538450000000466
        },
        {
          "name": "C4",
          "midi": 60,
          "time": 199.84595400000006,
          "velocity": 0.968503937007874,
          "duration": 0.08173068749999857
        },
        {
          "name": "A3",
          "midi": 57,
          "time": 200.30749200000008,
          "velocity": 0.968503937007874,
          "duration": 0.17548059374999525
        },
        {
          "name": "F4",
          "midi": 65,
          "time": 200.30749200000008,
          "velocity": 0.968503937007874,
          "duration": 0.16826906250000206
        },
        {
          "name": "C4",
          "midi": 60,
          "time": 200.30749200000008,
          "velocity": 0.968503937007874,
          "duration": 0.18990365624998162
        },
        {
          "name": "E4",
          "midi": 64,
          "time": 200.53826100000006,
          "velocity": 0.968503937007874,
          "duration": 0.0673076250000122
        },
        {
          "name": "C4",
          "midi": 60,
          "time": 200.99979900000008,
          "velocity": 0.968503937007874,
          "duration": 0.5697109687500017
        },
        {
          "name": "E3",
          "midi": 52,
          "time": 201.69210600000008,
          "velocity": 0.968503937007874,
          "duration": 0.08413453124998682
        },
        {
          "name": "C4",
          "midi": 60,
          "time": 201.69210600000008,
          "velocity": 0.968503937007874,
          "duration": 0.09374990624999668
        },
        {
          "name": "G3",
          "midi": 55,
          "time": 201.69210600000008,
          "velocity": 0.968503937007874,
          "duration": 0.07692299999999364
        },
        {
          "name": "C4",
          "midi": 60,
          "time": 202.15364400000007,
          "velocity": 0.968503937007874,
          "duration": 0.08894221874999175
        },
        {
          "name": "A3",
          "midi": 57,
          "time": 202.15364400000007,
          "velocity": 0.968503937007874,
          "duration": 0.06971146875000045
        },
        {
          "name": "F3",
          "midi": 53,
          "time": 202.15364400000007,
          "velocity": 0.968503937007874,
          "duration": 0.08894221874999175
        },
        {
          "name": "F3",
          "midi": 53,
          "time": 202.84595100000007,
          "velocity": 0.968503937007874,
          "duration": 0.5432686875000172
        },
        {
          "name": "D4",
          "midi": 62,
          "time": 202.84595100000007,
          "velocity": 0.968503937007874,
          "duration": 0.5264417812500142
        },
        {
          "name": "A#3",
          "midi": 58,
          "time": 202.84595100000007,
          "velocity": 0.968503937007874,
          "duration": 0.5264417812500142
        },
        {
          "name": "A3",
          "midi": 57,
          "time": 203.5382580000001,
          "velocity": 0.968503937007874,
          "duration": 0.07932684375001031
        },
        {
          "name": "F3",
          "midi": 53,
          "time": 203.5382580000001,
          "velocity": 0.968503937007874,
          "duration": 0.09615375000001336
        },
        {
          "name": "G3",
          "midi": 55,
          "time": 204.69210300000012,
          "velocity": 0.968503937007874,
          "duration": 0.5408648437500005
        },
        {
          "name": "E4",
          "midi": 64,
          "time": 204.69210300000012,
          "velocity": 0.968503937007874,
          "duration": 0.5769224999999949
        },
        {
          "name": "C4",
          "midi": 60,
          "time": 204.69210300000012,
          "velocity": 0.968503937007874,
          "duration": 0.5769224999999949
        },
        {
          "name": "A3",
          "midi": 57,
          "time": 205.38441000000012,
          "velocity": 0.968503937007874,
          "duration": 0.07932684374998189
        },
        {
          "name": "F4",
          "midi": 65,
          "time": 205.38441000000012,
          "velocity": 0.968503937007874,
          "duration": 0.06490378124999552
        },
        {
          "name": "C4",
          "midi": 60,
          "time": 205.38441000000012,
          "velocity": 0.968503937007874,
          "duration": 0.06730762499998377
        },
        {
          "name": "A3",
          "midi": 57,
          "time": 205.8459480000001,
          "velocity": 0.968503937007874,
          "duration": 0.16346137499999713
        },
        {
          "name": "C4",
          "midi": 60,
          "time": 205.8459480000001,
          "velocity": 0.968503937007874,
          "duration": 0.18028828125000018
        },
        {
          "name": "F4",
          "midi": 65,
          "time": 205.8459480000001,
          "velocity": 0.968503937007874,
          "duration": 0.16346137499999713
        },
        {
          "name": "G3",
          "midi": 55,
          "time": 206.07671700000012,
          "velocity": 0.968503937007874,
          "duration": 0.06490378124999552
        },
        {
          "name": "E4",
          "midi": 64,
          "time": 206.07671700000012,
          "velocity": 0.968503937007874,
          "duration": 0.06730762499998377
        },
        {
          "name": "C4",
          "midi": 60,
          "time": 206.07671700000012,
          "velocity": 0.968503937007874,
          "duration": 0.06971146874997203
        },
        {
          "name": "A3",
          "midi": 57,
          "time": 207.23056200000008,
          "velocity": 0.968503937007874,
          "duration": 0.07932684374998189
        },
        {
          "name": "C4",
          "midi": 60,
          "time": 207.23056200000008,
          "velocity": 0.968503937007874,
          "duration": 0.06490378124999552
        },
        {
          "name": "A3",
          "midi": 57,
          "time": 207.69210000000007,
          "velocity": 0.968503937007874,
          "duration": 0.17788443750001193
        },
        {
          "name": "F4",
          "midi": 65,
          "time": 207.69210000000007,
          "velocity": 0.968503937007874,
          "duration": 0.1850959687500051
        },
        {
          "name": "C4",
          "midi": 60,
          "time": 207.69210000000007,
          "velocity": 0.968503937007874,
          "duration": 0.19711518750000323
        },
        {
          "name": "G3",
          "midi": 55,
          "time": 207.92286900000008,
          "velocity": 0.968503937007874,
          "duration": 0.08173068749999857
        },
        {
          "name": "C4",
          "midi": 60,
          "time": 207.92286900000008,
          "velocity": 0.968503937007874,
          "duration": 0.07692299999999364
        },
        {
          "name": "E4",
          "midi": 64,
          "time": 207.92286900000008,
          "velocity": 0.968503937007874,
          "duration": 0.07451915625000538
        },
        {
          "name": "A3",
          "midi": 57,
          "time": 208.38440700000007,
          "velocity": 0.968503937007874,
          "duration": 0.5456725312500055
        },
        {
          "name": "C4",
          "midi": 60,
          "time": 208.38440700000007,
          "velocity": 0.968503937007874,
          "duration": 0.5576917500000036
        },
        {
          "name": "F3",
          "midi": 53,
          "time": 208.38440700000007,
          "velocity": 0.968503937007874,
          "duration": 0.5673071250000135
        },
        {
          "name": "C4",
          "midi": 60,
          "time": 209.07671400000007,
          "velocity": 0.968503937007874,
          "duration": 0.08173068749999857
        },
        {
          "name": "C4",
          "midi": 60,
          "time": 209.53825200000006,
          "velocity": 0.968503937007874,
          "duration": 0.1057691249999948
        },
        {
          "name": "F3",
          "midi": 53,
          "time": 210.23055900000006,
          "velocity": 0.968503937007874,
          "duration": 0.5600955937499918
        },
        {
          "name": "D4",
          "midi": 62,
          "time": 210.23055900000006,
          "velocity": 0.968503937007874,
          "duration": 0.5528840624999987
        },
        {
          "name": "A#3",
          "midi": 58,
          "time": 210.23055900000006,
          "velocity": 0.968503937007874,
          "duration": 0.5456725312500055
        },
        {
          "name": "A3",
          "midi": 57,
          "time": 210.92286600000006,
          "velocity": 0.968503937007874,
          "duration": 0.0721153124999887
        },
        {
          "name": "F3",
          "midi": 53,
          "time": 210.92286600000006,
          "velocity": 0.968503937007874,
          "duration": 0.08413453124998682
        },
        {
          "name": "C4",
          "midi": 60,
          "time": 210.92286600000006,
          "velocity": 0.968503937007874,
          "duration": 0.08173068749999857
        },
        {
          "name": "F3",
          "midi": 53,
          "time": 211.38440400000005,
          "velocity": 0.968503937007874,
          "duration": 0.0865383750000035
        },
        {
          "name": "D4",
          "midi": 62,
          "time": 211.38440400000005,
          "velocity": 0.968503937007874,
          "duration": 0.08413453125001524
        },
        {
          "name": "A#3",
          "midi": 58,
          "time": 211.38440400000005,
          "velocity": 0.968503937007874,
          "duration": 0.06249993750000726
        },
        {
          "name": "E4",
          "midi": 64,
          "time": 212.07671100000005,
          "velocity": 0.968503937007874,
          "duration": 0.5552879062499869
        },
        {
          "name": "G3",
          "midi": 55,
          "time": 212.07671100000005,
          "velocity": 0.968503937007874,
          "duration": 0.5144225624999876
        },
        {
          "name": "A3",
          "midi": 57,
          "time": 213.23055600000004,
          "velocity": 0.968503937007874,
          "duration": 0.18269212499998844
        },
        {
          "name": "F4",
          "midi": 65,
          "time": 213.23055600000004,
          "velocity": 0.968503937007874,
          "duration": 0.17548059374999525
        },
        {
          "name": "C4",
          "midi": 60,
          "time": 213.23055600000004,
          "velocity": 0.968503937007874,
          "duration": 0.20913440625000135
        },
        {
          "name": "G3",
          "midi": 55,
          "time": 213.46132500000004,
          "velocity": 0.968503937007874,
          "duration": 0.06971146875000045
        },
        {
          "name": "E4",
          "midi": 64,
          "time": 213.46132500000004,
          "velocity": 0.968503937007874,
          "duration": 0.0721153124999887
        },
        {
          "name": "E4",
          "midi": 64,
          "time": 213.92286300000004,
          "velocity": 0.968503937007874,
          "duration": 0.5793263437499832
        },
        {
          "name": "G3",
          "midi": 55,
          "time": 213.92286300000004,
          "velocity": 0.968503937007874,
          "duration": 0.5480763749999937
        },
        {
          "name": "C4",
          "midi": 60,
          "time": 213.92286300000004,
          "velocity": 0.968503937007874,
          "duration": 0.588941718749993
        },
        {
          "name": "E4",
          "midi": 64,
          "time": 214.61517000000003,
          "velocity": 0.968503937007874,
          "duration": 0.04086534374999928
        },
        {
          "name": "F4",
          "midi": 65,
          "time": 214.61517000000003,
          "velocity": 0.968503937007874,
          "duration": 0.06971146875000045
        },
        {
          "name": "A3",
          "midi": 57,
          "time": 214.61517000000003,
          "velocity": 0.968503937007874,
          "duration": 0.08413453124998682
        },
        {
          "name": "C4",
          "midi": 60,
          "time": 214.61517000000003,
          "velocity": 0.968503937007874,
          "duration": 0.08653837499997508
        },
        {
          "name": "F4",
          "midi": 65,
          "time": 215.307477,
          "velocity": 0.968503937007874,
          "duration": 0.12259603124999785
        },
        {
          "name": "C4",
          "midi": 60,
          "time": 215.307477,
          "velocity": 0.968503937007874,
          "duration": 0.10336528125000655
        },
        {
          "name": "C2",
          "midi": 36,
          "time": 216.23055300000001,
          "velocity": 1,
          "duration": 0.10336528125000655
        },
        {
          "name": "G2",
          "midi": 43,
          "time": 216.46132200000002,
          "velocity": 1,
          "duration": 0.17067290624999032
        },
        {
          "name": "C2",
          "midi": 36,
          "time": 216.692091,
          "velocity": 1,
          "duration": 0.09615375000001336
        },
        {
          "name": "D#2",
          "midi": 39,
          "time": 216.92286000000001,
          "velocity": 1,
          "duration": 0.2067305625000131
        },
        {
          "name": "F2",
          "midi": 41,
          "time": 217.15362900000002,
          "velocity": 1,
          "duration": 0.173076750000007
        },
        {
          "name": "A#1",
          "midi": 34,
          "time": 217.38439800000003,
          "velocity": 1,
          "duration": 0.19471134374998655
        },
        {
          "name": "C2",
          "midi": 36,
          "time": 217.615167,
          "velocity": 1,
          "duration": 0.36057656250000036
        },
        {
          "name": "C2",
          "midi": 36,
          "time": 218.076705,
          "velocity": 1,
          "duration": 0.12740371875000278
        },
        {
          "name": "G2",
          "midi": 43,
          "time": 218.307474,
          "velocity": 1,
          "duration": 0.1658652187500138
        },
        {
          "name": "C2",
          "midi": 36,
          "time": 218.53824300000002,
          "velocity": 1,
          "duration": 0.0865383750000035
        },
        {
          "name": "C2",
          "midi": 36,
          "time": 219.92285700000002,
          "velocity": 1,
          "duration": 0.06490378124999552
        },
        {
          "name": "C2",
          "midi": 36,
          "time": 220.03824150000003,
          "velocity": 1,
          "duration": 0.05769225000000233
        },
        {
          "name": "G2",
          "midi": 43,
          "time": 220.15362600000003,
          "velocity": 1,
          "duration": 0.18269212499998844
        },
        {
          "name": "C2",
          "midi": 36,
          "time": 220.384395,
          "velocity": 1,
          "duration": 0.09374990624999668
        },
        {
          "name": "D#2",
          "midi": 39,
          "time": 220.61516400000002,
          "velocity": 1,
          "duration": 0.2115382499999896
        },
        {
          "name": "F2",
          "midi": 41,
          "time": 220.845933,
          "velocity": 1,
          "duration": 0.18749981249999337
        },
        {
          "name": "A#1",
          "midi": 34,
          "time": 221.07670199999998,
          "velocity": 1,
          "duration": 0.173076750000007
        },
        {
          "name": "C2",
          "midi": 36,
          "time": 221.307471,
          "velocity": 1,
          "duration": 0.3437496562499973
        },
        {
          "name": "C2",
          "midi": 36,
          "time": 221.76900899999998,
          "velocity": 1,
          "duration": 0.19471134374998655
        },
        {
          "name": "A1",
          "midi": 33,
          "time": 221.99977799999996,
          "velocity": 1,
          "duration": 0.14663446874999408
        },
        {
          "name": "A1",
          "midi": 33,
          "time": 222.23054699999994,
          "velocity": 1,
          "duration": 0.16105753125000888
        },
        {
          "name": "A#1",
          "midi": 34,
          "time": 222.46131599999995,
          "velocity": 1,
          "duration": 0.12980756249999104
        },
        {
          "name": "G2",
          "midi": 43,
          "time": 223.84592999999995,
          "velocity": 1,
          "duration": 0.15624984375000395
        },
        {
          "name": "C2",
          "midi": 36,
          "time": 224.07669899999996,
          "velocity": 1,
          "duration": 0.07692299999999364
        },
        {
          "name": "D#2",
          "midi": 39,
          "time": 224.30746799999994,
          "velocity": 1,
          "duration": 0.18749981249999337
        },
        {
          "name": "F2",
          "midi": 41,
          "time": 224.53823699999992,
          "velocity": 1,
          "duration": 0.12980756249999104
        },
        {
          "name": "A#1",
          "midi": 34,
          "time": 224.7690059999999,
          "velocity": 1,
          "duration": 0.12740371875000278
        },
        {
          "name": "C2",
          "midi": 36,
          "time": 224.99977499999991,
          "velocity": 1,
          "duration": 0.3846149999999966
        },
        {
          "name": "C2",
          "midi": 36,
          "time": 225.4613129999999,
          "velocity": 1,
          "duration": 0.11538450000000466
        },
        {
          "name": "G2",
          "midi": 43,
          "time": 225.6920819999999,
          "velocity": 1,
          "duration": 0.14423062500000583
        },
        {
          "name": "C2",
          "midi": 36,
          "time": 225.92285099999992,
          "velocity": 1,
          "duration": 0.09374990624999668
        },
        {
          "name": "D#2",
          "midi": 39,
          "time": 226.15361999999993,
          "velocity": 1,
          "duration": 0.1923074999999983
        },
        {
          "name": "F2",
          "midi": 41,
          "time": 226.38438899999994,
          "velocity": 1,
          "duration": 0.14182678124998915
        },
        {
          "name": "A#1",
          "midi": 34,
          "time": 226.61515799999992,
          "velocity": 1,
          "duration": 0.15624984375000395
        },
        {
          "name": "D#2",
          "midi": 39,
          "time": 227.99977199999992,
          "velocity": 1,
          "duration": 0.17788443750001193
        },
        {
          "name": "F2",
          "midi": 41,
          "time": 228.23054099999993,
          "velocity": 1,
          "duration": 0.14182678124998915
        },
        {
          "name": "A#1",
          "midi": 34,
          "time": 228.4613099999999,
          "velocity": 1,
          "duration": 0.13461524999999597
        },
        {
          "name": "C2",
          "midi": 36,
          "time": 228.69207899999992,
          "velocity": 1,
          "duration": 0.36057656250000036
        },
        {
          "name": "C2",
          "midi": 36,
          "time": 229.1536169999999,
          "velocity": 1,
          "duration": 0.1394229375000009
        },
        {
          "name": "A1",
          "midi": 33,
          "time": 229.38438599999992,
          "velocity": 1,
          "duration": 0.24278821875000745
        },
        {
          "name": "A2",
          "midi": 45,
          "time": 229.61515499999993,
          "velocity": 1,
          "duration": 0.16105753125000888
        },
        {
          "name": "A#1",
          "midi": 34,
          "time": 229.84592399999994,
          "velocity": 1,
          "duration": 0.2451920624999957
        },
        {
          "name": "A#2",
          "midi": 46,
          "time": 230.07669299999995,
          "velocity": 1,
          "duration": 0.17307674999997857
        },
        {
          "name": "B1",
          "midi": 35,
          "time": 230.30746199999993,
          "velocity": 1,
          "duration": 0.19711518750000323
        },
        {
          "name": "C2",
          "midi": 36,
          "time": 230.53823099999994,
          "velocity": 1,
          "duration": 0.3533650312500072
        },
        {
          "name": "C2",
          "midi": 36,
          "time": 230.99976899999996,
          "velocity": 1,
          "duration": 0.09615375000001336
        },
        {
          "name": "A#1",
          "midi": 34,
          "time": 232.15361399999998,
          "velocity": 1,
          "duration": 0.18028828125000018
        },
        {
          "name": "C2",
          "midi": 36,
          "time": 232.38438299999999,
          "velocity": 1,
          "duration": 0.346153500000014
        },
        {
          "name": "C2",
          "midi": 36,
          "time": 232.845921,
          "velocity": 1,
          "duration": 0.12980756249999104
        },
        {
          "name": "G2",
          "midi": 43,
          "time": 233.07668999999999,
          "velocity": 1,
          "duration": 0.14423062500000583
        },
        {
          "name": "C2",
          "midi": 36,
          "time": 233.307459,
          "velocity": 1,
          "duration": 0.09374990624999668
        },
        {
          "name": "D#2",
          "midi": 39,
          "time": 233.538228,
          "velocity": 1,
          "duration": 0.20192287500000816
        },
        {
          "name": "F2",
          "midi": 41,
          "time": 233.768997,
          "velocity": 1,
          "duration": 0.14903831250001076
        },
        {
          "name": "A#1",
          "midi": 34,
          "time": 233.99976600000002,
          "velocity": 1,
          "duration": 0.1658652187500138
        },
        {
          "name": "C2",
          "midi": 36,
          "time": 234.23053500000003,
          "velocity": 1,
          "duration": 0.34855734375000225
        },
        {
          "name": "C2",
          "midi": 36,
          "time": 234.69207300000002,
          "velocity": 1,
          "duration": 0.08894221874999175
        },
        {
          "name": "G2",
          "midi": 43,
          "time": 234.922842,
          "velocity": 1,
          "duration": 0.15624984375000395
        },
        {
          "name": "C2",
          "midi": 36,
          "time": 235.153611,
          "velocity": 1,
          "duration": 0.08173068749999857
        },
        {
          "name": "C2",
          "midi": 36,
          "time": 236.538225,
          "velocity": 1,
          "duration": 0.173076750000007
        },
        {
          "name": "A1",
          "midi": 33,
          "time": 236.76899400000002,
          "velocity": 1,
          "duration": 0.13461524999999597
        },
        {
          "name": "A1",
          "midi": 33,
          "time": 236.99976300000003,
          "velocity": 1,
          "duration": 0.17067290624999032
        },
        {
          "name": "A#1",
          "midi": 34,
          "time": 237.230532,
          "velocity": 1,
          "duration": 0.1201921875000096
        },
        {
          "name": "A#1",
          "midi": 34,
          "time": 237.46130100000002,
          "velocity": 1,
          "duration": 0.12980756249999104
        },
        {
          "name": "B1",
          "midi": 35,
          "time": 237.69207,
          "velocity": 1,
          "duration": 0.14423062500000583
        },
        {
          "name": "C2",
          "midi": 36,
          "time": 237.922839,
          "velocity": 1,
          "duration": 0.35576887499999543
        },
        {
          "name": "C2",
          "midi": 36,
          "time": 238.384377,
          "velocity": 1,
          "duration": 0.11298065624998799
        },
        {
          "name": "G2",
          "midi": 43,
          "time": 238.61514599999998,
          "velocity": 1,
          "duration": 0.16346137499999713
        },
        {
          "name": "C2",
          "midi": 36,
          "time": 238.845915,
          "velocity": 1,
          "duration": 0.09855759375000162
        },
        {
          "name": "D#2",
          "midi": 39,
          "time": 239.076684,
          "velocity": 1,
          "duration": 0.18749981249999337
        },
        {
          "name": "F2",
          "midi": 41,
          "time": 239.30745299999998,
          "velocity": 1,
          "duration": 0.1658652187500138
        },
        {
          "name": "C2",
          "midi": 36,
          "time": 240.692067,
          "velocity": 1,
          "duration": 0.1249998749999861
        },
        {
          "name": "D#2",
          "midi": 39,
          "time": 240.922836,
          "velocity": 1,
          "duration": 0.173076750000007
        },
        {
          "name": "F2",
          "midi": 41,
          "time": 241.153605,
          "velocity": 1,
          "duration": 0.15144215624999902
        },
        {
          "name": "A#1",
          "midi": 34,
          "time": 241.384374,
          "velocity": 1,
          "duration": 0.18990365625001004
        },
        {
          "name": "C2",
          "midi": 36,
          "time": 241.61514300000002,
          "velocity": 1,
          "duration": 0.3509611874999905
        },
        {
          "name": "C2",
          "midi": 36,
          "time": 242.076681,
          "velocity": 1,
          "duration": 0.12740371875000278
        },
        {
          "name": "G2",
          "midi": 43,
          "time": 242.30745000000002,
          "velocity": 1,
          "duration": 0.16346137499999713
        },
        {
          "name": "C2",
          "midi": 36,
          "time": 242.53821900000003,
          "velocity": 1,
          "duration": 0.1201921875000096
        },
        {
          "name": "D#2",
          "midi": 39,
          "time": 242.76898800000004,
          "velocity": 1,
          "duration": 0.173076750000007
        },
        {
          "name": "F2",
          "midi": 41,
          "time": 242.99975700000005,
          "velocity": 1,
          "duration": 0.14182678124998915
        },
        {
          "name": "A#1",
          "midi": 34,
          "time": 243.23052600000003,
          "velocity": 1,
          "duration": 0.14423062500000583
        },
        {
          "name": "C2",
          "midi": 36,
          "time": 243.46129500000004,
          "velocity": 1,
          "duration": 0.3173073750000128
        },
        {
          "name": "A#1",
          "midi": 34,
          "time": 244.84590900000003,
          "velocity": 1,
          "duration": 0.14182678124998915
        },
        {
          "name": "B1",
          "midi": 35,
          "time": 245.07667800000002,
          "velocity": 1,
          "duration": 0.17067290624999032
        },
        {
          "name": "G3",
          "midi": 55,
          "time": 245.307447,
          "velocity": 1,
          "duration": 0.18990365625001004
        },
        {
          "name": "D#4",
          "midi": 63,
          "time": 245.307447,
          "velocity": 1,
          "duration": 0.16826906250000206
        },
        {
          "name": "A#3",
          "midi": 58,
          "time": 245.307447,
          "velocity": 1,
          "duration": 0.1658652187500138
        },
        {
          "name": "C2",
          "midi": 36,
          "time": 245.307447,
          "velocity": 1,
          "duration": 0.20192287500000816
        }
      ],
      "controlChanges": {
        "1": [
          {
            "number": 1,
            "time": 0.019230749999999994,
            "value": 0
          }
        ],
        "6": [
          {
            "number": 6,
            "time": 0.014423062499999997,
            "value": 0.09448818897637795
          }
        ],
        "7": [
          {
            "number": 7,
            "time": 1.394229375,
            "value": 0.7086614173228346
          }
        ],
        "10": [
          {
            "number": 10,
            "time": 1.3990370625000002,
            "value": 0.5039370078740157
          }
        ],
        "11": [
          {
            "number": 11,
            "time": 0.016826906249999996,
            "value": 1
          },
          {
            "number": 11,
            "time": 0.024038437499999996,
            "value": 1
          },
          {
            "number": 11,
            "time": 1.4038447500000002,
            "value": 1
          }
        ],
        "64": [
          {
            "number": 64,
            "time": 0.007211531249999999,
            "value": 0
          }
        ],
        "67": [
          {
            "number": 67,
            "time": 0.0048076874999999995,
            "value": 0
          }
        ],
        "91": [
          {
            "number": 91,
            "time": 1.4086524375000002,
            "value": 0.5039370078740157
          }
        ],
        "93": [
          {
            "number": 93,
            "time": 1.4134601250000003,
            "value": 0.1889763779527559
          }
        ],
        "100": [
          {
            "number": 100,
            "time": 0.009615374999999999,
            "value": 0
          }
        ],
        "101": [
          {
            "number": 101,
            "time": 0.012019218749999998,
            "value": 0
          }
        ],
        "121": [
          {
            "number": 121,
            "time": 0,
            "value": 0
          }
        ]
      },
      "id": 3,
      "name": "Clavinet            ",
      "instrumentNumber": 7,
      "instrument": "clavi",
      "instrumentFamily": "piano",
      "channelNumber": 0,
      "isPercussion": false
    },
    {
      "startTime": 3.692304,
      "duration": 245.52860062500034,
      "length": 845,
      "notes": [
        {
          "name": "D#3",
          "midi": 51,
          "time": 3.692304,
          "velocity": 0.8661417322834646,
          "duration": 0.12980756249999992
        },
        {
          "name": "D#3",
          "midi": 51,
          "time": 3.923073,
          "velocity": 0.8661417322834646,
          "duration": 0.13461524999999996
        },
        {
          "name": "C#3",
          "midi": 49,
          "time": 4.153842,
          "velocity": 0.8661417322834646,
          "duration": 0.12019218749999983
        },
        {
          "name": "C#3",
          "midi": 49,
          "time": 4.384611,
          "velocity": 0.8661417322834646,
          "duration": 0.11298065625000042
        },
        {
          "name": "B2",
          "midi": 47,
          "time": 4.61538,
          "velocity": 0.8661417322834646,
          "duration": 0.11778834375000002
        },
        {
          "name": "B2",
          "midi": 47,
          "time": 4.8461490000000005,
          "velocity": 0.8661417322834646,
          "duration": 0.12980756249999992
        },
        {
          "name": "G#2",
          "midi": 44,
          "time": 5.076918,
          "velocity": 0.8661417322834646,
          "duration": 0.10096143749999964
        },
        {
          "name": "G#2",
          "midi": 44,
          "time": 5.307687,
          "velocity": 0.8661417322834646,
          "duration": 0.10576912500000013
        },
        {
          "name": "F2",
          "midi": 41,
          "time": 5.538456,
          "velocity": 0.8661417322834646,
          "duration": 0.12259603124999963
        },
        {
          "name": "F2",
          "midi": 41,
          "time": 5.769225,
          "velocity": 0.8661417322834646,
          "duration": 0.1538459999999997
        },
        {
          "name": "D#2",
          "midi": 39,
          "time": 5.999993999999999,
          "velocity": 0.8661417322834646,
          "duration": 0.09855759374999984
        },
        {
          "name": "D#2",
          "midi": 39,
          "time": 6.230762999999999,
          "velocity": 0.8661417322834646,
          "duration": 0.08894221874999975
        },
        {
          "name": "C#2",
          "midi": 37,
          "time": 6.461531999999998,
          "velocity": 0.8661417322834646,
          "duration": 0.09855759374999984
        },
        {
          "name": "C#2",
          "midi": 37,
          "time": 6.692300999999998,
          "velocity": 0.8661417322834646,
          "duration": 0.12980756249999992
        },
        {
          "name": "A#1",
          "midi": 34,
          "time": 6.923069999999997,
          "velocity": 0.8661417322834646,
          "duration": 0.18028828125000018
        },
        {
          "name": "C2",
          "midi": 36,
          "time": 7.153838999999998,
          "velocity": 0.8661417322834646,
          "duration": 0.38461500000000015
        },
        {
          "name": "C2",
          "midi": 36,
          "time": 7.615376999999998,
          "velocity": 0.8661417322834646,
          "duration": 0.1658652187499996
        },
        {
          "name": "G2",
          "midi": 43,
          "time": 7.846145999999997,
          "velocity": 0.8661417322834646,
          "duration": 0.18509596874999978
        },
        {
          "name": "C2",
          "midi": 36,
          "time": 8.076914999999998,
          "velocity": 0.8661417322834646,
          "duration": 0.13461524999999952
        },
        {
          "name": "D#2",
          "midi": 39,
          "time": 8.307683999999997,
          "velocity": 0.8661417322834646,
          "duration": 0.20913440624999957
        },
        {
          "name": "F2",
          "midi": 41,
          "time": 8.538452999999997,
          "velocity": 0.8661417322834646,
          "duration": 0.19471134375000076
        },
        {
          "name": "A#1",
          "midi": 34,
          "time": 8.769221999999997,
          "velocity": 0.8661417322834646,
          "duration": 0.1899036562499994
        },
        {
          "name": "C2",
          "midi": 36,
          "time": 8.999990999999996,
          "velocity": 0.8661417322834646,
          "duration": 0.3533650312500001
        },
        {
          "name": "C2",
          "midi": 36,
          "time": 9.461528999999997,
          "velocity": 0.8661417322834646,
          "duration": 0.1730767499999999
        },
        {
          "name": "G2",
          "midi": 43,
          "time": 9.692297999999997,
          "velocity": 0.8661417322834646,
          "duration": 0.18509596874999978
        },
        {
          "name": "C2",
          "midi": 36,
          "time": 9.923066999999998,
          "velocity": 0.8661417322834646,
          "duration": 0.1586536874999993
        },
        {
          "name": "D#2",
          "midi": 39,
          "time": 10.153835999999997,
          "velocity": 0.8661417322834646,
          "duration": 0.21874978125000055
        },
        {
          "name": "F2",
          "midi": 41,
          "time": 10.384604999999997,
          "velocity": 0.8661417322834646,
          "duration": 0.21153825000000026
        },
        {
          "name": "A#1",
          "midi": 34,
          "time": 10.615373999999997,
          "velocity": 0.8661417322834646,
          "duration": 0.1899036562499994
        },
        {
          "name": "C2",
          "midi": 36,
          "time": 10.846142999999996,
          "velocity": 0.8661417322834646,
          "duration": 0.2980766250000002
        },
        {
          "name": "C2",
          "midi": 36,
          "time": 11.307680999999997,
          "velocity": 0.8661417322834646,
          "duration": 0.1538459999999997
        },
        {
          "name": "G2",
          "midi": 43,
          "time": 11.538449999999997,
          "velocity": 0.8661417322834646,
          "duration": 0.1899036562499994
        },
        {
          "name": "C2",
          "midi": 36,
          "time": 11.769218999999996,
          "velocity": 0.8661417322834646,
          "duration": 0.1490383125000001
        },
        {
          "name": "D#2",
          "midi": 39,
          "time": 11.999987999999997,
          "velocity": 0.8661417322834646,
          "duration": 0.22115362499999947
        },
        {
          "name": "F2",
          "midi": 41,
          "time": 12.230756999999995,
          "velocity": 0.8661417322834646,
          "duration": 0.1899036562499994
        },
        {
          "name": "A#1",
          "midi": 34,
          "time": 12.461525999999994,
          "velocity": 0.8661417322834646,
          "duration": 0.18749981250000047
        },
        {
          "name": "C2",
          "midi": 36,
          "time": 12.692294999999994,
          "velocity": 0.8661417322834646,
          "duration": 0.3389419687499995
        },
        {
          "name": "C2",
          "midi": 36,
          "time": 13.153832999999993,
          "velocity": 0.8661417322834646,
          "duration": 0.19951903125000037
        },
        {
          "name": "A1",
          "midi": 33,
          "time": 13.384601999999994,
          "velocity": 0.8661417322834646,
          "duration": 0.16346137500000069
        },
        {
          "name": "A1",
          "midi": 33,
          "time": 13.615370999999994,
          "velocity": 0.8661417322834646,
          "duration": 0.1682690625000003
        },
        {
          "name": "A#1",
          "midi": 34,
          "time": 13.846139999999995,
          "velocity": 0.8661417322834646,
          "duration": 0.1466344687499994
        },
        {
          "name": "A#1",
          "midi": 34,
          "time": 14.076908999999993,
          "velocity": 0.8661417322834646,
          "duration": 0.1418267812499998
        },
        {
          "name": "B1",
          "midi": 35,
          "time": 14.307677999999994,
          "velocity": 0.8661417322834646,
          "duration": 0.1418267812499998
        },
        {
          "name": "C2",
          "midi": 36,
          "time": 14.538446999999994,
          "velocity": 0.8661417322834646,
          "duration": 0.3317304374999992
        },
        {
          "name": "C2",
          "midi": 36,
          "time": 14.999984999999993,
          "velocity": 0.8661417322834646,
          "duration": 0.1658652187499996
        },
        {
          "name": "G2",
          "midi": 43,
          "time": 15.230753999999994,
          "velocity": 0.8661417322834646,
          "duration": 0.20673056250000066
        },
        {
          "name": "C2",
          "midi": 36,
          "time": 15.461522999999994,
          "velocity": 0.8661417322834646,
          "duration": 0.12499987500000032
        },
        {
          "name": "D#2",
          "midi": 39,
          "time": 15.692291999999995,
          "velocity": 0.8661417322834646,
          "duration": 0.19951903125000037
        },
        {
          "name": "F2",
          "midi": 41,
          "time": 15.923060999999995,
          "velocity": 0.8661417322834646,
          "duration": 0.1874998124999987
        },
        {
          "name": "A#1",
          "midi": 34,
          "time": 16.153829999999996,
          "velocity": 0.8661417322834646,
          "duration": 0.1899036562499994
        },
        {
          "name": "C2",
          "midi": 36,
          "time": 16.384598999999994,
          "velocity": 0.8661417322834646,
          "duration": 0.32692275000000137
        },
        {
          "name": "C2",
          "midi": 36,
          "time": 16.846136999999995,
          "velocity": 0.8661417322834646,
          "duration": 0.16346137500000069
        },
        {
          "name": "G2",
          "midi": 43,
          "time": 17.076905999999997,
          "velocity": 0.8661417322834646,
          "duration": 0.1899036562499994
        },
        {
          "name": "C2",
          "midi": 36,
          "time": 17.307674999999996,
          "velocity": 0.8661417322834646,
          "duration": 0.1682690624999985
        },
        {
          "name": "D#2",
          "midi": 39,
          "time": 17.538443999999995,
          "velocity": 0.8661417322834646,
          "duration": 0.20913440625000135
        },
        {
          "name": "F2",
          "midi": 41,
          "time": 17.769212999999997,
          "velocity": 0.8661417322834646,
          "duration": 0.1754805937499988
        },
        {
          "name": "A#1",
          "midi": 34,
          "time": 17.999981999999996,
          "velocity": 0.8661417322834646,
          "duration": 0.1923074999999983
        },
        {
          "name": "C2",
          "midi": 36,
          "time": 18.230750999999994,
          "velocity": 0.8661417322834646,
          "duration": 0.26923049999999904
        },
        {
          "name": "C2",
          "midi": 36,
          "time": 18.69228899999999,
          "velocity": 0.8661417322834646,
          "duration": 0.1562498437500004
        },
        {
          "name": "G2",
          "midi": 43,
          "time": 18.92305799999999,
          "velocity": 0.8661417322834646,
          "duration": 0.20673056249999888
        },
        {
          "name": "C2",
          "midi": 36,
          "time": 19.15382699999999,
          "velocity": 0.8661417322834646,
          "duration": 0.1490383125000001
        },
        {
          "name": "D#2",
          "midi": 39,
          "time": 19.384595999999988,
          "velocity": 0.8661417322834646,
          "duration": 0.20913440625000135
        },
        {
          "name": "F2",
          "midi": 41,
          "time": 19.61536499999999,
          "velocity": 0.8661417322834646,
          "duration": 0.18028828125000018
        },
        {
          "name": "A#1",
          "midi": 34,
          "time": 19.84613399999999,
          "velocity": 0.8661417322834646,
          "duration": 0.1658652187499996
        },
        {
          "name": "C2",
          "midi": 36,
          "time": 20.076902999999987,
          "velocity": 0.8661417322834646,
          "duration": 0.3365381250000006
        },
        {
          "name": "C2",
          "midi": 36,
          "time": 20.538440999999988,
          "velocity": 0.8661417322834646,
          "duration": 0.1995190312499986
        },
        {
          "name": "A1",
          "midi": 33,
          "time": 20.769209999999987,
          "velocity": 0.8661417322834646,
          "duration": 0.27644203124999933
        },
        {
          "name": "A2",
          "midi": 45,
          "time": 20.999978999999986,
          "velocity": 0.8661417322834646,
          "duration": 0.20432671874999997
        },
        {
          "name": "A#1",
          "midi": 34,
          "time": 21.230747999999984,
          "velocity": 0.8661417322834646,
          "duration": 0.25480743749999846
        },
        {
          "name": "A#2",
          "midi": 46,
          "time": 21.461516999999983,
          "velocity": 0.8661417322834646,
          "duration": 0.2163459374999981
        },
        {
          "name": "B1",
          "midi": 35,
          "time": 21.69228599999998,
          "velocity": 0.8661417322834646,
          "duration": 0.20192287500000106
        },
        {
          "name": "C2",
          "midi": 36,
          "time": 21.923054999999984,
          "velocity": 0.8661417322834646,
          "duration": 0.3293265937500003
        },
        {
          "name": "C2",
          "midi": 36,
          "time": 22.384592999999985,
          "velocity": 0.8661417322834646,
          "duration": 0.1754805937499988
        },
        {
          "name": "G2",
          "midi": 43,
          "time": 22.615361999999983,
          "velocity": 0.8661417322834646,
          "duration": 0.1826921249999991
        },
        {
          "name": "C2",
          "midi": 36,
          "time": 22.846130999999982,
          "velocity": 0.8661417322834646,
          "duration": 0.1899036562499994
        },
        {
          "name": "D#2",
          "midi": 39,
          "time": 23.07689999999998,
          "velocity": 0.8661417322834646,
          "duration": 0.19471134375000076
        },
        {
          "name": "F2",
          "midi": 41,
          "time": 23.307668999999983,
          "velocity": 0.8661417322834646,
          "duration": 0.20913440625000135
        },
        {
          "name": "A#1",
          "midi": 34,
          "time": 23.538437999999985,
          "velocity": 0.8661417322834646,
          "duration": 0.19711518749999968
        },
        {
          "name": "C2",
          "midi": 36,
          "time": 23.769206999999984,
          "velocity": 0.8661417322834646,
          "duration": 0.2956727812500013
        },
        {
          "name": "C2",
          "midi": 36,
          "time": 24.230744999999985,
          "velocity": 0.8661417322834646,
          "duration": 0.18028828125000018
        },
        {
          "name": "G2",
          "midi": 43,
          "time": 24.461513999999983,
          "velocity": 0.8661417322834646,
          "duration": 0.21634593750000164
        },
        {
          "name": "C2",
          "midi": 36,
          "time": 24.692282999999986,
          "velocity": 0.8661417322834646,
          "duration": 0.15384600000000148
        },
        {
          "name": "D#2",
          "midi": 39,
          "time": 24.923051999999988,
          "velocity": 0.8661417322834646,
          "duration": 0.21153825000000026
        },
        {
          "name": "F2",
          "midi": 41,
          "time": 25.153820999999986,
          "velocity": 0.8661417322834646,
          "duration": 0.1826921249999991
        },
        {
          "name": "A#1",
          "midi": 34,
          "time": 25.384589999999985,
          "velocity": 0.8661417322834646,
          "duration": 0.18028828125000018
        },
        {
          "name": "C2",
          "midi": 36,
          "time": 25.615358999999984,
          "velocity": 0.8661417322834646,
          "duration": 0.2812497187500007
        },
        {
          "name": "C2",
          "midi": 36,
          "time": 26.076896999999985,
          "velocity": 0.8661417322834646,
          "duration": 0.1562498437500004
        },
        {
          "name": "G2",
          "midi": 43,
          "time": 26.307665999999983,
          "velocity": 0.8661417322834646,
          "duration": 0.20673056249999888
        },
        {
          "name": "C2",
          "midi": 36,
          "time": 26.538434999999982,
          "velocity": 0.8661417322834646,
          "duration": 0.15144215624999902
        },
        {
          "name": "D#2",
          "midi": 39,
          "time": 26.76920399999998,
          "velocity": 0.8661417322834646,
          "duration": 0.24038437499999787
        },
        {
          "name": "F2",
          "midi": 41,
          "time": 26.99997299999998,
          "velocity": 0.8661417322834646,
          "duration": 0.20432671874999997
        },
        {
          "name": "A#1",
          "midi": 34,
          "time": 27.230741999999978,
          "velocity": 0.8661417322834646,
          "duration": 0.1899036562499994
        },
        {
          "name": "C2",
          "midi": 36,
          "time": 27.461510999999977,
          "velocity": 0.8661417322834646,
          "duration": 0.3365381250000006
        },
        {
          "name": "C2",
          "midi": 36,
          "time": 27.923048999999978,
          "velocity": 0.8661417322834646,
          "duration": 0.20192287500000106
        },
        {
          "name": "A1",
          "midi": 33,
          "time": 28.15381799999998,
          "velocity": 0.8661417322834646,
          "duration": 0.16105753124999822
        },
        {
          "name": "A1",
          "midi": 33,
          "time": 28.38458699999998,
          "velocity": 0.8661417322834646,
          "duration": 0.17788443750000127
        },
        {
          "name": "A#1",
          "midi": 34,
          "time": 28.61535599999998,
          "velocity": 0.8661417322834646,
          "duration": 0.13461524999999952
        },
        {
          "name": "A#1",
          "midi": 34,
          "time": 28.84612499999998,
          "velocity": 0.8661417322834646,
          "duration": 0.1394229375000009
        },
        {
          "name": "B1",
          "midi": 35,
          "time": 29.07689399999998,
          "velocity": 0.8661417322834646,
          "duration": 0.1658652187499996
        },
        {
          "name": "C2",
          "midi": 36,
          "time": 29.30766299999998,
          "velocity": 0.8661417322834646,
          "duration": 0.3293265937500003
        },
        {
          "name": "C2",
          "midi": 36,
          "time": 29.76920099999998,
          "velocity": 0.8661417322834646,
          "duration": 0.17067290625000098
        },
        {
          "name": "G2",
          "midi": 43,
          "time": 29.999969999999983,
          "velocity": 0.8661417322834646,
          "duration": 0.18509596875000156
        },
        {
          "name": "C2",
          "midi": 36,
          "time": 30.230738999999986,
          "velocity": 0.8661417322834646,
          "duration": 0.1394229375000009
        },
        {
          "name": "D#2",
          "midi": 39,
          "time": 30.461507999999988,
          "velocity": 0.8661417322834646,
          "duration": 0.21153825000000026
        },
        {
          "name": "F2",
          "midi": 41,
          "time": 30.692276999999986,
          "velocity": 0.8661417322834646,
          "duration": 0.19711518749999968
        },
        {
          "name": "A#1",
          "midi": 34,
          "time": 30.923045999999985,
          "velocity": 0.8661417322834646,
          "duration": 0.1899036562499994
        },
        {
          "name": "C2",
          "midi": 36,
          "time": 31.153814999999984,
          "velocity": 0.8661417322834646,
          "duration": 0.3149035312499997
        },
        {
          "name": "C2",
          "midi": 36,
          "time": 31.615352999999985,
          "velocity": 0.8661417322834646,
          "duration": 0.1730767499999999
        },
        {
          "name": "G2",
          "midi": 43,
          "time": 31.846121999999983,
          "velocity": 0.8661417322834646,
          "duration": 0.2019228749999975
        },
        {
          "name": "C2",
          "midi": 36,
          "time": 32.07689099999998,
          "velocity": 0.8661417322834646,
          "duration": 0.1322114062500006
        },
        {
          "name": "D#2",
          "midi": 39,
          "time": 32.307659999999984,
          "velocity": 0.8661417322834646,
          "duration": 0.218749781249997
        },
        {
          "name": "F2",
          "midi": 41,
          "time": 32.53842899999998,
          "velocity": 0.8661417322834646,
          "duration": 0.218749781249997
        },
        {
          "name": "A#1",
          "midi": 34,
          "time": 32.769197999999975,
          "velocity": 0.8661417322834646,
          "duration": 0.19471134375000076
        },
        {
          "name": "C2",
          "midi": 36,
          "time": 32.99996699999998,
          "velocity": 0.8661417322834646,
          "duration": 0.33413428125000166
        },
        {
          "name": "C2",
          "midi": 36,
          "time": 33.46150499999998,
          "velocity": 0.8661417322834646,
          "duration": 0.14182678125000336
        },
        {
          "name": "G2",
          "midi": 43,
          "time": 33.69227399999998,
          "velocity": 0.8661417322834646,
          "duration": 0.19471134375000076
        },
        {
          "name": "C2",
          "midi": 36,
          "time": 33.923042999999986,
          "velocity": 0.8661417322834646,
          "duration": 0.14182678125000336
        },
        {
          "name": "D#2",
          "midi": 39,
          "time": 34.15381199999999,
          "velocity": 0.8661417322834646,
          "duration": 0.23557668750000005
        },
        {
          "name": "F2",
          "midi": 41,
          "time": 34.38458099999999,
          "velocity": 0.8661417322834646,
          "duration": 0.18749981250000047
        },
        {
          "name": "A#1",
          "midi": 34,
          "time": 34.61534999999999,
          "velocity": 0.8661417322834646,
          "duration": 0.20432671874999642
        },
        {
          "name": "C2",
          "midi": 36,
          "time": 34.84611899999999,
          "velocity": 0.8661417322834646,
          "duration": 0.32692275000000137
        },
        {
          "name": "C2",
          "midi": 36,
          "time": 35.30765699999999,
          "velocity": 0.8661417322834646,
          "duration": 0.18269212500000265
        },
        {
          "name": "A1",
          "midi": 33,
          "time": 35.538425999999994,
          "velocity": 0.8661417322834646,
          "duration": 0.14903831249999655
        },
        {
          "name": "A1",
          "midi": 33,
          "time": 35.76919499999999,
          "velocity": 0.8661417322834646,
          "duration": 0.14903831249999655
        },
        {
          "name": "A#1",
          "midi": 34,
          "time": 35.999963999999984,
          "velocity": 0.8661417322834646,
          "duration": 0.13461525000000307
        },
        {
          "name": "A#1",
          "midi": 34,
          "time": 36.23073299999999,
          "velocity": 0.8661417322834646,
          "duration": 0.14903831249999655
        },
        {
          "name": "C2",
          "midi": 36,
          "time": 36.46150199999998,
          "velocity": 0.8661417322834646,
          "duration": 0.14182678125000336
        },
        {
          "name": "F2",
          "midi": 41,
          "time": 36.692270999999984,
          "velocity": 0.8661417322834646,
          "duration": 0.4110572812500024
        },
        {
          "name": "E2",
          "midi": 40,
          "time": 37.38457799999998,
          "velocity": 0.8661417322834646,
          "duration": 0.37499962500000095
        },
        {
          "name": "D2",
          "midi": 38,
          "time": 37.84611599999999,
          "velocity": 0.8661417322834646,
          "duration": 0.1923074999999983
        },
        {
          "name": "C2",
          "midi": 36,
          "time": 38.07688499999998,
          "velocity": 0.8661417322834646,
          "duration": 0.2379805312500025
        },
        {
          "name": "A#1",
          "midi": 34,
          "time": 38.53842299999999,
          "velocity": 0.8661417322834646,
          "duration": 0.3846149999999966
        },
        {
          "name": "A#1",
          "midi": 34,
          "time": 38.999960999999985,
          "velocity": 0.8661417322834646,
          "duration": 0.11538449999999756
        },
        {
          "name": "A1",
          "midi": 33,
          "time": 39.23072999999998,
          "velocity": 0.8661417322834646,
          "duration": 0.336538124999997
        },
        {
          "name": "G1",
          "midi": 31,
          "time": 39.69226799999998,
          "velocity": 0.8661417322834646,
          "duration": 0.2596151250000034
        },
        {
          "name": "A1",
          "midi": 33,
          "time": 39.92303699999998,
          "velocity": 0.8661417322834646,
          "duration": 0.12019218750000249
        },
        {
          "name": "D2",
          "midi": 38,
          "time": 40.15380599999998,
          "velocity": 0.8661417322834646,
          "duration": 0.11538449999999756
        },
        {
          "name": "C2",
          "midi": 36,
          "time": 40.38457499999998,
          "velocity": 0.8661417322834646,
          "duration": 0.3701919375000031
        },
        {
          "name": "C2",
          "midi": 36,
          "time": 40.84611299999998,
          "velocity": 0.8661417322834646,
          "duration": 0.14903831249999655
        },
        {
          "name": "C2",
          "midi": 36,
          "time": 41.076881999999976,
          "velocity": 0.8661417322834646,
          "duration": 0.35576887500000254
        },
        {
          "name": "C2",
          "midi": 36,
          "time": 41.53841999999998,
          "velocity": 0.8661417322834646,
          "duration": 0.16346137499999713
        },
        {
          "name": "C2",
          "midi": 36,
          "time": 41.769188999999976,
          "velocity": 0.8661417322834646,
          "duration": 0.2908650937499999
        },
        {
          "name": "C2",
          "midi": 36,
          "time": 42.23072699999997,
          "velocity": 0.8661417322834646,
          "duration": 0.33413428125000166
        },
        {
          "name": "C2",
          "midi": 36,
          "time": 42.69226499999998,
          "velocity": 0.8661417322834646,
          "duration": 0.1394229375000009
        },
        {
          "name": "C2",
          "midi": 36,
          "time": 42.92303399999998,
          "velocity": 0.8661417322834646,
          "duration": 0.3701919375000031
        },
        {
          "name": "C2",
          "midi": 36,
          "time": 43.384571999999984,
          "velocity": 0.8661417322834646,
          "duration": 0.20673056249999888
        },
        {
          "name": "D2",
          "midi": 38,
          "time": 43.61534099999999,
          "velocity": 0.8661417322834646,
          "duration": 0.22355746875000193
        },
        {
          "name": "C2",
          "midi": 36,
          "time": 43.84610999999999,
          "velocity": 0.8661417322834646,
          "duration": 0.18269212500000265
        },
        {
          "name": "F2",
          "midi": 41,
          "time": 44.07687899999999,
          "velocity": 0.8661417322834646,
          "duration": 0.36778809375000066
        },
        {
          "name": "F2",
          "midi": 41,
          "time": 44.53841699999999,
          "velocity": 0.8661417322834646,
          "duration": 0.12499987500000032
        },
        {
          "name": "E2",
          "midi": 40,
          "time": 44.76918599999999,
          "velocity": 0.8661417322834646,
          "duration": 0.40144190624999965
        },
        {
          "name": "D2",
          "midi": 38,
          "time": 45.23072399999999,
          "velocity": 0.8661417322834646,
          "duration": 0.3918265312499969
        },
        {
          "name": "C2",
          "midi": 36,
          "time": 45.692261999999985,
          "velocity": 0.8661417322834646,
          "duration": 0.15624984374999684
        },
        {
          "name": "A#1",
          "midi": 34,
          "time": 45.92303099999998,
          "velocity": 0.8661417322834646,
          "duration": 0.3725957812499985
        },
        {
          "name": "A#1",
          "midi": 34,
          "time": 46.38456899999998,
          "velocity": 0.8661417322834646,
          "duration": 0.12740371875000278
        },
        {
          "name": "A1",
          "midi": 33,
          "time": 46.61533799999998,
          "velocity": 0.8661417322834646,
          "duration": 0.39423037499999936
        },
        {
          "name": "G1",
          "midi": 31,
          "time": 47.07687599999998,
          "velocity": 0.8661417322834646,
          "duration": 0.22836515624999976
        },
        {
          "name": "A1",
          "midi": 33,
          "time": 47.30764499999998,
          "velocity": 0.8661417322834646,
          "duration": 0.17067290624999742
        },
        {
          "name": "G1",
          "midi": 31,
          "time": 47.538413999999975,
          "velocity": 0.8661417322834646,
          "duration": 0.12019218750000249
        },
        {
          "name": "C2",
          "midi": 36,
          "time": 47.76918299999998,
          "velocity": 0.8661417322834646,
          "duration": 0.3581727187499979
        },
        {
          "name": "C2",
          "midi": 36,
          "time": 48.230720999999974,
          "velocity": 0.8661417322834646,
          "duration": 0.18749981250000047
        },
        {
          "name": "E1",
          "midi": 28,
          "time": 48.461489999999976,
          "velocity": 0.8661417322834646,
          "duration": 0.46153799999999734
        },
        {
          "name": "F1",
          "midi": 29,
          "time": 48.923027999999974,
          "velocity": 0.8661417322834646,
          "duration": 0.1129806562500022
        },
        {
          "name": "F#1",
          "midi": 30,
          "time": 49.153796999999976,
          "velocity": 0.8661417322834646,
          "duration": 0.3245189062499989
        },
        {
          "name": "G1",
          "midi": 31,
          "time": 49.61533499999997,
          "velocity": 0.8661417322834646,
          "duration": 0.3533650312500001
        },
        {
          "name": "G1",
          "midi": 31,
          "time": 50.07687299999997,
          "velocity": 0.8661417322834646,
          "duration": 0.14182678125000336
        },
        {
          "name": "A#1",
          "midi": 34,
          "time": 50.30764199999997,
          "velocity": 0.8661417322834646,
          "duration": 0.21394209374999917
        },
        {
          "name": "C2",
          "midi": 36,
          "time": 50.538410999999975,
          "velocity": 0.8661417322834646,
          "duration": 0.1586536874999993
        },
        {
          "name": "A#1",
          "midi": 34,
          "time": 50.76917999999998,
          "velocity": 0.8661417322834646,
          "duration": 0.19711518750000323
        },
        {
          "name": "A1",
          "midi": 33,
          "time": 50.99994899999998,
          "velocity": 0.8661417322834646,
          "duration": 0.2932689375000024
        },
        {
          "name": "C2",
          "midi": 36,
          "time": 51.461486999999984,
          "velocity": 0.8661417322834646,
          "duration": 0.6490378124999978
        },
        {
          "name": "G2",
          "midi": 43,
          "time": 52.153793999999984,
          "velocity": 0.8661417322834646,
          "duration": 0.1923074999999983
        },
        {
          "name": "C2",
          "midi": 36,
          "time": 52.38456299999998,
          "velocity": 0.8661417322834646,
          "duration": 0.1394229375000009
        },
        {
          "name": "D#2",
          "midi": 39,
          "time": 52.61533199999998,
          "velocity": 0.8661417322834646,
          "duration": 0.24278821875000034
        },
        {
          "name": "F2",
          "midi": 41,
          "time": 52.84610099999998,
          "velocity": 0.8661417322834646,
          "duration": 0.18028828125000018
        },
        {
          "name": "A#1",
          "midi": 34,
          "time": 53.076869999999985,
          "velocity": 0.8661417322834646,
          "duration": 0.16105753125000177
        },
        {
          "name": "C2",
          "midi": 36,
          "time": 53.30763899999999,
          "velocity": 0.8661417322834646,
          "duration": 0.36057656250000036
        },
        {
          "name": "C2",
          "midi": 36,
          "time": 53.769176999999985,
          "velocity": 0.8661417322834646,
          "duration": 0.12980756249999814
        },
        {
          "name": "G2",
          "midi": 43,
          "time": 53.99994599999998,
          "velocity": 0.8661417322834646,
          "duration": 0.18028828125000018
        },
        {
          "name": "C2",
          "midi": 36,
          "time": 54.23071499999998,
          "velocity": 0.8661417322834646,
          "duration": 0.13461525000000307
        },
        {
          "name": "D#2",
          "midi": 39,
          "time": 54.461483999999984,
          "velocity": 0.8661417322834646,
          "duration": 0.20192287500000106
        },
        {
          "name": "F2",
          "midi": 41,
          "time": 54.69225299999999,
          "velocity": 0.8661417322834646,
          "duration": 0.1658652187499996
        },
        {
          "name": "A#1",
          "midi": 34,
          "time": 54.92302199999999,
          "velocity": 0.8661417322834646,
          "duration": 0.18028828125000018
        },
        {
          "name": "C2",
          "midi": 36,
          "time": 55.15379099999999,
          "velocity": 0.8661417322834646,
          "duration": 0.3100958437499983
        },
        {
          "name": "C2",
          "midi": 36,
          "time": 55.61532899999999,
          "velocity": 0.8661417322834646,
          "duration": 0.14423062499999872
        },
        {
          "name": "G2",
          "midi": 43,
          "time": 55.84609799999999,
          "velocity": 0.8661417322834646,
          "duration": 0.18749981250000047
        },
        {
          "name": "C2",
          "midi": 36,
          "time": 56.07686699999999,
          "velocity": 0.8661417322834646,
          "duration": 0.15144215624999902
        },
        {
          "name": "D#2",
          "midi": 39,
          "time": 56.307635999999995,
          "velocity": 0.8661417322834646,
          "duration": 0.20913440625000135
        },
        {
          "name": "F2",
          "midi": 41,
          "time": 56.538405,
          "velocity": 0.8661417322834646,
          "duration": 0.17548059375000236
        },
        {
          "name": "A#1",
          "midi": 34,
          "time": 56.769174,
          "velocity": 0.8661417322834646,
          "duration": 0.18028828125000018
        },
        {
          "name": "C2",
          "midi": 36,
          "time": 56.999943,
          "velocity": 0.8661417322834646,
          "duration": 0.34855734375000225
        },
        {
          "name": "C2",
          "midi": 36,
          "time": 57.461481000000006,
          "velocity": 0.8661417322834646,
          "duration": 0.15384600000000148
        },
        {
          "name": "A1",
          "midi": 33,
          "time": 57.69225000000001,
          "velocity": 0.8661417322834646,
          "duration": 0.16105753125000177
        },
        {
          "name": "A1",
          "midi": 33,
          "time": 57.92301900000001,
          "velocity": 0.8661417322834646,
          "duration": 0.15384600000000148
        },
        {
          "name": "A#1",
          "midi": 34,
          "time": 58.15378800000001,
          "velocity": 0.8661417322834646,
          "duration": 0.15384600000000148
        },
        {
          "name": "A#1",
          "midi": 34,
          "time": 58.384557000000015,
          "velocity": 0.8661417322834646,
          "duration": 0.13701909374999843
        },
        {
          "name": "B1",
          "midi": 35,
          "time": 58.61532600000001,
          "velocity": 0.8661417322834646,
          "duration": 0.15384600000000148
        },
        {
          "name": "C2",
          "midi": 36,
          "time": 58.84609500000001,
          "velocity": 0.8661417322834646,
          "duration": 0.3124996875000008
        },
        {
          "name": "C2",
          "midi": 36,
          "time": 59.30763300000001,
          "velocity": 0.8661417322834646,
          "duration": 0.16826906250000206
        },
        {
          "name": "G2",
          "midi": 43,
          "time": 59.53840200000001,
          "velocity": 0.8661417322834646,
          "duration": 0.18269212500000265
        },
        {
          "name": "C2",
          "midi": 36,
          "time": 59.769171000000014,
          "velocity": 0.8661417322834646,
          "duration": 0.13701909374999843
        },
        {
          "name": "D#2",
          "midi": 39,
          "time": 59.99994000000001,
          "velocity": 0.8661417322834646,
          "duration": 0.20192287500000106
        },
        {
          "name": "F2",
          "midi": 41,
          "time": 60.23070900000001,
          "velocity": 0.8661417322834646,
          "duration": 0.185095968749998
        },
        {
          "name": "A#1",
          "midi": 34,
          "time": 60.46147800000001,
          "velocity": 0.8661417322834646,
          "duration": 0.16826906250000206
        },
        {
          "name": "C2",
          "midi": 36,
          "time": 60.69224700000001,
          "velocity": 0.8661417322834646,
          "duration": 0.36778809375000066
        },
        {
          "name": "C2",
          "midi": 36,
          "time": 61.153785000000006,
          "velocity": 0.8661417322834646,
          "duration": 0.15144215624999902
        },
        {
          "name": "G2",
          "midi": 43,
          "time": 61.38455400000001,
          "velocity": 0.8661417322834646,
          "duration": 0.20432671874999642
        },
        {
          "name": "C2",
          "midi": 36,
          "time": 61.615323000000004,
          "velocity": 0.8661417322834646,
          "duration": 0.1394229375000009
        },
        {
          "name": "D#2",
          "midi": 39,
          "time": 61.846092000000006,
          "velocity": 0.8661417322834646,
          "duration": 0.2115382499999967
        },
        {
          "name": "F2",
          "midi": 41,
          "time": 62.076861,
          "velocity": 0.8661417322834646,
          "duration": 0.16346137499999713
        },
        {
          "name": "A#1",
          "midi": 34,
          "time": 62.307629999999996,
          "velocity": 0.8661417322834646,
          "duration": 0.18269212500000265
        },
        {
          "name": "C2",
          "midi": 36,
          "time": 62.538399,
          "velocity": 0.8661417322834646,
          "duration": 0.3100958437499983
        },
        {
          "name": "C2",
          "midi": 36,
          "time": 62.999936999999996,
          "velocity": 0.8661417322834646,
          "duration": 0.14182678125000336
        },
        {
          "name": "G2",
          "midi": 43,
          "time": 63.230706,
          "velocity": 0.8661417322834646,
          "duration": 0.18269212500000265
        },
        {
          "name": "C2",
          "midi": 36,
          "time": 63.461475,
          "velocity": 0.8661417322834646,
          "duration": 0.15144215624999902
        },
        {
          "name": "D#2",
          "midi": 39,
          "time": 63.692244,
          "velocity": 0.8661417322834646,
          "duration": 0.185095968749998
        },
        {
          "name": "F2",
          "midi": 41,
          "time": 63.923013,
          "velocity": 0.8661417322834646,
          "duration": 0.18990365624999583
        },
        {
          "name": "A#1",
          "midi": 34,
          "time": 64.15378199999999,
          "velocity": 0.8661417322834646,
          "duration": 0.15144215624999902
        },
        {
          "name": "C2",
          "midi": 36,
          "time": 64.38455099999999,
          "velocity": 0.8661417322834646,
          "duration": 0.28365356250000673
        },
        {
          "name": "C2",
          "midi": 36,
          "time": 64.84608899999999,
          "velocity": 0.8661417322834646,
          "duration": 0.19711518750000323
        },
        {
          "name": "A1",
          "midi": 33,
          "time": 65.076858,
          "velocity": 0.8661417322834646,
          "duration": 0.24759590624999817
        },
        {
          "name": "A2",
          "midi": 45,
          "time": 65.307627,
          "velocity": 0.8661417322834646,
          "duration": 0.1995190312500057
        },
        {
          "name": "A#1",
          "midi": 34,
          "time": 65.538396,
          "velocity": 0.8661417322834646,
          "duration": 0.22836515625000686
        },
        {
          "name": "A#2",
          "midi": 46,
          "time": 65.76916500000002,
          "velocity": 0.8661417322834646,
          "duration": 0.21634593749999453
        },
        {
          "name": "B1",
          "midi": 35,
          "time": 65.99993400000001,
          "velocity": 0.8661417322834646,
          "duration": 0.19711518750000323
        },
        {
          "name": "C2",
          "midi": 36,
          "time": 66.23070300000002,
          "velocity": 0.8661417322834646,
          "duration": 0.3581727187499979
        },
        {
          "name": "C2",
          "midi": 36,
          "time": 66.69224100000002,
          "velocity": 0.8661417322834646,
          "duration": 0.18028828125000018
        },
        {
          "name": "G2",
          "midi": 43,
          "time": 66.92301000000002,
          "velocity": 0.8661417322834646,
          "duration": 0.16105753124999467
        },
        {
          "name": "C2",
          "midi": 36,
          "time": 67.15377900000001,
          "velocity": 0.8661417322834646,
          "duration": 0.20432671874999642
        },
        {
          "name": "D#2",
          "midi": 39,
          "time": 67.38454800000001,
          "velocity": 0.8661417322834646,
          "duration": 0.18990365624999583
        },
        {
          "name": "F2",
          "midi": 41,
          "time": 67.615317,
          "velocity": 0.8661417322834646,
          "duration": 0.17548059374999525
        },
        {
          "name": "A#1",
          "midi": 34,
          "time": 67.846086,
          "velocity": 0.8661417322834646,
          "duration": 0.18269212500000265
        },
        {
          "name": "C2",
          "midi": 36,
          "time": 68.07685500000001,
          "velocity": 0.8661417322834646,
          "duration": 0.31490353124999615
        },
        {
          "name": "C2",
          "midi": 36,
          "time": 68.538393,
          "velocity": 0.8661417322834646,
          "duration": 0.15144215624999902
        },
        {
          "name": "G2",
          "midi": 43,
          "time": 68.769162,
          "velocity": 0.8661417322834646,
          "duration": 0.18028828125000018
        },
        {
          "name": "C2",
          "midi": 36,
          "time": 68.99993099999999,
          "velocity": 0.8661417322834646,
          "duration": 0.12499987500000032
        },
        {
          "name": "D#2",
          "midi": 39,
          "time": 69.23069999999998,
          "velocity": 0.8661417322834646,
          "duration": 0.19711518750000323
        },
        {
          "name": "F2",
          "midi": 41,
          "time": 69.461469,
          "velocity": 0.8661417322834646,
          "duration": 0.19471134375000076
        },
        {
          "name": "A#1",
          "midi": 34,
          "time": 69.69223799999999,
          "velocity": 0.8661417322834646,
          "duration": 0.19471134375000076
        },
        {
          "name": "C2",
          "midi": 36,
          "time": 69.92300699999998,
          "velocity": 0.8661417322834646,
          "duration": 0.3437496562499973
        },
        {
          "name": "C2",
          "midi": 36,
          "time": 70.38454499999997,
          "velocity": 0.8661417322834646,
          "duration": 0.16105753124999467
        },
        {
          "name": "G2",
          "midi": 43,
          "time": 70.61531399999997,
          "velocity": 0.8661417322834646,
          "duration": 0.17548059374999525
        },
        {
          "name": "C2",
          "midi": 36,
          "time": 70.84608299999996,
          "velocity": 0.8661417322834646,
          "duration": 0.14182678125000336
        },
        {
          "name": "D#2",
          "midi": 39,
          "time": 71.07685199999997,
          "velocity": 0.8661417322834646,
          "duration": 0.2115382500000038
        },
        {
          "name": "F2",
          "midi": 41,
          "time": 71.30762099999998,
          "velocity": 0.8661417322834646,
          "duration": 0.20192287499999395
        },
        {
          "name": "A#1",
          "midi": 34,
          "time": 71.53838999999998,
          "velocity": 0.8661417322834646,
          "duration": 0.17548059374999525
        },
        {
          "name": "C2",
          "midi": 36,
          "time": 71.76915899999997,
          "velocity": 0.8661417322834646,
          "duration": 0.36057656250000036
        },
        {
          "name": "C2",
          "midi": 36,
          "time": 72.23069699999998,
          "velocity": 0.8661417322834646,
          "duration": 0.20673056249999888
        },
        {
          "name": "A1",
          "midi": 33,
          "time": 72.46146599999997,
          "velocity": 0.8661417322834646,
          "duration": 0.27644203124999933
        },
        {
          "name": "A2",
          "midi": 45,
          "time": 72.69223499999997,
          "velocity": 0.8661417322834646,
          "duration": 0.21394209375000628
        },
        {
          "name": "A#1",
          "midi": 34,
          "time": 72.92300399999998,
          "velocity": 0.8661417322834646,
          "duration": 0.25480743749999135
        },
        {
          "name": "A#2",
          "midi": 46,
          "time": 73.15377299999997,
          "velocity": 0.8661417322834646,
          "duration": 0.21634593749999453
        },
        {
          "name": "B1",
          "midi": 35,
          "time": 73.38454199999997,
          "velocity": 0.8661417322834646,
          "duration": 0.20192287499999395
        },
        {
          "name": "C2",
          "midi": 36,
          "time": 73.61531099999996,
          "velocity": 0.8661417322834646,
          "duration": 0.4519226249999946
        },
        {
          "name": "C3",
          "midi": 48,
          "time": 74.07684899999995,
          "velocity": 0.8661417322834646,
          "duration": 0.07211531250000291
        },
        {
          "name": "G2",
          "midi": 43,
          "time": 74.30761799999996,
          "velocity": 0.8661417322834646,
          "duration": 0.14182678125000336
        },
        {
          "name": "C2",
          "midi": 36,
          "time": 74.53838699999997,
          "velocity": 0.8661417322834646,
          "duration": 0.13461524999999597
        },
        {
          "name": "D#2",
          "midi": 39,
          "time": 74.76915599999997,
          "velocity": 0.8661417322834646,
          "duration": 0.21394209375000628
        },
        {
          "name": "F2",
          "midi": 41,
          "time": 74.99992499999998,
          "velocity": 0.8661417322834646,
          "duration": 0.1658652187499996
        },
        {
          "name": "A#1",
          "midi": 34,
          "time": 75.23069399999997,
          "velocity": 0.8661417322834646,
          "duration": 0.18990365624999583
        },
        {
          "name": "C2",
          "midi": 36,
          "time": 75.46146299999997,
          "velocity": 0.8661417322834646,
          "duration": 0.37499962500000095
        },
        {
          "name": "C2",
          "midi": 36,
          "time": 75.92300099999997,
          "velocity": 0.8661417322834646,
          "duration": 0.12980756250000525
        },
        {
          "name": "G2",
          "midi": 43,
          "time": 76.15376999999998,
          "velocity": 0.8661417322834646,
          "duration": 0.1586536875000064
        },
        {
          "name": "C2",
          "midi": 36,
          "time": 76.38453899999999,
          "velocity": 0.8661417322834646,
          "duration": 0.1586536875000064
        },
        {
          "name": "D#2",
          "midi": 39,
          "time": 76.615308,
          "velocity": 0.8661417322834646,
          "duration": 0.21394209375000628
        },
        {
          "name": "F2",
          "midi": 41,
          "time": 76.84607700000001,
          "velocity": 0.8661417322834646,
          "duration": 0.19471134375000076
        },
        {
          "name": "A#1",
          "midi": 34,
          "time": 77.076846,
          "velocity": 0.8661417322834646,
          "duration": 0.20432671874999642
        },
        {
          "name": "C2",
          "midi": 36,
          "time": 77.307615,
          "velocity": 0.8661417322834646,
          "duration": 0.3461534999999998
        },
        {
          "name": "C2",
          "midi": 36,
          "time": 77.769153,
          "velocity": 0.8661417322834646,
          "duration": 0.16105753124999467
        },
        {
          "name": "G2",
          "midi": 43,
          "time": 77.999922,
          "velocity": 0.8661417322834646,
          "duration": 0.20192287499999395
        },
        {
          "name": "C2",
          "midi": 36,
          "time": 78.230691,
          "velocity": 0.8661417322834646,
          "duration": 0.14903831249999655
        },
        {
          "name": "D#2",
          "midi": 39,
          "time": 78.46145999999999,
          "velocity": 0.8661417322834646,
          "duration": 0.19471134375000076
        },
        {
          "name": "F2",
          "midi": 41,
          "time": 78.69222899999998,
          "velocity": 0.8661417322834646,
          "duration": 0.19711518750000323
        },
        {
          "name": "A#1",
          "midi": 34,
          "time": 78.92299799999999,
          "velocity": 0.8661417322834646,
          "duration": 0.1923074999999983
        },
        {
          "name": "C2",
          "midi": 36,
          "time": 79.15376699999999,
          "velocity": 0.8661417322834646,
          "duration": 0.3461534999999998
        },
        {
          "name": "C2",
          "midi": 36,
          "time": 79.61530499999999,
          "velocity": 0.8661417322834646,
          "duration": 0.17788443749999772
        },
        {
          "name": "A1",
          "midi": 33,
          "time": 79.84607399999999,
          "velocity": 0.8661417322834646,
          "duration": 0.16826906250000206
        },
        {
          "name": "A1",
          "midi": 33,
          "time": 80.07684299999998,
          "velocity": 0.8661417322834646,
          "duration": 0.18990365624999583
        },
        {
          "name": "A#1",
          "midi": 34,
          "time": 80.30761199999998,
          "velocity": 0.8661417322834646,
          "duration": 0.12980756250000525
        },
        {
          "name": "A#1",
          "midi": 34,
          "time": 80.53838099999999,
          "velocity": 0.8661417322834646,
          "duration": 0.16346137499999713
        },
        {
          "name": "C2",
          "midi": 36,
          "time": 80.76914999999998,
          "velocity": 0.8661417322834646,
          "duration": 0.15144215624999902
        },
        {
          "name": "F2",
          "midi": 41,
          "time": 80.99991899999998,
          "velocity": 0.8661417322834646,
          "duration": 0.36778809374999355
        },
        {
          "name": "F2",
          "midi": 41,
          "time": 81.46145699999997,
          "velocity": 0.8661417322834646,
          "duration": 0.1658652187499996
        },
        {
          "name": "E2",
          "midi": 40,
          "time": 81.69222599999996,
          "velocity": 0.8661417322834646,
          "duration": 0.14423062500000583
        },
        {
          "name": "E2",
          "midi": 40,
          "time": 81.92299499999997,
          "velocity": 0.8661417322834646,
          "duration": 0.1995190312500057
        },
        {
          "name": "D2",
          "midi": 38,
          "time": 82.15376399999998,
          "velocity": 0.8661417322834646,
          "duration": 0.13701909374999843
        },
        {
          "name": "D2",
          "midi": 38,
          "time": 82.38453299999998,
          "velocity": 0.8661417322834646,
          "duration": 0.20913440625000135
        },
        {
          "name": "C2",
          "midi": 36,
          "time": 82.61530199999997,
          "velocity": 0.8661417322834646,
          "duration": 0.14903831249999655
        },
        {
          "name": "A#1",
          "midi": 34,
          "time": 82.84607099999997,
          "velocity": 0.8661417322834646,
          "duration": 0.3774034687500034
        },
        {
          "name": "A#1",
          "midi": 34,
          "time": 83.30760899999997,
          "velocity": 0.8661417322834646,
          "duration": 0.1394229375000009
        },
        {
          "name": "A1",
          "midi": 33,
          "time": 83.53837799999997,
          "velocity": 0.8661417322834646,
          "duration": 0.3774034687500034
        },
        {
          "name": "G1",
          "midi": 31,
          "time": 83.99991599999997,
          "velocity": 0.8661417322834646,
          "duration": 0.18028828125000018
        },
        {
          "name": "A#1",
          "midi": 34,
          "time": 84.23068499999997,
          "velocity": 0.8661417322834646,
          "duration": 0.1995190312500057
        },
        {
          "name": "D2",
          "midi": 38,
          "time": 84.46145399999997,
          "velocity": 0.8661417322834646,
          "duration": 0.15624984375000395
        },
        {
          "name": "C2",
          "midi": 36,
          "time": 84.69222299999998,
          "velocity": 0.8661417322834646,
          "duration": 0.3725957812499985
        },
        {
          "name": "C2",
          "midi": 36,
          "time": 85.15376099999999,
          "velocity": 0.8661417322834646,
          "duration": 0.1057691249999948
        },
        {
          "name": "C2",
          "midi": 36,
          "time": 85.38452999999998,
          "velocity": 0.8661417322834646,
          "duration": 0.35576887499999543
        },
        {
          "name": "C2",
          "midi": 36,
          "time": 85.84606799999997,
          "velocity": 0.8661417322834646,
          "duration": 0.11538450000000466
        },
        {
          "name": "C2",
          "midi": 36,
          "time": 86.07683699999998,
          "velocity": 0.8661417322834646,
          "duration": 0.32692274999999427
        },
        {
          "name": "C2",
          "midi": 36,
          "time": 86.53837499999997,
          "velocity": 0.8661417322834646,
          "duration": 0.35336503124999297
        },
        {
          "name": "C2",
          "midi": 36,
          "time": 86.99991299999996,
          "velocity": 0.8661417322834646,
          "duration": 0.11538450000000466
        },
        {
          "name": "C2",
          "midi": 36,
          "time": 87.23068199999997,
          "velocity": 0.8661417322834646,
          "duration": 0.32211506250000355
        },
        {
          "name": "C2",
          "midi": 36,
          "time": 87.69221999999998,
          "velocity": 0.8661417322834646,
          "duration": 0.21394209375000628
        },
        {
          "name": "A1",
          "midi": 33,
          "time": 87.92298899999999,
          "velocity": 0.8661417322834646,
          "duration": 0.1995190312500057
        },
        {
          "name": "C2",
          "midi": 36,
          "time": 88.153758,
          "velocity": 0.8661417322834646,
          "duration": 0.17548059374999525
        },
        {
          "name": "F2",
          "midi": 41,
          "time": 88.38452699999999,
          "velocity": 0.8661417322834646,
          "duration": 0.3774034687500034
        },
        {
          "name": "F2",
          "midi": 41,
          "time": 88.846065,
          "velocity": 0.8661417322834646,
          "duration": 0.12259603124999785
        },
        {
          "name": "E2",
          "midi": 40,
          "time": 89.07683399999999,
          "velocity": 0.8661417322834646,
          "duration": 0.40865343749999283
        },
        {
          "name": "D2",
          "midi": 38,
          "time": 89.53837199999998,
          "velocity": 0.8661417322834646,
          "duration": 0.41586496875000023
        },
        {
          "name": "C2",
          "midi": 36,
          "time": 89.99990999999999,
          "velocity": 0.8661417322834646,
          "duration": 0.10817296874999727
        },
        {
          "name": "A#1",
          "midi": 34,
          "time": 90.23067899999998,
          "velocity": 0.8661417322834646,
          "duration": 0.37499962500000095
        },
        {
          "name": "A#1",
          "midi": 34,
          "time": 90.69221699999999,
          "velocity": 0.8661417322834646,
          "duration": 0.11057681249999973
        },
        {
          "name": "A1",
          "midi": 33,
          "time": 90.92298599999998,
          "velocity": 0.8661417322834646,
          "duration": 0.40144190624999965
        },
        {
          "name": "G1",
          "midi": 31,
          "time": 91.38452399999998,
          "velocity": 0.8661417322834646,
          "duration": 0.18990365624999583
        },
        {
          "name": "A#1",
          "midi": 34,
          "time": 91.61529299999998,
          "velocity": 0.8661417322834646,
          "duration": 0.18749981249999337
        },
        {
          "name": "D2",
          "midi": 38,
          "time": 91.84606199999998,
          "velocity": 0.8661417322834646,
          "duration": 0.12499987500000032
        },
        {
          "name": "C2",
          "midi": 36,
          "time": 92.07683099999997,
          "velocity": 0.8661417322834646,
          "duration": 0.35576887499999543
        },
        {
          "name": "C2",
          "midi": 36,
          "time": 92.53836899999996,
          "velocity": 0.8661417322834646,
          "duration": 0.11057681249999973
        },
        {
          "name": "C2",
          "midi": 36,
          "time": 92.76913799999996,
          "velocity": 0.8661417322834646,
          "duration": 0.370191937499996
        },
        {
          "name": "C2",
          "midi": 36,
          "time": 93.23067599999995,
          "velocity": 0.8661417322834646,
          "duration": 0.20913440625000135
        },
        {
          "name": "E1",
          "midi": 28,
          "time": 93.46144499999994,
          "velocity": 0.8661417322834646,
          "duration": 0.2115382500000038
        },
        {
          "name": "F1",
          "midi": 29,
          "time": 93.69221399999995,
          "velocity": 0.8661417322834646,
          "duration": 0.18749981249999337
        },
        {
          "name": "G1",
          "midi": 31,
          "time": 93.92298299999995,
          "velocity": 0.8661417322834646,
          "duration": 0.43990340624999646
        },
        {
          "name": "G1",
          "midi": 31,
          "time": 94.38452099999994,
          "velocity": 0.8661417322834646,
          "duration": 0.18749981249999337
        },
        {
          "name": "A#1",
          "midi": 34,
          "time": 94.61528999999993,
          "velocity": 0.8661417322834646,
          "duration": 0.16826906250000206
        },
        {
          "name": "C2",
          "midi": 36,
          "time": 94.84605899999993,
          "velocity": 0.8661417322834646,
          "duration": 0.14663446874999408
        },
        {
          "name": "A#1",
          "midi": 34,
          "time": 95.07682799999992,
          "velocity": 0.8661417322834646,
          "duration": 0.1923074999999983
        },
        {
          "name": "A1",
          "midi": 33,
          "time": 95.30759699999992,
          "velocity": 0.8661417322834646,
          "duration": 0.28365356250000673
        },
        {
          "name": "C2",
          "midi": 36,
          "time": 95.76913499999992,
          "velocity": 0.8661417322834646,
          "duration": 0.40144190624999965
        },
        {
          "name": "C2",
          "midi": 36,
          "time": 96.23067299999992,
          "velocity": 0.8661417322834646,
          "duration": 0.14423062500000583
        },
        {
          "name": "G2",
          "midi": 43,
          "time": 96.46144199999993,
          "velocity": 0.8661417322834646,
          "duration": 0.20432671874999642
        },
        {
          "name": "C2",
          "midi": 36,
          "time": 96.69221099999993,
          "velocity": 0.8661417322834646,
          "duration": 0.10817296874999727
        },
        {
          "name": "D#2",
          "midi": 39,
          "time": 96.92297999999992,
          "velocity": 0.8661417322834646,
          "duration": 0.23317284374999758
        },
        {
          "name": "F2",
          "midi": 41,
          "time": 97.15374899999992,
          "velocity": 0.8661417322834646,
          "duration": 0.18269212500000265
        },
        {
          "name": "A#1",
          "midi": 34,
          "time": 97.38451799999993,
          "velocity": 0.8661417322834646,
          "duration": 0.18749981249999337
        },
        {
          "name": "C2",
          "midi": 36,
          "time": 97.61528699999992,
          "velocity": 0.8661417322834646,
          "duration": 0.31490353124999615
        },
        {
          "name": "C2",
          "midi": 36,
          "time": 98.07682499999991,
          "velocity": 0.8661417322834646,
          "duration": 0.12019218749999538
        },
        {
          "name": "G2",
          "midi": 43,
          "time": 98.30759399999991,
          "velocity": 0.8661417322834646,
          "duration": 0.19471134375000076
        },
        {
          "name": "C2",
          "midi": 36,
          "time": 98.5383629999999,
          "velocity": 0.8661417322834646,
          "duration": 0.14423062500000583
        },
        {
          "name": "D#2",
          "midi": 39,
          "time": 98.76913199999991,
          "velocity": 0.8661417322834646,
          "duration": 0.18749981249999337
        },
        {
          "name": "F2",
          "midi": 41,
          "time": 98.99990099999991,
          "velocity": 0.8661417322834646,
          "duration": 0.18990365624999583
        },
        {
          "name": "A#1",
          "midi": 34,
          "time": 99.2306699999999,
          "velocity": 0.8661417322834646,
          "duration": 0.19471134375000076
        },
        {
          "name": "C2",
          "midi": 36,
          "time": 99.4614389999999,
          "velocity": 0.8661417322834646,
          "duration": 0.36778809374999355
        },
        {
          "name": "C2",
          "midi": 36,
          "time": 99.92297699999989,
          "velocity": 0.8661417322834646,
          "duration": 0.14423062500000583
        },
        {
          "name": "G2",
          "midi": 43,
          "time": 100.1537459999999,
          "velocity": 0.8661417322834646,
          "duration": 0.1923074999999983
        },
        {
          "name": "C2",
          "midi": 36,
          "time": 100.3845149999999,
          "velocity": 0.8661417322834646,
          "duration": 0.14903831249999655
        },
        {
          "name": "D#2",
          "midi": 39,
          "time": 100.61528399999989,
          "velocity": 0.8661417322834646,
          "duration": 0.2115382500000038
        },
        {
          "name": "F2",
          "midi": 41,
          "time": 100.8460529999999,
          "velocity": 0.8661417322834646,
          "duration": 0.18028828125000018
        },
        {
          "name": "A#1",
          "midi": 34,
          "time": 101.0768219999999,
          "velocity": 0.8661417322834646,
          "duration": 0.19471134375000076
        },
        {
          "name": "C2",
          "midi": 36,
          "time": 101.30759099999989,
          "velocity": 0.8661417322834646,
          "duration": 0.3653842500000053
        },
        {
          "name": "C2",
          "midi": 36,
          "time": 101.7691289999999,
          "velocity": 0.8661417322834646,
          "duration": 0.21634593749999453
        },
        {
          "name": "A1",
          "midi": 33,
          "time": 101.99989799999989,
          "velocity": 0.8661417322834646,
          "duration": 0.15384600000000148
        },
        {
          "name": "A1",
          "midi": 33,
          "time": 102.23066699999988,
          "velocity": 0.8661417322834646,
          "duration": 0.1923074999999983
        },
        {
          "name": "A#1",
          "midi": 34,
          "time": 102.46143599999988,
          "velocity": 0.8661417322834646,
          "duration": 0.14423062500000583
        },
        {
          "name": "A#1",
          "midi": 34,
          "time": 102.69220499999989,
          "velocity": 0.8661417322834646,
          "duration": 0.14182678125000336
        },
        {
          "name": "B1",
          "midi": 35,
          "time": 102.9229739999999,
          "velocity": 0.8661417322834646,
          "duration": 0.16105753124999467
        },
        {
          "name": "C2",
          "midi": 36,
          "time": 103.15374299999989,
          "velocity": 0.8661417322834646,
          "duration": 0.41586496875000023
        },
        {
          "name": "C2",
          "midi": 36,
          "time": 103.6152809999999,
          "velocity": 0.8661417322834646,
          "duration": 0.173076750000007
        },
        {
          "name": "G2",
          "midi": 43,
          "time": 103.8460499999999,
          "velocity": 0.8661417322834646,
          "duration": 0.17548059374999525
        },
        {
          "name": "C2",
          "midi": 36,
          "time": 104.0768189999999,
          "velocity": 0.8661417322834646,
          "duration": 0.14182678125000336
        },
        {
          "name": "D#2",
          "midi": 39,
          "time": 104.30758799999991,
          "velocity": 0.8661417322834646,
          "duration": 0.20673056249999888
        },
        {
          "name": "F2",
          "midi": 41,
          "time": 104.5383569999999,
          "velocity": 0.8661417322834646,
          "duration": 0.1995190312500057
        },
        {
          "name": "A#1",
          "midi": 34,
          "time": 104.76912599999991,
          "velocity": 0.8661417322834646,
          "duration": 0.20192287499999395
        },
        {
          "name": "C2",
          "midi": 36,
          "time": 104.99989499999991,
          "velocity": 0.8661417322834646,
          "duration": 0.3509611875000047
        },
        {
          "name": "C2",
          "midi": 36,
          "time": 105.46143299999991,
          "velocity": 0.8661417322834646,
          "duration": 0.17067290625000453
        },
        {
          "name": "G2",
          "midi": 43,
          "time": 105.69220199999992,
          "velocity": 0.8661417322834646,
          "duration": 0.17788443749999772
        },
        {
          "name": "C2",
          "midi": 36,
          "time": 105.92297099999992,
          "velocity": 0.8661417322834646,
          "duration": 0.14663446874999408
        },
        {
          "name": "D#2",
          "midi": 39,
          "time": 106.15373999999991,
          "velocity": 0.8661417322834646,
          "duration": 0.1995190312500057
        },
        {
          "name": "F2",
          "midi": 41,
          "time": 106.38450899999992,
          "velocity": 0.8661417322834646,
          "duration": 0.18028828125000018
        },
        {
          "name": "A#1",
          "midi": 34,
          "time": 106.61527799999992,
          "velocity": 0.8661417322834646,
          "duration": 0.1923074999999983
        },
        {
          "name": "C2",
          "midi": 36,
          "time": 106.84604699999991,
          "velocity": 0.8661417322834646,
          "duration": 0.324518906250006
        },
        {
          "name": "C2",
          "midi": 36,
          "time": 107.30758499999992,
          "velocity": 0.8661417322834646,
          "duration": 0.16346137499999713
        },
        {
          "name": "G2",
          "midi": 43,
          "time": 107.53835399999991,
          "velocity": 0.8661417322834646,
          "duration": 0.18269212500000265
        },
        {
          "name": "C2",
          "midi": 36,
          "time": 107.76912299999992,
          "velocity": 0.8661417322834646,
          "duration": 0.1394229375000009
        },
        {
          "name": "D#2",
          "midi": 39,
          "time": 107.99989199999992,
          "velocity": 0.8661417322834646,
          "duration": 0.20673056249999888
        },
        {
          "name": "F2",
          "midi": 41,
          "time": 108.23066099999991,
          "velocity": 0.8661417322834646,
          "duration": 0.17067290625000453
        },
        {
          "name": "A#1",
          "midi": 34,
          "time": 108.46142999999992,
          "velocity": 0.8661417322834646,
          "duration": 0.1923074999999983
        },
        {
          "name": "C2",
          "midi": 36,
          "time": 108.69219899999992,
          "velocity": 0.8661417322834646,
          "duration": 0.3581727187499979
        },
        {
          "name": "C2",
          "midi": 36,
          "time": 109.15373699999992,
          "velocity": 0.8661417322834646,
          "duration": 0.19711518750000323
        },
        {
          "name": "A1",
          "midi": 33,
          "time": 109.38450599999993,
          "velocity": 0.8661417322834646,
          "duration": 0.18990365624999583
        },
        {
          "name": "A1",
          "midi": 33,
          "time": 109.61527499999993,
          "velocity": 0.8661417322834646,
          "duration": 0.20432671874999642
        },
        {
          "name": "A#1",
          "midi": 34,
          "time": 109.84604399999992,
          "velocity": 0.8661417322834646,
          "duration": 0.15384600000000148
        },
        {
          "name": "A#1",
          "midi": 34,
          "time": 110.07681299999992,
          "velocity": 0.8661417322834646,
          "duration": 0.1394229375000009
        },
        {
          "name": "B1",
          "midi": 35,
          "time": 110.30758199999991,
          "velocity": 0.8661417322834646,
          "duration": 0.17548059374999525
        },
        {
          "name": "C2",
          "midi": 36,
          "time": 110.5383509999999,
          "velocity": 0.8661417322834646,
          "duration": 0.35336503124999297
        },
        {
          "name": "C2",
          "midi": 36,
          "time": 110.9998889999999,
          "velocity": 0.8661417322834646,
          "duration": 0.15384600000000148
        },
        {
          "name": "G2",
          "midi": 43,
          "time": 111.23065799999989,
          "velocity": 0.8661417322834646,
          "duration": 0.19711518750000323
        },
        {
          "name": "C2",
          "midi": 36,
          "time": 111.4614269999999,
          "velocity": 0.8661417322834646,
          "duration": 0.14903831249999655
        },
        {
          "name": "D#2",
          "midi": 39,
          "time": 111.6921959999999,
          "velocity": 0.8661417322834646,
          "duration": 0.1850959687500051
        },
        {
          "name": "F2",
          "midi": 41,
          "time": 111.9229649999999,
          "velocity": 0.8661417322834646,
          "duration": 0.173076750000007
        },
        {
          "name": "A#1",
          "midi": 34,
          "time": 112.15373399999991,
          "velocity": 0.8661417322834646,
          "duration": 0.17067290625000453
        },
        {
          "name": "C2",
          "midi": 36,
          "time": 112.38450299999992,
          "velocity": 0.8661417322834646,
          "duration": 0.33653812500000413
        },
        {
          "name": "C2",
          "midi": 36,
          "time": 112.84604099999993,
          "velocity": 0.8661417322834646,
          "duration": 0.15384600000000148
        },
        {
          "name": "G2",
          "midi": 43,
          "time": 113.07680999999992,
          "velocity": 0.8661417322834646,
          "duration": 0.18269212500000265
        },
        {
          "name": "C2",
          "midi": 36,
          "time": 113.30757899999993,
          "velocity": 0.8661417322834646,
          "duration": 0.14182678125000336
        },
        {
          "name": "D#2",
          "midi": 39,
          "time": 113.53834799999994,
          "velocity": 0.8661417322834646,
          "duration": 0.20192287499999395
        },
        {
          "name": "F2",
          "midi": 41,
          "time": 113.76911699999994,
          "velocity": 0.8661417322834646,
          "duration": 0.1850959687500051
        },
        {
          "name": "A#1",
          "midi": 34,
          "time": 113.99988599999995,
          "velocity": 0.8661417322834646,
          "duration": 0.16105753124999467
        },
        {
          "name": "C2",
          "midi": 36,
          "time": 114.23065499999994,
          "velocity": 0.8661417322834646,
          "duration": 0.34134581249999485
        },
        {
          "name": "C2",
          "midi": 36,
          "time": 114.69219299999993,
          "velocity": 0.8661417322834646,
          "duration": 0.1586536875000064
        },
        {
          "name": "G2",
          "midi": 43,
          "time": 114.92296199999994,
          "velocity": 0.8661417322834646,
          "duration": 0.18749981249999337
        },
        {
          "name": "C2",
          "midi": 36,
          "time": 115.15373099999994,
          "velocity": 0.8661417322834646,
          "duration": 0.11538450000000466
        },
        {
          "name": "D#2",
          "midi": 39,
          "time": 115.38449999999995,
          "velocity": 0.8661417322834646,
          "duration": 0.20913440625000135
        },
        {
          "name": "F2",
          "midi": 41,
          "time": 115.61526899999994,
          "velocity": 0.8661417322834646,
          "duration": 0.2115382500000038
        },
        {
          "name": "C2",
          "midi": 36,
          "time": 115.84603799999995,
          "velocity": 0.8661417322834646,
          "duration": 0.06249993749999305
        },
        {
          "name": "C2",
          "midi": 36,
          "time": 116.07680699999995,
          "velocity": 0.8661417322834646,
          "duration": 0.35336503124999297
        },
        {
          "name": "C2",
          "midi": 36,
          "time": 116.53834499999994,
          "velocity": 0.8661417322834646,
          "duration": 0.14423062500000583
        },
        {
          "name": "A1",
          "midi": 33,
          "time": 116.76911399999995,
          "velocity": 0.8661417322834646,
          "duration": 0.15144215624999902
        },
        {
          "name": "A1",
          "midi": 33,
          "time": 116.99988299999994,
          "velocity": 0.8661417322834646,
          "duration": 0.16346137499999713
        },
        {
          "name": "A#1",
          "midi": 34,
          "time": 117.23065199999994,
          "velocity": 0.8661417322834646,
          "duration": 0.1322114062499935
        },
        {
          "name": "A#1",
          "midi": 34,
          "time": 117.46142099999993,
          "velocity": 0.8661417322834646,
          "duration": 0.16346137499999713
        },
        {
          "name": "B1",
          "midi": 35,
          "time": 117.69218999999993,
          "velocity": 0.8661417322834646,
          "duration": 0.15624984375000395
        },
        {
          "name": "C2",
          "midi": 36,
          "time": 117.92295899999993,
          "velocity": 0.8661417322834646,
          "duration": 0.3581727187499979
        },
        {
          "name": "C2",
          "midi": 36,
          "time": 118.38449699999994,
          "velocity": 0.8661417322834646,
          "duration": 0.14423062500000583
        },
        {
          "name": "G2",
          "midi": 43,
          "time": 118.61526599999995,
          "velocity": 0.8661417322834646,
          "duration": 0.20432671874999642
        },
        {
          "name": "C2",
          "midi": 36,
          "time": 118.84603499999994,
          "velocity": 0.8661417322834646,
          "duration": 0.14182678125000336
        },
        {
          "name": "D#2",
          "midi": 39,
          "time": 119.07680399999995,
          "velocity": 0.8661417322834646,
          "duration": 0.1995190312500057
        },
        {
          "name": "F2",
          "midi": 41,
          "time": 119.30757299999996,
          "velocity": 0.8661417322834646,
          "duration": 0.21634593749999453
        },
        {
          "name": "A#1",
          "midi": 34,
          "time": 119.53834199999996,
          "velocity": 0.8661417322834646,
          "duration": 0.18990365624999583
        },
        {
          "name": "C2",
          "midi": 36,
          "time": 119.76911099999995,
          "velocity": 0.8661417322834646,
          "duration": 0.35336503124999297
        },
        {
          "name": "C2",
          "midi": 36,
          "time": 120.23064899999994,
          "velocity": 0.8661417322834646,
          "duration": 0.14663446874999408
        },
        {
          "name": "G2",
          "midi": 43,
          "time": 120.46141799999994,
          "velocity": 0.8661417322834646,
          "duration": 0.19471134375000076
        },
        {
          "name": "C2",
          "midi": 36,
          "time": 120.69218699999993,
          "velocity": 0.8661417322834646,
          "duration": 0.1129806562500022
        },
        {
          "name": "D#2",
          "midi": 39,
          "time": 120.92295599999993,
          "velocity": 0.8661417322834646,
          "duration": 0.19471134375000076
        },
        {
          "name": "F2",
          "midi": 41,
          "time": 121.15372499999992,
          "velocity": 0.8661417322834646,
          "duration": 0.19471134375000076
        },
        {
          "name": "A#1",
          "midi": 34,
          "time": 121.38449399999992,
          "velocity": 0.8661417322834646,
          "duration": 0.19471134375000076
        },
        {
          "name": "C2",
          "midi": 36,
          "time": 121.61526299999991,
          "velocity": 0.8661417322834646,
          "duration": 0.36298040625000283
        },
        {
          "name": "C2",
          "midi": 36,
          "time": 122.07680099999992,
          "velocity": 0.8661417322834646,
          "duration": 0.14903831249999655
        },
        {
          "name": "G2",
          "midi": 43,
          "time": 122.30756999999991,
          "velocity": 0.8661417322834646,
          "duration": 0.17548059374999525
        },
        {
          "name": "C2",
          "midi": 36,
          "time": 122.53833899999991,
          "velocity": 0.8661417322834646,
          "duration": 0.14423062500000583
        },
        {
          "name": "D#2",
          "midi": 39,
          "time": 122.76910799999992,
          "velocity": 0.8661417322834646,
          "duration": 0.2451920624999957
        },
        {
          "name": "F2",
          "midi": 41,
          "time": 122.99987699999991,
          "velocity": 0.8661417322834646,
          "duration": 0.19471134375000076
        },
        {
          "name": "A#1",
          "midi": 34,
          "time": 123.23064599999991,
          "velocity": 0.8661417322834646,
          "duration": 0.173076750000007
        },
        {
          "name": "C2",
          "midi": 36,
          "time": 123.46141499999992,
          "velocity": 0.8661417322834646,
          "duration": 0.35336503124999297
        },
        {
          "name": "C2",
          "midi": 36,
          "time": 123.92295299999991,
          "velocity": 0.8661417322834646,
          "duration": 0.15624984375000395
        },
        {
          "name": "A1",
          "midi": 33,
          "time": 124.15372199999992,
          "velocity": 0.8661417322834646,
          "duration": 0.15624984375000395
        },
        {
          "name": "A1",
          "midi": 33,
          "time": 124.38449099999993,
          "velocity": 0.8661417322834646,
          "duration": 0.16826906250000206
        },
        {
          "name": "A#1",
          "midi": 34,
          "time": 124.61525999999992,
          "velocity": 0.8661417322834646,
          "duration": 0.12259603124999785
        },
        {
          "name": "A#1",
          "midi": 34,
          "time": 124.84602899999992,
          "velocity": 0.8661417322834646,
          "duration": 0.16105753124999467
        },
        {
          "name": "C2",
          "midi": 36,
          "time": 125.07679799999991,
          "velocity": 0.8661417322834646,
          "duration": 0.12980756250000525
        },
        {
          "name": "F2",
          "midi": 41,
          "time": 125.30756699999992,
          "velocity": 0.8661417322834646,
          "duration": 0.40144190624999965
        },
        {
          "name": "F2",
          "midi": 41,
          "time": 125.76910499999993,
          "velocity": 0.8661417322834646,
          "duration": 0.15384600000000148
        },
        {
          "name": "E2",
          "midi": 40,
          "time": 125.99987399999992,
          "velocity": 0.8661417322834646,
          "duration": 0.4038457500000021
        },
        {
          "name": "D2",
          "midi": 38,
          "time": 126.46141199999992,
          "velocity": 0.8661417322834646,
          "duration": 0.4062495937500046
        },
        {
          "name": "C2",
          "midi": 36,
          "time": 126.92294999999993,
          "velocity": 0.8661417322834646,
          "duration": 0.13701909374999843
        },
        {
          "name": "A#1",
          "midi": 34,
          "time": 127.15371899999992,
          "velocity": 0.8661417322834646,
          "duration": 0.3798073125000059
        },
        {
          "name": "A#1",
          "midi": 34,
          "time": 127.61525699999993,
          "velocity": 0.8661417322834646,
          "duration": 0.12259603124999785
        },
        {
          "name": "A1",
          "midi": 33,
          "time": 127.84602599999992,
          "velocity": 0.8661417322834646,
          "duration": 0.391826531250004
        },
        {
          "name": "G1",
          "midi": 31,
          "time": 128.30756399999993,
          "velocity": 0.8661417322834646,
          "duration": 0.14182678124998915
        },
        {
          "name": "A#1",
          "midi": 34,
          "time": 128.5383329999999,
          "velocity": 0.8661417322834646,
          "duration": 0.09855759375000162
        },
        {
          "name": "D2",
          "midi": 38,
          "time": 128.76910199999992,
          "velocity": 0.8661417322834646,
          "duration": 0.09855759375000162
        },
        {
          "name": "C2",
          "midi": 36,
          "time": 128.99987099999993,
          "velocity": 0.8661417322834646,
          "duration": 0.3317304374999992
        },
        {
          "name": "C2",
          "midi": 36,
          "time": 129.46140899999992,
          "velocity": 0.8661417322834646,
          "duration": 0.16826906250000206
        },
        {
          "name": "E1",
          "midi": 28,
          "time": 129.69217799999993,
          "velocity": 0.8661417322834646,
          "duration": 0.3653842500000053
        },
        {
          "name": "F1",
          "midi": 29,
          "time": 130.15371599999995,
          "velocity": 0.8661417322834646,
          "duration": 0.3870188437500133
        },
        {
          "name": "F#1",
          "midi": 30,
          "time": 130.61525399999996,
          "velocity": 0.8661417322834646,
          "duration": 0.09615375000001336
        },
        {
          "name": "G1",
          "midi": 31,
          "time": 130.84602299999997,
          "velocity": 0.8661417322834646,
          "duration": 0.3774034687500034
        },
        {
          "name": "G1",
          "midi": 31,
          "time": 131.30756099999996,
          "velocity": 0.8661417322834646,
          "duration": 0.15384599999998727
        },
        {
          "name": "A1",
          "midi": 33,
          "time": 131.53832999999995,
          "velocity": 0.8661417322834646,
          "duration": 0.3846149999999966
        },
        {
          "name": "A#1",
          "midi": 34,
          "time": 131.99986799999994,
          "velocity": 0.8661417322834646,
          "duration": 0.1394229375000009
        },
        {
          "name": "A#1",
          "midi": 34,
          "time": 132.23063699999994,
          "velocity": 0.8661417322834646,
          "duration": 0.15384599999998727
        },
        {
          "name": "C2",
          "midi": 36,
          "time": 132.46140599999993,
          "velocity": 0.8661417322834646,
          "duration": 0.1322114062500077
        },
        {
          "name": "F2",
          "midi": 41,
          "time": 132.69217499999993,
          "velocity": 0.8661417322834646,
          "duration": 0.3533650312500072
        },
        {
          "name": "F2",
          "midi": 41,
          "time": 133.15371299999995,
          "velocity": 0.8661417322834646,
          "duration": 0.1249998749999861
        },
        {
          "name": "E2",
          "midi": 40,
          "time": 133.38448199999993,
          "velocity": 0.8661417322834646,
          "duration": 0.40144190624999965
        },
        {
          "name": "D2",
          "midi": 38,
          "time": 133.84601999999992,
          "velocity": 0.8661417322834646,
          "duration": 0.3774034687500034
        },
        {
          "name": "C2",
          "midi": 36,
          "time": 134.30755799999991,
          "velocity": 0.8661417322834646,
          "duration": 0.1322114062500077
        },
        {
          "name": "A#1",
          "midi": 34,
          "time": 134.53832699999992,
          "velocity": 0.8661417322834646,
          "duration": 0.3918265312499898
        },
        {
          "name": "A#1",
          "midi": 34,
          "time": 134.99986499999991,
          "velocity": 0.8661417322834646,
          "duration": 0.11778834374999292
        },
        {
          "name": "A1",
          "midi": 33,
          "time": 135.2306339999999,
          "velocity": 0.8661417322834646,
          "duration": 0.3966342187499947
        },
        {
          "name": "G1",
          "midi": 31,
          "time": 135.69217199999989,
          "velocity": 0.8661417322834646,
          "duration": 0.19471134374998655
        },
        {
          "name": "A#1",
          "midi": 34,
          "time": 135.92294099999987,
          "velocity": 0.8661417322834646,
          "duration": 0.12980756249999104
        },
        {
          "name": "D2",
          "midi": 38,
          "time": 136.15370999999985,
          "velocity": 0.8661417322834646,
          "duration": 0.10336528125000655
        },
        {
          "name": "C2",
          "midi": 36,
          "time": 136.38447899999986,
          "velocity": 0.8661417322834646,
          "duration": 0.35576887499999543
        },
        {
          "name": "C2",
          "midi": 36,
          "time": 136.84601699999985,
          "velocity": 0.8661417322834646,
          "duration": 0.09374990624999668
        },
        {
          "name": "C2",
          "midi": 36,
          "time": 137.07678599999986,
          "velocity": 0.8661417322834646,
          "duration": 0.3533650312500072
        },
        {
          "name": "C2",
          "midi": 36,
          "time": 137.53832399999988,
          "velocity": 0.8661417322834646,
          "duration": 0.36778809374999355
        },
        {
          "name": "C2",
          "midi": 36,
          "time": 137.99986199999987,
          "velocity": 0.8661417322834646,
          "duration": 0.08173068749999857
        },
        {
          "name": "C2",
          "midi": 36,
          "time": 138.23063099999987,
          "velocity": 0.8661417322834646,
          "duration": 0.3581727187500121
        },
        {
          "name": "C2",
          "midi": 36,
          "time": 138.6921689999999,
          "velocity": 0.8661417322834646,
          "duration": 0.0865383750000035
        },
        {
          "name": "C2",
          "midi": 36,
          "time": 138.9229379999999,
          "velocity": 0.8661417322834646,
          "duration": 0.33653812500000413
        },
        {
          "name": "A#1",
          "midi": 34,
          "time": 139.3844759999999,
          "velocity": 0.8661417322834646,
          "duration": 0.20432671874999642
        },
        {
          "name": "A1",
          "midi": 33,
          "time": 139.6152449999999,
          "velocity": 0.8661417322834646,
          "duration": 0.29326893749998817
        },
        {
          "name": "A#1",
          "midi": 34,
          "time": 140.0767829999999,
          "velocity": 0.8661417322834646,
          "duration": 0.3846149999999966
        },
        {
          "name": "A#1",
          "midi": 34,
          "time": 140.53832099999988,
          "velocity": 0.8661417322834646,
          "duration": 0.12980756249999104
        },
        {
          "name": "A#1",
          "midi": 34,
          "time": 140.76908999999986,
          "velocity": 0.8661417322834646,
          "duration": 0.38221115625000834
        },
        {
          "name": "D2",
          "midi": 38,
          "time": 141.23062799999988,
          "velocity": 0.8661417322834646,
          "duration": 0.40144190624999965
        },
        {
          "name": "F2",
          "midi": 41,
          "time": 141.69216599999987,
          "velocity": 0.8661417322834646,
          "duration": 0.2187497812500112
        },
        {
          "name": "D2",
          "midi": 38,
          "time": 141.92293499999988,
          "velocity": 0.8661417322834646,
          "duration": 0.1586536874999922
        },
        {
          "name": "A#1",
          "midi": 34,
          "time": 142.15370399999986,
          "velocity": 0.8661417322834646,
          "duration": 0.593749406249998
        },
        {
          "name": "A#1",
          "midi": 34,
          "time": 142.84601099999986,
          "velocity": 0.8661417322834646,
          "duration": 0.16826906250000206
        },
        {
          "name": "C2",
          "midi": 36,
          "time": 143.07677999999987,
          "velocity": 0.8661417322834646,
          "duration": 0.2115382499999896
        },
        {
          "name": "D2",
          "midi": 38,
          "time": 143.30754899999985,
          "velocity": 0.8661417322834646,
          "duration": 0.18990365625001004
        },
        {
          "name": "C2",
          "midi": 36,
          "time": 143.53831799999986,
          "velocity": 0.8661417322834646,
          "duration": 0.21634593749999453
        },
        {
          "name": "A#1",
          "midi": 34,
          "time": 143.76908699999984,
          "velocity": 0.8661417322834646,
          "duration": 0.15384599999998727
        },
        {
          "name": "C2",
          "midi": 36,
          "time": 143.99985599999982,
          "velocity": 0.8661417322834646,
          "duration": 0.5144225624999876
        },
        {
          "name": "C2",
          "midi": 36,
          "time": 144.69216299999982,
          "velocity": 0.8661417322834646,
          "duration": 0.1586536874999922
        },
        {
          "name": "D2",
          "midi": 38,
          "time": 144.9229319999998,
          "velocity": 0.8661417322834646,
          "duration": 0.21634593749999453
        },
        {
          "name": "E2",
          "midi": 40,
          "time": 145.15370099999978,
          "velocity": 0.8661417322834646,
          "duration": 0.2115382499999896
        },
        {
          "name": "D2",
          "midi": 38,
          "time": 145.38446999999977,
          "velocity": 0.8661417322834646,
          "duration": 0.18749981249999337
        },
        {
          "name": "C2",
          "midi": 36,
          "time": 145.61523899999975,
          "velocity": 0.8661417322834646,
          "duration": 0.7572107812499951
        },
        {
          "name": "C2",
          "midi": 36,
          "time": 146.53831499999976,
          "velocity": 0.8661417322834646,
          "duration": 0.13461524999999597
        },
        {
          "name": "D2",
          "midi": 38,
          "time": 146.76908399999976,
          "velocity": 0.8661417322834646,
          "duration": 0.21634593749999453
        },
        {
          "name": "E2",
          "midi": 40,
          "time": 146.99985299999975,
          "velocity": 0.8661417322834646,
          "duration": 0.20192287500000816
        },
        {
          "name": "D2",
          "midi": 38,
          "time": 147.23062199999976,
          "velocity": 0.8661417322834646,
          "duration": 0.19471134374998655
        },
        {
          "name": "C2",
          "midi": 36,
          "time": 147.46139099999974,
          "velocity": 0.8661417322834646,
          "duration": 0.18990365625001004
        },
        {
          "name": "A#1",
          "midi": 34,
          "time": 147.69215999999975,
          "velocity": 0.8661417322834646,
          "duration": 0.5504802187500104
        },
        {
          "name": "A#1",
          "midi": 34,
          "time": 148.38446699999974,
          "velocity": 0.8661417322834646,
          "duration": 0.14182678124998915
        },
        {
          "name": "C2",
          "midi": 36,
          "time": 148.61523599999973,
          "velocity": 0.8661417322834646,
          "duration": 0.2187497812500112
        },
        {
          "name": "D2",
          "midi": 38,
          "time": 148.84600499999974,
          "velocity": 0.8661417322834646,
          "duration": 0.1923074999999983
        },
        {
          "name": "C2",
          "midi": 36,
          "time": 149.07677399999974,
          "velocity": 0.8661417322834646,
          "duration": 0.19471134374998655
        },
        {
          "name": "A#1",
          "midi": 34,
          "time": 149.30754299999973,
          "velocity": 0.8661417322834646,
          "duration": 0.7091339062500026
        },
        {
          "name": "A#1",
          "midi": 34,
          "time": 150.23061899999973,
          "velocity": 0.8661417322834646,
          "duration": 0.14182678124998915
        },
        {
          "name": "C2",
          "midi": 36,
          "time": 150.46138799999972,
          "velocity": 0.8661417322834646,
          "duration": 0.24278821875000745
        },
        {
          "name": "D2",
          "midi": 38,
          "time": 150.69215699999972,
          "velocity": 0.8661417322834646,
          "duration": 0.1923074999999983
        },
        {
          "name": "C2",
          "midi": 36,
          "time": 150.92292599999973,
          "velocity": 0.8661417322834646,
          "duration": 0.18028828125000018
        },
        {
          "name": "A#1",
          "midi": 34,
          "time": 151.15369499999974,
          "velocity": 0.8661417322834646,
          "duration": 0.14663446874999408
        },
        {
          "name": "C2",
          "midi": 36,
          "time": 151.38446399999972,
          "velocity": 0.8661417322834646,
          "duration": 0.11057681249999973
        },
        {
          "name": "G2",
          "midi": 43,
          "time": 153.2306159999997,
          "velocity": 0.8661417322834646,
          "duration": 0.09374990624999668
        },
        {
          "name": "G2",
          "midi": 43,
          "time": 153.46138499999972,
          "velocity": 0.8661417322834646,
          "duration": 0.09855759375000162
        },
        {
          "name": "F2",
          "midi": 41,
          "time": 153.69215399999973,
          "velocity": 0.8661417322834646,
          "duration": 0.08894221874999175
        },
        {
          "name": "F2",
          "midi": 41,
          "time": 153.9229229999997,
          "velocity": 0.8661417322834646,
          "duration": 0.09134606250000843
        },
        {
          "name": "D#2",
          "midi": 39,
          "time": 154.03830749999972,
          "velocity": 0.8661417322834646,
          "duration": 0.11538450000000466
        },
        {
          "name": "D#2",
          "midi": 39,
          "time": 154.26907649999973,
          "velocity": 0.8661417322834646,
          "duration": 0.06490378124999552
        },
        {
          "name": "D2",
          "midi": 38,
          "time": 154.6152299999997,
          "velocity": 0.8661417322834646,
          "duration": 0.1057691249999948
        },
        {
          "name": "G1",
          "midi": 31,
          "time": 154.8459989999997,
          "velocity": 0.8661417322834646,
          "duration": 0.18028828125000018
        },
        {
          "name": "G2",
          "midi": 43,
          "time": 155.0767679999997,
          "velocity": 0.8661417322834646,
          "duration": 0.07692299999999364
        },
        {
          "name": "G2",
          "midi": 43,
          "time": 155.30753699999968,
          "velocity": 0.8661417322834646,
          "duration": 0.08413453124998682
        },
        {
          "name": "F2",
          "midi": 41,
          "time": 155.53830599999966,
          "velocity": 0.8661417322834646,
          "duration": 0.08413453124998682
        },
        {
          "name": "E2",
          "midi": 40,
          "time": 155.76907499999965,
          "velocity": 0.8661417322834646,
          "duration": 0.019230749999991303
        },
        {
          "name": "F2",
          "midi": 41,
          "time": 155.76907499999965,
          "velocity": 0.8661417322834646,
          "duration": 0.028846125000001166
        },
        {
          "name": "D#2",
          "midi": 39,
          "time": 155.88445949999965,
          "velocity": 0.8661417322834646,
          "duration": 0.06249993750000726
        },
        {
          "name": "D#2",
          "midi": 39,
          "time": 156.11522849999966,
          "velocity": 0.8661417322834646,
          "duration": 0.19951903124999149
        },
        {
          "name": "D2",
          "midi": 38,
          "time": 156.46138199999965,
          "velocity": 0.8661417322834646,
          "duration": 0.1057691249999948
        },
        {
          "name": "C2",
          "midi": 36,
          "time": 156.69215099999963,
          "velocity": 0.8661417322834646,
          "duration": 0.42067265624999095
        },
        {
          "name": "C2",
          "midi": 36,
          "time": 157.15368899999962,
          "velocity": 0.8661417322834646,
          "duration": 0.13461524999999597
        },
        {
          "name": "G2",
          "midi": 43,
          "time": 157.38445799999963,
          "velocity": 0.8661417322834646,
          "duration": 0.17788443750001193
        },
        {
          "name": "C2",
          "midi": 36,
          "time": 157.61522699999963,
          "velocity": 0.8661417322834646,
          "duration": 0.16105753125000888
        },
        {
          "name": "D#2",
          "midi": 39,
          "time": 157.84599599999964,
          "velocity": 0.8661417322834646,
          "duration": 0.18269212499998844
        },
        {
          "name": "F2",
          "midi": 41,
          "time": 158.07676499999963,
          "velocity": 0.8661417322834646,
          "duration": 0.15384599999998727
        },
        {
          "name": "A#1",
          "midi": 34,
          "time": 158.3075339999996,
          "velocity": 0.8661417322834646,
          "duration": 0.17788443750001193
        },
        {
          "name": "C2",
          "midi": 36,
          "time": 158.53830299999962,
          "velocity": 0.8661417322834646,
          "duration": 0.3533650312500072
        },
        {
          "name": "C2",
          "midi": 36,
          "time": 158.99984099999963,
          "velocity": 0.8661417322834646,
          "duration": 0.15624984375000395
        },
        {
          "name": "G2",
          "midi": 43,
          "time": 159.23060999999964,
          "velocity": 0.8661417322834646,
          "duration": 0.1923074999999983
        },
        {
          "name": "C2",
          "midi": 36,
          "time": 159.46137899999965,
          "velocity": 0.8661417322834646,
          "duration": 0.14663446874999408
        },
        {
          "name": "D#2",
          "midi": 39,
          "time": 159.69214799999963,
          "velocity": 0.8661417322834646,
          "duration": 0.18990365625001004
        },
        {
          "name": "F2",
          "midi": 41,
          "time": 159.92291699999964,
          "velocity": 0.8661417322834646,
          "duration": 0.19711518750000323
        },
        {
          "name": "A#1",
          "midi": 34,
          "time": 160.15368599999965,
          "velocity": 0.8661417322834646,
          "duration": 0.20432671874999642
        },
        {
          "name": "C2",
          "midi": 36,
          "time": 160.38445499999966,
          "velocity": 0.8661417322834646,
          "duration": 0.3725957812499985
        },
        {
          "name": "C2",
          "midi": 36,
          "time": 160.84599299999965,
          "velocity": 0.8661417322834646,
          "duration": 0.16826906250000206
        },
        {
          "name": "G2",
          "midi": 43,
          "time": 161.07676199999966,
          "velocity": 0.8661417322834646,
          "duration": 0.1923074999999983
        },
        {
          "name": "C2",
          "midi": 36,
          "time": 161.30753099999967,
          "velocity": 0.8661417322834646,
          "duration": 0.1249998749999861
        },
        {
          "name": "D#2",
          "midi": 39,
          "time": 161.53829999999965,
          "velocity": 0.8661417322834646,
          "duration": 0.2259613125000044
        },
        {
          "name": "F2",
          "midi": 41,
          "time": 161.76906899999966,
          "velocity": 0.8661417322834646,
          "duration": 0.21394209375000628
        },
        {
          "name": "A#1",
          "midi": 34,
          "time": 161.99983799999967,
          "velocity": 0.8661417322834646,
          "duration": 0.2067305625000131
        },
        {
          "name": "C2",
          "midi": 36,
          "time": 162.23060699999968,
          "velocity": 0.8661417322834646,
          "duration": 0.3317304374999992
        },
        {
          "name": "C2",
          "midi": 36,
          "time": 162.69214499999967,
          "velocity": 0.8661417322834646,
          "duration": 0.21394209375000628
        },
        {
          "name": "A1",
          "midi": 33,
          "time": 162.92291399999968,
          "velocity": 0.8661417322834646,
          "duration": 0.173076750000007
        },
        {
          "name": "A1",
          "midi": 33,
          "time": 163.1536829999997,
          "velocity": 0.8661417322834646,
          "duration": 0.20432671874999642
        },
        {
          "name": "A#1",
          "midi": 34,
          "time": 163.3844519999997,
          "velocity": 0.8661417322834646,
          "duration": 0.15144215624999902
        },
        {
          "name": "A#1",
          "midi": 34,
          "time": 163.6152209999997,
          "velocity": 0.8661417322834646,
          "duration": 0.13701909375001264
        },
        {
          "name": "B1",
          "midi": 35,
          "time": 163.84598999999972,
          "velocity": 0.8661417322834646,
          "duration": 0.17548059374999525
        },
        {
          "name": "C2",
          "midi": 36,
          "time": 164.07675899999973,
          "velocity": 0.8661417322834646,
          "duration": 0.3437496562499973
        },
        {
          "name": "C2",
          "midi": 36,
          "time": 164.53829699999972,
          "velocity": 0.8661417322834646,
          "duration": 0.16346137499999713
        },
        {
          "name": "G2",
          "midi": 43,
          "time": 164.76906599999973,
          "velocity": 0.8661417322834646,
          "duration": 0.17788443750001193
        },
        {
          "name": "C2",
          "midi": 36,
          "time": 164.99983499999973,
          "velocity": 0.8661417322834646,
          "duration": 0.12980756249999104
        },
        {
          "name": "D#2",
          "midi": 39,
          "time": 165.23060399999972,
          "velocity": 0.8661417322834646,
          "duration": 0.20913440625000135
        },
        {
          "name": "F2",
          "midi": 41,
          "time": 165.46137299999972,
          "velocity": 0.8661417322834646,
          "duration": 0.18028828125000018
        },
        {
          "name": "A#1",
          "midi": 34,
          "time": 165.69214199999973,
          "velocity": 0.8661417322834646,
          "duration": 0.20432671874999642
        },
        {
          "name": "C2",
          "midi": 36,
          "time": 165.92291099999974,
          "velocity": 0.8661417322834646,
          "duration": 0.33653812500000413
        },
        {
          "name": "C2",
          "midi": 36,
          "time": 166.38444899999973,
          "velocity": 0.8661417322834646,
          "duration": 0.17067290624999032
        },
        {
          "name": "G2",
          "midi": 43,
          "time": 166.61521799999971,
          "velocity": 0.8661417322834646,
          "duration": 0.18269212499998844
        },
        {
          "name": "C2",
          "midi": 36,
          "time": 166.8459869999997,
          "velocity": 0.8661417322834646,
          "duration": 0.14903831250001076
        },
        {
          "name": "D#2",
          "midi": 39,
          "time": 167.0767559999997,
          "velocity": 0.8661417322834646,
          "duration": 0.24278821875000745
        },
        {
          "name": "F2",
          "midi": 41,
          "time": 167.3075249999997,
          "velocity": 0.8661417322834646,
          "duration": 0.19711518750000323
        },
        {
          "name": "A#1",
          "midi": 34,
          "time": 167.53829399999972,
          "velocity": 0.8661417322834646,
          "duration": 0.18749981249999337
        },
        {
          "name": "C2",
          "midi": 36,
          "time": 167.7690629999997,
          "velocity": 0.8661417322834646,
          "duration": 0.34134581250000906
        },
        {
          "name": "C2",
          "midi": 36,
          "time": 168.23060099999972,
          "velocity": 0.8661417322834646,
          "duration": 0.18749981249999337
        },
        {
          "name": "G2",
          "midi": 43,
          "time": 168.4613699999997,
          "velocity": 0.8661417322834646,
          "duration": 0.18028828125000018
        },
        {
          "name": "C2",
          "midi": 36,
          "time": 168.6921389999997,
          "velocity": 0.8661417322834646,
          "duration": 0.15384599999998727
        },
        {
          "name": "D#2",
          "midi": 39,
          "time": 168.9229079999997,
          "velocity": 0.8661417322834646,
          "duration": 0.22115362499999947
        },
        {
          "name": "F2",
          "midi": 41,
          "time": 169.1536769999997,
          "velocity": 0.8661417322834646,
          "duration": 0.21394209375000628
        },
        {
          "name": "A#1",
          "midi": 34,
          "time": 169.3844459999997,
          "velocity": 0.8661417322834646,
          "duration": 0.2067305625000131
        },
        {
          "name": "C2",
          "midi": 36,
          "time": 169.61521499999972,
          "velocity": 0.8661417322834646,
          "duration": 0.36778809374999355
        },
        {
          "name": "C2",
          "midi": 36,
          "time": 170.0767529999997,
          "velocity": 0.8661417322834646,
          "duration": 0.19471134374998655
        },
        {
          "name": "A1",
          "midi": 33,
          "time": 170.3075219999997,
          "velocity": 0.8661417322834646,
          "duration": 0.17788443750001193
        },
        {
          "name": "A1",
          "midi": 33,
          "time": 170.5382909999997,
          "velocity": 0.8661417322834646,
          "duration": 0.16105753125000888
        },
        {
          "name": "A#1",
          "midi": 34,
          "time": 170.7690599999997,
          "velocity": 0.8661417322834646,
          "duration": 0.1394229375000009
        },
        {
          "name": "A#1",
          "midi": 34,
          "time": 170.99982899999972,
          "velocity": 0.8661417322834646,
          "duration": 0.13701909375001264
        },
        {
          "name": "B1",
          "midi": 35,
          "time": 171.23059799999973,
          "velocity": 0.8661417322834646,
          "duration": 0.16346137499999713
        },
        {
          "name": "C2",
          "midi": 36,
          "time": 171.46136699999974,
          "velocity": 0.8661417322834646,
          "duration": 0.3701919375000102
        },
        {
          "name": "C2",
          "midi": 36,
          "time": 171.92290499999976,
          "velocity": 0.8661417322834646,
          "duration": 0.16346137499999713
        },
        {
          "name": "G2",
          "midi": 43,
          "time": 172.15367399999977,
          "velocity": 0.8661417322834646,
          "duration": 0.18990365625001004
        },
        {
          "name": "C2",
          "midi": 36,
          "time": 172.38444299999978,
          "velocity": 0.8661417322834646,
          "duration": 0.17548059374999525
        },
        {
          "name": "D#2",
          "midi": 39,
          "time": 172.6152119999998,
          "velocity": 0.8661417322834646,
          "duration": 0.17788443750001193
        },
        {
          "name": "F2",
          "midi": 41,
          "time": 172.8459809999998,
          "velocity": 0.8661417322834646,
          "duration": 0.18269212499998844
        },
        {
          "name": "A#1",
          "midi": 34,
          "time": 173.07674999999978,
          "velocity": 0.8661417322834646,
          "duration": 0.18028828125000018
        },
        {
          "name": "C2",
          "midi": 36,
          "time": 173.3075189999998,
          "velocity": 0.8661417322834646,
          "duration": 0.3509611874999905
        },
        {
          "name": "C2",
          "midi": 36,
          "time": 173.76905699999978,
          "velocity": 0.8661417322834646,
          "duration": 0.18269212499998844
        },
        {
          "name": "G2",
          "midi": 43,
          "time": 173.99982599999976,
          "velocity": 0.8661417322834646,
          "duration": 0.1923074999999983
        },
        {
          "name": "C2",
          "midi": 36,
          "time": 174.23059499999977,
          "velocity": 0.8661417322834646,
          "duration": 0.17067290624999032
        },
        {
          "name": "D#2",
          "midi": 39,
          "time": 174.46136399999975,
          "velocity": 0.8661417322834646,
          "duration": 0.20432671874999642
        },
        {
          "name": "F2",
          "midi": 41,
          "time": 174.69213299999976,
          "velocity": 0.8661417322834646,
          "duration": 0.22355746874998772
        },
        {
          "name": "A#1",
          "midi": 34,
          "time": 174.92290199999974,
          "velocity": 0.8661417322834646,
          "duration": 0.20432671874999642
        },
        {
          "name": "C2",
          "midi": 36,
          "time": 175.15367099999975,
          "velocity": 0.8661417322834646,
          "duration": 0.3966342187499947
        },
        {
          "name": "C2",
          "midi": 36,
          "time": 175.61520899999974,
          "velocity": 0.8661417322834646,
          "duration": 0.18028828125000018
        },
        {
          "name": "G2",
          "midi": 43,
          "time": 175.84597799999975,
          "velocity": 0.8661417322834646,
          "duration": 0.19951903124999149
        },
        {
          "name": "C2",
          "midi": 36,
          "time": 176.07674699999973,
          "velocity": 0.8661417322834646,
          "duration": 0.2115382499999896
        },
        {
          "name": "D#2",
          "midi": 39,
          "time": 176.3075159999997,
          "velocity": 0.8661417322834646,
          "duration": 0.20913440625000135
        },
        {
          "name": "F2",
          "midi": 41,
          "time": 176.53828499999972,
          "velocity": 0.8661417322834646,
          "duration": 0.24999975000000063
        },
        {
          "name": "A#1",
          "midi": 34,
          "time": 176.76905399999973,
          "velocity": 0.8661417322834646,
          "duration": 0.2187497812499828
        },
        {
          "name": "C2",
          "midi": 36,
          "time": 176.9998229999997,
          "velocity": 0.8661417322834646,
          "duration": 0.3437496562499973
        },
        {
          "name": "C2",
          "midi": 36,
          "time": 177.4613609999997,
          "velocity": 0.8661417322834646,
          "duration": 0.2187497812500112
        },
        {
          "name": "A1",
          "midi": 33,
          "time": 177.6921299999997,
          "velocity": 0.8661417322834646,
          "duration": 0.17548059374999525
        },
        {
          "name": "A1",
          "midi": 33,
          "time": 177.92289899999972,
          "velocity": 0.8661417322834646,
          "duration": 0.20192287500000816
        },
        {
          "name": "A#1",
          "midi": 34,
          "time": 178.15366799999973,
          "velocity": 0.8661417322834646,
          "duration": 0.1394229375000009
        },
        {
          "name": "A#1",
          "midi": 34,
          "time": 178.38443699999974,
          "velocity": 0.8661417322834646,
          "duration": 0.13461524999999597
        },
        {
          "name": "B1",
          "midi": 35,
          "time": 178.61520599999974,
          "velocity": 0.8661417322834646,
          "duration": 0.15144215624999902
        },
        {
          "name": "C2",
          "midi": 36,
          "time": 178.84597499999975,
          "velocity": 0.8661417322834646,
          "duration": 0.3581727187500121
        },
        {
          "name": "C2",
          "midi": 36,
          "time": 179.30751299999977,
          "velocity": 0.8661417322834646,
          "duration": 0.2067305625000131
        },
        {
          "name": "G2",
          "midi": 43,
          "time": 179.53828199999978,
          "velocity": 0.8661417322834646,
          "duration": 0.1923074999999983
        },
        {
          "name": "C2",
          "midi": 36,
          "time": 179.7690509999998,
          "velocity": 0.8661417322834646,
          "duration": 0.14903831250001076
        },
        {
          "name": "D#2",
          "midi": 39,
          "time": 179.9998199999998,
          "velocity": 0.8661417322834646,
          "duration": 0.24999975000000063
        },
        {
          "name": "F2",
          "midi": 41,
          "time": 180.2305889999998,
          "velocity": 0.8661417322834646,
          "duration": 0.19471134374998655
        },
        {
          "name": "A#1",
          "midi": 34,
          "time": 180.4613579999998,
          "velocity": 0.8661417322834646,
          "duration": 0.20432671874999642
        },
        {
          "name": "C2",
          "midi": 36,
          "time": 180.6921269999998,
          "velocity": 0.8661417322834646,
          "duration": 0.3317304374999992
        },
        {
          "name": "C2",
          "midi": 36,
          "time": 181.1536649999998,
          "velocity": 0.8661417322834646,
          "duration": 0.1201921875000096
        },
        {
          "name": "G2",
          "midi": 43,
          "time": 181.3844339999998,
          "velocity": 0.8661417322834646,
          "duration": 0.18269212499998844
        },
        {
          "name": "C2",
          "midi": 36,
          "time": 181.61520299999978,
          "velocity": 0.8661417322834646,
          "duration": 0.12740371875000278
        },
        {
          "name": "D#2",
          "midi": 39,
          "time": 181.8459719999998,
          "velocity": 0.8661417322834646,
          "duration": 0.22355746874998772
        },
        {
          "name": "F2",
          "midi": 41,
          "time": 182.07674099999977,
          "velocity": 0.8661417322834646,
          "duration": 0.20913440625000135
        },
        {
          "name": "A#1",
          "midi": 34,
          "time": 182.30750999999978,
          "velocity": 0.8661417322834646,
          "duration": 0.1923074999999983
        },
        {
          "name": "C2",
          "midi": 36,
          "time": 182.5382789999998,
          "velocity": 0.8661417322834646,
          "duration": 0.3533650312500072
        },
        {
          "name": "C2",
          "midi": 36,
          "time": 182.9998169999998,
          "velocity": 0.8661417322834646,
          "duration": 0.1249998749999861
        },
        {
          "name": "G2",
          "midi": 43,
          "time": 183.2305859999998,
          "velocity": 0.8661417322834646,
          "duration": 0.17548059374999525
        },
        {
          "name": "C2",
          "midi": 36,
          "time": 183.4613549999998,
          "velocity": 0.8661417322834646,
          "duration": 0.14182678124998915
        },
        {
          "name": "D#2",
          "midi": 39,
          "time": 183.69212399999978,
          "velocity": 0.8661417322834646,
          "duration": 0.25480743750000556
        },
        {
          "name": "F2",
          "midi": 41,
          "time": 183.9228929999998,
          "velocity": 0.8661417322834646,
          "duration": 0.18028828125000018
        },
        {
          "name": "A#1",
          "midi": 34,
          "time": 184.1536619999998,
          "velocity": 0.8661417322834646,
          "duration": 0.23557668750001426
        },
        {
          "name": "C2",
          "midi": 36,
          "time": 184.3844309999998,
          "velocity": 0.8661417322834646,
          "duration": 0.3653842500000053
        },
        {
          "name": "C2",
          "midi": 36,
          "time": 184.84596899999983,
          "velocity": 0.8661417322834646,
          "duration": 0.19711518750000323
        },
        {
          "name": "A1",
          "midi": 33,
          "time": 185.07673799999984,
          "velocity": 0.8661417322834646,
          "duration": 0.3269227500000227
        },
        {
          "name": "A2",
          "midi": 45,
          "time": 185.30750699999984,
          "velocity": 0.8661417322834646,
          "duration": 0.18990365625001004
        },
        {
          "name": "A#1",
          "midi": 34,
          "time": 185.53827599999985,
          "velocity": 0.8661417322834646,
          "duration": 0.2932689375000166
        },
        {
          "name": "A#2",
          "midi": 46,
          "time": 185.76904499999986,
          "velocity": 0.8661417322834646,
          "duration": 0.1995190312500199
        },
        {
          "name": "C2",
          "midi": 36,
          "time": 185.99981399999987,
          "velocity": 0.8661417322834646,
          "duration": 0.20192287500000816
        },
        {
          "name": "F2",
          "midi": 41,
          "time": 186.23058299999988,
          "velocity": 0.8661417322834646,
          "duration": 0.6298070624999923
        },
        {
          "name": "E2",
          "midi": 40,
          "time": 186.92288999999988,
          "velocity": 0.8661417322834646,
          "duration": 0.30288431249999803
        },
        {
          "name": "D2",
          "midi": 38,
          "time": 187.38442799999987,
          "velocity": 0.8661417322834646,
          "duration": 0.4182688125000027
        },
        {
          "name": "C2",
          "midi": 36,
          "time": 187.84596599999986,
          "velocity": 0.8661417322834646,
          "duration": 0.1394229375000009
        },
        {
          "name": "A#1",
          "midi": 34,
          "time": 188.07673499999987,
          "velocity": 0.8661417322834646,
          "duration": 0.38221115625000834
        },
        {
          "name": "A#1",
          "midi": 34,
          "time": 188.5382729999999,
          "velocity": 0.8661417322834646,
          "duration": 0.11538450000000466
        },
        {
          "name": "A1",
          "midi": 33,
          "time": 188.7690419999999,
          "velocity": 0.8661417322834646,
          "duration": 0.39423037500000646
        },
        {
          "name": "G1",
          "midi": 31,
          "time": 189.23057999999992,
          "velocity": 0.8661417322834646,
          "duration": 0.18028828125000018
        },
        {
          "name": "A#1",
          "midi": 34,
          "time": 189.46134899999993,
          "velocity": 0.8661417322834646,
          "duration": 0.11538450000000466
        },
        {
          "name": "D2",
          "midi": 38,
          "time": 189.69211799999994,
          "velocity": 0.8661417322834646,
          "duration": 0.09615375000001336
        },
        {
          "name": "C2",
          "midi": 36,
          "time": 189.92288699999995,
          "velocity": 0.8661417322834646,
          "duration": 0.35576887499999543
        },
        {
          "name": "C2",
          "midi": 36,
          "time": 190.38442499999994,
          "velocity": 0.8661417322834646,
          "duration": 0.14423062500000583
        },
        {
          "name": "E1",
          "midi": 28,
          "time": 190.61519399999995,
          "velocity": 0.8661417322834646,
          "duration": 0.40144190624999965
        },
        {
          "name": "E1",
          "midi": 28,
          "time": 191.07673199999994,
          "velocity": 0.8661417322834646,
          "duration": 0.14182678124998915
        },
        {
          "name": "F1",
          "midi": 29,
          "time": 191.07673199999994,
          "velocity": 0.8661417322834646,
          "duration": 0.39423037499997804
        },
        {
          "name": "F#1",
          "midi": 30,
          "time": 191.53826999999993,
          "velocity": 0.8661417322834646,
          "duration": 0.12740371875000278
        },
        {
          "name": "G1",
          "midi": 31,
          "time": 191.76903899999994,
          "velocity": 0.8661417322834646,
          "duration": 0.3581727187500121
        },
        {
          "name": "G1",
          "midi": 31,
          "time": 192.23057699999995,
          "velocity": 0.8661417322834646,
          "duration": 0.16105753125000888
        },
        {
          "name": "A1",
          "midi": 33,
          "time": 192.46134599999996,
          "velocity": 0.8661417322834646,
          "duration": 0.21634593749999453
        },
        {
          "name": "G1",
          "midi": 31,
          "time": 192.69211499999994,
          "velocity": 0.8661417322834646,
          "duration": 0.09615375000001336
        },
        {
          "name": "A#1",
          "midi": 34,
          "time": 192.92288399999995,
          "velocity": 0.8661417322834646,
          "duration": 0.3846149999999966
        },
        {
          "name": "C2",
          "midi": 36,
          "time": 193.38442199999994,
          "velocity": 0.8661417322834646,
          "duration": 0.0865383750000035
        },
        {
          "name": "F2",
          "midi": 41,
          "time": 193.61519099999995,
          "velocity": 0.8661417322834646,
          "duration": 0.38942268750000153
        },
        {
          "name": "F2",
          "midi": 41,
          "time": 194.07672899999994,
          "velocity": 0.8661417322834646,
          "duration": 0.1249998749999861
        },
        {
          "name": "E2",
          "midi": 40,
          "time": 194.30749799999992,
          "velocity": 0.8661417322834646,
          "duration": 0.37499962499998674
        },
        {
          "name": "D2",
          "midi": 38,
          "time": 194.76903599999991,
          "velocity": 0.8661417322834646,
          "duration": 0.3870188437500133
        },
        {
          "name": "C2",
          "midi": 36,
          "time": 195.23057399999993,
          "velocity": 0.8661417322834646,
          "duration": 0.12259603124999785
        },
        {
          "name": "A#1",
          "midi": 34,
          "time": 195.46134299999994,
          "velocity": 0.8661417322834646,
          "duration": 0.38942268750000153
        },
        {
          "name": "A#1",
          "midi": 34,
          "time": 195.92288099999993,
          "velocity": 0.8661417322834646,
          "duration": 0.07932684375001031
        },
        {
          "name": "A1",
          "midi": 33,
          "time": 196.15364999999994,
          "velocity": 0.8661417322834646,
          "duration": 0.38942268750000153
        },
        {
          "name": "G1",
          "midi": 31,
          "time": 196.61518799999993,
          "velocity": 0.8661417322834646,
          "duration": 0.2259613125000044
        },
        {
          "name": "D2",
          "midi": 38,
          "time": 196.84595699999994,
          "velocity": 0.8661417322834646,
          "duration": 0.15144215624999902
        },
        {
          "name": "D2",
          "midi": 38,
          "time": 197.07672599999995,
          "velocity": 0.8661417322834646,
          "duration": 0.10336528125000655
        },
        {
          "name": "C2",
          "midi": 36,
          "time": 197.30749499999996,
          "velocity": 0.8661417322834646,
          "duration": 0.37499962499998674
        },
        {
          "name": "C2",
          "midi": 36,
          "time": 197.76903299999995,
          "velocity": 0.8661417322834646,
          "duration": 0.07451915625000538
        },
        {
          "name": "C2",
          "midi": 36,
          "time": 197.99980199999996,
          "velocity": 0.8661417322834646,
          "duration": 0.3173073750000128
        },
        {
          "name": "C2",
          "midi": 36,
          "time": 198.46133999999998,
          "velocity": 0.8661417322834646,
          "duration": 0.3533650312500072
        },
        {
          "name": "C2",
          "midi": 36,
          "time": 198.922878,
          "velocity": 0.8661417322834646,
          "duration": 0.06249993750000726
        },
        {
          "name": "C2",
          "midi": 36,
          "time": 199.153647,
          "velocity": 0.8661417322834646,
          "duration": 0.35576887499999543
        },
        {
          "name": "C2",
          "midi": 36,
          "time": 199.615185,
          "velocity": 0.8661417322834646,
          "duration": 0.08413453124998682
        },
        {
          "name": "C2",
          "midi": 36,
          "time": 199.84595399999998,
          "velocity": 0.8661417322834646,
          "duration": 0.23317284374999758
        },
        {
          "name": "G1",
          "midi": 31,
          "time": 200.076723,
          "velocity": 0.8661417322834646,
          "duration": 0.1249998749999861
        },
        {
          "name": "A1",
          "midi": 33,
          "time": 200.30749199999997,
          "velocity": 0.8661417322834646,
          "duration": 0.18028828125000018
        },
        {
          "name": "C2",
          "midi": 36,
          "time": 200.53826099999998,
          "velocity": 0.8661417322834646,
          "duration": 0.2115382499999896
        },
        {
          "name": "A1",
          "midi": 33,
          "time": 200.76902999999996,
          "velocity": 0.8661417322834646,
          "duration": 0.18028828125000018
        },
        {
          "name": "F2",
          "midi": 41,
          "time": 200.99979899999997,
          "velocity": 0.8661417322834646,
          "duration": 0.5985570937500029
        },
        {
          "name": "E2",
          "midi": 40,
          "time": 201.69210599999997,
          "velocity": 0.8661417322834646,
          "duration": 0.3870188437500133
        },
        {
          "name": "D2",
          "midi": 38,
          "time": 202.15364399999999,
          "velocity": 0.8661417322834646,
          "duration": 0.4254803437499959
        },
        {
          "name": "C2",
          "midi": 36,
          "time": 202.61518199999998,
          "velocity": 0.8661417322834646,
          "duration": 0.06971146875000045
        },
        {
          "name": "A#1",
          "midi": 34,
          "time": 202.84595099999999,
          "velocity": 0.8661417322834646,
          "duration": 0.35576887499999543
        },
        {
          "name": "A#1",
          "midi": 34,
          "time": 203.30748899999998,
          "velocity": 0.8661417322834646,
          "duration": 0.09615375000001336
        },
        {
          "name": "A1",
          "midi": 33,
          "time": 203.53825799999998,
          "velocity": 0.8661417322834646,
          "duration": 0.38221115625000834
        },
        {
          "name": "G1",
          "midi": 31,
          "time": 203.999796,
          "velocity": 0.8661417322834646,
          "duration": 0.17548059374999525
        },
        {
          "name": "A#1",
          "midi": 34,
          "time": 204.230565,
          "velocity": 0.8661417322834646,
          "duration": 0.1322114062500077
        },
        {
          "name": "D2",
          "midi": 38,
          "time": 204.46133400000002,
          "velocity": 0.8661417322834646,
          "duration": 0.09134606250000843
        },
        {
          "name": "C2",
          "midi": 36,
          "time": 204.69210300000003,
          "velocity": 0.8661417322834646,
          "duration": 0.36057656250000036
        },
        {
          "name": "C2",
          "midi": 36,
          "time": 205.15364100000002,
          "velocity": 0.8661417322834646,
          "duration": 0.09374990624999668
        },
        {
          "name": "E1",
          "midi": 28,
          "time": 205.38441000000003,
          "velocity": 0.8661417322834646,
          "duration": 0.3653842500000053
        },
        {
          "name": "F1",
          "midi": 29,
          "time": 205.84594800000005,
          "velocity": 0.8661417322834646,
          "duration": 0.37499962499998674
        },
        {
          "name": "F#1",
          "midi": 30,
          "time": 206.30748600000004,
          "velocity": 0.8661417322834646,
          "duration": 0.1057691249999948
        },
        {
          "name": "G1",
          "midi": 31,
          "time": 206.53825500000002,
          "velocity": 0.8661417322834646,
          "duration": 0.35576887499999543
        },
        {
          "name": "G1",
          "midi": 31,
          "time": 206.999793,
          "velocity": 0.8661417322834646,
          "duration": 0.14663446874999408
        },
        {
          "name": "A1",
          "midi": 33,
          "time": 207.230562,
          "velocity": 0.8661417322834646,
          "duration": 0.19951903124999149
        },
        {
          "name": "G1",
          "midi": 31,
          "time": 207.46133099999997,
          "velocity": 0.8661417322834646,
          "duration": 0.08413453124998682
        },
        {
          "name": "A#1",
          "midi": 34,
          "time": 207.69209999999995,
          "velocity": 0.8661417322834646,
          "duration": 0.3509611875000189
        },
        {
          "name": "G1",
          "midi": 31,
          "time": 207.92286899999996,
          "velocity": 0.8661417322834646,
          "duration": 0.045673031250004215
        },
        {
          "name": "C2",
          "midi": 36,
          "time": 208.15363799999997,
          "velocity": 0.8661417322834646,
          "duration": 0.11057681249999973
        },
        {
          "name": "F2",
          "midi": 41,
          "time": 208.38440699999998,
          "velocity": 0.8661417322834646,
          "duration": 0.6874993124999946
        },
        {
          "name": "E2",
          "midi": 40,
          "time": 209.07671399999998,
          "velocity": 0.8661417322834646,
          "duration": 0.3389419687499924
        },
        {
          "name": "D2",
          "midi": 38,
          "time": 209.53825199999997,
          "velocity": 0.8661417322834646,
          "duration": 0.3725957812499985
        },
        {
          "name": "C2",
          "midi": 36,
          "time": 209.99978999999996,
          "velocity": 0.8661417322834646,
          "duration": 0.09374990624999668
        },
        {
          "name": "A#1",
          "midi": 34,
          "time": 210.23055899999997,
          "velocity": 0.8661417322834646,
          "duration": 0.346153500000014
        },
        {
          "name": "A#1",
          "midi": 34,
          "time": 210.692097,
          "velocity": 0.8661417322834646,
          "duration": 0.10096143749998987
        },
        {
          "name": "A1",
          "midi": 33,
          "time": 210.92286599999997,
          "velocity": 0.8661417322834646,
          "duration": 0.36057656250000036
        },
        {
          "name": "G1",
          "midi": 31,
          "time": 211.38440399999996,
          "velocity": 0.8661417322834646,
          "duration": 0.17788443750001193
        },
        {
          "name": "A#1",
          "midi": 34,
          "time": 211.61517299999997,
          "velocity": 0.8661417322834646,
          "duration": 0.12259603124999785
        },
        {
          "name": "D2",
          "midi": 38,
          "time": 211.84594199999998,
          "velocity": 0.8661417322834646,
          "duration": 0.08894221874999175
        },
        {
          "name": "C2",
          "midi": 36,
          "time": 212.07671099999996,
          "velocity": 0.8661417322834646,
          "duration": 0.3701919375000102
        },
        {
          "name": "C2",
          "midi": 36,
          "time": 212.53824899999998,
          "velocity": 0.8661417322834646,
          "duration": 0.06490378124999552
        },
        {
          "name": "C2",
          "midi": 36,
          "time": 212.769018,
          "velocity": 0.8661417322834646,
          "duration": 0.286057406249995
        },
        {
          "name": "C2",
          "midi": 36,
          "time": 213.23055599999998,
          "velocity": 0.8661417322834646,
          "duration": 0.38221115625000834
        },
        {
          "name": "C2",
          "midi": 36,
          "time": 213.692094,
          "velocity": 0.8661417322834646,
          "duration": 0.0528845624999974
        },
        {
          "name": "C2",
          "midi": 36,
          "time": 213.922863,
          "velocity": 0.8661417322834646,
          "duration": 0.32211506249998934
        },
        {
          "name": "C2",
          "midi": 36,
          "time": 214.384401,
          "velocity": 0.8661417322834646,
          "duration": 0.045673031250004215
        },
        {
          "name": "C2",
          "midi": 36,
          "time": 214.61517,
          "velocity": 0.8661417322834646,
          "duration": 0.32932659375001094
        },
        {
          "name": "A#1",
          "midi": 34,
          "time": 215.07670800000002,
          "velocity": 0.8661417322834646,
          "duration": 0.23317284374999758
        },
        {
          "name": "A1",
          "midi": 33,
          "time": 215.30747700000003,
          "velocity": 0.8661417322834646,
          "duration": 0.24038437499999077
        },
        {
          "name": "C2",
          "midi": 36,
          "time": 215.76901500000002,
          "velocity": 0.8661417322834646,
          "duration": 0.6538454999999885
        },
        {
          "name": "G2",
          "midi": 43,
          "time": 216.46132200000002,
          "velocity": 0.8661417322834646,
          "duration": 0.18269212499998844
        },
        {
          "name": "C2",
          "midi": 36,
          "time": 216.692091,
          "velocity": 0.8661417322834646,
          "duration": 0.06009609374999059
        },
        {
          "name": "D#2",
          "midi": 39,
          "time": 216.92286,
          "velocity": 0.8661417322834646,
          "duration": 0.20913440625000135
        },
        {
          "name": "F2",
          "midi": 41,
          "time": 217.153629,
          "velocity": 0.8661417322834646,
          "duration": 0.1923074999999983
        },
        {
          "name": "A#1",
          "midi": 34,
          "time": 217.384398,
          "velocity": 0.8661417322834646,
          "duration": 0.18269212499998844
        },
        {
          "name": "C2",
          "midi": 36,
          "time": 217.61516699999999,
          "velocity": 0.8661417322834646,
          "duration": 0.34855734375000225
        },
        {
          "name": "C2",
          "midi": 36,
          "time": 218.07670499999998,
          "velocity": 0.8661417322834646,
          "duration": 0.09134606250000843
        },
        {
          "name": "G2",
          "midi": 43,
          "time": 218.30747399999998,
          "velocity": 0.8661417322834646,
          "duration": 0.20192287500000816
        },
        {
          "name": "C2",
          "midi": 36,
          "time": 218.538243,
          "velocity": 0.8661417322834646,
          "duration": 0.10336528125000655
        },
        {
          "name": "D#2",
          "midi": 39,
          "time": 218.769012,
          "velocity": 0.8661417322834646,
          "duration": 0.21634593749999453
        },
        {
          "name": "F2",
          "midi": 41,
          "time": 218.99978099999998,
          "velocity": 0.8661417322834646,
          "duration": 0.18990365625001004
        },
        {
          "name": "A#1",
          "midi": 34,
          "time": 219.23055,
          "velocity": 0.8661417322834646,
          "duration": 0.18990365625001004
        },
        {
          "name": "C2",
          "midi": 36,
          "time": 219.461319,
          "velocity": 0.8661417322834646,
          "duration": 0.3509611874999905
        },
        {
          "name": "C2",
          "midi": 36,
          "time": 219.922857,
          "velocity": 0.8661417322834646,
          "duration": 0.10817296875001148
        },
        {
          "name": "G2",
          "midi": 43,
          "time": 220.153626,
          "velocity": 0.8661417322834646,
          "duration": 0.173076750000007
        },
        {
          "name": "C2",
          "midi": 36,
          "time": 220.384395,
          "velocity": 0.8661417322834646,
          "duration": 0.1057691249999948
        },
        {
          "name": "D#2",
          "midi": 39,
          "time": 220.615164,
          "velocity": 0.8661417322834646,
          "duration": 0.2115382499999896
        },
        {
          "name": "F2",
          "midi": 41,
          "time": 220.84593299999997,
          "velocity": 0.8661417322834646,
          "duration": 0.17067290624999032
        },
        {
          "name": "A#1",
          "midi": 34,
          "time": 221.07670199999995,
          "velocity": 0.8661417322834646,
          "duration": 0.14903831250001076
        },
        {
          "name": "C2",
          "midi": 36,
          "time": 221.30747099999996,
          "velocity": 0.8661417322834646,
          "duration": 0.346153500000014
        },
        {
          "name": "C2",
          "midi": 36,
          "time": 221.76900899999998,
          "velocity": 0.8661417322834646,
          "duration": 0.17548059374999525
        },
        {
          "name": "A1",
          "midi": 33,
          "time": 221.999778,
          "velocity": 0.8661417322834646,
          "duration": 0.14663446874999408
        },
        {
          "name": "A1",
          "midi": 33,
          "time": 222.23054699999997,
          "velocity": 0.8661417322834646,
          "duration": 0.16826906250000206
        },
        {
          "name": "A#1",
          "midi": 34,
          "time": 222.46131599999998,
          "velocity": 0.8661417322834646,
          "duration": 0.12740371875000278
        },
        {
          "name": "A#1",
          "midi": 34,
          "time": 222.692085,
          "velocity": 0.8661417322834646,
          "duration": 0.12259603124999785
        },
        {
          "name": "B1",
          "midi": 35,
          "time": 222.922854,
          "velocity": 0.8661417322834646,
          "duration": 0.1394229375000009
        },
        {
          "name": "C2",
          "midi": 36,
          "time": 223.153623,
          "velocity": 0.8661417322834646,
          "duration": 0.3581727187500121
        },
        {
          "name": "C2",
          "midi": 36,
          "time": 223.61516100000003,
          "velocity": 0.8661417322834646,
          "duration": 0.1322114062500077
        },
        {
          "name": "G2",
          "midi": 43,
          "time": 223.84593000000004,
          "velocity": 0.8661417322834646,
          "duration": 0.17788443750001193
        },
        {
          "name": "C2",
          "midi": 36,
          "time": 224.07669900000005,
          "velocity": 0.8661417322834646,
          "duration": 0.12259603124999785
        },
        {
          "name": "D#2",
          "midi": 39,
          "time": 224.30746800000006,
          "velocity": 0.8661417322834646,
          "duration": 0.21634593749999453
        },
        {
          "name": "F2",
          "midi": 41,
          "time": 224.53823700000004,
          "velocity": 0.8661417322834646,
          "duration": 0.17548059374999525
        },
        {
          "name": "A#1",
          "midi": 34,
          "time": 224.76900600000005,
          "velocity": 0.8661417322834646,
          "duration": 0.16346137499999713
        },
        {
          "name": "C2",
          "midi": 36,
          "time": 224.99977500000006,
          "velocity": 0.8661417322834646,
          "duration": 0.3317304374999992
        },
        {
          "name": "C2",
          "midi": 36,
          "time": 225.46131300000005,
          "velocity": 0.8661417322834646,
          "duration": 0.16105753125000888
        },
        {
          "name": "G2",
          "midi": 43,
          "time": 225.69208200000006,
          "velocity": 0.8661417322834646,
          "duration": 0.16826906250000206
        },
        {
          "name": "C2",
          "midi": 36,
          "time": 225.92285100000007,
          "velocity": 0.8661417322834646,
          "duration": 0.1249998749999861
        },
        {
          "name": "D#2",
          "midi": 39,
          "time": 226.15362000000005,
          "velocity": 0.8661417322834646,
          "duration": 0.22115362499999947
        },
        {
          "name": "F2",
          "midi": 41,
          "time": 226.38438900000006,
          "velocity": 0.8661417322834646,
          "duration": 0.16826906250000206
        },
        {
          "name": "A#1",
          "midi": 34,
          "time": 226.61515800000006,
          "velocity": 0.8661417322834646,
          "duration": 0.19471134374998655
        },
        {
          "name": "C2",
          "midi": 36,
          "time": 226.84592700000005,
          "velocity": 0.8661417322834646,
          "duration": 0.3533650312500072
        },
        {
          "name": "C2",
          "midi": 36,
          "time": 227.30746500000006,
          "velocity": 0.8661417322834646,
          "duration": 0.12740371875000278
        },
        {
          "name": "G2",
          "midi": 43,
          "time": 227.53823400000007,
          "velocity": 0.8661417322834646,
          "duration": 0.173076750000007
        },
        {
          "name": "C2",
          "midi": 36,
          "time": 227.76900300000008,
          "velocity": 0.8661417322834646,
          "duration": 0.14903831250001076
        },
        {
          "name": "D#2",
          "midi": 39,
          "time": 227.9997720000001,
          "velocity": 0.8661417322834646,
          "duration": 0.23557668750001426
        },
        {
          "name": "F2",
          "midi": 41,
          "time": 228.2305410000001,
          "velocity": 0.8661417322834646,
          "duration": 0.2067305625000131
        },
        {
          "name": "A#1",
          "midi": 34,
          "time": 228.4613100000001,
          "velocity": 0.8661417322834646,
          "duration": 0.1923074999999983
        },
        {
          "name": "C2",
          "midi": 36,
          "time": 228.69207900000012,
          "velocity": 0.8661417322834646,
          "duration": 0.34855734375000225
        },
        {
          "name": "C2",
          "midi": 36,
          "time": 229.1536170000001,
          "velocity": 0.8661417322834646,
          "duration": 0.1850959687500051
        },
        {
          "name": "A1",
          "midi": 33,
          "time": 229.38438600000012,
          "velocity": 0.8661417322834646,
          "duration": 0.16346137499999713
        },
        {
          "name": "A1",
          "midi": 33,
          "time": 229.61515500000013,
          "velocity": 0.8661417322834646,
          "duration": 0.19471134374998655
        },
        {
          "name": "A#1",
          "midi": 34,
          "time": 229.8459240000001,
          "velocity": 0.8661417322834646,
          "duration": 0.12980756249999104
        },
        {
          "name": "A#1",
          "midi": 34,
          "time": 230.0766930000001,
          "velocity": 0.8661417322834646,
          "duration": 0.13461524999999597
        },
        {
          "name": "B1",
          "midi": 35,
          "time": 230.3074620000001,
          "velocity": 0.8661417322834646,
          "duration": 0.13701909375001264
        },
        {
          "name": "C2",
          "midi": 36,
          "time": 230.5382310000001,
          "velocity": 0.8661417322834646,
          "duration": 0.3437496562499973
        },
        {
          "name": "C2",
          "midi": 36,
          "time": 230.9997690000001,
          "velocity": 0.8661417322834646,
          "duration": 0.13461524999999597
        },
        {
          "name": "G2",
          "midi": 43,
          "time": 231.2305380000001,
          "velocity": 0.8661417322834646,
          "duration": 0.17067290624999032
        },
        {
          "name": "C2",
          "midi": 36,
          "time": 231.4613070000001,
          "velocity": 0.8661417322834646,
          "duration": 0.1201921875000096
        },
        {
          "name": "D#2",
          "midi": 39,
          "time": 231.6920760000001,
          "velocity": 0.8661417322834646,
          "duration": 0.23317284374999758
        },
        {
          "name": "F2",
          "midi": 41,
          "time": 231.9228450000001,
          "velocity": 0.8661417322834646,
          "duration": 0.1923074999999983
        },
        {
          "name": "A#1",
          "midi": 34,
          "time": 232.15361400000012,
          "velocity": 0.8661417322834646,
          "duration": 0.19711518750000323
        },
        {
          "name": "C2",
          "midi": 36,
          "time": 232.38438300000013,
          "velocity": 0.8661417322834646,
          "duration": 0.3533650312500072
        },
        {
          "name": "C2",
          "midi": 36,
          "time": 232.84592100000015,
          "velocity": 0.8661417322834646,
          "duration": 0.12980756249999104
        },
        {
          "name": "G2",
          "midi": 43,
          "time": 233.07669000000013,
          "velocity": 0.8661417322834646,
          "duration": 0.16826906250000206
        },
        {
          "name": "C2",
          "midi": 36,
          "time": 233.30745900000014,
          "velocity": 0.8661417322834646,
          "duration": 0.1201921875000096
        },
        {
          "name": "D#2",
          "midi": 39,
          "time": 233.53822800000015,
          "velocity": 0.8661417322834646,
          "duration": 0.21634593749999453
        },
        {
          "name": "F2",
          "midi": 41,
          "time": 233.76899700000013,
          "velocity": 0.8661417322834646,
          "duration": 0.173076750000007
        },
        {
          "name": "A#1",
          "midi": 34,
          "time": 233.99976600000014,
          "velocity": 0.8661417322834646,
          "duration": 0.2187497812500112
        },
        {
          "name": "C2",
          "midi": 36,
          "time": 234.23053500000015,
          "velocity": 0.8661417322834646,
          "duration": 0.346153500000014
        },
        {
          "name": "C2",
          "midi": 36,
          "time": 234.69207300000016,
          "velocity": 0.8661417322834646,
          "duration": 0.14182678124998915
        },
        {
          "name": "G2",
          "midi": 43,
          "time": 234.92284200000014,
          "velocity": 0.8661417322834646,
          "duration": 0.17548059374999525
        },
        {
          "name": "C2",
          "midi": 36,
          "time": 235.15361100000015,
          "velocity": 0.8661417322834646,
          "duration": 0.12259603124999785
        },
        {
          "name": "D#2",
          "midi": 39,
          "time": 235.38438000000016,
          "velocity": 0.8661417322834646,
          "duration": 0.2259613125000044
        },
        {
          "name": "F2",
          "midi": 41,
          "time": 235.61514900000017,
          "velocity": 0.8661417322834646,
          "duration": 0.18990365625001004
        },
        {
          "name": "A#1",
          "midi": 34,
          "time": 235.84591800000018,
          "velocity": 0.8661417322834646,
          "duration": 0.20192287500000816
        },
        {
          "name": "C2",
          "midi": 36,
          "time": 236.0766870000002,
          "velocity": 0.8661417322834646,
          "duration": 0.38221115625000834
        },
        {
          "name": "C2",
          "midi": 36,
          "time": 236.5382250000002,
          "velocity": 0.8661417322834646,
          "duration": 0.16346137499999713
        },
        {
          "name": "A1",
          "midi": 33,
          "time": 236.76899400000022,
          "velocity": 0.8661417322834646,
          "duration": 0.15624984375000395
        },
        {
          "name": "A1",
          "midi": 33,
          "time": 236.99976300000023,
          "velocity": 0.8661417322834646,
          "duration": 0.17788443750001193
        },
        {
          "name": "A#1",
          "midi": 34,
          "time": 237.23053200000024,
          "velocity": 0.8661417322834646,
          "duration": 0.15144215624999902
        },
        {
          "name": "A#1",
          "midi": 34,
          "time": 237.46130100000025,
          "velocity": 0.8661417322834646,
          "duration": 0.12980756249999104
        },
        {
          "name": "B1",
          "midi": 35,
          "time": 237.69207000000023,
          "velocity": 0.8661417322834646,
          "duration": 0.15384599999998727
        },
        {
          "name": "C2",
          "midi": 36,
          "time": 237.9228390000002,
          "velocity": 0.8661417322834646,
          "duration": 0.3629804062499886
        },
        {
          "name": "C2",
          "midi": 36,
          "time": 238.3843770000002,
          "velocity": 0.8661417322834646,
          "duration": 0.15624984375000395
        },
        {
          "name": "G2",
          "midi": 43,
          "time": 238.6151460000002,
          "velocity": 0.8661417322834646,
          "duration": 0.17548059374999525
        },
        {
          "name": "C2",
          "midi": 36,
          "time": 238.84591500000022,
          "velocity": 0.8661417322834646,
          "duration": 0.14903831250001076
        },
        {
          "name": "D#2",
          "midi": 39,
          "time": 239.07668400000023,
          "velocity": 0.8661417322834646,
          "duration": 0.2187497812500112
        },
        {
          "name": "F2",
          "midi": 41,
          "time": 239.30745300000024,
          "velocity": 0.8661417322834646,
          "duration": 0.17548059374999525
        },
        {
          "name": "A#1",
          "midi": 34,
          "time": 239.53822200000025,
          "velocity": 0.8661417322834646,
          "duration": 0.2067305625000131
        },
        {
          "name": "C2",
          "midi": 36,
          "time": 239.76899100000026,
          "velocity": 0.8661417322834646,
          "duration": 0.33653812500000413
        },
        {
          "name": "C2",
          "midi": 36,
          "time": 240.23052900000025,
          "velocity": 0.8661417322834646,
          "duration": 0.1322114062500077
        },
        {
          "name": "G2",
          "midi": 43,
          "time": 240.46129800000026,
          "velocity": 0.8661417322834646,
          "duration": 0.17788443750001193
        },
        {
          "name": "C2",
          "midi": 36,
          "time": 240.69206700000026,
          "velocity": 0.8661417322834646,
          "duration": 0.1201921875000096
        },
        {
          "name": "D#2",
          "midi": 39,
          "time": 240.92283600000027,
          "velocity": 0.8661417322834646,
          "duration": 0.20913440625000135
        },
        {
          "name": "F2",
          "midi": 41,
          "time": 241.15360500000028,
          "velocity": 0.8661417322834646,
          "duration": 0.173076750000007
        },
        {
          "name": "A#1",
          "midi": 34,
          "time": 241.3843740000003,
          "velocity": 0.8661417322834646,
          "duration": 0.173076750000007
        },
        {
          "name": "C2",
          "midi": 36,
          "time": 241.6151430000003,
          "velocity": 0.8661417322834646,
          "duration": 0.35576887499999543
        },
        {
          "name": "C2",
          "midi": 36,
          "time": 242.0766810000003,
          "velocity": 0.8661417322834646,
          "duration": 0.1586536874999922
        },
        {
          "name": "G2",
          "midi": 43,
          "time": 242.30745000000027,
          "velocity": 0.8661417322834646,
          "duration": 0.16346137499999713
        },
        {
          "name": "C2",
          "midi": 36,
          "time": 242.53821900000028,
          "velocity": 0.8661417322834646,
          "duration": 0.16346137499999713
        },
        {
          "name": "D#2",
          "midi": 39,
          "time": 242.7689880000003,
          "velocity": 0.8661417322834646,
          "duration": 0.21394209375000628
        },
        {
          "name": "F2",
          "midi": 41,
          "time": 242.9997570000003,
          "velocity": 0.8661417322834646,
          "duration": 0.17548059374999525
        },
        {
          "name": "A#1",
          "midi": 34,
          "time": 243.2305260000003,
          "velocity": 0.8661417322834646,
          "duration": 0.16826906250000206
        },
        {
          "name": "C2",
          "midi": 36,
          "time": 243.46129500000032,
          "velocity": 0.8661417322834646,
          "duration": 0.33413428124998745
        },
        {
          "name": "C2",
          "midi": 36,
          "time": 243.9228330000003,
          "velocity": 0.8661417322834646,
          "duration": 0.19711518750000323
        },
        {
          "name": "A1",
          "midi": 33,
          "time": 244.15360200000032,
          "velocity": 0.8661417322834646,
          "duration": 0.15624984375000395
        },
        {
          "name": "A1",
          "midi": 33,
          "time": 244.38437100000033,
          "velocity": 0.8661417322834646,
          "duration": 0.18269212499998844
        },
        {
          "name": "A#1",
          "midi": 34,
          "time": 244.6151400000003,
          "velocity": 0.8661417322834646,
          "duration": 0.1322114062500077
        },
        {
          "name": "A#1",
          "midi": 34,
          "time": 244.84590900000032,
          "velocity": 0.8661417322834646,
          "duration": 0.1394229375000009
        },
        {
          "name": "B1",
          "midi": 35,
          "time": 245.07667800000033,
          "velocity": 0.8661417322834646,
          "duration": 0.19711518750000323
        },
        {
          "name": "C2",
          "midi": 36,
          "time": 245.30744700000034,
          "velocity": 0.8661417322834646,
          "duration": 0.22115362499999947
        }
      ],
      "controlChanges": {
        "1": [
          {
            "number": 1,
            "time": 0.019230749999999994,
            "value": 0
          }
        ],
        "6": [
          {
            "number": 6,
            "time": 0.014423062499999997,
            "value": 0.09448818897637795
          }
        ],
        "7": [
          {
            "number": 7,
            "time": 1.394229375,
            "value": 0.7952755905511811
          }
        ],
        "10": [
          {
            "number": 10,
            "time": 1.3990370625000002,
            "value": 0.5039370078740157
          }
        ],
        "11": [
          {
            "number": 11,
            "time": 0.016826906249999996,
            "value": 1
          },
          {
            "number": 11,
            "time": 0.024038437499999996,
            "value": 1
          },
          {
            "number": 11,
            "time": 1.4038447500000002,
            "value": 1
          }
        ],
        "64": [
          {
            "number": 64,
            "time": 0.007211531249999999,
            "value": 0
          }
        ],
        "67": [
          {
            "number": 67,
            "time": 0.0048076874999999995,
            "value": 0
          }
        ],
        "91": [
          {
            "number": 91,
            "time": 1.4086524375000002,
            "value": 0
          }
        ],
        "93": [
          {
            "number": 93,
            "time": 1.4134601250000003,
            "value": 0
          }
        ],
        "100": [
          {
            "number": 100,
            "time": 0.009615374999999999,
            "value": 0
          }
        ],
        "101": [
          {
            "number": 101,
            "time": 0.012019218749999998,
            "value": 0
          }
        ],
        "121": [
          {
            "number": 121,
            "time": 0,
            "value": 0
          }
        ]
      },
      "id": 4,
      "name": "El Bass             ",
      "instrumentNumber": 37,
      "instrument": "slap bass 2",
      "instrumentFamily": "bass",
      "channelNumber": 1,
      "isPercussion": false
    },
    {
      "startTime": 3.692304,
      "duration": 245.45167762499966,
      "length": 947,
      "notes": [
        {
          "name": "D#4",
          "midi": 63,
          "time": 3.692304,
          "velocity": 0.9291338582677166,
          "duration": 0.10096143749999964
        },
        {
          "name": "F3",
          "midi": 53,
          "time": 3.692304,
          "velocity": 0.9291338582677166,
          "duration": 0.11057681249999973
        },
        {
          "name": "B3",
          "midi": 59,
          "time": 3.692304,
          "velocity": 0.9291338582677166,
          "duration": 0.09855759374999984
        },
        {
          "name": "A#3",
          "midi": 58,
          "time": 3.692304,
          "velocity": 0.9291338582677166,
          "duration": 0.09134606249999999
        },
        {
          "name": "F3",
          "midi": 53,
          "time": 3.9230729999999996,
          "velocity": 0.9291338582677166,
          "duration": 0.12980756249999903
        },
        {
          "name": "D#4",
          "midi": 63,
          "time": 3.9230729999999996,
          "velocity": 0.9291338582677166,
          "duration": 0.11538449999999933
        },
        {
          "name": "A#3",
          "midi": 58,
          "time": 3.9230729999999996,
          "velocity": 0.9291338582677166,
          "duration": 0.11057681249999973
        },
        {
          "name": "B3",
          "midi": 59,
          "time": 3.9230729999999996,
          "velocity": 0.9291338582677166,
          "duration": 0.1466344687499994
        },
        {
          "name": "F3",
          "midi": 53,
          "time": 4.153841999999999,
          "velocity": 0.9291338582677166,
          "duration": 0.09855759374999984
        },
        {
          "name": "D#4",
          "midi": 63,
          "time": 4.153841999999999,
          "velocity": 0.9291338582677166,
          "duration": 0.11538450000000022
        },
        {
          "name": "B3",
          "midi": 59,
          "time": 4.153841999999999,
          "velocity": 0.9291338582677166,
          "duration": 0.11538450000000022
        },
        {
          "name": "A#3",
          "midi": 58,
          "time": 4.153841999999999,
          "velocity": 0.9291338582677166,
          "duration": 0.11778834375000002
        },
        {
          "name": "D#4",
          "midi": 63,
          "time": 4.384611,
          "velocity": 0.9291338582677166,
          "duration": 0.10096143749999964
        },
        {
          "name": "F3",
          "midi": 53,
          "time": 4.384611,
          "velocity": 0.9291338582677166,
          "duration": 0.09855759374999984
        },
        {
          "name": "B3",
          "midi": 59,
          "time": 4.384611,
          "velocity": 0.9291338582677166,
          "duration": 0.11057681249999973
        },
        {
          "name": "A#3",
          "midi": 58,
          "time": 4.384611,
          "velocity": 0.9291338582677166,
          "duration": 0.10096143749999964
        },
        {
          "name": "D#4",
          "midi": 63,
          "time": 4.615379999999999,
          "velocity": 0.9291338582677166,
          "duration": 0.10576912500000013
        },
        {
          "name": "F3",
          "midi": 53,
          "time": 4.615379999999999,
          "velocity": 0.9291338582677166,
          "duration": 0.11538450000000022
        },
        {
          "name": "B3",
          "midi": 59,
          "time": 4.615379999999999,
          "velocity": 0.9291338582677166,
          "duration": 0.11538450000000022
        },
        {
          "name": "A#3",
          "midi": 58,
          "time": 4.615379999999999,
          "velocity": 0.9291338582677166,
          "duration": 0.11298065625000042
        },
        {
          "name": "D#4",
          "midi": 63,
          "time": 4.846149,
          "velocity": 0.9291338582677166,
          "duration": 0.10576912500000013
        },
        {
          "name": "F3",
          "midi": 53,
          "time": 4.846149,
          "velocity": 0.9291338582677166,
          "duration": 0.10336528125000033
        },
        {
          "name": "B3",
          "midi": 59,
          "time": 4.846149,
          "velocity": 0.9291338582677166,
          "duration": 0.11057681249999973
        },
        {
          "name": "A#3",
          "midi": 58,
          "time": 4.846149,
          "velocity": 0.9291338582677166,
          "duration": 0.10336528125000033
        },
        {
          "name": "D#4",
          "midi": 63,
          "time": 5.076917999999999,
          "velocity": 0.9291338582677166,
          "duration": 0.09855759374999984
        },
        {
          "name": "F3",
          "midi": 53,
          "time": 5.076917999999999,
          "velocity": 0.9291338582677166,
          "duration": 0.09134606249999955
        },
        {
          "name": "A#3",
          "midi": 58,
          "time": 5.076917999999999,
          "velocity": 0.9291338582677166,
          "duration": 0.09134606249999955
        },
        {
          "name": "B3",
          "midi": 59,
          "time": 5.076917999999999,
          "velocity": 0.9291338582677166,
          "duration": 0.10817296874999993
        },
        {
          "name": "D#4",
          "midi": 63,
          "time": 5.307686999999999,
          "velocity": 0.9291338582677166,
          "duration": 0.08653837499999995
        },
        {
          "name": "F3",
          "midi": 53,
          "time": 5.307686999999999,
          "velocity": 0.9291338582677166,
          "duration": 0.10096143749999964
        },
        {
          "name": "A#3",
          "midi": 58,
          "time": 5.307686999999999,
          "velocity": 0.9291338582677166,
          "duration": 0.08894221874999975
        },
        {
          "name": "B3",
          "midi": 59,
          "time": 5.307686999999999,
          "velocity": 0.9291338582677166,
          "duration": 0.10576912499999924
        },
        {
          "name": "D#4",
          "midi": 63,
          "time": 5.538455999999998,
          "velocity": 0.9291338582677166,
          "duration": 0.08653837499999995
        },
        {
          "name": "B3",
          "midi": 59,
          "time": 5.538455999999998,
          "velocity": 0.9291338582677166,
          "duration": 0.08413453125000014
        },
        {
          "name": "A#3",
          "midi": 58,
          "time": 5.538455999999998,
          "velocity": 0.9291338582677166,
          "duration": 0.09134606249999955
        },
        {
          "name": "F3",
          "midi": 53,
          "time": 5.538455999999998,
          "velocity": 0.9291338582677166,
          "duration": 0.11298065624999953
        },
        {
          "name": "F3",
          "midi": 53,
          "time": 5.769224999999998,
          "velocity": 0.9291338582677166,
          "duration": 0.07692299999999985
        },
        {
          "name": "D#4",
          "midi": 63,
          "time": 5.769224999999998,
          "velocity": 0.9291338582677166,
          "duration": 0.08653837499999906
        },
        {
          "name": "B3",
          "midi": 59,
          "time": 5.769224999999998,
          "velocity": 0.9291338582677166,
          "duration": 0.07932684374999965
        },
        {
          "name": "A#3",
          "midi": 58,
          "time": 5.769224999999998,
          "velocity": 0.9291338582677166,
          "duration": 0.08173068749999945
        },
        {
          "name": "D#4",
          "midi": 63,
          "time": 5.9999939999999965,
          "velocity": 0.9291338582677166,
          "duration": 0.08413453125000014
        },
        {
          "name": "F3",
          "midi": 53,
          "time": 5.9999939999999965,
          "velocity": 0.9291338582677166,
          "duration": 0.10576912500000013
        },
        {
          "name": "B3",
          "midi": 59,
          "time": 5.9999939999999965,
          "velocity": 0.9291338582677166,
          "duration": 0.09615375000000004
        },
        {
          "name": "A#3",
          "midi": 58,
          "time": 5.9999939999999965,
          "velocity": 0.9291338582677166,
          "duration": 0.09134606250000044
        },
        {
          "name": "D#4",
          "midi": 63,
          "time": 6.230762999999997,
          "velocity": 0.9291338582677166,
          "duration": 0.06730762499999976
        },
        {
          "name": "F3",
          "midi": 53,
          "time": 6.230762999999997,
          "velocity": 0.9291338582677166,
          "duration": 0.07692299999999985
        },
        {
          "name": "A#3",
          "midi": 58,
          "time": 6.230762999999997,
          "velocity": 0.9291338582677166,
          "duration": 0.06730762499999976
        },
        {
          "name": "B3",
          "midi": 59,
          "time": 6.230762999999997,
          "velocity": 0.9291338582677166,
          "duration": 0.08894221874999975
        },
        {
          "name": "D#4",
          "midi": 63,
          "time": 6.4615319999999965,
          "velocity": 0.9291338582677166,
          "duration": 0.07211531250000025
        },
        {
          "name": "A#3",
          "midi": 58,
          "time": 6.4615319999999965,
          "velocity": 0.9291338582677166,
          "duration": 0.06009609375000036
        },
        {
          "name": "F3",
          "midi": 53,
          "time": 6.4615319999999965,
          "velocity": 0.9291338582677166,
          "duration": 0.09855759374999984
        },
        {
          "name": "B3",
          "midi": 59,
          "time": 6.4615319999999965,
          "velocity": 0.9291338582677166,
          "duration": 0.09855759374999984
        },
        {
          "name": "D#4",
          "midi": 63,
          "time": 6.692300999999996,
          "velocity": 0.9291338582677166,
          "duration": 0.048076874999999575
        },
        {
          "name": "F3",
          "midi": 53,
          "time": 6.692300999999996,
          "velocity": 0.9291338582677166,
          "duration": 0.05528840624999898
        },
        {
          "name": "A#3",
          "midi": 58,
          "time": 6.692300999999996,
          "velocity": 0.9291338582677166,
          "duration": 0.05288456249999918
        },
        {
          "name": "B3",
          "midi": 59,
          "time": 6.692300999999996,
          "velocity": 0.9291338582677166,
          "duration": 0.07211531249999936
        },
        {
          "name": "A#3",
          "midi": 58,
          "time": 6.923069999999996,
          "velocity": 0.9291338582677166,
          "duration": 0.04086534375000017
        },
        {
          "name": "B3",
          "midi": 59,
          "time": 6.923069999999996,
          "velocity": 0.9291338582677166,
          "duration": 0.04086534375000017
        },
        {
          "name": "F3",
          "midi": 53,
          "time": 6.923069999999996,
          "velocity": 0.9291338582677166,
          "duration": 0.06009609375000036
        },
        {
          "name": "D#4",
          "midi": 63,
          "time": 6.923069999999996,
          "velocity": 0.9291338582677166,
          "duration": 0.06971146875000045
        },
        {
          "name": "C#4",
          "midi": 61,
          "time": 7.153838999999996,
          "velocity": 0.9291338582677166,
          "duration": 0.024038437499999787
        },
        {
          "name": "D#4",
          "midi": 63,
          "time": 7.153838999999996,
          "velocity": 0.9291338582677166,
          "duration": 0.03605765624999968
        },
        {
          "name": "A#3",
          "midi": 58,
          "time": 7.153838999999996,
          "velocity": 0.9291338582677166,
          "duration": 0.048076874999999575
        },
        {
          "name": "G3",
          "midi": 55,
          "time": 7.153838999999996,
          "velocity": 0.9291338582677166,
          "duration": 2.8052856562499997
        },
        {
          "name": "D4",
          "midi": 62,
          "time": 7.269223499999995,
          "velocity": 0.9291338582677166,
          "duration": 0.055288406249999866
        },
        {
          "name": "D#4",
          "midi": 63,
          "time": 7.384607999999996,
          "velocity": 0.9291338582677166,
          "duration": 2.51201671875
        },
        {
          "name": "A#3",
          "midi": 58,
          "time": 7.384607999999996,
          "velocity": 0.9291338582677166,
          "duration": 2.5456705312500008
        },
        {
          "name": "D#4",
          "midi": 63,
          "time": 10.153835999999997,
          "velocity": 0.9291338582677166,
          "duration": 0.19951903125000037
        },
        {
          "name": "G3",
          "midi": 55,
          "time": 10.153835999999997,
          "velocity": 0.9291338582677166,
          "duration": 0.1730767499999999
        },
        {
          "name": "A#3",
          "midi": 58,
          "time": 10.153835999999997,
          "velocity": 0.9291338582677166,
          "duration": 0.1682690625000003
        },
        {
          "name": "D#4",
          "midi": 63,
          "time": 10.384604999999997,
          "velocity": 0.9291338582677166,
          "duration": 0.0072115312500002915
        },
        {
          "name": "A3",
          "midi": 57,
          "time": 10.384604999999997,
          "velocity": 0.9291338582677166,
          "duration": 0.1394229375000009
        },
        {
          "name": "F4",
          "midi": 65,
          "time": 10.384604999999997,
          "velocity": 0.9291338582677166,
          "duration": 0.1418267812500016
        },
        {
          "name": "C4",
          "midi": 60,
          "time": 10.384604999999997,
          "velocity": 0.9291338582677166,
          "duration": 0.12499987500000032
        },
        {
          "name": "G3",
          "midi": 55,
          "time": 10.846142999999998,
          "velocity": 0.9291338582677166,
          "duration": 2.4735552187500005
        },
        {
          "name": "A#3",
          "midi": 58,
          "time": 10.846142999999998,
          "velocity": 0.9291338582677166,
          "duration": 2.471151375
        },
        {
          "name": "D#4",
          "midi": 63,
          "time": 10.846142999999998,
          "velocity": 0.9291338582677166,
          "duration": 2.5072090312500013
        },
        {
          "name": "A#4",
          "midi": 70,
          "time": 13.846139999999998,
          "velocity": 0.9291338582677166,
          "duration": 0.1730767499999999
        },
        {
          "name": "D4",
          "midi": 62,
          "time": 13.846139999999998,
          "velocity": 0.9291338582677166,
          "duration": 0.18509596874999978
        },
        {
          "name": "F4",
          "midi": 65,
          "time": 13.846139999999998,
          "velocity": 0.9291338582677166,
          "duration": 0.18509596874999978
        },
        {
          "name": "A#4",
          "midi": 70,
          "time": 14.076908999999999,
          "velocity": 0.9291338582677166,
          "duration": 0.12259603124999963
        },
        {
          "name": "D4",
          "midi": 62,
          "time": 14.076908999999999,
          "velocity": 0.9291338582677166,
          "duration": 0.1322114062500006
        },
        {
          "name": "F4",
          "midi": 65,
          "time": 14.076908999999999,
          "velocity": 0.9291338582677166,
          "duration": 0.12499987500000032
        },
        {
          "name": "C4",
          "midi": 60,
          "time": 14.307678,
          "velocity": 0.9291338582677166,
          "duration": 0.10096143750000053
        },
        {
          "name": "A4",
          "midi": 69,
          "time": 14.307678,
          "velocity": 0.9291338582677166,
          "duration": 0.08653837499999995
        },
        {
          "name": "F4",
          "midi": 65,
          "time": 14.307678,
          "velocity": 0.9291338582677166,
          "duration": 0.08653837499999995
        },
        {
          "name": "D#4",
          "midi": 63,
          "time": 14.538447,
          "velocity": 0.9291338582677166,
          "duration": 2.6490358124999975
        },
        {
          "name": "A#3",
          "midi": 58,
          "time": 14.538447,
          "velocity": 0.9291338582677166,
          "duration": 2.632208906249998
        },
        {
          "name": "G4",
          "midi": 67,
          "time": 14.538447,
          "velocity": 0.9291338582677166,
          "duration": 2.6514396562499964
        },
        {
          "name": "A#3",
          "midi": 58,
          "time": 17.538443999999995,
          "velocity": 0.9291338582677166,
          "duration": 0.16346137500000069
        },
        {
          "name": "D#4",
          "midi": 63,
          "time": 17.538443999999995,
          "velocity": 0.9291338582677166,
          "duration": 0.20673056250000243
        },
        {
          "name": "G3",
          "midi": 55,
          "time": 17.538443999999995,
          "velocity": 0.9291338582677166,
          "duration": 0.17067290625000098
        },
        {
          "name": "A3",
          "midi": 57,
          "time": 17.769212999999997,
          "velocity": 0.9291338582677166,
          "duration": 0.08894221874999886
        },
        {
          "name": "F4",
          "midi": 65,
          "time": 17.769212999999997,
          "velocity": 0.9291338582677166,
          "duration": 0.12980756249999814
        },
        {
          "name": "C4",
          "midi": 60,
          "time": 17.769212999999997,
          "velocity": 0.9291338582677166,
          "duration": 0.08894221874999886
        },
        {
          "name": "D#4",
          "midi": 63,
          "time": 18.230750999999994,
          "velocity": 0.9291338582677166,
          "duration": 2.502401343749998
        },
        {
          "name": "A#3",
          "midi": 58,
          "time": 18.230750999999994,
          "velocity": 0.9291338582677166,
          "duration": 2.4783629062499983
        },
        {
          "name": "G3",
          "midi": 55,
          "time": 18.230750999999994,
          "velocity": 0.9291338582677166,
          "duration": 2.4783629062499983
        },
        {
          "name": "D4",
          "midi": 62,
          "time": 21.23074799999999,
          "velocity": 0.9291338582677166,
          "duration": 0.15144215625000257
        },
        {
          "name": "A#4",
          "midi": 70,
          "time": 21.23074799999999,
          "velocity": 0.9291338582677166,
          "duration": 0.1394229375000009
        },
        {
          "name": "F4",
          "midi": 65,
          "time": 21.23074799999999,
          "velocity": 0.9291338582677166,
          "duration": 0.15144215625000257
        },
        {
          "name": "A#4",
          "midi": 70,
          "time": 21.461516999999994,
          "velocity": 0.9291338582677166,
          "duration": 0.1225960312500014
        },
        {
          "name": "D4",
          "midi": 62,
          "time": 21.461516999999994,
          "velocity": 0.9291338582677166,
          "duration": 0.14423062500000228
        },
        {
          "name": "F4",
          "midi": 65,
          "time": 21.461516999999994,
          "velocity": 0.9291338582677166,
          "duration": 0.1394229375000009
        },
        {
          "name": "A4",
          "midi": 69,
          "time": 21.692285999999996,
          "velocity": 0.9291338582677166,
          "duration": 0.06971146875000045
        },
        {
          "name": "C4",
          "midi": 60,
          "time": 21.692285999999996,
          "velocity": 0.9291338582677166,
          "duration": 0.07932684374999965
        },
        {
          "name": "F4",
          "midi": 65,
          "time": 21.692285999999996,
          "velocity": 0.9291338582677166,
          "duration": 0.06971146875000045
        },
        {
          "name": "D#4",
          "midi": 63,
          "time": 21.923054999999994,
          "velocity": 0.9291338582677166,
          "duration": 2.598555093750001
        },
        {
          "name": "A#3",
          "midi": 58,
          "time": 21.923054999999994,
          "velocity": 0.9291338582677166,
          "duration": 2.6177858437499992
        },
        {
          "name": "G4",
          "midi": 67,
          "time": 21.923054999999994,
          "velocity": 0.9291338582677166,
          "duration": 2.665862718749999
        },
        {
          "name": "G3",
          "midi": 55,
          "time": 24.923051999999995,
          "velocity": 0.9291338582677166,
          "duration": 0.14423062499999872
        },
        {
          "name": "D#4",
          "midi": 63,
          "time": 24.923051999999995,
          "velocity": 0.9291338582677166,
          "duration": 0.17788443750000127
        },
        {
          "name": "A#3",
          "midi": 58,
          "time": 24.923051999999995,
          "velocity": 0.9291338582677166,
          "duration": 0.1562498437500004
        },
        {
          "name": "A3",
          "midi": 57,
          "time": 25.153820999999997,
          "velocity": 0.9291338582677166,
          "duration": 0.06971146875000045
        },
        {
          "name": "C4",
          "midi": 60,
          "time": 25.153820999999997,
          "velocity": 0.9291338582677166,
          "duration": 0.06971146875000045
        },
        {
          "name": "F4",
          "midi": 65,
          "time": 25.153820999999997,
          "velocity": 0.9291338582677166,
          "duration": 0.11778834375000002
        },
        {
          "name": "A#3",
          "midi": 58,
          "time": 25.615358999999998,
          "velocity": 0.9291338582677166,
          "duration": 2.5624974374999994
        },
        {
          "name": "D#4",
          "midi": 63,
          "time": 25.615358999999998,
          "velocity": 0.9291338582677166,
          "duration": 2.5985550937499973
        },
        {
          "name": "G3",
          "midi": 55,
          "time": 25.615358999999998,
          "velocity": 0.9291338582677166,
          "duration": 2.5649012812499983
        },
        {
          "name": "D4",
          "midi": 62,
          "time": 28.615355999999995,
          "velocity": 0.9291338582677166,
          "duration": 0.16346137500000069
        },
        {
          "name": "A#4",
          "midi": 70,
          "time": 28.615355999999995,
          "velocity": 0.9291338582677166,
          "duration": 0.1562498437500004
        },
        {
          "name": "F4",
          "midi": 65,
          "time": 28.615355999999995,
          "velocity": 0.9291338582677166,
          "duration": 0.16346137500000069
        },
        {
          "name": "D4",
          "midi": 62,
          "time": 28.846124999999997,
          "velocity": 0.9291338582677166,
          "duration": 0.11778834375000002
        },
        {
          "name": "F4",
          "midi": 65,
          "time": 28.846124999999997,
          "velocity": 0.9291338582677166,
          "duration": 0.11057681249999973
        },
        {
          "name": "A#4",
          "midi": 70,
          "time": 28.846124999999997,
          "velocity": 0.9291338582677166,
          "duration": 0.11538450000000111
        },
        {
          "name": "A4",
          "midi": 69,
          "time": 29.076893999999996,
          "velocity": 0.9291338582677166,
          "duration": 0.05769225000000233
        },
        {
          "name": "F4",
          "midi": 65,
          "time": 29.076893999999996,
          "velocity": 0.9291338582677166,
          "duration": 0.05288456250000095
        },
        {
          "name": "C4",
          "midi": 60,
          "time": 29.076893999999996,
          "velocity": 0.9291338582677166,
          "duration": 0.07211531250000291
        },
        {
          "name": "D#4",
          "midi": 63,
          "time": 29.307662999999998,
          "velocity": 0.9291338582677166,
          "duration": 2.5024013437500017
        },
        {
          "name": "A#3",
          "midi": 58,
          "time": 29.307662999999998,
          "velocity": 0.9291338582677166,
          "duration": 2.519228250000001
        },
        {
          "name": "G4",
          "midi": 67,
          "time": 29.307662999999998,
          "velocity": 0.9291338582677166,
          "duration": 2.540862843750002
        },
        {
          "name": "G3",
          "midi": 55,
          "time": 32.30766,
          "velocity": 0.9291338582677166,
          "duration": 0.14423062499999872
        },
        {
          "name": "D#4",
          "midi": 63,
          "time": 32.30766,
          "velocity": 0.9291338582677166,
          "duration": 0.18749981249999337
        },
        {
          "name": "A#3",
          "midi": 58,
          "time": 32.30766,
          "velocity": 0.9291338582677166,
          "duration": 0.15624984374999684
        },
        {
          "name": "A3",
          "midi": 57,
          "time": 32.538428999999994,
          "velocity": 0.9291338582677166,
          "duration": 0.06009609374999769
        },
        {
          "name": "C4",
          "midi": 60,
          "time": 32.538428999999994,
          "velocity": 0.9291338582677166,
          "duration": 0.06249993750000016
        },
        {
          "name": "F4",
          "midi": 65,
          "time": 32.538428999999994,
          "velocity": 0.9291338582677166,
          "duration": 0.10336528124999944
        },
        {
          "name": "G3",
          "midi": 55,
          "time": 32.99996699999999,
          "velocity": 0.9291338582677166,
          "duration": 3.019227750000006
        },
        {
          "name": "A#3",
          "midi": 58,
          "time": 32.99996699999999,
          "velocity": 0.9291338582677166,
          "duration": 3.002400843750003
        },
        {
          "name": "D#4",
          "midi": 63,
          "time": 32.99996699999999,
          "velocity": 0.9291338582677166,
          "duration": 3.019227750000006
        },
        {
          "name": "C4",
          "midi": 60,
          "time": 36.692271,
          "velocity": 0.9291338582677166,
          "duration": 0.5985570937500029
        },
        {
          "name": "F4",
          "midi": 65,
          "time": 36.692271,
          "velocity": 0.9291338582677166,
          "duration": 0.610576312500001
        },
        {
          "name": "A3",
          "midi": 57,
          "time": 36.692271,
          "velocity": 0.9291338582677166,
          "duration": 0.5889417187500001
        },
        {
          "name": "C4",
          "midi": 60,
          "time": 37.384578,
          "velocity": 0.9291338582677166,
          "duration": 0.1394229375000009
        },
        {
          "name": "E4",
          "midi": 64,
          "time": 37.384578,
          "velocity": 0.9291338582677166,
          "duration": 0.13701909374999843
        },
        {
          "name": "G3",
          "midi": 55,
          "time": 37.384578,
          "velocity": 0.9291338582677166,
          "duration": 0.14903831250000366
        },
        {
          "name": "C4",
          "midi": 60,
          "time": 37.846116,
          "velocity": 0.9291338582677166,
          "duration": 0.1730767499999999
        },
        {
          "name": "A3",
          "midi": 57,
          "time": 37.846116,
          "velocity": 0.9291338582677166,
          "duration": 0.16346137499999713
        },
        {
          "name": "F4",
          "midi": 65,
          "time": 37.846116,
          "velocity": 0.9291338582677166,
          "duration": 0.2451920625000028
        },
        {
          "name": "C4",
          "midi": 60,
          "time": 38.076885000000004,
          "velocity": 0.9291338582677166,
          "duration": 0.10096143750000408
        },
        {
          "name": "G3",
          "midi": 55,
          "time": 38.076885000000004,
          "velocity": 0.9291338582677166,
          "duration": 0.10817296875000437
        },
        {
          "name": "E4",
          "midi": 64,
          "time": 38.076885000000004,
          "velocity": 0.9291338582677166,
          "duration": 0.10817296875000437
        },
        {
          "name": "F3",
          "midi": 53,
          "time": 38.53842300000001,
          "velocity": 0.9291338582677166,
          "duration": 0.6033647812500007
        },
        {
          "name": "D4",
          "midi": 62,
          "time": 38.53842300000001,
          "velocity": 0.9291338582677166,
          "duration": 0.5961532500000004
        },
        {
          "name": "A#3",
          "midi": 58,
          "time": 38.53842300000001,
          "velocity": 0.9291338582677166,
          "duration": 0.5793263437499974
        },
        {
          "name": "A3",
          "midi": 57,
          "time": 39.23073000000001,
          "velocity": 0.9291338582677166,
          "duration": 0.1586536874999993
        },
        {
          "name": "C4",
          "midi": 60,
          "time": 39.23073000000001,
          "velocity": 0.9291338582677166,
          "duration": 0.1995190312499986
        },
        {
          "name": "F3",
          "midi": 53,
          "time": 39.23073000000001,
          "velocity": 0.9291338582677166,
          "duration": 0.19711518749999613
        },
        {
          "name": "F3",
          "midi": 53,
          "time": 39.692268000000006,
          "velocity": 0.9291338582677166,
          "duration": 0.5721148124999971
        },
        {
          "name": "A#3",
          "midi": 58,
          "time": 39.692268000000006,
          "velocity": 0.9291338582677166,
          "duration": 0.6874993124999946
        },
        {
          "name": "D4",
          "midi": 62,
          "time": 39.692268000000006,
          "velocity": 0.9291338582677166,
          "duration": 0.6874993124999946
        },
        {
          "name": "G3",
          "midi": 55,
          "time": 40.384575,
          "velocity": 0.9291338582677166,
          "duration": 0.5360571562500027
        },
        {
          "name": "E4",
          "midi": 64,
          "time": 40.384575,
          "velocity": 0.9291338582677166,
          "duration": 0.576922500000002
        },
        {
          "name": "C4",
          "midi": 60,
          "time": 40.384575,
          "velocity": 0.9291338582677166,
          "duration": 0.5745186562499995
        },
        {
          "name": "A3",
          "midi": 57,
          "time": 41.076882,
          "velocity": 0.9291338582677166,
          "duration": 0.1322114062500006
        },
        {
          "name": "C4",
          "midi": 60,
          "time": 41.076882,
          "velocity": 0.9291338582677166,
          "duration": 0.12019218750000249
        },
        {
          "name": "F4",
          "midi": 65,
          "time": 41.076882,
          "velocity": 0.9291338582677166,
          "duration": 0.1466344687500012
        },
        {
          "name": "A3",
          "midi": 57,
          "time": 41.53842,
          "velocity": 0.9291338582677166,
          "duration": 0.1466344687500012
        },
        {
          "name": "F4",
          "midi": 65,
          "time": 41.53842,
          "velocity": 0.9291338582677166,
          "duration": 0.24038437500000498
        },
        {
          "name": "C4",
          "midi": 60,
          "time": 41.53842,
          "velocity": 0.9291338582677166,
          "duration": 0.15144215624999902
        },
        {
          "name": "E4",
          "midi": 64,
          "time": 41.769189000000004,
          "velocity": 0.9291338582677166,
          "duration": 0.08413453125000814
        },
        {
          "name": "G3",
          "midi": 55,
          "time": 41.769189000000004,
          "velocity": 0.9291338582677166,
          "duration": 0.08413453125000814
        },
        {
          "name": "C4",
          "midi": 60,
          "time": 41.769189000000004,
          "velocity": 0.9291338582677166,
          "duration": 0.08173068750000567
        },
        {
          "name": "E4",
          "midi": 64,
          "time": 42.230727000000016,
          "velocity": 0.9291338582677166,
          "duration": 0.5576917499999965
        },
        {
          "name": "G3",
          "midi": 55,
          "time": 42.230727000000016,
          "velocity": 0.9291338582677166,
          "duration": 0.5528840624999987
        },
        {
          "name": "C4",
          "midi": 60,
          "time": 42.230727000000016,
          "velocity": 0.9291338582677166,
          "duration": 0.5697109687499946
        },
        {
          "name": "F4",
          "midi": 65,
          "time": 42.92303400000001,
          "velocity": 0.9291338582677166,
          "duration": 0.14903831249999655
        },
        {
          "name": "A3",
          "midi": 57,
          "time": 42.92303400000001,
          "velocity": 0.9291338582677166,
          "duration": 0.17067290624999742
        },
        {
          "name": "C4",
          "midi": 60,
          "time": 42.92303400000001,
          "velocity": 0.9291338582677166,
          "duration": 0.13701909374999843
        },
        {
          "name": "A3",
          "midi": 57,
          "time": 43.384572000000006,
          "velocity": 0.9291338582677166,
          "duration": 0.1466344687500012
        },
        {
          "name": "C4",
          "midi": 60,
          "time": 43.384572000000006,
          "velocity": 0.9291338582677166,
          "duration": 0.1586536874999993
        },
        {
          "name": "F4",
          "midi": 65,
          "time": 43.384572000000006,
          "velocity": 0.9291338582677166,
          "duration": 0.19471134375000076
        },
        {
          "name": "E4",
          "midi": 64,
          "time": 43.61534100000001,
          "velocity": 0.9291338582677166,
          "duration": 0.1057691250000019
        },
        {
          "name": "G3",
          "midi": 55,
          "time": 43.61534100000001,
          "velocity": 0.9291338582677166,
          "duration": 0.08413453125000103
        },
        {
          "name": "C4",
          "midi": 60,
          "time": 43.61534100000001,
          "velocity": 0.9291338582677166,
          "duration": 0.09374990625000379
        },
        {
          "name": "C4",
          "midi": 60,
          "time": 44.07687900000001,
          "velocity": 0.9291338582677166,
          "duration": 0.5745186562499995
        },
        {
          "name": "A3",
          "midi": 57,
          "time": 44.07687900000001,
          "velocity": 0.9291338582677166,
          "duration": 0.5697109687500017
        },
        {
          "name": "F4",
          "midi": 65,
          "time": 44.07687900000001,
          "velocity": 0.9291338582677166,
          "duration": 0.5865378749999977
        },
        {
          "name": "E4",
          "midi": 64,
          "time": 44.76918600000001,
          "velocity": 0.9291338582677166,
          "duration": 0.14423062499999872
        },
        {
          "name": "C4",
          "midi": 60,
          "time": 44.76918600000001,
          "velocity": 0.9291338582677166,
          "duration": 0.14423062499999872
        },
        {
          "name": "G3",
          "midi": 55,
          "time": 44.76918600000001,
          "velocity": 0.9291338582677166,
          "duration": 0.1586536874999993
        },
        {
          "name": "F4",
          "midi": 65,
          "time": 45.23072400000001,
          "velocity": 0.9291338582677166,
          "duration": 0.3798073124999988
        },
        {
          "name": "A3",
          "midi": 57,
          "time": 45.23072400000001,
          "velocity": 0.9291338582677166,
          "duration": 0.21394209374999917
        },
        {
          "name": "C4",
          "midi": 60,
          "time": 45.23072400000001,
          "velocity": 0.9291338582677166,
          "duration": 0.20673056249999888
        },
        {
          "name": "C4",
          "midi": 60,
          "time": 45.46149300000001,
          "velocity": 0.9291338582677166,
          "duration": 0.11057681249999973
        },
        {
          "name": "A3",
          "midi": 57,
          "time": 45.57687750000001,
          "velocity": 0.9291338582677166,
          "duration": 0.0793268437499961
        },
        {
          "name": "G3",
          "midi": 55,
          "time": 45.69226200000001,
          "velocity": 0.9291338582677166,
          "duration": 0.04326918750000175
        },
        {
          "name": "C4",
          "midi": 60,
          "time": 45.69226200000001,
          "velocity": 0.9291338582677166,
          "duration": 0.03605765625000146
        },
        {
          "name": "E4",
          "midi": 64,
          "time": 45.69226200000001,
          "velocity": 0.9291338582677166,
          "duration": 0.05048071875000204
        },
        {
          "name": "F3",
          "midi": 53,
          "time": 45.92303100000001,
          "velocity": 0.9291338582677166,
          "duration": 0.5673071249999992
        },
        {
          "name": "D4",
          "midi": 62,
          "time": 45.92303100000001,
          "velocity": 0.9291338582677166,
          "duration": 0.5336533125000003
        },
        {
          "name": "A#3",
          "midi": 58,
          "time": 45.92303100000001,
          "velocity": 0.9291338582677166,
          "duration": 0.5552879062500011
        },
        {
          "name": "A3",
          "midi": 57,
          "time": 46.61533800000001,
          "velocity": 0.9291338582677166,
          "duration": 0.11778834375000002
        },
        {
          "name": "C4",
          "midi": 60,
          "time": 46.61533800000001,
          "velocity": 0.9291338582677166,
          "duration": 0.1394229375000009
        },
        {
          "name": "F3",
          "midi": 53,
          "time": 46.61533800000001,
          "velocity": 0.9291338582677166,
          "duration": 0.16346137500000424
        },
        {
          "name": "F3",
          "midi": 53,
          "time": 47.07687600000001,
          "velocity": 0.9291338582677166,
          "duration": 0.6874993124999946
        },
        {
          "name": "D4",
          "midi": 62,
          "time": 47.07687600000001,
          "velocity": 0.9291338582677166,
          "duration": 0.6874993124999946
        },
        {
          "name": "A#3",
          "midi": 58,
          "time": 47.07687600000001,
          "velocity": 0.9291338582677166,
          "duration": 0.5721148124999971
        },
        {
          "name": "B3",
          "midi": 59,
          "time": 47.769183000000005,
          "velocity": 0.9291338582677166,
          "duration": 0.004807687499997826
        },
        {
          "name": "G3",
          "midi": 55,
          "time": 47.769183000000005,
          "velocity": 0.9291338582677166,
          "duration": 0.3389419687499995
        },
        {
          "name": "C4",
          "midi": 60,
          "time": 47.769183000000005,
          "velocity": 0.9291338582677166,
          "duration": 0.593749406249998
        },
        {
          "name": "E4",
          "midi": 64,
          "time": 47.769183000000005,
          "velocity": 0.9291338582677166,
          "duration": 0.6225955312499991
        },
        {
          "name": "G3",
          "midi": 55,
          "time": 48.230721,
          "velocity": 0.9291338582677166,
          "duration": 0.15384600000000148
        },
        {
          "name": "F4",
          "midi": 65,
          "time": 48.461490000000005,
          "velocity": 0.9291338582677166,
          "duration": 0.15624984374999684
        },
        {
          "name": "A3",
          "midi": 57,
          "time": 48.461490000000005,
          "velocity": 0.9291338582677166,
          "duration": 0.1730767499999999
        },
        {
          "name": "C4",
          "midi": 60,
          "time": 48.461490000000005,
          "velocity": 0.9291338582677166,
          "duration": 0.15624984374999684
        },
        {
          "name": "C4",
          "midi": 60,
          "time": 48.923028,
          "velocity": 0.9291338582677166,
          "duration": 0.16105753125000177
        },
        {
          "name": "A3",
          "midi": 57,
          "time": 48.923028,
          "velocity": 0.9291338582677166,
          "duration": 0.17548059375000236
        },
        {
          "name": "F4",
          "midi": 65,
          "time": 48.923028,
          "velocity": 0.9291338582677166,
          "duration": 0.24759590625000527
        },
        {
          "name": "G3",
          "midi": 55,
          "time": 49.153797000000004,
          "velocity": 0.9291338582677166,
          "duration": 0.08894221875000596
        },
        {
          "name": "E4",
          "midi": 64,
          "time": 49.153797000000004,
          "velocity": 0.9291338582677166,
          "duration": 0.09615375000000626
        },
        {
          "name": "C4",
          "midi": 60,
          "time": 49.153797000000004,
          "velocity": 0.9291338582677166,
          "duration": 0.0865383750000035
        },
        {
          "name": "G3",
          "midi": 55,
          "time": 49.61533500000001,
          "velocity": 0.9291338582677166,
          "duration": 0.5697109687500017
        },
        {
          "name": "E4",
          "midi": 64,
          "time": 49.61533500000001,
          "velocity": 0.9291338582677166,
          "duration": 0.6033647812500007
        },
        {
          "name": "C4",
          "midi": 60,
          "time": 49.61533500000001,
          "velocity": 0.9291338582677166,
          "duration": 0.6177878437500013
        },
        {
          "name": "F4",
          "midi": 65,
          "time": 50.30764200000001,
          "velocity": 0.9291338582677166,
          "duration": 0.10576912500000901
        },
        {
          "name": "A3",
          "midi": 57,
          "time": 50.30764200000001,
          "velocity": 0.9291338582677166,
          "duration": 0.10336528125000655
        },
        {
          "name": "C4",
          "midi": 60,
          "time": 50.30764200000001,
          "velocity": 0.9291338582677166,
          "duration": 0.0793268437500032
        },
        {
          "name": "D#4",
          "midi": 63,
          "time": 50.76918000000002,
          "velocity": 0.9291338582677166,
          "duration": 0.1466344687500012
        },
        {
          "name": "A#3",
          "midi": 58,
          "time": 50.76918000000002,
          "velocity": 0.9291338582677166,
          "duration": 0.14423062499999872
        },
        {
          "name": "G3",
          "midi": 55,
          "time": 50.76918000000002,
          "velocity": 0.9291338582677166,
          "duration": 0.16105753125000177
        },
        {
          "name": "C4",
          "midi": 60,
          "time": 50.99994900000002,
          "velocity": 0.9291338582677166,
          "duration": 0.09615375000000626
        },
        {
          "name": "E4",
          "midi": 64,
          "time": 50.99994900000002,
          "velocity": 0.9291338582677166,
          "duration": 0.06490378125000262
        },
        {
          "name": "F4",
          "midi": 65,
          "time": 50.99994900000002,
          "velocity": 0.9291338582677166,
          "duration": 0.08894221875000596
        },
        {
          "name": "A3",
          "midi": 57,
          "time": 50.99994900000002,
          "velocity": 0.9291338582677166,
          "duration": 0.12259603125000496
        },
        {
          "name": "D#4",
          "midi": 63,
          "time": 51.46148700000003,
          "velocity": 0.9291338582677166,
          "duration": 2.8100933437499975
        },
        {
          "name": "G3",
          "midi": 55,
          "time": 51.46148700000003,
          "velocity": 0.9291338582677166,
          "duration": 2.8269202500000006
        },
        {
          "name": "A#3",
          "midi": 58,
          "time": 51.46148700000003,
          "velocity": 0.9291338582677166,
          "duration": 2.824516406249998
        },
        {
          "name": "D#4",
          "midi": 63,
          "time": 54.46148400000003,
          "velocity": 0.9291338582677166,
          "duration": 0.14423062499999872
        },
        {
          "name": "G3",
          "midi": 55,
          "time": 54.46148400000003,
          "velocity": 0.9291338582677166,
          "duration": 0.15624984374999684
        },
        {
          "name": "A#3",
          "midi": 58,
          "time": 54.46148400000003,
          "velocity": 0.9291338582677166,
          "duration": 0.1394229375000009
        },
        {
          "name": "D#4",
          "midi": 63,
          "time": 54.69225300000002,
          "velocity": 0.9291338582677166,
          "duration": 0.14182678125000336
        },
        {
          "name": "A#3",
          "midi": 58,
          "time": 54.69225300000002,
          "velocity": 0.9291338582677166,
          "duration": 0.12499987500000032
        },
        {
          "name": "G3",
          "midi": 55,
          "time": 54.69225300000002,
          "velocity": 0.9291338582677166,
          "duration": 0.12740371875000278
        },
        {
          "name": "A3",
          "midi": 57,
          "time": 54.923022000000024,
          "velocity": 0.9291338582677166,
          "duration": 0.10817296874999727
        },
        {
          "name": "C4",
          "midi": 60,
          "time": 54.923022000000024,
          "velocity": 0.9291338582677166,
          "duration": 0.09615374999999915
        },
        {
          "name": "F4",
          "midi": 65,
          "time": 54.923022000000024,
          "velocity": 0.9291338582677166,
          "duration": 0.16346137499999713
        },
        {
          "name": "D#4",
          "midi": 63,
          "time": 55.15379100000002,
          "velocity": 0.9291338582677166,
          "duration": 2.593747406250003
        },
        {
          "name": "A#3",
          "midi": 58,
          "time": 55.15379100000002,
          "velocity": 0.9291338582677166,
          "duration": 2.5697089687499997
        },
        {
          "name": "G3",
          "midi": 55,
          "time": 55.15379100000002,
          "velocity": 0.9291338582677166,
          "duration": 2.5697089687499997
        },
        {
          "name": "A#4",
          "midi": 70,
          "time": 58.15378800000002,
          "velocity": 0.9291338582677166,
          "duration": 0.07451915624999828
        },
        {
          "name": "F4",
          "midi": 65,
          "time": 58.15378800000002,
          "velocity": 0.9291338582677166,
          "duration": 0.06971146875000045
        },
        {
          "name": "D4",
          "midi": 62,
          "time": 58.15378800000002,
          "velocity": 0.9291338582677166,
          "duration": 0.08173068749999857
        },
        {
          "name": "C4",
          "midi": 60,
          "time": 58.61532600000002,
          "velocity": 0.9291338582677166,
          "duration": 0.09374990625000379
        },
        {
          "name": "A4",
          "midi": 69,
          "time": 58.61532600000002,
          "velocity": 0.9291338582677166,
          "duration": 0.09134606250000132
        },
        {
          "name": "F4",
          "midi": 65,
          "time": 58.61532600000002,
          "velocity": 0.9291338582677166,
          "duration": 0.08894221874999886
        },
        {
          "name": "D#4",
          "midi": 63,
          "time": 58.84609500000002,
          "velocity": 0.9291338582677166,
          "duration": 2.548074374999999
        },
        {
          "name": "A#3",
          "midi": 58,
          "time": 58.84609500000002,
          "velocity": 0.9291338582677166,
          "duration": 2.5576897500000015
        },
        {
          "name": "G4",
          "midi": 67,
          "time": 58.84609500000002,
          "velocity": 0.9291338582677166,
          "duration": 2.5793243437500024
        },
        {
          "name": "G3",
          "midi": 55,
          "time": 61.84609200000002,
          "velocity": 0.9291338582677166,
          "duration": 0.18028828125000018
        },
        {
          "name": "D#4",
          "midi": 63,
          "time": 61.84609200000002,
          "velocity": 0.9291338582677166,
          "duration": 0.22355746875000193
        },
        {
          "name": "A#3",
          "midi": 58,
          "time": 61.84609200000002,
          "velocity": 0.9291338582677166,
          "duration": 0.18028828125000018
        },
        {
          "name": "A3",
          "midi": 57,
          "time": 62.07686100000002,
          "velocity": 0.9291338582677166,
          "duration": 0.06971146875000045
        },
        {
          "name": "C4",
          "midi": 60,
          "time": 62.07686100000002,
          "velocity": 0.9291338582677166,
          "duration": 0.07211531250000291
        },
        {
          "name": "F4",
          "midi": 65,
          "time": 62.07686100000002,
          "velocity": 0.9291338582677166,
          "duration": 0.11057681249999973
        },
        {
          "name": "G3",
          "midi": 55,
          "time": 62.53839900000002,
          "velocity": 0.9291338582677166,
          "duration": 2.8437471562499965
        },
        {
          "name": "A#3",
          "midi": 58,
          "time": 62.53839900000002,
          "velocity": 0.9291338582677166,
          "duration": 2.846150999999999
        },
        {
          "name": "D#4",
          "midi": 63,
          "time": 62.53839900000002,
          "velocity": 0.9291338582677166,
          "duration": 2.841343312499994
        },
        {
          "name": "F3",
          "midi": 53,
          "time": 65.53839600000002,
          "velocity": 0.9291338582677166,
          "duration": 0.17548059374999525
        },
        {
          "name": "A#3",
          "midi": 58,
          "time": 65.53839600000002,
          "velocity": 0.9291338582677166,
          "duration": 0.16826906250000206
        },
        {
          "name": "D4",
          "midi": 62,
          "time": 65.53839600000002,
          "velocity": 0.9291338582677166,
          "duration": 0.1658652187499996
        },
        {
          "name": "F3",
          "midi": 53,
          "time": 65.76916500000002,
          "velocity": 0.9291338582677166,
          "duration": 0.11057681249999973
        },
        {
          "name": "D4",
          "midi": 62,
          "time": 65.76916500000002,
          "velocity": 0.9291338582677166,
          "duration": 0.08413453125000103
        },
        {
          "name": "A#3",
          "midi": 58,
          "time": 65.76916500000002,
          "velocity": 0.9291338582677166,
          "duration": 0.09615374999999915
        },
        {
          "name": "C4",
          "midi": 60,
          "time": 65.99993400000001,
          "velocity": 0.9291338582677166,
          "duration": 0.0865383750000035
        },
        {
          "name": "A3",
          "midi": 57,
          "time": 65.99993400000001,
          "velocity": 0.9291338582677166,
          "duration": 0.07211531250000291
        },
        {
          "name": "F3",
          "midi": 53,
          "time": 65.99993400000001,
          "velocity": 0.9291338582677166,
          "duration": 0.08894221875000596
        },
        {
          "name": "D#4",
          "midi": 63,
          "time": 66.23070300000002,
          "velocity": 0.9291338582677166,
          "duration": 2.846151000000006
        },
        {
          "name": "G3",
          "midi": 55,
          "time": 66.23070300000002,
          "velocity": 0.9291338582677166,
          "duration": 2.8822086562500004
        },
        {
          "name": "A#3",
          "midi": 58,
          "time": 66.23070300000002,
          "velocity": 0.9291338582677166,
          "duration": 2.872593281250005
        },
        {
          "name": "G3",
          "midi": 55,
          "time": 69.23070000000001,
          "velocity": 0.9291338582677166,
          "duration": 0.1394229375000009
        },
        {
          "name": "D#4",
          "midi": 63,
          "time": 69.23070000000001,
          "velocity": 0.9291338582677166,
          "duration": 0.17788443749999772
        },
        {
          "name": "A#3",
          "midi": 58,
          "time": 69.23070000000001,
          "velocity": 0.9291338582677166,
          "duration": 0.15384600000000148
        },
        {
          "name": "C4",
          "midi": 60,
          "time": 69.46146900000001,
          "velocity": 0.9291338582677166,
          "duration": 0.06490378124999552
        },
        {
          "name": "A3",
          "midi": 57,
          "time": 69.46146900000001,
          "velocity": 0.9291338582677166,
          "duration": 0.08173068749999857
        },
        {
          "name": "F4",
          "midi": 65,
          "time": 69.46146900000001,
          "velocity": 0.9291338582677166,
          "duration": 0.12980756250000525
        },
        {
          "name": "G3",
          "midi": 55,
          "time": 69.92300700000001,
          "velocity": 0.9291338582677166,
          "duration": 2.5072090312499995
        },
        {
          "name": "D#4",
          "midi": 63,
          "time": 69.92300700000001,
          "velocity": 0.9291338582677166,
          "duration": 2.5312474687499957
        },
        {
          "name": "A#3",
          "midi": 58,
          "time": 69.92300700000001,
          "velocity": 0.9291338582677166,
          "duration": 2.52163209375
        },
        {
          "name": "A#4",
          "midi": 70,
          "time": 72.923004,
          "velocity": 0.9291338582677166,
          "duration": 0.16826906250000206
        },
        {
          "name": "D4",
          "midi": 62,
          "time": 72.923004,
          "velocity": 0.9291338582677166,
          "duration": 0.18028828125000018
        },
        {
          "name": "F4",
          "midi": 65,
          "time": 72.923004,
          "velocity": 0.9291338582677166,
          "duration": 0.17788443749999772
        },
        {
          "name": "A#4",
          "midi": 70,
          "time": 73.153773,
          "velocity": 0.9291338582677166,
          "duration": 0.11778834374999292
        },
        {
          "name": "D4",
          "midi": 62,
          "time": 73.153773,
          "velocity": 0.9291338582677166,
          "duration": 0.13461524999999597
        },
        {
          "name": "F4",
          "midi": 65,
          "time": 73.153773,
          "velocity": 0.9291338582677166,
          "duration": 0.12980756249999104
        },
        {
          "name": "B4",
          "midi": 71,
          "time": 73.384542,
          "velocity": 0.9291338582677166,
          "duration": 0.04326918750000175
        },
        {
          "name": "C4",
          "midi": 60,
          "time": 73.384542,
          "velocity": 0.9291338582677166,
          "duration": 0.06971146875000045
        },
        {
          "name": "A4",
          "midi": 69,
          "time": 73.384542,
          "velocity": 0.9291338582677166,
          "duration": 0.055288406249999866
        },
        {
          "name": "F4",
          "midi": 65,
          "time": 73.384542,
          "velocity": 0.9291338582677166,
          "duration": 0.06490378124999552
        },
        {
          "name": "D#4",
          "midi": 63,
          "time": 73.61531099999999,
          "velocity": 0.9291338582677166,
          "duration": 2.581728187500005
        },
        {
          "name": "A#3",
          "midi": 58,
          "time": 73.61531099999999,
          "velocity": 0.9291338582677166,
          "duration": 2.6009589375000104
        },
        {
          "name": "G4",
          "midi": 67,
          "time": 73.61531099999999,
          "velocity": 0.9291338582677166,
          "duration": 2.6081704687500036
        },
        {
          "name": "G3",
          "midi": 55,
          "time": 76.615308,
          "velocity": 0.9291338582677166,
          "duration": 0.15384600000000148
        },
        {
          "name": "D#4",
          "midi": 63,
          "time": 76.615308,
          "velocity": 0.9291338582677166,
          "duration": 0.17788443749999772
        },
        {
          "name": "A#3",
          "midi": 58,
          "time": 76.615308,
          "velocity": 0.9291338582677166,
          "duration": 0.16826906250000206
        },
        {
          "name": "A3",
          "midi": 57,
          "time": 76.846077,
          "velocity": 0.9291338582677166,
          "duration": 0.08173068749999857
        },
        {
          "name": "C4",
          "midi": 60,
          "time": 76.846077,
          "velocity": 0.9291338582677166,
          "duration": 0.07211531250000291
        },
        {
          "name": "F4",
          "midi": 65,
          "time": 76.846077,
          "velocity": 0.9291338582677166,
          "duration": 0.12019218749999538
        },
        {
          "name": "G3",
          "midi": 55,
          "time": 77.30761499999998,
          "velocity": 0.9291338582677166,
          "duration": 2.8269202500000006
        },
        {
          "name": "D#4",
          "midi": 63,
          "time": 77.30761499999998,
          "velocity": 0.9291338582677166,
          "duration": 2.7307665000000014
        },
        {
          "name": "A#3",
          "midi": 58,
          "time": 77.30761499999998,
          "velocity": 0.9291338582677166,
          "duration": 2.752401093749995
        },
        {
          "name": "A3",
          "midi": 57,
          "time": 80.30761199999999,
          "velocity": 0.9291338582677166,
          "duration": 0.20192287499999395
        },
        {
          "name": "C4",
          "midi": 60,
          "time": 80.53838099999999,
          "velocity": 0.9291338582677166,
          "duration": 0.13461524999999597
        },
        {
          "name": "A3",
          "midi": 57,
          "time": 80.99991899999998,
          "velocity": 0.9291338582677166,
          "duration": 0.5288456250000024
        },
        {
          "name": "F3",
          "midi": 53,
          "time": 80.99991899999998,
          "velocity": 0.9291338582677166,
          "duration": 0.3774034687500034
        },
        {
          "name": "C4",
          "midi": 60,
          "time": 80.99991899999998,
          "velocity": 0.9291338582677166,
          "duration": 0.5456725312500055
        },
        {
          "name": "F3",
          "midi": 53,
          "time": 81.46145699999998,
          "velocity": 0.9291338582677166,
          "duration": 0.12980756250000525
        },
        {
          "name": "E3",
          "midi": 52,
          "time": 81.69222599999999,
          "velocity": 0.9291338582677166,
          "duration": 0.1322114062500077
        },
        {
          "name": "C4",
          "midi": 60,
          "time": 81.69222599999999,
          "velocity": 0.9291338582677166,
          "duration": 0.16105753125000888
        },
        {
          "name": "G3",
          "midi": 55,
          "time": 81.69222599999999,
          "velocity": 0.9291338582677166,
          "duration": 0.10096143750000408
        },
        {
          "name": "C4",
          "midi": 60,
          "time": 81.922995,
          "velocity": 0.9291338582677166,
          "duration": 0.0528845624999974
        },
        {
          "name": "A3",
          "midi": 57,
          "time": 82.153764,
          "velocity": 0.9291338582677166,
          "duration": 0.10096143750000408
        },
        {
          "name": "F3",
          "midi": 53,
          "time": 82.153764,
          "velocity": 0.9291338582677166,
          "duration": 0.1201921875000096
        },
        {
          "name": "C4",
          "midi": 60,
          "time": 82.153764,
          "velocity": 0.9291338582677166,
          "duration": 0.1394229375000151
        },
        {
          "name": "A#3",
          "midi": 58,
          "time": 82.84607100000001,
          "velocity": 0.9291338582677166,
          "duration": 0.5817301874999998
        },
        {
          "name": "F3",
          "midi": 53,
          "time": 82.84607100000001,
          "velocity": 0.9291338582677166,
          "duration": 0.46874953124999763
        },
        {
          "name": "D4",
          "midi": 62,
          "time": 82.84607100000001,
          "velocity": 0.9291338582677166,
          "duration": 0.5985570937500029
        },
        {
          "name": "F3",
          "midi": 53,
          "time": 83.4229935,
          "velocity": 0.9291338582677166,
          "duration": 0.06249993750000726
        },
        {
          "name": "C4",
          "midi": 60,
          "time": 83.53837800000001,
          "velocity": 0.9291338582677166,
          "duration": 0.14182678125000336
        },
        {
          "name": "A3",
          "midi": 57,
          "time": 83.53837800000001,
          "velocity": 0.9291338582677166,
          "duration": 0.12499987500000032
        },
        {
          "name": "F3",
          "midi": 53,
          "time": 83.53837800000001,
          "velocity": 0.9291338582677166,
          "duration": 0.15624984375000395
        },
        {
          "name": "F3",
          "midi": 53,
          "time": 83.99991600000001,
          "velocity": 0.9291338582677166,
          "duration": 0.1322114062500077
        },
        {
          "name": "D4",
          "midi": 62,
          "time": 83.99991600000001,
          "velocity": 0.9291338582677166,
          "duration": 0.15384600000000148
        },
        {
          "name": "A#3",
          "midi": 58,
          "time": 83.99991600000001,
          "velocity": 0.9291338582677166,
          "duration": 0.12740371875000278
        },
        {
          "name": "A#3",
          "midi": 58,
          "time": 84.23068500000001,
          "velocity": 0.9291338582677166,
          "duration": 0.01682690625000305
        },
        {
          "name": "F3",
          "midi": 53,
          "time": 84.23068500000001,
          "velocity": 0.9291338582677166,
          "duration": 0.04807687500000668
        },
        {
          "name": "D4",
          "midi": 62,
          "time": 84.23068500000001,
          "velocity": 0.9291338582677166,
          "duration": 0.0600960937500048
        },
        {
          "name": "G3",
          "midi": 55,
          "time": 84.69222300000001,
          "velocity": 0.9291338582677166,
          "duration": 0.5649032812499968
        },
        {
          "name": "E4",
          "midi": 64,
          "time": 84.69222300000001,
          "velocity": 0.9291338582677166,
          "duration": 0.5985570937500029
        },
        {
          "name": "C4",
          "midi": 60,
          "time": 84.69222300000001,
          "velocity": 0.9291338582677166,
          "duration": 0.5985570937500029
        },
        {
          "name": "F4",
          "midi": 65,
          "time": 85.38453000000001,
          "velocity": 0.9291338582677166,
          "duration": 0.19471134375000076
        },
        {
          "name": "A3",
          "midi": 57,
          "time": 85.38453000000001,
          "velocity": 0.9291338582677166,
          "duration": 0.20432671875001063
        },
        {
          "name": "C4",
          "midi": 60,
          "time": 85.38453000000001,
          "velocity": 0.9291338582677166,
          "duration": 0.1995190312500057
        },
        {
          "name": "A3",
          "midi": 57,
          "time": 85.84606800000002,
          "velocity": 0.9291338582677166,
          "duration": 0.17307674999999278
        },
        {
          "name": "F4",
          "midi": 65,
          "time": 85.84606800000002,
          "velocity": 0.9291338582677166,
          "duration": 0.24278821874999323
        },
        {
          "name": "C4",
          "midi": 60,
          "time": 85.84606800000002,
          "velocity": 0.9291338582677166,
          "duration": 0.16105753124999467
        },
        {
          "name": "G3",
          "midi": 55,
          "time": 86.07683700000001,
          "velocity": 0.9291338582677166,
          "duration": 0.07451915624999117
        },
        {
          "name": "E4",
          "midi": 64,
          "time": 86.07683700000001,
          "velocity": 0.9291338582677166,
          "duration": 0.09615374999998494
        },
        {
          "name": "C4",
          "midi": 60,
          "time": 86.07683700000001,
          "velocity": 0.9291338582677166,
          "duration": 0.08413453124998682
        },
        {
          "name": "E4",
          "midi": 64,
          "time": 86.538375,
          "velocity": 0.9291338582677166,
          "duration": 0.6081724687499985
        },
        {
          "name": "C4",
          "midi": 60,
          "time": 86.538375,
          "velocity": 0.9291338582677166,
          "duration": 0.6201916874999966
        },
        {
          "name": "G3",
          "midi": 55,
          "time": 86.538375,
          "velocity": 0.9291338582677166,
          "duration": 0.6057686249999961
        },
        {
          "name": "F4",
          "midi": 65,
          "time": 87.230682,
          "velocity": 0.9291338582677166,
          "duration": 0.1322114062500077
        },
        {
          "name": "C4",
          "midi": 60,
          "time": 87.230682,
          "velocity": 0.9291338582677166,
          "duration": 0.09615374999999915
        },
        {
          "name": "A3",
          "midi": 57,
          "time": 87.230682,
          "velocity": 0.9291338582677166,
          "duration": 0.11538450000000466
        },
        {
          "name": "F4",
          "midi": 65,
          "time": 87.69222,
          "velocity": 0.9291338582677166,
          "duration": 0.2115382500000038
        },
        {
          "name": "C4",
          "midi": 60,
          "time": 87.69222,
          "velocity": 0.9291338582677166,
          "duration": 0.14423062500000583
        },
        {
          "name": "A3",
          "midi": 57,
          "time": 87.69222,
          "velocity": 0.9291338582677166,
          "duration": 0.15624984375000395
        },
        {
          "name": "E4",
          "midi": 64,
          "time": 87.92298900000002,
          "velocity": 0.9291338582677166,
          "duration": 0.10817296875001148
        },
        {
          "name": "G3",
          "midi": 55,
          "time": 87.92298900000002,
          "velocity": 0.9291338582677166,
          "duration": 0.10336528125000655
        },
        {
          "name": "C4",
          "midi": 60,
          "time": 87.92298900000002,
          "velocity": 0.9291338582677166,
          "duration": 0.10096143750000408
        },
        {
          "name": "C4",
          "midi": 60,
          "time": 88.38452700000002,
          "velocity": 0.9291338582677166,
          "duration": 0.5961532499999862
        },
        {
          "name": "A3",
          "midi": 57,
          "time": 88.38452700000002,
          "velocity": 0.9291338582677166,
          "duration": 0.588941718749993
        },
        {
          "name": "F4",
          "midi": 65,
          "time": 88.38452700000002,
          "velocity": 0.9291338582677166,
          "duration": 0.6418262812499904
        },
        {
          "name": "G3",
          "midi": 55,
          "time": 89.076834,
          "velocity": 0.9291338582677166,
          "duration": 0.1466344687500083
        },
        {
          "name": "E4",
          "midi": 64,
          "time": 89.076834,
          "velocity": 0.9291338582677166,
          "duration": 0.14423062500000583
        },
        {
          "name": "C4",
          "midi": 60,
          "time": 89.076834,
          "velocity": 0.9291338582677166,
          "duration": 0.14182678125000336
        },
        {
          "name": "F4",
          "midi": 65,
          "time": 89.53837200000001,
          "velocity": 0.9291338582677166,
          "duration": 0.21634593749999453
        },
        {
          "name": "A3",
          "midi": 57,
          "time": 89.53837200000001,
          "velocity": 0.9291338582677166,
          "duration": 0.22355746874998772
        },
        {
          "name": "C4",
          "midi": 60,
          "time": 89.53837200000001,
          "velocity": 0.9291338582677166,
          "duration": 0.23557668749998584
        },
        {
          "name": "A#3",
          "midi": 58,
          "time": 90.230679,
          "velocity": 0.9291338582677166,
          "duration": 0.5528840624999987
        },
        {
          "name": "D4",
          "midi": 62,
          "time": 90.230679,
          "velocity": 0.9291338582677166,
          "duration": 0.5168264062500043
        },
        {
          "name": "F4",
          "midi": 65,
          "time": 90.230679,
          "velocity": 0.9291338582677166,
          "duration": 0.610576312500001
        },
        {
          "name": "A3",
          "midi": 57,
          "time": 90.922986,
          "velocity": 0.9291338582677166,
          "duration": 0.11778834374999292
        },
        {
          "name": "F4",
          "midi": 65,
          "time": 90.922986,
          "velocity": 0.9291338582677166,
          "duration": 0.15624984374998974
        },
        {
          "name": "C4",
          "midi": 60,
          "time": 90.922986,
          "velocity": 0.9291338582677166,
          "duration": 0.12019218749999538
        },
        {
          "name": "F4",
          "midi": 65,
          "time": 91.38452399999998,
          "velocity": 0.9291338582677166,
          "duration": 0.13701909374999843
        },
        {
          "name": "A#3",
          "midi": 58,
          "time": 91.38452399999998,
          "velocity": 0.9291338582677166,
          "duration": 0.12980756250000525
        },
        {
          "name": "D4",
          "midi": 62,
          "time": 91.38452399999998,
          "velocity": 0.9291338582677166,
          "duration": 0.12499987500000032
        },
        {
          "name": "E4",
          "midi": 64,
          "time": 92.07683099999998,
          "velocity": 0.9291338582677166,
          "duration": 0.5769224999999949
        },
        {
          "name": "G3",
          "midi": 55,
          "time": 92.07683099999998,
          "velocity": 0.9291338582677166,
          "duration": 0.5360571562499956
        },
        {
          "name": "C4",
          "midi": 60,
          "time": 92.07683099999998,
          "velocity": 0.9291338582677166,
          "duration": 0.5865378749999905
        },
        {
          "name": "A3",
          "midi": 57,
          "time": 92.76913799999997,
          "velocity": 0.9291338582677166,
          "duration": 0.2451920624999957
        },
        {
          "name": "C4",
          "midi": 60,
          "time": 92.76913799999997,
          "velocity": 0.9291338582677166,
          "duration": 0.2379805312500025
        },
        {
          "name": "F4",
          "midi": 65,
          "time": 92.76913799999997,
          "velocity": 0.9291338582677166,
          "duration": 0.12980756250000525
        },
        {
          "name": "A3",
          "midi": 57,
          "time": 93.23067599999996,
          "velocity": 0.9291338582677166,
          "duration": 0.18028828125000018
        },
        {
          "name": "F4",
          "midi": 65,
          "time": 93.23067599999996,
          "velocity": 0.9291338582677166,
          "duration": 0.23076899999999512
        },
        {
          "name": "C4",
          "midi": 60,
          "time": 93.23067599999996,
          "velocity": 0.9291338582677166,
          "duration": 0.1923074999999983
        },
        {
          "name": "G3",
          "midi": 55,
          "time": 93.46144499999996,
          "velocity": 0.9291338582677166,
          "duration": 0.11057681249999973
        },
        {
          "name": "E4",
          "midi": 64,
          "time": 93.46144499999996,
          "velocity": 0.9291338582677166,
          "duration": 0.10096143750000408
        },
        {
          "name": "C4",
          "midi": 60,
          "time": 93.46144499999996,
          "velocity": 0.9291338582677166,
          "duration": 0.09855759375000162
        },
        {
          "name": "E4",
          "midi": 64,
          "time": 93.92298299999996,
          "velocity": 0.9291338582677166,
          "duration": 0.6201916874999966
        },
        {
          "name": "C4",
          "midi": 60,
          "time": 93.92298299999996,
          "velocity": 0.9291338582677166,
          "duration": 0.6177878437499942
        },
        {
          "name": "G3",
          "midi": 55,
          "time": 93.92298299999996,
          "velocity": 0.9291338582677166,
          "duration": 0.5528840624999987
        },
        {
          "name": "F4",
          "midi": 65,
          "time": 94.61528999999996,
          "velocity": 0.9291338582677166,
          "duration": 0.16105753125000888
        },
        {
          "name": "A3",
          "midi": 57,
          "time": 94.61528999999996,
          "velocity": 0.9291338582677166,
          "duration": 0.10576912500000901
        },
        {
          "name": "C4",
          "midi": 60,
          "time": 94.61528999999996,
          "velocity": 0.9291338582677166,
          "duration": 0.07451915625000538
        },
        {
          "name": "F4",
          "midi": 65,
          "time": 95.07682799999996,
          "velocity": 0.9291338582677166,
          "duration": 0.41346112499998355
        },
        {
          "name": "A#3",
          "midi": 58,
          "time": 95.07682799999996,
          "velocity": 0.9291338582677166,
          "duration": 0.16826906249998785
        },
        {
          "name": "D4",
          "midi": 62,
          "time": 95.07682799999996,
          "velocity": 0.9291338582677166,
          "duration": 0.16105753124999467
        },
        {
          "name": "A3",
          "midi": 57,
          "time": 95.30759699999994,
          "velocity": 0.9291338582677166,
          "duration": 0.11538450000000466
        },
        {
          "name": "C4",
          "midi": 60,
          "time": 95.30759699999994,
          "velocity": 0.9291338582677166,
          "duration": 0.11538450000000466
        },
        {
          "name": "G3",
          "midi": 55,
          "time": 95.76913499999995,
          "velocity": 0.9291338582677166,
          "duration": 2.605766624999987
        },
        {
          "name": "A#3",
          "midi": 58,
          "time": 95.76913499999995,
          "velocity": 0.9291338582677166,
          "duration": 2.593747406249989
        },
        {
          "name": "D#4",
          "midi": 63,
          "time": 95.76913499999995,
          "velocity": 0.9291338582677166,
          "duration": 2.584132031249993
        },
        {
          "name": "D#4",
          "midi": 63,
          "time": 98.76913199999994,
          "velocity": 0.9291338582677166,
          "duration": 0.19951903124999149
        },
        {
          "name": "G3",
          "midi": 55,
          "time": 98.76913199999994,
          "velocity": 0.9291338582677166,
          "duration": 0.16105753124999467
        },
        {
          "name": "A#3",
          "midi": 58,
          "time": 98.76913199999994,
          "velocity": 0.9291338582677166,
          "duration": 0.16826906249998785
        },
        {
          "name": "A3",
          "midi": 57,
          "time": 98.99990099999994,
          "velocity": 0.9291338582677166,
          "duration": 0.07451915625000538
        },
        {
          "name": "C4",
          "midi": 60,
          "time": 98.99990099999994,
          "velocity": 0.9291338582677166,
          "duration": 0.07211531250000291
        },
        {
          "name": "F4",
          "midi": 65,
          "time": 98.99990099999994,
          "velocity": 0.9291338582677166,
          "duration": 0.12259603125001206
        },
        {
          "name": "G3",
          "midi": 55,
          "time": 99.46143899999996,
          "velocity": 0.9291338582677166,
          "duration": 2.649035812500003
        },
        {
          "name": "D#4",
          "midi": 63,
          "time": 99.46143899999996,
          "velocity": 0.9291338582677166,
          "duration": 2.533651312499998
        },
        {
          "name": "A#3",
          "midi": 58,
          "time": 99.46143899999996,
          "velocity": 0.9291338582677166,
          "duration": 2.649035812500003
        },
        {
          "name": "A#3",
          "midi": 58,
          "time": 102.46143599999996,
          "velocity": 0.9291338582677166,
          "duration": 0.16826906250000206
        },
        {
          "name": "D4",
          "midi": 62,
          "time": 102.46143599999996,
          "velocity": 0.9291338582677166,
          "duration": 0.1658652187499996
        },
        {
          "name": "F3",
          "midi": 53,
          "time": 102.46143599999996,
          "velocity": 0.9291338582677166,
          "duration": 0.16826906250000206
        },
        {
          "name": "F3",
          "midi": 53,
          "time": 102.69220499999996,
          "velocity": 0.9291338582677166,
          "duration": 0.12019218749999538
        },
        {
          "name": "D4",
          "midi": 62,
          "time": 102.69220499999996,
          "velocity": 0.9291338582677166,
          "duration": 0.15624984374998974
        },
        {
          "name": "A#3",
          "midi": 58,
          "time": 102.69220499999996,
          "velocity": 0.9291338582677166,
          "duration": 0.09615374999999915
        },
        {
          "name": "A3",
          "midi": 57,
          "time": 102.92297399999995,
          "velocity": 0.9291338582677166,
          "duration": 0.08894221875000596
        },
        {
          "name": "C4",
          "midi": 60,
          "time": 102.92297399999995,
          "velocity": 0.9291338582677166,
          "duration": 0.11538450000000466
        },
        {
          "name": "F3",
          "midi": 53,
          "time": 102.92297399999995,
          "velocity": 0.9291338582677166,
          "duration": 0.1129806562500022
        },
        {
          "name": "D#4",
          "midi": 63,
          "time": 103.15374299999996,
          "velocity": 0.9291338582677166,
          "duration": 2.649035812500003
        },
        {
          "name": "A#3",
          "midi": 58,
          "time": 103.15374299999996,
          "velocity": 0.9291338582677166,
          "duration": 2.533651312499998
        },
        {
          "name": "G3",
          "midi": 55,
          "time": 103.15374299999996,
          "velocity": 0.9291338582677166,
          "duration": 2.533651312499998
        },
        {
          "name": "G3",
          "midi": 55,
          "time": 106.15373999999997,
          "velocity": 0.9291338582677166,
          "duration": 0.14182678125000336
        },
        {
          "name": "D#4",
          "midi": 63,
          "time": 106.15373999999997,
          "velocity": 0.9291338582677166,
          "duration": 0.1802882812500144
        },
        {
          "name": "A#3",
          "midi": 58,
          "time": 106.15373999999997,
          "velocity": 0.9291338582677166,
          "duration": 0.16105753125000888
        },
        {
          "name": "A3",
          "midi": 57,
          "time": 106.38450899999998,
          "velocity": 0.9291338582677166,
          "duration": 0.07451915625000538
        },
        {
          "name": "C4",
          "midi": 60,
          "time": 106.38450899999998,
          "velocity": 0.9291338582677166,
          "duration": 0.07211531250000291
        },
        {
          "name": "F4",
          "midi": 65,
          "time": 106.38450899999998,
          "velocity": 0.9291338582677166,
          "duration": 0.1129806562500022
        },
        {
          "name": "G3",
          "midi": 55,
          "time": 106.84604699999998,
          "velocity": 0.9291338582677166,
          "duration": 2.8533625312499993
        },
        {
          "name": "D#4",
          "midi": 63,
          "time": 106.84604699999998,
          "velocity": 0.9291338582677166,
          "duration": 2.8269202500000006
        },
        {
          "name": "A#3",
          "midi": 58,
          "time": 106.84604699999998,
          "velocity": 0.9291338582677166,
          "duration": 2.841343312500001
        },
        {
          "name": "D4",
          "midi": 62,
          "time": 109.84604399999998,
          "velocity": 0.9291338582677166,
          "duration": 0.14663446874999408
        },
        {
          "name": "F3",
          "midi": 53,
          "time": 109.84604399999998,
          "velocity": 0.9291338582677166,
          "duration": 0.17307674999999278
        },
        {
          "name": "A#3",
          "midi": 58,
          "time": 109.84604399999998,
          "velocity": 0.9291338582677166,
          "duration": 0.17307674999999278
        },
        {
          "name": "F3",
          "midi": 53,
          "time": 110.07681299999997,
          "velocity": 0.9291338582677166,
          "duration": 0.1129806562500022
        },
        {
          "name": "D4",
          "midi": 62,
          "time": 110.07681299999997,
          "velocity": 0.9291338582677166,
          "duration": 0.13701909374999843
        },
        {
          "name": "A#3",
          "midi": 58,
          "time": 110.07681299999997,
          "velocity": 0.9291338582677166,
          "duration": 0.0865383750000035
        },
        {
          "name": "C4",
          "midi": 60,
          "time": 110.30758199999997,
          "velocity": 0.9291338582677166,
          "duration": 0.08894221874999175
        },
        {
          "name": "A3",
          "midi": 57,
          "time": 110.30758199999997,
          "velocity": 0.9291338582677166,
          "duration": 0.07692299999999364
        },
        {
          "name": "F3",
          "midi": 53,
          "time": 110.30758199999997,
          "velocity": 0.9291338582677166,
          "duration": 0.08653837499998929
        },
        {
          "name": "D#4",
          "midi": 63,
          "time": 110.53835099999996,
          "velocity": 0.9291338582677166,
          "duration": 2.533651312499998
        },
        {
          "name": "A#3",
          "midi": 58,
          "time": 110.53835099999996,
          "velocity": 0.9291338582677166,
          "duration": 2.533651312499998
        },
        {
          "name": "G3",
          "midi": 55,
          "time": 110.53835099999996,
          "velocity": 0.9291338582677166,
          "duration": 2.533651312499998
        },
        {
          "name": "G3",
          "midi": 55,
          "time": 113.53834799999996,
          "velocity": 0.9291338582677166,
          "duration": 0.14182678125000336
        },
        {
          "name": "A#3",
          "midi": 58,
          "time": 113.53834799999996,
          "velocity": 0.9291338582677166,
          "duration": 0.15624984375000395
        },
        {
          "name": "D#4",
          "midi": 63,
          "time": 113.53834799999996,
          "velocity": 0.9291338582677166,
          "duration": 0.18990365625001004
        },
        {
          "name": "A3",
          "midi": 57,
          "time": 113.76911699999997,
          "velocity": 0.9291338582677166,
          "duration": 0.08413453125000103
        },
        {
          "name": "C4",
          "midi": 60,
          "time": 113.76911699999997,
          "velocity": 0.9291338582677166,
          "duration": 0.0865383750000035
        },
        {
          "name": "F4",
          "midi": 65,
          "time": 113.76911699999997,
          "velocity": 0.9291338582677166,
          "duration": 0.1466344687500083
        },
        {
          "name": "D#4",
          "midi": 63,
          "time": 114.23065499999997,
          "velocity": 0.9291338582677166,
          "duration": 2.533651312499998
        },
        {
          "name": "A#3",
          "midi": 58,
          "time": 114.23065499999997,
          "velocity": 0.9291338582677166,
          "duration": 2.533651312499998
        },
        {
          "name": "G3",
          "midi": 55,
          "time": 114.23065499999997,
          "velocity": 0.9291338582677166,
          "duration": 2.533651312499998
        },
        {
          "name": "F3",
          "midi": 53,
          "time": 117.23065199999996,
          "velocity": 0.9291338582677166,
          "duration": 0.16826906250001628
        },
        {
          "name": "D4",
          "midi": 62,
          "time": 117.23065199999996,
          "velocity": 0.9291338582677166,
          "duration": 0.16346137500001134
        },
        {
          "name": "A#3",
          "midi": 58,
          "time": 117.23065199999996,
          "velocity": 0.9291338582677166,
          "duration": 0.1586536875000064
        },
        {
          "name": "F3",
          "midi": 53,
          "time": 117.46142099999997,
          "velocity": 0.9291338582677166,
          "duration": 0.12740371875000278
        },
        {
          "name": "D4",
          "midi": 62,
          "time": 117.46142099999997,
          "velocity": 0.9291338582677166,
          "duration": 0.10336528125000655
        },
        {
          "name": "A#3",
          "midi": 58,
          "time": 117.46142099999997,
          "velocity": 0.9291338582677166,
          "duration": 0.09855759375000162
        },
        {
          "name": "A3",
          "midi": 57,
          "time": 117.69218999999998,
          "velocity": 0.9291338582677166,
          "duration": 0.07451915625000538
        },
        {
          "name": "C4",
          "midi": 60,
          "time": 117.69218999999998,
          "velocity": 0.9291338582677166,
          "duration": 0.09615375000001336
        },
        {
          "name": "F3",
          "midi": 53,
          "time": 117.69218999999998,
          "velocity": 0.9291338582677166,
          "duration": 0.09134606250000843
        },
        {
          "name": "A#3",
          "midi": 58,
          "time": 117.92295899999999,
          "velocity": 0.9291338582677166,
          "duration": 2.533651312499998
        },
        {
          "name": "D#4",
          "midi": 63,
          "time": 117.92295899999999,
          "velocity": 0.9291338582677166,
          "duration": 2.533651312499998
        },
        {
          "name": "G3",
          "midi": 55,
          "time": 117.92295899999999,
          "velocity": 0.9291338582677166,
          "duration": 2.533651312499998
        },
        {
          "name": "G3",
          "midi": 55,
          "time": 120.92295599999999,
          "velocity": 0.9291338582677166,
          "duration": 0.13701909374999843
        },
        {
          "name": "D#4",
          "midi": 63,
          "time": 120.92295599999999,
          "velocity": 0.9291338582677166,
          "duration": 0.18028828125000018
        },
        {
          "name": "A#3",
          "midi": 58,
          "time": 120.92295599999999,
          "velocity": 0.9291338582677166,
          "duration": 0.16346137499999713
        },
        {
          "name": "A3",
          "midi": 57,
          "time": 121.15372499999998,
          "velocity": 0.9291338582677166,
          "duration": 0.08413453124998682
        },
        {
          "name": "C4",
          "midi": 60,
          "time": 121.15372499999998,
          "velocity": 0.9291338582677166,
          "duration": 0.07692299999999364
        },
        {
          "name": "F4",
          "midi": 65,
          "time": 121.15372499999998,
          "velocity": 0.9291338582677166,
          "duration": 0.13701909374998422
        },
        {
          "name": "A#3",
          "midi": 58,
          "time": 121.61526299999997,
          "velocity": 0.9291338582677166,
          "duration": 2.6129781562500085
        },
        {
          "name": "G3",
          "midi": 55,
          "time": 121.61526299999997,
          "velocity": 0.9291338582677166,
          "duration": 2.5793243437500024
        },
        {
          "name": "D#4",
          "midi": 63,
          "time": 121.61526299999997,
          "velocity": 0.9291338582677166,
          "duration": 2.632208906250014
        },
        {
          "name": "G3",
          "midi": 55,
          "time": 124.38449099999998,
          "velocity": 0.7716535433070866,
          "duration": 0.26682665624998947
        },
        {
          "name": "A3",
          "midi": 57,
          "time": 124.61525999999998,
          "velocity": 0.7716535433070866,
          "duration": 0.20913440625000135
        },
        {
          "name": "C4",
          "midi": 60,
          "time": 124.84602899999997,
          "velocity": 0.7716535433070866,
          "duration": 0.22115362499999947
        },
        {
          "name": "A3",
          "midi": 57,
          "time": 125.07679799999997,
          "velocity": 0.7716535433070866,
          "duration": 0.045673031250004215
        },
        {
          "name": "A3",
          "midi": 57,
          "time": 125.30756699999998,
          "velocity": 0.5669291338582677,
          "duration": 0.588941718749993
        },
        {
          "name": "C4",
          "midi": 60,
          "time": 125.30756699999998,
          "velocity": 0.5669291338582677,
          "duration": 0.5793263437499974
        },
        {
          "name": "F4",
          "midi": 65,
          "time": 125.30756699999998,
          "velocity": 0.5669291338582677,
          "duration": 0.6201916874999966
        },
        {
          "name": "G3",
          "midi": 55,
          "time": 125.99987399999998,
          "velocity": 0.48031496062992124,
          "duration": 0.10096143750000408
        },
        {
          "name": "E4",
          "midi": 64,
          "time": 125.99987399999998,
          "velocity": 0.48031496062992124,
          "duration": 0.13701909375001264
        },
        {
          "name": "C4",
          "midi": 60,
          "time": 125.99987399999998,
          "velocity": 0.48031496062992124,
          "duration": 0.10576912500000901
        },
        {
          "name": "A3",
          "midi": 57,
          "time": 126.461412,
          "velocity": 0.48031496062992124,
          "duration": 0.09615374999999915
        },
        {
          "name": "F4",
          "midi": 65,
          "time": 126.461412,
          "velocity": 0.48031496062992124,
          "duration": 0.1394229375000009
        },
        {
          "name": "C4",
          "midi": 60,
          "time": 126.461412,
          "velocity": 0.48031496062992124,
          "duration": 0.08173068749999857
        },
        {
          "name": "F4",
          "midi": 65,
          "time": 127.153719,
          "velocity": 0.47244094488188976,
          "duration": 0.5600955937499918
        },
        {
          "name": "D4",
          "midi": 62,
          "time": 127.153719,
          "velocity": 0.47244094488188976,
          "duration": 0.5288456250000024
        },
        {
          "name": "A#3",
          "midi": 58,
          "time": 127.153719,
          "velocity": 0.47244094488188976,
          "duration": 0.5528840624999987
        },
        {
          "name": "A3",
          "midi": 57,
          "time": 127.84602599999998,
          "velocity": 0.47244094488188976,
          "duration": 0.08413453125000103
        },
        {
          "name": "C4",
          "midi": 60,
          "time": 127.84602599999998,
          "velocity": 0.47244094488188976,
          "duration": 0.07211531250000291
        },
        {
          "name": "F4",
          "midi": 65,
          "time": 127.84602599999998,
          "velocity": 0.47244094488188976,
          "duration": 0.17067290625000453
        },
        {
          "name": "F4",
          "midi": 65,
          "time": 128.30756399999999,
          "velocity": 0.47244094488188976,
          "duration": 0.1658652187499854
        },
        {
          "name": "A#3",
          "midi": 58,
          "time": 128.30756399999999,
          "velocity": 0.47244094488188976,
          "duration": 0.13701909374998422
        },
        {
          "name": "D4",
          "midi": 62,
          "time": 128.30756399999999,
          "velocity": 0.47244094488188976,
          "duration": 0.12980756249999104
        },
        {
          "name": "G3",
          "midi": 55,
          "time": 128.99987099999998,
          "velocity": 0.47244094488188976,
          "duration": 0.5576917500000036
        },
        {
          "name": "E4",
          "midi": 64,
          "time": 128.99987099999998,
          "velocity": 0.47244094488188976,
          "duration": 0.593749406249998
        },
        {
          "name": "C4",
          "midi": 60,
          "time": 128.99987099999998,
          "velocity": 0.47244094488188976,
          "duration": 0.5913455625000097
        },
        {
          "name": "F4",
          "midi": 65,
          "time": 129.69217799999998,
          "velocity": 0.47244094488188976,
          "duration": 0.16105753125000888
        },
        {
          "name": "A3",
          "midi": 57,
          "time": 129.69217799999998,
          "velocity": 0.47244094488188976,
          "duration": 0.19471134375001498
        },
        {
          "name": "C4",
          "midi": 60,
          "time": 129.69217799999998,
          "velocity": 0.47244094488188976,
          "duration": 0.18269212500001686
        },
        {
          "name": "A3",
          "midi": 57,
          "time": 130.153716,
          "velocity": 0.47244094488188976,
          "duration": 0.17067290625001874
        },
        {
          "name": "C4",
          "midi": 60,
          "time": 130.153716,
          "velocity": 0.47244094488188976,
          "duration": 0.1658652187500138
        },
        {
          "name": "F4",
          "midi": 65,
          "time": 130.153716,
          "velocity": 0.47244094488188976,
          "duration": 0.23076900000000933
        },
        {
          "name": "E4",
          "midi": 64,
          "time": 130.384485,
          "velocity": 0.47244094488188976,
          "duration": 0.09374990624996826
        },
        {
          "name": "G3",
          "midi": 55,
          "time": 130.384485,
          "velocity": 0.47244094488188976,
          "duration": 0.09134606249998001
        },
        {
          "name": "C4",
          "midi": 60,
          "time": 130.384485,
          "velocity": 0.47244094488188976,
          "duration": 0.08413453124998682
        },
        {
          "name": "E4",
          "midi": 64,
          "time": 130.84602299999997,
          "velocity": 0.47244094488188976,
          "duration": 0.632210906250009
        },
        {
          "name": "C4",
          "midi": 60,
          "time": 130.84602299999997,
          "velocity": 0.47244094488188976,
          "duration": 0.6418262812500188
        },
        {
          "name": "G3",
          "midi": 55,
          "time": 130.84602299999997,
          "velocity": 0.47244094488188976,
          "duration": 0.6225955312499991
        },
        {
          "name": "F4",
          "midi": 65,
          "time": 131.53833,
          "velocity": 0.47244094488188976,
          "duration": 0.14663446874999408
        },
        {
          "name": "A3",
          "midi": 57,
          "time": 131.53833,
          "velocity": 0.47244094488188976,
          "duration": 0.1057691249999948
        },
        {
          "name": "C4",
          "midi": 60,
          "time": 131.53833,
          "velocity": 0.47244094488188976,
          "duration": 0.09855759375000162
        },
        {
          "name": "A3",
          "midi": 57,
          "time": 131.999868,
          "velocity": 0.47244094488188976,
          "duration": 0.16826906250000206
        },
        {
          "name": "C4",
          "midi": 60,
          "time": 131.999868,
          "velocity": 0.47244094488188976,
          "duration": 0.1658652187500138
        },
        {
          "name": "F4",
          "midi": 65,
          "time": 131.999868,
          "velocity": 0.47244094488188976,
          "duration": 0.2115382499999896
        },
        {
          "name": "C4",
          "midi": 60,
          "time": 132.23063699999997,
          "velocity": 0.47244094488188976,
          "duration": 0.12259603124999785
        },
        {
          "name": "G3",
          "midi": 55,
          "time": 132.23063699999997,
          "velocity": 0.47244094488188976,
          "duration": 0.1201921875000096
        },
        {
          "name": "E4",
          "midi": 64,
          "time": 132.23063699999997,
          "velocity": 0.47244094488188976,
          "duration": 0.14423062500000583
        },
        {
          "name": "A3",
          "midi": 57,
          "time": 132.692175,
          "velocity": 0.47244094488188976,
          "duration": 0.57211481249999
        },
        {
          "name": "F4",
          "midi": 65,
          "time": 132.692175,
          "velocity": 0.47244094488188976,
          "duration": 0.5985570937500029
        },
        {
          "name": "C4",
          "midi": 60,
          "time": 132.692175,
          "velocity": 0.47244094488188976,
          "duration": 0.57211481249999
        },
        {
          "name": "E4",
          "midi": 64,
          "time": 133.384482,
          "velocity": 0.4645669291338583,
          "duration": 0.16346137499999713
        },
        {
          "name": "G3",
          "midi": 55,
          "time": 133.384482,
          "velocity": 0.4645669291338583,
          "duration": 0.16346137499999713
        },
        {
          "name": "C4",
          "midi": 60,
          "time": 133.384482,
          "velocity": 0.4645669291338583,
          "duration": 0.16105753125000888
        },
        {
          "name": "A3",
          "midi": 57,
          "time": 133.84601999999998,
          "velocity": 0.4645669291338583,
          "duration": 0.1322114062499793
        },
        {
          "name": "C4",
          "midi": 60,
          "time": 133.84601999999998,
          "velocity": 0.4645669291338583,
          "duration": 0.1249998749999861
        },
        {
          "name": "F4",
          "midi": 65,
          "time": 133.84601999999998,
          "velocity": 0.4645669291338583,
          "duration": 0.1634613749999687
        },
        {
          "name": "D4",
          "midi": 62,
          "time": 134.53832699999995,
          "velocity": 0.4645669291338583,
          "duration": 0.5312494687499907
        },
        {
          "name": "A#3",
          "midi": 58,
          "time": 134.53832699999995,
          "velocity": 0.4645669291338583,
          "duration": 0.5649032812499968
        },
        {
          "name": "F4",
          "midi": 65,
          "time": 134.53832699999995,
          "velocity": 0.4645669291338583,
          "duration": 0.5769224999999949
        },
        {
          "name": "A3",
          "midi": 57,
          "time": 135.23063399999995,
          "velocity": 0.4645669291338583,
          "duration": 0.11057681249999973
        },
        {
          "name": "F4",
          "midi": 65,
          "time": 135.23063399999995,
          "velocity": 0.4645669291338583,
          "duration": 0.1394229375000009
        },
        {
          "name": "C4",
          "midi": 60,
          "time": 135.23063399999995,
          "velocity": 0.4645669291338583,
          "duration": 0.10817296875001148
        },
        {
          "name": "F4",
          "midi": 65,
          "time": 135.69217199999994,
          "velocity": 0.4645669291338583,
          "duration": 0.13461524999999597
        },
        {
          "name": "A#3",
          "midi": 58,
          "time": 135.69217199999994,
          "velocity": 0.4645669291338583,
          "duration": 0.14182678124998915
        },
        {
          "name": "D4",
          "midi": 62,
          "time": 135.69217199999994,
          "velocity": 0.4645669291338583,
          "duration": 0.13701909374998422
        },
        {
          "name": "E4",
          "midi": 64,
          "time": 136.38447899999994,
          "velocity": 0.4645669291338583,
          "duration": 0.5841340312499881
        },
        {
          "name": "C4",
          "midi": 60,
          "time": 136.38447899999994,
          "velocity": 0.4645669291338583,
          "duration": 0.5817301874999998
        },
        {
          "name": "G3",
          "midi": 55,
          "time": 136.38447899999994,
          "velocity": 0.4645669291338583,
          "duration": 0.5624994375000085
        },
        {
          "name": "A3",
          "midi": 57,
          "time": 137.07678599999994,
          "velocity": 0.4645669291338583,
          "duration": 0.10096143749998987
        },
        {
          "name": "F4",
          "midi": 65,
          "time": 137.07678599999994,
          "velocity": 0.4645669291338583,
          "duration": 0.11538449999997624
        },
        {
          "name": "C4",
          "midi": 60,
          "time": 137.07678599999994,
          "velocity": 0.4645669291338583,
          "duration": 0.12019218749998117
        },
        {
          "name": "C4",
          "midi": 60,
          "time": 137.53832399999993,
          "velocity": 0.4645669291338583,
          "duration": 0.1658652187500138
        },
        {
          "name": "A3",
          "midi": 57,
          "time": 137.53832399999993,
          "velocity": 0.4645669291338583,
          "duration": 0.15624984375000395
        },
        {
          "name": "F4",
          "midi": 65,
          "time": 137.53832399999993,
          "velocity": 0.4645669291338583,
          "duration": 0.23317284374999758
        },
        {
          "name": "G3",
          "midi": 55,
          "time": 137.76909299999994,
          "velocity": 0.4645669291338583,
          "duration": 0.08653837499997508
        },
        {
          "name": "E4",
          "midi": 64,
          "time": 137.76909299999994,
          "velocity": 0.4645669291338583,
          "duration": 0.0985575937499732
        },
        {
          "name": "C4",
          "midi": 60,
          "time": 137.76909299999994,
          "velocity": 0.4645669291338583,
          "duration": 0.08653837499997508
        },
        {
          "name": "E4",
          "midi": 64,
          "time": 138.2306309999999,
          "velocity": 0.4645669291338583,
          "duration": 0.6177878437499942
        },
        {
          "name": "G3",
          "midi": 55,
          "time": 138.2306309999999,
          "velocity": 0.4645669291338583,
          "duration": 0.593749406249998
        },
        {
          "name": "C4",
          "midi": 60,
          "time": 138.2306309999999,
          "velocity": 0.4645669291338583,
          "duration": 0.6201916874999824
        },
        {
          "name": "A3",
          "midi": 57,
          "time": 138.92293799999987,
          "velocity": 0.4645669291338583,
          "duration": 0.1057691249999948
        },
        {
          "name": "F4",
          "midi": 65,
          "time": 138.92293799999987,
          "velocity": 0.4645669291338583,
          "duration": 0.12259603124999785
        },
        {
          "name": "C4",
          "midi": 60,
          "time": 138.92293799999987,
          "velocity": 0.4645669291338583,
          "duration": 0.09134606250000843
        },
        {
          "name": "F4",
          "midi": 65,
          "time": 139.15370699999988,
          "velocity": 0.4645669291338583,
          "duration": 0.04807687499999247
        },
        {
          "name": "A3",
          "midi": 57,
          "time": 139.38447599999986,
          "velocity": 0.4645669291338583,
          "duration": 0.16346137499999713
        },
        {
          "name": "C4",
          "midi": 60,
          "time": 139.38447599999986,
          "velocity": 0.4645669291338583,
          "duration": 0.173076750000007
        },
        {
          "name": "F4",
          "midi": 65,
          "time": 139.38447599999986,
          "velocity": 0.4645669291338583,
          "duration": 0.21394209375000628
        },
        {
          "name": "E4",
          "midi": 64,
          "time": 139.61524499999987,
          "velocity": 0.4645669291338583,
          "duration": 0.10336528124997812
        },
        {
          "name": "G3",
          "midi": 55,
          "time": 139.61524499999987,
          "velocity": 0.4645669291338583,
          "duration": 0.10096143749998987
        },
        {
          "name": "C4",
          "midi": 60,
          "time": 139.61524499999987,
          "velocity": 0.4645669291338583,
          "duration": 0.10336528124997812
        },
        {
          "name": "A#3",
          "midi": 58,
          "time": 140.07678299999986,
          "velocity": 0.4566929133858268,
          "duration": 0.5745186562500066
        },
        {
          "name": "F4",
          "midi": 65,
          "time": 140.07678299999986,
          "velocity": 0.4566929133858268,
          "duration": 0.6370185937500139
        },
        {
          "name": "D4",
          "midi": 62,
          "time": 140.07678299999986,
          "velocity": 0.4566929133858268,
          "duration": 0.6009609375000196
        },
        {
          "name": "F4",
          "midi": 65,
          "time": 140.7690899999999,
          "velocity": 0.4566929133858268,
          "duration": 0.13461524999999597
        },
        {
          "name": "D4",
          "midi": 62,
          "time": 140.7690899999999,
          "velocity": 0.4566929133858268,
          "duration": 0.14423062500000583
        },
        {
          "name": "A#3",
          "midi": 58,
          "time": 140.7690899999999,
          "velocity": 0.4566929133858268,
          "duration": 0.18028828125000018
        },
        {
          "name": "F4",
          "midi": 65,
          "time": 141.23062799999988,
          "velocity": 0.4566929133858268,
          "duration": 0.20432671874999642
        },
        {
          "name": "A#3",
          "midi": 58,
          "time": 141.23062799999988,
          "velocity": 0.4566929133858268,
          "duration": 0.22115362499999947
        },
        {
          "name": "D4",
          "midi": 62,
          "time": 141.23062799999988,
          "velocity": 0.4566929133858268,
          "duration": 0.20432671874999642
        },
        {
          "name": "A#3",
          "midi": 58,
          "time": 141.69216599999987,
          "velocity": 0.4566929133858268,
          "duration": 0.07692299999999364
        },
        {
          "name": "F4",
          "midi": 65,
          "time": 141.92293499999985,
          "velocity": 0.4566929133858268,
          "duration": 1.014422062499989
        },
        {
          "name": "D4",
          "midi": 62,
          "time": 141.92293499999985,
          "velocity": 0.4566929133858268,
          "duration": 1.004806687499979
        },
        {
          "name": "A#3",
          "midi": 58,
          "time": 141.92293499999985,
          "velocity": 0.4566929133858268,
          "duration": 0.8798068124999929
        },
        {
          "name": "A#3",
          "midi": 58,
          "time": 142.84601099999983,
          "velocity": 0.4566929133858268,
          "duration": 0.1057691249999948
        },
        {
          "name": "B3",
          "midi": 59,
          "time": 143.07677999999981,
          "velocity": 0.4566929133858268,
          "duration": 0.0528845624999974
        },
        {
          "name": "A3",
          "midi": 57,
          "time": 143.07677999999981,
          "velocity": 0.4566929133858268,
          "duration": 0.32932659375001094
        },
        {
          "name": "F4",
          "midi": 65,
          "time": 143.07677999999981,
          "velocity": 0.4566929133858268,
          "duration": 0.3389419687500208
        },
        {
          "name": "D4",
          "midi": 62,
          "time": 143.07677999999981,
          "velocity": 0.4566929133858268,
          "duration": 0.3509611875000189
        },
        {
          "name": "A3",
          "midi": 57,
          "time": 143.53831799999983,
          "velocity": 0.4566929133858268,
          "duration": 0.36298040625001704
        },
        {
          "name": "F4",
          "midi": 65,
          "time": 143.53831799999983,
          "velocity": 0.4566929133858268,
          "duration": 0.3581727187500121
        },
        {
          "name": "D4",
          "midi": 62,
          "time": 143.53831799999983,
          "velocity": 0.4566929133858268,
          "duration": 0.346153500000014
        },
        {
          "name": "G3",
          "midi": 55,
          "time": 143.99985599999985,
          "velocity": 0.4566929133858268,
          "duration": 0.3509611875000189
        },
        {
          "name": "C4",
          "midi": 60,
          "time": 143.99985599999985,
          "velocity": 0.4566929133858268,
          "duration": 0.5216340937500092
        },
        {
          "name": "F4",
          "midi": 65,
          "time": 143.99985599999985,
          "velocity": 0.4566929133858268,
          "duration": 0.2812497187500185
        },
        {
          "name": "E4",
          "midi": 64,
          "time": 144.23062499999986,
          "velocity": 0.4566929133858268,
          "duration": 0.27644203125001354
        },
        {
          "name": "G3",
          "midi": 55,
          "time": 144.46139399999987,
          "velocity": 0.4566929133858268,
          "duration": 0.1057691249999948
        },
        {
          "name": "G3",
          "midi": 55,
          "time": 144.69216299999985,
          "velocity": 0.4566929133858268,
          "duration": 2.1971131875000083
        },
        {
          "name": "E4",
          "midi": 64,
          "time": 144.69216299999985,
          "velocity": 0.4566929133858268,
          "duration": 2.3966322187499998
        },
        {
          "name": "C4",
          "midi": 60,
          "time": 144.69216299999985,
          "velocity": 0.4566929133858268,
          "duration": 2.4062475937500096
        },
        {
          "name": "G3",
          "midi": 55,
          "time": 146.99985299999986,
          "velocity": 0.5669291338582677,
          "duration": 0.18990365625001004
        },
        {
          "name": "G3",
          "midi": 55,
          "time": 147.23062199999987,
          "velocity": 0.5669291338582677,
          "duration": 0.1322114062500077
        },
        {
          "name": "E4",
          "midi": 64,
          "time": 147.23062199999987,
          "velocity": 0.5669291338582677,
          "duration": 0.14182678125001758
        },
        {
          "name": "C4",
          "midi": 60,
          "time": 147.23062199999987,
          "velocity": 0.5669291338582677,
          "duration": 0.1322114062500077
        },
        {
          "name": "F4",
          "midi": 65,
          "time": 147.6921599999999,
          "velocity": 0.5748031496062992,
          "duration": 1.4134601250000003
        },
        {
          "name": "A#3",
          "midi": 58,
          "time": 147.6921599999999,
          "velocity": 0.5748031496062992,
          "duration": 1.4134601250000003
        },
        {
          "name": "D4",
          "midi": 62,
          "time": 147.6921599999999,
          "velocity": 0.5748031496062992,
          "duration": 1.4278831874999867
        },
        {
          "name": "F4",
          "midi": 65,
          "time": 149.30754299999987,
          "velocity": 0.5748031496062992,
          "duration": 1.9759595625000088
        },
        {
          "name": "A#3",
          "midi": 58,
          "time": 149.30754299999987,
          "velocity": 0.5748031496062992,
          "duration": 1.7115367499999934
        },
        {
          "name": "D4",
          "midi": 62,
          "time": 149.30754299999987,
          "velocity": 0.5748031496062992,
          "duration": 1.7379790312500063
        },
        {
          "name": "G#3",
          "midi": 56,
          "time": 151.38446399999987,
          "velocity": 0.5826771653543307,
          "duration": 0.17548059374999525
        },
        {
          "name": "C4",
          "midi": 60,
          "time": 151.38446399999987,
          "velocity": 0.5826771653543307,
          "duration": 0.11057681249999973
        },
        {
          "name": "E4",
          "midi": 64,
          "time": 151.38446399999987,
          "velocity": 0.5826771653543307,
          "duration": 0.11057681249999973
        },
        {
          "name": "G4",
          "midi": 67,
          "time": 153.23061599999986,
          "velocity": 0.9763779527559056,
          "duration": 0.09374990624999668
        },
        {
          "name": "G4",
          "midi": 67,
          "time": 153.46138499999986,
          "velocity": 0.9763779527559056,
          "duration": 0.12740371875000278
        },
        {
          "name": "F4",
          "midi": 65,
          "time": 153.69215399999987,
          "velocity": 0.9763779527559056,
          "duration": 0.1057691249999948
        },
        {
          "name": "F4",
          "midi": 65,
          "time": 153.92292299999986,
          "velocity": 0.9763779527559056,
          "duration": 0.10096143749998987
        },
        {
          "name": "D#4",
          "midi": 63,
          "time": 154.03830749999983,
          "velocity": 0.9763779527559056,
          "duration": 0.06249993750000726
        },
        {
          "name": "D#4",
          "midi": 63,
          "time": 154.26907649999984,
          "velocity": 0.9763779527559056,
          "duration": 0.06971146875000045
        },
        {
          "name": "D#4",
          "midi": 63,
          "time": 154.38446099999985,
          "velocity": 0.9763779527559056,
          "duration": 0.05769225000000233
        },
        {
          "name": "D4",
          "midi": 62,
          "time": 154.61522999999985,
          "velocity": 0.9763779527559056,
          "duration": 0.06971146875000045
        },
        {
          "name": "C4",
          "midi": 60,
          "time": 154.84599899999986,
          "velocity": 0.9763779527559056,
          "duration": 0.04807687499999247
        },
        {
          "name": "G4",
          "midi": 67,
          "time": 155.07676799999984,
          "velocity": 0.984251968503937,
          "duration": 0.06009609374999059
        },
        {
          "name": "G4",
          "midi": 67,
          "time": 155.30753699999983,
          "velocity": 0.984251968503937,
          "duration": 0.05769225000000233
        },
        {
          "name": "F4",
          "midi": 65,
          "time": 155.53830599999984,
          "velocity": 0.984251968503937,
          "duration": 0.05769225000000233
        },
        {
          "name": "F4",
          "midi": 65,
          "time": 155.76907499999984,
          "velocity": 0.984251968503937,
          "duration": 0.07692299999999364
        },
        {
          "name": "D#4",
          "midi": 63,
          "time": 155.88445949999985,
          "velocity": 0.984251968503937,
          "duration": 0.0528845624999974
        },
        {
          "name": "D#4",
          "midi": 63,
          "time": 156.11522849999986,
          "velocity": 0.984251968503937,
          "duration": 0.03846150000001103
        },
        {
          "name": "D#4",
          "midi": 63,
          "time": 156.23061299999986,
          "velocity": 0.984251968503937,
          "duration": 0.06971146875000045
        },
        {
          "name": "D4",
          "midi": 62,
          "time": 156.46138199999987,
          "velocity": 0.984251968503937,
          "duration": 0.0528845624999974
        },
        {
          "name": "G4",
          "midi": 67,
          "time": 156.92291999999986,
          "velocity": 0.5905511811023622,
          "duration": 2.516824406249981
        },
        {
          "name": "D#4",
          "midi": 63,
          "time": 156.92291999999986,
          "velocity": 0.5905511811023622,
          "duration": 2.4399014062499873
        },
        {
          "name": "A#3",
          "midi": 58,
          "time": 156.92291999999986,
          "velocity": 0.5905511811023622,
          "duration": 2.4423052499999756
        },
        {
          "name": "A#4",
          "midi": 70,
          "time": 159.69214799999983,
          "velocity": 0.8188976377952756,
          "duration": 0.16346137499999713
        },
        {
          "name": "D4",
          "midi": 62,
          "time": 159.69214799999983,
          "velocity": 0.8188976377952756,
          "duration": 0.16826906249997364
        },
        {
          "name": "F4",
          "midi": 65,
          "time": 159.69214799999983,
          "velocity": 0.8188976377952756,
          "duration": 0.1658652187499854
        },
        {
          "name": "F4",
          "midi": 65,
          "time": 159.9229169999998,
          "velocity": 0.8110236220472441,
          "duration": 0.10096143749998987
        },
        {
          "name": "A#4",
          "midi": 70,
          "time": 159.9229169999998,
          "velocity": 0.8110236220472441,
          "duration": 0.11298065624998799
        },
        {
          "name": "D4",
          "midi": 62,
          "time": 159.9229169999998,
          "velocity": 0.8110236220472441,
          "duration": 0.12259603124999785
        },
        {
          "name": "A4",
          "midi": 69,
          "time": 160.15368599999982,
          "velocity": 0.8110236220472441,
          "duration": 0.06971146875000045
        },
        {
          "name": "C4",
          "midi": 60,
          "time": 160.15368599999982,
          "velocity": 0.8110236220472441,
          "duration": 0.06971146875000045
        },
        {
          "name": "F4",
          "midi": 65,
          "time": 160.15368599999982,
          "velocity": 0.8110236220472441,
          "duration": 0.06009609374999059
        },
        {
          "name": "G4",
          "midi": 67,
          "time": 160.38445499999983,
          "velocity": 0.8110236220472441,
          "duration": 2.624997375000021
        },
        {
          "name": "D#4",
          "midi": 63,
          "time": 160.38445499999983,
          "velocity": 0.8110236220472441,
          "duration": 2.5456705312500105
        },
        {
          "name": "A#3",
          "midi": 58,
          "time": 160.38445499999983,
          "velocity": 0.8110236220472441,
          "duration": 2.5697089687500068
        },
        {
          "name": "D#4",
          "midi": 63,
          "time": 163.38445199999984,
          "velocity": 0.7952755905511811,
          "duration": 0.32211506250001776
        },
        {
          "name": "A#3",
          "midi": 58,
          "time": 163.38445199999984,
          "velocity": 0.7952755905511811,
          "duration": 0.3004804687500098
        },
        {
          "name": "G3",
          "midi": 55,
          "time": 163.38445199999984,
          "velocity": 0.7952755905511811,
          "duration": 0.18990365625001004
        },
        {
          "name": "G3",
          "midi": 55,
          "time": 163.61522099999985,
          "velocity": 0.7952755905511811,
          "duration": 0.11057681249999973
        },
        {
          "name": "A3",
          "midi": 57,
          "time": 163.84598999999986,
          "velocity": 0.7952755905511811,
          "duration": 0.06971146875000045
        },
        {
          "name": "F4",
          "midi": 65,
          "time": 163.84598999999986,
          "velocity": 0.7952755905511811,
          "duration": 0.11538450000000466
        },
        {
          "name": "C4",
          "midi": 60,
          "time": 163.84598999999986,
          "velocity": 0.7952755905511811,
          "duration": 0.06009609374999059
        },
        {
          "name": "D#4",
          "midi": 63,
          "time": 164.07675899999987,
          "velocity": 0.7952755905511811,
          "duration": 2.588939718749998
        },
        {
          "name": "A#3",
          "midi": 58,
          "time": 164.07675899999987,
          "velocity": 0.7952755905511811,
          "duration": 2.555285906249992
        },
        {
          "name": "G3",
          "midi": 55,
          "time": 164.07675899999987,
          "velocity": 0.7952755905511811,
          "duration": 2.562497437499985
        },
        {
          "name": "A#4",
          "midi": 70,
          "time": 167.07675599999988,
          "velocity": 0.9291338582677166,
          "duration": 0.18269212499998844
        },
        {
          "name": "F4",
          "midi": 65,
          "time": 167.07675599999988,
          "velocity": 0.9291338582677166,
          "duration": 0.19471134374998655
        },
        {
          "name": "D4",
          "midi": 62,
          "time": 167.07675599999988,
          "velocity": 0.9291338582677166,
          "duration": 0.3317304374999708
        },
        {
          "name": "A#4",
          "midi": 70,
          "time": 167.30752499999986,
          "velocity": 0.9291338582677166,
          "duration": 0.08894221874999175
        },
        {
          "name": "C4",
          "midi": 60,
          "time": 167.53829399999984,
          "velocity": 0.9291338582677166,
          "duration": 0.06971146875000045
        },
        {
          "name": "F4",
          "midi": 65,
          "time": 167.53829399999984,
          "velocity": 0.9291338582677166,
          "duration": 0.05528840625001408
        },
        {
          "name": "A4",
          "midi": 69,
          "time": 167.53829399999984,
          "velocity": 0.9291338582677166,
          "duration": 0.06971146875000045
        },
        {
          "name": "G4",
          "midi": 67,
          "time": 167.76906299999985,
          "velocity": 0.9291338582677166,
          "duration": 2.6274012187499807
        },
        {
          "name": "D#4",
          "midi": 63,
          "time": 167.76906299999985,
          "velocity": 0.9291338582677166,
          "duration": 2.579324343749988
        },
        {
          "name": "A#3",
          "midi": 58,
          "time": 167.76906299999985,
          "velocity": 0.9291338582677166,
          "duration": 2.5937474062499746
        },
        {
          "name": "A#3",
          "midi": 58,
          "time": 170.76905999999983,
          "velocity": 0.9291338582677166,
          "duration": 0.33413428124998745
        },
        {
          "name": "G3",
          "midi": 55,
          "time": 170.76905999999983,
          "velocity": 0.9291338582677166,
          "duration": 0.3317304374999992
        },
        {
          "name": "D#4",
          "midi": 63,
          "time": 170.76905999999983,
          "velocity": 0.9291338582677166,
          "duration": 0.3629804062499886
        },
        {
          "name": "A3",
          "midi": 57,
          "time": 171.23059799999982,
          "velocity": 0.9291338582677166,
          "duration": 0.07451915625000538
        },
        {
          "name": "C4",
          "midi": 60,
          "time": 171.23059799999982,
          "velocity": 0.9291338582677166,
          "duration": 0.0673076250000122
        },
        {
          "name": "F4",
          "midi": 65,
          "time": 171.23059799999982,
          "velocity": 0.9291338582677166,
          "duration": 0.11538450000000466
        },
        {
          "name": "D#4",
          "midi": 63,
          "time": 171.46136699999983,
          "velocity": 0.9291338582677166,
          "duration": 2.6081704687499894
        },
        {
          "name": "A#3",
          "midi": 58,
          "time": 171.46136699999983,
          "velocity": 0.9291338582677166,
          "duration": 2.5865358749999814
        },
        {
          "name": "G3",
          "midi": 55,
          "time": 171.46136699999983,
          "velocity": 0.9291338582677166,
          "duration": 2.584132031249993
        },
        {
          "name": "A#4",
          "midi": 70,
          "time": 174.4613639999998,
          "velocity": 0.9291338582677166,
          "duration": 0.28124971874999005
        },
        {
          "name": "D4",
          "midi": 62,
          "time": 174.4613639999998,
          "velocity": 0.9291338582677166,
          "duration": 0.3124996874999795
        },
        {
          "name": "F4",
          "midi": 65,
          "time": 174.4613639999998,
          "velocity": 0.9291338582677166,
          "duration": 0.2980766249999931
        },
        {
          "name": "A4",
          "midi": 69,
          "time": 174.9229019999998,
          "velocity": 0.9291338582677166,
          "duration": 0.0673076250000122
        },
        {
          "name": "F4",
          "midi": 65,
          "time": 174.9229019999998,
          "velocity": 0.9291338582677166,
          "duration": 0.06249993750000726
        },
        {
          "name": "C4",
          "midi": 60,
          "time": 174.9229019999998,
          "velocity": 0.9291338582677166,
          "duration": 0.06971146875000045
        },
        {
          "name": "D#4",
          "midi": 63,
          "time": 175.1536709999998,
          "velocity": 0.9291338582677166,
          "duration": 2.7427857187499853
        },
        {
          "name": "A#3",
          "midi": 58,
          "time": 175.1536709999998,
          "velocity": 0.9291338582677166,
          "duration": 2.7644203124999933
        },
        {
          "name": "G4",
          "midi": 67,
          "time": 175.1536709999998,
          "velocity": 0.9291338582677166,
          "duration": 2.7812472187499964
        },
        {
          "name": "A#3",
          "midi": 58,
          "time": 178.1536679999998,
          "velocity": 0.9291338582677166,
          "duration": 0.34615349999998557
        },
        {
          "name": "F4",
          "midi": 65,
          "time": 178.1536679999998,
          "velocity": 0.9291338582677166,
          "duration": 0.39423037499997804
        },
        {
          "name": "D4",
          "midi": 62,
          "time": 178.1536679999998,
          "velocity": 0.9291338582677166,
          "duration": 0.32211506249998934
        },
        {
          "name": "A3",
          "midi": 57,
          "time": 178.6152059999998,
          "velocity": 0.9291338582677166,
          "duration": 0.07932684374998189
        },
        {
          "name": "F4",
          "midi": 65,
          "time": 178.6152059999998,
          "velocity": 0.9291338582677166,
          "duration": 0.11538449999997624
        },
        {
          "name": "C4",
          "midi": 60,
          "time": 178.6152059999998,
          "velocity": 0.9291338582677166,
          "duration": 0.0721153124999887
        },
        {
          "name": "D#4",
          "midi": 63,
          "time": 178.84597499999978,
          "velocity": 0.9291338582677166,
          "duration": 2.9278816874999904
        },
        {
          "name": "A#3",
          "midi": 58,
          "time": 178.84597499999978,
          "velocity": 0.9291338582677166,
          "duration": 2.925477843750002
        },
        {
          "name": "G3",
          "midi": 55,
          "time": 178.84597499999978,
          "velocity": 0.9291338582677166,
          "duration": 2.9374970625000003
        },
        {
          "name": "D#4",
          "midi": 63,
          "time": 181.8459719999998,
          "velocity": 0.9291338582677166,
          "duration": 0.12259603124999785
        },
        {
          "name": "G3",
          "midi": 55,
          "time": 181.8459719999998,
          "velocity": 0.9291338582677166,
          "duration": 0.1322114062500077
        },
        {
          "name": "A#3",
          "midi": 58,
          "time": 181.8459719999998,
          "velocity": 0.9291338582677166,
          "duration": 0.11778834374999292
        },
        {
          "name": "D#4",
          "midi": 63,
          "time": 182.0767409999998,
          "velocity": 0.9291338582677166,
          "duration": 0.11538450000000466
        },
        {
          "name": "A#3",
          "midi": 58,
          "time": 182.0767409999998,
          "velocity": 0.9291338582677166,
          "duration": 0.09855759375000162
        },
        {
          "name": "G3",
          "midi": 55,
          "time": 182.0767409999998,
          "velocity": 0.9291338582677166,
          "duration": 0.1057691249999948
        },
        {
          "name": "A3",
          "midi": 57,
          "time": 182.3075099999998,
          "velocity": 0.9291338582677166,
          "duration": 0.08894221874999175
        },
        {
          "name": "F4",
          "midi": 65,
          "time": 182.3075099999998,
          "velocity": 0.9291338582677166,
          "duration": 0.13461524999999597
        },
        {
          "name": "C4",
          "midi": 60,
          "time": 182.3075099999998,
          "velocity": 0.9291338582677166,
          "duration": 0.07451915625000538
        },
        {
          "name": "D#4",
          "midi": 63,
          "time": 182.53827899999982,
          "velocity": 0.9291338582677166,
          "duration": 2.627401218750009
        },
        {
          "name": "A#3",
          "midi": 58,
          "time": 182.53827899999982,
          "velocity": 0.9291338582677166,
          "duration": 2.622593531250004
        },
        {
          "name": "G3",
          "midi": 55,
          "time": 182.53827899999982,
          "velocity": 0.9291338582677166,
          "duration": 2.6177858437499992
        },
        {
          "name": "G3",
          "midi": 55,
          "time": 185.30750699999982,
          "velocity": 0.9291338582677166,
          "duration": 0.20432671874999642
        },
        {
          "name": "A3",
          "midi": 57,
          "time": 185.53827599999983,
          "velocity": 0.9291338582677166,
          "duration": 0.22355746874998772
        },
        {
          "name": "C4",
          "midi": 60,
          "time": 185.7690449999998,
          "velocity": 0.9291338582677166,
          "duration": 0.1394229375000009
        },
        {
          "name": "F4",
          "midi": 65,
          "time": 186.2305829999998,
          "velocity": 0.9291338582677166,
          "duration": 0.6370185937499855
        },
        {
          "name": "A3",
          "midi": 57,
          "time": 186.2305829999998,
          "velocity": 0.9291338582677166,
          "duration": 0.6129801562499892
        },
        {
          "name": "C4",
          "midi": 60,
          "time": 186.2305829999998,
          "velocity": 0.9291338582677166,
          "duration": 0.6201916874999824
        },
        {
          "name": "E4",
          "midi": 64,
          "time": 186.9228899999998,
          "velocity": 0.9291338582677166,
          "duration": 0.1586536874999922
        },
        {
          "name": "C4",
          "midi": 60,
          "time": 186.9228899999998,
          "velocity": 0.9291338582677166,
          "duration": 0.14903831249998234
        },
        {
          "name": "G3",
          "midi": 55,
          "time": 186.9228899999998,
          "velocity": 0.9291338582677166,
          "duration": 0.14663446874999408
        },
        {
          "name": "A3",
          "midi": 57,
          "time": 187.3844279999998,
          "velocity": 0.9291338582677166,
          "duration": 0.11298065625001641
        },
        {
          "name": "F4",
          "midi": 65,
          "time": 187.3844279999998,
          "velocity": 0.9291338582677166,
          "duration": 0.15144215625002744
        },
        {
          "name": "C4",
          "midi": 60,
          "time": 187.3844279999998,
          "velocity": 0.9291338582677166,
          "duration": 0.10817296875001148
        },
        {
          "name": "F4",
          "midi": 65,
          "time": 188.07673499999981,
          "velocity": 0.9291338582677166,
          "duration": 0.6418262812499904
        },
        {
          "name": "D4",
          "midi": 62,
          "time": 188.07673499999981,
          "velocity": 0.9291338582677166,
          "duration": 0.5817301874999998
        },
        {
          "name": "A#3",
          "midi": 58,
          "time": 188.07673499999981,
          "velocity": 0.9291338582677166,
          "duration": 0.610576312500001
        },
        {
          "name": "F4",
          "midi": 65,
          "time": 188.7690419999998,
          "velocity": 0.9291338582677166,
          "duration": 0.1586536874999922
        },
        {
          "name": "A3",
          "midi": 57,
          "time": 188.7690419999998,
          "velocity": 0.9291338582677166,
          "duration": 0.11538450000000466
        },
        {
          "name": "C4",
          "midi": 60,
          "time": 188.7690419999998,
          "velocity": 0.9291338582677166,
          "duration": 0.11057681249999973
        },
        {
          "name": "F4",
          "midi": 65,
          "time": 189.2305799999998,
          "velocity": 0.9291338582677166,
          "duration": 0.16105753125000888
        },
        {
          "name": "A#3",
          "midi": 58,
          "time": 189.2305799999998,
          "velocity": 0.9291338582677166,
          "duration": 0.14903831250001076
        },
        {
          "name": "D4",
          "midi": 62,
          "time": 189.2305799999998,
          "velocity": 0.9291338582677166,
          "duration": 0.14903831250001076
        },
        {
          "name": "E4",
          "midi": 64,
          "time": 189.9228869999998,
          "velocity": 0.9291338582677166,
          "duration": 0.588941718749993
        },
        {
          "name": "G3",
          "midi": 55,
          "time": 189.9228869999998,
          "velocity": 0.9291338582677166,
          "duration": 0.5576917500000036
        },
        {
          "name": "C4",
          "midi": 60,
          "time": 189.9228869999998,
          "velocity": 0.9291338582677166,
          "duration": 0.6009609374999911
        },
        {
          "name": "A3",
          "midi": 57,
          "time": 190.6151939999998,
          "velocity": 0.9291338582677166,
          "duration": 0.18990365624998162
        },
        {
          "name": "F4",
          "midi": 65,
          "time": 190.6151939999998,
          "velocity": 0.9291338582677166,
          "duration": 0.14182678124998915
        },
        {
          "name": "C4",
          "midi": 60,
          "time": 190.6151939999998,
          "velocity": 0.9291338582677166,
          "duration": 0.19230749999996988
        },
        {
          "name": "A3",
          "midi": 57,
          "time": 191.07673199999977,
          "velocity": 0.9291338582677166,
          "duration": 0.17067290624999032
        },
        {
          "name": "F4",
          "midi": 65,
          "time": 191.07673199999977,
          "velocity": 0.9291338582677166,
          "duration": 0.24038437499999077
        },
        {
          "name": "C4",
          "midi": 60,
          "time": 191.07673199999977,
          "velocity": 0.9291338582677166,
          "duration": 0.18749981249999337
        },
        {
          "name": "G3",
          "midi": 55,
          "time": 191.30750099999975,
          "velocity": 0.9291338582677166,
          "duration": 0.10336528125000655
        },
        {
          "name": "E4",
          "midi": 64,
          "time": 191.30750099999975,
          "velocity": 0.9291338582677166,
          "duration": 0.10096143750001829
        },
        {
          "name": "C4",
          "midi": 60,
          "time": 191.30750099999975,
          "velocity": 0.9291338582677166,
          "duration": 0.09134606250000843
        },
        {
          "name": "E4",
          "midi": 64,
          "time": 191.76903899999976,
          "velocity": 0.9291338582677166,
          "duration": 0.6129801562499892
        },
        {
          "name": "C4",
          "midi": 60,
          "time": 191.76903899999976,
          "velocity": 0.9291338582677166,
          "duration": 0.610576312500001
        },
        {
          "name": "G3",
          "midi": 55,
          "time": 191.76903899999976,
          "velocity": 0.9291338582677166,
          "duration": 0.5793263437500116
        },
        {
          "name": "A3",
          "midi": 57,
          "time": 192.46134599999976,
          "velocity": 0.9291338582677166,
          "duration": 0.0865383750000035
        },
        {
          "name": "F4",
          "midi": 65,
          "time": 192.46134599999976,
          "velocity": 0.9291338582677166,
          "duration": 0.11057681249999973
        },
        {
          "name": "C4",
          "midi": 60,
          "time": 192.46134599999976,
          "velocity": 0.9291338582677166,
          "duration": 0.0673076250000122
        },
        {
          "name": "A3",
          "midi": 57,
          "time": 192.92288399999975,
          "velocity": 0.9291338582677166,
          "duration": 0.15144215624999902
        },
        {
          "name": "C4",
          "midi": 60,
          "time": 192.92288399999975,
          "velocity": 0.9291338582677166,
          "duration": 0.173076750000007
        },
        {
          "name": "F4",
          "midi": 65,
          "time": 192.92288399999975,
          "velocity": 0.9291338582677166,
          "duration": 0.2403843750000192
        },
        {
          "name": "G3",
          "midi": 55,
          "time": 193.15365299999976,
          "velocity": 0.9291338582677166,
          "duration": 0.09134606250000843
        },
        {
          "name": "E4",
          "midi": 64,
          "time": 193.15365299999976,
          "velocity": 0.9291338582677166,
          "duration": 0.10096143750001829
        },
        {
          "name": "C4",
          "midi": 60,
          "time": 193.15365299999976,
          "velocity": 0.9291338582677166,
          "duration": 0.08413453125001524
        },
        {
          "name": "F4",
          "midi": 65,
          "time": 193.61519099999978,
          "velocity": 0.9291338582677166,
          "duration": 0.6971146875000045
        },
        {
          "name": "C4",
          "midi": 60,
          "time": 193.61519099999978,
          "velocity": 0.9291338582677166,
          "duration": 0.5961532499999862
        },
        {
          "name": "A3",
          "midi": 57,
          "time": 193.61519099999978,
          "velocity": 0.9291338582677166,
          "duration": 0.6057686249999961
        },
        {
          "name": "G3",
          "midi": 55,
          "time": 194.30749799999978,
          "velocity": 0.9291338582677166,
          "duration": 0.12740371875000278
        },
        {
          "name": "E4",
          "midi": 64,
          "time": 194.30749799999978,
          "velocity": 0.9291338582677166,
          "duration": 0.1538460000000157
        },
        {
          "name": "C4",
          "midi": 60,
          "time": 194.30749799999978,
          "velocity": 0.9291338582677166,
          "duration": 0.1538460000000157
        },
        {
          "name": "A3",
          "midi": 57,
          "time": 194.7690359999998,
          "velocity": 0.9291338582677166,
          "duration": 0.12499987500001453
        },
        {
          "name": "C4",
          "midi": 60,
          "time": 194.7690359999998,
          "velocity": 0.9291338582677166,
          "duration": 0.09134606250000843
        },
        {
          "name": "F4",
          "midi": 65,
          "time": 194.7690359999998,
          "velocity": 0.9291338582677166,
          "duration": 0.17548059375002367
        },
        {
          "name": "F4",
          "midi": 65,
          "time": 195.46134299999983,
          "velocity": 0.9291338582677166,
          "duration": 0.6201916875000109
        },
        {
          "name": "A#3",
          "midi": 58,
          "time": 195.46134299999983,
          "velocity": 0.9291338582677166,
          "duration": 0.5985570937500029
        },
        {
          "name": "D4",
          "midi": 62,
          "time": 195.46134299999983,
          "velocity": 0.9291338582677166,
          "duration": 0.57211481249999
        },
        {
          "name": "A3",
          "midi": 57,
          "time": 196.15364999999983,
          "velocity": 0.9291338582677166,
          "duration": 0.09134606250000843
        },
        {
          "name": "F4",
          "midi": 65,
          "time": 196.15364999999983,
          "velocity": 0.9291338582677166,
          "duration": 0.12499987500001453
        },
        {
          "name": "C4",
          "midi": 60,
          "time": 196.15364999999983,
          "velocity": 0.9291338582677166,
          "duration": 0.09134606250000843
        },
        {
          "name": "F4",
          "midi": 65,
          "time": 196.61518799999985,
          "velocity": 0.9291338582677166,
          "duration": 0.13701909374998422
        },
        {
          "name": "D4",
          "midi": 62,
          "time": 196.61518799999985,
          "velocity": 0.9291338582677166,
          "duration": 0.11298065624998799
        },
        {
          "name": "A#3",
          "midi": 58,
          "time": 196.61518799999985,
          "velocity": 0.9291338582677166,
          "duration": 0.13701909374998422
        },
        {
          "name": "E4",
          "midi": 64,
          "time": 197.30749499999982,
          "velocity": 0.9291338582677166,
          "duration": 0.6153839999999775
        },
        {
          "name": "C4",
          "midi": 60,
          "time": 197.30749499999982,
          "velocity": 0.9291338582677166,
          "duration": 0.6177878437499658
        },
        {
          "name": "G3",
          "midi": 55,
          "time": 197.30749499999982,
          "velocity": 0.9291338582677166,
          "duration": 0.5432686874999888
        },
        {
          "name": "A3",
          "midi": 57,
          "time": 197.9998019999998,
          "velocity": 0.9291338582677166,
          "duration": 0.12259603124999785
        },
        {
          "name": "F4",
          "midi": 65,
          "time": 197.9998019999998,
          "velocity": 0.9291338582677166,
          "duration": 0.12980756249999104
        },
        {
          "name": "A3",
          "midi": 57,
          "time": 198.46133999999978,
          "velocity": 0.9291338582677166,
          "duration": 0.1850959687500051
        },
        {
          "name": "C4",
          "midi": 60,
          "time": 198.46133999999978,
          "velocity": 0.9291338582677166,
          "duration": 0.18749981249999337
        },
        {
          "name": "F4",
          "midi": 65,
          "time": 198.46133999999978,
          "velocity": 0.9291338582677166,
          "duration": 0.24278821874997902
        },
        {
          "name": "G3",
          "midi": 55,
          "time": 198.69210899999976,
          "velocity": 0.9291338582677166,
          "duration": 0.09134606250000843
        },
        {
          "name": "E4",
          "midi": 64,
          "time": 198.69210899999976,
          "velocity": 0.9291338582677166,
          "duration": 0.09615375000001336
        },
        {
          "name": "C4",
          "midi": 60,
          "time": 198.69210899999976,
          "velocity": 0.9291338582677166,
          "duration": 0.09855759375000162
        },
        {
          "name": "G3",
          "midi": 55,
          "time": 199.15364699999975,
          "velocity": 0.9291338582677166,
          "duration": 0.42788418750001256
        },
        {
          "name": "E4",
          "midi": 64,
          "time": 199.15364699999975,
          "velocity": 0.9291338582677166,
          "duration": 0.653845500000017
        },
        {
          "name": "C4",
          "midi": 60,
          "time": 199.15364699999975,
          "velocity": 0.9291338582677166,
          "duration": 0.649037812500012
        },
        {
          "name": "G3",
          "midi": 55,
          "time": 199.61518499999977,
          "velocity": 0.9291338582677166,
          "duration": 0.1394229375000009
        },
        {
          "name": "A3",
          "midi": 57,
          "time": 199.84595399999978,
          "velocity": 0.9291338582677166,
          "duration": 0.1322114062500077
        },
        {
          "name": "F4",
          "midi": 65,
          "time": 199.84595399999978,
          "velocity": 0.9291338582677166,
          "duration": 0.14423062500000583
        },
        {
          "name": "C4",
          "midi": 60,
          "time": 199.84595399999978,
          "velocity": 0.9291338582677166,
          "duration": 0.13461524999999597
        },
        {
          "name": "C4",
          "midi": 60,
          "time": 200.3074919999998,
          "velocity": 0.9291338582677166,
          "duration": 0.18990365625001004
        },
        {
          "name": "A3",
          "midi": 57,
          "time": 200.3074919999998,
          "velocity": 0.9291338582677166,
          "duration": 0.173076750000007
        },
        {
          "name": "F4",
          "midi": 65,
          "time": 200.3074919999998,
          "velocity": 0.9291338582677166,
          "duration": 0.2451920624999957
        },
        {
          "name": "G3",
          "midi": 55,
          "time": 200.5382609999998,
          "velocity": 0.9291338582677166,
          "duration": 0.09374990624999668
        },
        {
          "name": "E4",
          "midi": 64,
          "time": 200.5382609999998,
          "velocity": 0.9291338582677166,
          "duration": 0.11538449999997624
        },
        {
          "name": "C4",
          "midi": 60,
          "time": 200.5382609999998,
          "velocity": 0.9291338582677166,
          "duration": 0.09615374999998494
        },
        {
          "name": "C4",
          "midi": 60,
          "time": 200.9997989999998,
          "velocity": 0.9291338582677166,
          "duration": 0.6442301250000071
        },
        {
          "name": "F4",
          "midi": 65,
          "time": 200.9997989999998,
          "velocity": 0.9291338582677166,
          "duration": 0.7355761874999871
        },
        {
          "name": "A3",
          "midi": 57,
          "time": 200.9997989999998,
          "velocity": 0.9291338582677166,
          "duration": 0.6466339687499953
        },
        {
          "name": "G3",
          "midi": 55,
          "time": 201.6921059999998,
          "velocity": 0.9291338582677166,
          "duration": 0.1322114062499793
        },
        {
          "name": "E4",
          "midi": 64,
          "time": 201.6921059999998,
          "velocity": 0.9291338582677166,
          "duration": 0.13942293749997248
        },
        {
          "name": "C4",
          "midi": 60,
          "time": 201.6921059999998,
          "velocity": 0.9291338582677166,
          "duration": 0.1322114062499793
        },
        {
          "name": "C4",
          "midi": 60,
          "time": 202.15364399999976,
          "velocity": 0.9291338582677166,
          "duration": 0.07692299999999364
        },
        {
          "name": "A3",
          "midi": 57,
          "time": 202.15364399999976,
          "velocity": 0.9291338582677166,
          "duration": 0.09615374999998494
        },
        {
          "name": "F4",
          "midi": 65,
          "time": 202.15364399999976,
          "velocity": 0.9291338582677166,
          "duration": 0.15624984374997553
        },
        {
          "name": "F4",
          "midi": 65,
          "time": 202.84595099999973,
          "velocity": 0.9291338582677166,
          "duration": 0.632210906250009
        },
        {
          "name": "A#3",
          "midi": 58,
          "time": 202.84595099999973,
          "velocity": 0.9291338582677166,
          "duration": 0.5649032812499968
        },
        {
          "name": "D4",
          "midi": 62,
          "time": 202.84595099999973,
          "velocity": 0.9291338582677166,
          "duration": 0.5504802187500104
        },
        {
          "name": "F4",
          "midi": 65,
          "time": 203.53825799999973,
          "velocity": 0.9291338582677166,
          "duration": 0.09615375000001336
        },
        {
          "name": "A3",
          "midi": 57,
          "time": 203.53825799999973,
          "velocity": 0.9291338582677166,
          "duration": 0.09134606250000843
        },
        {
          "name": "C4",
          "midi": 60,
          "time": 203.53825799999973,
          "velocity": 0.9291338582677166,
          "duration": 0.07932684375001031
        },
        {
          "name": "F4",
          "midi": 65,
          "time": 203.99979599999975,
          "velocity": 0.9291338582677166,
          "duration": 0.12980756250001946
        },
        {
          "name": "D4",
          "midi": 62,
          "time": 203.99979599999975,
          "velocity": 0.9291338582677166,
          "duration": 0.10817296875001148
        },
        {
          "name": "A#3",
          "midi": 58,
          "time": 203.99979599999975,
          "velocity": 0.9291338582677166,
          "duration": 0.1322114062500077
        },
        {
          "name": "G3",
          "midi": 55,
          "time": 204.69210299999975,
          "velocity": 0.9291338582677166,
          "duration": 0.4062495937500046
        },
        {
          "name": "E4",
          "midi": 64,
          "time": 204.69210299999975,
          "velocity": 0.9291338582677166,
          "duration": 0.5865378750000048
        },
        {
          "name": "C4",
          "midi": 60,
          "time": 204.69210299999975,
          "velocity": 0.9291338582677166,
          "duration": 0.5817301875000283
        },
        {
          "name": "G3",
          "midi": 55,
          "time": 205.15364099999977,
          "velocity": 0.9291338582677166,
          "duration": 0.12259603124999785
        },
        {
          "name": "A3",
          "midi": 57,
          "time": 205.38440999999975,
          "velocity": 0.9291338582677166,
          "duration": 0.08173068749999857
        },
        {
          "name": "F4",
          "midi": 65,
          "time": 205.38440999999975,
          "velocity": 0.9291338582677166,
          "duration": 0.11538449999997624
        },
        {
          "name": "C4",
          "midi": 60,
          "time": 205.38440999999975,
          "velocity": 0.9291338582677166,
          "duration": 0.08413453124998682
        },
        {
          "name": "A3",
          "midi": 57,
          "time": 205.84594799999974,
          "velocity": 0.9291338582677166,
          "duration": 0.17548059374999525
        },
        {
          "name": "C4",
          "midi": 60,
          "time": 205.84594799999974,
          "velocity": 0.9291338582677166,
          "duration": 0.18269212499998844
        },
        {
          "name": "F4",
          "midi": 65,
          "time": 205.84594799999974,
          "velocity": 0.9291338582677166,
          "duration": 0.2499997499999722
        },
        {
          "name": "G3",
          "midi": 55,
          "time": 206.07671699999972,
          "velocity": 0.9291338582677166,
          "duration": 0.08413453124998682
        },
        {
          "name": "C4",
          "midi": 60,
          "time": 206.07671699999972,
          "velocity": 0.9291338582677166,
          "duration": 0.06971146875000045
        },
        {
          "name": "E4",
          "midi": 64,
          "time": 206.07671699999972,
          "velocity": 0.9291338582677166,
          "duration": 0.10096143749998987
        },
        {
          "name": "C4",
          "midi": 60,
          "time": 206.5382549999997,
          "velocity": 0.9291338582677166,
          "duration": 0.5961532499999862
        },
        {
          "name": "G3",
          "midi": 55,
          "time": 206.5382549999997,
          "velocity": 0.9291338582677166,
          "duration": 0.3918265312499898
        },
        {
          "name": "E4",
          "midi": 64,
          "time": 206.5382549999997,
          "velocity": 0.9291338582677166,
          "duration": 0.6177878437499942
        },
        {
          "name": "G3",
          "midi": 55,
          "time": 206.9997929999997,
          "velocity": 0.9291338582677166,
          "duration": 0.1201921875000096
        },
        {
          "name": "A3",
          "midi": 57,
          "time": 207.2305619999997,
          "velocity": 0.9291338582677166,
          "duration": 0.09134606249998001
        },
        {
          "name": "F4",
          "midi": 65,
          "time": 207.2305619999997,
          "velocity": 0.9291338582677166,
          "duration": 0.11057681249997131
        },
        {
          "name": "C4",
          "midi": 60,
          "time": 207.2305619999997,
          "velocity": 0.9291338582677166,
          "duration": 0.07692299999999364
        },
        {
          "name": "A3",
          "midi": 57,
          "time": 207.69209999999967,
          "velocity": 0.9291338582677166,
          "duration": 0.1850959687500051
        },
        {
          "name": "C4",
          "midi": 60,
          "time": 207.69209999999967,
          "velocity": 0.9291338582677166,
          "duration": 0.19471134375001498
        },
        {
          "name": "F4",
          "midi": 65,
          "time": 207.69209999999967,
          "velocity": 0.9291338582677166,
          "duration": 0.2596151250000105
        },
        {
          "name": "C4",
          "midi": 60,
          "time": 207.92286899999968,
          "velocity": 0.9291338582677166,
          "duration": 0.09855759375000162
        },
        {
          "name": "G3",
          "midi": 55,
          "time": 207.92286899999968,
          "velocity": 0.9291338582677166,
          "duration": 0.11778834374999292
        },
        {
          "name": "E4",
          "midi": 64,
          "time": 207.92286899999968,
          "velocity": 0.9291338582677166,
          "duration": 0.11778834374999292
        },
        {
          "name": "A3",
          "midi": 57,
          "time": 208.38440699999967,
          "velocity": 0.9291338582677166,
          "duration": 0.6033647812499794
        },
        {
          "name": "C4",
          "midi": 60,
          "time": 208.38440699999967,
          "velocity": 0.9291338582677166,
          "duration": 0.6009609374999911
        },
        {
          "name": "F4",
          "midi": 65,
          "time": 208.38440699999967,
          "velocity": 0.9291338582677166,
          "duration": 0.685095468749978
        },
        {
          "name": "E4",
          "midi": 64,
          "time": 209.07671399999964,
          "velocity": 0.9291338582677166,
          "duration": 0.10096143749998987
        },
        {
          "name": "G3",
          "midi": 55,
          "time": 209.07671399999964,
          "velocity": 0.9291338582677166,
          "duration": 0.09855759375000162
        },
        {
          "name": "C4",
          "midi": 60,
          "time": 209.07671399999964,
          "velocity": 0.9291338582677166,
          "duration": 0.10096143749998987
        },
        {
          "name": "A3",
          "midi": 57,
          "time": 209.53825199999963,
          "velocity": 0.9291338582677166,
          "duration": 0.09374990624999668
        },
        {
          "name": "C4",
          "midi": 60,
          "time": 209.53825199999963,
          "velocity": 0.9291338582677166,
          "duration": 0.07692299999999364
        },
        {
          "name": "F4",
          "midi": 65,
          "time": 209.53825199999963,
          "velocity": 0.9291338582677166,
          "duration": 0.13461524999999597
        },
        {
          "name": "F4",
          "midi": 65,
          "time": 210.23055899999963,
          "velocity": 0.9291338582677166,
          "duration": 0.6009609375000196
        },
        {
          "name": "A#3",
          "midi": 58,
          "time": 210.23055899999963,
          "velocity": 0.9291338582677166,
          "duration": 0.5624994375000085
        },
        {
          "name": "D4",
          "midi": 62,
          "time": 210.23055899999963,
          "velocity": 0.9291338582677166,
          "duration": 0.5576917500000036
        },
        {
          "name": "F4",
          "midi": 65,
          "time": 210.92286599999966,
          "velocity": 0.9291338582677166,
          "duration": 0.10336528125000655
        },
        {
          "name": "A3",
          "midi": 57,
          "time": 210.92286599999966,
          "velocity": 0.9291338582677166,
          "duration": 0.07932684375001031
        },
        {
          "name": "C4",
          "midi": 60,
          "time": 210.92286599999966,
          "velocity": 0.9291338582677166,
          "duration": 0.07451915625000538
        },
        {
          "name": "F4",
          "midi": 65,
          "time": 211.38440399999968,
          "velocity": 0.9291338582677166,
          "duration": 0.13461524999999597
        },
        {
          "name": "D4",
          "midi": 62,
          "time": 211.38440399999968,
          "velocity": 0.9291338582677166,
          "duration": 0.11057681249999973
        },
        {
          "name": "A#3",
          "midi": 58,
          "time": 211.38440399999968,
          "velocity": 0.9291338582677166,
          "duration": 0.13701909374998422
        },
        {
          "name": "G3",
          "midi": 55,
          "time": 212.07671099999965,
          "velocity": 0.9291338582677166,
          "duration": 0.5576917500000036
        },
        {
          "name": "E4",
          "midi": 64,
          "time": 212.07671099999965,
          "velocity": 0.9291338582677166,
          "duration": 0.6177878437499942
        },
        {
          "name": "C4",
          "midi": 60,
          "time": 212.07671099999965,
          "velocity": 0.9291338582677166,
          "duration": 0.627403218750004
        },
        {
          "name": "A3",
          "midi": 57,
          "time": 212.76901799999965,
          "velocity": 0.9291338582677166,
          "duration": 0.0985575937499732
        },
        {
          "name": "F4",
          "midi": 65,
          "time": 212.76901799999965,
          "velocity": 0.9291338582677166,
          "duration": 0.10817296874998306
        },
        {
          "name": "C4",
          "midi": 60,
          "time": 212.76901799999965,
          "velocity": 0.9291338582677166,
          "duration": 0.08413453124998682
        },
        {
          "name": "A3",
          "midi": 57,
          "time": 213.23055599999964,
          "velocity": 0.9291338582677166,
          "duration": 0.1850959687500051
        },
        {
          "name": "C4",
          "midi": 60,
          "time": 213.23055599999964,
          "velocity": 0.9291338582677166,
          "duration": 0.20192287500000816
        },
        {
          "name": "F4",
          "midi": 65,
          "time": 213.23055599999964,
          "velocity": 0.9291338582677166,
          "duration": 0.24759590625001238
        },
        {
          "name": "G3",
          "midi": 55,
          "time": 213.46132499999965,
          "velocity": 0.9291338582677166,
          "duration": 0.09615375000001336
        },
        {
          "name": "E4",
          "midi": 64,
          "time": 213.46132499999965,
          "velocity": 0.9291338582677166,
          "duration": 0.0865383750000035
        },
        {
          "name": "G3",
          "midi": 55,
          "time": 213.92286299999967,
          "velocity": 0.9291338582677166,
          "duration": 0.5649032812499968
        },
        {
          "name": "C4",
          "midi": 60,
          "time": 213.92286299999967,
          "velocity": 0.9291338582677166,
          "duration": 0.6177878437499942
        },
        {
          "name": "E4",
          "midi": 64,
          "time": 213.92286299999967,
          "velocity": 0.9291338582677166,
          "duration": 0.627403218750004
        },
        {
          "name": "C4",
          "midi": 60,
          "time": 214.61516999999967,
          "velocity": 0.9291338582677166,
          "duration": 0.06249993750000726
        },
        {
          "name": "A3",
          "midi": 57,
          "time": 214.61516999999967,
          "velocity": 0.9291338582677166,
          "duration": 0.07451915625000538
        },
        {
          "name": "F4",
          "midi": 65,
          "time": 214.61516999999967,
          "velocity": 0.9291338582677166,
          "duration": 0.13701909375001264
        },
        {
          "name": "D4",
          "midi": 62,
          "time": 215.07670799999968,
          "velocity": 0.9291338582677166,
          "duration": 0.17067290625001874
        },
        {
          "name": "A#4",
          "midi": 70,
          "time": 215.07670799999968,
          "velocity": 0.9291338582677166,
          "duration": 0.16105753125000888
        },
        {
          "name": "F4",
          "midi": 65,
          "time": 215.07670799999968,
          "velocity": 0.9291338582677166,
          "duration": 0.18269212500001686
        },
        {
          "name": "C4",
          "midi": 60,
          "time": 215.3074769999997,
          "velocity": 0.9291338582677166,
          "duration": 0.11778834374999292
        },
        {
          "name": "F4",
          "midi": 65,
          "time": 215.3074769999997,
          "velocity": 0.9291338582677166,
          "duration": 0.12019218749998117
        },
        {
          "name": "A4",
          "midi": 69,
          "time": 215.3074769999997,
          "velocity": 0.9291338582677166,
          "duration": 0.1057691249999948
        },
        {
          "name": "D#4",
          "midi": 63,
          "time": 215.76901499999968,
          "velocity": 0.9291338582677166,
          "duration": 2.723554968749994
        },
        {
          "name": "A#3",
          "midi": 58,
          "time": 215.76901499999968,
          "velocity": 0.9291338582677166,
          "duration": 2.7427857187499853
        },
        {
          "name": "G4",
          "midi": 67,
          "time": 215.76901499999968,
          "velocity": 0.9291338582677166,
          "duration": 2.807689499999981
        },
        {
          "name": "D#4",
          "midi": 63,
          "time": 218.76901199999966,
          "velocity": 0.9291338582677166,
          "duration": 0.3317304374999992
        },
        {
          "name": "A#3",
          "midi": 58,
          "time": 218.76901199999966,
          "velocity": 0.9291338582677166,
          "duration": 0.3124996875000079
        },
        {
          "name": "G3",
          "midi": 55,
          "time": 218.76901199999966,
          "velocity": 0.9291338582677166,
          "duration": 0.3317304374999992
        },
        {
          "name": "A3",
          "midi": 57,
          "time": 219.23054999999965,
          "velocity": 0.9291338582677166,
          "duration": 0.0673076250000122
        },
        {
          "name": "F4",
          "midi": 65,
          "time": 219.23054999999965,
          "velocity": 0.9291338582677166,
          "duration": 0.11778834374999292
        },
        {
          "name": "C4",
          "midi": 60,
          "time": 219.23054999999965,
          "velocity": 0.9291338582677166,
          "duration": 0.07451915625000538
        },
        {
          "name": "A#3",
          "midi": 58,
          "time": 219.46131899999963,
          "velocity": 0.9291338582677166,
          "duration": 2.5168244062500094
        },
        {
          "name": "D#4",
          "midi": 63,
          "time": 219.46131899999963,
          "velocity": 0.9291338582677166,
          "duration": 2.5576897500000086
        },
        {
          "name": "G3",
          "midi": 55,
          "time": 219.46131899999963,
          "velocity": 0.9291338582677166,
          "duration": 2.5192282499999976
        },
        {
          "name": "D4",
          "midi": 62,
          "time": 222.46131599999964,
          "velocity": 0.9291338582677166,
          "duration": 0.35576887499999543
        },
        {
          "name": "A#4",
          "midi": 70,
          "time": 222.46131599999964,
          "velocity": 0.9291338582677166,
          "duration": 0.3509611874999905
        },
        {
          "name": "F4",
          "midi": 65,
          "time": 222.46131599999964,
          "velocity": 0.9291338582677166,
          "duration": 0.21634593749999453
        },
        {
          "name": "C4",
          "midi": 60,
          "time": 222.92285399999963,
          "velocity": 0.9291338582677166,
          "duration": 0.07451915625000538
        },
        {
          "name": "F4",
          "midi": 65,
          "time": 222.92285399999963,
          "velocity": 0.9291338582677166,
          "duration": 0.06249993750000726
        },
        {
          "name": "A4",
          "midi": 69,
          "time": 222.92285399999963,
          "velocity": 0.9291338582677166,
          "duration": 0.07451915625000538
        },
        {
          "name": "D#4",
          "midi": 63,
          "time": 223.15362299999964,
          "velocity": 0.9291338582677166,
          "duration": 2.653843500000022
        },
        {
          "name": "A#3",
          "midi": 58,
          "time": 223.15362299999964,
          "velocity": 0.9291338582677166,
          "duration": 2.632208906250014
        },
        {
          "name": "G4",
          "midi": 67,
          "time": 223.15362299999964,
          "velocity": 0.9291338582677166,
          "duration": 2.709131906250036
        },
        {
          "name": "G3",
          "midi": 55,
          "time": 226.15361999999968,
          "velocity": 0.9291338582677166,
          "duration": 0.4567303125000137
        },
        {
          "name": "D#4",
          "midi": 63,
          "time": 226.15361999999968,
          "velocity": 0.9291338582677166,
          "duration": 0.4567303125000137
        },
        {
          "name": "A#3",
          "midi": 58,
          "time": 226.15361999999968,
          "velocity": 0.9291338582677166,
          "duration": 0.4567303125000137
        },
        {
          "name": "A3",
          "midi": 57,
          "time": 226.6151579999997,
          "velocity": 0.9291338582677166,
          "duration": 0.07692299999999364
        },
        {
          "name": "F4",
          "midi": 65,
          "time": 226.6151579999997,
          "velocity": 0.9291338582677166,
          "duration": 0.11057681249999973
        },
        {
          "name": "C4",
          "midi": 60,
          "time": 226.6151579999997,
          "velocity": 0.9291338582677166,
          "duration": 0.0721153124999887
        },
        {
          "name": "D#4",
          "midi": 63,
          "time": 226.8459269999997,
          "velocity": 0.9291338582677166,
          "duration": 2.548074374999999
        },
        {
          "name": "A#3",
          "midi": 58,
          "time": 226.8459269999997,
          "velocity": 0.9291338582677166,
          "duration": 2.543266687499994
        },
        {
          "name": "G3",
          "midi": 55,
          "time": 226.8459269999997,
          "velocity": 0.9291338582677166,
          "duration": 2.543266687499994
        },
        {
          "name": "A#4",
          "midi": 70,
          "time": 229.8459239999997,
          "velocity": 0.9291338582677166,
          "duration": 0.3581727187500121
        },
        {
          "name": "D4",
          "midi": 62,
          "time": 229.8459239999997,
          "velocity": 0.9291338582677166,
          "duration": 0.36778809375002197
        },
        {
          "name": "F4",
          "midi": 65,
          "time": 229.8459239999997,
          "velocity": 0.9291338582677166,
          "duration": 0.37499962500001516
        },
        {
          "name": "C4",
          "midi": 60,
          "time": 230.30746199999973,
          "velocity": 0.9291338582677166,
          "duration": 0.07211531250001713
        },
        {
          "name": "F4",
          "midi": 65,
          "time": 230.30746199999973,
          "velocity": 0.9291338582677166,
          "duration": 0.06249993750000726
        },
        {
          "name": "A4",
          "midi": 69,
          "time": 230.30746199999973,
          "velocity": 0.9291338582677166,
          "duration": 0.07451915625000538
        },
        {
          "name": "D#4",
          "midi": 63,
          "time": 230.53823099999974,
          "velocity": 0.9291338582677166,
          "duration": 2.550478218749987
        },
        {
          "name": "A#3",
          "midi": 58,
          "time": 230.53823099999974,
          "velocity": 0.9291338582677166,
          "duration": 2.560093593749997
        },
        {
          "name": "G4",
          "midi": 67,
          "time": 230.53823099999974,
          "velocity": 0.9291338582677166,
          "duration": 2.5745166562499833
        },
        {
          "name": "G3",
          "midi": 55,
          "time": 233.53822799999972,
          "velocity": 0.9291338582677166,
          "duration": 0.3100958437499912
        },
        {
          "name": "A#3",
          "midi": 58,
          "time": 233.53822799999972,
          "velocity": 0.9291338582677166,
          "duration": 0.2980766249999931
        },
        {
          "name": "D#4",
          "midi": 63,
          "time": 233.53822799999972,
          "velocity": 0.9291338582677166,
          "duration": 0.32692274999999427
        },
        {
          "name": "A3",
          "midi": 57,
          "time": 233.9997659999997,
          "velocity": 0.9291338582677166,
          "duration": 0.06971146875000045
        },
        {
          "name": "C4",
          "midi": 60,
          "time": 233.9997659999997,
          "velocity": 0.9291338582677166,
          "duration": 0.0673076250000122
        },
        {
          "name": "F4",
          "midi": 65,
          "time": 233.9997659999997,
          "velocity": 0.9291338582677166,
          "duration": 0.12259603124999785
        },
        {
          "name": "D#4",
          "midi": 63,
          "time": 234.23053499999972,
          "velocity": 0.9291338582677166,
          "duration": 2.564901281250002
        },
        {
          "name": "A#3",
          "midi": 58,
          "time": 234.23053499999972,
          "velocity": 0.9291338582677166,
          "duration": 2.550478218749987
        },
        {
          "name": "G3",
          "midi": 55,
          "time": 234.23053499999972,
          "velocity": 0.9291338582677166,
          "duration": 2.555285906249992
        },
        {
          "name": "D4",
          "midi": 62,
          "time": 237.4613009999997,
          "velocity": 0.9291338582677166,
          "duration": 0.17067290624999032
        },
        {
          "name": "A#4",
          "midi": 70,
          "time": 237.4613009999997,
          "velocity": 0.9291338582677166,
          "duration": 0.20432671874999642
        },
        {
          "name": "F4",
          "midi": 65,
          "time": 237.4613009999997,
          "velocity": 0.9291338582677166,
          "duration": 0.30288431249999803
        },
        {
          "name": "C4",
          "midi": 60,
          "time": 237.69206999999972,
          "velocity": 0.9291338582677166,
          "duration": 0.07692299999999364
        },
        {
          "name": "A4",
          "midi": 69,
          "time": 237.69206999999972,
          "velocity": 0.9291338582677166,
          "duration": 0.08173068749999857
        },
        {
          "name": "D#4",
          "midi": 63,
          "time": 237.92283899999973,
          "velocity": 0.9291338582677166,
          "duration": 2.572112812499995
        },
        {
          "name": "A#3",
          "midi": 58,
          "time": 237.92283899999973,
          "velocity": 0.9291338582677166,
          "duration": 2.579324343749988
        },
        {
          "name": "G4",
          "midi": 67,
          "time": 237.92283899999973,
          "velocity": 0.9291338582677166,
          "duration": 2.5937474062499746
        },
        {
          "name": "G3",
          "midi": 55,
          "time": 240.9228359999997,
          "velocity": 0.9291338582677166,
          "duration": 0.33653812500000413
        },
        {
          "name": "A#3",
          "midi": 58,
          "time": 240.9228359999997,
          "velocity": 0.9291338582677166,
          "duration": 0.34134581250000906
        },
        {
          "name": "D#4",
          "midi": 63,
          "time": 240.9228359999997,
          "velocity": 0.9291338582677166,
          "duration": 0.38221115625000834
        },
        {
          "name": "A3",
          "midi": 57,
          "time": 241.38437399999972,
          "velocity": 0.9291338582677166,
          "duration": 0.07451915625000538
        },
        {
          "name": "C4",
          "midi": 60,
          "time": 241.38437399999972,
          "velocity": 0.9291338582677166,
          "duration": 0.07932684375001031
        },
        {
          "name": "F4",
          "midi": 65,
          "time": 241.38437399999972,
          "velocity": 0.9291338582677166,
          "duration": 0.1466344687500225
        },
        {
          "name": "A3",
          "midi": 57,
          "time": 241.61514299999973,
          "velocity": 0.9291338582677166,
          "duration": 0.06490378124999552
        },
        {
          "name": "A#3",
          "midi": 58,
          "time": 241.61514299999973,
          "velocity": 0.9291338582677166,
          "duration": 2.545670531249982
        },
        {
          "name": "D#4",
          "midi": 63,
          "time": 241.61514299999973,
          "velocity": 0.9291338582677166,
          "duration": 2.5913435624999863
        },
        {
          "name": "G3",
          "midi": 55,
          "time": 241.61514299999973,
          "velocity": 0.9291338582677166,
          "duration": 2.562497437499985
        },
        {
          "name": "A#4",
          "midi": 70,
          "time": 244.6151399999997,
          "velocity": 0.9291338582677166,
          "duration": 0.324518906250006
        },
        {
          "name": "D4",
          "midi": 62,
          "time": 244.6151399999997,
          "velocity": 0.9291338582677166,
          "duration": 0.324518906250006
        },
        {
          "name": "F4",
          "midi": 65,
          "time": 244.6151399999997,
          "velocity": 0.9291338582677166,
          "duration": 0.3437496562499973
        },
        {
          "name": "F4",
          "midi": 65,
          "time": 245.0766779999997,
          "velocity": 0.9291338582677166,
          "duration": 0.06490378124999552
        },
        {
          "name": "C4",
          "midi": 60,
          "time": 245.0766779999997,
          "velocity": 0.9291338582677166,
          "duration": 0.08413453124998682
        },
        {
          "name": "A4",
          "midi": 69,
          "time": 245.0766779999997,
          "velocity": 0.9291338582677166,
          "duration": 0.10817296874998306
        },
        {
          "name": "D#4",
          "midi": 63,
          "time": 245.30744699999968,
          "velocity": 0.9291338582677166,
          "duration": 0.1249998749999861
        },
        {
          "name": "C5",
          "midi": 72,
          "time": 245.30744699999968,
          "velocity": 0.9291338582677166,
          "duration": 0.14182678124998915
        },
        {
          "name": "A#4",
          "midi": 70,
          "time": 245.30744699999968,
          "velocity": 0.9291338582677166,
          "duration": 0.12980756249999104
        },
        {
          "name": "G4",
          "midi": 67,
          "time": 245.30744699999968,
          "velocity": 0.9291338582677166,
          "duration": 0.1442306249999774
        }
      ],
      "controlChanges": {
        "1": [
          {
            "number": 1,
            "time": 0.019230749999999994,
            "value": 0
          }
        ],
        "6": [
          {
            "number": 6,
            "time": 0.014423062499999997,
            "value": 0.09448818897637795
          }
        ],
        "7": [
          {
            "number": 7,
            "time": 1.394229375,
            "value": 0.6299212598425197
          }
        ],
        "10": [
          {
            "number": 10,
            "time": 1.3990370625000002,
            "value": 0.5039370078740157
          }
        ],
        "11": [
          {
            "number": 11,
            "time": 0.016826906249999996,
            "value": 1
          },
          {
            "number": 11,
            "time": 0.024038437499999996,
            "value": 1
          },
          {
            "number": 11,
            "time": 1.4038447500000002,
            "value": 1
          }
        ],
        "64": [
          {
            "number": 64,
            "time": 0.007211531249999999,
            "value": 0
          }
        ],
        "67": [
          {
            "number": 67,
            "time": 0.0048076874999999995,
            "value": 0
          }
        ],
        "91": [
          {
            "number": 91,
            "time": 1.4086524375000002,
            "value": 0.5039370078740157
          }
        ],
        "93": [
          {
            "number": 93,
            "time": 1.4134601250000003,
            "value": 0.3543307086614173
          }
        ],
        "100": [
          {
            "number": 100,
            "time": 0.009615374999999999,
            "value": 0
          }
        ],
        "101": [
          {
            "number": 101,
            "time": 0.012019218749999998,
            "value": 0
          }
        ],
        "121": [
          {
            "number": 121,
            "time": 0,
            "value": 0
          }
        ]
      },
      "id": 5,
      "name": "Rhodes              ",
      "instrumentNumber": 5,
      "instrument": "electric piano 2",
      "instrumentFamily": "piano",
      "channelNumber": 2,
      "isPercussion": false
    },
    {
      "startTime": 3.692304,
      "duration": 215.04545803125046,
      "length": 426,
      "notes": [
        {
          "name": "G5",
          "midi": 79,
          "time": 3.692304,
          "velocity": 0.7795275590551181,
          "duration": 0.11057681250000018
        },
        {
          "name": "D#5",
          "midi": 75,
          "time": 3.8076885000000003,
          "velocity": 0.7795275590551181,
          "duration": 0.11057681250000018
        },
        {
          "name": "B4",
          "midi": 71,
          "time": 3.9230730000000005,
          "velocity": 0.7795275590551181,
          "duration": 0.11057681249999973
        },
        {
          "name": "A#4",
          "midi": 70,
          "time": 4.0384575,
          "velocity": 0.7795275590551181,
          "duration": 0.11057681249999973
        },
        {
          "name": "B4",
          "midi": 71,
          "time": 4.153841999999999,
          "velocity": 0.7795275590551181,
          "duration": 0.11057681249999973
        },
        {
          "name": "A#4",
          "midi": 70,
          "time": 4.2692264999999985,
          "velocity": 0.7795275590551181,
          "duration": 0.11057681249999973
        },
        {
          "name": "F4",
          "midi": 65,
          "time": 4.384610999999998,
          "velocity": 0.7795275590551181,
          "duration": 0.11057681249999973
        },
        {
          "name": "D#4",
          "midi": 63,
          "time": 4.499995499999997,
          "velocity": 0.7795275590551181,
          "duration": 0.11057681249999973
        },
        {
          "name": "F4",
          "midi": 65,
          "time": 4.6153799999999965,
          "velocity": 0.7795275590551181,
          "duration": 0.11057681249999973
        },
        {
          "name": "D#4",
          "midi": 63,
          "time": 4.730764499999996,
          "velocity": 0.7795275590551181,
          "duration": 0.11057681249999973
        },
        {
          "name": "B3",
          "midi": 59,
          "time": 4.846148999999995,
          "velocity": 0.7795275590551181,
          "duration": 0.11057681249999973
        },
        {
          "name": "A#3",
          "midi": 58,
          "time": 4.9615334999999945,
          "velocity": 0.7795275590551181,
          "duration": 0.11057681249999973
        },
        {
          "name": "B3",
          "midi": 59,
          "time": 5.076917999999994,
          "velocity": 0.7795275590551181,
          "duration": 0.11057681249999973
        },
        {
          "name": "A#3",
          "midi": 58,
          "time": 5.192302499999993,
          "velocity": 0.7795275590551181,
          "duration": 0.11057681249999973
        },
        {
          "name": "G3",
          "midi": 55,
          "time": 5.3076869999999925,
          "velocity": 0.7795275590551181,
          "duration": 0.11057681249999973
        },
        {
          "name": "G#3",
          "midi": 56,
          "time": 5.423071499999992,
          "velocity": 0.7795275590551181,
          "duration": 0.11057681249999973
        },
        {
          "name": "B3",
          "midi": 59,
          "time": 5.538455999999991,
          "velocity": 0.7795275590551181,
          "duration": 0.11057681249999973
        },
        {
          "name": "G#3",
          "midi": 56,
          "time": 5.6538404999999905,
          "velocity": 0.7795275590551181,
          "duration": 0.11057681249999973
        },
        {
          "name": "B3",
          "midi": 59,
          "time": 5.76922499999999,
          "velocity": 0.7795275590551181,
          "duration": 0.11057681249999973
        },
        {
          "name": "D#4",
          "midi": 63,
          "time": 5.884609499999989,
          "velocity": 0.7795275590551181,
          "duration": 0.11057681249999973
        },
        {
          "name": "F4",
          "midi": 65,
          "time": 5.9999939999999885,
          "velocity": 0.7795275590551181,
          "duration": 0.11057681249999973
        },
        {
          "name": "G#4",
          "midi": 68,
          "time": 6.115378499999988,
          "velocity": 0.7795275590551181,
          "duration": 0.11057681249999973
        },
        {
          "name": "A#4",
          "midi": 70,
          "time": 6.230762999999987,
          "velocity": 0.7795275590551181,
          "duration": 0.11057681249999973
        },
        {
          "name": "B4",
          "midi": 71,
          "time": 6.3461474999999865,
          "velocity": 0.7795275590551181,
          "duration": 0.11057681249999973
        },
        {
          "name": "C#5",
          "midi": 73,
          "time": 6.461531999999986,
          "velocity": 0.7795275590551181,
          "duration": 0.11057681249999973
        },
        {
          "name": "D#5",
          "midi": 75,
          "time": 6.576916499999985,
          "velocity": 0.7795275590551181,
          "duration": 0.11057681249999973
        },
        {
          "name": "G5",
          "midi": 79,
          "time": 6.6923009999999845,
          "velocity": 0.7795275590551181,
          "duration": 0.11057681249999973
        },
        {
          "name": "G#5",
          "midi": 80,
          "time": 6.807685499999984,
          "velocity": 0.7795275590551181,
          "duration": 0.11057681249999973
        },
        {
          "name": "B5",
          "midi": 83,
          "time": 6.923069999999983,
          "velocity": 0.7795275590551181,
          "duration": 0.11057681249999973
        },
        {
          "name": "D#6",
          "midi": 87,
          "time": 7.0384544999999825,
          "velocity": 0.7795275590551181,
          "duration": 0.06730762499999976
        },
        {
          "name": "G6",
          "midi": 91,
          "time": 7.153838999999982,
          "velocity": 0.7795275590551181,
          "duration": 0.06730762499999976
        },
        {
          "name": "G5",
          "midi": 79,
          "time": 35.76919499999998,
          "velocity": 0.7795275590551181,
          "duration": 0.0528845624999974
        },
        {
          "name": "G4",
          "midi": 67,
          "time": 35.76919499999998,
          "velocity": 0.7795275590551181,
          "duration": 0.0528845624999974
        },
        {
          "name": "A4",
          "midi": 69,
          "time": 35.99996399999998,
          "velocity": 0.7795275590551181,
          "duration": 0.23557668750000005
        },
        {
          "name": "A5",
          "midi": 81,
          "time": 35.99996399999998,
          "velocity": 0.7795275590551181,
          "duration": 0.23557668750000005
        },
        {
          "name": "C6",
          "midi": 84,
          "time": 36.23073299999998,
          "velocity": 0.7795275590551181,
          "duration": 0.0528845624999974
        },
        {
          "name": "C5",
          "midi": 72,
          "time": 36.23073299999998,
          "velocity": 0.7795275590551181,
          "duration": 0.0528845624999974
        },
        {
          "name": "A4",
          "midi": 69,
          "time": 36.461501999999975,
          "velocity": 0.7795275590551181,
          "duration": 0.06490378125000262
        },
        {
          "name": "A5",
          "midi": 81,
          "time": 36.461501999999975,
          "velocity": 0.7795275590551181,
          "duration": 0.06490378125000262
        },
        {
          "name": "C5",
          "midi": 72,
          "time": 36.69227099999998,
          "velocity": 0.7795275590551181,
          "duration": 1.2259603124999998
        },
        {
          "name": "C6",
          "midi": 84,
          "time": 36.69227099999998,
          "velocity": 0.7795275590551181,
          "duration": 1.2259603124999998
        },
        {
          "name": "A5",
          "midi": 81,
          "time": 38.076884999999976,
          "velocity": 0.7795275590551181,
          "duration": 0.0528845624999974
        },
        {
          "name": "A4",
          "midi": 69,
          "time": 38.076884999999976,
          "velocity": 0.7795275590551181,
          "duration": 0.0528845624999974
        },
        {
          "name": "C5",
          "midi": 72,
          "time": 38.30765399999997,
          "velocity": 0.7795275590551181,
          "duration": 0.0528845624999974
        },
        {
          "name": "C6",
          "midi": 84,
          "time": 38.30765399999997,
          "velocity": 0.7795275590551181,
          "duration": 0.0528845624999974
        },
        {
          "name": "D5",
          "midi": 74,
          "time": 38.538422999999966,
          "velocity": 0.7795275590551181,
          "duration": 1.0360566562499969
        },
        {
          "name": "D6",
          "midi": 86,
          "time": 38.538422999999966,
          "velocity": 0.7795275590551181,
          "duration": 1.0360566562499969
        },
        {
          "name": "A6",
          "midi": 93,
          "time": 39.69226799999996,
          "velocity": 0.7795275590551181,
          "duration": 0.0528845624999974
        },
        {
          "name": "A5",
          "midi": 81,
          "time": 39.69226799999996,
          "velocity": 0.7795275590551181,
          "duration": 0.0528845624999974
        },
        {
          "name": "G5",
          "midi": 79,
          "time": 39.92303699999996,
          "velocity": 0.7795275590551181,
          "duration": 0.0528845624999974
        },
        {
          "name": "G6",
          "midi": 91,
          "time": 39.92303699999996,
          "velocity": 0.7795275590551181,
          "duration": 0.0528845624999974
        },
        {
          "name": "D#6",
          "midi": 87,
          "time": 40.15380599999995,
          "velocity": 0.7795275590551181,
          "duration": 0.0528845624999974
        },
        {
          "name": "D#5",
          "midi": 75,
          "time": 40.15380599999995,
          "velocity": 0.7795275590551181,
          "duration": 0.0528845624999974
        },
        {
          "name": "D6",
          "midi": 86,
          "time": 40.26919049999995,
          "velocity": 0.7795275590551181,
          "duration": 0.0528845624999974
        },
        {
          "name": "D5",
          "midi": 74,
          "time": 40.26919049999995,
          "velocity": 0.7795275590551181,
          "duration": 0.0528845624999974
        },
        {
          "name": "C6",
          "midi": 84,
          "time": 40.38457499999995,
          "velocity": 0.7795275590551181,
          "duration": 1.2764410312500019
        },
        {
          "name": "C5",
          "midi": 72,
          "time": 40.38457499999995,
          "velocity": 0.7795275590551181,
          "duration": 1.2764410312500019
        },
        {
          "name": "A4",
          "midi": 69,
          "time": 41.76918899999995,
          "velocity": 0.7795275590551181,
          "duration": 0.10817296874999727
        },
        {
          "name": "A5",
          "midi": 81,
          "time": 41.76918899999995,
          "velocity": 0.7795275590551181,
          "duration": 0.10817296874999727
        },
        {
          "name": "C5",
          "midi": 72,
          "time": 41.99995799999994,
          "velocity": 0.7795275590551181,
          "duration": 0.0793268437499961
        },
        {
          "name": "C6",
          "midi": 84,
          "time": 41.99995799999994,
          "velocity": 0.7795275590551181,
          "duration": 0.0528845624999974
        },
        {
          "name": "C5",
          "midi": 72,
          "time": 42.23072699999994,
          "velocity": 0.7795275590551181,
          "duration": 1.1105758125000023
        },
        {
          "name": "C6",
          "midi": 84,
          "time": 42.23072699999994,
          "velocity": 0.7795275590551181,
          "duration": 1.1105758125000023
        },
        {
          "name": "G5",
          "midi": 79,
          "time": 43.38457199999994,
          "velocity": 0.7795275590551181,
          "duration": 0.0528845624999974
        },
        {
          "name": "G4",
          "midi": 67,
          "time": 43.38457199999994,
          "velocity": 0.7795275590551181,
          "duration": 0.0528845624999974
        },
        {
          "name": "A5",
          "midi": 81,
          "time": 43.61534099999994,
          "velocity": 0.7795275590551181,
          "duration": 0.0865383750000035
        },
        {
          "name": "A4",
          "midi": 69,
          "time": 43.61534099999994,
          "velocity": 0.7795275590551181,
          "duration": 0.0865383750000035
        },
        {
          "name": "C5",
          "midi": 72,
          "time": 43.84610999999994,
          "velocity": 0.7795275590551181,
          "duration": 0.0528845624999974
        },
        {
          "name": "C6",
          "midi": 84,
          "time": 43.84610999999994,
          "velocity": 0.7795275590551181,
          "duration": 0.0528845624999974
        },
        {
          "name": "C5",
          "midi": 72,
          "time": 44.076878999999934,
          "velocity": 0.7795275590551181,
          "duration": 1.221152625000002
        },
        {
          "name": "C6",
          "midi": 84,
          "time": 44.076878999999934,
          "velocity": 0.7795275590551181,
          "duration": 1.221152625000002
        },
        {
          "name": "A4",
          "midi": 69,
          "time": 45.46149299999993,
          "velocity": 0.7795275590551181,
          "duration": 0.0528845624999974
        },
        {
          "name": "A5",
          "midi": 81,
          "time": 45.46149299999993,
          "velocity": 0.7795275590551181,
          "duration": 0.0528845624999974
        },
        {
          "name": "C5",
          "midi": 72,
          "time": 45.69226199999993,
          "velocity": 0.7795275590551181,
          "duration": 0.0528845624999974
        },
        {
          "name": "C6",
          "midi": 84,
          "time": 45.69226199999993,
          "velocity": 0.7795275590551181,
          "duration": 0.0528845624999974
        },
        {
          "name": "D5",
          "midi": 74,
          "time": 45.92303099999992,
          "velocity": 0.7795275590551181,
          "duration": 1.0216335937499963
        },
        {
          "name": "D6",
          "midi": 86,
          "time": 45.92303099999992,
          "velocity": 0.7795275590551181,
          "duration": 1.0216335937499963
        },
        {
          "name": "A5",
          "midi": 81,
          "time": 47.07687599999992,
          "velocity": 0.7795275590551181,
          "duration": 0.0528845624999974
        },
        {
          "name": "A6",
          "midi": 93,
          "time": 47.07687599999992,
          "velocity": 0.7795275590551181,
          "duration": 0.0528845624999974
        },
        {
          "name": "G5",
          "midi": 79,
          "time": 47.307644999999916,
          "velocity": 0.7795275590551181,
          "duration": 0.0528845624999974
        },
        {
          "name": "G6",
          "midi": 91,
          "time": 47.307644999999916,
          "velocity": 0.7795275590551181,
          "duration": 0.0528845624999974
        },
        {
          "name": "D#5",
          "midi": 75,
          "time": 47.53841399999991,
          "velocity": 0.7795275590551181,
          "duration": 0.06971146875000045
        },
        {
          "name": "D#6",
          "midi": 87,
          "time": 47.53841399999991,
          "velocity": 0.7795275590551181,
          "duration": 0.06971146875000045
        },
        {
          "name": "D5",
          "midi": 74,
          "time": 47.65379849999991,
          "velocity": 0.7795275590551181,
          "duration": 0.19711518749999613
        },
        {
          "name": "D6",
          "midi": 86,
          "time": 47.65379849999991,
          "velocity": 0.7795275590551181,
          "duration": 0.19711518749999613
        },
        {
          "name": "C6",
          "midi": 84,
          "time": 47.769182999999906,
          "velocity": 0.7795275590551181,
          "duration": 1.338940968750002
        },
        {
          "name": "C5",
          "midi": 72,
          "time": 47.769182999999906,
          "velocity": 0.7795275590551181,
          "duration": 1.338940968750002
        },
        {
          "name": "A4",
          "midi": 69,
          "time": 49.153796999999905,
          "velocity": 0.7795275590551181,
          "duration": 0.0865383750000035
        },
        {
          "name": "A5",
          "midi": 81,
          "time": 49.153796999999905,
          "velocity": 0.7795275590551181,
          "duration": 0.0865383750000035
        },
        {
          "name": "C5",
          "midi": 72,
          "time": 49.38456599999991,
          "velocity": 0.7795275590551181,
          "duration": 0.0528845624999974
        },
        {
          "name": "C6",
          "midi": 84,
          "time": 49.38456599999991,
          "velocity": 0.7795275590551181,
          "duration": 0.0528845624999974
        },
        {
          "name": "C5",
          "midi": 72,
          "time": 49.6153349999999,
          "velocity": 0.7795275590551181,
          "duration": 1.1225950312500004
        },
        {
          "name": "C6",
          "midi": 84,
          "time": 49.6153349999999,
          "velocity": 0.7795275590551181,
          "duration": 1.1225950312500004
        },
        {
          "name": "G5",
          "midi": 79,
          "time": 80.0768429999999,
          "velocity": 0.7795275590551181,
          "duration": 0.0528845624999974
        },
        {
          "name": "G4",
          "midi": 67,
          "time": 80.0768429999999,
          "velocity": 0.7795275590551181,
          "duration": 0.0528845624999974
        },
        {
          "name": "A4",
          "midi": 69,
          "time": 80.30761199999989,
          "velocity": 0.7795275590551181,
          "duration": 0.23557668750000005
        },
        {
          "name": "A5",
          "midi": 81,
          "time": 80.30761199999989,
          "velocity": 0.7795275590551181,
          "duration": 0.23557668750000005
        },
        {
          "name": "C6",
          "midi": 84,
          "time": 80.53838099999989,
          "velocity": 0.7795275590551181,
          "duration": 0.05288456250001161
        },
        {
          "name": "C5",
          "midi": 72,
          "time": 80.53838099999989,
          "velocity": 0.7795275590551181,
          "duration": 0.05288456250001161
        },
        {
          "name": "A4",
          "midi": 69,
          "time": 80.7691499999999,
          "velocity": 0.7795275590551181,
          "duration": 0.06490378124999552
        },
        {
          "name": "A5",
          "midi": 81,
          "time": 80.7691499999999,
          "velocity": 0.7795275590551181,
          "duration": 0.06490378124999552
        },
        {
          "name": "C5",
          "midi": 72,
          "time": 80.99991899999989,
          "velocity": 0.7795275590551181,
          "duration": 1.225960312500007
        },
        {
          "name": "C6",
          "midi": 84,
          "time": 80.99991899999989,
          "velocity": 0.7795275590551181,
          "duration": 1.225960312500007
        },
        {
          "name": "A5",
          "midi": 81,
          "time": 82.3845329999999,
          "velocity": 0.7795275590551181,
          "duration": 0.0528845624999974
        },
        {
          "name": "A4",
          "midi": 69,
          "time": 82.3845329999999,
          "velocity": 0.7795275590551181,
          "duration": 0.0528845624999974
        },
        {
          "name": "C5",
          "midi": 72,
          "time": 82.6153019999999,
          "velocity": 0.7795275590551181,
          "duration": 0.0528845624999974
        },
        {
          "name": "C6",
          "midi": 84,
          "time": 82.6153019999999,
          "velocity": 0.7795275590551181,
          "duration": 0.0528845624999974
        },
        {
          "name": "D5",
          "midi": 74,
          "time": 82.8460709999999,
          "velocity": 0.7795275590551181,
          "duration": 1.0360566562499969
        },
        {
          "name": "D6",
          "midi": 86,
          "time": 82.8460709999999,
          "velocity": 0.7795275590551181,
          "duration": 1.0360566562499969
        },
        {
          "name": "A6",
          "midi": 93,
          "time": 83.99991599999989,
          "velocity": 0.7795275590551181,
          "duration": 0.0528845624999974
        },
        {
          "name": "A5",
          "midi": 81,
          "time": 83.99991599999989,
          "velocity": 0.7795275590551181,
          "duration": 0.0528845624999974
        },
        {
          "name": "G5",
          "midi": 79,
          "time": 84.23068499999988,
          "velocity": 0.7795275590551181,
          "duration": 0.0528845624999974
        },
        {
          "name": "G6",
          "midi": 91,
          "time": 84.23068499999988,
          "velocity": 0.7795275590551181,
          "duration": 0.0528845624999974
        },
        {
          "name": "D#6",
          "midi": 87,
          "time": 84.46145399999988,
          "velocity": 0.7795275590551181,
          "duration": 0.0528845624999974
        },
        {
          "name": "D#5",
          "midi": 75,
          "time": 84.46145399999988,
          "velocity": 0.7795275590551181,
          "duration": 0.0528845624999974
        },
        {
          "name": "D6",
          "midi": 86,
          "time": 84.57683849999987,
          "velocity": 0.7795275590551181,
          "duration": 0.0528845624999974
        },
        {
          "name": "D5",
          "midi": 74,
          "time": 84.57683849999987,
          "velocity": 0.7795275590551181,
          "duration": 0.0528845624999974
        },
        {
          "name": "C6",
          "midi": 84,
          "time": 84.69222299999986,
          "velocity": 0.7795275590551181,
          "duration": 1.2764410312500019
        },
        {
          "name": "C5",
          "midi": 72,
          "time": 84.69222299999986,
          "velocity": 0.7795275590551181,
          "duration": 1.2764410312500019
        },
        {
          "name": "A4",
          "midi": 69,
          "time": 86.07683699999986,
          "velocity": 0.7795275590551181,
          "duration": 0.10817296874999727
        },
        {
          "name": "A5",
          "midi": 81,
          "time": 86.07683699999986,
          "velocity": 0.7795275590551181,
          "duration": 0.10817296874999727
        },
        {
          "name": "C5",
          "midi": 72,
          "time": 86.30760599999985,
          "velocity": 0.7795275590551181,
          "duration": 0.0793268437499961
        },
        {
          "name": "C6",
          "midi": 84,
          "time": 86.30760599999985,
          "velocity": 0.7795275590551181,
          "duration": 0.0528845624999974
        },
        {
          "name": "C5",
          "midi": 72,
          "time": 86.53837499999985,
          "velocity": 0.7795275590551181,
          "duration": 1.1105758125000023
        },
        {
          "name": "C6",
          "midi": 84,
          "time": 86.53837499999985,
          "velocity": 0.7795275590551181,
          "duration": 1.1105758125000023
        },
        {
          "name": "G5",
          "midi": 79,
          "time": 87.69221999999985,
          "velocity": 0.7795275590551181,
          "duration": 0.0528845624999974
        },
        {
          "name": "G4",
          "midi": 67,
          "time": 87.69221999999985,
          "velocity": 0.7795275590551181,
          "duration": 0.0528845624999974
        },
        {
          "name": "A5",
          "midi": 81,
          "time": 87.92298899999984,
          "velocity": 0.7795275590551181,
          "duration": 0.0865383750000035
        },
        {
          "name": "A4",
          "midi": 69,
          "time": 87.92298899999984,
          "velocity": 0.7795275590551181,
          "duration": 0.0865383750000035
        },
        {
          "name": "C5",
          "midi": 72,
          "time": 88.15375799999985,
          "velocity": 0.7795275590551181,
          "duration": 0.0528845624999974
        },
        {
          "name": "C6",
          "midi": 84,
          "time": 88.15375799999985,
          "velocity": 0.7795275590551181,
          "duration": 0.0528845624999974
        },
        {
          "name": "C5",
          "midi": 72,
          "time": 88.38452699999985,
          "velocity": 0.7795275590551181,
          "duration": 1.221152625000002
        },
        {
          "name": "C6",
          "midi": 84,
          "time": 88.38452699999985,
          "velocity": 0.7795275590551181,
          "duration": 1.221152625000002
        },
        {
          "name": "A4",
          "midi": 69,
          "time": 89.76914099999985,
          "velocity": 0.7795275590551181,
          "duration": 0.0528845624999974
        },
        {
          "name": "A5",
          "midi": 81,
          "time": 89.76914099999985,
          "velocity": 0.7795275590551181,
          "duration": 0.0528845624999974
        },
        {
          "name": "C5",
          "midi": 72,
          "time": 89.99990999999984,
          "velocity": 0.7795275590551181,
          "duration": 0.0528845624999974
        },
        {
          "name": "C6",
          "midi": 84,
          "time": 89.99990999999984,
          "velocity": 0.7795275590551181,
          "duration": 0.0528845624999974
        },
        {
          "name": "D5",
          "midi": 74,
          "time": 90.23067899999984,
          "velocity": 0.7795275590551181,
          "duration": 1.0216335937499963
        },
        {
          "name": "D6",
          "midi": 86,
          "time": 90.23067899999984,
          "velocity": 0.7795275590551181,
          "duration": 1.0216335937499963
        },
        {
          "name": "A5",
          "midi": 81,
          "time": 91.38452399999983,
          "velocity": 0.7795275590551181,
          "duration": 0.0528845624999974
        },
        {
          "name": "A6",
          "midi": 93,
          "time": 91.38452399999983,
          "velocity": 0.7795275590551181,
          "duration": 0.0528845624999974
        },
        {
          "name": "G5",
          "midi": 79,
          "time": 91.61529299999982,
          "velocity": 0.7795275590551181,
          "duration": 0.0528845624999974
        },
        {
          "name": "G6",
          "midi": 91,
          "time": 91.61529299999982,
          "velocity": 0.7795275590551181,
          "duration": 0.0528845624999974
        },
        {
          "name": "D#5",
          "midi": 75,
          "time": 91.84606199999982,
          "velocity": 0.7795275590551181,
          "duration": 0.06971146875000045
        },
        {
          "name": "D#6",
          "midi": 87,
          "time": 91.84606199999982,
          "velocity": 0.7795275590551181,
          "duration": 0.06971146875000045
        },
        {
          "name": "D5",
          "midi": 74,
          "time": 91.96144649999982,
          "velocity": 0.7795275590551181,
          "duration": 0.19711518750000323
        },
        {
          "name": "D6",
          "midi": 86,
          "time": 91.96144649999982,
          "velocity": 0.7795275590551181,
          "duration": 0.19711518750000323
        },
        {
          "name": "C6",
          "midi": 84,
          "time": 92.07683099999983,
          "velocity": 0.7795275590551181,
          "duration": 1.338940968749995
        },
        {
          "name": "C5",
          "midi": 72,
          "time": 92.07683099999983,
          "velocity": 0.7795275590551181,
          "duration": 1.338940968749995
        },
        {
          "name": "A4",
          "midi": 69,
          "time": 93.46144499999983,
          "velocity": 0.7795275590551181,
          "duration": 0.0865383750000035
        },
        {
          "name": "A5",
          "midi": 81,
          "time": 93.46144499999983,
          "velocity": 0.7795275590551181,
          "duration": 0.0865383750000035
        },
        {
          "name": "C5",
          "midi": 72,
          "time": 93.69221399999984,
          "velocity": 0.7795275590551181,
          "duration": 0.0528845624999974
        },
        {
          "name": "C6",
          "midi": 84,
          "time": 93.69221399999984,
          "velocity": 0.7795275590551181,
          "duration": 0.0528845624999974
        },
        {
          "name": "C5",
          "midi": 72,
          "time": 93.92298299999983,
          "velocity": 0.7795275590551181,
          "duration": 1.1225950312500004
        },
        {
          "name": "C6",
          "midi": 84,
          "time": 93.92298299999983,
          "velocity": 0.7795275590551181,
          "duration": 1.1225950312500004
        },
        {
          "name": "G5",
          "midi": 79,
          "time": 124.38449099999983,
          "velocity": 0.7795275590551181,
          "duration": 0.0528845624999974
        },
        {
          "name": "G4",
          "midi": 67,
          "time": 124.38449099999983,
          "velocity": 0.7795275590551181,
          "duration": 0.0528845624999974
        },
        {
          "name": "A4",
          "midi": 69,
          "time": 124.61525999999982,
          "velocity": 0.7795275590551181,
          "duration": 0.23557668750000005
        },
        {
          "name": "A5",
          "midi": 81,
          "time": 124.61525999999982,
          "velocity": 0.7795275590551181,
          "duration": 0.23557668750000005
        },
        {
          "name": "C6",
          "midi": 84,
          "time": 124.84602899999982,
          "velocity": 0.7795275590551181,
          "duration": 0.05288456250001161
        },
        {
          "name": "C5",
          "midi": 72,
          "time": 124.84602899999982,
          "velocity": 0.7795275590551181,
          "duration": 0.05288456250001161
        },
        {
          "name": "A4",
          "midi": 69,
          "time": 125.07679799999983,
          "velocity": 0.7795275590551181,
          "duration": 0.06490378124999552
        },
        {
          "name": "A5",
          "midi": 81,
          "time": 125.07679799999983,
          "velocity": 0.7795275590551181,
          "duration": 0.06490378124999552
        },
        {
          "name": "C5",
          "midi": 72,
          "time": 125.30756699999982,
          "velocity": 0.7795275590551181,
          "duration": 1.2259603124999927
        },
        {
          "name": "C6",
          "midi": 84,
          "time": 125.30756699999982,
          "velocity": 0.7795275590551181,
          "duration": 1.2259603124999927
        },
        {
          "name": "A5",
          "midi": 81,
          "time": 126.69218099999982,
          "velocity": 0.7795275590551181,
          "duration": 0.0528845624999974
        },
        {
          "name": "A4",
          "midi": 69,
          "time": 126.69218099999982,
          "velocity": 0.7795275590551181,
          "duration": 0.0528845624999974
        },
        {
          "name": "C5",
          "midi": 72,
          "time": 126.92294999999982,
          "velocity": 0.7795275590551181,
          "duration": 0.0528845624999974
        },
        {
          "name": "C6",
          "midi": 84,
          "time": 126.92294999999982,
          "velocity": 0.7795275590551181,
          "duration": 0.0528845624999974
        },
        {
          "name": "D5",
          "midi": 74,
          "time": 127.15371899999981,
          "velocity": 0.7795275590551181,
          "duration": 1.036056656250011
        },
        {
          "name": "D6",
          "midi": 86,
          "time": 127.15371899999981,
          "velocity": 0.7795275590551181,
          "duration": 1.036056656250011
        },
        {
          "name": "A6",
          "midi": 93,
          "time": 128.30756399999981,
          "velocity": 0.7795275590551181,
          "duration": 0.0528845624999974
        },
        {
          "name": "A5",
          "midi": 81,
          "time": 128.30756399999981,
          "velocity": 0.7795275590551181,
          "duration": 0.0528845624999974
        },
        {
          "name": "G5",
          "midi": 79,
          "time": 128.53833299999982,
          "velocity": 0.7795275590551181,
          "duration": 0.0528845624999974
        },
        {
          "name": "G6",
          "midi": 91,
          "time": 128.53833299999982,
          "velocity": 0.7795275590551181,
          "duration": 0.0528845624999974
        },
        {
          "name": "D#6",
          "midi": 87,
          "time": 128.76910199999983,
          "velocity": 0.7795275590551181,
          "duration": 0.0528845624999974
        },
        {
          "name": "D#5",
          "midi": 75,
          "time": 128.76910199999983,
          "velocity": 0.7795275590551181,
          "duration": 0.0528845624999974
        },
        {
          "name": "D6",
          "midi": 86,
          "time": 128.88448649999984,
          "velocity": 0.7795275590551181,
          "duration": 0.0528845624999974
        },
        {
          "name": "D5",
          "midi": 74,
          "time": 128.88448649999984,
          "velocity": 0.7795275590551181,
          "duration": 0.0528845624999974
        },
        {
          "name": "C6",
          "midi": 84,
          "time": 128.99987099999984,
          "velocity": 0.7795275590551181,
          "duration": 1.2764410312499876
        },
        {
          "name": "C5",
          "midi": 72,
          "time": 128.99987099999984,
          "velocity": 0.7795275590551181,
          "duration": 1.2764410312499876
        },
        {
          "name": "A4",
          "midi": 69,
          "time": 130.38448499999984,
          "velocity": 0.7795275590551181,
          "duration": 0.10817296875001148
        },
        {
          "name": "A5",
          "midi": 81,
          "time": 130.38448499999984,
          "velocity": 0.7795275590551181,
          "duration": 0.10817296875001148
        },
        {
          "name": "C5",
          "midi": 72,
          "time": 130.61525399999985,
          "velocity": 0.7795275590551181,
          "duration": 0.07932684375001031
        },
        {
          "name": "C6",
          "midi": 84,
          "time": 130.61525399999985,
          "velocity": 0.7795275590551181,
          "duration": 0.0528845624999974
        },
        {
          "name": "C5",
          "midi": 72,
          "time": 130.84602299999986,
          "velocity": 0.7795275590551181,
          "duration": 1.1105758125000023
        },
        {
          "name": "C6",
          "midi": 84,
          "time": 130.84602299999986,
          "velocity": 0.7795275590551181,
          "duration": 1.1105758125000023
        },
        {
          "name": "G5",
          "midi": 79,
          "time": 131.99986799999985,
          "velocity": 0.7795275590551181,
          "duration": 0.0528845624999974
        },
        {
          "name": "G4",
          "midi": 67,
          "time": 131.99986799999985,
          "velocity": 0.7795275590551181,
          "duration": 0.0528845624999974
        },
        {
          "name": "A5",
          "midi": 81,
          "time": 132.23063699999986,
          "velocity": 0.7795275590551181,
          "duration": 0.0865383750000035
        },
        {
          "name": "A4",
          "midi": 69,
          "time": 132.23063699999986,
          "velocity": 0.7795275590551181,
          "duration": 0.0865383750000035
        },
        {
          "name": "C5",
          "midi": 72,
          "time": 132.46140599999987,
          "velocity": 0.7795275590551181,
          "duration": 0.0528845624999974
        },
        {
          "name": "C6",
          "midi": 84,
          "time": 132.46140599999987,
          "velocity": 0.7795275590551181,
          "duration": 0.0528845624999974
        },
        {
          "name": "C5",
          "midi": 72,
          "time": 132.69217499999988,
          "velocity": 0.7795275590551181,
          "duration": 1.221152625000002
        },
        {
          "name": "C6",
          "midi": 84,
          "time": 132.69217499999988,
          "velocity": 0.7795275590551181,
          "duration": 1.221152625000002
        },
        {
          "name": "A4",
          "midi": 69,
          "time": 134.07678899999988,
          "velocity": 0.7795275590551181,
          "duration": 0.0528845624999974
        },
        {
          "name": "A5",
          "midi": 81,
          "time": 134.07678899999988,
          "velocity": 0.7795275590551181,
          "duration": 0.0528845624999974
        },
        {
          "name": "C5",
          "midi": 72,
          "time": 134.3075579999999,
          "velocity": 0.7795275590551181,
          "duration": 0.0528845624999974
        },
        {
          "name": "C6",
          "midi": 84,
          "time": 134.3075579999999,
          "velocity": 0.7795275590551181,
          "duration": 0.0528845624999974
        },
        {
          "name": "D5",
          "midi": 74,
          "time": 134.5383269999999,
          "velocity": 0.7795275590551181,
          "duration": 1.0216335937500105
        },
        {
          "name": "D6",
          "midi": 86,
          "time": 134.5383269999999,
          "velocity": 0.7795275590551181,
          "duration": 1.0216335937500105
        },
        {
          "name": "A5",
          "midi": 81,
          "time": 135.6921719999999,
          "velocity": 0.7795275590551181,
          "duration": 0.0528845624999974
        },
        {
          "name": "A6",
          "midi": 93,
          "time": 135.6921719999999,
          "velocity": 0.7795275590551181,
          "duration": 0.0528845624999974
        },
        {
          "name": "G5",
          "midi": 79,
          "time": 135.92294099999992,
          "velocity": 0.7795275590551181,
          "duration": 0.0528845624999974
        },
        {
          "name": "G6",
          "midi": 91,
          "time": 135.92294099999992,
          "velocity": 0.7795275590551181,
          "duration": 0.0528845624999974
        },
        {
          "name": "D#5",
          "midi": 75,
          "time": 136.15370999999993,
          "velocity": 0.7795275590551181,
          "duration": 0.06971146875000045
        },
        {
          "name": "D#6",
          "midi": 87,
          "time": 136.15370999999993,
          "velocity": 0.7795275590551181,
          "duration": 0.06971146875000045
        },
        {
          "name": "D5",
          "midi": 74,
          "time": 136.26909449999994,
          "velocity": 0.7795275590551181,
          "duration": 0.19711518750000323
        },
        {
          "name": "D6",
          "midi": 86,
          "time": 136.26909449999994,
          "velocity": 0.7795275590551181,
          "duration": 0.19711518750000323
        },
        {
          "name": "C6",
          "midi": 84,
          "time": 136.38447899999994,
          "velocity": 0.7795275590551181,
          "duration": 1.338940968749995
        },
        {
          "name": "C5",
          "midi": 72,
          "time": 136.38447899999994,
          "velocity": 0.7795275590551181,
          "duration": 1.338940968749995
        },
        {
          "name": "A4",
          "midi": 69,
          "time": 137.76909299999994,
          "velocity": 0.7795275590551181,
          "duration": 0.0865383750000035
        },
        {
          "name": "A5",
          "midi": 81,
          "time": 137.76909299999994,
          "velocity": 0.7795275590551181,
          "duration": 0.0865383750000035
        },
        {
          "name": "C5",
          "midi": 72,
          "time": 137.99986199999995,
          "velocity": 0.7795275590551181,
          "duration": 0.0528845624999974
        },
        {
          "name": "C6",
          "midi": 84,
          "time": 137.99986199999995,
          "velocity": 0.7795275590551181,
          "duration": 0.0528845624999974
        },
        {
          "name": "C5",
          "midi": 72,
          "time": 138.23063099999996,
          "velocity": 0.7795275590551181,
          "duration": 1.1225950312500004
        },
        {
          "name": "C6",
          "midi": 84,
          "time": 138.23063099999996,
          "velocity": 0.7795275590551181,
          "duration": 1.1225950312500004
        },
        {
          "name": "D5",
          "midi": 74,
          "time": 140.07678299999995,
          "velocity": 0.7795275590551181,
          "duration": 1.5697099687500042
        },
        {
          "name": "D3",
          "midi": 50,
          "time": 140.07678299999995,
          "velocity": 0.7795275590551181,
          "duration": 1.5889407187499955
        },
        {
          "name": "F5",
          "midi": 77,
          "time": 141.69216599999996,
          "velocity": 0.7795275590551181,
          "duration": 0.22355746874998772
        },
        {
          "name": "F3",
          "midi": 53,
          "time": 141.69216599999996,
          "velocity": 0.7795275590551181,
          "duration": 0.19471134374998655
        },
        {
          "name": "G5",
          "midi": 79,
          "time": 141.92293499999994,
          "velocity": 0.7795275590551181,
          "duration": 0.20192287500000816
        },
        {
          "name": "G3",
          "midi": 55,
          "time": 141.92293499999994,
          "velocity": 0.7795275590551181,
          "duration": 0.23076900000000933
        },
        {
          "name": "A3",
          "midi": 57,
          "time": 142.15370399999995,
          "velocity": 0.7795275590551181,
          "duration": 0.4110572812500095
        },
        {
          "name": "A5",
          "midi": 81,
          "time": 142.15370399999995,
          "velocity": 0.7795275590551181,
          "duration": 0.44230724999999893
        },
        {
          "name": "G5",
          "midi": 79,
          "time": 142.61524199999994,
          "velocity": 0.7795275590551181,
          "duration": 0.4663456875000236
        },
        {
          "name": "G3",
          "midi": 55,
          "time": 142.61524199999994,
          "velocity": 0.7795275590551181,
          "duration": 0.4519226250000088
        },
        {
          "name": "F5",
          "midi": 77,
          "time": 143.07677999999996,
          "velocity": 0.7795275590551181,
          "duration": 0.4447110937500156
        },
        {
          "name": "F3",
          "midi": 53,
          "time": 143.07677999999996,
          "velocity": 0.7795275590551181,
          "duration": 0.4663456875000236
        },
        {
          "name": "G3",
          "midi": 55,
          "time": 143.53831799999998,
          "velocity": 0.7795275590551181,
          "duration": 0.46874953125001184
        },
        {
          "name": "G5",
          "midi": 79,
          "time": 143.53831799999998,
          "velocity": 0.7795275590551181,
          "duration": 0.49519181250002475
        },
        {
          "name": "E5",
          "midi": 76,
          "time": 143.999856,
          "velocity": 0.7795275590551181,
          "duration": 1.1394219375000034
        },
        {
          "name": "E3",
          "midi": 52,
          "time": 143.999856,
          "velocity": 0.7795275590551181,
          "duration": 1.1706719062499928
        },
        {
          "name": "G3",
          "midi": 55,
          "time": 145.15370099999998,
          "velocity": 0.7795275590551181,
          "duration": 0.24999975000000063
        },
        {
          "name": "G5",
          "midi": 79,
          "time": 145.15370099999998,
          "velocity": 0.7795275590551181,
          "duration": 0.2716343437500086
        },
        {
          "name": "A5",
          "midi": 81,
          "time": 145.38447,
          "velocity": 0.7795275590551181,
          "duration": 0.23317284374999758
        },
        {
          "name": "A3",
          "midi": 57,
          "time": 145.38447,
          "velocity": 0.7795275590551181,
          "duration": 0.2524035937499889
        },
        {
          "name": "B3",
          "midi": 59,
          "time": 145.615239,
          "velocity": 0.7795275590551181,
          "duration": 0.7211531249999723
        },
        {
          "name": "B5",
          "midi": 83,
          "time": 145.615239,
          "velocity": 0.7795275590551181,
          "duration": 0.7043262187499693
        },
        {
          "name": "A3",
          "midi": 57,
          "time": 146.30754599999997,
          "velocity": 0.7795275590551181,
          "duration": 0.40865343749999283
        },
        {
          "name": "A5",
          "midi": 81,
          "time": 146.30754599999997,
          "velocity": 0.7795275590551181,
          "duration": 0.46634568749999517
        },
        {
          "name": "G5",
          "midi": 79,
          "time": 146.76908399999996,
          "velocity": 0.7795275590551181,
          "duration": 0.46874953125001184
        },
        {
          "name": "G3",
          "midi": 55,
          "time": 146.76908399999996,
          "velocity": 0.7795275590551181,
          "duration": 0.4927879687500081
        },
        {
          "name": "E5",
          "midi": 76,
          "time": 147.23062199999998,
          "velocity": 0.7795275590551181,
          "duration": 0.5024033437499895
        },
        {
          "name": "E3",
          "midi": 52,
          "time": 147.23062199999998,
          "velocity": 0.7795275590551181,
          "duration": 0.4302880312500008
        },
        {
          "name": "D3",
          "midi": 50,
          "time": 147.69215999999997,
          "velocity": 0.7795275590551181,
          "duration": 1.3966332187499972
        },
        {
          "name": "D5",
          "midi": 74,
          "time": 147.69215999999997,
          "velocity": 0.7795275590551181,
          "duration": 1.377402468750006
        },
        {
          "name": "F3",
          "midi": 53,
          "time": 149.07677399999997,
          "velocity": 0.7795275590551181,
          "duration": 0.20192287500000816
        },
        {
          "name": "F5",
          "midi": 77,
          "time": 149.07677399999997,
          "velocity": 0.7795275590551181,
          "duration": 0.2187497812500112
        },
        {
          "name": "G3",
          "midi": 55,
          "time": 149.30754299999998,
          "velocity": 0.7795275590551181,
          "duration": 0.2259613125000044
        },
        {
          "name": "G5",
          "midi": 79,
          "time": 149.30754299999998,
          "velocity": 0.7795275590551181,
          "duration": 0.24278821875000745
        },
        {
          "name": "A3",
          "midi": 57,
          "time": 149.538312,
          "velocity": 0.7795275590551181,
          "duration": 0.6730762500000083
        },
        {
          "name": "A5",
          "midi": 81,
          "time": 149.538312,
          "velocity": 0.7795275590551181,
          "duration": 0.6899031562500113
        },
        {
          "name": "G5",
          "midi": 79,
          "time": 150.230619,
          "velocity": 0.7795275590551181,
          "duration": 0.26201896874999875
        },
        {
          "name": "G3",
          "midi": 55,
          "time": 150.230619,
          "velocity": 0.7795275590551181,
          "duration": 0.2451920624999957
        },
        {
          "name": "F3",
          "midi": 53,
          "time": 150.461388,
          "velocity": 0.7795275590551181,
          "duration": 0.5024033437499895
        },
        {
          "name": "F5",
          "midi": 77,
          "time": 150.461388,
          "velocity": 0.7795275590551181,
          "duration": 0.5144225624999876
        },
        {
          "name": "G4",
          "midi": 67,
          "time": 150.922926,
          "velocity": 0.7795275590551181,
          "duration": 0.36057656250000036
        },
        {
          "name": "G5",
          "midi": 79,
          "time": 150.922926,
          "velocity": 0.7795275590551181,
          "duration": 0.37980731249999167
        },
        {
          "name": "G3",
          "midi": 55,
          "time": 150.922926,
          "velocity": 0.7795275590551181,
          "duration": 0.36057656250000036
        },
        {
          "name": "A4",
          "midi": 69,
          "time": 151.38446399999998,
          "velocity": 0.7795275590551181,
          "duration": 0.0336538125000061
        },
        {
          "name": "A3",
          "midi": 57,
          "time": 151.38446399999998,
          "velocity": 0.7795275590551181,
          "duration": 0.0336538125000061
        },
        {
          "name": "G4",
          "midi": 67,
          "time": 151.49984849999998,
          "velocity": 0.7795275590551181,
          "duration": 0.0336538125000061
        },
        {
          "name": "G3",
          "midi": 55,
          "time": 151.49984849999998,
          "velocity": 0.7795275590551181,
          "duration": 0.0336538125000061
        },
        {
          "name": "A4",
          "midi": 69,
          "time": 151.615233,
          "velocity": 0.7795275590551181,
          "duration": 0.0336538125000061
        },
        {
          "name": "A3",
          "midi": 57,
          "time": 151.615233,
          "velocity": 0.7795275590551181,
          "duration": 0.0336538125000061
        },
        {
          "name": "B4",
          "midi": 71,
          "time": 151.7306175,
          "velocity": 0.7795275590551181,
          "duration": 0.0336538125000061
        },
        {
          "name": "B3",
          "midi": 59,
          "time": 151.7306175,
          "velocity": 0.7795275590551181,
          "duration": 0.0336538125000061
        },
        {
          "name": "C5",
          "midi": 72,
          "time": 151.846002,
          "velocity": 0.7795275590551181,
          "duration": 0.0336538125000061
        },
        {
          "name": "C4",
          "midi": 60,
          "time": 151.846002,
          "velocity": 0.7795275590551181,
          "duration": 0.0336538125000061
        },
        {
          "name": "D5",
          "midi": 74,
          "time": 151.9613865,
          "velocity": 0.7795275590551181,
          "duration": 0.0336538125000061
        },
        {
          "name": "D4",
          "midi": 62,
          "time": 151.9613865,
          "velocity": 0.7795275590551181,
          "duration": 0.0336538125000061
        },
        {
          "name": "E5",
          "midi": 76,
          "time": 152.076771,
          "velocity": 0.7795275590551181,
          "duration": 0.0336538125000061
        },
        {
          "name": "E4",
          "midi": 64,
          "time": 152.076771,
          "velocity": 0.7795275590551181,
          "duration": 0.0336538125000061
        },
        {
          "name": "F5",
          "midi": 77,
          "time": 152.1921555,
          "velocity": 0.7795275590551181,
          "duration": 0.0336538125000061
        },
        {
          "name": "F4",
          "midi": 65,
          "time": 152.1921555,
          "velocity": 0.7795275590551181,
          "duration": 0.0336538125000061
        },
        {
          "name": "G5",
          "midi": 79,
          "time": 152.30754000000002,
          "velocity": 0.7795275590551181,
          "duration": 0.918268312500004
        },
        {
          "name": "G4",
          "midi": 67,
          "time": 152.30754000000002,
          "velocity": 0.7795275590551181,
          "duration": 0.918268312500004
        },
        {
          "name": "G3",
          "midi": 55,
          "time": 155.07676800000002,
          "velocity": 0.7795275590551181,
          "duration": 0.045673031250004215
        },
        {
          "name": "G#3",
          "midi": 56,
          "time": 155.19215250000002,
          "velocity": 0.7795275590551181,
          "duration": 0.045673031250004215
        },
        {
          "name": "G3",
          "midi": 55,
          "time": 155.30753700000002,
          "velocity": 0.7795275590551181,
          "duration": 0.045673031250004215
        },
        {
          "name": "G#3",
          "midi": 56,
          "time": 155.42292150000003,
          "velocity": 0.7795275590551181,
          "duration": 0.045673031250004215
        },
        {
          "name": "G3",
          "midi": 55,
          "time": 155.53830600000003,
          "velocity": 0.7795275590551181,
          "duration": 0.045673031250004215
        },
        {
          "name": "G#3",
          "midi": 56,
          "time": 155.65369050000004,
          "velocity": 0.7795275590551181,
          "duration": 0.045673031250004215
        },
        {
          "name": "G3",
          "midi": 55,
          "time": 155.76907500000004,
          "velocity": 0.7795275590551181,
          "duration": 0.045673031250004215
        },
        {
          "name": "G#3",
          "midi": 56,
          "time": 155.88445950000005,
          "velocity": 0.7795275590551181,
          "duration": 0.045673031250004215
        },
        {
          "name": "G3",
          "midi": 55,
          "time": 155.99984400000005,
          "velocity": 0.7795275590551181,
          "duration": 0.045673031250004215
        },
        {
          "name": "G5",
          "midi": 79,
          "time": 155.99984400000005,
          "velocity": 0.7795275590551181,
          "duration": 0.045673031250004215
        },
        {
          "name": "G#5",
          "midi": 80,
          "time": 156.11522850000006,
          "velocity": 0.7795275590551181,
          "duration": 0.045673031250004215
        },
        {
          "name": "G#3",
          "midi": 56,
          "time": 156.11522850000006,
          "velocity": 0.7795275590551181,
          "duration": 0.045673031250004215
        },
        {
          "name": "G3",
          "midi": 55,
          "time": 156.23061300000006,
          "velocity": 0.7795275590551181,
          "duration": 0.045673031250004215
        },
        {
          "name": "G5",
          "midi": 79,
          "time": 156.23061300000006,
          "velocity": 0.7795275590551181,
          "duration": 0.045673031250004215
        },
        {
          "name": "G#5",
          "midi": 80,
          "time": 156.34599750000007,
          "velocity": 0.7795275590551181,
          "duration": 0.045673031250004215
        },
        {
          "name": "G#3",
          "midi": 56,
          "time": 156.34599750000007,
          "velocity": 0.7795275590551181,
          "duration": 0.045673031250004215
        },
        {
          "name": "G3",
          "midi": 55,
          "time": 156.46138200000007,
          "velocity": 0.7795275590551181,
          "duration": 0.045673031250004215
        },
        {
          "name": "G5",
          "midi": 79,
          "time": 156.46138200000007,
          "velocity": 0.7795275590551181,
          "duration": 0.045673031250004215
        },
        {
          "name": "G#5",
          "midi": 80,
          "time": 156.57676650000008,
          "velocity": 0.7795275590551181,
          "duration": 0.045673031250004215
        },
        {
          "name": "G#3",
          "midi": 56,
          "time": 156.57676650000008,
          "velocity": 0.7795275590551181,
          "duration": 0.045673031250004215
        },
        {
          "name": "G3",
          "midi": 55,
          "time": 156.69215100000008,
          "velocity": 0.7795275590551181,
          "duration": 0.045673031250004215
        },
        {
          "name": "G5",
          "midi": 79,
          "time": 156.69215100000008,
          "velocity": 0.7795275590551181,
          "duration": 0.045673031250004215
        },
        {
          "name": "G#5",
          "midi": 80,
          "time": 156.80753550000009,
          "velocity": 0.7795275590551181,
          "duration": 0.045673031250004215
        },
        {
          "name": "G#3",
          "midi": 56,
          "time": 156.80753550000009,
          "velocity": 0.7795275590551181,
          "duration": 0.045673031250004215
        },
        {
          "name": "G5",
          "midi": 79,
          "time": 185.3075070000001,
          "velocity": 0.7795275590551181,
          "duration": 0.0528845624999974
        },
        {
          "name": "G4",
          "midi": 67,
          "time": 185.3075070000001,
          "velocity": 0.7795275590551181,
          "duration": 0.0528845624999974
        },
        {
          "name": "A4",
          "midi": 69,
          "time": 185.5382760000001,
          "velocity": 0.7795275590551181,
          "duration": 0.23557668750001426
        },
        {
          "name": "A5",
          "midi": 81,
          "time": 185.5382760000001,
          "velocity": 0.7795275590551181,
          "duration": 0.23557668750001426
        },
        {
          "name": "C6",
          "midi": 84,
          "time": 185.76904500000012,
          "velocity": 0.7795275590551181,
          "duration": 0.0528845624999974
        },
        {
          "name": "C5",
          "midi": 72,
          "time": 185.76904500000012,
          "velocity": 0.7795275590551181,
          "duration": 0.0528845624999974
        },
        {
          "name": "A4",
          "midi": 69,
          "time": 185.99981400000013,
          "velocity": 0.7795275590551181,
          "duration": 0.06490378124999552
        },
        {
          "name": "A5",
          "midi": 81,
          "time": 185.99981400000013,
          "velocity": 0.7795275590551181,
          "duration": 0.06490378124999552
        },
        {
          "name": "C5",
          "midi": 72,
          "time": 186.23058300000014,
          "velocity": 0.7795275590551181,
          "duration": 1.225960312500007
        },
        {
          "name": "C6",
          "midi": 84,
          "time": 186.23058300000014,
          "velocity": 0.7795275590551181,
          "duration": 1.225960312500007
        },
        {
          "name": "A5",
          "midi": 81,
          "time": 187.61519700000014,
          "velocity": 0.7795275590551181,
          "duration": 0.0528845624999974
        },
        {
          "name": "A4",
          "midi": 69,
          "time": 187.61519700000014,
          "velocity": 0.7795275590551181,
          "duration": 0.0528845624999974
        },
        {
          "name": "C5",
          "midi": 72,
          "time": 187.84596600000015,
          "velocity": 0.7795275590551181,
          "duration": 0.0528845624999974
        },
        {
          "name": "C6",
          "midi": 84,
          "time": 187.84596600000015,
          "velocity": 0.7795275590551181,
          "duration": 0.0528845624999974
        },
        {
          "name": "D5",
          "midi": 74,
          "time": 188.07673500000016,
          "velocity": 0.7795275590551181,
          "duration": 1.0360566562499969
        },
        {
          "name": "D6",
          "midi": 86,
          "time": 188.07673500000016,
          "velocity": 0.7795275590551181,
          "duration": 1.0360566562499969
        },
        {
          "name": "A6",
          "midi": 93,
          "time": 189.23058000000015,
          "velocity": 0.7795275590551181,
          "duration": 0.0528845624999974
        },
        {
          "name": "A5",
          "midi": 81,
          "time": 189.23058000000015,
          "velocity": 0.7795275590551181,
          "duration": 0.0528845624999974
        },
        {
          "name": "G5",
          "midi": 79,
          "time": 189.46134900000015,
          "velocity": 0.7795275590551181,
          "duration": 0.0528845624999974
        },
        {
          "name": "G6",
          "midi": 91,
          "time": 189.46134900000015,
          "velocity": 0.7795275590551181,
          "duration": 0.0528845624999974
        },
        {
          "name": "D#6",
          "midi": 87,
          "time": 189.69211800000016,
          "velocity": 0.7795275590551181,
          "duration": 0.0528845624999974
        },
        {
          "name": "D#5",
          "midi": 75,
          "time": 189.69211800000016,
          "velocity": 0.7795275590551181,
          "duration": 0.0528845624999974
        },
        {
          "name": "D6",
          "midi": 86,
          "time": 189.80750250000017,
          "velocity": 0.7795275590551181,
          "duration": 0.0528845624999974
        },
        {
          "name": "D5",
          "midi": 74,
          "time": 189.80750250000017,
          "velocity": 0.7795275590551181,
          "duration": 0.0528845624999974
        },
        {
          "name": "C6",
          "midi": 84,
          "time": 189.92288700000017,
          "velocity": 0.7795275590551181,
          "duration": 1.2764410312499876
        },
        {
          "name": "C5",
          "midi": 72,
          "time": 189.92288700000017,
          "velocity": 0.7795275590551181,
          "duration": 1.2764410312499876
        },
        {
          "name": "A4",
          "midi": 69,
          "time": 191.30750100000017,
          "velocity": 0.7795275590551181,
          "duration": 0.10817296875001148
        },
        {
          "name": "A5",
          "midi": 81,
          "time": 191.30750100000017,
          "velocity": 0.7795275590551181,
          "duration": 0.10817296875001148
        },
        {
          "name": "C5",
          "midi": 72,
          "time": 191.53827000000018,
          "velocity": 0.7795275590551181,
          "duration": 0.07932684375001031
        },
        {
          "name": "C6",
          "midi": 84,
          "time": 191.53827000000018,
          "velocity": 0.7795275590551181,
          "duration": 0.0528845624999974
        },
        {
          "name": "C5",
          "midi": 72,
          "time": 191.7690390000002,
          "velocity": 0.7795275590551181,
          "duration": 1.1105758125000023
        },
        {
          "name": "C6",
          "midi": 84,
          "time": 191.7690390000002,
          "velocity": 0.7795275590551181,
          "duration": 1.1105758125000023
        },
        {
          "name": "G5",
          "midi": 79,
          "time": 192.92288400000018,
          "velocity": 0.7795275590551181,
          "duration": 0.0528845624999974
        },
        {
          "name": "G4",
          "midi": 67,
          "time": 192.92288400000018,
          "velocity": 0.7795275590551181,
          "duration": 0.0528845624999974
        },
        {
          "name": "A5",
          "midi": 81,
          "time": 193.1536530000002,
          "velocity": 0.7795275590551181,
          "duration": 0.0865383750000035
        },
        {
          "name": "A4",
          "midi": 69,
          "time": 193.1536530000002,
          "velocity": 0.7795275590551181,
          "duration": 0.0865383750000035
        },
        {
          "name": "C5",
          "midi": 72,
          "time": 193.3844220000002,
          "velocity": 0.7795275590551181,
          "duration": 0.0528845624999974
        },
        {
          "name": "C6",
          "midi": 84,
          "time": 193.3844220000002,
          "velocity": 0.7795275590551181,
          "duration": 0.0528845624999974
        },
        {
          "name": "C5",
          "midi": 72,
          "time": 193.6151910000002,
          "velocity": 0.7795275590551181,
          "duration": 1.221152625000002
        },
        {
          "name": "C6",
          "midi": 84,
          "time": 193.6151910000002,
          "velocity": 0.7795275590551181,
          "duration": 1.221152625000002
        },
        {
          "name": "A4",
          "midi": 69,
          "time": 194.9998050000002,
          "velocity": 0.7795275590551181,
          "duration": 0.0528845624999974
        },
        {
          "name": "A5",
          "midi": 81,
          "time": 194.9998050000002,
          "velocity": 0.7795275590551181,
          "duration": 0.0528845624999974
        },
        {
          "name": "C5",
          "midi": 72,
          "time": 195.23057400000022,
          "velocity": 0.7795275590551181,
          "duration": 0.0528845624999974
        },
        {
          "name": "C6",
          "midi": 84,
          "time": 195.23057400000022,
          "velocity": 0.7795275590551181,
          "duration": 0.0528845624999974
        },
        {
          "name": "D5",
          "midi": 74,
          "time": 195.46134300000023,
          "velocity": 0.7795275590551181,
          "duration": 1.0216335937500105
        },
        {
          "name": "D6",
          "midi": 86,
          "time": 195.46134300000023,
          "velocity": 0.7795275590551181,
          "duration": 1.0216335937500105
        },
        {
          "name": "A5",
          "midi": 81,
          "time": 196.61518800000024,
          "velocity": 0.7795275590551181,
          "duration": 0.0528845624999974
        },
        {
          "name": "A6",
          "midi": 93,
          "time": 196.61518800000024,
          "velocity": 0.7795275590551181,
          "duration": 0.0528845624999974
        },
        {
          "name": "G5",
          "midi": 79,
          "time": 196.84595700000025,
          "velocity": 0.7795275590551181,
          "duration": 0.0528845624999974
        },
        {
          "name": "G6",
          "midi": 91,
          "time": 196.84595700000025,
          "velocity": 0.7795275590551181,
          "duration": 0.0528845624999974
        },
        {
          "name": "D#5",
          "midi": 75,
          "time": 197.07672600000026,
          "velocity": 0.7795275590551181,
          "duration": 0.06971146875000045
        },
        {
          "name": "D#6",
          "midi": 87,
          "time": 197.07672600000026,
          "velocity": 0.7795275590551181,
          "duration": 0.06971146875000045
        },
        {
          "name": "D5",
          "midi": 74,
          "time": 197.19211050000027,
          "velocity": 0.7795275590551181,
          "duration": 0.19711518750000323
        },
        {
          "name": "D6",
          "midi": 86,
          "time": 197.19211050000027,
          "velocity": 0.7795275590551181,
          "duration": 0.19711518750000323
        },
        {
          "name": "C6",
          "midi": 84,
          "time": 197.30749500000027,
          "velocity": 0.7795275590551181,
          "duration": 1.338940968749995
        },
        {
          "name": "C5",
          "midi": 72,
          "time": 197.30749500000027,
          "velocity": 0.7795275590551181,
          "duration": 1.338940968749995
        },
        {
          "name": "A4",
          "midi": 69,
          "time": 198.69210900000027,
          "velocity": 0.7795275590551181,
          "duration": 0.0865383750000035
        },
        {
          "name": "A5",
          "midi": 81,
          "time": 198.69210900000027,
          "velocity": 0.7795275590551181,
          "duration": 0.0865383750000035
        },
        {
          "name": "C5",
          "midi": 72,
          "time": 198.92287800000028,
          "velocity": 0.7795275590551181,
          "duration": 0.0528845624999974
        },
        {
          "name": "C6",
          "midi": 84,
          "time": 198.92287800000028,
          "velocity": 0.7795275590551181,
          "duration": 0.0528845624999974
        },
        {
          "name": "C5",
          "midi": 72,
          "time": 199.1536470000003,
          "velocity": 0.7795275590551181,
          "duration": 1.1225950312500004
        },
        {
          "name": "C6",
          "midi": 84,
          "time": 199.1536470000003,
          "velocity": 0.7795275590551181,
          "duration": 1.1225950312500004
        },
        {
          "name": "G5",
          "midi": 79,
          "time": 200.0767230000003,
          "velocity": 0.7795275590551181,
          "duration": 0.0528845624999974
        },
        {
          "name": "G4",
          "midi": 67,
          "time": 200.0767230000003,
          "velocity": 0.7795275590551181,
          "duration": 0.0528845624999974
        },
        {
          "name": "A4",
          "midi": 69,
          "time": 200.30749200000028,
          "velocity": 0.7795275590551181,
          "duration": 0.23557668750001426
        },
        {
          "name": "A5",
          "midi": 81,
          "time": 200.30749200000028,
          "velocity": 0.7795275590551181,
          "duration": 0.23557668750001426
        },
        {
          "name": "C6",
          "midi": 84,
          "time": 200.5382610000003,
          "velocity": 0.7795275590551181,
          "duration": 0.0528845624999974
        },
        {
          "name": "C5",
          "midi": 72,
          "time": 200.5382610000003,
          "velocity": 0.7795275590551181,
          "duration": 0.0528845624999974
        },
        {
          "name": "A4",
          "midi": 69,
          "time": 200.7690300000003,
          "velocity": 0.7795275590551181,
          "duration": 0.06490378124999552
        },
        {
          "name": "A5",
          "midi": 81,
          "time": 200.7690300000003,
          "velocity": 0.7795275590551181,
          "duration": 0.06490378124999552
        },
        {
          "name": "C5",
          "midi": 72,
          "time": 200.9997990000003,
          "velocity": 0.7795275590551181,
          "duration": 1.225960312500007
        },
        {
          "name": "C6",
          "midi": 84,
          "time": 200.9997990000003,
          "velocity": 0.7795275590551181,
          "duration": 1.225960312500007
        },
        {
          "name": "A5",
          "midi": 81,
          "time": 202.3844130000003,
          "velocity": 0.7795275590551181,
          "duration": 0.0528845624999974
        },
        {
          "name": "A4",
          "midi": 69,
          "time": 202.3844130000003,
          "velocity": 0.7795275590551181,
          "duration": 0.0528845624999974
        },
        {
          "name": "C5",
          "midi": 72,
          "time": 202.61518200000032,
          "velocity": 0.7795275590551181,
          "duration": 0.0528845624999974
        },
        {
          "name": "C6",
          "midi": 84,
          "time": 202.61518200000032,
          "velocity": 0.7795275590551181,
          "duration": 0.0528845624999974
        },
        {
          "name": "D5",
          "midi": 74,
          "time": 202.84595100000033,
          "velocity": 0.7795275590551181,
          "duration": 1.0360566562499969
        },
        {
          "name": "D6",
          "midi": 86,
          "time": 202.84595100000033,
          "velocity": 0.7795275590551181,
          "duration": 1.0360566562499969
        },
        {
          "name": "A6",
          "midi": 93,
          "time": 203.99979600000032,
          "velocity": 0.7795275590551181,
          "duration": 0.0528845624999974
        },
        {
          "name": "A5",
          "midi": 81,
          "time": 203.99979600000032,
          "velocity": 0.7795275590551181,
          "duration": 0.0528845624999974
        },
        {
          "name": "G5",
          "midi": 79,
          "time": 204.23056500000033,
          "velocity": 0.7795275590551181,
          "duration": 0.0528845624999974
        },
        {
          "name": "G6",
          "midi": 91,
          "time": 204.23056500000033,
          "velocity": 0.7795275590551181,
          "duration": 0.0528845624999974
        },
        {
          "name": "D#6",
          "midi": 87,
          "time": 204.46133400000033,
          "velocity": 0.7795275590551181,
          "duration": 0.0528845624999974
        },
        {
          "name": "D#5",
          "midi": 75,
          "time": 204.46133400000033,
          "velocity": 0.7795275590551181,
          "duration": 0.0528845624999974
        },
        {
          "name": "D6",
          "midi": 86,
          "time": 204.57671850000034,
          "velocity": 0.7795275590551181,
          "duration": 0.0528845624999974
        },
        {
          "name": "D5",
          "midi": 74,
          "time": 204.57671850000034,
          "velocity": 0.7795275590551181,
          "duration": 0.0528845624999974
        },
        {
          "name": "C6",
          "midi": 84,
          "time": 204.69210300000034,
          "velocity": 0.7795275590551181,
          "duration": 1.2764410312499876
        },
        {
          "name": "C5",
          "midi": 72,
          "time": 204.69210300000034,
          "velocity": 0.7795275590551181,
          "duration": 1.2764410312499876
        },
        {
          "name": "A4",
          "midi": 69,
          "time": 206.07671700000034,
          "velocity": 0.7795275590551181,
          "duration": 0.10817296875001148
        },
        {
          "name": "A5",
          "midi": 81,
          "time": 206.07671700000034,
          "velocity": 0.7795275590551181,
          "duration": 0.10817296875001148
        },
        {
          "name": "C5",
          "midi": 72,
          "time": 206.30748600000035,
          "velocity": 0.7795275590551181,
          "duration": 0.07932684375001031
        },
        {
          "name": "C6",
          "midi": 84,
          "time": 206.30748600000035,
          "velocity": 0.7795275590551181,
          "duration": 0.0528845624999974
        },
        {
          "name": "C5",
          "midi": 72,
          "time": 206.53825500000036,
          "velocity": 0.7795275590551181,
          "duration": 1.1105758125000023
        },
        {
          "name": "C6",
          "midi": 84,
          "time": 206.53825500000036,
          "velocity": 0.7795275590551181,
          "duration": 1.1105758125000023
        },
        {
          "name": "G5",
          "midi": 79,
          "time": 207.69210000000035,
          "velocity": 0.7795275590551181,
          "duration": 0.0528845624999974
        },
        {
          "name": "G4",
          "midi": 67,
          "time": 207.69210000000035,
          "velocity": 0.7795275590551181,
          "duration": 0.0528845624999974
        },
        {
          "name": "A5",
          "midi": 81,
          "time": 207.92286900000036,
          "velocity": 0.7795275590551181,
          "duration": 0.0865383750000035
        },
        {
          "name": "A4",
          "midi": 69,
          "time": 207.92286900000036,
          "velocity": 0.7795275590551181,
          "duration": 0.0865383750000035
        },
        {
          "name": "C5",
          "midi": 72,
          "time": 208.15363800000037,
          "velocity": 0.7795275590551181,
          "duration": 0.0528845624999974
        },
        {
          "name": "C6",
          "midi": 84,
          "time": 208.15363800000037,
          "velocity": 0.7795275590551181,
          "duration": 0.0528845624999974
        },
        {
          "name": "C5",
          "midi": 72,
          "time": 208.38440700000038,
          "velocity": 0.7795275590551181,
          "duration": 1.221152625000002
        },
        {
          "name": "C6",
          "midi": 84,
          "time": 208.38440700000038,
          "velocity": 0.7795275590551181,
          "duration": 1.221152625000002
        },
        {
          "name": "A4",
          "midi": 69,
          "time": 209.76902100000038,
          "velocity": 0.7795275590551181,
          "duration": 0.0528845624999974
        },
        {
          "name": "A5",
          "midi": 81,
          "time": 209.76902100000038,
          "velocity": 0.7795275590551181,
          "duration": 0.0528845624999974
        },
        {
          "name": "C5",
          "midi": 72,
          "time": 209.9997900000004,
          "velocity": 0.7795275590551181,
          "duration": 0.0528845624999974
        },
        {
          "name": "C6",
          "midi": 84,
          "time": 209.9997900000004,
          "velocity": 0.7795275590551181,
          "duration": 0.0528845624999974
        },
        {
          "name": "D5",
          "midi": 74,
          "time": 210.2305590000004,
          "velocity": 0.7795275590551181,
          "duration": 1.0216335937500105
        },
        {
          "name": "D6",
          "midi": 86,
          "time": 210.2305590000004,
          "velocity": 0.7795275590551181,
          "duration": 1.0216335937500105
        },
        {
          "name": "A5",
          "midi": 81,
          "time": 211.38440400000042,
          "velocity": 0.7795275590551181,
          "duration": 0.0528845624999974
        },
        {
          "name": "A6",
          "midi": 93,
          "time": 211.38440400000042,
          "velocity": 0.7795275590551181,
          "duration": 0.0528845624999974
        },
        {
          "name": "G5",
          "midi": 79,
          "time": 211.61517300000042,
          "velocity": 0.7795275590551181,
          "duration": 0.0528845624999974
        },
        {
          "name": "G6",
          "midi": 91,
          "time": 211.61517300000042,
          "velocity": 0.7795275590551181,
          "duration": 0.0528845624999974
        },
        {
          "name": "D#5",
          "midi": 75,
          "time": 211.84594200000043,
          "velocity": 0.7795275590551181,
          "duration": 0.06971146875000045
        },
        {
          "name": "D#6",
          "midi": 87,
          "time": 211.84594200000043,
          "velocity": 0.7795275590551181,
          "duration": 0.06971146875000045
        },
        {
          "name": "D5",
          "midi": 74,
          "time": 211.96132650000044,
          "velocity": 0.7795275590551181,
          "duration": 0.19711518750000323
        },
        {
          "name": "D6",
          "midi": 86,
          "time": 211.96132650000044,
          "velocity": 0.7795275590551181,
          "duration": 0.19711518750000323
        },
        {
          "name": "C6",
          "midi": 84,
          "time": 212.07671100000044,
          "velocity": 0.7795275590551181,
          "duration": 1.338940968749995
        },
        {
          "name": "C5",
          "midi": 72,
          "time": 212.07671100000044,
          "velocity": 0.7795275590551181,
          "duration": 1.338940968749995
        },
        {
          "name": "A4",
          "midi": 69,
          "time": 213.46132500000044,
          "velocity": 0.7795275590551181,
          "duration": 0.0865383750000035
        },
        {
          "name": "A5",
          "midi": 81,
          "time": 213.46132500000044,
          "velocity": 0.7795275590551181,
          "duration": 0.0865383750000035
        },
        {
          "name": "C5",
          "midi": 72,
          "time": 213.69209400000045,
          "velocity": 0.7795275590551181,
          "duration": 0.0528845624999974
        },
        {
          "name": "C6",
          "midi": 84,
          "time": 213.69209400000045,
          "velocity": 0.7795275590551181,
          "duration": 0.0528845624999974
        },
        {
          "name": "C5",
          "midi": 72,
          "time": 213.92286300000046,
          "velocity": 0.7795275590551181,
          "duration": 1.1225950312500004
        },
        {
          "name": "C6",
          "midi": 84,
          "time": 213.92286300000046,
          "velocity": 0.7795275590551181,
          "duration": 1.1225950312500004
        }
      ],
      "controlChanges": {
        "1": [
          {
            "number": 1,
            "time": 0.019230749999999994,
            "value": 0
          }
        ],
        "6": [
          {
            "number": 6,
            "time": 0.014423062499999997,
            "value": 0.09448818897637795
          }
        ],
        "7": [
          {
            "number": 7,
            "time": 1.394229375,
            "value": 0.7086614173228346
          }
        ],
        "10": [
          {
            "number": 10,
            "time": 1.3990370625000002,
            "value": 0.5039370078740157
          }
        ],
        "11": [
          {
            "number": 11,
            "time": 0.016826906249999996,
            "value": 1
          },
          {
            "number": 11,
            "time": 0.024038437499999996,
            "value": 1
          },
          {
            "number": 11,
            "time": 1.4038447500000002,
            "value": 1
          }
        ],
        "64": [
          {
            "number": 64,
            "time": 0.007211531249999999,
            "value": 0
          }
        ],
        "67": [
          {
            "number": 67,
            "time": 0.0048076874999999995,
            "value": 0
          }
        ],
        "91": [
          {
            "number": 91,
            "time": 1.4086524375000002,
            "value": 0.5433070866141733
          }
        ],
        "93": [
          {
            "number": 93,
            "time": 1.4134601250000003,
            "value": 0
          }
        ],
        "100": [
          {
            "number": 100,
            "time": 0.009615374999999999,
            "value": 0
          }
        ],
        "101": [
          {
            "number": 101,
            "time": 0.012019218749999998,
            "value": 0
          }
        ],
        "121": [
          {
            "number": 121,
            "time": 0,
            "value": 0
          }
        ]
      },
      "id": 6,
      "name": "Strings             ",
      "instrumentNumber": 48,
      "instrument": "string ensemble 1",
      "instrumentFamily": "ensemble",
      "channelNumber": 3,
      "isPercussion": false
    },
    {
      "startTime": 3.692304,
      "duration": 245.38677384374952,
      "length": 607,
      "notes": [
        {
          "name": "B3",
          "midi": 59,
          "time": 3.692304,
          "velocity": 0.7795275590551181,
          "duration": 0.09374990624999979
        },
        {
          "name": "D#4",
          "midi": 63,
          "time": 3.692304,
          "velocity": 0.7795275590551181,
          "duration": 0.09374990624999979
        },
        {
          "name": "F3",
          "midi": 53,
          "time": 3.692304,
          "velocity": 0.7795275590551181,
          "duration": 0.07692299999999985
        },
        {
          "name": "B3",
          "midi": 59,
          "time": 3.9230729999999996,
          "velocity": 0.7795275590551181,
          "duration": 0.09615375000000004
        },
        {
          "name": "D#4",
          "midi": 63,
          "time": 3.9230729999999996,
          "velocity": 0.7795275590551181,
          "duration": 0.09855759374999984
        },
        {
          "name": "F3",
          "midi": 53,
          "time": 3.9230729999999996,
          "velocity": 0.7795275590551181,
          "duration": 0.08653837499999995
        },
        {
          "name": "B3",
          "midi": 59,
          "time": 4.153841999999999,
          "velocity": 0.7795275590551181,
          "duration": 0.08894221874999975
        },
        {
          "name": "D#4",
          "midi": 63,
          "time": 4.153841999999999,
          "velocity": 0.7795275590551181,
          "duration": 0.08653837499999995
        },
        {
          "name": "F3",
          "midi": 53,
          "time": 4.153841999999999,
          "velocity": 0.7795275590551181,
          "duration": 0.07692299999999985
        },
        {
          "name": "B3",
          "midi": 59,
          "time": 4.384610999999999,
          "velocity": 0.7795275590551181,
          "duration": 0.09374990625000024
        },
        {
          "name": "D#4",
          "midi": 63,
          "time": 4.384610999999999,
          "velocity": 0.7795275590551181,
          "duration": 0.09374990625000024
        },
        {
          "name": "F3",
          "midi": 53,
          "time": 4.384610999999999,
          "velocity": 0.7795275590551181,
          "duration": 0.08173068750000034
        },
        {
          "name": "B3",
          "midi": 59,
          "time": 4.615379999999999,
          "velocity": 0.7795275590551181,
          "duration": 0.08653837499999995
        },
        {
          "name": "D#4",
          "midi": 63,
          "time": 4.615379999999999,
          "velocity": 0.7795275590551181,
          "duration": 0.08653837499999995
        },
        {
          "name": "F3",
          "midi": 53,
          "time": 4.615379999999999,
          "velocity": 0.7795275590551181,
          "duration": 0.08653837499999995
        },
        {
          "name": "D#4",
          "midi": 63,
          "time": 4.846148999999999,
          "velocity": 0.7795275590551181,
          "duration": 0.09855759374999984
        },
        {
          "name": "B3",
          "midi": 59,
          "time": 4.846148999999999,
          "velocity": 0.7795275590551181,
          "duration": 0.08894221874999975
        },
        {
          "name": "F3",
          "midi": 53,
          "time": 4.846148999999999,
          "velocity": 0.7795275590551181,
          "duration": 0.08413453125000014
        },
        {
          "name": "B3",
          "midi": 59,
          "time": 5.076917999999998,
          "velocity": 0.7795275590551181,
          "duration": 0.09855759374999984
        },
        {
          "name": "D#4",
          "midi": 63,
          "time": 5.076917999999998,
          "velocity": 0.7795275590551181,
          "duration": 0.09855759374999984
        },
        {
          "name": "F3",
          "midi": 53,
          "time": 5.076917999999998,
          "velocity": 0.7795275590551181,
          "duration": 0.09855759374999984
        },
        {
          "name": "B3",
          "midi": 59,
          "time": 5.307686999999998,
          "velocity": 0.7795275590551181,
          "duration": 0.09615374999999915
        },
        {
          "name": "F3",
          "midi": 53,
          "time": 5.307686999999998,
          "velocity": 0.7795275590551181,
          "duration": 0.07932684374999965
        },
        {
          "name": "D#4",
          "midi": 63,
          "time": 5.307686999999998,
          "velocity": 0.7795275590551181,
          "duration": 0.08413453124999926
        },
        {
          "name": "B3",
          "midi": 59,
          "time": 5.538455999999997,
          "velocity": 0.7795275590551181,
          "duration": 0.08653837499999995
        },
        {
          "name": "D#4",
          "midi": 63,
          "time": 5.538455999999997,
          "velocity": 0.7795275590551181,
          "duration": 0.07692299999999985
        },
        {
          "name": "F3",
          "midi": 53,
          "time": 5.538455999999997,
          "velocity": 0.7795275590551181,
          "duration": 0.07932684374999965
        },
        {
          "name": "D#4",
          "midi": 63,
          "time": 5.769224999999997,
          "velocity": 0.7795275590551181,
          "duration": 0.08894221874999975
        },
        {
          "name": "B3",
          "midi": 59,
          "time": 5.769224999999997,
          "velocity": 0.7795275590551181,
          "duration": 0.07932684374999965
        },
        {
          "name": "F3",
          "midi": 53,
          "time": 5.769224999999997,
          "velocity": 0.7795275590551181,
          "duration": 0.07692299999999985
        },
        {
          "name": "D#4",
          "midi": 63,
          "time": 5.9999939999999965,
          "velocity": 0.7795275590551181,
          "duration": 0.09855759374999984
        },
        {
          "name": "F3",
          "midi": 53,
          "time": 5.9999939999999965,
          "velocity": 0.7795275590551181,
          "duration": 0.08894221874999975
        },
        {
          "name": "B3",
          "midi": 59,
          "time": 5.9999939999999965,
          "velocity": 0.7795275590551181,
          "duration": 0.08413453125000014
        },
        {
          "name": "B3",
          "midi": 59,
          "time": 6.230762999999996,
          "velocity": 0.7795275590551181,
          "duration": 0.08413453125000014
        },
        {
          "name": "D#4",
          "midi": 63,
          "time": 6.230762999999996,
          "velocity": 0.7795275590551181,
          "duration": 0.08894221874999975
        },
        {
          "name": "F3",
          "midi": 53,
          "time": 6.230762999999996,
          "velocity": 0.7795275590551181,
          "duration": 0.08173068750000034
        },
        {
          "name": "F3",
          "midi": 53,
          "time": 6.461531999999996,
          "velocity": 0.7795275590551181,
          "duration": 0.10576912499999924
        },
        {
          "name": "D#4",
          "midi": 63,
          "time": 6.461531999999996,
          "velocity": 0.7795275590551181,
          "duration": 0.08894221874999975
        },
        {
          "name": "B3",
          "midi": 59,
          "time": 6.461531999999996,
          "velocity": 0.7795275590551181,
          "duration": 0.09374990624999935
        },
        {
          "name": "B3",
          "midi": 59,
          "time": 6.692300999999995,
          "velocity": 0.7795275590551181,
          "duration": 0.09615375000000004
        },
        {
          "name": "F3",
          "midi": 53,
          "time": 6.692300999999995,
          "velocity": 0.7795275590551181,
          "duration": 0.09855759374999984
        },
        {
          "name": "D#4",
          "midi": 63,
          "time": 6.692300999999995,
          "velocity": 0.7795275590551181,
          "duration": 0.09374990625000024
        },
        {
          "name": "F3",
          "midi": 53,
          "time": 6.923069999999995,
          "velocity": 0.7795275590551181,
          "duration": 0.11778834375000002
        },
        {
          "name": "B3",
          "midi": 59,
          "time": 6.923069999999995,
          "velocity": 0.7795275590551181,
          "duration": 0.10576912500000013
        },
        {
          "name": "D#4",
          "midi": 63,
          "time": 6.923069999999995,
          "velocity": 0.7795275590551181,
          "duration": 0.10817296874999993
        },
        {
          "name": "A#3",
          "midi": 58,
          "time": 7.153838999999994,
          "velocity": 0.7795275590551181,
          "duration": 0.22596131249999996
        },
        {
          "name": "G3",
          "midi": 55,
          "time": 7.153838999999994,
          "velocity": 0.7795275590551181,
          "duration": 0.22596131249999996
        },
        {
          "name": "D#4",
          "midi": 63,
          "time": 7.153838999999994,
          "velocity": 0.7795275590551181,
          "duration": 0.22596131249999996
        },
        {
          "name": "C3",
          "midi": 48,
          "time": 14.999984999999995,
          "velocity": 0.7795275590551181,
          "duration": 0.060096093750001245
        },
        {
          "name": "C4",
          "midi": 60,
          "time": 14.999984999999995,
          "velocity": 0.7795275590551181,
          "duration": 0.057692250000000556
        },
        {
          "name": "C4",
          "midi": 60,
          "time": 15.230753999999996,
          "velocity": 0.7795275590551181,
          "duration": 0.19230750000000008
        },
        {
          "name": "C3",
          "midi": 48,
          "time": 15.230753999999996,
          "velocity": 0.7795275590551181,
          "duration": 0.11778834375000002
        },
        {
          "name": "G2",
          "midi": 43,
          "time": 15.461522999999996,
          "velocity": 0.7795275590551181,
          "duration": 0.08413453125000103
        },
        {
          "name": "G3",
          "midi": 55,
          "time": 15.461522999999996,
          "velocity": 0.7795275590551181,
          "duration": 0.06971146875000045
        },
        {
          "name": "A#2",
          "midi": 46,
          "time": 15.692291999999997,
          "velocity": 0.7795275590551181,
          "duration": 0.08413453124999926
        },
        {
          "name": "A#3",
          "midi": 58,
          "time": 15.692291999999997,
          "velocity": 0.7795275590551181,
          "duration": 0.06730762499999976
        },
        {
          "name": "C3",
          "midi": 48,
          "time": 15.923060999999995,
          "velocity": 0.7795275590551181,
          "duration": 0.2860574062500003
        },
        {
          "name": "C4",
          "midi": 60,
          "time": 15.923060999999995,
          "velocity": 0.7795275590551181,
          "duration": 0.19711518750000145
        },
        {
          "name": "F4",
          "midi": 65,
          "time": 17.538443999999995,
          "velocity": 0.7795275590551181,
          "duration": 0.18269212500000265
        },
        {
          "name": "A#4",
          "midi": 70,
          "time": 17.538443999999995,
          "velocity": 0.7795275590551181,
          "duration": 0.17067290625000098
        },
        {
          "name": "D4",
          "midi": 62,
          "time": 17.538443999999995,
          "velocity": 0.7795275590551181,
          "duration": 0.17548059375000236
        },
        {
          "name": "F4",
          "midi": 65,
          "time": 17.769212999999997,
          "velocity": 0.7795275590551181,
          "duration": 0.15144215624999902
        },
        {
          "name": "A#4",
          "midi": 70,
          "time": 17.769212999999997,
          "velocity": 0.7795275590551181,
          "duration": 0.1225960312500014
        },
        {
          "name": "D4",
          "midi": 62,
          "time": 17.769212999999997,
          "velocity": 0.7795275590551181,
          "duration": 0.1490383125000001
        },
        {
          "name": "F4",
          "midi": 65,
          "time": 17.999981999999996,
          "velocity": 0.7795275590551181,
          "duration": 0.07211531249999936
        },
        {
          "name": "C4",
          "midi": 60,
          "time": 17.999981999999996,
          "velocity": 0.7795275590551181,
          "duration": 0.07932684374999965
        },
        {
          "name": "A4",
          "midi": 69,
          "time": 17.999981999999996,
          "velocity": 0.7795275590551181,
          "duration": 0.06971146875000045
        },
        {
          "name": "G4",
          "midi": 67,
          "time": 18.230750999999994,
          "velocity": 0.7795275590551181,
          "duration": 0.2716343437500015
        },
        {
          "name": "D#4",
          "midi": 63,
          "time": 18.230750999999994,
          "velocity": 0.7795275590551181,
          "duration": 0.22596131250000084
        },
        {
          "name": "A#3",
          "midi": 58,
          "time": 18.230750999999994,
          "velocity": 0.7795275590551181,
          "duration": 0.2379805312500025
        },
        {
          "name": "A3",
          "midi": 57,
          "time": 35.99996399999999,
          "velocity": 0.7795275590551181,
          "duration": 0.20192287500000106
        },
        {
          "name": "C4",
          "midi": 60,
          "time": 36.230732999999994,
          "velocity": 0.7795275590551181,
          "duration": 0.09374990624999668
        },
        {
          "name": "A3",
          "midi": 57,
          "time": 36.46150199999999,
          "velocity": 0.7795275590551181,
          "duration": 0.05769225000000233
        },
        {
          "name": "C4",
          "midi": 60,
          "time": 36.69227099999999,
          "velocity": 0.7795275590551181,
          "duration": 0.6514416562500003
        },
        {
          "name": "F4",
          "midi": 65,
          "time": 36.69227099999999,
          "velocity": 0.7795275590551181,
          "duration": 0.644230125
        },
        {
          "name": "A3",
          "midi": 57,
          "time": 36.69227099999999,
          "velocity": 0.7795275590551181,
          "duration": 0.6129801562500035
        },
        {
          "name": "G3",
          "midi": 55,
          "time": 37.38457799999999,
          "velocity": 0.7795275590551181,
          "duration": 0.22836515624999976
        },
        {
          "name": "C4",
          "midi": 60,
          "time": 37.38457799999999,
          "velocity": 0.7795275590551181,
          "duration": 0.2860574062500021
        },
        {
          "name": "E4",
          "midi": 64,
          "time": 37.38457799999999,
          "velocity": 0.7795275590551181,
          "duration": 0.21394209374999917
        },
        {
          "name": "A3",
          "midi": 57,
          "time": 37.846115999999995,
          "velocity": 0.7795275590551181,
          "duration": 0.5721148124999971
        },
        {
          "name": "C4",
          "midi": 60,
          "time": 37.846115999999995,
          "velocity": 0.7795275590551181,
          "duration": 0.4567303124999995
        },
        {
          "name": "F4",
          "midi": 65,
          "time": 37.846115999999995,
          "velocity": 0.7795275590551181,
          "duration": 0.5721148124999971
        },
        {
          "name": "D4",
          "midi": 62,
          "time": 38.538422999999995,
          "velocity": 0.7795275590551181,
          "duration": 0.5552879062500011
        },
        {
          "name": "F4",
          "midi": 65,
          "time": 38.538422999999995,
          "velocity": 0.7795275590551181,
          "duration": 1.0216335937500034
        },
        {
          "name": "A#3",
          "midi": 58,
          "time": 38.538422999999995,
          "velocity": 0.7795275590551181,
          "duration": 0.5721148125000042
        },
        {
          "name": "C4",
          "midi": 60,
          "time": 39.23073,
          "velocity": 0.7795275590551181,
          "duration": 0.15384600000000148
        },
        {
          "name": "A3",
          "midi": 57,
          "time": 39.23073,
          "velocity": 0.7795275590551181,
          "duration": 0.1586536874999993
        },
        {
          "name": "F4",
          "midi": 65,
          "time": 39.692268,
          "velocity": 0.7795275590551181,
          "duration": 0.5721148125000042
        },
        {
          "name": "D4",
          "midi": 62,
          "time": 39.692268,
          "velocity": 0.7795275590551181,
          "duration": 0.5721148125000042
        },
        {
          "name": "A#3",
          "midi": 58,
          "time": 39.692268,
          "velocity": 0.7795275590551181,
          "duration": 0.5721148125000042
        },
        {
          "name": "C#4",
          "midi": 61,
          "time": 39.692268,
          "velocity": 0.7795275590551181,
          "duration": 0.03605765625000146
        },
        {
          "name": "C4",
          "midi": 60,
          "time": 40.384575000000005,
          "velocity": 0.7795275590551181,
          "duration": 0.6129801562499964
        },
        {
          "name": "G3",
          "midi": 55,
          "time": 40.384575000000005,
          "velocity": 0.7795275590551181,
          "duration": 0.5456725312499984
        },
        {
          "name": "E4",
          "midi": 64,
          "time": 40.384575000000005,
          "velocity": 0.7795275590551181,
          "duration": 0.6081724687499985
        },
        {
          "name": "C4",
          "midi": 60,
          "time": 41.076882000000005,
          "velocity": 0.7795275590551181,
          "duration": 0.18990365625000294
        },
        {
          "name": "A3",
          "midi": 57,
          "time": 41.076882000000005,
          "velocity": 0.7795275590551181,
          "duration": 0.20432671875000352
        },
        {
          "name": "F4",
          "midi": 65,
          "time": 41.076882000000005,
          "velocity": 0.7795275590551181,
          "duration": 0.1466344687500012
        },
        {
          "name": "C4",
          "midi": 60,
          "time": 41.53842000000001,
          "velocity": 0.7795275590551181,
          "duration": 0.34855734375000225
        },
        {
          "name": "F4",
          "midi": 65,
          "time": 41.53842000000001,
          "velocity": 0.7795275590551181,
          "duration": 0.23076900000000222
        },
        {
          "name": "A3",
          "midi": 57,
          "time": 41.53842000000001,
          "velocity": 0.7795275590551181,
          "duration": 0.17548059375000236
        },
        {
          "name": "E4",
          "midi": 64,
          "time": 41.76918900000001,
          "velocity": 0.7795275590551181,
          "duration": 0.1057691250000019
        },
        {
          "name": "G3",
          "midi": 55,
          "time": 41.76918900000001,
          "velocity": 0.7795275590551181,
          "duration": 0.12259603124999785
        },
        {
          "name": "C4",
          "midi": 60,
          "time": 42.23072700000001,
          "velocity": 0.7795275590551181,
          "duration": 0.6610570312499959
        },
        {
          "name": "E4",
          "midi": 64,
          "time": 42.23072700000001,
          "velocity": 0.7795275590551181,
          "duration": 0.6706724062499987
        },
        {
          "name": "G3",
          "midi": 55,
          "time": 42.23072700000001,
          "velocity": 0.7795275590551181,
          "duration": 0.6009609374999982
        },
        {
          "name": "C4",
          "midi": 60,
          "time": 42.92303400000001,
          "velocity": 0.7795275590551181,
          "duration": 0.14903831250000366
        },
        {
          "name": "A3",
          "midi": 57,
          "time": 42.92303400000001,
          "velocity": 0.7795275590551181,
          "duration": 0.16105753125000177
        },
        {
          "name": "F4",
          "midi": 65,
          "time": 42.92303400000001,
          "velocity": 0.7795275590551181,
          "duration": 0.1466344687500012
        },
        {
          "name": "C4",
          "midi": 60,
          "time": 43.38457200000001,
          "velocity": 0.7795275590551181,
          "duration": 0.3701919375000102
        },
        {
          "name": "F4",
          "midi": 65,
          "time": 43.38457200000001,
          "velocity": 0.7795275590551181,
          "duration": 0.24038437500000498
        },
        {
          "name": "A3",
          "midi": 57,
          "time": 43.38457200000001,
          "velocity": 0.7795275590551181,
          "duration": 0.18990365625000294
        },
        {
          "name": "E4",
          "midi": 64,
          "time": 43.615341000000015,
          "velocity": 0.7795275590551181,
          "duration": 0.1322114062500077
        },
        {
          "name": "G3",
          "midi": 55,
          "time": 43.615341000000015,
          "velocity": 0.7795275590551181,
          "duration": 0.12980756250000525
        },
        {
          "name": "C4",
          "midi": 60,
          "time": 44.07687900000002,
          "velocity": 0.7795275590551181,
          "duration": 0.6514416562500003
        },
        {
          "name": "F4",
          "midi": 65,
          "time": 44.07687900000002,
          "velocity": 0.7795275590551181,
          "duration": 0.7091339062500026
        },
        {
          "name": "A3",
          "midi": 57,
          "time": 44.07687900000002,
          "velocity": 0.7795275590551181,
          "duration": 0.6370185937499997
        },
        {
          "name": "C4",
          "midi": 60,
          "time": 44.76918600000002,
          "velocity": 0.7795275590551181,
          "duration": 0.17548059375000946
        },
        {
          "name": "E4",
          "midi": 64,
          "time": 44.76918600000002,
          "velocity": 0.7795275590551181,
          "duration": 0.173076750000007
        },
        {
          "name": "G3",
          "midi": 55,
          "time": 44.76918600000002,
          "velocity": 0.7795275590551181,
          "duration": 0.1586536875000064
        },
        {
          "name": "C4",
          "midi": 60,
          "time": 45.23072400000003,
          "velocity": 0.7795275590551181,
          "duration": 0.4567303124999995
        },
        {
          "name": "A3",
          "midi": 57,
          "time": 45.23072400000003,
          "velocity": 0.7795275590551181,
          "duration": 0.4567303124999995
        },
        {
          "name": "F4",
          "midi": 65,
          "time": 45.23072400000003,
          "velocity": 0.7795275590551181,
          "duration": 0.4567303124999995
        },
        {
          "name": "D4",
          "midi": 62,
          "time": 45.92303100000003,
          "velocity": 0.7795275590551181,
          "duration": 0.576922500000002
        },
        {
          "name": "F4",
          "midi": 65,
          "time": 45.92303100000003,
          "velocity": 0.7795275590551181,
          "duration": 0.8509606874999989
        },
        {
          "name": "A#3",
          "midi": 58,
          "time": 45.92303100000003,
          "velocity": 0.7795275590551181,
          "duration": 0.6033647812500007
        },
        {
          "name": "A3",
          "midi": 57,
          "time": 46.61533800000003,
          "velocity": 0.7795275590551181,
          "duration": 0.1394229375000009
        },
        {
          "name": "C4",
          "midi": 60,
          "time": 46.61533800000003,
          "velocity": 0.7795275590551181,
          "duration": 0.12980756249999814
        },
        {
          "name": "D4",
          "midi": 62,
          "time": 47.07687600000003,
          "velocity": 0.7795275590551181,
          "duration": 0.4567303124999995
        },
        {
          "name": "F4",
          "midi": 65,
          "time": 47.07687600000003,
          "velocity": 0.7795275590551181,
          "duration": 0.4567303124999995
        },
        {
          "name": "A#3",
          "midi": 58,
          "time": 47.07687600000003,
          "velocity": 0.7795275590551181,
          "duration": 0.4567303124999995
        },
        {
          "name": "C4",
          "midi": 60,
          "time": 47.76918300000003,
          "velocity": 0.7795275590551181,
          "duration": 0.6562493437500052
        },
        {
          "name": "G3",
          "midi": 55,
          "time": 47.76918300000003,
          "velocity": 0.7795275590551181,
          "duration": 0.5841340312500023
        },
        {
          "name": "E4",
          "midi": 64,
          "time": 47.76918300000003,
          "velocity": 0.7795275590551181,
          "duration": 0.6538455000000027
        },
        {
          "name": "C4",
          "midi": 60,
          "time": 48.46149000000003,
          "velocity": 0.7795275590551181,
          "duration": 0.12499987500000032
        },
        {
          "name": "F4",
          "midi": 65,
          "time": 48.46149000000003,
          "velocity": 0.7795275590551181,
          "duration": 0.12499987500000032
        },
        {
          "name": "A3",
          "midi": 57,
          "time": 48.46149000000003,
          "velocity": 0.7795275590551181,
          "duration": 0.1394229375000009
        },
        {
          "name": "A3",
          "midi": 57,
          "time": 48.92302800000003,
          "velocity": 0.7795275590551181,
          "duration": 0.19711518750000323
        },
        {
          "name": "F4",
          "midi": 65,
          "time": 48.92302800000003,
          "velocity": 0.7795275590551181,
          "duration": 0.2451920625000028
        },
        {
          "name": "C4",
          "midi": 60,
          "time": 48.92302800000003,
          "velocity": 0.7795275590551181,
          "duration": 0.35576887500000254
        },
        {
          "name": "E4",
          "midi": 64,
          "time": 49.15379700000003,
          "velocity": 0.7795275590551181,
          "duration": 0.13701909374999843
        },
        {
          "name": "G3",
          "midi": 55,
          "time": 49.15379700000003,
          "velocity": 0.7795275590551181,
          "duration": 0.15384600000000148
        },
        {
          "name": "G3",
          "midi": 55,
          "time": 49.61533500000004,
          "velocity": 0.7795275590551181,
          "duration": 0.5961532500000004
        },
        {
          "name": "C4",
          "midi": 60,
          "time": 49.61533500000004,
          "velocity": 0.7795275590551181,
          "duration": 0.8052876562500018
        },
        {
          "name": "E4",
          "midi": 64,
          "time": 49.61533500000004,
          "velocity": 0.7795275590551181,
          "duration": 0.6706724062499987
        },
        {
          "name": "F4",
          "midi": 65,
          "time": 50.30764200000004,
          "velocity": 0.7795275590551181,
          "duration": 0.16105753125000177
        },
        {
          "name": "A3",
          "midi": 57,
          "time": 50.30764200000004,
          "velocity": 0.7795275590551181,
          "duration": 0.12740371875000278
        },
        {
          "name": "D4",
          "midi": 62,
          "time": 50.76918000000004,
          "velocity": 0.7795275590551181,
          "duration": 0.17067290624999742
        },
        {
          "name": "F4",
          "midi": 65,
          "time": 50.76918000000004,
          "velocity": 0.7795275590551181,
          "duration": 0.38221115624999413
        },
        {
          "name": "A#3",
          "midi": 58,
          "time": 50.76918000000004,
          "velocity": 0.7795275590551181,
          "duration": 0.20192287499999395
        },
        {
          "name": "A3",
          "midi": 57,
          "time": 50.999949000000036,
          "velocity": 0.7795275590551181,
          "duration": 0.09615374999999915
        },
        {
          "name": "C4",
          "midi": 60,
          "time": 50.999949000000036,
          "velocity": 0.7795275590551181,
          "duration": 0.09134606250000132
        },
        {
          "name": "C4",
          "midi": 60,
          "time": 62.99993700000003,
          "velocity": 0.7795275590551181,
          "duration": 0.0865383750000035
        },
        {
          "name": "C3",
          "midi": 48,
          "time": 62.99993700000003,
          "velocity": 0.7795275590551181,
          "duration": 0.0865383750000035
        },
        {
          "name": "C3",
          "midi": 48,
          "time": 63.23070600000003,
          "velocity": 0.7795275590551181,
          "duration": 0.2932689375000024
        },
        {
          "name": "C4",
          "midi": 60,
          "time": 63.23070600000003,
          "velocity": 0.7795275590551181,
          "duration": 0.32692275000000137
        },
        {
          "name": "C4",
          "midi": 60,
          "time": 63.69224400000004,
          "velocity": 0.7795275590551181,
          "duration": 0.08653837499999639
        },
        {
          "name": "C3",
          "midi": 48,
          "time": 63.69224400000004,
          "velocity": 0.7795275590551181,
          "duration": 0.07451915624999828
        },
        {
          "name": "C3",
          "midi": 48,
          "time": 63.92301300000003,
          "velocity": 0.7795275590551181,
          "duration": 0.3317304375000063
        },
        {
          "name": "C4",
          "midi": 60,
          "time": 63.92301300000003,
          "velocity": 0.7795275590551181,
          "duration": 0.34134581250000195
        },
        {
          "name": "A#4",
          "midi": 70,
          "time": 65.53839600000003,
          "velocity": 0.7795275590551181,
          "duration": 0.11057681249999973
        },
        {
          "name": "D4",
          "midi": 62,
          "time": 65.53839600000003,
          "velocity": 0.7795275590551181,
          "duration": 0.2379805312499883
        },
        {
          "name": "F4",
          "midi": 65,
          "time": 65.53839600000003,
          "velocity": 0.7795275590551181,
          "duration": 0.16826906250000206
        },
        {
          "name": "F4",
          "midi": 65,
          "time": 65.76916500000003,
          "velocity": 0.7795275590551181,
          "duration": 0.13461524999999597
        },
        {
          "name": "A#4",
          "midi": 70,
          "time": 65.76916500000003,
          "velocity": 0.7795275590551181,
          "duration": 0.13461524999999597
        },
        {
          "name": "F4",
          "midi": 65,
          "time": 65.99993400000002,
          "velocity": 0.7795275590551181,
          "duration": 0.14903831250001076
        },
        {
          "name": "C4",
          "midi": 60,
          "time": 65.99993400000002,
          "velocity": 0.7795275590551181,
          "duration": 0.173076750000007
        },
        {
          "name": "A4",
          "midi": 69,
          "time": 65.99993400000002,
          "velocity": 0.7795275590551181,
          "duration": 0.14423062500000583
        },
        {
          "name": "G4",
          "midi": 67,
          "time": 66.23070300000003,
          "velocity": 0.7795275590551181,
          "duration": 0.18749981250000758
        },
        {
          "name": "A#3",
          "midi": 58,
          "time": 66.23070300000003,
          "velocity": 0.7795275590551181,
          "duration": 0.15624984375000395
        },
        {
          "name": "D#4",
          "midi": 63,
          "time": 66.23070300000003,
          "velocity": 0.7795275590551181,
          "duration": 0.1586536875000064
        },
        {
          "name": "A3",
          "midi": 57,
          "time": 80.30761200000003,
          "velocity": 0.7795275590551181,
          "duration": 0.20192287499999395
        },
        {
          "name": "C4",
          "midi": 60,
          "time": 80.53838100000003,
          "velocity": 0.7795275590551181,
          "duration": 0.09374990624999668
        },
        {
          "name": "A3",
          "midi": 57,
          "time": 80.76915000000002,
          "velocity": 0.7795275590551181,
          "duration": 0.05769225000000233
        },
        {
          "name": "C4",
          "midi": 60,
          "time": 80.99991900000003,
          "velocity": 0.7795275590551181,
          "duration": 0.6514416562500003
        },
        {
          "name": "F4",
          "midi": 65,
          "time": 80.99991900000003,
          "velocity": 0.7795275590551181,
          "duration": 0.6442301250000071
        },
        {
          "name": "A3",
          "midi": 57,
          "time": 80.99991900000003,
          "velocity": 0.7795275590551181,
          "duration": 0.6129801562500035
        },
        {
          "name": "G3",
          "midi": 55,
          "time": 81.69222600000003,
          "velocity": 0.7795275590551181,
          "duration": 0.22836515625000686
        },
        {
          "name": "C4",
          "midi": 60,
          "time": 81.69222600000003,
          "velocity": 0.7795275590551181,
          "duration": 0.2860574062500092
        },
        {
          "name": "E4",
          "midi": 64,
          "time": 81.69222600000003,
          "velocity": 0.7795275590551181,
          "duration": 0.21394209375000628
        },
        {
          "name": "A3",
          "midi": 57,
          "time": 82.15376400000004,
          "velocity": 0.7795275590551181,
          "duration": 0.5721148125000042
        },
        {
          "name": "C4",
          "midi": 60,
          "time": 82.15376400000004,
          "velocity": 0.7795275590551181,
          "duration": 0.4567303124999995
        },
        {
          "name": "F4",
          "midi": 65,
          "time": 82.15376400000004,
          "velocity": 0.7795275590551181,
          "duration": 0.5721148125000042
        },
        {
          "name": "D4",
          "midi": 62,
          "time": 82.84607100000004,
          "velocity": 0.7795275590551181,
          "duration": 0.5552879062500011
        },
        {
          "name": "F4",
          "midi": 65,
          "time": 82.84607100000004,
          "velocity": 0.7795275590551181,
          "duration": 1.0216335937500105
        },
        {
          "name": "A#3",
          "midi": 58,
          "time": 82.84607100000004,
          "velocity": 0.7795275590551181,
          "duration": 0.5721148125000042
        },
        {
          "name": "C4",
          "midi": 60,
          "time": 83.53837800000004,
          "velocity": 0.7795275590551181,
          "duration": 0.15384600000000148
        },
        {
          "name": "A3",
          "midi": 57,
          "time": 83.53837800000004,
          "velocity": 0.7795275590551181,
          "duration": 0.1586536875000064
        },
        {
          "name": "F4",
          "midi": 65,
          "time": 83.99991600000004,
          "velocity": 0.7795275590551181,
          "duration": 0.57211481249999
        },
        {
          "name": "D4",
          "midi": 62,
          "time": 83.99991600000004,
          "velocity": 0.7795275590551181,
          "duration": 0.57211481249999
        },
        {
          "name": "A#3",
          "midi": 58,
          "time": 83.99991600000004,
          "velocity": 0.7795275590551181,
          "duration": 0.57211481249999
        },
        {
          "name": "C#4",
          "midi": 61,
          "time": 83.99991600000004,
          "velocity": 0.7795275590551181,
          "duration": 0.03605765624999435
        },
        {
          "name": "C4",
          "midi": 60,
          "time": 84.69222300000003,
          "velocity": 0.7795275590551181,
          "duration": 0.6129801562500035
        },
        {
          "name": "G3",
          "midi": 55,
          "time": 84.69222300000003,
          "velocity": 0.7795275590551181,
          "duration": 0.5456725312500055
        },
        {
          "name": "E4",
          "midi": 64,
          "time": 84.69222300000003,
          "velocity": 0.7795275590551181,
          "duration": 0.6081724687499985
        },
        {
          "name": "C4",
          "midi": 60,
          "time": 85.38453000000003,
          "velocity": 0.7795275590551181,
          "duration": 0.18990365624999583
        },
        {
          "name": "A3",
          "midi": 57,
          "time": 85.38453000000003,
          "velocity": 0.7795275590551181,
          "duration": 0.20432671874999642
        },
        {
          "name": "F4",
          "midi": 65,
          "time": 85.38453000000003,
          "velocity": 0.7795275590551181,
          "duration": 0.14663446874999408
        },
        {
          "name": "C4",
          "midi": 60,
          "time": 85.84606800000002,
          "velocity": 0.7795275590551181,
          "duration": 0.34855734374998804
        },
        {
          "name": "F4",
          "midi": 65,
          "time": 85.84606800000002,
          "velocity": 0.7795275590551181,
          "duration": 0.23076899999999512
        },
        {
          "name": "A3",
          "midi": 57,
          "time": 85.84606800000002,
          "velocity": 0.7795275590551181,
          "duration": 0.17548059374999525
        },
        {
          "name": "E4",
          "midi": 64,
          "time": 86.07683700000001,
          "velocity": 0.7795275590551181,
          "duration": 0.1057691249999948
        },
        {
          "name": "G3",
          "midi": 55,
          "time": 86.07683700000001,
          "velocity": 0.7795275590551181,
          "duration": 0.12259603124999785
        },
        {
          "name": "C4",
          "midi": 60,
          "time": 86.53837500000002,
          "velocity": 0.7795275590551181,
          "duration": 0.6610570312500101
        },
        {
          "name": "E4",
          "midi": 64,
          "time": 86.53837500000002,
          "velocity": 0.7795275590551181,
          "duration": 0.6706724062500058
        },
        {
          "name": "G3",
          "midi": 55,
          "time": 86.53837500000002,
          "velocity": 0.7795275590551181,
          "duration": 0.6009609375000053
        },
        {
          "name": "C4",
          "midi": 60,
          "time": 87.23068200000002,
          "velocity": 0.7795275590551181,
          "duration": 0.14903831249999655
        },
        {
          "name": "A3",
          "midi": 57,
          "time": 87.23068200000002,
          "velocity": 0.7795275590551181,
          "duration": 0.16105753124999467
        },
        {
          "name": "F4",
          "midi": 65,
          "time": 87.23068200000002,
          "velocity": 0.7795275590551181,
          "duration": 0.14663446874999408
        },
        {
          "name": "C4",
          "midi": 60,
          "time": 87.69222,
          "velocity": 0.7795275590551181,
          "duration": 0.3701919374999818
        },
        {
          "name": "F4",
          "midi": 65,
          "time": 87.69222,
          "velocity": 0.7795275590551181,
          "duration": 0.24038437499999077
        },
        {
          "name": "A3",
          "midi": 57,
          "time": 87.69222,
          "velocity": 0.7795275590551181,
          "duration": 0.18990365624999583
        },
        {
          "name": "E4",
          "midi": 64,
          "time": 87.922989,
          "velocity": 0.7795275590551181,
          "duration": 0.1322114062499935
        },
        {
          "name": "G3",
          "midi": 55,
          "time": 87.922989,
          "velocity": 0.7795275590551181,
          "duration": 0.12980756249999104
        },
        {
          "name": "C4",
          "midi": 60,
          "time": 88.38452699999999,
          "velocity": 0.7795275590551181,
          "duration": 0.6514416562500003
        },
        {
          "name": "F4",
          "midi": 65,
          "time": 88.38452699999999,
          "velocity": 0.7795275590551181,
          "duration": 0.7091339062500026
        },
        {
          "name": "A3",
          "midi": 57,
          "time": 88.38452699999999,
          "velocity": 0.7795275590551181,
          "duration": 0.6370185937499997
        },
        {
          "name": "C4",
          "midi": 60,
          "time": 89.07683399999999,
          "velocity": 0.7795275590551181,
          "duration": 0.17548059375000946
        },
        {
          "name": "E4",
          "midi": 64,
          "time": 89.07683399999999,
          "velocity": 0.7795275590551181,
          "duration": 0.173076750000007
        },
        {
          "name": "G3",
          "midi": 55,
          "time": 89.07683399999999,
          "velocity": 0.7795275590551181,
          "duration": 0.1586536875000064
        },
        {
          "name": "C4",
          "midi": 60,
          "time": 89.538372,
          "velocity": 0.7795275590551181,
          "duration": 0.4567303124999995
        },
        {
          "name": "A3",
          "midi": 57,
          "time": 89.538372,
          "velocity": 0.7795275590551181,
          "duration": 0.4567303124999995
        },
        {
          "name": "F4",
          "midi": 65,
          "time": 89.538372,
          "velocity": 0.7795275590551181,
          "duration": 0.4567303124999995
        },
        {
          "name": "D4",
          "midi": 62,
          "time": 90.230679,
          "velocity": 0.7795275590551181,
          "duration": 0.5769224999999949
        },
        {
          "name": "F4",
          "midi": 65,
          "time": 90.230679,
          "velocity": 0.7795275590551181,
          "duration": 0.850960687500006
        },
        {
          "name": "A#3",
          "midi": 58,
          "time": 90.230679,
          "velocity": 0.7795275590551181,
          "duration": 0.6033647812499936
        },
        {
          "name": "A3",
          "midi": 57,
          "time": 90.922986,
          "velocity": 0.7795275590551181,
          "duration": 0.1394229375000009
        },
        {
          "name": "C4",
          "midi": 60,
          "time": 90.922986,
          "velocity": 0.7795275590551181,
          "duration": 0.12980756250000525
        },
        {
          "name": "D4",
          "midi": 62,
          "time": 91.384524,
          "velocity": 0.7795275590551181,
          "duration": 0.4567303124999995
        },
        {
          "name": "F4",
          "midi": 65,
          "time": 91.384524,
          "velocity": 0.7795275590551181,
          "duration": 0.4567303124999995
        },
        {
          "name": "A#3",
          "midi": 58,
          "time": 91.384524,
          "velocity": 0.7795275590551181,
          "duration": 0.4567303124999995
        },
        {
          "name": "C4",
          "midi": 60,
          "time": 92.076831,
          "velocity": 0.7795275590551181,
          "duration": 0.6562493437500052
        },
        {
          "name": "G3",
          "midi": 55,
          "time": 92.076831,
          "velocity": 0.7795275590551181,
          "duration": 0.5841340312500023
        },
        {
          "name": "E4",
          "midi": 64,
          "time": 92.076831,
          "velocity": 0.7795275590551181,
          "duration": 0.6538455000000027
        },
        {
          "name": "C4",
          "midi": 60,
          "time": 92.769138,
          "velocity": 0.7795275590551181,
          "duration": 0.12499987500000032
        },
        {
          "name": "F4",
          "midi": 65,
          "time": 92.769138,
          "velocity": 0.7795275590551181,
          "duration": 0.12499987500000032
        },
        {
          "name": "A3",
          "midi": 57,
          "time": 92.769138,
          "velocity": 0.7795275590551181,
          "duration": 0.1394229375000009
        },
        {
          "name": "A3",
          "midi": 57,
          "time": 93.230676,
          "velocity": 0.7795275590551181,
          "duration": 0.19711518750000323
        },
        {
          "name": "F4",
          "midi": 65,
          "time": 93.230676,
          "velocity": 0.7795275590551181,
          "duration": 0.2451920625000099
        },
        {
          "name": "C4",
          "midi": 60,
          "time": 93.230676,
          "velocity": 0.7795275590551181,
          "duration": 0.35576887500000964
        },
        {
          "name": "E4",
          "midi": 64,
          "time": 93.46144500000001,
          "velocity": 0.7795275590551181,
          "duration": 0.13701909374999843
        },
        {
          "name": "G3",
          "midi": 55,
          "time": 93.46144500000001,
          "velocity": 0.7795275590551181,
          "duration": 0.15384600000000148
        },
        {
          "name": "G3",
          "midi": 55,
          "time": 93.92298300000002,
          "velocity": 0.7795275590551181,
          "duration": 0.5961532500000004
        },
        {
          "name": "C4",
          "midi": 60,
          "time": 93.92298300000002,
          "velocity": 0.7795275590551181,
          "duration": 0.8052876562500018
        },
        {
          "name": "E4",
          "midi": 64,
          "time": 93.92298300000002,
          "velocity": 0.7795275590551181,
          "duration": 0.6706724062500058
        },
        {
          "name": "F4",
          "midi": 65,
          "time": 94.61529000000002,
          "velocity": 0.7795275590551181,
          "duration": 0.16105753125000888
        },
        {
          "name": "A3",
          "midi": 57,
          "time": 94.61529000000002,
          "velocity": 0.7795275590551181,
          "duration": 0.12740371875000278
        },
        {
          "name": "D4",
          "midi": 62,
          "time": 95.07682800000002,
          "velocity": 0.7795275590551181,
          "duration": 0.17067290625000453
        },
        {
          "name": "F4",
          "midi": 65,
          "time": 95.07682800000002,
          "velocity": 0.7795275590551181,
          "duration": 0.38221115625000834
        },
        {
          "name": "A#3",
          "midi": 58,
          "time": 95.07682800000002,
          "velocity": 0.7795275590551181,
          "duration": 0.20192287500000816
        },
        {
          "name": "A3",
          "midi": 57,
          "time": 95.30759700000003,
          "velocity": 0.7795275590551181,
          "duration": 0.09615374999999915
        },
        {
          "name": "C4",
          "midi": 60,
          "time": 95.30759700000003,
          "velocity": 0.7795275590551181,
          "duration": 0.09134606249999422
        },
        {
          "name": "A3",
          "midi": 57,
          "time": 124.61526000000002,
          "velocity": 0.7795275590551181,
          "duration": 0.20192287499999395
        },
        {
          "name": "C4",
          "midi": 60,
          "time": 124.84602900000002,
          "velocity": 0.7795275590551181,
          "duration": 0.09374990624999668
        },
        {
          "name": "A3",
          "midi": 57,
          "time": 125.07679800000001,
          "velocity": 0.7795275590551181,
          "duration": 0.05769225000000233
        },
        {
          "name": "C4",
          "midi": 60,
          "time": 125.30756700000002,
          "velocity": 0.7795275590551181,
          "duration": 0.6514416562500003
        },
        {
          "name": "F4",
          "midi": 65,
          "time": 125.30756700000002,
          "velocity": 0.7795275590551181,
          "duration": 0.6442301250000071
        },
        {
          "name": "A3",
          "midi": 57,
          "time": 125.30756700000002,
          "velocity": 0.7795275590551181,
          "duration": 0.6129801562500035
        },
        {
          "name": "G3",
          "midi": 55,
          "time": 125.99987400000002,
          "velocity": 0.7795275590551181,
          "duration": 0.22836515625000686
        },
        {
          "name": "C4",
          "midi": 60,
          "time": 125.99987400000002,
          "velocity": 0.7795275590551181,
          "duration": 0.2860574062500092
        },
        {
          "name": "E4",
          "midi": 64,
          "time": 125.99987400000002,
          "velocity": 0.7795275590551181,
          "duration": 0.21394209375000628
        },
        {
          "name": "A3",
          "midi": 57,
          "time": 126.46141200000002,
          "velocity": 0.7795275590551181,
          "duration": 0.5721148125000042
        },
        {
          "name": "C4",
          "midi": 60,
          "time": 126.46141200000002,
          "velocity": 0.7795275590551181,
          "duration": 0.4567303124999995
        },
        {
          "name": "F4",
          "midi": 65,
          "time": 126.46141200000002,
          "velocity": 0.7795275590551181,
          "duration": 0.5721148125000042
        },
        {
          "name": "D4",
          "midi": 62,
          "time": 127.15371900000002,
          "velocity": 0.7795275590551181,
          "duration": 0.5552879062500011
        },
        {
          "name": "F4",
          "midi": 65,
          "time": 127.15371900000002,
          "velocity": 0.7795275590551181,
          "duration": 1.021633593749982
        },
        {
          "name": "A#3",
          "midi": 58,
          "time": 127.15371900000002,
          "velocity": 0.7795275590551181,
          "duration": 0.5721148125000042
        },
        {
          "name": "C4",
          "midi": 60,
          "time": 127.84602600000002,
          "velocity": 0.7795275590551181,
          "duration": 0.15384600000000148
        },
        {
          "name": "A3",
          "midi": 57,
          "time": 127.84602600000002,
          "velocity": 0.7795275590551181,
          "duration": 0.1586536874999922
        },
        {
          "name": "F4",
          "midi": 65,
          "time": 128.307564,
          "velocity": 0.7795275590551181,
          "duration": 0.57211481249999
        },
        {
          "name": "D4",
          "midi": 62,
          "time": 128.307564,
          "velocity": 0.7795275590551181,
          "duration": 0.57211481249999
        },
        {
          "name": "A#3",
          "midi": 58,
          "time": 128.307564,
          "velocity": 0.7795275590551181,
          "duration": 0.57211481249999
        },
        {
          "name": "C#4",
          "midi": 61,
          "time": 128.307564,
          "velocity": 0.7795275590551181,
          "duration": 0.03605765624999435
        },
        {
          "name": "C4",
          "midi": 60,
          "time": 128.999871,
          "velocity": 0.7795275590551181,
          "duration": 0.6129801562500177
        },
        {
          "name": "G3",
          "midi": 55,
          "time": 128.999871,
          "velocity": 0.7795275590551181,
          "duration": 0.5456725312500055
        },
        {
          "name": "E4",
          "midi": 64,
          "time": 128.999871,
          "velocity": 0.7795275590551181,
          "duration": 0.6081724687500127
        },
        {
          "name": "C4",
          "midi": 60,
          "time": 129.69217800000004,
          "velocity": 0.7795275590551181,
          "duration": 0.18990365624998162
        },
        {
          "name": "A3",
          "midi": 57,
          "time": 129.69217800000004,
          "velocity": 0.7795275590551181,
          "duration": 0.204326718749968
        },
        {
          "name": "F4",
          "midi": 65,
          "time": 129.69217800000004,
          "velocity": 0.7795275590551181,
          "duration": 0.14663446874999408
        },
        {
          "name": "C4",
          "midi": 60,
          "time": 130.153716,
          "velocity": 0.7795275590551181,
          "duration": 0.34855734375000225
        },
        {
          "name": "F4",
          "midi": 65,
          "time": 130.153716,
          "velocity": 0.7795275590551181,
          "duration": 0.23076900000000933
        },
        {
          "name": "A3",
          "midi": 57,
          "time": 130.153716,
          "velocity": 0.7795275590551181,
          "duration": 0.17548059374999525
        },
        {
          "name": "E4",
          "midi": 64,
          "time": 130.384485,
          "velocity": 0.7795275590551181,
          "duration": 0.1057691249999948
        },
        {
          "name": "G3",
          "midi": 55,
          "time": 130.384485,
          "velocity": 0.7795275590551181,
          "duration": 0.12259603124999785
        },
        {
          "name": "C4",
          "midi": 60,
          "time": 130.846023,
          "velocity": 0.7795275590551181,
          "duration": 0.6610570312499817
        },
        {
          "name": "E4",
          "midi": 64,
          "time": 130.846023,
          "velocity": 0.7795275590551181,
          "duration": 0.6706724062499916
        },
        {
          "name": "G3",
          "midi": 55,
          "time": 130.846023,
          "velocity": 0.7795275590551181,
          "duration": 0.6009609374999911
        },
        {
          "name": "C4",
          "midi": 60,
          "time": 131.53833,
          "velocity": 0.7795275590551181,
          "duration": 0.14903831249998234
        },
        {
          "name": "A3",
          "midi": 57,
          "time": 131.53833,
          "velocity": 0.7795275590551181,
          "duration": 0.16105753124998046
        },
        {
          "name": "F4",
          "midi": 65,
          "time": 131.53833,
          "velocity": 0.7795275590551181,
          "duration": 0.14663446874999408
        },
        {
          "name": "C4",
          "midi": 60,
          "time": 131.999868,
          "velocity": 0.7795275590551181,
          "duration": 0.3701919375000102
        },
        {
          "name": "F4",
          "midi": 65,
          "time": 131.999868,
          "velocity": 0.7795275590551181,
          "duration": 0.2403843750000192
        },
        {
          "name": "A3",
          "midi": 57,
          "time": 131.999868,
          "velocity": 0.7795275590551181,
          "duration": 0.18990365625001004
        },
        {
          "name": "E4",
          "midi": 64,
          "time": 132.230637,
          "velocity": 0.7795275590551181,
          "duration": 0.1322114062500077
        },
        {
          "name": "G3",
          "midi": 55,
          "time": 132.230637,
          "velocity": 0.7795275590551181,
          "duration": 0.12980756250001946
        },
        {
          "name": "C4",
          "midi": 60,
          "time": 132.692175,
          "velocity": 0.7795275590551181,
          "duration": 0.6514416562500003
        },
        {
          "name": "F4",
          "midi": 65,
          "time": 132.692175,
          "velocity": 0.7795275590551181,
          "duration": 0.7091339062500026
        },
        {
          "name": "A3",
          "midi": 57,
          "time": 132.692175,
          "velocity": 0.7795275590551181,
          "duration": 0.6370185937500139
        },
        {
          "name": "C4",
          "midi": 60,
          "time": 133.384482,
          "velocity": 0.7795275590551181,
          "duration": 0.17548059374996683
        },
        {
          "name": "E4",
          "midi": 64,
          "time": 133.384482,
          "velocity": 0.7795275590551181,
          "duration": 0.17307674999997857
        },
        {
          "name": "G3",
          "midi": 55,
          "time": 133.384482,
          "velocity": 0.7795275590551181,
          "duration": 0.1586536874999922
        },
        {
          "name": "C4",
          "midi": 60,
          "time": 133.84601999999995,
          "velocity": 0.7795275590551181,
          "duration": 0.4567303125000137
        },
        {
          "name": "A3",
          "midi": 57,
          "time": 133.84601999999995,
          "velocity": 0.7795275590551181,
          "duration": 0.4567303125000137
        },
        {
          "name": "F4",
          "midi": 65,
          "time": 133.84601999999995,
          "velocity": 0.7795275590551181,
          "duration": 0.4567303125000137
        },
        {
          "name": "D4",
          "midi": 62,
          "time": 134.53832699999995,
          "velocity": 0.7795275590551181,
          "duration": 0.5769224999999949
        },
        {
          "name": "F4",
          "midi": 65,
          "time": 134.53832699999995,
          "velocity": 0.7795275590551181,
          "duration": 0.8509606874999918
        },
        {
          "name": "A#3",
          "midi": 58,
          "time": 134.53832699999995,
          "velocity": 0.7795275590551181,
          "duration": 0.6033647812500078
        },
        {
          "name": "A3",
          "midi": 57,
          "time": 135.23063399999995,
          "velocity": 0.7795275590551181,
          "duration": 0.1394229375000009
        },
        {
          "name": "C4",
          "midi": 60,
          "time": 135.23063399999995,
          "velocity": 0.7795275590551181,
          "duration": 0.12980756249999104
        },
        {
          "name": "D4",
          "midi": 62,
          "time": 135.69217199999994,
          "velocity": 0.7795275590551181,
          "duration": 0.4567303125000137
        },
        {
          "name": "F4",
          "midi": 65,
          "time": 135.69217199999994,
          "velocity": 0.7795275590551181,
          "duration": 0.4567303125000137
        },
        {
          "name": "A#3",
          "midi": 58,
          "time": 135.69217199999994,
          "velocity": 0.7795275590551181,
          "duration": 0.4567303125000137
        },
        {
          "name": "C4",
          "midi": 60,
          "time": 136.38447899999994,
          "velocity": 0.7795275590551181,
          "duration": 0.6562493437499768
        },
        {
          "name": "G3",
          "midi": 55,
          "time": 136.38447899999994,
          "velocity": 0.7795275590551181,
          "duration": 0.5841340312499881
        },
        {
          "name": "E4",
          "midi": 64,
          "time": 136.38447899999994,
          "velocity": 0.7795275590551181,
          "duration": 0.6538454999999885
        },
        {
          "name": "C4",
          "midi": 60,
          "time": 137.0767859999999,
          "velocity": 0.7795275590551181,
          "duration": 0.1249998749999861
        },
        {
          "name": "F4",
          "midi": 65,
          "time": 137.0767859999999,
          "velocity": 0.7795275590551181,
          "duration": 0.1249998749999861
        },
        {
          "name": "A3",
          "midi": 57,
          "time": 137.0767859999999,
          "velocity": 0.7795275590551181,
          "duration": 0.13942293749997248
        },
        {
          "name": "A3",
          "midi": 57,
          "time": 137.53832399999988,
          "velocity": 0.7795275590551181,
          "duration": 0.19711518750000323
        },
        {
          "name": "F4",
          "midi": 65,
          "time": 137.53832399999988,
          "velocity": 0.7795275590551181,
          "duration": 0.2451920624999957
        },
        {
          "name": "C4",
          "midi": 60,
          "time": 137.53832399999988,
          "velocity": 0.7795275590551181,
          "duration": 0.35576887499999543
        },
        {
          "name": "E4",
          "midi": 64,
          "time": 137.76909299999988,
          "velocity": 0.7795275590551181,
          "duration": 0.13701909374998422
        },
        {
          "name": "G3",
          "midi": 55,
          "time": 137.76909299999988,
          "velocity": 0.7795275590551181,
          "duration": 0.15384599999998727
        },
        {
          "name": "G3",
          "midi": 55,
          "time": 138.23063099999987,
          "velocity": 0.7795275590551181,
          "duration": 0.5961532499999862
        },
        {
          "name": "C4",
          "midi": 60,
          "time": 138.23063099999987,
          "velocity": 0.7795275590551181,
          "duration": 0.8052876562499875
        },
        {
          "name": "E4",
          "midi": 64,
          "time": 138.23063099999987,
          "velocity": 0.7795275590551181,
          "duration": 0.6706724062499916
        },
        {
          "name": "F4",
          "midi": 65,
          "time": 138.92293799999987,
          "velocity": 0.7795275590551181,
          "duration": 0.16105753124998046
        },
        {
          "name": "A3",
          "midi": 57,
          "time": 138.92293799999987,
          "velocity": 0.7795275590551181,
          "duration": 0.12740371874997436
        },
        {
          "name": "D4",
          "midi": 62,
          "time": 139.38447599999986,
          "velocity": 0.7795275590551181,
          "duration": 0.17067290624999032
        },
        {
          "name": "F4",
          "midi": 65,
          "time": 139.38447599999986,
          "velocity": 0.7795275590551181,
          "duration": 0.38221115625000834
        },
        {
          "name": "A#3",
          "midi": 58,
          "time": 139.38447599999986,
          "velocity": 0.7795275590551181,
          "duration": 0.20192287499997974
        },
        {
          "name": "A3",
          "midi": 57,
          "time": 139.61524499999985,
          "velocity": 0.7795275590551181,
          "duration": 0.09615375000001336
        },
        {
          "name": "C4",
          "midi": 60,
          "time": 139.61524499999985,
          "velocity": 0.7795275590551181,
          "duration": 0.09134606250000843
        },
        {
          "name": "A#2",
          "midi": 46,
          "time": 140.30755199999987,
          "velocity": 0.7795275590551181,
          "duration": 1.3653832499999794
        },
        {
          "name": "D4",
          "midi": 62,
          "time": 140.30755199999987,
          "velocity": 0.7795275590551181,
          "duration": 1.3581717187499862
        },
        {
          "name": "F3",
          "midi": 53,
          "time": 140.30755199999987,
          "velocity": 0.7795275590551181,
          "duration": 1.3581717187499862
        },
        {
          "name": "A#2",
          "midi": 46,
          "time": 141.92293499999985,
          "velocity": 0.7795275590551181,
          "duration": 1.9591326562500058
        },
        {
          "name": "D4",
          "midi": 62,
          "time": 141.92293499999985,
          "velocity": 0.7795275590551181,
          "duration": 1.9951903125000001
        },
        {
          "name": "F3",
          "midi": 53,
          "time": 141.92293499999985,
          "velocity": 0.7795275590551181,
          "duration": 1.9374980624999978
        },
        {
          "name": "C3",
          "midi": 48,
          "time": 143.99985599999985,
          "velocity": 0.7795275590551181,
          "duration": 1.3990370624999855
        },
        {
          "name": "G3",
          "midi": 55,
          "time": 143.99985599999985,
          "velocity": 0.7795275590551181,
          "duration": 1.4134601249999719
        },
        {
          "name": "E4",
          "midi": 64,
          "time": 143.99985599999985,
          "velocity": 0.7795275590551181,
          "duration": 1.3966332187499972
        },
        {
          "name": "C3",
          "midi": 48,
          "time": 145.61523899999983,
          "velocity": 0.7795275590551181,
          "duration": 1.9158634687499898
        },
        {
          "name": "E4",
          "midi": 64,
          "time": 145.61523899999983,
          "velocity": 0.7795275590551181,
          "duration": 1.935094218749981
        },
        {
          "name": "G3",
          "midi": 55,
          "time": 145.61523899999983,
          "velocity": 0.7795275590551181,
          "duration": 1.918267312499978
        },
        {
          "name": "A#2",
          "midi": 46,
          "time": 147.6921599999998,
          "velocity": 0.7795275590551181,
          "duration": 1.4110562812499836
        },
        {
          "name": "D4",
          "midi": 62,
          "time": 147.6921599999998,
          "velocity": 0.7795275590551181,
          "duration": 1.4014409062500022
        },
        {
          "name": "F3",
          "midi": 53,
          "time": 147.6921599999998,
          "velocity": 0.7795275590551181,
          "duration": 1.4038447499999904
        },
        {
          "name": "A#2",
          "midi": 46,
          "time": 149.30754299999978,
          "velocity": 0.7795275590551181,
          "duration": 1.9639403437500107
        },
        {
          "name": "D4",
          "midi": 62,
          "time": 149.30754299999978,
          "velocity": 0.7795275590551181,
          "duration": 2.016824906250008
        },
        {
          "name": "F3",
          "midi": 53,
          "time": 149.30754299999978,
          "velocity": 0.7795275590551181,
          "duration": 1.9711518750000039
        },
        {
          "name": "C3",
          "midi": 48,
          "time": 151.38446399999978,
          "velocity": 0.7795275590551181,
          "duration": 0.14903831250001076
        },
        {
          "name": "G3",
          "midi": 55,
          "time": 151.38446399999978,
          "velocity": 0.7795275590551181,
          "duration": 0.10336528125000655
        },
        {
          "name": "E4",
          "midi": 64,
          "time": 151.38446399999978,
          "velocity": 0.7795275590551181,
          "duration": 0.10817296875001148
        },
        {
          "name": "D#4",
          "midi": 63,
          "time": 156.6921509999998,
          "velocity": 0.7795275590551181,
          "duration": 0.459134156250002
        },
        {
          "name": "C3",
          "midi": 48,
          "time": 156.6921509999998,
          "velocity": 0.7795275590551181,
          "duration": 0.5216340937500092
        },
        {
          "name": "G3",
          "midi": 55,
          "time": 156.6921509999998,
          "velocity": 0.7795275590551181,
          "duration": 0.4927879687500081
        },
        {
          "name": "A#3",
          "midi": 58,
          "time": 156.6921509999998,
          "velocity": 0.7795275590551181,
          "duration": 0.4711533750000001
        },
        {
          "name": "A#4",
          "midi": 70,
          "time": 159.6921479999998,
          "velocity": 0.7795275590551181,
          "duration": 0.09134606250000843
        },
        {
          "name": "A4",
          "midi": 69,
          "time": 159.9229169999998,
          "velocity": 0.7795275590551181,
          "duration": 0.08173068749999857
        },
        {
          "name": "G4",
          "midi": 67,
          "time": 160.15368599999982,
          "velocity": 0.7795275590551181,
          "duration": 0.0865383750000035
        },
        {
          "name": "D#4",
          "midi": 63,
          "time": 160.38445499999983,
          "velocity": 0.7795275590551181,
          "duration": 0.286057406249995
        },
        {
          "name": "C3",
          "midi": 48,
          "time": 168.23060099999984,
          "velocity": 0.7795275590551181,
          "duration": 0.0721153124999887
        },
        {
          "name": "C4",
          "midi": 60,
          "time": 168.46136999999982,
          "velocity": 0.7795275590551181,
          "duration": 0.12259603124999785
        },
        {
          "name": "C3",
          "midi": 48,
          "time": 168.46136999999982,
          "velocity": 0.7795275590551181,
          "duration": 0.29326893749998817
        },
        {
          "name": "C4",
          "midi": 60,
          "time": 168.9229079999998,
          "velocity": 0.7795275590551181,
          "duration": 0.08413453125001524
        },
        {
          "name": "C3",
          "midi": 48,
          "time": 168.9229079999998,
          "velocity": 0.7795275590551181,
          "duration": 0.07932684375001031
        },
        {
          "name": "C4",
          "midi": 60,
          "time": 169.15367699999982,
          "velocity": 0.7795275590551181,
          "duration": 0.19951903124999149
        },
        {
          "name": "C3",
          "midi": 48,
          "time": 169.15367699999982,
          "velocity": 0.7795275590551181,
          "duration": 0.2764420312499851
        },
        {
          "name": "F4",
          "midi": 65,
          "time": 170.7690599999998,
          "velocity": 0.7795275590551181,
          "duration": 0.20432671874999642
        },
        {
          "name": "A#4",
          "midi": 70,
          "time": 170.7690599999998,
          "velocity": 0.7795275590551181,
          "duration": 0.19471134374998655
        },
        {
          "name": "D4",
          "midi": 62,
          "time": 170.7690599999998,
          "velocity": 0.7795275590551181,
          "duration": 0.40144190625002807
        },
        {
          "name": "A#4",
          "midi": 70,
          "time": 170.9998289999998,
          "velocity": 0.7795275590551181,
          "duration": 0.14903831250001076
        },
        {
          "name": "F4",
          "midi": 65,
          "time": 170.9998289999998,
          "velocity": 0.7795275590551181,
          "duration": 0.14903831250001076
        },
        {
          "name": "F4",
          "midi": 65,
          "time": 171.23059799999982,
          "velocity": 0.7795275590551181,
          "duration": 0.2259613125000044
        },
        {
          "name": "C4",
          "midi": 60,
          "time": 171.23059799999982,
          "velocity": 0.7795275590551181,
          "duration": 0.2259613125000044
        },
        {
          "name": "A4",
          "midi": 69,
          "time": 171.23059799999982,
          "velocity": 0.7795275590551181,
          "duration": 0.2259613125000044
        },
        {
          "name": "A#3",
          "midi": 58,
          "time": 171.46136699999983,
          "velocity": 0.7795275590551181,
          "duration": 0.1850959687499767
        },
        {
          "name": "G4",
          "midi": 67,
          "time": 171.46136699999983,
          "velocity": 0.7795275590551181,
          "duration": 0.18269212499998844
        },
        {
          "name": "D#4",
          "midi": 63,
          "time": 171.46136699999983,
          "velocity": 0.7795275590551181,
          "duration": 0.15384599999998727
        },
        {
          "name": "A3",
          "midi": 57,
          "time": 185.5382759999998,
          "velocity": 0.7795275590551181,
          "duration": 0.20192287500000816
        },
        {
          "name": "C4",
          "midi": 60,
          "time": 185.7690449999998,
          "velocity": 0.7795275590551181,
          "duration": 0.09374990624999668
        },
        {
          "name": "A3",
          "midi": 57,
          "time": 185.99981399999982,
          "velocity": 0.7795275590551181,
          "duration": 0.05769225000000233
        },
        {
          "name": "C4",
          "midi": 60,
          "time": 186.23058299999983,
          "velocity": 0.7795275590551181,
          "duration": 0.6514416562499719
        },
        {
          "name": "F4",
          "midi": 65,
          "time": 186.23058299999983,
          "velocity": 0.7795275590551181,
          "duration": 0.6442301249999787
        },
        {
          "name": "A3",
          "midi": 57,
          "time": 186.23058299999983,
          "velocity": 0.7795275590551181,
          "duration": 0.6129801562499892
        },
        {
          "name": "G3",
          "midi": 55,
          "time": 186.9228899999998,
          "velocity": 0.7795275590551181,
          "duration": 0.22836515624999265
        },
        {
          "name": "C4",
          "midi": 60,
          "time": 186.9228899999998,
          "velocity": 0.7795275590551181,
          "duration": 0.286057406249995
        },
        {
          "name": "E4",
          "midi": 64,
          "time": 186.9228899999998,
          "velocity": 0.7795275590551181,
          "duration": 0.21394209375000628
        },
        {
          "name": "A3",
          "midi": 57,
          "time": 187.3844279999998,
          "velocity": 0.7795275590551181,
          "duration": 0.5721148125000184
        },
        {
          "name": "C4",
          "midi": 60,
          "time": 187.3844279999998,
          "velocity": 0.7795275590551181,
          "duration": 0.4567303125000137
        },
        {
          "name": "F4",
          "midi": 65,
          "time": 187.3844279999998,
          "velocity": 0.7795275590551181,
          "duration": 0.5721148125000184
        },
        {
          "name": "D4",
          "midi": 62,
          "time": 188.07673499999981,
          "velocity": 0.7795275590551181,
          "duration": 0.5552879062499869
        },
        {
          "name": "F4",
          "midi": 65,
          "time": 188.07673499999981,
          "velocity": 0.7795275590551181,
          "duration": 1.021633593749982
        },
        {
          "name": "A#3",
          "midi": 58,
          "time": 188.07673499999981,
          "velocity": 0.7795275590551181,
          "duration": 0.57211481249999
        },
        {
          "name": "C4",
          "midi": 60,
          "time": 188.7690419999998,
          "velocity": 0.7795275590551181,
          "duration": 0.15384599999998727
        },
        {
          "name": "A3",
          "midi": 57,
          "time": 188.7690419999998,
          "velocity": 0.7795275590551181,
          "duration": 0.1586536874999922
        },
        {
          "name": "F4",
          "midi": 65,
          "time": 189.2305799999998,
          "velocity": 0.7795275590551181,
          "duration": 0.57211481249999
        },
        {
          "name": "D4",
          "midi": 62,
          "time": 189.2305799999998,
          "velocity": 0.7795275590551181,
          "duration": 0.57211481249999
        },
        {
          "name": "A#3",
          "midi": 58,
          "time": 189.2305799999998,
          "velocity": 0.7795275590551181,
          "duration": 0.57211481249999
        },
        {
          "name": "C#4",
          "midi": 61,
          "time": 189.2305799999998,
          "velocity": 0.7795275590551181,
          "duration": 0.03605765624999435
        },
        {
          "name": "C4",
          "midi": 60,
          "time": 189.9228869999998,
          "velocity": 0.7795275590551181,
          "duration": 0.6129801562500177
        },
        {
          "name": "G3",
          "midi": 55,
          "time": 189.9228869999998,
          "velocity": 0.7795275590551181,
          "duration": 0.5456725312500055
        },
        {
          "name": "E4",
          "midi": 64,
          "time": 189.9228869999998,
          "velocity": 0.7795275590551181,
          "duration": 0.6081724687500127
        },
        {
          "name": "C4",
          "midi": 60,
          "time": 190.61519399999983,
          "velocity": 0.7795275590551181,
          "duration": 0.18990365624998162
        },
        {
          "name": "A3",
          "midi": 57,
          "time": 190.61519399999983,
          "velocity": 0.7795275590551181,
          "duration": 0.204326718749968
        },
        {
          "name": "F4",
          "midi": 65,
          "time": 190.61519399999983,
          "velocity": 0.7795275590551181,
          "duration": 0.14663446874999408
        },
        {
          "name": "C4",
          "midi": 60,
          "time": 191.0767319999998,
          "velocity": 0.7795275590551181,
          "duration": 0.34855734375000225
        },
        {
          "name": "F4",
          "midi": 65,
          "time": 191.0767319999998,
          "velocity": 0.7795275590551181,
          "duration": 0.23076900000000933
        },
        {
          "name": "A3",
          "midi": 57,
          "time": 191.0767319999998,
          "velocity": 0.7795275590551181,
          "duration": 0.17548059374999525
        },
        {
          "name": "E4",
          "midi": 64,
          "time": 191.3075009999998,
          "velocity": 0.7795275590551181,
          "duration": 0.1057691249999948
        },
        {
          "name": "G3",
          "midi": 55,
          "time": 191.3075009999998,
          "velocity": 0.7795275590551181,
          "duration": 0.12259603124999785
        },
        {
          "name": "C4",
          "midi": 60,
          "time": 191.7690389999998,
          "velocity": 0.7795275590551181,
          "duration": 0.6610570312499817
        },
        {
          "name": "E4",
          "midi": 64,
          "time": 191.7690389999998,
          "velocity": 0.7795275590551181,
          "duration": 0.6706724062499916
        },
        {
          "name": "G3",
          "midi": 55,
          "time": 191.7690389999998,
          "velocity": 0.7795275590551181,
          "duration": 0.6009609374999911
        },
        {
          "name": "C4",
          "midi": 60,
          "time": 192.4613459999998,
          "velocity": 0.7795275590551181,
          "duration": 0.14903831249998234
        },
        {
          "name": "A3",
          "midi": 57,
          "time": 192.4613459999998,
          "velocity": 0.7795275590551181,
          "duration": 0.16105753124998046
        },
        {
          "name": "F4",
          "midi": 65,
          "time": 192.4613459999998,
          "velocity": 0.7795275590551181,
          "duration": 0.14663446874999408
        },
        {
          "name": "C4",
          "midi": 60,
          "time": 192.92288399999978,
          "velocity": 0.7795275590551181,
          "duration": 0.3701919375000102
        },
        {
          "name": "F4",
          "midi": 65,
          "time": 192.92288399999978,
          "velocity": 0.7795275590551181,
          "duration": 0.2403843750000192
        },
        {
          "name": "A3",
          "midi": 57,
          "time": 192.92288399999978,
          "velocity": 0.7795275590551181,
          "duration": 0.18990365625001004
        },
        {
          "name": "E4",
          "midi": 64,
          "time": 193.1536529999998,
          "velocity": 0.7795275590551181,
          "duration": 0.1322114062500077
        },
        {
          "name": "G3",
          "midi": 55,
          "time": 193.1536529999998,
          "velocity": 0.7795275590551181,
          "duration": 0.12980756250001946
        },
        {
          "name": "C4",
          "midi": 60,
          "time": 193.61519099999978,
          "velocity": 0.7795275590551181,
          "duration": 0.6514416562500003
        },
        {
          "name": "F4",
          "midi": 65,
          "time": 193.61519099999978,
          "velocity": 0.7795275590551181,
          "duration": 0.7091339062500026
        },
        {
          "name": "A3",
          "midi": 57,
          "time": 193.61519099999978,
          "velocity": 0.7795275590551181,
          "duration": 0.6370185937500139
        },
        {
          "name": "C4",
          "midi": 60,
          "time": 194.30749799999978,
          "velocity": 0.7795275590551181,
          "duration": 0.17548059374996683
        },
        {
          "name": "E4",
          "midi": 64,
          "time": 194.30749799999978,
          "velocity": 0.7795275590551181,
          "duration": 0.17307674999997857
        },
        {
          "name": "G3",
          "midi": 55,
          "time": 194.30749799999978,
          "velocity": 0.7795275590551181,
          "duration": 0.1586536874999922
        },
        {
          "name": "C4",
          "midi": 60,
          "time": 194.76903599999974,
          "velocity": 0.7795275590551181,
          "duration": 0.4567303125000137
        },
        {
          "name": "A3",
          "midi": 57,
          "time": 194.76903599999974,
          "velocity": 0.7795275590551181,
          "duration": 0.4567303125000137
        },
        {
          "name": "F4",
          "midi": 65,
          "time": 194.76903599999974,
          "velocity": 0.7795275590551181,
          "duration": 0.4567303125000137
        },
        {
          "name": "D4",
          "midi": 62,
          "time": 195.46134299999974,
          "velocity": 0.7795275590551181,
          "duration": 0.5769224999999949
        },
        {
          "name": "F4",
          "midi": 65,
          "time": 195.46134299999974,
          "velocity": 0.7795275590551181,
          "duration": 0.8509606874999918
        },
        {
          "name": "A#3",
          "midi": 58,
          "time": 195.46134299999974,
          "velocity": 0.7795275590551181,
          "duration": 0.6033647812500078
        },
        {
          "name": "A3",
          "midi": 57,
          "time": 196.15364999999974,
          "velocity": 0.7795275590551181,
          "duration": 0.1394229375000009
        },
        {
          "name": "C4",
          "midi": 60,
          "time": 196.15364999999974,
          "velocity": 0.7795275590551181,
          "duration": 0.12980756249999104
        },
        {
          "name": "D4",
          "midi": 62,
          "time": 196.61518799999973,
          "velocity": 0.7795275590551181,
          "duration": 0.4567303125000137
        },
        {
          "name": "F4",
          "midi": 65,
          "time": 196.61518799999973,
          "velocity": 0.7795275590551181,
          "duration": 0.4567303125000137
        },
        {
          "name": "A#3",
          "midi": 58,
          "time": 196.61518799999973,
          "velocity": 0.7795275590551181,
          "duration": 0.4567303125000137
        },
        {
          "name": "C4",
          "midi": 60,
          "time": 197.30749499999973,
          "velocity": 0.7795275590551181,
          "duration": 0.6562493437499768
        },
        {
          "name": "G3",
          "midi": 55,
          "time": 197.30749499999973,
          "velocity": 0.7795275590551181,
          "duration": 0.5841340312499881
        },
        {
          "name": "E4",
          "midi": 64,
          "time": 197.30749499999973,
          "velocity": 0.7795275590551181,
          "duration": 0.6538454999999885
        },
        {
          "name": "C4",
          "midi": 60,
          "time": 197.9998019999997,
          "velocity": 0.7795275590551181,
          "duration": 0.1249998749999861
        },
        {
          "name": "F4",
          "midi": 65,
          "time": 197.9998019999997,
          "velocity": 0.7795275590551181,
          "duration": 0.1249998749999861
        },
        {
          "name": "A3",
          "midi": 57,
          "time": 197.9998019999997,
          "velocity": 0.7795275590551181,
          "duration": 0.13942293749997248
        },
        {
          "name": "A3",
          "midi": 57,
          "time": 198.46133999999967,
          "velocity": 0.7795275590551181,
          "duration": 0.19711518750000323
        },
        {
          "name": "F4",
          "midi": 65,
          "time": 198.46133999999967,
          "velocity": 0.7795275590551181,
          "duration": 0.2451920624999957
        },
        {
          "name": "C4",
          "midi": 60,
          "time": 198.46133999999967,
          "velocity": 0.7795275590551181,
          "duration": 0.35576887499999543
        },
        {
          "name": "E4",
          "midi": 64,
          "time": 198.69210899999968,
          "velocity": 0.7795275590551181,
          "duration": 0.13701909374998422
        },
        {
          "name": "G3",
          "midi": 55,
          "time": 198.69210899999968,
          "velocity": 0.7795275590551181,
          "duration": 0.15384599999998727
        },
        {
          "name": "G3",
          "midi": 55,
          "time": 199.15364699999967,
          "velocity": 0.7795275590551181,
          "duration": 0.5961532499999862
        },
        {
          "name": "C4",
          "midi": 60,
          "time": 199.15364699999967,
          "velocity": 0.7795275590551181,
          "duration": 0.8052876562499875
        },
        {
          "name": "E4",
          "midi": 64,
          "time": 199.15364699999967,
          "velocity": 0.7795275590551181,
          "duration": 0.6706724062499916
        },
        {
          "name": "F4",
          "midi": 65,
          "time": 199.84595399999967,
          "velocity": 0.7795275590551181,
          "duration": 0.16105753124998046
        },
        {
          "name": "A3",
          "midi": 57,
          "time": 199.84595399999967,
          "velocity": 0.7795275590551181,
          "duration": 0.12740371874997436
        },
        {
          "name": "D4",
          "midi": 62,
          "time": 200.30749199999966,
          "velocity": 0.7795275590551181,
          "duration": 0.17067290624999032
        },
        {
          "name": "A3",
          "midi": 57,
          "time": 200.30749199999966,
          "velocity": 0.7795275590551181,
          "duration": 0.20192287499997974
        },
        {
          "name": "F4",
          "midi": 65,
          "time": 200.30749199999966,
          "velocity": 0.7795275590551181,
          "duration": 0.38221115625000834
        },
        {
          "name": "A#3",
          "midi": 58,
          "time": 200.30749199999966,
          "velocity": 0.7795275590551181,
          "duration": 0.20192287499997974
        },
        {
          "name": "A3",
          "midi": 57,
          "time": 200.53826099999964,
          "velocity": 0.7795275590551181,
          "duration": 0.09615375000001336
        },
        {
          "name": "C4",
          "midi": 60,
          "time": 200.53826099999964,
          "velocity": 0.7795275590551181,
          "duration": 0.09134606250000843
        },
        {
          "name": "A3",
          "midi": 57,
          "time": 200.76902999999967,
          "velocity": 0.7795275590551181,
          "duration": 0.05769225000000233
        },
        {
          "name": "C4",
          "midi": 60,
          "time": 200.99979899999968,
          "velocity": 0.7795275590551181,
          "duration": 0.6514416562499719
        },
        {
          "name": "F4",
          "midi": 65,
          "time": 200.99979899999968,
          "velocity": 0.7795275590551181,
          "duration": 0.6442301249999787
        },
        {
          "name": "A3",
          "midi": 57,
          "time": 200.99979899999968,
          "velocity": 0.7795275590551181,
          "duration": 0.6129801562499892
        },
        {
          "name": "G3",
          "midi": 55,
          "time": 201.69210599999965,
          "velocity": 0.7795275590551181,
          "duration": 0.22836515624999265
        },
        {
          "name": "C4",
          "midi": 60,
          "time": 201.69210599999965,
          "velocity": 0.7795275590551181,
          "duration": 0.286057406249995
        },
        {
          "name": "E4",
          "midi": 64,
          "time": 201.69210599999965,
          "velocity": 0.7795275590551181,
          "duration": 0.21394209375000628
        },
        {
          "name": "A3",
          "midi": 57,
          "time": 202.15364399999964,
          "velocity": 0.7795275590551181,
          "duration": 0.5721148125000184
        },
        {
          "name": "C4",
          "midi": 60,
          "time": 202.15364399999964,
          "velocity": 0.7795275590551181,
          "duration": 0.4567303125000137
        },
        {
          "name": "F4",
          "midi": 65,
          "time": 202.15364399999964,
          "velocity": 0.7795275590551181,
          "duration": 0.5721148125000184
        },
        {
          "name": "D4",
          "midi": 62,
          "time": 202.84595099999967,
          "velocity": 0.7795275590551181,
          "duration": 0.5552879062499869
        },
        {
          "name": "F4",
          "midi": 65,
          "time": 202.84595099999967,
          "velocity": 0.7795275590551181,
          "duration": 1.021633593749982
        },
        {
          "name": "A#3",
          "midi": 58,
          "time": 202.84595099999967,
          "velocity": 0.7795275590551181,
          "duration": 0.57211481249999
        },
        {
          "name": "C4",
          "midi": 60,
          "time": 203.53825799999967,
          "velocity": 0.7795275590551181,
          "duration": 0.15384599999998727
        },
        {
          "name": "A3",
          "midi": 57,
          "time": 203.53825799999967,
          "velocity": 0.7795275590551181,
          "duration": 0.1586536874999922
        },
        {
          "name": "F4",
          "midi": 65,
          "time": 203.99979599999966,
          "velocity": 0.7795275590551181,
          "duration": 0.57211481249999
        },
        {
          "name": "D4",
          "midi": 62,
          "time": 203.99979599999966,
          "velocity": 0.7795275590551181,
          "duration": 0.57211481249999
        },
        {
          "name": "A#3",
          "midi": 58,
          "time": 203.99979599999966,
          "velocity": 0.7795275590551181,
          "duration": 0.57211481249999
        },
        {
          "name": "C#4",
          "midi": 61,
          "time": 203.99979599999966,
          "velocity": 0.7795275590551181,
          "duration": 0.03605765624999435
        },
        {
          "name": "C4",
          "midi": 60,
          "time": 204.69210299999966,
          "velocity": 0.7795275590551181,
          "duration": 0.6129801562500177
        },
        {
          "name": "G3",
          "midi": 55,
          "time": 204.69210299999966,
          "velocity": 0.7795275590551181,
          "duration": 0.5456725312500055
        },
        {
          "name": "E4",
          "midi": 64,
          "time": 204.69210299999966,
          "velocity": 0.7795275590551181,
          "duration": 0.6081724687500127
        },
        {
          "name": "C4",
          "midi": 60,
          "time": 205.3844099999997,
          "velocity": 0.7795275590551181,
          "duration": 0.18990365624998162
        },
        {
          "name": "A3",
          "midi": 57,
          "time": 205.3844099999997,
          "velocity": 0.7795275590551181,
          "duration": 0.204326718749968
        },
        {
          "name": "F4",
          "midi": 65,
          "time": 205.3844099999997,
          "velocity": 0.7795275590551181,
          "duration": 0.14663446874999408
        },
        {
          "name": "C4",
          "midi": 60,
          "time": 205.84594799999965,
          "velocity": 0.7795275590551181,
          "duration": 0.34855734375000225
        },
        {
          "name": "F4",
          "midi": 65,
          "time": 205.84594799999965,
          "velocity": 0.7795275590551181,
          "duration": 0.23076900000000933
        },
        {
          "name": "A3",
          "midi": 57,
          "time": 205.84594799999965,
          "velocity": 0.7795275590551181,
          "duration": 0.17548059374999525
        },
        {
          "name": "E4",
          "midi": 64,
          "time": 206.07671699999966,
          "velocity": 0.7795275590551181,
          "duration": 0.1057691249999948
        },
        {
          "name": "G3",
          "midi": 55,
          "time": 206.07671699999966,
          "velocity": 0.7795275590551181,
          "duration": 0.12259603124999785
        },
        {
          "name": "C4",
          "midi": 60,
          "time": 206.53825499999965,
          "velocity": 0.7795275590551181,
          "duration": 0.6610570312499817
        },
        {
          "name": "E4",
          "midi": 64,
          "time": 206.53825499999965,
          "velocity": 0.7795275590551181,
          "duration": 0.6706724062499916
        },
        {
          "name": "G3",
          "midi": 55,
          "time": 206.53825499999965,
          "velocity": 0.7795275590551181,
          "duration": 0.6009609374999911
        },
        {
          "name": "C4",
          "midi": 60,
          "time": 207.23056199999965,
          "velocity": 0.7795275590551181,
          "duration": 0.14903831249998234
        },
        {
          "name": "A3",
          "midi": 57,
          "time": 207.23056199999965,
          "velocity": 0.7795275590551181,
          "duration": 0.16105753124998046
        },
        {
          "name": "F4",
          "midi": 65,
          "time": 207.23056199999965,
          "velocity": 0.7795275590551181,
          "duration": 0.14663446874999408
        },
        {
          "name": "C4",
          "midi": 60,
          "time": 207.69209999999964,
          "velocity": 0.7795275590551181,
          "duration": 0.3701919375000102
        },
        {
          "name": "F4",
          "midi": 65,
          "time": 207.69209999999964,
          "velocity": 0.7795275590551181,
          "duration": 0.2403843750000192
        },
        {
          "name": "A3",
          "midi": 57,
          "time": 207.69209999999964,
          "velocity": 0.7795275590551181,
          "duration": 0.18990365625001004
        },
        {
          "name": "E4",
          "midi": 64,
          "time": 207.92286899999965,
          "velocity": 0.7795275590551181,
          "duration": 0.1322114062500077
        },
        {
          "name": "G3",
          "midi": 55,
          "time": 207.92286899999965,
          "velocity": 0.7795275590551181,
          "duration": 0.12980756250001946
        },
        {
          "name": "C4",
          "midi": 60,
          "time": 208.38440699999964,
          "velocity": 0.7795275590551181,
          "duration": 0.6514416562500003
        },
        {
          "name": "F4",
          "midi": 65,
          "time": 208.38440699999964,
          "velocity": 0.7795275590551181,
          "duration": 0.7091339062500026
        },
        {
          "name": "A3",
          "midi": 57,
          "time": 208.38440699999964,
          "velocity": 0.7795275590551181,
          "duration": 0.6370185937500139
        },
        {
          "name": "C4",
          "midi": 60,
          "time": 209.07671399999964,
          "velocity": 0.7795275590551181,
          "duration": 0.17548059374996683
        },
        {
          "name": "E4",
          "midi": 64,
          "time": 209.07671399999964,
          "velocity": 0.7795275590551181,
          "duration": 0.17307674999997857
        },
        {
          "name": "G3",
          "midi": 55,
          "time": 209.07671399999964,
          "velocity": 0.7795275590551181,
          "duration": 0.1586536874999922
        },
        {
          "name": "C4",
          "midi": 60,
          "time": 209.5382519999996,
          "velocity": 0.7795275590551181,
          "duration": 0.4567303125000137
        },
        {
          "name": "A3",
          "midi": 57,
          "time": 209.5382519999996,
          "velocity": 0.7795275590551181,
          "duration": 0.4567303125000137
        },
        {
          "name": "F4",
          "midi": 65,
          "time": 209.5382519999996,
          "velocity": 0.7795275590551181,
          "duration": 0.4567303125000137
        },
        {
          "name": "D4",
          "midi": 62,
          "time": 210.2305589999996,
          "velocity": 0.7795275590551181,
          "duration": 0.5769224999999949
        },
        {
          "name": "F4",
          "midi": 65,
          "time": 210.2305589999996,
          "velocity": 0.7795275590551181,
          "duration": 0.8509606874999918
        },
        {
          "name": "A#3",
          "midi": 58,
          "time": 210.2305589999996,
          "velocity": 0.7795275590551181,
          "duration": 0.6033647812500078
        },
        {
          "name": "A3",
          "midi": 57,
          "time": 210.9228659999996,
          "velocity": 0.7795275590551181,
          "duration": 0.1394229375000009
        },
        {
          "name": "C4",
          "midi": 60,
          "time": 210.9228659999996,
          "velocity": 0.7795275590551181,
          "duration": 0.12980756249999104
        },
        {
          "name": "D4",
          "midi": 62,
          "time": 211.3844039999996,
          "velocity": 0.7795275590551181,
          "duration": 0.4567303125000137
        },
        {
          "name": "F4",
          "midi": 65,
          "time": 211.3844039999996,
          "velocity": 0.7795275590551181,
          "duration": 0.4567303125000137
        },
        {
          "name": "A#3",
          "midi": 58,
          "time": 211.3844039999996,
          "velocity": 0.7795275590551181,
          "duration": 0.4567303125000137
        },
        {
          "name": "C4",
          "midi": 60,
          "time": 212.0767109999996,
          "velocity": 0.7795275590551181,
          "duration": 0.6562493437499768
        },
        {
          "name": "G3",
          "midi": 55,
          "time": 212.0767109999996,
          "velocity": 0.7795275590551181,
          "duration": 0.5841340312499881
        },
        {
          "name": "E4",
          "midi": 64,
          "time": 212.0767109999996,
          "velocity": 0.7795275590551181,
          "duration": 0.6538454999999885
        },
        {
          "name": "C4",
          "midi": 60,
          "time": 212.76901799999956,
          "velocity": 0.7795275590551181,
          "duration": 0.1249998749999861
        },
        {
          "name": "F4",
          "midi": 65,
          "time": 212.76901799999956,
          "velocity": 0.7795275590551181,
          "duration": 0.1249998749999861
        },
        {
          "name": "A3",
          "midi": 57,
          "time": 212.76901799999956,
          "velocity": 0.7795275590551181,
          "duration": 0.13942293749997248
        },
        {
          "name": "A3",
          "midi": 57,
          "time": 213.23055599999952,
          "velocity": 0.7795275590551181,
          "duration": 0.19711518750000323
        },
        {
          "name": "F4",
          "midi": 65,
          "time": 213.23055599999952,
          "velocity": 0.7795275590551181,
          "duration": 0.2451920624999957
        },
        {
          "name": "C4",
          "midi": 60,
          "time": 213.23055599999952,
          "velocity": 0.7795275590551181,
          "duration": 0.35576887499999543
        },
        {
          "name": "E4",
          "midi": 64,
          "time": 213.46132499999953,
          "velocity": 0.7795275590551181,
          "duration": 0.13701909374998422
        },
        {
          "name": "G3",
          "midi": 55,
          "time": 213.46132499999953,
          "velocity": 0.7795275590551181,
          "duration": 0.15384599999998727
        },
        {
          "name": "G3",
          "midi": 55,
          "time": 213.92286299999952,
          "velocity": 0.7795275590551181,
          "duration": 0.5961532499999862
        },
        {
          "name": "C4",
          "midi": 60,
          "time": 213.92286299999952,
          "velocity": 0.7795275590551181,
          "duration": 0.8052876562499875
        },
        {
          "name": "E4",
          "midi": 64,
          "time": 213.92286299999952,
          "velocity": 0.7795275590551181,
          "duration": 0.6706724062499916
        },
        {
          "name": "F4",
          "midi": 65,
          "time": 214.61516999999952,
          "velocity": 0.7795275590551181,
          "duration": 0.16105753124998046
        },
        {
          "name": "A3",
          "midi": 57,
          "time": 214.61516999999952,
          "velocity": 0.7795275590551181,
          "duration": 0.12740371874997436
        },
        {
          "name": "D4",
          "midi": 62,
          "time": 215.0767079999995,
          "velocity": 0.7795275590551181,
          "duration": 0.17067290624999032
        },
        {
          "name": "F4",
          "midi": 65,
          "time": 215.0767079999995,
          "velocity": 0.7795275590551181,
          "duration": 0.38221115625000834
        },
        {
          "name": "A#3",
          "midi": 58,
          "time": 215.0767079999995,
          "velocity": 0.7795275590551181,
          "duration": 0.20192287499997974
        },
        {
          "name": "A3",
          "midi": 57,
          "time": 215.3074769999995,
          "velocity": 0.7795275590551181,
          "duration": 0.09615375000001336
        },
        {
          "name": "C4",
          "midi": 60,
          "time": 215.3074769999995,
          "velocity": 0.7795275590551181,
          "duration": 0.09134606250000843
        },
        {
          "name": "D#4",
          "midi": 63,
          "time": 215.7690149999995,
          "velocity": 0.7795275590551181,
          "duration": 0.24038437499999077
        },
        {
          "name": "G3",
          "midi": 55,
          "time": 215.7690149999995,
          "velocity": 0.7795275590551181,
          "duration": 0.22836515624999265
        },
        {
          "name": "C3",
          "midi": 48,
          "time": 215.7690149999995,
          "velocity": 0.7795275590551181,
          "duration": 0.2187497812499828
        },
        {
          "name": "A#3",
          "midi": 58,
          "time": 215.7690149999995,
          "velocity": 0.7795275590551181,
          "duration": 0.21634593749999453
        },
        {
          "name": "C3",
          "midi": 48,
          "time": 219.9228569999995,
          "velocity": 0.7795275590551181,
          "duration": 0.07451915625000538
        },
        {
          "name": "C4",
          "midi": 60,
          "time": 219.9228569999995,
          "velocity": 0.7795275590551181,
          "duration": 0.07932684375001031
        },
        {
          "name": "C3",
          "midi": 48,
          "time": 220.15362599999952,
          "velocity": 0.7795275590551181,
          "duration": 0.3245189062499776
        },
        {
          "name": "C4",
          "midi": 60,
          "time": 220.15362599999952,
          "velocity": 0.7795275590551181,
          "duration": 0.32211506249998934
        },
        {
          "name": "C4",
          "midi": 60,
          "time": 220.6151639999995,
          "velocity": 0.7795275590551181,
          "duration": 0.05769225000000233
        },
        {
          "name": "C3",
          "midi": 48,
          "time": 220.6151639999995,
          "velocity": 0.7795275590551181,
          "duration": 0.05769225000000233
        },
        {
          "name": "C3",
          "midi": 48,
          "time": 220.84593299999952,
          "velocity": 0.7795275590551181,
          "duration": 0.24278821875000745
        },
        {
          "name": "C4",
          "midi": 60,
          "time": 220.84593299999952,
          "velocity": 0.7795275590551181,
          "duration": 0.2067305625000131
        },
        {
          "name": "F4",
          "midi": 65,
          "time": 222.46131599999953,
          "velocity": 0.7795275590551181,
          "duration": 0.39423037500000646
        },
        {
          "name": "A#4",
          "midi": 70,
          "time": 222.46131599999953,
          "velocity": 0.7795275590551181,
          "duration": 0.36057656250000036
        },
        {
          "name": "D4",
          "midi": 62,
          "time": 222.46131599999953,
          "velocity": 0.7795275590551181,
          "duration": 0.3725957812499985
        },
        {
          "name": "F4",
          "midi": 65,
          "time": 222.92285399999955,
          "velocity": 0.7795275590551181,
          "duration": 0.12980756249999104
        },
        {
          "name": "A4",
          "midi": 69,
          "time": 222.92285399999955,
          "velocity": 0.7795275590551181,
          "duration": 0.10096143749998987
        },
        {
          "name": "C4",
          "midi": 60,
          "time": 222.92285399999955,
          "velocity": 0.7795275590551181,
          "duration": 0.12259603124999785
        },
        {
          "name": "G4",
          "midi": 67,
          "time": 223.15362299999953,
          "velocity": 0.7795275590551181,
          "duration": 0.2716343437500086
        },
        {
          "name": "D#4",
          "midi": 63,
          "time": 223.15362299999953,
          "velocity": 0.7795275590551181,
          "duration": 0.28846125000001166
        },
        {
          "name": "A#3",
          "midi": 58,
          "time": 223.15362299999953,
          "velocity": 0.7795275590551181,
          "duration": 0.3581727187500121
        },
        {
          "name": "C4",
          "midi": 60,
          "time": 227.30746499999955,
          "velocity": 0.7795275590551181,
          "duration": 0.07451915624997696
        },
        {
          "name": "C3",
          "midi": 48,
          "time": 227.30746499999955,
          "velocity": 0.7795275590551181,
          "duration": 0.0721153124999887
        },
        {
          "name": "C3",
          "midi": 48,
          "time": 227.53823399999953,
          "velocity": 0.7795275590551181,
          "duration": 0.2572112812499938
        },
        {
          "name": "C4",
          "midi": 60,
          "time": 227.53823399999953,
          "velocity": 0.7795275590551181,
          "duration": 0.20913440625000135
        },
        {
          "name": "C4",
          "midi": 60,
          "time": 227.99977199999952,
          "velocity": 0.7795275590551181,
          "duration": 0.06490378124999552
        },
        {
          "name": "C3",
          "midi": 48,
          "time": 227.99977199999952,
          "velocity": 0.7795275590551181,
          "duration": 0.07451915625000538
        },
        {
          "name": "C3",
          "midi": 48,
          "time": 228.23054099999953,
          "velocity": 0.7795275590551181,
          "duration": 0.28365356250000673
        },
        {
          "name": "C4",
          "midi": 60,
          "time": 228.23054099999953,
          "velocity": 0.7795275590551181,
          "duration": 0.26201896874999875
        },
        {
          "name": "A#4",
          "midi": 70,
          "time": 231.69207599999953,
          "velocity": 0.7795275590551181,
          "duration": 0.3725957812499985
        },
        {
          "name": "A#3",
          "midi": 58,
          "time": 231.69207599999953,
          "velocity": 0.7795275590551181,
          "duration": 0.38942268750000153
        },
        {
          "name": "A3",
          "midi": 57,
          "time": 232.15361399999952,
          "velocity": 0.7795275590551181,
          "duration": 0.18749981249999337
        },
        {
          "name": "A4",
          "midi": 69,
          "time": 232.15361399999952,
          "velocity": 0.7795275590551181,
          "duration": 0.19951903124999149
        },
        {
          "name": "G4",
          "midi": 67,
          "time": 232.3843829999995,
          "velocity": 0.7795275590551181,
          "duration": 0.14423062500000583
        },
        {
          "name": "G3",
          "midi": 55,
          "time": 232.3843829999995,
          "velocity": 0.7795275590551181,
          "duration": 0.1322114062500077
        },
        {
          "name": "D#4",
          "midi": 63,
          "time": 232.84592099999952,
          "velocity": 0.7795275590551181,
          "duration": 0.10817296875001148
        },
        {
          "name": "D#3",
          "midi": 51,
          "time": 232.84592099999952,
          "velocity": 0.7795275590551181,
          "duration": 0.13701909375001264
        },
        {
          "name": "C3",
          "midi": 48,
          "time": 235.15361099999953,
          "velocity": 0.7795275590551181,
          "duration": 0.07451915625000538
        },
        {
          "name": "C4",
          "midi": 60,
          "time": 235.15361099999953,
          "velocity": 0.7795275590551181,
          "duration": 0.050480718750009146
        },
        {
          "name": "D#4",
          "midi": 63,
          "time": 235.38437999999954,
          "velocity": 0.7795275590551181,
          "duration": 0.14903831250001076
        },
        {
          "name": "D#3",
          "midi": 51,
          "time": 235.38437999999954,
          "velocity": 0.7795275590551181,
          "duration": 0.14903831250001076
        },
        {
          "name": "D#4",
          "midi": 63,
          "time": 235.61514899999955,
          "velocity": 0.7795275590551181,
          "duration": 0.2187497812500112
        },
        {
          "name": "D#3",
          "midi": 51,
          "time": 235.61514899999955,
          "velocity": 0.7795275590551181,
          "duration": 0.12259603124999785
        },
        {
          "name": "D3",
          "midi": 50,
          "time": 235.84591799999956,
          "velocity": 0.7795275590551181,
          "duration": 0.18749981249999337
        },
        {
          "name": "D4",
          "midi": 62,
          "time": 235.84591799999956,
          "velocity": 0.7795275590551181,
          "duration": 0.25480743749997714
        },
        {
          "name": "C3",
          "midi": 48,
          "time": 236.07668699999954,
          "velocity": 0.7795275590551181,
          "duration": 0.1586536874999922
        },
        {
          "name": "C4",
          "midi": 60,
          "time": 236.07668699999954,
          "velocity": 0.7795275590551181,
          "duration": 0.18028828125000018
        },
        {
          "name": "C4",
          "midi": 60,
          "time": 237.92283899999953,
          "velocity": 0.7795275590551181,
          "duration": 0.1249998749999861
        },
        {
          "name": "A#4",
          "midi": 70,
          "time": 237.92283899999953,
          "velocity": 0.7795275590551181,
          "duration": 0.11298065624998799
        },
        {
          "name": "D#5",
          "midi": 75,
          "time": 237.92283899999953,
          "velocity": 0.7795275590551181,
          "duration": 0.1249998749999861
        },
        {
          "name": "G4",
          "midi": 67,
          "time": 237.92283899999953,
          "velocity": 0.7795275590551181,
          "duration": 0.11538449999997624
        },
        {
          "name": "G4",
          "midi": 67,
          "time": 239.76899099999952,
          "velocity": 0.7795275590551181,
          "duration": 0.0865383750000035
        },
        {
          "name": "A#4",
          "midi": 70,
          "time": 239.76899099999952,
          "velocity": 0.7795275590551181,
          "duration": 0.0865383750000035
        },
        {
          "name": "C4",
          "midi": 60,
          "time": 239.76899099999952,
          "velocity": 0.7795275590551181,
          "duration": 0.11298065625001641
        },
        {
          "name": "D#5",
          "midi": 75,
          "time": 239.76899099999952,
          "velocity": 0.7795275590551181,
          "duration": 0.0865383750000035
        },
        {
          "name": "C4",
          "midi": 60,
          "time": 241.61514299999953,
          "velocity": 0.7795275590551181,
          "duration": 0.12019218749998117
        },
        {
          "name": "D#5",
          "midi": 75,
          "time": 241.61514299999953,
          "velocity": 0.7795275590551181,
          "duration": 0.10336528124997812
        },
        {
          "name": "G4",
          "midi": 67,
          "time": 241.61514299999953,
          "velocity": 0.7795275590551181,
          "duration": 0.09615374999998494
        },
        {
          "name": "A#4",
          "midi": 70,
          "time": 241.61514299999953,
          "velocity": 0.7795275590551181,
          "duration": 0.08173068749999857
        },
        {
          "name": "C4",
          "midi": 60,
          "time": 243.46129499999952,
          "velocity": 0.7795275590551181,
          "duration": 0.11538450000000466
        },
        {
          "name": "A#4",
          "midi": 70,
          "time": 243.46129499999952,
          "velocity": 0.7795275590551181,
          "duration": 0.08173068749999857
        },
        {
          "name": "D#5",
          "midi": 75,
          "time": 243.46129499999952,
          "velocity": 0.7795275590551181,
          "duration": 0.09134606250000843
        },
        {
          "name": "G4",
          "midi": 67,
          "time": 243.46129499999952,
          "velocity": 0.7795275590551181,
          "duration": 0.08173068749999857
        },
        {
          "name": "C4",
          "midi": 60,
          "time": 245.30744699999954,
          "velocity": 0.7795275590551181,
          "duration": 0.09615374999998494
        },
        {
          "name": "A#4",
          "midi": 70,
          "time": 245.30744699999954,
          "velocity": 0.7795275590551181,
          "duration": 0.06971146875000045
        },
        {
          "name": "D#5",
          "midi": 75,
          "time": 245.30744699999954,
          "velocity": 0.7795275590551181,
          "duration": 0.07692299999999364
        },
        {
          "name": "G4",
          "midi": 67,
          "time": 245.30744699999954,
          "velocity": 0.7795275590551181,
          "duration": 0.07932684374998189
        }
      ],
      "controlChanges": {
        "1": [
          {
            "number": 1,
            "time": 0.019230749999999994,
            "value": 0
          }
        ],
        "6": [
          {
            "number": 6,
            "time": 0.014423062499999997,
            "value": 0.09448818897637795
          }
        ],
        "7": [
          {
            "number": 7,
            "time": 1.394229375,
            "value": 0.7086614173228346
          }
        ],
        "10": [
          {
            "number": 10,
            "time": 1.3990370625000002,
            "value": 0.5039370078740157
          }
        ],
        "11": [
          {
            "number": 11,
            "time": 0.016826906249999996,
            "value": 1
          },
          {
            "number": 11,
            "time": 0.024038437499999996,
            "value": 1
          },
          {
            "number": 11,
            "time": 1.4038447500000002,
            "value": 1
          }
        ],
        "64": [
          {
            "number": 64,
            "time": 0.007211531249999999,
            "value": 0
          }
        ],
        "67": [
          {
            "number": 67,
            "time": 0.0048076874999999995,
            "value": 0
          }
        ],
        "91": [
          {
            "number": 91,
            "time": 1.4086524375000002,
            "value": 0.5039370078740157
          }
        ],
        "93": [
          {
            "number": 93,
            "time": 1.4134601250000003,
            "value": 0.36220472440944884
          }
        ],
        "100": [
          {
            "number": 100,
            "time": 0.009615374999999999,
            "value": 0
          }
        ],
        "101": [
          {
            "number": 101,
            "time": 0.012019218749999998,
            "value": 0
          }
        ],
        "121": [
          {
            "number": 121,
            "time": 0,
            "value": 0
          }
        ]
      },
      "id": 7,
      "name": "Brass               ",
      "instrumentNumber": 61,
      "instrument": "brass section",
      "instrumentFamily": "brass",
      "channelNumber": 4,
      "isPercussion": false
    }
  ]
}